%TF.GenerationSoftware,KiCad,Pcbnew,9.0.6*%
%TF.CreationDate,2026-08-22T06:09:00+01:00*%
%TF.ProjectId,myProject,6d795072-6f6a-4656-9374-2e6b69636164,rev?*%
%TF.SameCoordinates,Original*%
%TF.FileFunction,Copper,L2,Inr*%
%TF.FilePolarity,Positive*%
%FSLAX46Y46*%
G04 Gerber Fmt 4.6, Leading zero omitted, Abs format (unit mm)*
G04 Created by KiCad (PCBNEW 9.0.6) date 2026-08-22 06:09:00*
%MOMM*%
%LPD*%
G01*
G04 APERTURE LIST*
G04 Aperture macros list*
%AMRoundRect*
0 Rectangle with rounded corners*
0 $1 Rounding radius*
0 $2 $3 $4 $5 $6 $7 $8 $9 X,Y pos of 4 corners*
0 Add a 4 corners polygon primitive as box body*
4,1,4,$2,$3,$4,$5,$6,$7,$8,$9,$2,$3,0*
0 Add four circle primitives for the rounded corners*
1,1,$1+$1,$2,$3*
1,1,$1+$1,$4,$5*
1,1,$1+$1,$6,$7*
1,1,$1+$1,$8,$9*
0 Add four rect primitives between the rounded corners*
20,1,$1+$1,$2,$3,$4,$5,0*
20,1,$1+$1,$4,$5,$6,$7,0*
20,1,$1+$1,$6,$7,$8,$9,0*
20,1,$1+$1,$8,$9,$2,$3,0*%
G04 Aperture macros list end*
%TA.AperFunction,ComponentPad*%
%ADD10C,1.950000*%
%TD*%
%TA.AperFunction,ComponentPad*%
%ADD11R,1.500000X1.500000*%
%TD*%
%TA.AperFunction,ComponentPad*%
%ADD12C,1.500000*%
%TD*%
%TA.AperFunction,ComponentPad*%
%ADD13R,1.590000X1.590000*%
%TD*%
%TA.AperFunction,ComponentPad*%
%ADD14C,1.590000*%
%TD*%
%TA.AperFunction,ComponentPad*%
%ADD15RoundRect,0.450000X1.450000X-0.450000X1.450000X0.450000X-1.450000X0.450000X-1.450000X-0.450000X0*%
%TD*%
%TA.AperFunction,ComponentPad*%
%ADD16RoundRect,0.450000X0.450000X1.450000X-0.450000X1.450000X-0.450000X-1.450000X0.450000X-1.450000X0*%
%TD*%
%TA.AperFunction,ComponentPad*%
%ADD17R,2.100000X2.100000*%
%TD*%
%TA.AperFunction,ComponentPad*%
%ADD18C,2.100000*%
%TD*%
%TA.AperFunction,ComponentPad*%
%ADD19C,3.000000*%
%TD*%
%TA.AperFunction,ComponentPad*%
%ADD20R,1.700000X1.700000*%
%TD*%
%TA.AperFunction,ComponentPad*%
%ADD21C,1.700000*%
%TD*%
%TA.AperFunction,ComponentPad*%
%ADD22R,2.475000X2.475000*%
%TD*%
%TA.AperFunction,ComponentPad*%
%ADD23C,2.475000*%
%TD*%
%TA.AperFunction,ViaPad*%
%ADD24C,0.600000*%
%TD*%
%TA.AperFunction,ViaPad*%
%ADD25C,0.700000*%
%TD*%
%TA.AperFunction,ViaPad*%
%ADD26C,0.800000*%
%TD*%
%TA.AperFunction,ViaPad*%
%ADD27C,1.000000*%
%TD*%
G04 APERTURE END LIST*
D10*
%TO.N,/AC_L*%
%TO.C,F1*%
X80350000Y-67200000D03*
%TO.N,/AC_Path/FUSED_AC_L*%
X80350000Y-79700000D03*
%TD*%
D11*
%TO.N,/AC_N*%
%TO.C,RV1*%
X94600000Y-65150000D03*
D12*
%TO.N,/AC_Path/FUSED_AC_L*%
X91400000Y-72650000D03*
%TD*%
D13*
%TO.N,/FPGA_CS*%
%TO.C,J4*%
X231590000Y-87670000D03*
D14*
%TO.N,GND*%
X231590000Y-85130000D03*
X231590000Y-82590000D03*
%TO.N,/SDO_B*%
X231590000Y-80050000D03*
%TO.N,unconnected-(J4-PadA5)*%
X231590000Y-77510000D03*
%TO.N,GND*%
X231590000Y-74970000D03*
%TO.N,/FPGA_SCLK*%
X229050000Y-87670000D03*
%TO.N,/SDO_A*%
X229050000Y-85130000D03*
%TO.N,GND*%
X229050000Y-82590000D03*
%TO.N,/DIAG*%
X229050000Y-80050000D03*
%TO.N,unconnected-(J4-PadB5)*%
X229050000Y-77510000D03*
%TO.N,unconnected-(J4-PadB6)*%
X229050000Y-74970000D03*
%TD*%
D15*
%TO.N,/+9V_IN*%
%TO.C,J5*%
X137850000Y-111787500D03*
%TO.N,GND*%
X137850000Y-117987500D03*
D16*
%TO.N,unconnected-(J5-Pad3)*%
X142550000Y-114787500D03*
%TD*%
D17*
%TO.N,/AC_L*%
%TO.C,J2*%
X65550000Y-66640000D03*
D18*
%TO.N,/AC_N*%
X65550000Y-71720000D03*
%TD*%
D19*
%TO.N,+5V*%
%TO.C,5v*%
X208100000Y-98600000D03*
%TD*%
%TO.N,+3.3V*%
%TO.C,3v3*%
X224150000Y-99250000D03*
%TD*%
%TO.N,/+9V_IN*%
%TO.C,9v*%
X151550000Y-109500000D03*
%TD*%
%TO.N,GND*%
%TO.C,GND*%
X139650000Y-85850000D03*
%TD*%
D20*
%TO.N,/Buck_Vin*%
%TO.C,J1*%
X232700000Y-94350000D03*
D21*
%TO.N,+5V*%
X232700000Y-96890000D03*
%TO.N,+3.3V*%
X232700000Y-99430000D03*
%TO.N,GND*%
X232700000Y-101970000D03*
%TD*%
D22*
%TO.N,Net-(D2-K)*%
%TO.C,S1*%
X164300000Y-116950000D03*
D23*
%TO.N,/Buck_Vin*%
X168900000Y-116950000D03*
%TD*%
D17*
%TO.N,/LOAD_L*%
%TO.C,J3*%
X65990000Y-94122500D03*
D18*
%TO.N,/AC_N*%
X65990000Y-99202500D03*
%TD*%
D19*
%TO.N,GND*%
%TO.C,GND*%
X191250000Y-95000000D03*
%TD*%
%TO.N,GND*%
%TO.C,GND*%
X187800000Y-61400000D03*
%TD*%
D24*
%TO.N,GND*%
X134750000Y-92600000D03*
D25*
X149050000Y-82200000D03*
X198650000Y-65500000D03*
X132800000Y-55100000D03*
X173100000Y-83350000D03*
D26*
X137900000Y-120350000D03*
D27*
X210800000Y-108000000D03*
D24*
X203500000Y-107200000D03*
D27*
X183950000Y-124850000D03*
D25*
X229400000Y-106600000D03*
D24*
X131800000Y-98650000D03*
D25*
X232900000Y-104600000D03*
X193900000Y-85850000D03*
D24*
X181905000Y-85639000D03*
D25*
X215550000Y-104250000D03*
X231550000Y-72800000D03*
X159500000Y-76050000D03*
D24*
X220300000Y-75950000D03*
X177200000Y-112550000D03*
D25*
X200900000Y-77400000D03*
X139850000Y-63050000D03*
D24*
X210650000Y-76100000D03*
D27*
X164300000Y-106600000D03*
D25*
X181050000Y-72720000D03*
D24*
X131350000Y-64200000D03*
D27*
X206950000Y-123650000D03*
D25*
X182355000Y-90639000D03*
D24*
X221650000Y-109600000D03*
D25*
X191700000Y-72700000D03*
D24*
X215750000Y-85050000D03*
D25*
X179305000Y-96739000D03*
D24*
X135100000Y-51950000D03*
X177650000Y-109150000D03*
D26*
%TO.N,/Buck_Vin*%
X205500000Y-105600000D03*
X201100000Y-105600000D03*
D25*
%TO.N,+5V*%
X176900000Y-79150000D03*
X217550000Y-103850000D03*
X156050000Y-72450000D03*
X221750000Y-107000000D03*
X212350000Y-86550000D03*
X137650000Y-63000000D03*
X218700000Y-102800000D03*
X131150000Y-90950000D03*
%TO.N,+3.3V*%
X224100000Y-105000000D03*
X225350000Y-104600000D03*
X216650000Y-74400000D03*
X141100000Y-53650000D03*
%TO.N,Net-(U3-DCDC_OUT)*%
X119850000Y-56695000D03*
X120000000Y-54000000D03*
D24*
%TO.N,/AC_N*%
X120050000Y-66800000D03*
D25*
X115400000Y-53450000D03*
D27*
X100800000Y-81250000D03*
X101650000Y-65200000D03*
X99950000Y-61850000D03*
X104150000Y-81950000D03*
D25*
X113200000Y-62100000D03*
D26*
%TO.N,/AC_Path/V_DIV*%
X119500000Y-60550000D03*
X119600000Y-62750000D03*
D24*
%TO.N,/SDO_A*%
X220400000Y-79200000D03*
X222141942Y-79641942D03*
%TO.N,/CS*%
X216534467Y-85206893D03*
X205900000Y-76250000D03*
X218000000Y-83150000D03*
X206050000Y-85150000D03*
%TO.N,/SDO_B*%
X222750000Y-78500000D03*
X220850000Y-77750000D03*
%TO.N,/SCLK*%
X207700000Y-73200000D03*
X207700000Y-76800000D03*
D25*
%TO.N,/DIAG*%
X225500000Y-79425000D03*
D24*
X133850000Y-55450000D03*
D25*
X225500000Y-77150000D03*
D24*
X137200000Y-55500000D03*
%TO.N,Net-(U1-OUTB)*%
X157650000Y-83300000D03*
X157650000Y-80100000D03*
%TO.N,Net-(U1-+INA)*%
X152200000Y-80800000D03*
X153650000Y-80200000D03*
%TO.N,/Vref_5v*%
X177250000Y-87850000D03*
X177500000Y-86575000D03*
%TD*%
%TA.AperFunction,Conductor*%
%TO.N,GND*%
G36*
X202170658Y-50748198D02*
G01*
X230823727Y-50927885D01*
X230860223Y-50933621D01*
X231134004Y-51019961D01*
X231144145Y-51023654D01*
X231496776Y-51169741D01*
X231506560Y-51174304D01*
X231845133Y-51350576D01*
X231854484Y-51355976D01*
X231856124Y-51357021D01*
X232176386Y-51561073D01*
X232185247Y-51567278D01*
X232488046Y-51799645D01*
X232496332Y-51806598D01*
X232777726Y-52064470D01*
X232785375Y-52072119D01*
X233043237Y-52353547D01*
X233050175Y-52361817D01*
X233282531Y-52664650D01*
X233288727Y-52673500D01*
X233493801Y-52995424D01*
X233499209Y-53004792D01*
X233675443Y-53343356D01*
X233680014Y-53353160D01*
X233826066Y-53705785D01*
X233829766Y-53715950D01*
X233944535Y-54079979D01*
X233947334Y-54090427D01*
X234029940Y-54463066D01*
X234031818Y-54473720D01*
X234081630Y-54852129D01*
X234082573Y-54862905D01*
X234099381Y-55247968D01*
X234099499Y-55253373D01*
X234099499Y-55285862D01*
X234099499Y-55315533D01*
X234099499Y-55315535D01*
X234099500Y-55325527D01*
X234099500Y-101226546D01*
X234079815Y-101293585D01*
X234027011Y-101339340D01*
X233957853Y-101349284D01*
X233894297Y-101320259D01*
X233865016Y-101282842D01*
X233854626Y-101262452D01*
X233815270Y-101208282D01*
X233815269Y-101208282D01*
X233182962Y-101840590D01*
X233165925Y-101777007D01*
X233100099Y-101662993D01*
X233007007Y-101569901D01*
X232892993Y-101504075D01*
X232829409Y-101487037D01*
X233461716Y-100854728D01*
X233407550Y-100815375D01*
X233218216Y-100718904D01*
X233042026Y-100661656D01*
X232984350Y-100622218D01*
X232957152Y-100557860D01*
X232969067Y-100489013D01*
X233016311Y-100437538D01*
X233032882Y-100429168D01*
X233197598Y-100360941D01*
X233369655Y-100245977D01*
X233515977Y-100099655D01*
X233630941Y-99927598D01*
X233710130Y-99736420D01*
X233750500Y-99533465D01*
X233750500Y-99326535D01*
X233710130Y-99123580D01*
X233630941Y-98932402D01*
X233515977Y-98760345D01*
X233515975Y-98760342D01*
X233369657Y-98614024D01*
X233283626Y-98556541D01*
X233197598Y-98499059D01*
X233190874Y-98496274D01*
X233006420Y-98419870D01*
X233006412Y-98419868D01*
X232803469Y-98379500D01*
X232803465Y-98379500D01*
X232596535Y-98379500D01*
X232596530Y-98379500D01*
X232393587Y-98419868D01*
X232393579Y-98419870D01*
X232202403Y-98499058D01*
X232030342Y-98614024D01*
X231884024Y-98760342D01*
X231769058Y-98932403D01*
X231689870Y-99123579D01*
X231689868Y-99123587D01*
X231649500Y-99326530D01*
X231649500Y-99533469D01*
X231689868Y-99736412D01*
X231689870Y-99736420D01*
X231769058Y-99927596D01*
X231884024Y-100099657D01*
X232030342Y-100245975D01*
X232202405Y-100360943D01*
X232305043Y-100403456D01*
X232367108Y-100429164D01*
X232421511Y-100473005D01*
X232443576Y-100539299D01*
X232426297Y-100606998D01*
X232375160Y-100654609D01*
X232357974Y-100661656D01*
X232181781Y-100718905D01*
X231992439Y-100815380D01*
X231938282Y-100854727D01*
X231938282Y-100854728D01*
X232570591Y-101487037D01*
X232507007Y-101504075D01*
X232392993Y-101569901D01*
X232299901Y-101662993D01*
X232234075Y-101777007D01*
X232217037Y-101840591D01*
X231584728Y-101208282D01*
X231584727Y-101208282D01*
X231545380Y-101262439D01*
X231448904Y-101451782D01*
X231383242Y-101653869D01*
X231383242Y-101653872D01*
X231350000Y-101863753D01*
X231350000Y-102076246D01*
X231383242Y-102286127D01*
X231383242Y-102286130D01*
X231448904Y-102488217D01*
X231545375Y-102677550D01*
X231584728Y-102731716D01*
X232217037Y-102099408D01*
X232234075Y-102162993D01*
X232299901Y-102277007D01*
X232392993Y-102370099D01*
X232507007Y-102435925D01*
X232570590Y-102452962D01*
X231938282Y-103085269D01*
X231938282Y-103085270D01*
X231992449Y-103124624D01*
X232181782Y-103221095D01*
X232383870Y-103286757D01*
X232593754Y-103320000D01*
X232806246Y-103320000D01*
X233016127Y-103286757D01*
X233016130Y-103286757D01*
X233218217Y-103221095D01*
X233407554Y-103124622D01*
X233461716Y-103085270D01*
X233461717Y-103085270D01*
X232829408Y-102452962D01*
X232892993Y-102435925D01*
X233007007Y-102370099D01*
X233100099Y-102277007D01*
X233165925Y-102162993D01*
X233182962Y-102099408D01*
X233815270Y-102731717D01*
X233815270Y-102731716D01*
X233854624Y-102677552D01*
X233865015Y-102657159D01*
X233912989Y-102606362D01*
X233980810Y-102589567D01*
X234046945Y-102612104D01*
X234090397Y-102666819D01*
X234099500Y-102713453D01*
X234099500Y-121285824D01*
X234099382Y-121291242D01*
X234082561Y-121675859D01*
X234081615Y-121686651D01*
X234031645Y-122065627D01*
X234029761Y-122076295D01*
X233946904Y-122449468D01*
X233944096Y-122459931D01*
X233828986Y-122824442D01*
X233825276Y-122834620D01*
X233678785Y-123187707D01*
X233674200Y-123197521D01*
X233497460Y-123536459D01*
X233492036Y-123545838D01*
X233286379Y-123868067D01*
X233280158Y-123876935D01*
X233047161Y-124179984D01*
X233040189Y-124188275D01*
X232781642Y-124469822D01*
X232773973Y-124477474D01*
X232491832Y-124735386D01*
X232483525Y-124742339D01*
X232179941Y-124974647D01*
X232171058Y-124980848D01*
X231848376Y-125185762D01*
X231838986Y-125191165D01*
X231499635Y-125367139D01*
X231489810Y-125371701D01*
X231136393Y-125517387D01*
X231126206Y-125521074D01*
X230761434Y-125635353D01*
X230750965Y-125638137D01*
X230377607Y-125720144D01*
X230366934Y-125722004D01*
X229987839Y-125771110D01*
X229977045Y-125772031D01*
X229593571Y-125787926D01*
X229588157Y-125788032D01*
X229580605Y-125788015D01*
X229580600Y-125788015D01*
X131419669Y-125563454D01*
X131352675Y-125543616D01*
X131307041Y-125490707D01*
X131295958Y-125440444D01*
X131262091Y-121170402D01*
X228099500Y-121170402D01*
X228099500Y-121406597D01*
X228136446Y-121639868D01*
X228209433Y-121864496D01*
X228263442Y-121970493D01*
X228316657Y-122074933D01*
X228455483Y-122266010D01*
X228622490Y-122433017D01*
X228813567Y-122571843D01*
X228912991Y-122622502D01*
X229024003Y-122679066D01*
X229024005Y-122679066D01*
X229024008Y-122679068D01*
X229144412Y-122718189D01*
X229248631Y-122752053D01*
X229481903Y-122789000D01*
X229481908Y-122789000D01*
X229718097Y-122789000D01*
X229951368Y-122752053D01*
X230175992Y-122679068D01*
X230386433Y-122571843D01*
X230577510Y-122433017D01*
X230744517Y-122266010D01*
X230883343Y-122074933D01*
X230990568Y-121864492D01*
X231063553Y-121639868D01*
X231100500Y-121406597D01*
X231100500Y-121170402D01*
X231063553Y-120937131D01*
X230990566Y-120712503D01*
X230883342Y-120502066D01*
X230744517Y-120310990D01*
X230577510Y-120143983D01*
X230386433Y-120005157D01*
X230175996Y-119897933D01*
X229951368Y-119824946D01*
X229718097Y-119788000D01*
X229718092Y-119788000D01*
X229481908Y-119788000D01*
X229481903Y-119788000D01*
X229248631Y-119824946D01*
X229024003Y-119897933D01*
X228813566Y-120005157D01*
X228704550Y-120084362D01*
X228622490Y-120143983D01*
X228622488Y-120143985D01*
X228622487Y-120143985D01*
X228455485Y-120310987D01*
X228455485Y-120310988D01*
X228455483Y-120310990D01*
X228395862Y-120393050D01*
X228316657Y-120502066D01*
X228209433Y-120712503D01*
X228136446Y-120937131D01*
X228099500Y-121170402D01*
X131262091Y-121170402D01*
X131232841Y-117482402D01*
X135450000Y-117482402D01*
X135450000Y-117737500D01*
X136416988Y-117737500D01*
X136384075Y-117794507D01*
X136350000Y-117921674D01*
X136350000Y-118053326D01*
X136384075Y-118180493D01*
X136416988Y-118237500D01*
X135450001Y-118237500D01*
X135450001Y-118492598D01*
X135460078Y-118605960D01*
X135513228Y-118791715D01*
X135602686Y-118962974D01*
X135724784Y-119112715D01*
X135874525Y-119234813D01*
X136045784Y-119324271D01*
X136231538Y-119377420D01*
X136231541Y-119377421D01*
X136344903Y-119387499D01*
X137599999Y-119387499D01*
X137600000Y-119387498D01*
X137600000Y-118487500D01*
X138100000Y-118487500D01*
X138100000Y-119387499D01*
X139355092Y-119387499D01*
X139355098Y-119387498D01*
X139468460Y-119377421D01*
X139654215Y-119324271D01*
X139825474Y-119234813D01*
X139975215Y-119112715D01*
X140097313Y-118962974D01*
X140186771Y-118791715D01*
X140239920Y-118605961D01*
X140239921Y-118605958D01*
X140249999Y-118492597D01*
X140250000Y-118492595D01*
X140250000Y-118237500D01*
X139283012Y-118237500D01*
X139315925Y-118180493D01*
X139350000Y-118053326D01*
X139350000Y-117921674D01*
X139315925Y-117794507D01*
X139283012Y-117737500D01*
X140249999Y-117737500D01*
X140249999Y-117482407D01*
X140249998Y-117482401D01*
X140239921Y-117369039D01*
X140186771Y-117183284D01*
X140097313Y-117012025D01*
X139975215Y-116862284D01*
X139825474Y-116740186D01*
X139654215Y-116650728D01*
X139468461Y-116597579D01*
X139468458Y-116597578D01*
X139355097Y-116587500D01*
X138100000Y-116587500D01*
X138100000Y-117487500D01*
X137600000Y-117487500D01*
X137600000Y-116587500D01*
X136344907Y-116587500D01*
X136344901Y-116587501D01*
X136231539Y-116597578D01*
X136045784Y-116650728D01*
X135874525Y-116740186D01*
X135724784Y-116862284D01*
X135602686Y-117012025D01*
X135513228Y-117183284D01*
X135460079Y-117369038D01*
X135460078Y-117369041D01*
X135450000Y-117482402D01*
X131232841Y-117482402D01*
X131199446Y-113271798D01*
X141449500Y-113271798D01*
X141449500Y-116303201D01*
X141452401Y-116340067D01*
X141452402Y-116340073D01*
X141498254Y-116497893D01*
X141498255Y-116497896D01*
X141581917Y-116639362D01*
X141581923Y-116639370D01*
X141698129Y-116755576D01*
X141698133Y-116755579D01*
X141698135Y-116755581D01*
X141839602Y-116839244D01*
X141881224Y-116851336D01*
X141997426Y-116885097D01*
X141997429Y-116885097D01*
X141997431Y-116885098D01*
X142034306Y-116888000D01*
X142034314Y-116888000D01*
X143065686Y-116888000D01*
X143065694Y-116888000D01*
X143102569Y-116885098D01*
X143102571Y-116885097D01*
X143102573Y-116885097D01*
X143144191Y-116873005D01*
X143260398Y-116839244D01*
X143401865Y-116755581D01*
X143518081Y-116639365D01*
X143601744Y-116497898D01*
X143647598Y-116340069D01*
X143650500Y-116303194D01*
X143650500Y-115692747D01*
X162862000Y-115692747D01*
X162862000Y-118207252D01*
X162873631Y-118265729D01*
X162873632Y-118265730D01*
X162917947Y-118332052D01*
X162984269Y-118376367D01*
X162984270Y-118376368D01*
X163042747Y-118387999D01*
X163042750Y-118388000D01*
X163042752Y-118388000D01*
X165557250Y-118388000D01*
X165557251Y-118387999D01*
X165572068Y-118385052D01*
X165615729Y-118376368D01*
X165615729Y-118376367D01*
X165615731Y-118376367D01*
X165682052Y-118332052D01*
X165726367Y-118265731D01*
X165726367Y-118265729D01*
X165726368Y-118265729D01*
X165737999Y-118207252D01*
X165738000Y-118207250D01*
X165738000Y-116836821D01*
X167462000Y-116836821D01*
X167462000Y-117063178D01*
X167497407Y-117286733D01*
X167567354Y-117502005D01*
X167670112Y-117703676D01*
X167803155Y-117886794D01*
X167963206Y-118046845D01*
X168146324Y-118179888D01*
X168200021Y-118207248D01*
X168347994Y-118282645D01*
X168347996Y-118282645D01*
X168347999Y-118282647D01*
X168463388Y-118320139D01*
X168563266Y-118352592D01*
X168786822Y-118388000D01*
X168786827Y-118388000D01*
X169013178Y-118388000D01*
X169236733Y-118352592D01*
X169299948Y-118332052D01*
X169452001Y-118282647D01*
X169653676Y-118179888D01*
X169836794Y-118046845D01*
X169996845Y-117886794D01*
X170129888Y-117703676D01*
X170232647Y-117502001D01*
X170302592Y-117286733D01*
X170318977Y-117183284D01*
X170338000Y-117063178D01*
X170338000Y-116836821D01*
X170302592Y-116613266D01*
X170232645Y-116397994D01*
X170129887Y-116196323D01*
X169996845Y-116013206D01*
X169836794Y-115853155D01*
X169653676Y-115720112D01*
X169452005Y-115617354D01*
X169236733Y-115547407D01*
X169013178Y-115512000D01*
X169013173Y-115512000D01*
X168786827Y-115512000D01*
X168786822Y-115512000D01*
X168563266Y-115547407D01*
X168347994Y-115617354D01*
X168146323Y-115720112D01*
X167963203Y-115853157D01*
X167803157Y-116013203D01*
X167670112Y-116196323D01*
X167567354Y-116397994D01*
X167497407Y-116613266D01*
X167462000Y-116836821D01*
X165738000Y-116836821D01*
X165738000Y-115692749D01*
X165737999Y-115692747D01*
X165726368Y-115634270D01*
X165726367Y-115634269D01*
X165682052Y-115567947D01*
X165615730Y-115523632D01*
X165615729Y-115523631D01*
X165557252Y-115512000D01*
X165557248Y-115512000D01*
X163042752Y-115512000D01*
X163042747Y-115512000D01*
X162984270Y-115523631D01*
X162984269Y-115523632D01*
X162917947Y-115567947D01*
X162873632Y-115634269D01*
X162873631Y-115634270D01*
X162862000Y-115692747D01*
X143650500Y-115692747D01*
X143650500Y-113271806D01*
X143647598Y-113234931D01*
X143601744Y-113077102D01*
X143518081Y-112935635D01*
X143518079Y-112935633D01*
X143518076Y-112935629D01*
X143401870Y-112819423D01*
X143401862Y-112819417D01*
X143260396Y-112735755D01*
X143260393Y-112735754D01*
X143102573Y-112689902D01*
X143102567Y-112689901D01*
X143065701Y-112687000D01*
X143065694Y-112687000D01*
X142034306Y-112687000D01*
X142034298Y-112687000D01*
X141997432Y-112689901D01*
X141997426Y-112689902D01*
X141839606Y-112735754D01*
X141839603Y-112735755D01*
X141698137Y-112819417D01*
X141698129Y-112819423D01*
X141581923Y-112935629D01*
X141581917Y-112935637D01*
X141498255Y-113077103D01*
X141498254Y-113077106D01*
X141452402Y-113234926D01*
X141452401Y-113234932D01*
X141449500Y-113271798D01*
X131199446Y-113271798D01*
X131183583Y-111271798D01*
X135749500Y-111271798D01*
X135749500Y-112303201D01*
X135752401Y-112340067D01*
X135752402Y-112340073D01*
X135798254Y-112497893D01*
X135798255Y-112497896D01*
X135881917Y-112639362D01*
X135881923Y-112639370D01*
X135998129Y-112755576D01*
X135998133Y-112755579D01*
X135998135Y-112755581D01*
X136139602Y-112839244D01*
X136181224Y-112851336D01*
X136297426Y-112885097D01*
X136297429Y-112885097D01*
X136297431Y-112885098D01*
X136334306Y-112888000D01*
X136334314Y-112888000D01*
X139365686Y-112888000D01*
X139365694Y-112888000D01*
X139402569Y-112885098D01*
X139402571Y-112885097D01*
X139402573Y-112885097D01*
X139444191Y-112873005D01*
X139560398Y-112839244D01*
X139701865Y-112755581D01*
X139818081Y-112639365D01*
X139901744Y-112497898D01*
X139947598Y-112340069D01*
X139950500Y-112303194D01*
X139950500Y-111271806D01*
X139947598Y-111234931D01*
X139937594Y-111200498D01*
X139901745Y-111077106D01*
X139901744Y-111077103D01*
X139901744Y-111077102D01*
X139818081Y-110935635D01*
X139818079Y-110935633D01*
X139818076Y-110935629D01*
X139701870Y-110819423D01*
X139701862Y-110819417D01*
X139560396Y-110735755D01*
X139560393Y-110735754D01*
X139402573Y-110689902D01*
X139402567Y-110689901D01*
X139365701Y-110687000D01*
X139365694Y-110687000D01*
X136334306Y-110687000D01*
X136334298Y-110687000D01*
X136297432Y-110689901D01*
X136297426Y-110689902D01*
X136139606Y-110735754D01*
X136139603Y-110735755D01*
X135998137Y-110819417D01*
X135998129Y-110819423D01*
X135881923Y-110935629D01*
X135881917Y-110935637D01*
X135798255Y-111077103D01*
X135798254Y-111077106D01*
X135752402Y-111234926D01*
X135752401Y-111234932D01*
X135749500Y-111271798D01*
X131183583Y-111271798D01*
X131168646Y-109388549D01*
X149849500Y-109388549D01*
X149849500Y-109611450D01*
X149849501Y-109611466D01*
X149878594Y-109832452D01*
X149878595Y-109832457D01*
X149878596Y-109832463D01*
X149878597Y-109832465D01*
X149936290Y-110047780D01*
X149936293Y-110047790D01*
X150021593Y-110253722D01*
X150021595Y-110253726D01*
X150133052Y-110446774D01*
X150133057Y-110446780D01*
X150133058Y-110446782D01*
X150268751Y-110623622D01*
X150268757Y-110623629D01*
X150426370Y-110781242D01*
X150426376Y-110781247D01*
X150603226Y-110916948D01*
X150796274Y-111028405D01*
X151002219Y-111113710D01*
X151217537Y-111171404D01*
X151438543Y-111200500D01*
X151438550Y-111200500D01*
X151661450Y-111200500D01*
X151661457Y-111200500D01*
X151882463Y-111171404D01*
X152097781Y-111113710D01*
X152303726Y-111028405D01*
X152496774Y-110916948D01*
X152673624Y-110781247D01*
X152831247Y-110623624D01*
X152966948Y-110446774D01*
X153078405Y-110253726D01*
X153163710Y-110047781D01*
X153221404Y-109832463D01*
X153250500Y-109611457D01*
X153250500Y-109388543D01*
X153221404Y-109167537D01*
X153163710Y-108952219D01*
X153078405Y-108746274D01*
X152966948Y-108553226D01*
X152831247Y-108376376D01*
X152831242Y-108376370D01*
X152673629Y-108218757D01*
X152673622Y-108218751D01*
X152496782Y-108083058D01*
X152496780Y-108083057D01*
X152496774Y-108083052D01*
X152303726Y-107971595D01*
X152303722Y-107971593D01*
X152097790Y-107886293D01*
X152097783Y-107886291D01*
X152097781Y-107886290D01*
X151882463Y-107828596D01*
X151882457Y-107828595D01*
X151882452Y-107828594D01*
X151661466Y-107799501D01*
X151661463Y-107799500D01*
X151661457Y-107799500D01*
X151438543Y-107799500D01*
X151438537Y-107799500D01*
X151438533Y-107799501D01*
X151217547Y-107828594D01*
X151217540Y-107828595D01*
X151217537Y-107828596D01*
X151002219Y-107886290D01*
X151002209Y-107886293D01*
X150796277Y-107971593D01*
X150796273Y-107971595D01*
X150603226Y-108083052D01*
X150603217Y-108083058D01*
X150426377Y-108218751D01*
X150426370Y-108218757D01*
X150268757Y-108376370D01*
X150268751Y-108376377D01*
X150133058Y-108553217D01*
X150133052Y-108553226D01*
X150021595Y-108746273D01*
X150021593Y-108746277D01*
X149936293Y-108952209D01*
X149936290Y-108952219D01*
X149878597Y-109167534D01*
X149878594Y-109167547D01*
X149849501Y-109388533D01*
X149849500Y-109388549D01*
X131168646Y-109388549D01*
X131149127Y-106927525D01*
X221199500Y-106927525D01*
X221199500Y-107072475D01*
X221237016Y-107212485D01*
X221237017Y-107212488D01*
X221309488Y-107338011D01*
X221309490Y-107338013D01*
X221309491Y-107338015D01*
X221411985Y-107440509D01*
X221411986Y-107440510D01*
X221411988Y-107440511D01*
X221537511Y-107512982D01*
X221537512Y-107512982D01*
X221537515Y-107512984D01*
X221677525Y-107550500D01*
X221677528Y-107550500D01*
X221822472Y-107550500D01*
X221822475Y-107550500D01*
X221962485Y-107512984D01*
X222088015Y-107440509D01*
X222190509Y-107338015D01*
X222262984Y-107212485D01*
X222300500Y-107072475D01*
X222300500Y-106927525D01*
X222262984Y-106787515D01*
X222190509Y-106661985D01*
X222088015Y-106559491D01*
X222088013Y-106559490D01*
X222088011Y-106559488D01*
X221962488Y-106487017D01*
X221962489Y-106487017D01*
X221951006Y-106483940D01*
X221822475Y-106449500D01*
X221677525Y-106449500D01*
X221548993Y-106483940D01*
X221537511Y-106487017D01*
X221411988Y-106559488D01*
X221411982Y-106559493D01*
X221309493Y-106661982D01*
X221309488Y-106661988D01*
X221237017Y-106787511D01*
X221237016Y-106787515D01*
X221199500Y-106927525D01*
X131149127Y-106927525D01*
X131137971Y-105520943D01*
X200499500Y-105520943D01*
X200499500Y-105679056D01*
X200540423Y-105831783D01*
X200540426Y-105831790D01*
X200619475Y-105968709D01*
X200619479Y-105968714D01*
X200619480Y-105968716D01*
X200731284Y-106080520D01*
X200731286Y-106080521D01*
X200731290Y-106080524D01*
X200868209Y-106159573D01*
X200868216Y-106159577D01*
X201020943Y-106200500D01*
X201020945Y-106200500D01*
X201179055Y-106200500D01*
X201179057Y-106200500D01*
X201331784Y-106159577D01*
X201468716Y-106080520D01*
X201580520Y-105968716D01*
X201659577Y-105831784D01*
X201700500Y-105679057D01*
X201700500Y-105520943D01*
X204899500Y-105520943D01*
X204899500Y-105679056D01*
X204940423Y-105831783D01*
X204940426Y-105831790D01*
X205019475Y-105968709D01*
X205019479Y-105968714D01*
X205019480Y-105968716D01*
X205131284Y-106080520D01*
X205131286Y-106080521D01*
X205131290Y-106080524D01*
X205268209Y-106159573D01*
X205268216Y-106159577D01*
X205420943Y-106200500D01*
X205420945Y-106200500D01*
X205579055Y-106200500D01*
X205579057Y-106200500D01*
X205731784Y-106159577D01*
X205868716Y-106080520D01*
X205980520Y-105968716D01*
X206059577Y-105831784D01*
X206100500Y-105679057D01*
X206100500Y-105520943D01*
X206059577Y-105368216D01*
X206042138Y-105338011D01*
X205980524Y-105231290D01*
X205980518Y-105231282D01*
X205868717Y-105119481D01*
X205868709Y-105119475D01*
X205731790Y-105040426D01*
X205731785Y-105040423D01*
X205730190Y-105039996D01*
X205727116Y-105039172D01*
X205661117Y-105021487D01*
X205579057Y-104999500D01*
X205420943Y-104999500D01*
X205268216Y-105040423D01*
X205268209Y-105040426D01*
X205131290Y-105119475D01*
X205131282Y-105119481D01*
X205019481Y-105231282D01*
X205019475Y-105231290D01*
X204940426Y-105368209D01*
X204940423Y-105368216D01*
X204899500Y-105520943D01*
X201700500Y-105520943D01*
X201659577Y-105368216D01*
X201642138Y-105338011D01*
X201580524Y-105231290D01*
X201580518Y-105231282D01*
X201468717Y-105119481D01*
X201468709Y-105119475D01*
X201331790Y-105040426D01*
X201331786Y-105040424D01*
X201331784Y-105040423D01*
X201179057Y-104999500D01*
X201020943Y-104999500D01*
X200868216Y-105040423D01*
X200868209Y-105040426D01*
X200731290Y-105119475D01*
X200731282Y-105119481D01*
X200619481Y-105231282D01*
X200619475Y-105231290D01*
X200540426Y-105368209D01*
X200540423Y-105368216D01*
X200499500Y-105520943D01*
X131137971Y-105520943D01*
X131133264Y-104927525D01*
X223549500Y-104927525D01*
X223549500Y-105072475D01*
X223570407Y-105150500D01*
X223587017Y-105212488D01*
X223659488Y-105338011D01*
X223659490Y-105338013D01*
X223659491Y-105338015D01*
X223761985Y-105440509D01*
X223761986Y-105440510D01*
X223761988Y-105440511D01*
X223887511Y-105512982D01*
X223887512Y-105512982D01*
X223887515Y-105512984D01*
X224027525Y-105550500D01*
X224027528Y-105550500D01*
X224172472Y-105550500D01*
X224172475Y-105550500D01*
X224312485Y-105512984D01*
X224438015Y-105440509D01*
X224540509Y-105338015D01*
X224612984Y-105212485D01*
X224650500Y-105072475D01*
X224650500Y-104952204D01*
X224670185Y-104885165D01*
X224722989Y-104839410D01*
X224792147Y-104829466D01*
X224855703Y-104858491D01*
X224881887Y-104890204D01*
X224909488Y-104938011D01*
X224909490Y-104938013D01*
X224909491Y-104938015D01*
X225011985Y-105040509D01*
X225011986Y-105040510D01*
X225011988Y-105040511D01*
X225137511Y-105112982D01*
X225137512Y-105112982D01*
X225137515Y-105112984D01*
X225277525Y-105150500D01*
X225277528Y-105150500D01*
X225422472Y-105150500D01*
X225422475Y-105150500D01*
X225562485Y-105112984D01*
X225688015Y-105040509D01*
X225790509Y-104938015D01*
X225862984Y-104812485D01*
X225900500Y-104672475D01*
X225900500Y-104527525D01*
X225862984Y-104387515D01*
X225806977Y-104290509D01*
X225790511Y-104261988D01*
X225790506Y-104261982D01*
X225688017Y-104159493D01*
X225688011Y-104159488D01*
X225562488Y-104087017D01*
X225562489Y-104087017D01*
X225551006Y-104083940D01*
X225422475Y-104049500D01*
X225277525Y-104049500D01*
X225148993Y-104083940D01*
X225137511Y-104087017D01*
X225011988Y-104159488D01*
X225011982Y-104159493D01*
X224909493Y-104261982D01*
X224909488Y-104261988D01*
X224837017Y-104387511D01*
X224837016Y-104387515D01*
X224799500Y-104527525D01*
X224799500Y-104527527D01*
X224799500Y-104647795D01*
X224779815Y-104714834D01*
X224727011Y-104760589D01*
X224657853Y-104770533D01*
X224594297Y-104741508D01*
X224568114Y-104709796D01*
X224540513Y-104661991D01*
X224540510Y-104661988D01*
X224540509Y-104661985D01*
X224438015Y-104559491D01*
X224438013Y-104559490D01*
X224438011Y-104559488D01*
X224312488Y-104487017D01*
X224312489Y-104487017D01*
X224301006Y-104483940D01*
X224172475Y-104449500D01*
X224027525Y-104449500D01*
X223898993Y-104483940D01*
X223887511Y-104487017D01*
X223761988Y-104559488D01*
X223761982Y-104559493D01*
X223659493Y-104661982D01*
X223659488Y-104661988D01*
X223587017Y-104787511D01*
X223587016Y-104787515D01*
X223549500Y-104927525D01*
X131133264Y-104927525D01*
X131124143Y-103777525D01*
X216999500Y-103777525D01*
X216999500Y-103922475D01*
X217033537Y-104049500D01*
X217037017Y-104062488D01*
X217109488Y-104188011D01*
X217109490Y-104188013D01*
X217109491Y-104188015D01*
X217211985Y-104290509D01*
X217211986Y-104290510D01*
X217211988Y-104290511D01*
X217337511Y-104362982D01*
X217337512Y-104362982D01*
X217337515Y-104362984D01*
X217477525Y-104400500D01*
X217477528Y-104400500D01*
X217622472Y-104400500D01*
X217622475Y-104400500D01*
X217762485Y-104362984D01*
X217888015Y-104290509D01*
X217990509Y-104188015D01*
X218062984Y-104062485D01*
X218100500Y-103922475D01*
X218100500Y-103777525D01*
X218062984Y-103637515D01*
X217990509Y-103511985D01*
X217888015Y-103409491D01*
X217888013Y-103409490D01*
X217888011Y-103409488D01*
X217762488Y-103337017D01*
X217762489Y-103337017D01*
X217751006Y-103333940D01*
X217622475Y-103299500D01*
X217477525Y-103299500D01*
X217348993Y-103333940D01*
X217337511Y-103337017D01*
X217211988Y-103409488D01*
X217211982Y-103409493D01*
X217109493Y-103511982D01*
X217109488Y-103511988D01*
X217037017Y-103637511D01*
X217037016Y-103637515D01*
X216999500Y-103777525D01*
X131124143Y-103777525D01*
X131115815Y-102727525D01*
X218149500Y-102727525D01*
X218149500Y-102872475D01*
X218187016Y-103012485D01*
X218187017Y-103012488D01*
X218259488Y-103138011D01*
X218259490Y-103138013D01*
X218259491Y-103138015D01*
X218361985Y-103240509D01*
X218361986Y-103240510D01*
X218361988Y-103240511D01*
X218487511Y-103312982D01*
X218487512Y-103312982D01*
X218487515Y-103312984D01*
X218627525Y-103350500D01*
X218627528Y-103350500D01*
X218772472Y-103350500D01*
X218772475Y-103350500D01*
X218912485Y-103312984D01*
X219038015Y-103240509D01*
X219140509Y-103138015D01*
X219212984Y-103012485D01*
X219250500Y-102872475D01*
X219250500Y-102727525D01*
X219212984Y-102587515D01*
X219145136Y-102470000D01*
X219140511Y-102461988D01*
X219140506Y-102461982D01*
X219038017Y-102359493D01*
X219038011Y-102359488D01*
X218912488Y-102287017D01*
X218912489Y-102287017D01*
X218875131Y-102277007D01*
X218772475Y-102249500D01*
X218627525Y-102249500D01*
X218524869Y-102277007D01*
X218487511Y-102287017D01*
X218361988Y-102359488D01*
X218361982Y-102359493D01*
X218259493Y-102461982D01*
X218259488Y-102461988D01*
X218187017Y-102587511D01*
X218187016Y-102587515D01*
X218149500Y-102727525D01*
X131115815Y-102727525D01*
X131082195Y-98488549D01*
X206399500Y-98488549D01*
X206399500Y-98711450D01*
X206399501Y-98711466D01*
X206428594Y-98932452D01*
X206428595Y-98932457D01*
X206428596Y-98932463D01*
X206486290Y-99147780D01*
X206486293Y-99147790D01*
X206560332Y-99326535D01*
X206571595Y-99353726D01*
X206683052Y-99546774D01*
X206683057Y-99546780D01*
X206683058Y-99546782D01*
X206818751Y-99723622D01*
X206818757Y-99723629D01*
X206976370Y-99881242D01*
X206976377Y-99881248D01*
X207036782Y-99927598D01*
X207153226Y-100016948D01*
X207346274Y-100128405D01*
X207552219Y-100213710D01*
X207767537Y-100271404D01*
X207988543Y-100300500D01*
X207988550Y-100300500D01*
X208211450Y-100300500D01*
X208211457Y-100300500D01*
X208432463Y-100271404D01*
X208647781Y-100213710D01*
X208853726Y-100128405D01*
X209046774Y-100016948D01*
X209223624Y-99881247D01*
X209381247Y-99723624D01*
X209516948Y-99546774D01*
X209628405Y-99353726D01*
X209713710Y-99147781D01*
X209716184Y-99138549D01*
X222449500Y-99138549D01*
X222449500Y-99361450D01*
X222449501Y-99361466D01*
X222478594Y-99582452D01*
X222478595Y-99582457D01*
X222478596Y-99582463D01*
X222536290Y-99797780D01*
X222536293Y-99797790D01*
X222621593Y-100003722D01*
X222621595Y-100003726D01*
X222733052Y-100196774D01*
X222733057Y-100196780D01*
X222733058Y-100196782D01*
X222868751Y-100373622D01*
X222868757Y-100373629D01*
X223026370Y-100531242D01*
X223026377Y-100531248D01*
X223061059Y-100557860D01*
X223203226Y-100666948D01*
X223396274Y-100778405D01*
X223602219Y-100863710D01*
X223817537Y-100921404D01*
X224038543Y-100950500D01*
X224038550Y-100950500D01*
X224261450Y-100950500D01*
X224261457Y-100950500D01*
X224482463Y-100921404D01*
X224697781Y-100863710D01*
X224903726Y-100778405D01*
X225096774Y-100666948D01*
X225273624Y-100531247D01*
X225431247Y-100373624D01*
X225566948Y-100196774D01*
X225678405Y-100003726D01*
X225763710Y-99797781D01*
X225821404Y-99582463D01*
X225850500Y-99361457D01*
X225850500Y-99138543D01*
X225821404Y-98917537D01*
X225763710Y-98702219D01*
X225678405Y-98496274D01*
X225566948Y-98303226D01*
X225431247Y-98126376D01*
X225431242Y-98126370D01*
X225273629Y-97968757D01*
X225273622Y-97968751D01*
X225096782Y-97833058D01*
X225096780Y-97833057D01*
X225096774Y-97833052D01*
X224903726Y-97721595D01*
X224903722Y-97721593D01*
X224697790Y-97636293D01*
X224697783Y-97636291D01*
X224697781Y-97636290D01*
X224482463Y-97578596D01*
X224482457Y-97578595D01*
X224482452Y-97578594D01*
X224261466Y-97549501D01*
X224261463Y-97549500D01*
X224261457Y-97549500D01*
X224038543Y-97549500D01*
X224038537Y-97549500D01*
X224038533Y-97549501D01*
X223817547Y-97578594D01*
X223817540Y-97578595D01*
X223817537Y-97578596D01*
X223602219Y-97636290D01*
X223602209Y-97636293D01*
X223396277Y-97721593D01*
X223396273Y-97721595D01*
X223203226Y-97833052D01*
X223203217Y-97833058D01*
X223026377Y-97968751D01*
X223026370Y-97968757D01*
X222868757Y-98126370D01*
X222868751Y-98126377D01*
X222733058Y-98303217D01*
X222733052Y-98303226D01*
X222621595Y-98496273D01*
X222621593Y-98496277D01*
X222536293Y-98702209D01*
X222536290Y-98702219D01*
X222478597Y-98917534D01*
X222478594Y-98917547D01*
X222449501Y-99138533D01*
X222449500Y-99138549D01*
X209716184Y-99138549D01*
X209771404Y-98932463D01*
X209800500Y-98711457D01*
X209800500Y-98488543D01*
X209771404Y-98267537D01*
X209713710Y-98052219D01*
X209628405Y-97846274D01*
X209516948Y-97653226D01*
X209477867Y-97602294D01*
X209381248Y-97476377D01*
X209381242Y-97476370D01*
X209223629Y-97318757D01*
X209223622Y-97318751D01*
X209046782Y-97183058D01*
X209046780Y-97183057D01*
X209046774Y-97183052D01*
X208853726Y-97071595D01*
X208853722Y-97071593D01*
X208647790Y-96986293D01*
X208647783Y-96986291D01*
X208647781Y-96986290D01*
X208432463Y-96928596D01*
X208432457Y-96928595D01*
X208432452Y-96928594D01*
X208240945Y-96903382D01*
X208211466Y-96899501D01*
X208211463Y-96899500D01*
X208211457Y-96899500D01*
X207988543Y-96899500D01*
X207988537Y-96899500D01*
X207988533Y-96899501D01*
X207767547Y-96928594D01*
X207767540Y-96928595D01*
X207767537Y-96928596D01*
X207552219Y-96986290D01*
X207552209Y-96986293D01*
X207346277Y-97071593D01*
X207346273Y-97071595D01*
X207153226Y-97183052D01*
X207153217Y-97183058D01*
X206976377Y-97318751D01*
X206976370Y-97318757D01*
X206818757Y-97476370D01*
X206818751Y-97476377D01*
X206683058Y-97653217D01*
X206683052Y-97653226D01*
X206571595Y-97846273D01*
X206571593Y-97846277D01*
X206486293Y-98052209D01*
X206486290Y-98052219D01*
X206428597Y-98267534D01*
X206428594Y-98267547D01*
X206399501Y-98488533D01*
X206399500Y-98488549D01*
X131082195Y-98488549D01*
X131053487Y-94868905D01*
X189250000Y-94868905D01*
X189250000Y-95131094D01*
X189284220Y-95391009D01*
X189284222Y-95391020D01*
X189352075Y-95644255D01*
X189452404Y-95886471D01*
X189452409Y-95886482D01*
X189583488Y-96113516D01*
X189583494Y-96113524D01*
X189670080Y-96226365D01*
X190387425Y-95509019D01*
X190473249Y-95637463D01*
X190612537Y-95776751D01*
X190740978Y-95862573D01*
X190023633Y-96579917D01*
X190023633Y-96579918D01*
X190136475Y-96666505D01*
X190136483Y-96666511D01*
X190363517Y-96797590D01*
X190363528Y-96797595D01*
X190605744Y-96897924D01*
X190858979Y-96965777D01*
X190858990Y-96965779D01*
X191118905Y-96999999D01*
X191118920Y-97000000D01*
X191381080Y-97000000D01*
X191381094Y-96999999D01*
X191641009Y-96965779D01*
X191641020Y-96965777D01*
X191894255Y-96897924D01*
X192136471Y-96797595D01*
X192136482Y-96797590D01*
X192155638Y-96786530D01*
X231649500Y-96786530D01*
X231649500Y-96993469D01*
X231689868Y-97196412D01*
X231689870Y-97196420D01*
X231769058Y-97387596D01*
X231884024Y-97559657D01*
X232030342Y-97705975D01*
X232030345Y-97705977D01*
X232202402Y-97820941D01*
X232393580Y-97900130D01*
X232596530Y-97940499D01*
X232596534Y-97940500D01*
X232596535Y-97940500D01*
X232803466Y-97940500D01*
X232803467Y-97940499D01*
X233006420Y-97900130D01*
X233197598Y-97820941D01*
X233369655Y-97705977D01*
X233515977Y-97559655D01*
X233630941Y-97387598D01*
X233710130Y-97196420D01*
X233750500Y-96993465D01*
X233750500Y-96786535D01*
X233710130Y-96583580D01*
X233630941Y-96392402D01*
X233515977Y-96220345D01*
X233515975Y-96220342D01*
X233369657Y-96074024D01*
X233258871Y-96000000D01*
X233197598Y-95959059D01*
X233006420Y-95879870D01*
X233006412Y-95879868D01*
X232803469Y-95839500D01*
X232803465Y-95839500D01*
X232596535Y-95839500D01*
X232596530Y-95839500D01*
X232393587Y-95879868D01*
X232393579Y-95879870D01*
X232202403Y-95959058D01*
X232030342Y-96074024D01*
X231884024Y-96220342D01*
X231769058Y-96392403D01*
X231689870Y-96583579D01*
X231689868Y-96583587D01*
X231649500Y-96786530D01*
X192155638Y-96786530D01*
X192363516Y-96666511D01*
X192363534Y-96666499D01*
X192476365Y-96579919D01*
X192476365Y-96579917D01*
X191759020Y-95862573D01*
X191887463Y-95776751D01*
X192026751Y-95637463D01*
X192112573Y-95509021D01*
X192829917Y-96226365D01*
X192829919Y-96226365D01*
X192916499Y-96113534D01*
X192916511Y-96113516D01*
X193047590Y-95886482D01*
X193047595Y-95886471D01*
X193147924Y-95644255D01*
X193215777Y-95391020D01*
X193215779Y-95391009D01*
X193249999Y-95131094D01*
X193250000Y-95131080D01*
X193250000Y-94868919D01*
X193249999Y-94868905D01*
X193215779Y-94608990D01*
X193215777Y-94608979D01*
X193147924Y-94355744D01*
X193047595Y-94113528D01*
X193047590Y-94113517D01*
X192916511Y-93886483D01*
X192916505Y-93886475D01*
X192829918Y-93773633D01*
X192829917Y-93773633D01*
X192112572Y-94490977D01*
X192026751Y-94362537D01*
X191887463Y-94223249D01*
X191759019Y-94137425D01*
X192416198Y-93480247D01*
X231649500Y-93480247D01*
X231649500Y-95219752D01*
X231661131Y-95278229D01*
X231661132Y-95278230D01*
X231705447Y-95344552D01*
X231771769Y-95388867D01*
X231771770Y-95388868D01*
X231830247Y-95400499D01*
X231830250Y-95400500D01*
X231830252Y-95400500D01*
X233569750Y-95400500D01*
X233569751Y-95400499D01*
X233584568Y-95397552D01*
X233628229Y-95388868D01*
X233628229Y-95388867D01*
X233628231Y-95388867D01*
X233694552Y-95344552D01*
X233738867Y-95278231D01*
X233738867Y-95278229D01*
X233738868Y-95278229D01*
X233750499Y-95219752D01*
X233750500Y-95219750D01*
X233750500Y-93480249D01*
X233750499Y-93480247D01*
X233738868Y-93421770D01*
X233738867Y-93421769D01*
X233694552Y-93355447D01*
X233628230Y-93311132D01*
X233628229Y-93311131D01*
X233569752Y-93299500D01*
X233569748Y-93299500D01*
X231830252Y-93299500D01*
X231830247Y-93299500D01*
X231771770Y-93311131D01*
X231771769Y-93311132D01*
X231705447Y-93355447D01*
X231661132Y-93421769D01*
X231661131Y-93421770D01*
X231649500Y-93480247D01*
X192416198Y-93480247D01*
X192476365Y-93420080D01*
X192363524Y-93333494D01*
X192363516Y-93333488D01*
X192136482Y-93202409D01*
X192136471Y-93202404D01*
X191894255Y-93102075D01*
X191641020Y-93034222D01*
X191641009Y-93034220D01*
X191381094Y-93000000D01*
X191118905Y-93000000D01*
X190858990Y-93034220D01*
X190858979Y-93034222D01*
X190605744Y-93102075D01*
X190363528Y-93202404D01*
X190363517Y-93202409D01*
X190136471Y-93333496D01*
X190023633Y-93420079D01*
X190023633Y-93420080D01*
X190740979Y-94137426D01*
X190612537Y-94223249D01*
X190473249Y-94362537D01*
X190387426Y-94490979D01*
X189670080Y-93773633D01*
X189670079Y-93773633D01*
X189583496Y-93886471D01*
X189452409Y-94113517D01*
X189452404Y-94113528D01*
X189352075Y-94355744D01*
X189284222Y-94608979D01*
X189284220Y-94608990D01*
X189250000Y-94868905D01*
X131053487Y-94868905D01*
X131027763Y-91625478D01*
X131046914Y-91558290D01*
X131099354Y-91512118D01*
X131151758Y-91500500D01*
X131222472Y-91500500D01*
X131222475Y-91500500D01*
X131362485Y-91462984D01*
X131488015Y-91390509D01*
X131590509Y-91288015D01*
X131662984Y-91162485D01*
X131700500Y-91022475D01*
X131700500Y-90877525D01*
X131662984Y-90737515D01*
X131590509Y-90611985D01*
X131488015Y-90509491D01*
X131488013Y-90509490D01*
X131488011Y-90509488D01*
X131362488Y-90437017D01*
X131362489Y-90437017D01*
X131351006Y-90433940D01*
X131222475Y-90399500D01*
X131141059Y-90399500D01*
X131074020Y-90379815D01*
X131028265Y-90327011D01*
X131017064Y-90276487D01*
X130980917Y-85718905D01*
X137650000Y-85718905D01*
X137650000Y-85981094D01*
X137684220Y-86241009D01*
X137684222Y-86241020D01*
X137752075Y-86494255D01*
X137852404Y-86736471D01*
X137852409Y-86736482D01*
X137983488Y-86963516D01*
X137983494Y-86963524D01*
X138070080Y-87076365D01*
X138787425Y-86359019D01*
X138873249Y-86487463D01*
X139012537Y-86626751D01*
X139140978Y-86712573D01*
X138423633Y-87429917D01*
X138423633Y-87429918D01*
X138536475Y-87516505D01*
X138536483Y-87516511D01*
X138763517Y-87647590D01*
X138763528Y-87647595D01*
X139005744Y-87747924D01*
X139258979Y-87815777D01*
X139258990Y-87815779D01*
X139518905Y-87849999D01*
X139518920Y-87850000D01*
X139781080Y-87850000D01*
X139781094Y-87849999D01*
X140041009Y-87815779D01*
X140041020Y-87815777D01*
X140159212Y-87784108D01*
X176749500Y-87784108D01*
X176749500Y-87915892D01*
X176761420Y-87960377D01*
X176783608Y-88043187D01*
X176816554Y-88100250D01*
X176849500Y-88157314D01*
X176942686Y-88250500D01*
X177056814Y-88316392D01*
X177184108Y-88350500D01*
X177184110Y-88350500D01*
X177315890Y-88350500D01*
X177315892Y-88350500D01*
X177443186Y-88316392D01*
X177557314Y-88250500D01*
X177650500Y-88157314D01*
X177716392Y-88043186D01*
X177750500Y-87915892D01*
X177750500Y-87784108D01*
X177716392Y-87656814D01*
X177716390Y-87656810D01*
X177699677Y-87627862D01*
X177699676Y-87627861D01*
X177696670Y-87622656D01*
X177667394Y-87571947D01*
X228054500Y-87571947D01*
X228054500Y-87768052D01*
X228092754Y-87960369D01*
X228092756Y-87960377D01*
X228167797Y-88141543D01*
X228276744Y-88304593D01*
X228276747Y-88304597D01*
X228415402Y-88443252D01*
X228415406Y-88443255D01*
X228578454Y-88552201D01*
X228759623Y-88627244D01*
X228951947Y-88665499D01*
X228951951Y-88665500D01*
X228951952Y-88665500D01*
X229148049Y-88665500D01*
X229148050Y-88665499D01*
X229340377Y-88627244D01*
X229521546Y-88552201D01*
X229684594Y-88443255D01*
X229823255Y-88304594D01*
X229932201Y-88141546D01*
X230007244Y-87960377D01*
X230045500Y-87768048D01*
X230045500Y-87571952D01*
X230007244Y-87379623D01*
X229932201Y-87198454D01*
X229823255Y-87035406D01*
X229823252Y-87035402D01*
X229684597Y-86896747D01*
X229684593Y-86896744D01*
X229622489Y-86855247D01*
X230594500Y-86855247D01*
X230594500Y-88484752D01*
X230606131Y-88543229D01*
X230606132Y-88543230D01*
X230650447Y-88609552D01*
X230716769Y-88653867D01*
X230716770Y-88653868D01*
X230775247Y-88665499D01*
X230775250Y-88665500D01*
X230775252Y-88665500D01*
X232404750Y-88665500D01*
X232404751Y-88665499D01*
X232419568Y-88662552D01*
X232463229Y-88653868D01*
X232463229Y-88653867D01*
X232463231Y-88653867D01*
X232529552Y-88609552D01*
X232573867Y-88543231D01*
X232573867Y-88543229D01*
X232573868Y-88543229D01*
X232585499Y-88484752D01*
X232585500Y-88484750D01*
X232585500Y-86855249D01*
X232585499Y-86855247D01*
X232573868Y-86796770D01*
X232573867Y-86796769D01*
X232529552Y-86730447D01*
X232463230Y-86686132D01*
X232463229Y-86686131D01*
X232404752Y-86674500D01*
X232404748Y-86674500D01*
X230775252Y-86674500D01*
X230775247Y-86674500D01*
X230716770Y-86686131D01*
X230716769Y-86686132D01*
X230650447Y-86730447D01*
X230606132Y-86796769D01*
X230606131Y-86796770D01*
X230594500Y-86855247D01*
X229622489Y-86855247D01*
X229521543Y-86787797D01*
X229340377Y-86712756D01*
X229340369Y-86712754D01*
X229148052Y-86674500D01*
X229148048Y-86674500D01*
X228951952Y-86674500D01*
X228951947Y-86674500D01*
X228759630Y-86712754D01*
X228759622Y-86712756D01*
X228578456Y-86787797D01*
X228415406Y-86896744D01*
X228415402Y-86896747D01*
X228276747Y-87035402D01*
X228276744Y-87035406D01*
X228167797Y-87198456D01*
X228092756Y-87379622D01*
X228092754Y-87379630D01*
X228054500Y-87571947D01*
X177667394Y-87571947D01*
X177650500Y-87542686D01*
X177557314Y-87449500D01*
X177500250Y-87416554D01*
X177443187Y-87383608D01*
X177379539Y-87366554D01*
X177315892Y-87349500D01*
X177184108Y-87349500D01*
X177056812Y-87383608D01*
X176942686Y-87449500D01*
X176942683Y-87449502D01*
X176849502Y-87542683D01*
X176849500Y-87542686D01*
X176783608Y-87656812D01*
X176759195Y-87747924D01*
X176749500Y-87784108D01*
X140159212Y-87784108D01*
X140294258Y-87747923D01*
X140503095Y-87661420D01*
X140503097Y-87661420D01*
X140536470Y-87647595D01*
X140536482Y-87647590D01*
X140763516Y-87516511D01*
X140763534Y-87516499D01*
X140876365Y-87429919D01*
X140876365Y-87429917D01*
X140159020Y-86712573D01*
X140287463Y-86626751D01*
X140426751Y-86487463D01*
X140512573Y-86359020D01*
X141229917Y-87076365D01*
X141229919Y-87076365D01*
X141316499Y-86963534D01*
X141316511Y-86963516D01*
X141447590Y-86736482D01*
X141447595Y-86736471D01*
X141541771Y-86509108D01*
X176999500Y-86509108D01*
X176999500Y-86640891D01*
X177033608Y-86768187D01*
X177050110Y-86796769D01*
X177099500Y-86882314D01*
X177192686Y-86975500D01*
X177306814Y-87041392D01*
X177434108Y-87075500D01*
X177434110Y-87075500D01*
X177565890Y-87075500D01*
X177565892Y-87075500D01*
X177693186Y-87041392D01*
X177807314Y-86975500D01*
X177900500Y-86882314D01*
X177966392Y-86768186D01*
X178000500Y-86640892D01*
X178000500Y-86509108D01*
X177992037Y-86477525D01*
X211799500Y-86477525D01*
X211799500Y-86622475D01*
X211837016Y-86762485D01*
X211837017Y-86762488D01*
X211909488Y-86888011D01*
X211909490Y-86888013D01*
X211909491Y-86888015D01*
X212011985Y-86990509D01*
X212011986Y-86990510D01*
X212011988Y-86990511D01*
X212137511Y-87062982D01*
X212137512Y-87062982D01*
X212137515Y-87062984D01*
X212277525Y-87100500D01*
X212277528Y-87100500D01*
X212422472Y-87100500D01*
X212422475Y-87100500D01*
X212562485Y-87062984D01*
X212688015Y-86990509D01*
X212790509Y-86888015D01*
X212862984Y-86762485D01*
X212900500Y-86622475D01*
X212900500Y-86477525D01*
X212862984Y-86337515D01*
X212822666Y-86267683D01*
X212790511Y-86211988D01*
X212790506Y-86211982D01*
X212688017Y-86109493D01*
X212688011Y-86109488D01*
X212562488Y-86037017D01*
X212562489Y-86037017D01*
X212551006Y-86033940D01*
X212422475Y-85999500D01*
X212277525Y-85999500D01*
X212148993Y-86033940D01*
X212137511Y-86037017D01*
X212011988Y-86109488D01*
X212011982Y-86109493D01*
X211909493Y-86211982D01*
X211909488Y-86211988D01*
X211837017Y-86337511D01*
X211837016Y-86337515D01*
X211799500Y-86477525D01*
X177992037Y-86477525D01*
X177966392Y-86381814D01*
X177900500Y-86267686D01*
X177807314Y-86174500D01*
X177722442Y-86125499D01*
X177693187Y-86108608D01*
X177613457Y-86087245D01*
X177565892Y-86074500D01*
X177434108Y-86074500D01*
X177306812Y-86108608D01*
X177192686Y-86174500D01*
X177192683Y-86174502D01*
X177099502Y-86267683D01*
X177099500Y-86267686D01*
X177033608Y-86381812D01*
X176999500Y-86509108D01*
X141541771Y-86509108D01*
X141547924Y-86494254D01*
X141554721Y-86468889D01*
X141554721Y-86468888D01*
X141615777Y-86241020D01*
X141615779Y-86241009D01*
X141649999Y-85981094D01*
X141650000Y-85981080D01*
X141650000Y-85718919D01*
X141649999Y-85718905D01*
X141615779Y-85458990D01*
X141615777Y-85458979D01*
X141547924Y-85205744D01*
X141513830Y-85123434D01*
X141513829Y-85123432D01*
X141497541Y-85084108D01*
X205549500Y-85084108D01*
X205549500Y-85215892D01*
X205552758Y-85228052D01*
X205583608Y-85343187D01*
X205602739Y-85376322D01*
X205649500Y-85457314D01*
X205742686Y-85550500D01*
X205856814Y-85616392D01*
X205984108Y-85650500D01*
X205984110Y-85650500D01*
X206115890Y-85650500D01*
X206115892Y-85650500D01*
X206243186Y-85616392D01*
X206357314Y-85550500D01*
X206450500Y-85457314D01*
X206516392Y-85343186D01*
X206550500Y-85215892D01*
X206550500Y-85141001D01*
X216033967Y-85141001D01*
X216033967Y-85272784D01*
X216068075Y-85400080D01*
X216087226Y-85433250D01*
X216133967Y-85514207D01*
X216227153Y-85607393D01*
X216341281Y-85673285D01*
X216468575Y-85707393D01*
X216468577Y-85707393D01*
X216600357Y-85707393D01*
X216600359Y-85707393D01*
X216727653Y-85673285D01*
X216841781Y-85607393D01*
X216934967Y-85514207D01*
X217000859Y-85400079D01*
X217034967Y-85272785D01*
X217034967Y-85141001D01*
X217005746Y-85031947D01*
X228054500Y-85031947D01*
X228054500Y-85228052D01*
X228092754Y-85420369D01*
X228092756Y-85420377D01*
X228167797Y-85601543D01*
X228276744Y-85764593D01*
X228276747Y-85764597D01*
X228415402Y-85903252D01*
X228415406Y-85903255D01*
X228578454Y-86012201D01*
X228759623Y-86087244D01*
X228951947Y-86125499D01*
X228951951Y-86125500D01*
X228951952Y-86125500D01*
X229148049Y-86125500D01*
X229148050Y-86125499D01*
X229340377Y-86087244D01*
X229521546Y-86012201D01*
X229684594Y-85903255D01*
X229823255Y-85764594D01*
X229932201Y-85601546D01*
X230007244Y-85420377D01*
X230045500Y-85228048D01*
X230045500Y-85031952D01*
X230007244Y-84839623D01*
X229932201Y-84658454D01*
X229823255Y-84495406D01*
X229823252Y-84495402D01*
X229684597Y-84356747D01*
X229684593Y-84356744D01*
X229521543Y-84247797D01*
X229340377Y-84172756D01*
X229340369Y-84172754D01*
X229148052Y-84134500D01*
X229148048Y-84134500D01*
X228951952Y-84134500D01*
X228951947Y-84134500D01*
X228759630Y-84172754D01*
X228759622Y-84172756D01*
X228578456Y-84247797D01*
X228415406Y-84356744D01*
X228415402Y-84356747D01*
X228276747Y-84495402D01*
X228276744Y-84495406D01*
X228167797Y-84658456D01*
X228092756Y-84839622D01*
X228092754Y-84839630D01*
X228054500Y-85031947D01*
X217005746Y-85031947D01*
X217000859Y-85013707D01*
X216934967Y-84899579D01*
X216841781Y-84806393D01*
X216784717Y-84773447D01*
X216727654Y-84740501D01*
X216664006Y-84723447D01*
X216600359Y-84706393D01*
X216468575Y-84706393D01*
X216341279Y-84740501D01*
X216227153Y-84806393D01*
X216227150Y-84806395D01*
X216133969Y-84899576D01*
X216133967Y-84899579D01*
X216068075Y-85013705D01*
X216033967Y-85141001D01*
X206550500Y-85141001D01*
X206550500Y-85084108D01*
X206516392Y-84956814D01*
X206450500Y-84842686D01*
X206357314Y-84749500D01*
X206281788Y-84705895D01*
X206243187Y-84683608D01*
X206179539Y-84666554D01*
X206115892Y-84649500D01*
X205984108Y-84649500D01*
X205856812Y-84683608D01*
X205742686Y-84749500D01*
X205742683Y-84749502D01*
X205649502Y-84842683D01*
X205649500Y-84842686D01*
X205583608Y-84956812D01*
X205564512Y-85028082D01*
X205549500Y-85084108D01*
X141497541Y-85084108D01*
X141447598Y-84963533D01*
X141447590Y-84963517D01*
X141316511Y-84736483D01*
X141316505Y-84736475D01*
X141229918Y-84623633D01*
X141229917Y-84623633D01*
X140512572Y-85340978D01*
X140426751Y-85212537D01*
X140287463Y-85073249D01*
X140159019Y-84987425D01*
X140876365Y-84270080D01*
X140763524Y-84183494D01*
X140763516Y-84183488D01*
X140536482Y-84052409D01*
X140536471Y-84052404D01*
X140294255Y-83952075D01*
X140041020Y-83884222D01*
X140041009Y-83884220D01*
X139781094Y-83850000D01*
X139518905Y-83850000D01*
X139258990Y-83884220D01*
X139258979Y-83884222D01*
X139005744Y-83952075D01*
X138763528Y-84052404D01*
X138763517Y-84052409D01*
X138536471Y-84183496D01*
X138423633Y-84270079D01*
X138423633Y-84270080D01*
X139140979Y-84987426D01*
X139012537Y-85073249D01*
X138873249Y-85212537D01*
X138787426Y-85340979D01*
X138070080Y-84623633D01*
X138070079Y-84623633D01*
X137983496Y-84736471D01*
X137852409Y-84963517D01*
X137852404Y-84963528D01*
X137752075Y-85205744D01*
X137684222Y-85458979D01*
X137684220Y-85458990D01*
X137650000Y-85718905D01*
X130980917Y-85718905D01*
X130961209Y-83234108D01*
X157149500Y-83234108D01*
X157149500Y-83365891D01*
X157183608Y-83493187D01*
X157205413Y-83530954D01*
X157249500Y-83607314D01*
X157342686Y-83700500D01*
X157456814Y-83766392D01*
X157584108Y-83800500D01*
X157584110Y-83800500D01*
X157715890Y-83800500D01*
X157715892Y-83800500D01*
X157843186Y-83766392D01*
X157957314Y-83700500D01*
X158050500Y-83607314D01*
X158116392Y-83493186D01*
X158150500Y-83365892D01*
X158150500Y-83234108D01*
X158116392Y-83106814D01*
X158103283Y-83084108D01*
X217499500Y-83084108D01*
X217499500Y-83215892D01*
X217513657Y-83268728D01*
X217533608Y-83343187D01*
X217546717Y-83365892D01*
X217599500Y-83457314D01*
X217692686Y-83550500D01*
X217806814Y-83616392D01*
X217934108Y-83650500D01*
X217934110Y-83650500D01*
X218065890Y-83650500D01*
X218065892Y-83650500D01*
X218193186Y-83616392D01*
X218307314Y-83550500D01*
X218400500Y-83457314D01*
X218466392Y-83343186D01*
X218500500Y-83215892D01*
X218500500Y-83084108D01*
X218466392Y-82956814D01*
X218400500Y-82842686D01*
X218307314Y-82749500D01*
X218207578Y-82691917D01*
X218193187Y-82683608D01*
X218104243Y-82659776D01*
X218065892Y-82649500D01*
X217934108Y-82649500D01*
X217806812Y-82683608D01*
X217692686Y-82749500D01*
X217692683Y-82749502D01*
X217599502Y-82842683D01*
X217599500Y-82842686D01*
X217533608Y-82956812D01*
X217523997Y-82992683D01*
X217499500Y-83084108D01*
X158103283Y-83084108D01*
X158050500Y-82992686D01*
X157957314Y-82899500D01*
X157858910Y-82842686D01*
X157843187Y-82833608D01*
X157779539Y-82816554D01*
X157715892Y-82799500D01*
X157584108Y-82799500D01*
X157456812Y-82833608D01*
X157342686Y-82899500D01*
X157342683Y-82899502D01*
X157249502Y-82992683D01*
X157249500Y-82992686D01*
X157183608Y-83106812D01*
X157149500Y-83234108D01*
X130961209Y-83234108D01*
X130955292Y-82488082D01*
X227755000Y-82488082D01*
X227755000Y-82691917D01*
X227786888Y-82893247D01*
X227786888Y-82893250D01*
X227849875Y-83087104D01*
X227849877Y-83087107D01*
X227942417Y-83268728D01*
X227974104Y-83312340D01*
X227974105Y-83312341D01*
X228542542Y-82743903D01*
X228556119Y-82794572D01*
X228625895Y-82915427D01*
X228724573Y-83014105D01*
X228845428Y-83083881D01*
X228896095Y-83097457D01*
X228327657Y-83665894D01*
X228327658Y-83665895D01*
X228371266Y-83697578D01*
X228371279Y-83697586D01*
X228552892Y-83790122D01*
X228552895Y-83790124D01*
X228746751Y-83853111D01*
X228948082Y-83885000D01*
X229151918Y-83885000D01*
X229353247Y-83853111D01*
X229353250Y-83853111D01*
X229547104Y-83790124D01*
X229547107Y-83790122D01*
X229728728Y-83697582D01*
X229772340Y-83665895D01*
X229772340Y-83665894D01*
X229203903Y-83097457D01*
X229254572Y-83083881D01*
X229375427Y-83014105D01*
X229474105Y-82915427D01*
X229543881Y-82794572D01*
X229557457Y-82743903D01*
X230125894Y-83312340D01*
X230125895Y-83312340D01*
X230157582Y-83268728D01*
X230209515Y-83166805D01*
X230257489Y-83116009D01*
X230325310Y-83099214D01*
X230391445Y-83121751D01*
X230430485Y-83166805D01*
X230482417Y-83268728D01*
X230514104Y-83312340D01*
X230514105Y-83312341D01*
X231082542Y-82743903D01*
X231096119Y-82794572D01*
X231165895Y-82915427D01*
X231264573Y-83014105D01*
X231385428Y-83083881D01*
X231436095Y-83097457D01*
X230867657Y-83665894D01*
X230867658Y-83665895D01*
X230911266Y-83697578D01*
X230911279Y-83697586D01*
X231013195Y-83749515D01*
X231063991Y-83797489D01*
X231080786Y-83865310D01*
X231058249Y-83931445D01*
X231013195Y-83970485D01*
X230911273Y-84022416D01*
X230867658Y-84054104D01*
X231436096Y-84622542D01*
X231385428Y-84636119D01*
X231264573Y-84705895D01*
X231165895Y-84804573D01*
X231096119Y-84925428D01*
X231082542Y-84976096D01*
X230514104Y-84407658D01*
X230482416Y-84451273D01*
X230389876Y-84632892D01*
X230389875Y-84632895D01*
X230326888Y-84826749D01*
X230326888Y-84826752D01*
X230295000Y-85028082D01*
X230295000Y-85231917D01*
X230326888Y-85433247D01*
X230326888Y-85433250D01*
X230389875Y-85627104D01*
X230389877Y-85627107D01*
X230482417Y-85808728D01*
X230514104Y-85852340D01*
X230514105Y-85852341D01*
X231082542Y-85283903D01*
X231096119Y-85334572D01*
X231165895Y-85455427D01*
X231264573Y-85554105D01*
X231385428Y-85623881D01*
X231436095Y-85637457D01*
X230867657Y-86205894D01*
X230867658Y-86205895D01*
X230911266Y-86237578D01*
X230911279Y-86237586D01*
X231092892Y-86330122D01*
X231092895Y-86330124D01*
X231286751Y-86393111D01*
X231488082Y-86425000D01*
X231691918Y-86425000D01*
X231893247Y-86393111D01*
X231893250Y-86393111D01*
X232087104Y-86330124D01*
X232087107Y-86330122D01*
X232268728Y-86237582D01*
X232312340Y-86205895D01*
X232312340Y-86205894D01*
X231743903Y-85637457D01*
X231794572Y-85623881D01*
X231915427Y-85554105D01*
X232014105Y-85455427D01*
X232083881Y-85334572D01*
X232097457Y-85283903D01*
X232665894Y-85852340D01*
X232665895Y-85852340D01*
X232697582Y-85808728D01*
X232790122Y-85627107D01*
X232790124Y-85627104D01*
X232853111Y-85433250D01*
X232853111Y-85433247D01*
X232885000Y-85231917D01*
X232885000Y-85028082D01*
X232853111Y-84826752D01*
X232853111Y-84826749D01*
X232790124Y-84632895D01*
X232790122Y-84632892D01*
X232697586Y-84451279D01*
X232697578Y-84451266D01*
X232665895Y-84407658D01*
X232665894Y-84407657D01*
X232097457Y-84976095D01*
X232083881Y-84925428D01*
X232014105Y-84804573D01*
X231915427Y-84705895D01*
X231794572Y-84636119D01*
X231743904Y-84622542D01*
X232312341Y-84054105D01*
X232312340Y-84054104D01*
X232268728Y-84022417D01*
X232166805Y-83970485D01*
X232116009Y-83922511D01*
X232099214Y-83854690D01*
X232121751Y-83788555D01*
X232166805Y-83749515D01*
X232268728Y-83697582D01*
X232312340Y-83665895D01*
X232312340Y-83665894D01*
X231743903Y-83097457D01*
X231794572Y-83083881D01*
X231915427Y-83014105D01*
X232014105Y-82915427D01*
X232083881Y-82794572D01*
X232097457Y-82743903D01*
X232665894Y-83312340D01*
X232665895Y-83312340D01*
X232697582Y-83268728D01*
X232790122Y-83087107D01*
X232790124Y-83087104D01*
X232853111Y-82893250D01*
X232853111Y-82893247D01*
X232885000Y-82691917D01*
X232885000Y-82488082D01*
X232853111Y-82286752D01*
X232853111Y-82286749D01*
X232790124Y-82092895D01*
X232790122Y-82092892D01*
X232697586Y-81911279D01*
X232697578Y-81911266D01*
X232665895Y-81867658D01*
X232665894Y-81867657D01*
X232097457Y-82436095D01*
X232083881Y-82385428D01*
X232014105Y-82264573D01*
X231915427Y-82165895D01*
X231794572Y-82096119D01*
X231743904Y-82082542D01*
X232312341Y-81514105D01*
X232312340Y-81514104D01*
X232268728Y-81482417D01*
X232087107Y-81389877D01*
X232087104Y-81389875D01*
X231893248Y-81326888D01*
X231691918Y-81295000D01*
X231488082Y-81295000D01*
X231286752Y-81326888D01*
X231286749Y-81326888D01*
X231092895Y-81389875D01*
X231092892Y-81389876D01*
X230911273Y-81482416D01*
X230867658Y-81514104D01*
X231436096Y-82082542D01*
X231385428Y-82096119D01*
X231264573Y-82165895D01*
X231165895Y-82264573D01*
X231096119Y-82385428D01*
X231082542Y-82436096D01*
X230514104Y-81867658D01*
X230482416Y-81911273D01*
X230430485Y-82013195D01*
X230382510Y-82063991D01*
X230314689Y-82080786D01*
X230248554Y-82058248D01*
X230209515Y-82013195D01*
X230157586Y-81911279D01*
X230157578Y-81911266D01*
X230125895Y-81867658D01*
X230125894Y-81867657D01*
X229557457Y-82436095D01*
X229543881Y-82385428D01*
X229474105Y-82264573D01*
X229375427Y-82165895D01*
X229254572Y-82096119D01*
X229203904Y-82082542D01*
X229772341Y-81514104D01*
X229728728Y-81482417D01*
X229547107Y-81389877D01*
X229547104Y-81389875D01*
X229353248Y-81326888D01*
X229151918Y-81295000D01*
X228948082Y-81295000D01*
X228746752Y-81326888D01*
X228746749Y-81326888D01*
X228552895Y-81389875D01*
X228552892Y-81389876D01*
X228371273Y-81482416D01*
X228327658Y-81514104D01*
X228896096Y-82082542D01*
X228845428Y-82096119D01*
X228724573Y-82165895D01*
X228625895Y-82264573D01*
X228556119Y-82385428D01*
X228542542Y-82436096D01*
X227974104Y-81867658D01*
X227942416Y-81911273D01*
X227849876Y-82092892D01*
X227849875Y-82092895D01*
X227786888Y-82286749D01*
X227786888Y-82286752D01*
X227755000Y-82488082D01*
X130955292Y-82488082D01*
X130941381Y-80734108D01*
X151699500Y-80734108D01*
X151699500Y-80865891D01*
X151733608Y-80993187D01*
X151741724Y-81007244D01*
X151799500Y-81107314D01*
X151892686Y-81200500D01*
X152006814Y-81266392D01*
X152134108Y-81300500D01*
X152134110Y-81300500D01*
X152265890Y-81300500D01*
X152265892Y-81300500D01*
X152393186Y-81266392D01*
X152507314Y-81200500D01*
X152600500Y-81107314D01*
X152666392Y-80993186D01*
X152700500Y-80865892D01*
X152700500Y-80734108D01*
X152666392Y-80606814D01*
X152600500Y-80492686D01*
X152507314Y-80399500D01*
X152450250Y-80366554D01*
X152393187Y-80333608D01*
X152329539Y-80316554D01*
X152265892Y-80299500D01*
X152134108Y-80299500D01*
X152006812Y-80333608D01*
X151892686Y-80399500D01*
X151892683Y-80399502D01*
X151799502Y-80492683D01*
X151799500Y-80492686D01*
X151733608Y-80606812D01*
X151699500Y-80734108D01*
X130941381Y-80734108D01*
X130936622Y-80134108D01*
X153149500Y-80134108D01*
X153149500Y-80265891D01*
X153183608Y-80393187D01*
X153191766Y-80407316D01*
X153249500Y-80507314D01*
X153342686Y-80600500D01*
X153456814Y-80666392D01*
X153584108Y-80700500D01*
X153584110Y-80700500D01*
X153715890Y-80700500D01*
X153715892Y-80700500D01*
X153843186Y-80666392D01*
X153957314Y-80600500D01*
X154050500Y-80507314D01*
X154116392Y-80393186D01*
X154150500Y-80265892D01*
X154150500Y-80134108D01*
X154123705Y-80034108D01*
X157149500Y-80034108D01*
X157149500Y-80165891D01*
X157183608Y-80293187D01*
X157187253Y-80299500D01*
X157249500Y-80407314D01*
X157342686Y-80500500D01*
X157456814Y-80566392D01*
X157584108Y-80600500D01*
X157584110Y-80600500D01*
X157715890Y-80600500D01*
X157715892Y-80600500D01*
X157843186Y-80566392D01*
X157957314Y-80500500D01*
X158050500Y-80407314D01*
X158116392Y-80293186D01*
X158150500Y-80165892D01*
X158150500Y-80034108D01*
X158116392Y-79906814D01*
X158050500Y-79792686D01*
X157957314Y-79699500D01*
X157894063Y-79662982D01*
X157843187Y-79633608D01*
X157779539Y-79616554D01*
X157715892Y-79599500D01*
X157584108Y-79599500D01*
X157456812Y-79633608D01*
X157342686Y-79699500D01*
X157342683Y-79699502D01*
X157249502Y-79792683D01*
X157249500Y-79792686D01*
X157183608Y-79906812D01*
X157149500Y-80034108D01*
X154123705Y-80034108D01*
X154116392Y-80006814D01*
X154050500Y-79892686D01*
X153957314Y-79799500D01*
X153894113Y-79763011D01*
X153843187Y-79733608D01*
X153746991Y-79707833D01*
X153715892Y-79699500D01*
X153584108Y-79699500D01*
X153456812Y-79733608D01*
X153342686Y-79799500D01*
X153342683Y-79799502D01*
X153249502Y-79892683D01*
X153249500Y-79892686D01*
X153183608Y-80006812D01*
X153149500Y-80134108D01*
X130936622Y-80134108D01*
X130928242Y-79077525D01*
X176349500Y-79077525D01*
X176349500Y-79222475D01*
X176379551Y-79334625D01*
X176387017Y-79362488D01*
X176459488Y-79488011D01*
X176459490Y-79488013D01*
X176459491Y-79488015D01*
X176561985Y-79590509D01*
X176561986Y-79590510D01*
X176561988Y-79590511D01*
X176687511Y-79662982D01*
X176687512Y-79662982D01*
X176687515Y-79662984D01*
X176827525Y-79700500D01*
X176827528Y-79700500D01*
X176972472Y-79700500D01*
X176972475Y-79700500D01*
X177112485Y-79662984D01*
X177238015Y-79590509D01*
X177340509Y-79488015D01*
X177412984Y-79362485D01*
X177450500Y-79222475D01*
X177450500Y-79134108D01*
X219899500Y-79134108D01*
X219899500Y-79265891D01*
X219933608Y-79393187D01*
X219965689Y-79448752D01*
X219999500Y-79507314D01*
X220092686Y-79600500D01*
X220206814Y-79666392D01*
X220334108Y-79700500D01*
X220334110Y-79700500D01*
X220465890Y-79700500D01*
X220465892Y-79700500D01*
X220593186Y-79666392D01*
X220707314Y-79600500D01*
X220731764Y-79576050D01*
X221641442Y-79576050D01*
X221641442Y-79707834D01*
X221656228Y-79763015D01*
X221675550Y-79835129D01*
X221708496Y-79892192D01*
X221741442Y-79949256D01*
X221834628Y-80042442D01*
X221948756Y-80108334D01*
X222076050Y-80142442D01*
X222076052Y-80142442D01*
X222207832Y-80142442D01*
X222207834Y-80142442D01*
X222335128Y-80108334D01*
X222449256Y-80042442D01*
X222542442Y-79949256D01*
X222608334Y-79835128D01*
X222642442Y-79707834D01*
X222642442Y-79576050D01*
X222608334Y-79448756D01*
X222608332Y-79448752D01*
X222583880Y-79406400D01*
X222583879Y-79406399D01*
X222576251Y-79393187D01*
X222552775Y-79352525D01*
X224949500Y-79352525D01*
X224949500Y-79497475D01*
X224976838Y-79599500D01*
X224987017Y-79637488D01*
X225059488Y-79763011D01*
X225059490Y-79763013D01*
X225059491Y-79763015D01*
X225161985Y-79865509D01*
X225161986Y-79865510D01*
X225161988Y-79865511D01*
X225287511Y-79937982D01*
X225287512Y-79937982D01*
X225287515Y-79937984D01*
X225427525Y-79975500D01*
X225427528Y-79975500D01*
X225572472Y-79975500D01*
X225572475Y-79975500D01*
X225660375Y-79951947D01*
X228054500Y-79951947D01*
X228054500Y-80148052D01*
X228092754Y-80340369D01*
X228092756Y-80340377D01*
X228167797Y-80521543D01*
X228276744Y-80684593D01*
X228276747Y-80684597D01*
X228415402Y-80823252D01*
X228415406Y-80823255D01*
X228578454Y-80932201D01*
X228759623Y-81007244D01*
X228951947Y-81045499D01*
X228951951Y-81045500D01*
X228951952Y-81045500D01*
X229148049Y-81045500D01*
X229148050Y-81045499D01*
X229340377Y-81007244D01*
X229521546Y-80932201D01*
X229684594Y-80823255D01*
X229823255Y-80684594D01*
X229932201Y-80521546D01*
X230007244Y-80340377D01*
X230045500Y-80148048D01*
X230045500Y-79951952D01*
X230045499Y-79951947D01*
X230594500Y-79951947D01*
X230594500Y-80148052D01*
X230632754Y-80340369D01*
X230632756Y-80340377D01*
X230707797Y-80521543D01*
X230816744Y-80684593D01*
X230816747Y-80684597D01*
X230955402Y-80823252D01*
X230955406Y-80823255D01*
X231118454Y-80932201D01*
X231299623Y-81007244D01*
X231491947Y-81045499D01*
X231491951Y-81045500D01*
X231491952Y-81045500D01*
X231688049Y-81045500D01*
X231688050Y-81045499D01*
X231880377Y-81007244D01*
X232061546Y-80932201D01*
X232224594Y-80823255D01*
X232363255Y-80684594D01*
X232472201Y-80521546D01*
X232547244Y-80340377D01*
X232585500Y-80148048D01*
X232585500Y-79951952D01*
X232547244Y-79759623D01*
X232472201Y-79578454D01*
X232363255Y-79415406D01*
X232363252Y-79415402D01*
X232224597Y-79276747D01*
X232224593Y-79276744D01*
X232061543Y-79167797D01*
X231880377Y-79092756D01*
X231880369Y-79092754D01*
X231688052Y-79054500D01*
X231688048Y-79054500D01*
X231491952Y-79054500D01*
X231491947Y-79054500D01*
X231299630Y-79092754D01*
X231299622Y-79092756D01*
X231118456Y-79167797D01*
X230955406Y-79276744D01*
X230955402Y-79276747D01*
X230816747Y-79415402D01*
X230816744Y-79415406D01*
X230707797Y-79578456D01*
X230632756Y-79759622D01*
X230632754Y-79759630D01*
X230594500Y-79951947D01*
X230045499Y-79951947D01*
X230007244Y-79759623D01*
X229932201Y-79578454D01*
X229823255Y-79415406D01*
X229823252Y-79415402D01*
X229684597Y-79276747D01*
X229684593Y-79276744D01*
X229521543Y-79167797D01*
X229340377Y-79092756D01*
X229340369Y-79092754D01*
X229148052Y-79054500D01*
X229148048Y-79054500D01*
X228951952Y-79054500D01*
X228951947Y-79054500D01*
X228759630Y-79092754D01*
X228759622Y-79092756D01*
X228578456Y-79167797D01*
X228415406Y-79276744D01*
X228415402Y-79276747D01*
X228276747Y-79415402D01*
X228276744Y-79415406D01*
X228167797Y-79578456D01*
X228092756Y-79759622D01*
X228092754Y-79759630D01*
X228054500Y-79951947D01*
X225660375Y-79951947D01*
X225712485Y-79937984D01*
X225838015Y-79865509D01*
X225940509Y-79763015D01*
X226012984Y-79637485D01*
X226050500Y-79497475D01*
X226050500Y-79352525D01*
X226012984Y-79212515D01*
X225940509Y-79086985D01*
X225838015Y-78984491D01*
X225838013Y-78984490D01*
X225838011Y-78984488D01*
X225712488Y-78912017D01*
X225712489Y-78912017D01*
X225701006Y-78908940D01*
X225572475Y-78874500D01*
X225427525Y-78874500D01*
X225298993Y-78908940D01*
X225287511Y-78912017D01*
X225161988Y-78984488D01*
X225161982Y-78984493D01*
X225059493Y-79086982D01*
X225059488Y-79086988D01*
X224987017Y-79212511D01*
X224987016Y-79212515D01*
X224949500Y-79352525D01*
X222552775Y-79352525D01*
X222542442Y-79334628D01*
X222449256Y-79241442D01*
X222392192Y-79208496D01*
X222335129Y-79175550D01*
X222271481Y-79158496D01*
X222207834Y-79141442D01*
X222076050Y-79141442D01*
X221948754Y-79175550D01*
X221834628Y-79241442D01*
X221834625Y-79241444D01*
X221741444Y-79334625D01*
X221741442Y-79334628D01*
X221675550Y-79448754D01*
X221659859Y-79507316D01*
X221641442Y-79576050D01*
X220731764Y-79576050D01*
X220800500Y-79507314D01*
X220866392Y-79393186D01*
X220900500Y-79265892D01*
X220900500Y-79134108D01*
X220866392Y-79006814D01*
X220800500Y-78892686D01*
X220707314Y-78799500D01*
X220650250Y-78766554D01*
X220593187Y-78733608D01*
X220529539Y-78716554D01*
X220465892Y-78699500D01*
X220334108Y-78699500D01*
X220206812Y-78733608D01*
X220092686Y-78799500D01*
X220092683Y-78799502D01*
X219999502Y-78892683D01*
X219999500Y-78892686D01*
X219933608Y-79006812D01*
X219899500Y-79134108D01*
X177450500Y-79134108D01*
X177450500Y-79077525D01*
X177412984Y-78937515D01*
X177391613Y-78900500D01*
X177340511Y-78811988D01*
X177340506Y-78811982D01*
X177238017Y-78709493D01*
X177238011Y-78709488D01*
X177112488Y-78637017D01*
X177112489Y-78637017D01*
X177101006Y-78633940D01*
X176972475Y-78599500D01*
X176827525Y-78599500D01*
X176698993Y-78633940D01*
X176687511Y-78637017D01*
X176561988Y-78709488D01*
X176561982Y-78709493D01*
X176459493Y-78811982D01*
X176459488Y-78811988D01*
X176387017Y-78937511D01*
X176387016Y-78937515D01*
X176349500Y-79077525D01*
X130928242Y-79077525D01*
X130923139Y-78434108D01*
X222249500Y-78434108D01*
X222249500Y-78565891D01*
X222283608Y-78693187D01*
X222306946Y-78733608D01*
X222349500Y-78807314D01*
X222442686Y-78900500D01*
X222556814Y-78966392D01*
X222684108Y-79000500D01*
X222684110Y-79000500D01*
X222815890Y-79000500D01*
X222815892Y-79000500D01*
X222943186Y-78966392D01*
X223057314Y-78900500D01*
X223150500Y-78807314D01*
X223216392Y-78693186D01*
X223250500Y-78565892D01*
X223250500Y-78434108D01*
X223216392Y-78306814D01*
X223150500Y-78192686D01*
X223057314Y-78099500D01*
X223000250Y-78066554D01*
X222943187Y-78033608D01*
X222879539Y-78016554D01*
X222815892Y-77999500D01*
X222684108Y-77999500D01*
X222556812Y-78033608D01*
X222442686Y-78099500D01*
X222442683Y-78099502D01*
X222349502Y-78192683D01*
X222349500Y-78192686D01*
X222283608Y-78306812D01*
X222249500Y-78434108D01*
X130923139Y-78434108D01*
X130917190Y-77684108D01*
X220349500Y-77684108D01*
X220349500Y-77815891D01*
X220383608Y-77943187D01*
X220405753Y-77981543D01*
X220449500Y-78057314D01*
X220542686Y-78150500D01*
X220656814Y-78216392D01*
X220784108Y-78250500D01*
X220784110Y-78250500D01*
X220915890Y-78250500D01*
X220915892Y-78250500D01*
X221043186Y-78216392D01*
X221157314Y-78150500D01*
X221250500Y-78057314D01*
X221316392Y-77943186D01*
X221350500Y-77815892D01*
X221350500Y-77684108D01*
X221316392Y-77556814D01*
X221250500Y-77442686D01*
X221157314Y-77349500D01*
X221072442Y-77300499D01*
X221043187Y-77283608D01*
X220978931Y-77266391D01*
X220915892Y-77249500D01*
X220784108Y-77249500D01*
X220656812Y-77283608D01*
X220542686Y-77349500D01*
X220542683Y-77349502D01*
X220449502Y-77442683D01*
X220449500Y-77442686D01*
X220383608Y-77556812D01*
X220349500Y-77684108D01*
X130917190Y-77684108D01*
X130905293Y-76184108D01*
X205399500Y-76184108D01*
X205399500Y-76315891D01*
X205433608Y-76443187D01*
X205462185Y-76492683D01*
X205499500Y-76557314D01*
X205592686Y-76650500D01*
X205706814Y-76716392D01*
X205834108Y-76750500D01*
X205834110Y-76750500D01*
X205965890Y-76750500D01*
X205965892Y-76750500D01*
X206027068Y-76734108D01*
X207199500Y-76734108D01*
X207199500Y-76865891D01*
X207233608Y-76993187D01*
X207259745Y-77038456D01*
X207299500Y-77107314D01*
X207392686Y-77200500D01*
X207506814Y-77266392D01*
X207634108Y-77300500D01*
X207634110Y-77300500D01*
X207765890Y-77300500D01*
X207765892Y-77300500D01*
X207893186Y-77266392D01*
X208007314Y-77200500D01*
X208100500Y-77107314D01*
X208117699Y-77077525D01*
X224949500Y-77077525D01*
X224949500Y-77222475D01*
X224961268Y-77266392D01*
X224987017Y-77362488D01*
X225059488Y-77488011D01*
X225059490Y-77488013D01*
X225059491Y-77488015D01*
X225161985Y-77590509D01*
X225161986Y-77590510D01*
X225161988Y-77590511D01*
X225287511Y-77662982D01*
X225287512Y-77662982D01*
X225287515Y-77662984D01*
X225427525Y-77700500D01*
X225427528Y-77700500D01*
X225572472Y-77700500D01*
X225572475Y-77700500D01*
X225712485Y-77662984D01*
X225838015Y-77590509D01*
X225940509Y-77488015D01*
X225984427Y-77411947D01*
X228054500Y-77411947D01*
X228054500Y-77608052D01*
X228092754Y-77800369D01*
X228092756Y-77800377D01*
X228167797Y-77981543D01*
X228276744Y-78144593D01*
X228276747Y-78144597D01*
X228415402Y-78283252D01*
X228415406Y-78283255D01*
X228578454Y-78392201D01*
X228759623Y-78467244D01*
X228951947Y-78505499D01*
X228951951Y-78505500D01*
X228951952Y-78505500D01*
X229148049Y-78505500D01*
X229148050Y-78505499D01*
X229340377Y-78467244D01*
X229521546Y-78392201D01*
X229684594Y-78283255D01*
X229823255Y-78144594D01*
X229932201Y-77981546D01*
X230007244Y-77800377D01*
X230045500Y-77608048D01*
X230045500Y-77411952D01*
X230045499Y-77411947D01*
X230594500Y-77411947D01*
X230594500Y-77608052D01*
X230632754Y-77800369D01*
X230632756Y-77800377D01*
X230707797Y-77981543D01*
X230816744Y-78144593D01*
X230816747Y-78144597D01*
X230955402Y-78283252D01*
X230955406Y-78283255D01*
X231118454Y-78392201D01*
X231299623Y-78467244D01*
X231491947Y-78505499D01*
X231491951Y-78505500D01*
X231491952Y-78505500D01*
X231688049Y-78505500D01*
X231688050Y-78505499D01*
X231880377Y-78467244D01*
X232061546Y-78392201D01*
X232224594Y-78283255D01*
X232363255Y-78144594D01*
X232472201Y-77981546D01*
X232547244Y-77800377D01*
X232585500Y-77608048D01*
X232585500Y-77411952D01*
X232547244Y-77219623D01*
X232472201Y-77038454D01*
X232363255Y-76875406D01*
X232363252Y-76875402D01*
X232224597Y-76736747D01*
X232224593Y-76736744D01*
X232061543Y-76627797D01*
X231880377Y-76552756D01*
X231880369Y-76552754D01*
X231688052Y-76514500D01*
X231688048Y-76514500D01*
X231491952Y-76514500D01*
X231491947Y-76514500D01*
X231299630Y-76552754D01*
X231299622Y-76552756D01*
X231118456Y-76627797D01*
X230955406Y-76736744D01*
X230955402Y-76736747D01*
X230816747Y-76875402D01*
X230816744Y-76875406D01*
X230707797Y-77038456D01*
X230632756Y-77219622D01*
X230632754Y-77219630D01*
X230594500Y-77411947D01*
X230045499Y-77411947D01*
X230007244Y-77219623D01*
X229932201Y-77038454D01*
X229823255Y-76875406D01*
X229823252Y-76875402D01*
X229684597Y-76736747D01*
X229684593Y-76736744D01*
X229521543Y-76627797D01*
X229340377Y-76552756D01*
X229340369Y-76552754D01*
X229148052Y-76514500D01*
X229148048Y-76514500D01*
X228951952Y-76514500D01*
X228951947Y-76514500D01*
X228759630Y-76552754D01*
X228759622Y-76552756D01*
X228578456Y-76627797D01*
X228415406Y-76736744D01*
X228415402Y-76736747D01*
X228276747Y-76875402D01*
X228276744Y-76875406D01*
X228167797Y-77038456D01*
X228092756Y-77219622D01*
X228092754Y-77219630D01*
X228054500Y-77411947D01*
X225984427Y-77411947D01*
X226012984Y-77362485D01*
X226050500Y-77222475D01*
X226050500Y-77077525D01*
X226012984Y-76937515D01*
X225977125Y-76875406D01*
X225940511Y-76811988D01*
X225940506Y-76811982D01*
X225838017Y-76709493D01*
X225838011Y-76709488D01*
X225712488Y-76637017D01*
X225712489Y-76637017D01*
X225678087Y-76627799D01*
X225572475Y-76599500D01*
X225427525Y-76599500D01*
X225321913Y-76627799D01*
X225287511Y-76637017D01*
X225161988Y-76709488D01*
X225161982Y-76709493D01*
X225059493Y-76811982D01*
X225059488Y-76811988D01*
X224987017Y-76937511D01*
X224987016Y-76937515D01*
X224949500Y-77077525D01*
X208117699Y-77077525D01*
X208166392Y-76993186D01*
X208200500Y-76865892D01*
X208200500Y-76734108D01*
X208166392Y-76606814D01*
X208100500Y-76492686D01*
X208007314Y-76399500D01*
X207950250Y-76366554D01*
X207893187Y-76333608D01*
X207827061Y-76315890D01*
X207765892Y-76299500D01*
X207634108Y-76299500D01*
X207506812Y-76333608D01*
X207392686Y-76399500D01*
X207392683Y-76399502D01*
X207299502Y-76492683D01*
X207299500Y-76492686D01*
X207233608Y-76606812D01*
X207199500Y-76734108D01*
X206027068Y-76734108D01*
X206093186Y-76716392D01*
X206207314Y-76650500D01*
X206300500Y-76557314D01*
X206366392Y-76443186D01*
X206400500Y-76315892D01*
X206400500Y-76184108D01*
X206366392Y-76056814D01*
X206300500Y-75942686D01*
X206207314Y-75849500D01*
X206150250Y-75816554D01*
X206093187Y-75783608D01*
X206029539Y-75766554D01*
X205965892Y-75749500D01*
X205834108Y-75749500D01*
X205706812Y-75783608D01*
X205592686Y-75849500D01*
X205592683Y-75849502D01*
X205499502Y-75942683D01*
X205499500Y-75942686D01*
X205433608Y-76056812D01*
X205399500Y-76184108D01*
X130905293Y-76184108D01*
X130890568Y-74327525D01*
X216099500Y-74327525D01*
X216099500Y-74472475D01*
X216137016Y-74612485D01*
X216137017Y-74612488D01*
X216209488Y-74738011D01*
X216209490Y-74738013D01*
X216209491Y-74738015D01*
X216311985Y-74840509D01*
X216311986Y-74840510D01*
X216311988Y-74840511D01*
X216437511Y-74912982D01*
X216437512Y-74912982D01*
X216437515Y-74912984D01*
X216577525Y-74950500D01*
X216577528Y-74950500D01*
X216722472Y-74950500D01*
X216722475Y-74950500D01*
X216862485Y-74912984D01*
X216933563Y-74871947D01*
X228054500Y-74871947D01*
X228054500Y-75068052D01*
X228092754Y-75260369D01*
X228092756Y-75260377D01*
X228167797Y-75441543D01*
X228276744Y-75604593D01*
X228276747Y-75604597D01*
X228415402Y-75743252D01*
X228415406Y-75743255D01*
X228578454Y-75852201D01*
X228759623Y-75927244D01*
X228951947Y-75965499D01*
X228951951Y-75965500D01*
X228951952Y-75965500D01*
X229148049Y-75965500D01*
X229148050Y-75965499D01*
X229340377Y-75927244D01*
X229521546Y-75852201D01*
X229684594Y-75743255D01*
X229823255Y-75604594D01*
X229932201Y-75441546D01*
X230007244Y-75260377D01*
X230045500Y-75068048D01*
X230045500Y-74871952D01*
X230044730Y-74868082D01*
X230295000Y-74868082D01*
X230295000Y-75071917D01*
X230326888Y-75273247D01*
X230326888Y-75273250D01*
X230389875Y-75467104D01*
X230389877Y-75467107D01*
X230482417Y-75648728D01*
X230514104Y-75692340D01*
X230514105Y-75692341D01*
X231082542Y-75123903D01*
X231096119Y-75174572D01*
X231165895Y-75295427D01*
X231264573Y-75394105D01*
X231385428Y-75463881D01*
X231436095Y-75477457D01*
X230867657Y-76045894D01*
X230867658Y-76045895D01*
X230911266Y-76077578D01*
X230911279Y-76077586D01*
X231092892Y-76170122D01*
X231092895Y-76170124D01*
X231286751Y-76233111D01*
X231488082Y-76265000D01*
X231691918Y-76265000D01*
X231893247Y-76233111D01*
X231893250Y-76233111D01*
X232087104Y-76170124D01*
X232087107Y-76170122D01*
X232268728Y-76077582D01*
X232312340Y-76045895D01*
X232312340Y-76045894D01*
X231743903Y-75477457D01*
X231794572Y-75463881D01*
X231915427Y-75394105D01*
X232014105Y-75295427D01*
X232083881Y-75174572D01*
X232097457Y-75123903D01*
X232665894Y-75692340D01*
X232665895Y-75692340D01*
X232697582Y-75648728D01*
X232790122Y-75467107D01*
X232790124Y-75467104D01*
X232853111Y-75273250D01*
X232853111Y-75273247D01*
X232885000Y-75071917D01*
X232885000Y-74868082D01*
X232853111Y-74666752D01*
X232853111Y-74666749D01*
X232790124Y-74472895D01*
X232790122Y-74472892D01*
X232697586Y-74291279D01*
X232697578Y-74291266D01*
X232665895Y-74247658D01*
X232665894Y-74247657D01*
X232097457Y-74816095D01*
X232083881Y-74765428D01*
X232014105Y-74644573D01*
X231915427Y-74545895D01*
X231794572Y-74476119D01*
X231743904Y-74462542D01*
X232312341Y-73894105D01*
X232312340Y-73894104D01*
X232268728Y-73862417D01*
X232087107Y-73769877D01*
X232087104Y-73769875D01*
X231893248Y-73706888D01*
X231691918Y-73675000D01*
X231488082Y-73675000D01*
X231286752Y-73706888D01*
X231286749Y-73706888D01*
X231092895Y-73769875D01*
X231092892Y-73769876D01*
X230911273Y-73862416D01*
X230867658Y-73894104D01*
X231436096Y-74462542D01*
X231385428Y-74476119D01*
X231264573Y-74545895D01*
X231165895Y-74644573D01*
X231096119Y-74765428D01*
X231082542Y-74816096D01*
X230514104Y-74247658D01*
X230482416Y-74291273D01*
X230389876Y-74472892D01*
X230389875Y-74472895D01*
X230326888Y-74666749D01*
X230326888Y-74666752D01*
X230295000Y-74868082D01*
X230044730Y-74868082D01*
X230007244Y-74679623D01*
X229932201Y-74498454D01*
X229823255Y-74335406D01*
X229823252Y-74335402D01*
X229684597Y-74196747D01*
X229684593Y-74196744D01*
X229521543Y-74087797D01*
X229444593Y-74055924D01*
X229340377Y-74012756D01*
X229340369Y-74012754D01*
X229148052Y-73974500D01*
X229148048Y-73974500D01*
X228951952Y-73974500D01*
X228951947Y-73974500D01*
X228759630Y-74012754D01*
X228759622Y-74012756D01*
X228578456Y-74087797D01*
X228415406Y-74196744D01*
X228415402Y-74196747D01*
X228276747Y-74335402D01*
X228276744Y-74335406D01*
X228167797Y-74498456D01*
X228092756Y-74679622D01*
X228092754Y-74679630D01*
X228054500Y-74871947D01*
X216933563Y-74871947D01*
X216988015Y-74840509D01*
X217090509Y-74738015D01*
X217162984Y-74612485D01*
X217200500Y-74472475D01*
X217200500Y-74327525D01*
X217162984Y-74187515D01*
X217090509Y-74061985D01*
X216988015Y-73959491D01*
X216988013Y-73959490D01*
X216988011Y-73959488D01*
X216862488Y-73887017D01*
X216862489Y-73887017D01*
X216851006Y-73883940D01*
X216722475Y-73849500D01*
X216577525Y-73849500D01*
X216448993Y-73883940D01*
X216437511Y-73887017D01*
X216311988Y-73959488D01*
X216311982Y-73959493D01*
X216209493Y-74061982D01*
X216209488Y-74061988D01*
X216137017Y-74187511D01*
X216137016Y-74187515D01*
X216099500Y-74327525D01*
X130890568Y-74327525D01*
X130881103Y-73134108D01*
X207199500Y-73134108D01*
X207199500Y-73265891D01*
X207233608Y-73393187D01*
X207266554Y-73450250D01*
X207299500Y-73507314D01*
X207392686Y-73600500D01*
X207506814Y-73666392D01*
X207634108Y-73700500D01*
X207634110Y-73700500D01*
X207765890Y-73700500D01*
X207765892Y-73700500D01*
X207893186Y-73666392D01*
X208007314Y-73600500D01*
X208100500Y-73507314D01*
X208166392Y-73393186D01*
X208200500Y-73265892D01*
X208200500Y-73134108D01*
X208166392Y-73006814D01*
X208100500Y-72892686D01*
X208007314Y-72799500D01*
X207950250Y-72766554D01*
X207893187Y-72733608D01*
X207829539Y-72716554D01*
X207765892Y-72699500D01*
X207634108Y-72699500D01*
X207506812Y-72733608D01*
X207392686Y-72799500D01*
X207392683Y-72799502D01*
X207299502Y-72892683D01*
X207299500Y-72892686D01*
X207233608Y-73006812D01*
X207199500Y-73134108D01*
X130881103Y-73134108D01*
X130875102Y-72377525D01*
X155499500Y-72377525D01*
X155499500Y-72522475D01*
X155537016Y-72662485D01*
X155537017Y-72662488D01*
X155609488Y-72788011D01*
X155609490Y-72788013D01*
X155609491Y-72788015D01*
X155711985Y-72890509D01*
X155711986Y-72890510D01*
X155711988Y-72890511D01*
X155837511Y-72962982D01*
X155837512Y-72962982D01*
X155837515Y-72962984D01*
X155977525Y-73000500D01*
X155977528Y-73000500D01*
X156122472Y-73000500D01*
X156122475Y-73000500D01*
X156262485Y-72962984D01*
X156388015Y-72890509D01*
X156490509Y-72788015D01*
X156562984Y-72662485D01*
X156600500Y-72522475D01*
X156600500Y-72377525D01*
X156562984Y-72237515D01*
X156490509Y-72111985D01*
X156388015Y-72009491D01*
X156388013Y-72009490D01*
X156388011Y-72009488D01*
X156262488Y-71937017D01*
X156262489Y-71937017D01*
X156251006Y-71933940D01*
X156122475Y-71899500D01*
X155977525Y-71899500D01*
X155848993Y-71933940D01*
X155837511Y-71937017D01*
X155711988Y-72009488D01*
X155711982Y-72009493D01*
X155609493Y-72111982D01*
X155609488Y-72111988D01*
X155537017Y-72237511D01*
X155537016Y-72237515D01*
X155499500Y-72377525D01*
X130875102Y-72377525D01*
X130800152Y-62927525D01*
X137099500Y-62927525D01*
X137099500Y-63072475D01*
X137133025Y-63197590D01*
X137137017Y-63212488D01*
X137209488Y-63338011D01*
X137209490Y-63338013D01*
X137209491Y-63338015D01*
X137311985Y-63440509D01*
X137311986Y-63440510D01*
X137311988Y-63440511D01*
X137437511Y-63512982D01*
X137437512Y-63512982D01*
X137437515Y-63512984D01*
X137577525Y-63550500D01*
X137577528Y-63550500D01*
X137722472Y-63550500D01*
X137722475Y-63550500D01*
X137862485Y-63512984D01*
X137988015Y-63440509D01*
X138090509Y-63338015D01*
X138162984Y-63212485D01*
X138200500Y-63072475D01*
X138200500Y-62927525D01*
X138162984Y-62787515D01*
X138090509Y-62661985D01*
X137988015Y-62559491D01*
X137988013Y-62559490D01*
X137988011Y-62559488D01*
X137862488Y-62487017D01*
X137862489Y-62487017D01*
X137851006Y-62483940D01*
X137722475Y-62449500D01*
X137577525Y-62449500D01*
X137448993Y-62483940D01*
X137437511Y-62487017D01*
X137311988Y-62559488D01*
X137311982Y-62559493D01*
X137209493Y-62661982D01*
X137209488Y-62661988D01*
X137137017Y-62787511D01*
X137137016Y-62787515D01*
X137099500Y-62927525D01*
X130800152Y-62927525D01*
X130786997Y-61268905D01*
X185800000Y-61268905D01*
X185800000Y-61531094D01*
X185834220Y-61791009D01*
X185834222Y-61791020D01*
X185902075Y-62044255D01*
X186002404Y-62286471D01*
X186002409Y-62286482D01*
X186133488Y-62513516D01*
X186133494Y-62513524D01*
X186220080Y-62626365D01*
X186937425Y-61909019D01*
X187023249Y-62037463D01*
X187162537Y-62176751D01*
X187290978Y-62262573D01*
X186573633Y-62979917D01*
X186573633Y-62979918D01*
X186686475Y-63066505D01*
X186686483Y-63066511D01*
X186913517Y-63197590D01*
X186913528Y-63197595D01*
X187155744Y-63297924D01*
X187408979Y-63365777D01*
X187408990Y-63365779D01*
X187668905Y-63399999D01*
X187668920Y-63400000D01*
X187931080Y-63400000D01*
X187931094Y-63399999D01*
X188191009Y-63365779D01*
X188191020Y-63365777D01*
X188444255Y-63297924D01*
X188686471Y-63197595D01*
X188686482Y-63197590D01*
X188913516Y-63066511D01*
X188913534Y-63066499D01*
X189026365Y-62979919D01*
X189026365Y-62979917D01*
X188309020Y-62262573D01*
X188437463Y-62176751D01*
X188576751Y-62037463D01*
X188662573Y-61909021D01*
X189379917Y-62626365D01*
X189379919Y-62626365D01*
X189466499Y-62513534D01*
X189466511Y-62513516D01*
X189597590Y-62286482D01*
X189597595Y-62286471D01*
X189697924Y-62044255D01*
X189765777Y-61791020D01*
X189765779Y-61791009D01*
X189799999Y-61531094D01*
X189800000Y-61531080D01*
X189800000Y-61268919D01*
X189799999Y-61268905D01*
X189765779Y-61008990D01*
X189765777Y-61008979D01*
X189697924Y-60755744D01*
X189597595Y-60513528D01*
X189597590Y-60513517D01*
X189466511Y-60286483D01*
X189466505Y-60286475D01*
X189379918Y-60173633D01*
X189379917Y-60173633D01*
X188662572Y-60890978D01*
X188576751Y-60762537D01*
X188437463Y-60623249D01*
X188309019Y-60537425D01*
X189026365Y-59820080D01*
X188913524Y-59733494D01*
X188913516Y-59733488D01*
X188686482Y-59602409D01*
X188686471Y-59602404D01*
X188444255Y-59502075D01*
X188191020Y-59434222D01*
X188191009Y-59434220D01*
X187931094Y-59400000D01*
X187668905Y-59400000D01*
X187408990Y-59434220D01*
X187408979Y-59434222D01*
X187155744Y-59502075D01*
X186913528Y-59602404D01*
X186913517Y-59602409D01*
X186686471Y-59733496D01*
X186573633Y-59820079D01*
X186573633Y-59820080D01*
X187290979Y-60537426D01*
X187162537Y-60623249D01*
X187023249Y-60762537D01*
X186937426Y-60890979D01*
X186220080Y-60173633D01*
X186220079Y-60173633D01*
X186133496Y-60286471D01*
X186002409Y-60513517D01*
X186002404Y-60513528D01*
X185902075Y-60755744D01*
X185834222Y-61008979D01*
X185834220Y-61008990D01*
X185800000Y-61268905D01*
X130786997Y-61268905D01*
X130740323Y-55384108D01*
X133349500Y-55384108D01*
X133349500Y-55515891D01*
X133383608Y-55643187D01*
X133412476Y-55693186D01*
X133449500Y-55757314D01*
X133542686Y-55850500D01*
X133656814Y-55916392D01*
X133784108Y-55950500D01*
X133784110Y-55950500D01*
X133915890Y-55950500D01*
X133915892Y-55950500D01*
X134043186Y-55916392D01*
X134157314Y-55850500D01*
X134250500Y-55757314D01*
X134316392Y-55643186D01*
X134350500Y-55515892D01*
X134350500Y-55434108D01*
X136699500Y-55434108D01*
X136699500Y-55565892D01*
X136716554Y-55629539D01*
X136733608Y-55693187D01*
X136766554Y-55750250D01*
X136799500Y-55807314D01*
X136892686Y-55900500D01*
X137006814Y-55966392D01*
X137134108Y-56000500D01*
X137134110Y-56000500D01*
X137265890Y-56000500D01*
X137265892Y-56000500D01*
X137393186Y-55966392D01*
X137507314Y-55900500D01*
X137600500Y-55807314D01*
X137666392Y-55693186D01*
X137700500Y-55565892D01*
X137700500Y-55434108D01*
X137666392Y-55306814D01*
X137666390Y-55306810D01*
X137600503Y-55192690D01*
X137600497Y-55192683D01*
X137539316Y-55131502D01*
X228099500Y-55131502D01*
X228099500Y-55367697D01*
X228136446Y-55600968D01*
X228209433Y-55825596D01*
X228298552Y-56000500D01*
X228316657Y-56036033D01*
X228455483Y-56227110D01*
X228622490Y-56394117D01*
X228813567Y-56532943D01*
X228912991Y-56583602D01*
X229024003Y-56640166D01*
X229024005Y-56640166D01*
X229024008Y-56640168D01*
X229144412Y-56679289D01*
X229248631Y-56713153D01*
X229481903Y-56750100D01*
X229481908Y-56750100D01*
X229718097Y-56750100D01*
X229951368Y-56713153D01*
X230175992Y-56640168D01*
X230386433Y-56532943D01*
X230577510Y-56394117D01*
X230744517Y-56227110D01*
X230883343Y-56036033D01*
X230990568Y-55825592D01*
X231063553Y-55600968D01*
X231100500Y-55367697D01*
X231100500Y-55131502D01*
X231063553Y-54898231D01*
X230990566Y-54673603D01*
X230888720Y-54473720D01*
X230883343Y-54463167D01*
X230744517Y-54272090D01*
X230577510Y-54105083D01*
X230386433Y-53966257D01*
X230175996Y-53859033D01*
X229951368Y-53786046D01*
X229718097Y-53749100D01*
X229718092Y-53749100D01*
X229481908Y-53749100D01*
X229481903Y-53749100D01*
X229248631Y-53786046D01*
X229024003Y-53859033D01*
X228813566Y-53966257D01*
X228704550Y-54045462D01*
X228622490Y-54105083D01*
X228622488Y-54105085D01*
X228622487Y-54105085D01*
X228455485Y-54272087D01*
X228455485Y-54272088D01*
X228455483Y-54272090D01*
X228395862Y-54354150D01*
X228316657Y-54463166D01*
X228209433Y-54673603D01*
X228136446Y-54898231D01*
X228099500Y-55131502D01*
X137539316Y-55131502D01*
X137507316Y-55099502D01*
X137507314Y-55099500D01*
X137450250Y-55066554D01*
X137393187Y-55033608D01*
X137329539Y-55016554D01*
X137265892Y-54999500D01*
X137134108Y-54999500D01*
X137006812Y-55033608D01*
X136892686Y-55099500D01*
X136892683Y-55099502D01*
X136799502Y-55192683D01*
X136799500Y-55192686D01*
X136733608Y-55306812D01*
X136712897Y-55384108D01*
X136699500Y-55434108D01*
X134350500Y-55434108D01*
X134350500Y-55384108D01*
X134316392Y-55256814D01*
X134250500Y-55142686D01*
X134157314Y-55049500D01*
X134070712Y-54999500D01*
X134043187Y-54983608D01*
X133979539Y-54966554D01*
X133915892Y-54949500D01*
X133784108Y-54949500D01*
X133656812Y-54983608D01*
X133542686Y-55049500D01*
X133542683Y-55049502D01*
X133449502Y-55142683D01*
X133449500Y-55142686D01*
X133383608Y-55256812D01*
X133349500Y-55384108D01*
X130740323Y-55384108D01*
X130725994Y-53577525D01*
X140549500Y-53577525D01*
X140549500Y-53722475D01*
X140586091Y-53859032D01*
X140587017Y-53862488D01*
X140659488Y-53988011D01*
X140659490Y-53988013D01*
X140659491Y-53988015D01*
X140761985Y-54090509D01*
X140761986Y-54090510D01*
X140761988Y-54090511D01*
X140887511Y-54162982D01*
X140887512Y-54162982D01*
X140887515Y-54162984D01*
X141027525Y-54200500D01*
X141027528Y-54200500D01*
X141172472Y-54200500D01*
X141172475Y-54200500D01*
X141312485Y-54162984D01*
X141438015Y-54090509D01*
X141540509Y-53988015D01*
X141612984Y-53862485D01*
X141650500Y-53722475D01*
X141650500Y-53577525D01*
X141612984Y-53437515D01*
X141564281Y-53353160D01*
X141540511Y-53311988D01*
X141540506Y-53311982D01*
X141438017Y-53209493D01*
X141438011Y-53209488D01*
X141312488Y-53137017D01*
X141312489Y-53137017D01*
X141301006Y-53133940D01*
X141172475Y-53099500D01*
X141027525Y-53099500D01*
X140898993Y-53133940D01*
X140887511Y-53137017D01*
X140761988Y-53209488D01*
X140761982Y-53209493D01*
X140659493Y-53311982D01*
X140659488Y-53311988D01*
X140587017Y-53437511D01*
X140587016Y-53437515D01*
X140549500Y-53577525D01*
X130725994Y-53577525D01*
X130704505Y-50868116D01*
X130723657Y-50800927D01*
X130776097Y-50754755D01*
X130828503Y-50743138D01*
X202170658Y-50748198D01*
G37*
%TD.AperFunction*%
%TD*%
%TA.AperFunction,Conductor*%
%TO.N,/AC_N*%
G36*
X122131574Y-50742521D02*
G01*
X122198610Y-50762210D01*
X122244361Y-50815018D01*
X122255549Y-50864634D01*
X122748102Y-83225346D01*
X122729440Y-83292677D01*
X122677338Y-83339230D01*
X122625336Y-83351227D01*
X97476733Y-83598752D01*
X97409503Y-83579728D01*
X97363231Y-83527377D01*
X97351522Y-83473269D01*
X97353692Y-83292677D01*
X97628201Y-60439778D01*
X118099500Y-60439778D01*
X118099500Y-60660221D01*
X118133985Y-60877952D01*
X118202103Y-61087603D01*
X118202104Y-61087606D01*
X118302187Y-61284025D01*
X118431752Y-61462358D01*
X118431756Y-61462363D01*
X118581711Y-61612318D01*
X118615196Y-61673641D01*
X118610212Y-61743333D01*
X118581712Y-61787679D01*
X118531760Y-61837631D01*
X118531754Y-61837638D01*
X118402187Y-62015974D01*
X118302104Y-62212393D01*
X118302103Y-62212396D01*
X118233985Y-62422047D01*
X118199500Y-62639778D01*
X118199500Y-62860221D01*
X118233985Y-63077952D01*
X118302103Y-63287603D01*
X118302104Y-63287606D01*
X118402187Y-63484025D01*
X118531752Y-63662358D01*
X118531756Y-63662363D01*
X118687636Y-63818243D01*
X118687641Y-63818247D01*
X118843192Y-63931260D01*
X118865978Y-63947815D01*
X118994375Y-64013237D01*
X119062393Y-64047895D01*
X119062396Y-64047896D01*
X119167221Y-64081955D01*
X119272049Y-64116015D01*
X119489778Y-64150500D01*
X119489779Y-64150500D01*
X119710221Y-64150500D01*
X119710222Y-64150500D01*
X119927951Y-64116015D01*
X120137606Y-64047895D01*
X120334022Y-63947815D01*
X120512365Y-63818242D01*
X120668242Y-63662365D01*
X120797815Y-63484022D01*
X120897895Y-63287606D01*
X120966015Y-63077951D01*
X121000500Y-62860222D01*
X121000500Y-62639778D01*
X120966015Y-62422049D01*
X120897895Y-62212394D01*
X120897895Y-62212393D01*
X120863237Y-62144375D01*
X120797815Y-62015978D01*
X120781260Y-61993192D01*
X120668247Y-61837641D01*
X120668243Y-61837636D01*
X120518288Y-61687681D01*
X120484803Y-61626358D01*
X120489787Y-61556666D01*
X120518288Y-61512319D01*
X120530731Y-61499875D01*
X120568242Y-61462365D01*
X120697815Y-61284022D01*
X120797895Y-61087606D01*
X120866015Y-60877951D01*
X120900500Y-60660222D01*
X120900500Y-60439778D01*
X120866015Y-60222049D01*
X120797895Y-60012394D01*
X120797895Y-60012393D01*
X120763237Y-59944375D01*
X120697815Y-59815978D01*
X120681260Y-59793192D01*
X120568247Y-59637641D01*
X120568243Y-59637636D01*
X120412363Y-59481756D01*
X120412358Y-59481752D01*
X120234025Y-59352187D01*
X120234024Y-59352186D01*
X120234022Y-59352185D01*
X120171096Y-59320122D01*
X120037606Y-59252104D01*
X120037603Y-59252103D01*
X119827952Y-59183985D01*
X119719086Y-59166742D01*
X119610222Y-59149500D01*
X119389778Y-59149500D01*
X119317201Y-59160995D01*
X119172047Y-59183985D01*
X118962396Y-59252103D01*
X118962393Y-59252104D01*
X118765974Y-59352187D01*
X118587641Y-59481752D01*
X118587636Y-59481756D01*
X118431756Y-59637636D01*
X118431752Y-59637641D01*
X118302187Y-59815974D01*
X118202104Y-60012393D01*
X118202103Y-60012396D01*
X118133985Y-60222047D01*
X118099500Y-60439778D01*
X97628201Y-60439778D01*
X97674460Y-56588713D01*
X118499500Y-56588713D01*
X118499500Y-56801286D01*
X118532753Y-57011239D01*
X118598444Y-57213414D01*
X118694951Y-57402820D01*
X118819890Y-57574786D01*
X118970213Y-57725109D01*
X119142179Y-57850048D01*
X119142181Y-57850049D01*
X119142184Y-57850051D01*
X119331588Y-57946557D01*
X119533757Y-58012246D01*
X119743713Y-58045500D01*
X119743714Y-58045500D01*
X119956286Y-58045500D01*
X119956287Y-58045500D01*
X120166243Y-58012246D01*
X120368412Y-57946557D01*
X120557816Y-57850051D01*
X120579789Y-57834086D01*
X120729786Y-57725109D01*
X120729788Y-57725106D01*
X120729792Y-57725104D01*
X120880104Y-57574792D01*
X120880106Y-57574788D01*
X120880109Y-57574786D01*
X121005048Y-57402820D01*
X121005047Y-57402820D01*
X121005051Y-57402816D01*
X121101557Y-57213412D01*
X121167246Y-57011243D01*
X121200500Y-56801287D01*
X121200500Y-56588713D01*
X121167246Y-56378757D01*
X121101557Y-56176588D01*
X121005051Y-55987184D01*
X121005049Y-55987181D01*
X121005048Y-55987179D01*
X120880109Y-55815213D01*
X120729786Y-55664890D01*
X120557819Y-55539951D01*
X120557818Y-55539950D01*
X120557816Y-55539949D01*
X120463597Y-55491942D01*
X120412801Y-55443967D01*
X120396006Y-55376146D01*
X120418543Y-55310011D01*
X120473259Y-55266560D01*
X120481562Y-55263530D01*
X120518412Y-55251557D01*
X120707816Y-55155051D01*
X120729789Y-55139086D01*
X120879786Y-55030109D01*
X120879788Y-55030106D01*
X120879792Y-55030104D01*
X121030104Y-54879792D01*
X121030106Y-54879788D01*
X121030109Y-54879786D01*
X121155048Y-54707820D01*
X121155047Y-54707820D01*
X121155051Y-54707816D01*
X121251557Y-54518412D01*
X121317246Y-54316243D01*
X121350500Y-54106287D01*
X121350500Y-53893713D01*
X121317246Y-53683757D01*
X121251557Y-53481588D01*
X121155051Y-53292184D01*
X121155049Y-53292181D01*
X121155048Y-53292179D01*
X121030109Y-53120213D01*
X120879786Y-52969890D01*
X120707820Y-52844951D01*
X120518414Y-52748444D01*
X120518413Y-52748443D01*
X120518412Y-52748443D01*
X120316243Y-52682754D01*
X120316241Y-52682753D01*
X120316240Y-52682753D01*
X120154957Y-52657208D01*
X120106287Y-52649500D01*
X119893713Y-52649500D01*
X119845042Y-52657208D01*
X119683760Y-52682753D01*
X119481585Y-52748444D01*
X119292179Y-52844951D01*
X119120213Y-52969890D01*
X118969890Y-53120213D01*
X118844951Y-53292179D01*
X118748444Y-53481585D01*
X118682753Y-53683760D01*
X118649500Y-53893713D01*
X118649500Y-54106286D01*
X118682753Y-54316239D01*
X118748444Y-54518414D01*
X118844951Y-54707820D01*
X118969890Y-54879786D01*
X119120213Y-55030109D01*
X119292179Y-55155048D01*
X119292181Y-55155049D01*
X119292184Y-55155051D01*
X119386402Y-55203057D01*
X119437198Y-55251031D01*
X119453993Y-55318852D01*
X119431456Y-55384987D01*
X119376741Y-55428439D01*
X119368428Y-55431472D01*
X119331586Y-55443443D01*
X119142179Y-55539951D01*
X118970213Y-55664890D01*
X118819890Y-55815213D01*
X118694951Y-55987179D01*
X118598444Y-56176585D01*
X118532753Y-56378760D01*
X118499500Y-56588713D01*
X97674460Y-56588713D01*
X97743233Y-50863308D01*
X97763721Y-50796511D01*
X97817071Y-50751394D01*
X97867226Y-50740800D01*
X122131574Y-50742521D01*
G37*
%TD.AperFunction*%
%TD*%
M02*
