%TF.GenerationSoftware,KiCad,Pcbnew,9.0.6*%
%TF.CreationDate,2026-08-22T06:09:00+01:00*%
%TF.ProjectId,myProject,6d795072-6f6a-4656-9374-2e6b69636164,rev?*%
%TF.SameCoordinates,Original*%
%TF.FileFunction,Copper,L4,Bot*%
%TF.FilePolarity,Positive*%
%FSLAX46Y46*%
G04 Gerber Fmt 4.6, Leading zero omitted, Abs format (unit mm)*
G04 Created by KiCad (PCBNEW 9.0.6) date 2026-08-22 06:09:00*
%MOMM*%
%LPD*%
G01*
G04 APERTURE LIST*
G04 Aperture macros list*
%AMRoundRect*
0 Rectangle with rounded corners*
0 $1 Rounding radius*
0 $2 $3 $4 $5 $6 $7 $8 $9 X,Y pos of 4 corners*
0 Add a 4 corners polygon primitive as box body*
4,1,4,$2,$3,$4,$5,$6,$7,$8,$9,$2,$3,0*
0 Add four circle primitives for the rounded corners*
1,1,$1+$1,$2,$3*
1,1,$1+$1,$4,$5*
1,1,$1+$1,$6,$7*
1,1,$1+$1,$8,$9*
0 Add four rect primitives between the rounded corners*
20,1,$1+$1,$2,$3,$4,$5,0*
20,1,$1+$1,$4,$5,$6,$7,0*
20,1,$1+$1,$6,$7,$8,$9,0*
20,1,$1+$1,$8,$9,$2,$3,0*%
G04 Aperture macros list end*
%TA.AperFunction,ComponentPad*%
%ADD10C,1.950000*%
%TD*%
%TA.AperFunction,ComponentPad*%
%ADD11R,1.500000X1.500000*%
%TD*%
%TA.AperFunction,ComponentPad*%
%ADD12C,1.500000*%
%TD*%
%TA.AperFunction,ComponentPad*%
%ADD13R,1.590000X1.590000*%
%TD*%
%TA.AperFunction,ComponentPad*%
%ADD14C,1.590000*%
%TD*%
%TA.AperFunction,ComponentPad*%
%ADD15RoundRect,0.450000X1.450000X-0.450000X1.450000X0.450000X-1.450000X0.450000X-1.450000X-0.450000X0*%
%TD*%
%TA.AperFunction,ComponentPad*%
%ADD16RoundRect,0.450000X0.450000X1.450000X-0.450000X1.450000X-0.450000X-1.450000X0.450000X-1.450000X0*%
%TD*%
%TA.AperFunction,ComponentPad*%
%ADD17R,2.100000X2.100000*%
%TD*%
%TA.AperFunction,ComponentPad*%
%ADD18C,2.100000*%
%TD*%
%TA.AperFunction,ComponentPad*%
%ADD19C,3.000000*%
%TD*%
%TA.AperFunction,ComponentPad*%
%ADD20R,1.700000X1.700000*%
%TD*%
%TA.AperFunction,ComponentPad*%
%ADD21C,1.700000*%
%TD*%
%TA.AperFunction,ComponentPad*%
%ADD22R,2.475000X2.475000*%
%TD*%
%TA.AperFunction,ComponentPad*%
%ADD23C,2.475000*%
%TD*%
%TA.AperFunction,ViaPad*%
%ADD24C,0.600000*%
%TD*%
%TA.AperFunction,ViaPad*%
%ADD25C,0.700000*%
%TD*%
%TA.AperFunction,ViaPad*%
%ADD26C,0.800000*%
%TD*%
%TA.AperFunction,ViaPad*%
%ADD27C,1.000000*%
%TD*%
%TA.AperFunction,Conductor*%
%ADD28C,0.800000*%
%TD*%
%TA.AperFunction,Conductor*%
%ADD29C,0.400000*%
%TD*%
%TA.AperFunction,Conductor*%
%ADD30C,0.250000*%
%TD*%
G04 APERTURE END LIST*
D10*
%TO.P,F1,1*%
%TO.N,/AC_L*%
X80350000Y-67200000D03*
%TO.P,F1,2*%
%TO.N,/AC_Path/FUSED_AC_L*%
X80350000Y-79700000D03*
%TD*%
D11*
%TO.P,RV1,1*%
%TO.N,/AC_N*%
X94600000Y-65150000D03*
D12*
%TO.P,RV1,2*%
%TO.N,/AC_Path/FUSED_AC_L*%
X91400000Y-72650000D03*
%TD*%
D13*
%TO.P,J4,A1,A1*%
%TO.N,/FPGA_CS*%
X231590000Y-87670000D03*
D14*
%TO.P,J4,A2,A2*%
%TO.N,GND*%
X231590000Y-85130000D03*
%TO.P,J4,A3,A3*%
X231590000Y-82590000D03*
%TO.P,J4,A4,A4*%
%TO.N,/SDO_B*%
X231590000Y-80050000D03*
%TO.P,J4,A5,A5*%
%TO.N,unconnected-(J4-PadA5)*%
X231590000Y-77510000D03*
%TO.P,J4,A6,A6*%
%TO.N,GND*%
X231590000Y-74970000D03*
%TO.P,J4,B1,B1*%
%TO.N,/FPGA_SCLK*%
X229050000Y-87670000D03*
%TO.P,J4,B2,B2*%
%TO.N,/SDO_A*%
X229050000Y-85130000D03*
%TO.P,J4,B3,B3*%
%TO.N,GND*%
X229050000Y-82590000D03*
%TO.P,J4,B4,B4*%
%TO.N,/DIAG*%
X229050000Y-80050000D03*
%TO.P,J4,B5,B5*%
%TO.N,unconnected-(J4-PadB5)*%
X229050000Y-77510000D03*
%TO.P,J4,B6,B6*%
%TO.N,unconnected-(J4-PadB6)*%
X229050000Y-74970000D03*
%TD*%
D15*
%TO.P,J5,1*%
%TO.N,/+9V_IN*%
X137850000Y-111787500D03*
%TO.P,J5,2*%
%TO.N,GND*%
X137850000Y-117987500D03*
D16*
%TO.P,J5,3*%
%TO.N,unconnected-(J5-Pad3)*%
X142550000Y-114787500D03*
%TD*%
D17*
%TO.P,J2,1,1*%
%TO.N,/AC_L*%
X65550000Y-66640000D03*
D18*
%TO.P,J2,2,2*%
%TO.N,/AC_N*%
X65550000Y-71720000D03*
%TD*%
D19*
%TO.P,5v,1,1*%
%TO.N,+5V*%
X208100000Y-98600000D03*
%TD*%
%TO.P,3v3,1,1*%
%TO.N,+3.3V*%
X224150000Y-99250000D03*
%TD*%
%TO.P,9v,1,1*%
%TO.N,/+9V_IN*%
X151550000Y-109500000D03*
%TD*%
%TO.P,GND,1,1*%
%TO.N,GND*%
X139650000Y-85850000D03*
%TD*%
D20*
%TO.P,J1,1,Pin_1*%
%TO.N,/Buck_Vin*%
X232700000Y-94350000D03*
D21*
%TO.P,J1,2,Pin_2*%
%TO.N,+5V*%
X232700000Y-96890000D03*
%TO.P,J1,3,Pin_3*%
%TO.N,+3.3V*%
X232700000Y-99430000D03*
%TO.P,J1,4,Pin_4*%
%TO.N,GND*%
X232700000Y-101970000D03*
%TD*%
D22*
%TO.P,S1,1,1*%
%TO.N,Net-(D2-K)*%
X164300000Y-116950000D03*
D23*
%TO.P,S1,2,2*%
%TO.N,/Buck_Vin*%
X168900000Y-116950000D03*
%TD*%
D17*
%TO.P,J3,1,1*%
%TO.N,/LOAD_L*%
X65990000Y-94122500D03*
D18*
%TO.P,J3,2,2*%
%TO.N,/AC_N*%
X65990000Y-99202500D03*
%TD*%
D19*
%TO.P,GND,1,1*%
%TO.N,GND*%
X191250000Y-95000000D03*
%TD*%
%TO.P,GND,1,1*%
%TO.N,GND*%
X187800000Y-61400000D03*
%TD*%
D24*
%TO.N,GND*%
X134750000Y-92600000D03*
D25*
X149050000Y-82200000D03*
X198650000Y-65500000D03*
X132800000Y-55100000D03*
X173100000Y-83350000D03*
D26*
X137900000Y-120350000D03*
D27*
X210800000Y-108000000D03*
D24*
X203500000Y-107200000D03*
D27*
X183950000Y-124850000D03*
D25*
X229400000Y-106600000D03*
D24*
X131800000Y-98650000D03*
D25*
X232900000Y-104600000D03*
X193900000Y-85850000D03*
D24*
X181905000Y-85639000D03*
D25*
X215550000Y-104250000D03*
X231550000Y-72800000D03*
X159500000Y-76050000D03*
D24*
X220300000Y-75950000D03*
X177200000Y-112550000D03*
D25*
X200900000Y-77400000D03*
X139850000Y-63050000D03*
D24*
X210650000Y-76100000D03*
D27*
X164300000Y-106600000D03*
D25*
X181050000Y-72720000D03*
D24*
X131350000Y-64200000D03*
D27*
X206950000Y-123650000D03*
D25*
X182355000Y-90639000D03*
D24*
X221650000Y-109600000D03*
D25*
X191700000Y-72700000D03*
D24*
X215750000Y-85050000D03*
D25*
X179305000Y-96739000D03*
D24*
X135100000Y-51950000D03*
X177650000Y-109150000D03*
D26*
%TO.N,/Buck_Vin*%
X205500000Y-105600000D03*
X201100000Y-105600000D03*
D25*
%TO.N,+5V*%
X176900000Y-79150000D03*
X217550000Y-103850000D03*
X156050000Y-72450000D03*
X221750000Y-107000000D03*
X212350000Y-86550000D03*
X137650000Y-63000000D03*
X218700000Y-102800000D03*
X131150000Y-90950000D03*
%TO.N,+3.3V*%
X224100000Y-105000000D03*
X225350000Y-104600000D03*
X216650000Y-74400000D03*
X141100000Y-53650000D03*
%TO.N,Net-(U3-DCDC_OUT)*%
X119850000Y-56695000D03*
X120000000Y-54000000D03*
D24*
%TO.N,/AC_N*%
X120050000Y-66800000D03*
D25*
X115400000Y-53450000D03*
D27*
X100800000Y-81250000D03*
X101650000Y-65200000D03*
X99950000Y-61850000D03*
X104150000Y-81950000D03*
D25*
X113200000Y-62100000D03*
D26*
%TO.N,/AC_Path/V_DIV*%
X119500000Y-60550000D03*
X119600000Y-62750000D03*
D24*
%TO.N,/SDO_A*%
X220400000Y-79200000D03*
X222141942Y-79641942D03*
%TO.N,/CS*%
X216534467Y-85206893D03*
X205900000Y-76250000D03*
X218000000Y-83150000D03*
X206050000Y-85150000D03*
%TO.N,/SDO_B*%
X222750000Y-78500000D03*
X220850000Y-77750000D03*
%TO.N,/SCLK*%
X207700000Y-73200000D03*
X207700000Y-76800000D03*
D25*
%TO.N,/DIAG*%
X225500000Y-79425000D03*
D24*
X133850000Y-55450000D03*
D25*
X225500000Y-77150000D03*
D24*
X137200000Y-55500000D03*
%TO.N,Net-(U1-OUTB)*%
X157650000Y-83300000D03*
X157650000Y-80100000D03*
%TO.N,Net-(U1-+INA)*%
X152200000Y-80800000D03*
X153650000Y-80200000D03*
%TO.N,/Vref_5v*%
X177250000Y-87850000D03*
X177500000Y-86575000D03*
%TD*%
D28*
%TO.N,/Buck_Vin*%
X205500000Y-105600000D02*
X201100000Y-105600000D01*
D29*
%TO.N,Net-(U3-DCDC_OUT)*%
X119951671Y-56695000D02*
X119850000Y-56695000D01*
X120189603Y-54189603D02*
X120189603Y-56457068D01*
X120000000Y-54000000D02*
X120189603Y-54189603D01*
X120189603Y-56457068D02*
X119951671Y-56695000D01*
%TO.N,/AC_Path/V_DIV*%
X119600000Y-60650000D02*
X119500000Y-60550000D01*
X119600000Y-62750000D02*
X119600000Y-60650000D01*
D30*
%TO.N,/SDO_A*%
X222141942Y-79641942D02*
X221900000Y-79400000D01*
X220600000Y-79400000D02*
X220400000Y-79200000D01*
X221900000Y-79400000D02*
X220600000Y-79400000D01*
%TO.N,/CS*%
X218000000Y-83741360D02*
X218000000Y-83150000D01*
X205900000Y-76350000D02*
X206000000Y-76450000D01*
X216534467Y-85206893D02*
X218000000Y-83741360D01*
X206000000Y-85100000D02*
X206050000Y-85150000D01*
X206000000Y-76450000D02*
X206000000Y-85100000D01*
X205900000Y-76250000D02*
X205900000Y-76350000D01*
%TO.N,/SDO_B*%
X220850000Y-77750000D02*
X222000000Y-77750000D01*
X222000000Y-77750000D02*
X222750000Y-78500000D01*
%TO.N,/SCLK*%
X207700000Y-76800000D02*
X207700000Y-73200000D01*
%TO.N,/DIAG*%
X133850000Y-55450000D02*
X137150000Y-55450000D01*
X225500000Y-79425000D02*
X225500000Y-77150000D01*
X137150000Y-55450000D02*
X137200000Y-55500000D01*
%TO.N,Net-(U1-OUTB)*%
X157650000Y-80100000D02*
X157650000Y-83300000D01*
%TO.N,Net-(U1-+INA)*%
X152800000Y-80200000D02*
X152200000Y-80800000D01*
X153650000Y-80200000D02*
X152800000Y-80200000D01*
%TO.N,/Vref_5v*%
X177500000Y-86975000D02*
X177500000Y-86575000D01*
X177496988Y-87603012D02*
X177496988Y-86978012D01*
X177496988Y-86978012D02*
X177500000Y-86975000D01*
X177250000Y-87850000D02*
X177496988Y-87603012D01*
%TD*%
M02*
