%TF.GenerationSoftware,KiCad,Pcbnew,9.0.6*%
%TF.CreationDate,2026-08-22T06:09:00+01:00*%
%TF.ProjectId,myProject,6d795072-6f6a-4656-9374-2e6b69636164,rev?*%
%TF.SameCoordinates,Original*%
%TF.FileFunction,Copper,L3,Inr*%
%TF.FilePolarity,Positive*%
%FSLAX46Y46*%
G04 Gerber Fmt 4.6, Leading zero omitted, Abs format (unit mm)*
G04 Created by KiCad (PCBNEW 9.0.6) date 2026-08-22 06:09:00*
%MOMM*%
%LPD*%
G01*
G04 APERTURE LIST*
G04 Aperture macros list*
%AMRoundRect*
0 Rectangle with rounded corners*
0 $1 Rounding radius*
0 $2 $3 $4 $5 $6 $7 $8 $9 X,Y pos of 4 corners*
0 Add a 4 corners polygon primitive as box body*
4,1,4,$2,$3,$4,$5,$6,$7,$8,$9,$2,$3,0*
0 Add four circle primitives for the rounded corners*
1,1,$1+$1,$2,$3*
1,1,$1+$1,$4,$5*
1,1,$1+$1,$6,$7*
1,1,$1+$1,$8,$9*
0 Add four rect primitives between the rounded corners*
20,1,$1+$1,$2,$3,$4,$5,0*
20,1,$1+$1,$4,$5,$6,$7,0*
20,1,$1+$1,$6,$7,$8,$9,0*
20,1,$1+$1,$8,$9,$2,$3,0*%
G04 Aperture macros list end*
%TA.AperFunction,ComponentPad*%
%ADD10C,1.950000*%
%TD*%
%TA.AperFunction,ComponentPad*%
%ADD11R,1.500000X1.500000*%
%TD*%
%TA.AperFunction,ComponentPad*%
%ADD12C,1.500000*%
%TD*%
%TA.AperFunction,ComponentPad*%
%ADD13R,1.590000X1.590000*%
%TD*%
%TA.AperFunction,ComponentPad*%
%ADD14C,1.590000*%
%TD*%
%TA.AperFunction,ComponentPad*%
%ADD15RoundRect,0.450000X1.450000X-0.450000X1.450000X0.450000X-1.450000X0.450000X-1.450000X-0.450000X0*%
%TD*%
%TA.AperFunction,ComponentPad*%
%ADD16RoundRect,0.450000X0.450000X1.450000X-0.450000X1.450000X-0.450000X-1.450000X0.450000X-1.450000X0*%
%TD*%
%TA.AperFunction,ComponentPad*%
%ADD17R,2.100000X2.100000*%
%TD*%
%TA.AperFunction,ComponentPad*%
%ADD18C,2.100000*%
%TD*%
%TA.AperFunction,ComponentPad*%
%ADD19C,3.000000*%
%TD*%
%TA.AperFunction,ComponentPad*%
%ADD20R,1.700000X1.700000*%
%TD*%
%TA.AperFunction,ComponentPad*%
%ADD21C,1.700000*%
%TD*%
%TA.AperFunction,ComponentPad*%
%ADD22R,2.475000X2.475000*%
%TD*%
%TA.AperFunction,ComponentPad*%
%ADD23C,2.475000*%
%TD*%
%TA.AperFunction,ViaPad*%
%ADD24C,0.600000*%
%TD*%
%TA.AperFunction,ViaPad*%
%ADD25C,0.700000*%
%TD*%
%TA.AperFunction,ViaPad*%
%ADD26C,0.800000*%
%TD*%
%TA.AperFunction,ViaPad*%
%ADD27C,1.000000*%
%TD*%
G04 APERTURE END LIST*
D10*
%TO.N,/AC_L*%
%TO.C,F1*%
X80350000Y-67200000D03*
%TO.N,/AC_Path/FUSED_AC_L*%
X80350000Y-79700000D03*
%TD*%
D11*
%TO.N,/AC_N*%
%TO.C,RV1*%
X94600000Y-65150000D03*
D12*
%TO.N,/AC_Path/FUSED_AC_L*%
X91400000Y-72650000D03*
%TD*%
D13*
%TO.N,/FPGA_CS*%
%TO.C,J4*%
X231590000Y-87670000D03*
D14*
%TO.N,GND*%
X231590000Y-85130000D03*
X231590000Y-82590000D03*
%TO.N,/SDO_B*%
X231590000Y-80050000D03*
%TO.N,unconnected-(J4-PadA5)*%
X231590000Y-77510000D03*
%TO.N,GND*%
X231590000Y-74970000D03*
%TO.N,/FPGA_SCLK*%
X229050000Y-87670000D03*
%TO.N,/SDO_A*%
X229050000Y-85130000D03*
%TO.N,GND*%
X229050000Y-82590000D03*
%TO.N,/DIAG*%
X229050000Y-80050000D03*
%TO.N,unconnected-(J4-PadB5)*%
X229050000Y-77510000D03*
%TO.N,unconnected-(J4-PadB6)*%
X229050000Y-74970000D03*
%TD*%
D15*
%TO.N,/+9V_IN*%
%TO.C,J5*%
X137850000Y-111787500D03*
%TO.N,GND*%
X137850000Y-117987500D03*
D16*
%TO.N,unconnected-(J5-Pad3)*%
X142550000Y-114787500D03*
%TD*%
D17*
%TO.N,/AC_L*%
%TO.C,J2*%
X65550000Y-66640000D03*
D18*
%TO.N,/AC_N*%
X65550000Y-71720000D03*
%TD*%
D19*
%TO.N,+5V*%
%TO.C,5v*%
X208100000Y-98600000D03*
%TD*%
%TO.N,+3.3V*%
%TO.C,3v3*%
X224150000Y-99250000D03*
%TD*%
%TO.N,/+9V_IN*%
%TO.C,9v*%
X151550000Y-109500000D03*
%TD*%
%TO.N,GND*%
%TO.C,GND*%
X139650000Y-85850000D03*
%TD*%
D20*
%TO.N,/Buck_Vin*%
%TO.C,J1*%
X232700000Y-94350000D03*
D21*
%TO.N,+5V*%
X232700000Y-96890000D03*
%TO.N,+3.3V*%
X232700000Y-99430000D03*
%TO.N,GND*%
X232700000Y-101970000D03*
%TD*%
D22*
%TO.N,Net-(D2-K)*%
%TO.C,S1*%
X164300000Y-116950000D03*
D23*
%TO.N,/Buck_Vin*%
X168900000Y-116950000D03*
%TD*%
D17*
%TO.N,/LOAD_L*%
%TO.C,J3*%
X65990000Y-94122500D03*
D18*
%TO.N,/AC_N*%
X65990000Y-99202500D03*
%TD*%
D19*
%TO.N,GND*%
%TO.C,GND*%
X191250000Y-95000000D03*
%TD*%
%TO.N,GND*%
%TO.C,GND*%
X187800000Y-61400000D03*
%TD*%
D24*
%TO.N,GND*%
X134750000Y-92600000D03*
D25*
X149050000Y-82200000D03*
X198650000Y-65500000D03*
X132800000Y-55100000D03*
X173100000Y-83350000D03*
D26*
X137900000Y-120350000D03*
D27*
X210800000Y-108000000D03*
D24*
X203500000Y-107200000D03*
D27*
X183950000Y-124850000D03*
D25*
X229400000Y-106600000D03*
D24*
X131800000Y-98650000D03*
D25*
X232900000Y-104600000D03*
X193900000Y-85850000D03*
D24*
X181905000Y-85639000D03*
D25*
X215550000Y-104250000D03*
X231550000Y-72800000D03*
X159500000Y-76050000D03*
D24*
X220300000Y-75950000D03*
X177200000Y-112550000D03*
D25*
X200900000Y-77400000D03*
X139850000Y-63050000D03*
D24*
X210650000Y-76100000D03*
D27*
X164300000Y-106600000D03*
D25*
X181050000Y-72720000D03*
D24*
X131350000Y-64200000D03*
D27*
X206950000Y-123650000D03*
D25*
X182355000Y-90639000D03*
D24*
X221650000Y-109600000D03*
D25*
X191700000Y-72700000D03*
D24*
X215750000Y-85050000D03*
D25*
X179305000Y-96739000D03*
D24*
X135100000Y-51950000D03*
X177650000Y-109150000D03*
D26*
%TO.N,/Buck_Vin*%
X205500000Y-105600000D03*
X201100000Y-105600000D03*
D25*
%TO.N,+5V*%
X176900000Y-79150000D03*
X217550000Y-103850000D03*
X156050000Y-72450000D03*
X221750000Y-107000000D03*
X212350000Y-86550000D03*
X137650000Y-63000000D03*
X218700000Y-102800000D03*
X131150000Y-90950000D03*
%TO.N,+3.3V*%
X224100000Y-105000000D03*
X225350000Y-104600000D03*
X216650000Y-74400000D03*
X141100000Y-53650000D03*
%TO.N,Net-(U3-DCDC_OUT)*%
X119850000Y-56695000D03*
X120000000Y-54000000D03*
D24*
%TO.N,/AC_N*%
X120050000Y-66800000D03*
D25*
X115400000Y-53450000D03*
D27*
X100800000Y-81250000D03*
X101650000Y-65200000D03*
X99950000Y-61850000D03*
X104150000Y-81950000D03*
D25*
X113200000Y-62100000D03*
D26*
%TO.N,/AC_Path/V_DIV*%
X119500000Y-60550000D03*
X119600000Y-62750000D03*
D24*
%TO.N,/SDO_A*%
X220400000Y-79200000D03*
X222141942Y-79641942D03*
%TO.N,/CS*%
X216534467Y-85206893D03*
X205900000Y-76250000D03*
X218000000Y-83150000D03*
X206050000Y-85150000D03*
%TO.N,/SDO_B*%
X222750000Y-78500000D03*
X220850000Y-77750000D03*
%TO.N,/SCLK*%
X207700000Y-73200000D03*
X207700000Y-76800000D03*
D25*
%TO.N,/DIAG*%
X225500000Y-79425000D03*
D24*
X133850000Y-55450000D03*
D25*
X225500000Y-77150000D03*
D24*
X137200000Y-55500000D03*
%TO.N,Net-(U1-OUTB)*%
X157650000Y-83300000D03*
X157650000Y-80100000D03*
%TO.N,Net-(U1-+INA)*%
X152200000Y-80800000D03*
X153650000Y-80200000D03*
%TO.N,/Vref_5v*%
X177250000Y-87850000D03*
X177500000Y-86575000D03*
%TD*%
%TA.AperFunction,Conductor*%
%TO.N,+5V*%
G36*
X134968235Y-51215040D02*
G01*
X135035118Y-51235247D01*
X135080459Y-51288407D01*
X135089862Y-51357641D01*
X135060342Y-51420968D01*
X135001270Y-51458282D01*
X134999403Y-51458799D01*
X134906814Y-51483608D01*
X134906812Y-51483608D01*
X134906812Y-51483609D01*
X134792686Y-51549500D01*
X134792683Y-51549502D01*
X134699502Y-51642683D01*
X134699500Y-51642686D01*
X134633608Y-51756812D01*
X134599500Y-51884108D01*
X134599500Y-52015891D01*
X134633608Y-52143187D01*
X134666554Y-52200250D01*
X134699500Y-52257314D01*
X134792686Y-52350500D01*
X134906814Y-52416392D01*
X135034108Y-52450500D01*
X135034110Y-52450500D01*
X135165890Y-52450500D01*
X135165892Y-52450500D01*
X135293186Y-52416392D01*
X135407314Y-52350500D01*
X135500500Y-52257314D01*
X135566392Y-52143186D01*
X135600500Y-52015892D01*
X135600500Y-51884108D01*
X135566392Y-51756814D01*
X135500500Y-51642686D01*
X135407314Y-51549500D01*
X135293186Y-51483608D01*
X135208611Y-51460946D01*
X135148952Y-51424582D01*
X135118423Y-51361735D01*
X135126718Y-51292359D01*
X135171203Y-51238481D01*
X135237755Y-51217207D01*
X135241652Y-51217176D01*
X136392925Y-51226170D01*
X136459807Y-51246377D01*
X136505148Y-51299537D01*
X136515926Y-51347471D01*
X136663310Y-58127111D01*
X136663309Y-58127111D01*
X138196222Y-58155498D01*
X214841917Y-59574862D01*
X214908577Y-59595785D01*
X214953347Y-59649427D01*
X214963618Y-59698525D01*
X215013310Y-79227111D01*
X219776054Y-78966648D01*
X219844063Y-78982641D01*
X219892633Y-79032868D01*
X219906338Y-79101380D01*
X219902596Y-79122550D01*
X219899500Y-79134103D01*
X219899500Y-79265891D01*
X219933608Y-79393187D01*
X219965691Y-79448756D01*
X219999500Y-79507314D01*
X220092686Y-79600500D01*
X220206814Y-79666392D01*
X220334108Y-79700500D01*
X220334110Y-79700500D01*
X220465890Y-79700500D01*
X220465892Y-79700500D01*
X220593186Y-79666392D01*
X220707314Y-79600500D01*
X220800500Y-79507314D01*
X220866392Y-79393186D01*
X220900500Y-79265892D01*
X220900500Y-79134108D01*
X220879578Y-79056025D01*
X220881241Y-78986177D01*
X220920404Y-78928315D01*
X220984632Y-78900811D01*
X220992564Y-78900120D01*
X221286522Y-78884044D01*
X221354534Y-78900038D01*
X221403104Y-78950265D01*
X221417232Y-79004029D01*
X222355276Y-109356454D01*
X222337672Y-109424069D01*
X222286306Y-109471433D01*
X222217488Y-109483508D01*
X222153066Y-109456461D01*
X222121068Y-109413499D01*
X222120456Y-109413853D01*
X222117434Y-109408620D01*
X222116771Y-109407729D01*
X222116392Y-109406814D01*
X222105837Y-109388533D01*
X222050500Y-109292686D01*
X221957314Y-109199500D01*
X221900250Y-109166554D01*
X221843187Y-109133608D01*
X221779539Y-109116554D01*
X221715892Y-109099500D01*
X221584108Y-109099500D01*
X221456812Y-109133608D01*
X221342686Y-109199500D01*
X221342683Y-109199502D01*
X221249502Y-109292683D01*
X221249500Y-109292686D01*
X221183608Y-109406812D01*
X221163058Y-109483508D01*
X221149500Y-109534108D01*
X221149500Y-109665892D01*
X221165030Y-109723853D01*
X221183608Y-109793187D01*
X221206286Y-109832465D01*
X221249500Y-109907314D01*
X221342686Y-110000500D01*
X221456814Y-110066392D01*
X221584108Y-110100500D01*
X221584110Y-110100500D01*
X221715890Y-110100500D01*
X221715892Y-110100500D01*
X221843186Y-110066392D01*
X221957314Y-110000500D01*
X222050500Y-109907314D01*
X222116392Y-109793186D01*
X222124945Y-109761265D01*
X222161307Y-109701606D01*
X222224154Y-109671075D01*
X222293529Y-109679369D01*
X222347408Y-109723853D01*
X222368660Y-109789528D01*
X222809419Y-124051223D01*
X222791815Y-124118838D01*
X222740449Y-124166202D01*
X222687376Y-124179038D01*
X207479664Y-124411852D01*
X207412331Y-124393196D01*
X207365773Y-124341099D01*
X207354772Y-124272101D01*
X207382821Y-124208108D01*
X207392426Y-124198613D01*
X207392235Y-124198422D01*
X207494111Y-124096545D01*
X207494114Y-124096542D01*
X207570775Y-123981811D01*
X207623580Y-123854328D01*
X207650500Y-123718993D01*
X207650500Y-123581007D01*
X207650500Y-123581004D01*
X207623581Y-123445677D01*
X207623580Y-123445676D01*
X207623580Y-123445672D01*
X207623578Y-123445667D01*
X207570778Y-123318195D01*
X207570771Y-123318182D01*
X207494114Y-123203458D01*
X207494111Y-123203454D01*
X207396545Y-123105888D01*
X207396541Y-123105885D01*
X207281817Y-123029228D01*
X207281804Y-123029221D01*
X207154332Y-122976421D01*
X207154322Y-122976418D01*
X207018995Y-122949500D01*
X207018993Y-122949500D01*
X206881007Y-122949500D01*
X206881005Y-122949500D01*
X206745677Y-122976418D01*
X206745667Y-122976421D01*
X206618195Y-123029221D01*
X206618182Y-123029228D01*
X206503458Y-123105885D01*
X206503454Y-123105888D01*
X206405888Y-123203454D01*
X206405885Y-123203458D01*
X206329228Y-123318182D01*
X206329221Y-123318195D01*
X206276421Y-123445667D01*
X206276418Y-123445677D01*
X206249500Y-123581004D01*
X206249500Y-123581007D01*
X206249500Y-123718993D01*
X206249500Y-123718995D01*
X206249499Y-123718995D01*
X206276418Y-123854322D01*
X206276421Y-123854332D01*
X206329221Y-123981804D01*
X206329228Y-123981817D01*
X206405885Y-124096541D01*
X206405888Y-124096545D01*
X206503454Y-124194111D01*
X206503458Y-124194114D01*
X206513145Y-124200587D01*
X206557950Y-124254199D01*
X206566657Y-124323524D01*
X206536503Y-124386552D01*
X206477059Y-124423271D01*
X206446152Y-124427674D01*
X184749950Y-124759818D01*
X184682617Y-124741162D01*
X184636059Y-124689065D01*
X184626435Y-124660027D01*
X184623580Y-124645672D01*
X184623578Y-124645667D01*
X184570778Y-124518195D01*
X184570771Y-124518182D01*
X184494114Y-124403458D01*
X184494111Y-124403454D01*
X184396545Y-124305888D01*
X184396541Y-124305885D01*
X184281817Y-124229228D01*
X184281804Y-124229221D01*
X184154332Y-124176421D01*
X184154322Y-124176418D01*
X184018995Y-124149500D01*
X184018993Y-124149500D01*
X183881007Y-124149500D01*
X183881005Y-124149500D01*
X183745677Y-124176418D01*
X183745667Y-124176421D01*
X183618195Y-124229221D01*
X183618182Y-124229228D01*
X183503458Y-124305885D01*
X183503454Y-124305888D01*
X183405888Y-124403454D01*
X183405885Y-124403458D01*
X183329228Y-124518182D01*
X183329221Y-124518195D01*
X183276421Y-124645667D01*
X183276418Y-124645677D01*
X183268689Y-124684535D01*
X183236304Y-124746446D01*
X183175588Y-124781020D01*
X183148970Y-124784328D01*
X132147807Y-125565100D01*
X132145625Y-125565115D01*
X131484733Y-125563603D01*
X131417739Y-125543765D01*
X131372105Y-125490856D01*
X131361034Y-125441689D01*
X131274160Y-120270943D01*
X137299500Y-120270943D01*
X137299500Y-120429056D01*
X137340423Y-120581783D01*
X137340426Y-120581790D01*
X137419475Y-120718709D01*
X137419479Y-120718714D01*
X137419480Y-120718716D01*
X137531284Y-120830520D01*
X137531286Y-120830521D01*
X137531290Y-120830524D01*
X137668209Y-120909573D01*
X137668216Y-120909577D01*
X137820943Y-120950500D01*
X137820945Y-120950500D01*
X137979055Y-120950500D01*
X137979057Y-120950500D01*
X138131784Y-120909577D01*
X138268716Y-120830520D01*
X138380520Y-120718716D01*
X138459577Y-120581784D01*
X138500500Y-120429057D01*
X138500500Y-120270943D01*
X138459577Y-120118216D01*
X138459573Y-120118209D01*
X138380524Y-119981290D01*
X138380518Y-119981282D01*
X138268717Y-119869481D01*
X138268709Y-119869475D01*
X138131790Y-119790426D01*
X138131786Y-119790424D01*
X138131784Y-119790423D01*
X137979057Y-119749500D01*
X137820943Y-119749500D01*
X137668216Y-119790423D01*
X137668209Y-119790426D01*
X137531290Y-119869475D01*
X137531282Y-119869481D01*
X137419481Y-119981282D01*
X137419475Y-119981290D01*
X137340426Y-120118209D01*
X137340423Y-120118216D01*
X137299500Y-120270943D01*
X131274160Y-120270943D01*
X131227131Y-117471798D01*
X135749500Y-117471798D01*
X135749500Y-118503201D01*
X135752401Y-118540067D01*
X135752402Y-118540073D01*
X135798254Y-118697893D01*
X135798255Y-118697896D01*
X135881917Y-118839362D01*
X135881923Y-118839370D01*
X135998129Y-118955576D01*
X135998133Y-118955579D01*
X135998135Y-118955581D01*
X136139602Y-119039244D01*
X136181224Y-119051336D01*
X136297426Y-119085097D01*
X136297429Y-119085097D01*
X136297431Y-119085098D01*
X136334306Y-119088000D01*
X136334314Y-119088000D01*
X139365686Y-119088000D01*
X139365694Y-119088000D01*
X139402569Y-119085098D01*
X139402571Y-119085097D01*
X139402573Y-119085097D01*
X139444191Y-119073005D01*
X139560398Y-119039244D01*
X139701865Y-118955581D01*
X139818081Y-118839365D01*
X139901744Y-118697898D01*
X139947598Y-118540069D01*
X139950500Y-118503194D01*
X139950500Y-117471806D01*
X139947598Y-117434931D01*
X139901744Y-117277102D01*
X139818081Y-117135635D01*
X139818079Y-117135633D01*
X139818076Y-117135629D01*
X139701870Y-117019423D01*
X139701862Y-117019417D01*
X139560396Y-116935755D01*
X139560393Y-116935754D01*
X139402573Y-116889902D01*
X139402567Y-116889901D01*
X139365701Y-116887000D01*
X139365694Y-116887000D01*
X136334306Y-116887000D01*
X136334298Y-116887000D01*
X136297432Y-116889901D01*
X136297426Y-116889902D01*
X136139606Y-116935754D01*
X136139603Y-116935755D01*
X135998137Y-117019417D01*
X135998129Y-117019423D01*
X135881923Y-117135629D01*
X135881917Y-117135637D01*
X135798255Y-117277103D01*
X135798254Y-117277106D01*
X135752402Y-117434926D01*
X135752401Y-117434932D01*
X135749500Y-117471798D01*
X131227131Y-117471798D01*
X131156567Y-113271798D01*
X141449500Y-113271798D01*
X141449500Y-116303201D01*
X141452401Y-116340067D01*
X141452402Y-116340073D01*
X141498254Y-116497893D01*
X141498255Y-116497896D01*
X141581917Y-116639362D01*
X141581923Y-116639370D01*
X141698129Y-116755576D01*
X141698133Y-116755579D01*
X141698135Y-116755581D01*
X141839602Y-116839244D01*
X141881224Y-116851336D01*
X141997426Y-116885097D01*
X141997429Y-116885097D01*
X141997431Y-116885098D01*
X142034306Y-116888000D01*
X142034314Y-116888000D01*
X143065686Y-116888000D01*
X143065694Y-116888000D01*
X143102569Y-116885098D01*
X143102571Y-116885097D01*
X143102573Y-116885097D01*
X143144191Y-116873005D01*
X143260398Y-116839244D01*
X143401865Y-116755581D01*
X143518081Y-116639365D01*
X143601744Y-116497898D01*
X143647598Y-116340069D01*
X143650500Y-116303194D01*
X143650500Y-115692747D01*
X162862000Y-115692747D01*
X162862000Y-118207252D01*
X162873631Y-118265729D01*
X162873632Y-118265730D01*
X162917947Y-118332052D01*
X162984269Y-118376367D01*
X162984270Y-118376368D01*
X163042747Y-118387999D01*
X163042750Y-118388000D01*
X163042752Y-118388000D01*
X165557250Y-118388000D01*
X165557251Y-118387999D01*
X165572068Y-118385052D01*
X165615729Y-118376368D01*
X165615729Y-118376367D01*
X165615731Y-118376367D01*
X165682052Y-118332052D01*
X165726367Y-118265731D01*
X165726367Y-118265729D01*
X165726368Y-118265729D01*
X165737999Y-118207252D01*
X165738000Y-118207250D01*
X165738000Y-116836821D01*
X167462000Y-116836821D01*
X167462000Y-117063178D01*
X167497407Y-117286733D01*
X167567354Y-117502005D01*
X167670112Y-117703676D01*
X167803155Y-117886794D01*
X167963206Y-118046845D01*
X168146324Y-118179888D01*
X168200021Y-118207248D01*
X168347994Y-118282645D01*
X168347996Y-118282645D01*
X168347999Y-118282647D01*
X168463388Y-118320139D01*
X168563266Y-118352592D01*
X168786822Y-118388000D01*
X168786827Y-118388000D01*
X169013178Y-118388000D01*
X169236733Y-118352592D01*
X169299948Y-118332052D01*
X169452001Y-118282647D01*
X169653676Y-118179888D01*
X169836794Y-118046845D01*
X169996845Y-117886794D01*
X170129888Y-117703676D01*
X170232647Y-117502001D01*
X170302592Y-117286733D01*
X170304117Y-117277102D01*
X170338000Y-117063178D01*
X170338000Y-116836821D01*
X170302592Y-116613266D01*
X170232645Y-116397994D01*
X170129887Y-116196323D01*
X169996845Y-116013206D01*
X169836794Y-115853155D01*
X169653676Y-115720112D01*
X169452005Y-115617354D01*
X169236733Y-115547407D01*
X169013178Y-115512000D01*
X169013173Y-115512000D01*
X168786827Y-115512000D01*
X168786822Y-115512000D01*
X168563266Y-115547407D01*
X168347994Y-115617354D01*
X168146323Y-115720112D01*
X167963203Y-115853157D01*
X167803157Y-116013203D01*
X167670112Y-116196323D01*
X167567354Y-116397994D01*
X167497407Y-116613266D01*
X167462000Y-116836821D01*
X165738000Y-116836821D01*
X165738000Y-115692749D01*
X165737999Y-115692747D01*
X165726368Y-115634270D01*
X165726367Y-115634269D01*
X165682052Y-115567947D01*
X165615730Y-115523632D01*
X165615729Y-115523631D01*
X165557252Y-115512000D01*
X165557248Y-115512000D01*
X163042752Y-115512000D01*
X163042747Y-115512000D01*
X162984270Y-115523631D01*
X162984269Y-115523632D01*
X162917947Y-115567947D01*
X162873632Y-115634269D01*
X162873631Y-115634270D01*
X162862000Y-115692747D01*
X143650500Y-115692747D01*
X143650500Y-113271806D01*
X143647598Y-113234931D01*
X143601744Y-113077102D01*
X143518081Y-112935635D01*
X143518079Y-112935633D01*
X143518076Y-112935629D01*
X143401870Y-112819423D01*
X143401862Y-112819417D01*
X143260396Y-112735755D01*
X143260393Y-112735754D01*
X143102573Y-112689902D01*
X143102567Y-112689901D01*
X143065701Y-112687000D01*
X143065694Y-112687000D01*
X142034306Y-112687000D01*
X142034298Y-112687000D01*
X141997432Y-112689901D01*
X141997426Y-112689902D01*
X141839606Y-112735754D01*
X141839603Y-112735755D01*
X141698137Y-112819417D01*
X141698129Y-112819423D01*
X141581923Y-112935629D01*
X141581917Y-112935637D01*
X141498255Y-113077103D01*
X141498254Y-113077106D01*
X141452402Y-113234926D01*
X141452401Y-113234932D01*
X141449500Y-113271798D01*
X131156567Y-113271798D01*
X131122965Y-111271798D01*
X135749500Y-111271798D01*
X135749500Y-112303201D01*
X135752401Y-112340067D01*
X135752402Y-112340073D01*
X135798254Y-112497893D01*
X135798255Y-112497896D01*
X135881917Y-112639362D01*
X135881923Y-112639370D01*
X135998129Y-112755576D01*
X135998133Y-112755579D01*
X135998135Y-112755581D01*
X136139602Y-112839244D01*
X136181224Y-112851336D01*
X136297426Y-112885097D01*
X136297429Y-112885097D01*
X136297431Y-112885098D01*
X136334306Y-112888000D01*
X136334314Y-112888000D01*
X139365686Y-112888000D01*
X139365694Y-112888000D01*
X139402569Y-112885098D01*
X139402571Y-112885097D01*
X139402573Y-112885097D01*
X139498201Y-112857314D01*
X139560398Y-112839244D01*
X139701865Y-112755581D01*
X139818081Y-112639365D01*
X139901744Y-112497898D01*
X139905750Y-112484108D01*
X176699500Y-112484108D01*
X176699500Y-112615891D01*
X176733608Y-112743187D01*
X176766554Y-112800250D01*
X176799500Y-112857314D01*
X176892686Y-112950500D01*
X177006814Y-113016392D01*
X177134108Y-113050500D01*
X177134110Y-113050500D01*
X177265890Y-113050500D01*
X177265892Y-113050500D01*
X177393186Y-113016392D01*
X177507314Y-112950500D01*
X177600500Y-112857314D01*
X177666392Y-112743186D01*
X177700500Y-112615892D01*
X177700500Y-112484108D01*
X177666392Y-112356814D01*
X177600500Y-112242686D01*
X177507314Y-112149500D01*
X177450250Y-112116554D01*
X177393187Y-112083608D01*
X177329539Y-112066554D01*
X177265892Y-112049500D01*
X177134108Y-112049500D01*
X177006812Y-112083608D01*
X176892686Y-112149500D01*
X176892683Y-112149502D01*
X176799502Y-112242683D01*
X176799500Y-112242686D01*
X176733608Y-112356812D01*
X176699500Y-112484108D01*
X139905750Y-112484108D01*
X139908873Y-112473359D01*
X139918163Y-112441386D01*
X139947597Y-112340073D01*
X139947598Y-112340067D01*
X139950499Y-112303201D01*
X139950500Y-112303194D01*
X139950500Y-111271806D01*
X139947598Y-111234931D01*
X139937594Y-111200498D01*
X139901745Y-111077106D01*
X139901744Y-111077103D01*
X139901744Y-111077102D01*
X139818081Y-110935635D01*
X139818079Y-110935633D01*
X139818076Y-110935629D01*
X139701870Y-110819423D01*
X139701862Y-110819417D01*
X139560396Y-110735755D01*
X139560393Y-110735754D01*
X139402573Y-110689902D01*
X139402567Y-110689901D01*
X139365701Y-110687000D01*
X139365694Y-110687000D01*
X136334306Y-110687000D01*
X136334298Y-110687000D01*
X136297432Y-110689901D01*
X136297426Y-110689902D01*
X136139606Y-110735754D01*
X136139603Y-110735755D01*
X135998137Y-110819417D01*
X135998129Y-110819423D01*
X135881923Y-110935629D01*
X135881917Y-110935637D01*
X135798255Y-111077103D01*
X135798254Y-111077106D01*
X135752402Y-111234926D01*
X135752401Y-111234932D01*
X135749500Y-111271798D01*
X131122965Y-111271798D01*
X131091324Y-109388549D01*
X149849500Y-109388549D01*
X149849500Y-109611450D01*
X149849501Y-109611466D01*
X149878594Y-109832452D01*
X149878595Y-109832457D01*
X149878596Y-109832463D01*
X149923621Y-110000499D01*
X149936290Y-110047780D01*
X149936293Y-110047790D01*
X150021593Y-110253722D01*
X150021595Y-110253726D01*
X150133052Y-110446774D01*
X150133057Y-110446780D01*
X150133058Y-110446782D01*
X150268751Y-110623622D01*
X150268757Y-110623629D01*
X150426370Y-110781242D01*
X150426376Y-110781247D01*
X150603226Y-110916948D01*
X150796274Y-111028405D01*
X151002219Y-111113710D01*
X151217537Y-111171404D01*
X151438543Y-111200500D01*
X151438550Y-111200500D01*
X151661450Y-111200500D01*
X151661457Y-111200500D01*
X151882463Y-111171404D01*
X152097781Y-111113710D01*
X152303726Y-111028405D01*
X152496774Y-110916948D01*
X152673624Y-110781247D01*
X152831247Y-110623624D01*
X152966948Y-110446774D01*
X153078405Y-110253726D01*
X153163710Y-110047781D01*
X153221404Y-109832463D01*
X153250500Y-109611457D01*
X153250500Y-109388543D01*
X153221404Y-109167537D01*
X153199049Y-109084108D01*
X177149500Y-109084108D01*
X177149500Y-109215891D01*
X177183608Y-109343187D01*
X177191268Y-109356454D01*
X177249500Y-109457314D01*
X177342686Y-109550500D01*
X177456814Y-109616392D01*
X177584108Y-109650500D01*
X177584110Y-109650500D01*
X177715890Y-109650500D01*
X177715892Y-109650500D01*
X177843186Y-109616392D01*
X177957314Y-109550500D01*
X178050500Y-109457314D01*
X178116392Y-109343186D01*
X178150500Y-109215892D01*
X178150500Y-109084108D01*
X178116392Y-108956814D01*
X178050500Y-108842686D01*
X177957314Y-108749500D01*
X177872444Y-108700500D01*
X177843187Y-108683608D01*
X177779539Y-108666554D01*
X177715892Y-108649500D01*
X177584108Y-108649500D01*
X177456812Y-108683608D01*
X177342686Y-108749500D01*
X177342683Y-108749502D01*
X177249502Y-108842683D01*
X177249500Y-108842686D01*
X177183608Y-108956812D01*
X177149500Y-109084108D01*
X153199049Y-109084108D01*
X153163710Y-108952219D01*
X153078405Y-108746274D01*
X152966948Y-108553226D01*
X152831247Y-108376376D01*
X152831242Y-108376370D01*
X152673629Y-108218757D01*
X152673622Y-108218751D01*
X152496782Y-108083058D01*
X152496780Y-108083056D01*
X152496774Y-108083052D01*
X152496769Y-108083049D01*
X152496766Y-108083047D01*
X152472427Y-108068995D01*
X210099499Y-108068995D01*
X210126418Y-108204322D01*
X210126421Y-108204332D01*
X210179221Y-108331804D01*
X210179228Y-108331817D01*
X210255885Y-108446541D01*
X210255888Y-108446545D01*
X210353454Y-108544111D01*
X210353458Y-108544114D01*
X210468182Y-108620771D01*
X210468195Y-108620778D01*
X210595667Y-108673578D01*
X210595672Y-108673580D01*
X210595676Y-108673580D01*
X210595677Y-108673581D01*
X210731004Y-108700500D01*
X210731007Y-108700500D01*
X210868995Y-108700500D01*
X210960041Y-108682389D01*
X211004328Y-108673580D01*
X211131811Y-108620775D01*
X211246542Y-108544114D01*
X211344114Y-108446542D01*
X211420775Y-108331811D01*
X211473580Y-108204328D01*
X211482389Y-108160041D01*
X211500500Y-108068995D01*
X211500500Y-107931004D01*
X211473581Y-107795677D01*
X211473580Y-107795676D01*
X211473580Y-107795672D01*
X211434159Y-107700500D01*
X211420778Y-107668195D01*
X211420771Y-107668182D01*
X211344114Y-107553458D01*
X211344111Y-107553454D01*
X211246545Y-107455888D01*
X211246541Y-107455885D01*
X211131817Y-107379228D01*
X211131804Y-107379221D01*
X211004332Y-107326421D01*
X211004322Y-107326418D01*
X210868995Y-107299500D01*
X210868993Y-107299500D01*
X210731007Y-107299500D01*
X210731005Y-107299500D01*
X210595677Y-107326418D01*
X210595667Y-107326421D01*
X210468195Y-107379221D01*
X210468182Y-107379228D01*
X210353458Y-107455885D01*
X210353454Y-107455888D01*
X210255888Y-107553454D01*
X210255885Y-107553458D01*
X210179228Y-107668182D01*
X210179221Y-107668195D01*
X210126421Y-107795667D01*
X210126418Y-107795677D01*
X210099500Y-107931004D01*
X210099500Y-107931007D01*
X210099500Y-108068993D01*
X210099500Y-108068995D01*
X210099499Y-108068995D01*
X152472427Y-108068995D01*
X152408873Y-108032302D01*
X152303726Y-107971595D01*
X152303722Y-107971593D01*
X152097790Y-107886293D01*
X152097783Y-107886291D01*
X152097781Y-107886290D01*
X151882463Y-107828596D01*
X151882457Y-107828595D01*
X151882452Y-107828594D01*
X151661466Y-107799501D01*
X151661463Y-107799500D01*
X151661457Y-107799500D01*
X151438543Y-107799500D01*
X151438537Y-107799500D01*
X151438533Y-107799501D01*
X151217547Y-107828594D01*
X151217540Y-107828595D01*
X151217537Y-107828596D01*
X151002219Y-107886290D01*
X151002209Y-107886293D01*
X150796277Y-107971593D01*
X150796273Y-107971595D01*
X150603226Y-108083052D01*
X150603217Y-108083058D01*
X150426377Y-108218751D01*
X150426370Y-108218757D01*
X150268757Y-108376370D01*
X150268751Y-108376377D01*
X150133058Y-108553217D01*
X150133052Y-108553226D01*
X150021595Y-108746273D01*
X150021593Y-108746277D01*
X149936293Y-108952209D01*
X149936290Y-108952219D01*
X149896827Y-109099500D01*
X149878597Y-109167534D01*
X149878594Y-109167547D01*
X149849501Y-109388533D01*
X149849500Y-109388549D01*
X131091324Y-109388549D01*
X131045633Y-106668995D01*
X163599499Y-106668995D01*
X163626418Y-106804322D01*
X163626421Y-106804332D01*
X163679221Y-106931804D01*
X163679228Y-106931817D01*
X163755885Y-107046541D01*
X163755888Y-107046545D01*
X163853454Y-107144111D01*
X163853458Y-107144114D01*
X163968182Y-107220771D01*
X163968195Y-107220778D01*
X164077109Y-107265891D01*
X164095672Y-107273580D01*
X164095676Y-107273580D01*
X164095677Y-107273581D01*
X164231004Y-107300500D01*
X164231007Y-107300500D01*
X164368995Y-107300500D01*
X164460041Y-107282389D01*
X164504328Y-107273580D01*
X164631811Y-107220775D01*
X164746542Y-107144114D01*
X164756548Y-107134108D01*
X202999500Y-107134108D01*
X202999500Y-107265892D01*
X203001560Y-107273580D01*
X203033608Y-107393187D01*
X203066554Y-107450250D01*
X203099500Y-107507314D01*
X203192686Y-107600500D01*
X203306814Y-107666392D01*
X203434108Y-107700500D01*
X203434110Y-107700500D01*
X203565890Y-107700500D01*
X203565892Y-107700500D01*
X203693186Y-107666392D01*
X203807314Y-107600500D01*
X203900500Y-107507314D01*
X203966392Y-107393186D01*
X204000500Y-107265892D01*
X204000500Y-107134108D01*
X203966392Y-107006814D01*
X203900500Y-106892686D01*
X203807314Y-106799500D01*
X203750250Y-106766554D01*
X203693187Y-106733608D01*
X203629539Y-106716554D01*
X203565892Y-106699500D01*
X203434108Y-106699500D01*
X203306812Y-106733608D01*
X203192686Y-106799500D01*
X203192683Y-106799502D01*
X203099502Y-106892683D01*
X203099500Y-106892686D01*
X203033608Y-107006812D01*
X203022962Y-107046545D01*
X202999500Y-107134108D01*
X164756548Y-107134108D01*
X164844114Y-107046542D01*
X164920775Y-106931811D01*
X164973580Y-106804328D01*
X165000500Y-106668993D01*
X165000500Y-106531007D01*
X165000500Y-106531004D01*
X164973581Y-106395677D01*
X164973580Y-106395676D01*
X164973580Y-106395672D01*
X164973578Y-106395667D01*
X164920778Y-106268195D01*
X164920771Y-106268182D01*
X164844114Y-106153458D01*
X164844111Y-106153454D01*
X164746545Y-106055888D01*
X164746541Y-106055885D01*
X164631817Y-105979228D01*
X164631804Y-105979221D01*
X164504332Y-105926421D01*
X164504322Y-105926418D01*
X164368995Y-105899500D01*
X164368993Y-105899500D01*
X164231007Y-105899500D01*
X164231005Y-105899500D01*
X164095677Y-105926418D01*
X164095667Y-105926421D01*
X163968195Y-105979221D01*
X163968182Y-105979228D01*
X163853458Y-106055885D01*
X163853454Y-106055888D01*
X163755888Y-106153454D01*
X163755885Y-106153458D01*
X163679228Y-106268182D01*
X163679221Y-106268195D01*
X163626421Y-106395667D01*
X163626418Y-106395677D01*
X163599500Y-106531004D01*
X163599500Y-106531007D01*
X163599500Y-106668993D01*
X163599500Y-106668995D01*
X163599499Y-106668995D01*
X131045633Y-106668995D01*
X131026344Y-105520943D01*
X200499500Y-105520943D01*
X200499500Y-105679056D01*
X200540423Y-105831783D01*
X200540426Y-105831790D01*
X200619475Y-105968709D01*
X200619479Y-105968714D01*
X200619480Y-105968716D01*
X200731284Y-106080520D01*
X200731286Y-106080521D01*
X200731290Y-106080524D01*
X200857617Y-106153458D01*
X200868216Y-106159577D01*
X201020943Y-106200500D01*
X201020945Y-106200500D01*
X201179055Y-106200500D01*
X201179057Y-106200500D01*
X201331784Y-106159577D01*
X201468716Y-106080520D01*
X201580520Y-105968716D01*
X201659577Y-105831784D01*
X201700500Y-105679057D01*
X201700500Y-105520943D01*
X204899500Y-105520943D01*
X204899500Y-105679056D01*
X204940423Y-105831783D01*
X204940426Y-105831790D01*
X205019475Y-105968709D01*
X205019479Y-105968714D01*
X205019480Y-105968716D01*
X205131284Y-106080520D01*
X205131286Y-106080521D01*
X205131290Y-106080524D01*
X205257617Y-106153458D01*
X205268216Y-106159577D01*
X205420943Y-106200500D01*
X205420945Y-106200500D01*
X205579055Y-106200500D01*
X205579057Y-106200500D01*
X205731784Y-106159577D01*
X205868716Y-106080520D01*
X205980520Y-105968716D01*
X206059577Y-105831784D01*
X206100500Y-105679057D01*
X206100500Y-105520943D01*
X206059577Y-105368216D01*
X206042141Y-105338015D01*
X205980524Y-105231290D01*
X205980518Y-105231282D01*
X205868717Y-105119481D01*
X205868709Y-105119475D01*
X205731790Y-105040426D01*
X205731786Y-105040424D01*
X205731784Y-105040423D01*
X205579057Y-104999500D01*
X205420943Y-104999500D01*
X205268216Y-105040423D01*
X205268209Y-105040426D01*
X205131290Y-105119475D01*
X205131282Y-105119481D01*
X205019481Y-105231282D01*
X205019475Y-105231290D01*
X204940426Y-105368209D01*
X204940423Y-105368216D01*
X204899500Y-105520943D01*
X201700500Y-105520943D01*
X201659577Y-105368216D01*
X201642141Y-105338015D01*
X201580524Y-105231290D01*
X201580518Y-105231282D01*
X201468717Y-105119481D01*
X201468709Y-105119475D01*
X201331790Y-105040426D01*
X201331786Y-105040424D01*
X201331784Y-105040423D01*
X201179057Y-104999500D01*
X201020943Y-104999500D01*
X200868216Y-105040423D01*
X200868209Y-105040426D01*
X200731290Y-105119475D01*
X200731282Y-105119481D01*
X200619481Y-105231282D01*
X200619475Y-105231290D01*
X200540426Y-105368209D01*
X200540423Y-105368216D01*
X200499500Y-105520943D01*
X131026344Y-105520943D01*
X131003773Y-104177525D01*
X214999500Y-104177525D01*
X214999500Y-104322475D01*
X215033537Y-104449500D01*
X215037017Y-104462488D01*
X215109488Y-104588011D01*
X215109490Y-104588013D01*
X215109491Y-104588015D01*
X215211985Y-104690509D01*
X215211986Y-104690510D01*
X215211988Y-104690511D01*
X215337511Y-104762982D01*
X215337512Y-104762982D01*
X215337515Y-104762984D01*
X215477525Y-104800500D01*
X215477528Y-104800500D01*
X215622472Y-104800500D01*
X215622475Y-104800500D01*
X215762485Y-104762984D01*
X215888015Y-104690509D01*
X215990509Y-104588015D01*
X216062984Y-104462485D01*
X216100500Y-104322475D01*
X216100500Y-104177525D01*
X216062984Y-104037515D01*
X215990509Y-103911985D01*
X215888015Y-103809491D01*
X215888013Y-103809490D01*
X215888011Y-103809488D01*
X215762488Y-103737017D01*
X215762489Y-103737017D01*
X215751006Y-103733940D01*
X215622475Y-103699500D01*
X215477525Y-103699500D01*
X215348993Y-103733940D01*
X215337511Y-103737017D01*
X215211988Y-103809488D01*
X215211982Y-103809493D01*
X215109493Y-103911982D01*
X215109488Y-103911988D01*
X215037017Y-104037511D01*
X215037016Y-104037515D01*
X214999500Y-104177525D01*
X131003773Y-104177525D01*
X130909798Y-98584108D01*
X131299500Y-98584108D01*
X131299500Y-98715892D01*
X131316554Y-98779539D01*
X131333608Y-98843187D01*
X131361611Y-98891689D01*
X131399500Y-98957314D01*
X131492686Y-99050500D01*
X131606814Y-99116392D01*
X131734108Y-99150500D01*
X131734110Y-99150500D01*
X131865890Y-99150500D01*
X131865892Y-99150500D01*
X131993186Y-99116392D01*
X132107314Y-99050500D01*
X132200500Y-98957314D01*
X132266392Y-98843186D01*
X132300500Y-98715892D01*
X132300500Y-98584108D01*
X132269632Y-98468905D01*
X206100000Y-98468905D01*
X206100000Y-98731094D01*
X206134220Y-98991009D01*
X206134222Y-98991020D01*
X206202075Y-99244255D01*
X206302404Y-99486471D01*
X206302409Y-99486482D01*
X206433488Y-99713516D01*
X206433494Y-99713524D01*
X206520080Y-99826365D01*
X207237425Y-99109019D01*
X207323249Y-99237463D01*
X207462537Y-99376751D01*
X207590978Y-99462573D01*
X206873633Y-100179917D01*
X206873633Y-100179918D01*
X206986475Y-100266505D01*
X206986483Y-100266511D01*
X207213517Y-100397590D01*
X207213528Y-100397595D01*
X207455744Y-100497924D01*
X207708979Y-100565777D01*
X207708990Y-100565779D01*
X207968905Y-100599999D01*
X207968920Y-100600000D01*
X208231080Y-100600000D01*
X208231094Y-100599999D01*
X208491009Y-100565779D01*
X208491020Y-100565777D01*
X208744255Y-100497924D01*
X208986471Y-100397595D01*
X208986482Y-100397590D01*
X209213516Y-100266511D01*
X209213534Y-100266499D01*
X209326365Y-100179919D01*
X209326365Y-100179917D01*
X208609020Y-99462573D01*
X208737463Y-99376751D01*
X208876751Y-99237463D01*
X208962573Y-99109021D01*
X209679917Y-99826365D01*
X209679919Y-99826365D01*
X209766499Y-99713534D01*
X209766511Y-99713516D01*
X209897590Y-99486482D01*
X209897595Y-99486471D01*
X209997924Y-99244255D01*
X210065777Y-98991020D01*
X210065779Y-98991009D01*
X210099999Y-98731094D01*
X210100000Y-98731080D01*
X210100000Y-98468919D01*
X210099999Y-98468905D01*
X210065779Y-98208990D01*
X210065777Y-98208979D01*
X209997924Y-97955744D01*
X209897595Y-97713528D01*
X209897590Y-97713517D01*
X209766511Y-97486483D01*
X209766505Y-97486475D01*
X209679918Y-97373633D01*
X209679917Y-97373633D01*
X208962572Y-98090977D01*
X208876751Y-97962537D01*
X208737463Y-97823249D01*
X208609019Y-97737425D01*
X209326365Y-97020080D01*
X209213524Y-96933494D01*
X209213516Y-96933488D01*
X208986482Y-96802409D01*
X208986471Y-96802404D01*
X208744255Y-96702075D01*
X208491020Y-96634222D01*
X208491009Y-96634220D01*
X208231094Y-96600000D01*
X207968905Y-96600000D01*
X207708990Y-96634220D01*
X207708979Y-96634222D01*
X207455744Y-96702075D01*
X207213528Y-96802404D01*
X207213517Y-96802409D01*
X206986471Y-96933496D01*
X206873633Y-97020079D01*
X206873633Y-97020080D01*
X207590979Y-97737426D01*
X207462537Y-97823249D01*
X207323249Y-97962537D01*
X207237426Y-98090979D01*
X206520080Y-97373633D01*
X206520079Y-97373633D01*
X206433496Y-97486471D01*
X206302409Y-97713517D01*
X206302404Y-97713528D01*
X206202075Y-97955744D01*
X206134222Y-98208979D01*
X206134220Y-98208990D01*
X206100000Y-98468905D01*
X132269632Y-98468905D01*
X132266392Y-98456814D01*
X132200500Y-98342686D01*
X132107314Y-98249500D01*
X132037130Y-98208979D01*
X131993187Y-98183608D01*
X131929539Y-98166554D01*
X131865892Y-98149500D01*
X131734108Y-98149500D01*
X131606812Y-98183608D01*
X131492686Y-98249500D01*
X131492683Y-98249502D01*
X131399502Y-98342683D01*
X131399500Y-98342686D01*
X131333608Y-98456812D01*
X131322854Y-98496947D01*
X131299500Y-98584108D01*
X130909798Y-98584108D01*
X130877581Y-96666525D01*
X178754500Y-96666525D01*
X178754500Y-96811475D01*
X178787196Y-96933496D01*
X178792017Y-96951488D01*
X178864488Y-97077011D01*
X178864490Y-97077013D01*
X178864491Y-97077015D01*
X178966985Y-97179509D01*
X178966986Y-97179510D01*
X178966988Y-97179511D01*
X179092511Y-97251982D01*
X179092512Y-97251982D01*
X179092515Y-97251984D01*
X179232525Y-97289500D01*
X179232528Y-97289500D01*
X179377472Y-97289500D01*
X179377475Y-97289500D01*
X179517485Y-97251984D01*
X179643015Y-97179509D01*
X179745509Y-97077015D01*
X179817984Y-96951485D01*
X179855500Y-96811475D01*
X179855500Y-96666525D01*
X179817984Y-96526515D01*
X179754725Y-96416948D01*
X179745511Y-96400988D01*
X179745506Y-96400982D01*
X179643017Y-96298493D01*
X179643011Y-96298488D01*
X179517488Y-96226017D01*
X179517489Y-96226017D01*
X179506006Y-96222940D01*
X179377475Y-96188500D01*
X179232525Y-96188500D01*
X179103993Y-96222940D01*
X179092511Y-96226017D01*
X178966988Y-96298488D01*
X178966982Y-96298493D01*
X178864493Y-96400982D01*
X178864488Y-96400988D01*
X178792017Y-96526511D01*
X178792016Y-96526515D01*
X178754500Y-96666525D01*
X130877581Y-96666525D01*
X130847709Y-94888549D01*
X189549500Y-94888549D01*
X189549500Y-95111450D01*
X189549501Y-95111466D01*
X189578594Y-95332452D01*
X189578595Y-95332457D01*
X189578596Y-95332463D01*
X189578597Y-95332465D01*
X189636290Y-95547780D01*
X189636293Y-95547790D01*
X189721593Y-95753722D01*
X189721595Y-95753726D01*
X189833052Y-95946774D01*
X189833057Y-95946780D01*
X189833058Y-95946782D01*
X189968751Y-96123622D01*
X189968757Y-96123629D01*
X190126370Y-96281242D01*
X190126377Y-96281248D01*
X190252294Y-96377867D01*
X190303226Y-96416948D01*
X190496274Y-96528405D01*
X190702219Y-96613710D01*
X190917537Y-96671404D01*
X191138543Y-96700500D01*
X191138550Y-96700500D01*
X191361450Y-96700500D01*
X191361457Y-96700500D01*
X191582463Y-96671404D01*
X191797781Y-96613710D01*
X192003726Y-96528405D01*
X192196774Y-96416948D01*
X192373624Y-96281247D01*
X192531247Y-96123624D01*
X192666948Y-95946774D01*
X192778405Y-95753726D01*
X192863710Y-95547781D01*
X192921404Y-95332463D01*
X192950500Y-95111457D01*
X192950500Y-94888543D01*
X192921404Y-94667537D01*
X192863710Y-94452219D01*
X192778405Y-94246274D01*
X192666948Y-94053226D01*
X192531247Y-93876376D01*
X192531242Y-93876370D01*
X192373629Y-93718757D01*
X192373622Y-93718751D01*
X192196782Y-93583058D01*
X192196780Y-93583057D01*
X192196774Y-93583052D01*
X192003726Y-93471595D01*
X192003722Y-93471593D01*
X191797790Y-93386293D01*
X191797783Y-93386291D01*
X191797781Y-93386290D01*
X191582463Y-93328596D01*
X191582457Y-93328595D01*
X191582452Y-93328594D01*
X191361466Y-93299501D01*
X191361463Y-93299500D01*
X191361457Y-93299500D01*
X191138543Y-93299500D01*
X191138537Y-93299500D01*
X191138533Y-93299501D01*
X190917547Y-93328594D01*
X190917540Y-93328595D01*
X190917537Y-93328596D01*
X190702219Y-93386290D01*
X190702209Y-93386293D01*
X190496277Y-93471593D01*
X190496273Y-93471595D01*
X190303226Y-93583052D01*
X190303217Y-93583058D01*
X190126377Y-93718751D01*
X190126370Y-93718757D01*
X189968757Y-93876370D01*
X189968751Y-93876377D01*
X189833058Y-94053217D01*
X189833052Y-94053226D01*
X189721595Y-94246273D01*
X189721593Y-94246277D01*
X189636293Y-94452209D01*
X189636290Y-94452219D01*
X189578597Y-94667534D01*
X189578594Y-94667547D01*
X189549501Y-94888533D01*
X189549500Y-94888549D01*
X130847709Y-94888549D01*
X130808152Y-92534108D01*
X134249500Y-92534108D01*
X134249500Y-92665891D01*
X134283608Y-92793187D01*
X134316554Y-92850250D01*
X134349500Y-92907314D01*
X134442686Y-93000500D01*
X134556814Y-93066392D01*
X134684108Y-93100500D01*
X134684110Y-93100500D01*
X134815890Y-93100500D01*
X134815892Y-93100500D01*
X134943186Y-93066392D01*
X135057314Y-93000500D01*
X135150500Y-92907314D01*
X135216392Y-92793186D01*
X135250500Y-92665892D01*
X135250500Y-92534108D01*
X135216392Y-92406814D01*
X135150500Y-92292686D01*
X135057314Y-92199500D01*
X135000250Y-92166554D01*
X134943187Y-92133608D01*
X134879539Y-92116554D01*
X134815892Y-92099500D01*
X134684108Y-92099500D01*
X134556812Y-92133608D01*
X134442686Y-92199500D01*
X134442683Y-92199502D01*
X134349502Y-92292683D01*
X134349500Y-92292686D01*
X134283608Y-92406812D01*
X134249500Y-92534108D01*
X130808152Y-92534108D01*
X130775095Y-90566525D01*
X181804500Y-90566525D01*
X181804500Y-90711475D01*
X181842016Y-90851485D01*
X181842017Y-90851488D01*
X181914488Y-90977011D01*
X181914490Y-90977013D01*
X181914491Y-90977015D01*
X182016985Y-91079509D01*
X182016986Y-91079510D01*
X182016988Y-91079511D01*
X182142511Y-91151982D01*
X182142512Y-91151982D01*
X182142515Y-91151984D01*
X182282525Y-91189500D01*
X182282528Y-91189500D01*
X182427472Y-91189500D01*
X182427475Y-91189500D01*
X182567485Y-91151984D01*
X182693015Y-91079509D01*
X182795509Y-90977015D01*
X182867984Y-90851485D01*
X182905500Y-90711475D01*
X182905500Y-90566525D01*
X182867984Y-90426515D01*
X182795509Y-90300985D01*
X182693015Y-90198491D01*
X182693013Y-90198490D01*
X182693011Y-90198488D01*
X182567488Y-90126017D01*
X182567489Y-90126017D01*
X182556006Y-90122940D01*
X182427475Y-90088500D01*
X182282525Y-90088500D01*
X182153993Y-90122940D01*
X182142511Y-90126017D01*
X182016988Y-90198488D01*
X182016982Y-90198493D01*
X181914493Y-90300982D01*
X181914488Y-90300988D01*
X181842017Y-90426511D01*
X181842016Y-90426515D01*
X181804500Y-90566525D01*
X130775095Y-90566525D01*
X130728347Y-87784108D01*
X176749500Y-87784108D01*
X176749500Y-87915891D01*
X176783608Y-88043187D01*
X176816554Y-88100250D01*
X176849500Y-88157314D01*
X176942686Y-88250500D01*
X177056814Y-88316392D01*
X177184108Y-88350500D01*
X177184110Y-88350500D01*
X177315890Y-88350500D01*
X177315892Y-88350500D01*
X177443186Y-88316392D01*
X177557314Y-88250500D01*
X177650500Y-88157314D01*
X177716392Y-88043186D01*
X177750500Y-87915892D01*
X177750500Y-87784108D01*
X177716392Y-87656814D01*
X177650500Y-87542686D01*
X177557314Y-87449500D01*
X177500250Y-87416554D01*
X177443187Y-87383608D01*
X177379539Y-87366554D01*
X177315892Y-87349500D01*
X177184108Y-87349500D01*
X177056812Y-87383608D01*
X176942686Y-87449500D01*
X176942683Y-87449502D01*
X176849502Y-87542683D01*
X176849500Y-87542686D01*
X176783608Y-87656812D01*
X176749500Y-87784108D01*
X130728347Y-87784108D01*
X130693979Y-85738549D01*
X137949500Y-85738549D01*
X137949500Y-85961450D01*
X137949501Y-85961466D01*
X137978594Y-86182452D01*
X137978595Y-86182457D01*
X137978596Y-86182463D01*
X138032011Y-86381812D01*
X138036290Y-86397780D01*
X138036293Y-86397790D01*
X138121593Y-86603722D01*
X138121595Y-86603726D01*
X138233052Y-86796774D01*
X138233057Y-86796780D01*
X138233058Y-86796782D01*
X138368751Y-86973622D01*
X138368757Y-86973629D01*
X138526370Y-87131242D01*
X138526376Y-87131247D01*
X138703226Y-87266948D01*
X138896274Y-87378405D01*
X139102219Y-87463710D01*
X139317537Y-87521404D01*
X139538543Y-87550500D01*
X139538550Y-87550500D01*
X139761450Y-87550500D01*
X139761457Y-87550500D01*
X139982463Y-87521404D01*
X140197781Y-87463710D01*
X140403726Y-87378405D01*
X140596774Y-87266948D01*
X140773624Y-87131247D01*
X140931247Y-86973624D01*
X141066948Y-86796774D01*
X141178405Y-86603726D01*
X141217597Y-86509108D01*
X176999500Y-86509108D01*
X176999500Y-86640891D01*
X177033608Y-86768187D01*
X177050113Y-86796774D01*
X177099500Y-86882314D01*
X177192686Y-86975500D01*
X177306814Y-87041392D01*
X177434108Y-87075500D01*
X177434110Y-87075500D01*
X177565890Y-87075500D01*
X177565892Y-87075500D01*
X177693186Y-87041392D01*
X177807314Y-86975500D01*
X177900500Y-86882314D01*
X177966392Y-86768186D01*
X178000500Y-86640892D01*
X178000500Y-86509108D01*
X177966392Y-86381814D01*
X177900500Y-86267686D01*
X177807314Y-86174500D01*
X177746691Y-86139499D01*
X177693187Y-86108608D01*
X177629539Y-86091554D01*
X177565892Y-86074500D01*
X177434108Y-86074500D01*
X177306812Y-86108608D01*
X177192686Y-86174500D01*
X177192683Y-86174502D01*
X177099502Y-86267683D01*
X177099500Y-86267686D01*
X177033608Y-86381812D01*
X176999500Y-86509108D01*
X141217597Y-86509108D01*
X141263710Y-86397781D01*
X141321404Y-86182463D01*
X141350500Y-85961457D01*
X141350500Y-85738543D01*
X141328720Y-85573108D01*
X181404500Y-85573108D01*
X181404500Y-85704892D01*
X181405170Y-85707392D01*
X181438608Y-85832187D01*
X181471554Y-85889250D01*
X181504500Y-85946314D01*
X181597686Y-86039500D01*
X181711814Y-86105392D01*
X181839108Y-86139500D01*
X181839110Y-86139500D01*
X181970890Y-86139500D01*
X181970892Y-86139500D01*
X182098186Y-86105392D01*
X182212314Y-86039500D01*
X182305500Y-85946314D01*
X182371392Y-85832186D01*
X182386038Y-85777525D01*
X193349500Y-85777525D01*
X193349500Y-85922475D01*
X193380857Y-86039499D01*
X193387017Y-86062488D01*
X193459488Y-86188011D01*
X193459490Y-86188013D01*
X193459491Y-86188015D01*
X193561985Y-86290509D01*
X193561986Y-86290510D01*
X193561988Y-86290511D01*
X193687511Y-86362982D01*
X193687512Y-86362982D01*
X193687515Y-86362984D01*
X193827525Y-86400500D01*
X193827528Y-86400500D01*
X193972472Y-86400500D01*
X193972475Y-86400500D01*
X194112485Y-86362984D01*
X194238015Y-86290509D01*
X194340509Y-86188015D01*
X194412984Y-86062485D01*
X194450500Y-85922475D01*
X194450500Y-85777525D01*
X194412984Y-85637515D01*
X194395592Y-85607392D01*
X194340511Y-85511988D01*
X194340506Y-85511982D01*
X194238017Y-85409493D01*
X194238011Y-85409488D01*
X194112488Y-85337017D01*
X194112489Y-85337017D01*
X194092582Y-85331683D01*
X193972475Y-85299500D01*
X193827525Y-85299500D01*
X193707418Y-85331683D01*
X193687511Y-85337017D01*
X193561988Y-85409488D01*
X193561982Y-85409493D01*
X193459493Y-85511982D01*
X193459488Y-85511988D01*
X193387017Y-85637511D01*
X193387016Y-85637515D01*
X193349500Y-85777525D01*
X182386038Y-85777525D01*
X182405500Y-85704892D01*
X182405500Y-85573108D01*
X182371392Y-85445814D01*
X182305500Y-85331686D01*
X182212314Y-85238500D01*
X182116823Y-85183368D01*
X182116821Y-85183366D01*
X182098189Y-85172609D01*
X182098186Y-85172608D01*
X181970892Y-85138500D01*
X181839108Y-85138500D01*
X181711812Y-85172608D01*
X181597686Y-85238500D01*
X181597683Y-85238502D01*
X181504502Y-85331683D01*
X181504500Y-85331686D01*
X181438608Y-85445812D01*
X181410558Y-85550499D01*
X181404500Y-85573108D01*
X141328720Y-85573108D01*
X141321404Y-85517537D01*
X141263710Y-85302219D01*
X141178405Y-85096274D01*
X141171381Y-85084108D01*
X205549500Y-85084108D01*
X205549500Y-85215891D01*
X205583608Y-85343187D01*
X205591766Y-85357316D01*
X205649500Y-85457314D01*
X205742686Y-85550500D01*
X205856814Y-85616392D01*
X205984108Y-85650500D01*
X205984110Y-85650500D01*
X206115890Y-85650500D01*
X206115892Y-85650500D01*
X206243186Y-85616392D01*
X206357314Y-85550500D01*
X206450500Y-85457314D01*
X206516392Y-85343186D01*
X206550500Y-85215892D01*
X206550500Y-85084108D01*
X206523705Y-84984108D01*
X215249500Y-84984108D01*
X215249500Y-85115892D01*
X215264697Y-85172608D01*
X215283608Y-85243187D01*
X215300696Y-85272783D01*
X215349500Y-85357314D01*
X215442686Y-85450500D01*
X215516882Y-85493337D01*
X215556810Y-85516390D01*
X215556814Y-85516392D01*
X215684108Y-85550500D01*
X215684110Y-85550500D01*
X215815890Y-85550500D01*
X215815892Y-85550500D01*
X215943186Y-85516392D01*
X215983119Y-85493336D01*
X216051017Y-85476862D01*
X216117044Y-85499713D01*
X216132801Y-85513041D01*
X216133966Y-85514206D01*
X216133967Y-85514207D01*
X216227153Y-85607393D01*
X216341281Y-85673285D01*
X216468575Y-85707393D01*
X216468577Y-85707393D01*
X216600357Y-85707393D01*
X216600359Y-85707393D01*
X216727653Y-85673285D01*
X216841781Y-85607393D01*
X216934967Y-85514207D01*
X217000859Y-85400079D01*
X217034967Y-85272785D01*
X217034967Y-85141001D01*
X217000859Y-85013707D01*
X216934967Y-84899579D01*
X216841781Y-84806393D01*
X216767587Y-84763557D01*
X216727654Y-84740501D01*
X216664006Y-84723447D01*
X216600359Y-84706393D01*
X216468575Y-84706393D01*
X216341281Y-84740501D01*
X216341280Y-84740501D01*
X216341278Y-84740502D01*
X216341277Y-84740502D01*
X216301346Y-84763557D01*
X216233446Y-84780030D01*
X216167419Y-84757178D01*
X216151665Y-84743851D01*
X216057316Y-84649502D01*
X216057314Y-84649500D01*
X216000250Y-84616554D01*
X215943187Y-84583608D01*
X215879539Y-84566554D01*
X215815892Y-84549500D01*
X215684108Y-84549500D01*
X215556812Y-84583608D01*
X215442686Y-84649500D01*
X215442683Y-84649502D01*
X215349502Y-84742683D01*
X215349500Y-84742686D01*
X215283608Y-84856812D01*
X215272150Y-84899576D01*
X215249500Y-84984108D01*
X206523705Y-84984108D01*
X206516392Y-84956814D01*
X206450500Y-84842686D01*
X206357314Y-84749500D01*
X206282651Y-84706393D01*
X206243187Y-84683608D01*
X206179539Y-84666554D01*
X206115892Y-84649500D01*
X205984108Y-84649500D01*
X205856812Y-84683608D01*
X205742686Y-84749500D01*
X205742683Y-84749502D01*
X205649502Y-84842683D01*
X205649500Y-84842686D01*
X205583608Y-84956812D01*
X205549500Y-85084108D01*
X141171381Y-85084108D01*
X141066948Y-84903226D01*
X141020492Y-84842683D01*
X140931248Y-84726377D01*
X140931242Y-84726370D01*
X140773629Y-84568757D01*
X140773622Y-84568751D01*
X140596782Y-84433058D01*
X140596780Y-84433057D01*
X140596774Y-84433052D01*
X140403726Y-84321595D01*
X140403722Y-84321593D01*
X140197790Y-84236293D01*
X140197783Y-84236291D01*
X140197781Y-84236290D01*
X139982463Y-84178596D01*
X139982457Y-84178595D01*
X139982452Y-84178594D01*
X139761466Y-84149501D01*
X139761463Y-84149500D01*
X139761457Y-84149500D01*
X139538543Y-84149500D01*
X139538537Y-84149500D01*
X139538533Y-84149501D01*
X139317547Y-84178594D01*
X139317540Y-84178595D01*
X139317537Y-84178596D01*
X139102219Y-84236290D01*
X139102209Y-84236293D01*
X138896277Y-84321593D01*
X138896273Y-84321595D01*
X138703226Y-84433052D01*
X138703217Y-84433058D01*
X138526377Y-84568751D01*
X138526370Y-84568757D01*
X138368757Y-84726370D01*
X138368751Y-84726377D01*
X138233058Y-84903217D01*
X138233052Y-84903226D01*
X138121595Y-85096273D01*
X138121593Y-85096277D01*
X138036293Y-85302209D01*
X138036290Y-85302219D01*
X137978904Y-85516390D01*
X137978597Y-85517534D01*
X137978594Y-85517547D01*
X137949501Y-85738533D01*
X137949500Y-85738549D01*
X130693979Y-85738549D01*
X130651902Y-83234108D01*
X157149500Y-83234108D01*
X157149500Y-83365891D01*
X157183608Y-83493187D01*
X157216554Y-83550250D01*
X157249500Y-83607314D01*
X157342686Y-83700500D01*
X157456814Y-83766392D01*
X157584108Y-83800500D01*
X157584110Y-83800500D01*
X157715890Y-83800500D01*
X157715892Y-83800500D01*
X157843186Y-83766392D01*
X157957314Y-83700500D01*
X158050500Y-83607314D01*
X158116392Y-83493186D01*
X158150500Y-83365892D01*
X158150500Y-83277525D01*
X172549500Y-83277525D01*
X172549500Y-83422475D01*
X172583805Y-83550500D01*
X172587017Y-83562488D01*
X172659488Y-83688011D01*
X172659490Y-83688013D01*
X172659491Y-83688015D01*
X172761985Y-83790509D01*
X172761986Y-83790510D01*
X172761988Y-83790511D01*
X172887511Y-83862982D01*
X172887512Y-83862982D01*
X172887515Y-83862984D01*
X173027525Y-83900500D01*
X173027528Y-83900500D01*
X173172472Y-83900500D01*
X173172475Y-83900500D01*
X173312485Y-83862984D01*
X173438015Y-83790509D01*
X173540509Y-83688015D01*
X173612984Y-83562485D01*
X173650500Y-83422475D01*
X173650500Y-83277525D01*
X173612984Y-83137515D01*
X173582149Y-83084108D01*
X217499500Y-83084108D01*
X217499500Y-83215892D01*
X217516014Y-83277525D01*
X217533608Y-83343187D01*
X217546717Y-83365892D01*
X217599500Y-83457314D01*
X217692686Y-83550500D01*
X217806814Y-83616392D01*
X217934108Y-83650500D01*
X217934110Y-83650500D01*
X218065890Y-83650500D01*
X218065892Y-83650500D01*
X218193186Y-83616392D01*
X218307314Y-83550500D01*
X218400500Y-83457314D01*
X218466392Y-83343186D01*
X218500500Y-83215892D01*
X218500500Y-83084108D01*
X218466392Y-82956814D01*
X218400500Y-82842686D01*
X218307314Y-82749500D01*
X218244063Y-82712982D01*
X218193187Y-82683608D01*
X218129539Y-82666554D01*
X218065892Y-82649500D01*
X217934108Y-82649500D01*
X217806812Y-82683608D01*
X217692686Y-82749500D01*
X217692683Y-82749502D01*
X217599502Y-82842683D01*
X217599500Y-82842686D01*
X217533608Y-82956812D01*
X217523997Y-82992683D01*
X217499500Y-83084108D01*
X173582149Y-83084108D01*
X173540509Y-83011985D01*
X173438015Y-82909491D01*
X173438013Y-82909490D01*
X173438011Y-82909488D01*
X173312488Y-82837017D01*
X173312489Y-82837017D01*
X173299766Y-82833608D01*
X173172475Y-82799500D01*
X173027525Y-82799500D01*
X172900234Y-82833608D01*
X172887511Y-82837017D01*
X172761988Y-82909488D01*
X172761982Y-82909493D01*
X172659493Y-83011982D01*
X172659488Y-83011988D01*
X172587017Y-83137511D01*
X172587016Y-83137515D01*
X172549500Y-83277525D01*
X158150500Y-83277525D01*
X158150500Y-83234108D01*
X158116392Y-83106814D01*
X158050500Y-82992686D01*
X157957314Y-82899500D01*
X157858910Y-82842686D01*
X157843187Y-82833608D01*
X157779539Y-82816554D01*
X157715892Y-82799500D01*
X157584108Y-82799500D01*
X157456812Y-82833608D01*
X157342686Y-82899500D01*
X157342683Y-82899502D01*
X157249502Y-82992683D01*
X157249500Y-82992686D01*
X157183608Y-83106812D01*
X157149500Y-83234108D01*
X130651902Y-83234108D01*
X130633310Y-82127525D01*
X148499500Y-82127525D01*
X148499500Y-82272475D01*
X148537016Y-82412485D01*
X148537017Y-82412488D01*
X148609488Y-82538011D01*
X148609490Y-82538013D01*
X148609491Y-82538015D01*
X148711985Y-82640509D01*
X148711986Y-82640510D01*
X148711988Y-82640511D01*
X148837511Y-82712982D01*
X148837512Y-82712982D01*
X148837515Y-82712984D01*
X148977525Y-82750500D01*
X148977528Y-82750500D01*
X149122472Y-82750500D01*
X149122475Y-82750500D01*
X149262485Y-82712984D01*
X149388015Y-82640509D01*
X149490509Y-82538015D01*
X149562984Y-82412485D01*
X149600500Y-82272475D01*
X149600500Y-82127525D01*
X149562984Y-81987515D01*
X149490509Y-81861985D01*
X149388015Y-81759491D01*
X149388013Y-81759490D01*
X149388011Y-81759488D01*
X149262488Y-81687017D01*
X149262489Y-81687017D01*
X149251006Y-81683940D01*
X149122475Y-81649500D01*
X148977525Y-81649500D01*
X148848993Y-81683940D01*
X148837511Y-81687017D01*
X148711988Y-81759488D01*
X148711982Y-81759493D01*
X148609493Y-81861982D01*
X148609488Y-81861988D01*
X148537017Y-81987511D01*
X148537016Y-81987515D01*
X148499500Y-82127525D01*
X130633310Y-82127525D01*
X130609899Y-80734108D01*
X151699500Y-80734108D01*
X151699500Y-80865891D01*
X151733608Y-80993187D01*
X151766554Y-81050250D01*
X151799500Y-81107314D01*
X151892686Y-81200500D01*
X152006814Y-81266392D01*
X152134108Y-81300500D01*
X152134110Y-81300500D01*
X152265890Y-81300500D01*
X152265892Y-81300500D01*
X152393186Y-81266392D01*
X152507314Y-81200500D01*
X152600500Y-81107314D01*
X152666392Y-80993186D01*
X152700500Y-80865892D01*
X152700500Y-80734108D01*
X152666392Y-80606814D01*
X152600500Y-80492686D01*
X152507314Y-80399500D01*
X152450250Y-80366554D01*
X152393187Y-80333608D01*
X152329539Y-80316554D01*
X152265892Y-80299500D01*
X152134108Y-80299500D01*
X152006812Y-80333608D01*
X151892686Y-80399500D01*
X151892683Y-80399502D01*
X151799502Y-80492683D01*
X151799500Y-80492686D01*
X151733608Y-80606812D01*
X151699500Y-80734108D01*
X130609899Y-80734108D01*
X130599818Y-80134108D01*
X153149500Y-80134108D01*
X153149500Y-80265891D01*
X153183608Y-80393187D01*
X153191766Y-80407316D01*
X153249500Y-80507314D01*
X153342686Y-80600500D01*
X153456814Y-80666392D01*
X153584108Y-80700500D01*
X153584110Y-80700500D01*
X153715890Y-80700500D01*
X153715892Y-80700500D01*
X153843186Y-80666392D01*
X153957314Y-80600500D01*
X154050500Y-80507314D01*
X154116392Y-80393186D01*
X154150500Y-80265892D01*
X154150500Y-80134108D01*
X154123705Y-80034108D01*
X157149500Y-80034108D01*
X157149500Y-80165891D01*
X157183608Y-80293187D01*
X157187253Y-80299500D01*
X157249500Y-80407314D01*
X157342686Y-80500500D01*
X157456814Y-80566392D01*
X157584108Y-80600500D01*
X157584110Y-80600500D01*
X157715890Y-80600500D01*
X157715892Y-80600500D01*
X157843186Y-80566392D01*
X157957314Y-80500500D01*
X158050500Y-80407314D01*
X158116392Y-80293186D01*
X158150500Y-80165892D01*
X158150500Y-80034108D01*
X158116392Y-79906814D01*
X158050500Y-79792686D01*
X157957314Y-79699500D01*
X157899968Y-79666391D01*
X157843187Y-79633608D01*
X157779539Y-79616554D01*
X157715892Y-79599500D01*
X157584108Y-79599500D01*
X157456812Y-79633608D01*
X157342686Y-79699500D01*
X157342683Y-79699502D01*
X157249502Y-79792683D01*
X157249500Y-79792686D01*
X157183608Y-79906812D01*
X157149500Y-80034108D01*
X154123705Y-80034108D01*
X154116392Y-80006814D01*
X154050500Y-79892686D01*
X153957314Y-79799500D01*
X153900250Y-79766554D01*
X153843187Y-79733608D01*
X153746995Y-79707834D01*
X153715892Y-79699500D01*
X153584108Y-79699500D01*
X153456812Y-79733608D01*
X153342686Y-79799500D01*
X153342683Y-79799502D01*
X153249502Y-79892683D01*
X153249500Y-79892686D01*
X153183608Y-80006812D01*
X153149500Y-80134108D01*
X130599818Y-80134108D01*
X130552664Y-77327525D01*
X200349500Y-77327525D01*
X200349500Y-77472475D01*
X200372099Y-77556814D01*
X200387017Y-77612488D01*
X200459488Y-77738011D01*
X200459490Y-77738013D01*
X200459491Y-77738015D01*
X200561985Y-77840509D01*
X200561986Y-77840510D01*
X200561988Y-77840511D01*
X200687511Y-77912982D01*
X200687512Y-77912982D01*
X200687515Y-77912984D01*
X200827525Y-77950500D01*
X200827528Y-77950500D01*
X200972472Y-77950500D01*
X200972475Y-77950500D01*
X201112485Y-77912984D01*
X201238015Y-77840509D01*
X201340509Y-77738015D01*
X201412984Y-77612485D01*
X201450500Y-77472475D01*
X201450500Y-77327525D01*
X201412984Y-77187515D01*
X201340509Y-77061985D01*
X201238015Y-76959491D01*
X201238013Y-76959490D01*
X201238011Y-76959488D01*
X201112488Y-76887017D01*
X201112489Y-76887017D01*
X201101006Y-76883940D01*
X200972475Y-76849500D01*
X200827525Y-76849500D01*
X200698993Y-76883940D01*
X200687511Y-76887017D01*
X200561988Y-76959488D01*
X200561982Y-76959493D01*
X200459493Y-77061982D01*
X200459488Y-77061988D01*
X200387017Y-77187511D01*
X200387016Y-77187515D01*
X200349500Y-77327525D01*
X130552664Y-77327525D01*
X130529983Y-75977525D01*
X158949500Y-75977525D01*
X158949500Y-76122475D01*
X158987016Y-76262485D01*
X158987017Y-76262488D01*
X159059488Y-76388011D01*
X159059490Y-76388013D01*
X159059491Y-76388015D01*
X159161985Y-76490509D01*
X159161986Y-76490510D01*
X159161988Y-76490511D01*
X159287511Y-76562982D01*
X159287512Y-76562982D01*
X159287515Y-76562984D01*
X159427525Y-76600500D01*
X159427528Y-76600500D01*
X159572472Y-76600500D01*
X159572475Y-76600500D01*
X159712485Y-76562984D01*
X159838015Y-76490509D01*
X159940509Y-76388015D01*
X160012984Y-76262485D01*
X160033985Y-76184108D01*
X205399500Y-76184108D01*
X205399500Y-76315891D01*
X205433608Y-76443187D01*
X205460928Y-76490506D01*
X205499500Y-76557314D01*
X205592686Y-76650500D01*
X205706814Y-76716392D01*
X205834108Y-76750500D01*
X205834110Y-76750500D01*
X205965890Y-76750500D01*
X205965892Y-76750500D01*
X206027068Y-76734108D01*
X207199500Y-76734108D01*
X207199500Y-76865892D01*
X207216554Y-76929539D01*
X207233608Y-76993187D01*
X207266554Y-77050250D01*
X207299500Y-77107314D01*
X207392686Y-77200500D01*
X207506814Y-77266392D01*
X207634108Y-77300500D01*
X207634110Y-77300500D01*
X207765890Y-77300500D01*
X207765892Y-77300500D01*
X207893186Y-77266392D01*
X208007314Y-77200500D01*
X208100500Y-77107314D01*
X208166392Y-76993186D01*
X208200500Y-76865892D01*
X208200500Y-76734108D01*
X208166392Y-76606814D01*
X208100500Y-76492686D01*
X208007314Y-76399500D01*
X207922444Y-76350500D01*
X207893187Y-76333608D01*
X207827061Y-76315890D01*
X207765892Y-76299500D01*
X207634108Y-76299500D01*
X207506812Y-76333608D01*
X207392686Y-76399500D01*
X207392683Y-76399502D01*
X207299502Y-76492683D01*
X207299500Y-76492686D01*
X207233608Y-76606812D01*
X207221902Y-76650500D01*
X207199500Y-76734108D01*
X206027068Y-76734108D01*
X206093186Y-76716392D01*
X206207314Y-76650500D01*
X206300500Y-76557314D01*
X206366392Y-76443186D01*
X206400500Y-76315892D01*
X206400500Y-76184108D01*
X206366392Y-76056814D01*
X206353283Y-76034108D01*
X210149500Y-76034108D01*
X210149500Y-76165892D01*
X210166554Y-76229539D01*
X210183608Y-76293187D01*
X210196717Y-76315892D01*
X210249500Y-76407314D01*
X210342686Y-76500500D01*
X210456814Y-76566392D01*
X210584108Y-76600500D01*
X210584110Y-76600500D01*
X210715890Y-76600500D01*
X210715892Y-76600500D01*
X210843186Y-76566392D01*
X210957314Y-76500500D01*
X211050500Y-76407314D01*
X211116392Y-76293186D01*
X211150500Y-76165892D01*
X211150500Y-76034108D01*
X211116392Y-75906814D01*
X211050500Y-75792686D01*
X210957314Y-75699500D01*
X210858910Y-75642686D01*
X210843187Y-75633608D01*
X210779539Y-75616554D01*
X210715892Y-75599500D01*
X210584108Y-75599500D01*
X210456812Y-75633608D01*
X210342686Y-75699500D01*
X210342683Y-75699502D01*
X210249502Y-75792683D01*
X210249500Y-75792686D01*
X210183608Y-75906812D01*
X210154381Y-76015892D01*
X210149500Y-76034108D01*
X206353283Y-76034108D01*
X206300500Y-75942686D01*
X206207314Y-75849500D01*
X206108910Y-75792686D01*
X206093187Y-75783608D01*
X205993188Y-75756814D01*
X205965892Y-75749500D01*
X205834108Y-75749500D01*
X205706812Y-75783608D01*
X205592686Y-75849500D01*
X205592683Y-75849502D01*
X205499502Y-75942683D01*
X205499500Y-75942686D01*
X205433608Y-76056812D01*
X205399500Y-76184108D01*
X160033985Y-76184108D01*
X160050500Y-76122475D01*
X160050500Y-75977525D01*
X160012984Y-75837515D01*
X159962168Y-75749500D01*
X159940511Y-75711988D01*
X159940506Y-75711982D01*
X159838017Y-75609493D01*
X159838011Y-75609488D01*
X159712488Y-75537017D01*
X159712489Y-75537017D01*
X159701006Y-75533940D01*
X159572475Y-75499500D01*
X159427525Y-75499500D01*
X159298993Y-75533940D01*
X159287511Y-75537017D01*
X159161988Y-75609488D01*
X159161982Y-75609493D01*
X159059493Y-75711982D01*
X159059488Y-75711988D01*
X158987017Y-75837511D01*
X158987016Y-75837515D01*
X158949500Y-75977525D01*
X130529983Y-75977525D01*
X130474035Y-72647525D01*
X180499500Y-72647525D01*
X180499500Y-72792475D01*
X180526351Y-72892683D01*
X180537017Y-72932488D01*
X180609488Y-73058011D01*
X180609490Y-73058013D01*
X180609491Y-73058015D01*
X180711985Y-73160509D01*
X180711986Y-73160510D01*
X180711988Y-73160511D01*
X180837511Y-73232982D01*
X180837512Y-73232982D01*
X180837515Y-73232984D01*
X180977525Y-73270500D01*
X180977528Y-73270500D01*
X181122472Y-73270500D01*
X181122475Y-73270500D01*
X181262485Y-73232984D01*
X181388015Y-73160509D01*
X181490509Y-73058015D01*
X181562984Y-72932485D01*
X181600500Y-72792475D01*
X181600500Y-72647525D01*
X181595141Y-72627525D01*
X191149500Y-72627525D01*
X191149500Y-72772475D01*
X191181710Y-72892683D01*
X191187017Y-72912488D01*
X191259488Y-73038011D01*
X191259490Y-73038013D01*
X191259491Y-73038015D01*
X191361985Y-73140509D01*
X191361986Y-73140510D01*
X191361988Y-73140511D01*
X191487511Y-73212982D01*
X191487512Y-73212982D01*
X191487515Y-73212984D01*
X191627525Y-73250500D01*
X191627528Y-73250500D01*
X191772472Y-73250500D01*
X191772475Y-73250500D01*
X191912485Y-73212984D01*
X192038015Y-73140509D01*
X192044416Y-73134108D01*
X207199500Y-73134108D01*
X207199500Y-73265891D01*
X207233608Y-73393187D01*
X207266554Y-73450250D01*
X207299500Y-73507314D01*
X207392686Y-73600500D01*
X207506814Y-73666392D01*
X207634108Y-73700500D01*
X207634110Y-73700500D01*
X207765890Y-73700500D01*
X207765892Y-73700500D01*
X207893186Y-73666392D01*
X208007314Y-73600500D01*
X208100500Y-73507314D01*
X208166392Y-73393186D01*
X208200500Y-73265892D01*
X208200500Y-73134108D01*
X208166392Y-73006814D01*
X208100500Y-72892686D01*
X208007314Y-72799500D01*
X207950250Y-72766554D01*
X207893187Y-72733608D01*
X207829539Y-72716554D01*
X207765892Y-72699500D01*
X207634108Y-72699500D01*
X207506812Y-72733608D01*
X207392686Y-72799500D01*
X207392683Y-72799502D01*
X207299502Y-72892683D01*
X207299500Y-72892686D01*
X207233608Y-73006812D01*
X207199500Y-73134108D01*
X192044416Y-73134108D01*
X192140509Y-73038015D01*
X192212984Y-72912485D01*
X192250500Y-72772475D01*
X192250500Y-72627525D01*
X192212984Y-72487515D01*
X192152054Y-72381982D01*
X192140511Y-72361988D01*
X192140506Y-72361982D01*
X192038017Y-72259493D01*
X192038011Y-72259488D01*
X191912488Y-72187017D01*
X191912489Y-72187017D01*
X191901006Y-72183940D01*
X191772475Y-72149500D01*
X191627525Y-72149500D01*
X191498993Y-72183940D01*
X191487511Y-72187017D01*
X191361988Y-72259488D01*
X191361982Y-72259493D01*
X191259493Y-72361982D01*
X191259488Y-72361988D01*
X191187017Y-72487511D01*
X191187016Y-72487515D01*
X191149500Y-72627525D01*
X181595141Y-72627525D01*
X181562984Y-72507515D01*
X181490509Y-72381985D01*
X181388015Y-72279491D01*
X181388013Y-72279490D01*
X181388011Y-72279488D01*
X181262488Y-72207017D01*
X181262489Y-72207017D01*
X181251006Y-72203940D01*
X181122475Y-72169500D01*
X180977525Y-72169500D01*
X180848993Y-72203940D01*
X180837511Y-72207017D01*
X180711988Y-72279488D01*
X180711982Y-72279493D01*
X180609493Y-72381982D01*
X180609488Y-72381988D01*
X180537017Y-72507511D01*
X180537016Y-72507515D01*
X180499500Y-72647525D01*
X130474035Y-72647525D01*
X130352732Y-65427525D01*
X198099500Y-65427525D01*
X198099500Y-65572475D01*
X198137016Y-65712485D01*
X198137017Y-65712488D01*
X198209488Y-65838011D01*
X198209490Y-65838013D01*
X198209491Y-65838015D01*
X198311985Y-65940509D01*
X198311986Y-65940510D01*
X198311988Y-65940511D01*
X198437511Y-66012982D01*
X198437512Y-66012982D01*
X198437515Y-66012984D01*
X198577525Y-66050500D01*
X198577528Y-66050500D01*
X198722472Y-66050500D01*
X198722475Y-66050500D01*
X198862485Y-66012984D01*
X198988015Y-65940509D01*
X199090509Y-65838015D01*
X199162984Y-65712485D01*
X199200500Y-65572475D01*
X199200500Y-65427525D01*
X199162984Y-65287515D01*
X199090509Y-65161985D01*
X198988015Y-65059491D01*
X198988013Y-65059490D01*
X198988011Y-65059488D01*
X198862488Y-64987017D01*
X198862489Y-64987017D01*
X198851006Y-64983940D01*
X198722475Y-64949500D01*
X198577525Y-64949500D01*
X198448993Y-64983940D01*
X198437511Y-64987017D01*
X198311988Y-65059488D01*
X198311982Y-65059493D01*
X198209493Y-65161982D01*
X198209488Y-65161988D01*
X198137017Y-65287511D01*
X198137016Y-65287515D01*
X198099500Y-65427525D01*
X130352732Y-65427525D01*
X130331001Y-64134108D01*
X130849500Y-64134108D01*
X130849500Y-64265891D01*
X130883608Y-64393187D01*
X130916554Y-64450250D01*
X130949500Y-64507314D01*
X131042686Y-64600500D01*
X131156814Y-64666392D01*
X131284108Y-64700500D01*
X131284110Y-64700500D01*
X131415890Y-64700500D01*
X131415892Y-64700500D01*
X131543186Y-64666392D01*
X131657314Y-64600500D01*
X131750500Y-64507314D01*
X131816392Y-64393186D01*
X131850500Y-64265892D01*
X131850500Y-64134108D01*
X131816392Y-64006814D01*
X131750500Y-63892686D01*
X131657314Y-63799500D01*
X131600250Y-63766554D01*
X131543187Y-63733608D01*
X131479539Y-63716554D01*
X131415892Y-63699500D01*
X131284108Y-63699500D01*
X131156812Y-63733608D01*
X131042686Y-63799500D01*
X131042683Y-63799502D01*
X130949502Y-63892683D01*
X130949500Y-63892686D01*
X130883608Y-64006812D01*
X130849500Y-64134108D01*
X130331001Y-64134108D01*
X130311569Y-62977525D01*
X139299500Y-62977525D01*
X139299500Y-63122475D01*
X139337016Y-63262485D01*
X139337017Y-63262488D01*
X139409488Y-63388011D01*
X139409490Y-63388013D01*
X139409491Y-63388015D01*
X139511985Y-63490509D01*
X139511986Y-63490510D01*
X139511988Y-63490511D01*
X139637511Y-63562982D01*
X139637512Y-63562982D01*
X139637515Y-63562984D01*
X139777525Y-63600500D01*
X139777528Y-63600500D01*
X139922472Y-63600500D01*
X139922475Y-63600500D01*
X140062485Y-63562984D01*
X140188015Y-63490509D01*
X140290509Y-63388015D01*
X140362984Y-63262485D01*
X140400500Y-63122475D01*
X140400500Y-62977525D01*
X140362984Y-62837515D01*
X140290509Y-62711985D01*
X140188015Y-62609491D01*
X140188013Y-62609490D01*
X140188011Y-62609488D01*
X140062488Y-62537017D01*
X140062489Y-62537017D01*
X140051006Y-62533940D01*
X139922475Y-62499500D01*
X139777525Y-62499500D01*
X139648993Y-62533940D01*
X139637511Y-62537017D01*
X139511988Y-62609488D01*
X139511982Y-62609493D01*
X139409493Y-62711982D01*
X139409488Y-62711988D01*
X139337017Y-62837511D01*
X139337016Y-62837515D01*
X139299500Y-62977525D01*
X130311569Y-62977525D01*
X130283192Y-61288549D01*
X186099500Y-61288549D01*
X186099500Y-61511450D01*
X186099501Y-61511466D01*
X186128594Y-61732452D01*
X186128595Y-61732457D01*
X186128596Y-61732463D01*
X186128597Y-61732465D01*
X186186290Y-61947780D01*
X186186293Y-61947790D01*
X186271593Y-62153722D01*
X186271595Y-62153726D01*
X186383052Y-62346774D01*
X186383057Y-62346780D01*
X186383058Y-62346782D01*
X186518751Y-62523622D01*
X186518757Y-62523629D01*
X186676370Y-62681242D01*
X186676377Y-62681248D01*
X186802294Y-62777867D01*
X186853226Y-62816948D01*
X187046274Y-62928405D01*
X187252219Y-63013710D01*
X187467537Y-63071404D01*
X187688543Y-63100500D01*
X187688550Y-63100500D01*
X187911450Y-63100500D01*
X187911457Y-63100500D01*
X188132463Y-63071404D01*
X188347781Y-63013710D01*
X188553726Y-62928405D01*
X188746774Y-62816948D01*
X188923624Y-62681247D01*
X189081247Y-62523624D01*
X189216948Y-62346774D01*
X189328405Y-62153726D01*
X189413710Y-61947781D01*
X189471404Y-61732463D01*
X189500500Y-61511457D01*
X189500500Y-61288543D01*
X189471404Y-61067537D01*
X189413710Y-60852219D01*
X189328405Y-60646274D01*
X189216948Y-60453226D01*
X189081247Y-60276376D01*
X189081242Y-60276370D01*
X188923629Y-60118757D01*
X188923622Y-60118751D01*
X188746782Y-59983058D01*
X188746780Y-59983057D01*
X188746774Y-59983052D01*
X188553726Y-59871595D01*
X188553722Y-59871593D01*
X188347790Y-59786293D01*
X188347783Y-59786291D01*
X188347781Y-59786290D01*
X188132463Y-59728596D01*
X188132457Y-59728595D01*
X188132452Y-59728594D01*
X187911466Y-59699501D01*
X187911463Y-59699500D01*
X187911457Y-59699500D01*
X187688543Y-59699500D01*
X187688537Y-59699500D01*
X187688533Y-59699501D01*
X187467547Y-59728594D01*
X187467540Y-59728595D01*
X187467537Y-59728596D01*
X187252219Y-59786290D01*
X187252209Y-59786293D01*
X187046277Y-59871593D01*
X187046273Y-59871595D01*
X186853226Y-59983052D01*
X186853217Y-59983058D01*
X186676377Y-60118751D01*
X186676370Y-60118757D01*
X186518757Y-60276370D01*
X186518751Y-60276377D01*
X186383058Y-60453217D01*
X186383052Y-60453226D01*
X186271595Y-60646273D01*
X186271593Y-60646277D01*
X186186293Y-60852209D01*
X186186290Y-60852219D01*
X186128597Y-61067534D01*
X186128594Y-61067547D01*
X186099501Y-61288533D01*
X186099500Y-61288549D01*
X130283192Y-61288549D01*
X130178000Y-55027525D01*
X132249500Y-55027525D01*
X132249500Y-55172475D01*
X132287016Y-55312485D01*
X132287017Y-55312488D01*
X132359488Y-55438011D01*
X132359490Y-55438013D01*
X132359491Y-55438015D01*
X132461985Y-55540509D01*
X132461986Y-55540510D01*
X132461988Y-55540511D01*
X132587511Y-55612982D01*
X132587512Y-55612982D01*
X132587515Y-55612984D01*
X132727525Y-55650500D01*
X132727528Y-55650500D01*
X132872472Y-55650500D01*
X132872475Y-55650500D01*
X133012485Y-55612984D01*
X133138015Y-55540509D01*
X133158144Y-55520379D01*
X133219463Y-55486896D01*
X133289154Y-55491879D01*
X133345089Y-55533750D01*
X133365596Y-55575966D01*
X133377845Y-55621680D01*
X133383608Y-55643187D01*
X133412476Y-55693186D01*
X133449500Y-55757314D01*
X133542686Y-55850500D01*
X133656814Y-55916392D01*
X133784108Y-55950500D01*
X133784110Y-55950500D01*
X133915890Y-55950500D01*
X133915892Y-55950500D01*
X134043186Y-55916392D01*
X134157314Y-55850500D01*
X134250500Y-55757314D01*
X134316392Y-55643186D01*
X134350500Y-55515892D01*
X134350500Y-55384108D01*
X134316392Y-55256814D01*
X134250500Y-55142686D01*
X134157314Y-55049500D01*
X134070712Y-54999500D01*
X134043187Y-54983608D01*
X133979539Y-54966554D01*
X133915892Y-54949500D01*
X133784108Y-54949500D01*
X133656812Y-54983608D01*
X133542686Y-55049500D01*
X133536240Y-55054447D01*
X133534263Y-55051870D01*
X133486227Y-55078062D01*
X133416539Y-55073034D01*
X133360631Y-55031128D01*
X133340171Y-54988977D01*
X133312984Y-54887515D01*
X133240509Y-54761985D01*
X133138015Y-54659491D01*
X133138013Y-54659490D01*
X133138011Y-54659488D01*
X133012488Y-54587017D01*
X133012489Y-54587017D01*
X133001006Y-54583940D01*
X132872475Y-54549500D01*
X132727525Y-54549500D01*
X132598993Y-54583940D01*
X132587511Y-54587017D01*
X132461988Y-54659488D01*
X132461982Y-54659493D01*
X132359493Y-54761982D01*
X132359488Y-54761988D01*
X132287017Y-54887511D01*
X132287016Y-54887515D01*
X132249500Y-55027525D01*
X130178000Y-55027525D01*
X130115444Y-51304178D01*
X130134000Y-51236821D01*
X130186028Y-51190186D01*
X130240392Y-51178103D01*
X134968235Y-51215040D01*
G37*
%TD.AperFunction*%
%TD*%
%TA.AperFunction,Conductor*%
%TO.N,+3.3V*%
G36*
X232328040Y-51749360D02*
G01*
X232394975Y-51769396D01*
X232440452Y-51822439D01*
X232451381Y-51871952D01*
X232707276Y-74441821D01*
X232688353Y-74509080D01*
X232636071Y-74555430D01*
X232567030Y-74566157D01*
X232503149Y-74537855D01*
X232473930Y-74501688D01*
X232472202Y-74498457D01*
X232472201Y-74498454D01*
X232363255Y-74335406D01*
X232363252Y-74335402D01*
X232224597Y-74196747D01*
X232224593Y-74196744D01*
X232061543Y-74087797D01*
X231880377Y-74012756D01*
X231880369Y-74012754D01*
X231688052Y-73974500D01*
X231688048Y-73974500D01*
X231491952Y-73974500D01*
X231491947Y-73974500D01*
X231299630Y-74012754D01*
X231299622Y-74012756D01*
X231118456Y-74087797D01*
X230955406Y-74196744D01*
X230955402Y-74196747D01*
X230816747Y-74335402D01*
X230816744Y-74335406D01*
X230707797Y-74498456D01*
X230632756Y-74679622D01*
X230632754Y-74679630D01*
X230594500Y-74871947D01*
X230594500Y-75068052D01*
X230632754Y-75260369D01*
X230632756Y-75260377D01*
X230707797Y-75441543D01*
X230816744Y-75604593D01*
X230816747Y-75604597D01*
X230955402Y-75743252D01*
X230955406Y-75743255D01*
X231118454Y-75852201D01*
X231299623Y-75927244D01*
X231491947Y-75965499D01*
X231491951Y-75965500D01*
X231491952Y-75965500D01*
X231688049Y-75965500D01*
X231688050Y-75965499D01*
X231880377Y-75927244D01*
X232061546Y-75852201D01*
X232224594Y-75743255D01*
X232363255Y-75604594D01*
X232472201Y-75441546D01*
X232480356Y-75421856D01*
X232524193Y-75367455D01*
X232590487Y-75345388D01*
X232658187Y-75362665D01*
X232705799Y-75413801D01*
X232718909Y-75467903D01*
X232736877Y-77052662D01*
X232717954Y-77119921D01*
X232665672Y-77166271D01*
X232596631Y-77176998D01*
X232532750Y-77148696D01*
X232498324Y-77101520D01*
X232472203Y-77038458D01*
X232472202Y-77038456D01*
X232404752Y-76937511D01*
X232363255Y-76875406D01*
X232363252Y-76875402D01*
X232224597Y-76736747D01*
X232224593Y-76736744D01*
X232061543Y-76627797D01*
X231880377Y-76552756D01*
X231880369Y-76552754D01*
X231688052Y-76514500D01*
X231688048Y-76514500D01*
X231491952Y-76514500D01*
X231491947Y-76514500D01*
X231299630Y-76552754D01*
X231299622Y-76552756D01*
X231118456Y-76627797D01*
X230955406Y-76736744D01*
X230955402Y-76736747D01*
X230816747Y-76875402D01*
X230816744Y-76875406D01*
X230707797Y-77038456D01*
X230632756Y-77219622D01*
X230632754Y-77219630D01*
X230594500Y-77411947D01*
X230594500Y-77608052D01*
X230632754Y-77800369D01*
X230632756Y-77800377D01*
X230707797Y-77981543D01*
X230816744Y-78144593D01*
X230816747Y-78144597D01*
X230955402Y-78283252D01*
X230955406Y-78283255D01*
X231118454Y-78392201D01*
X231299623Y-78467244D01*
X231491947Y-78505499D01*
X231491951Y-78505500D01*
X231491952Y-78505500D01*
X231688049Y-78505500D01*
X231688050Y-78505499D01*
X231880377Y-78467244D01*
X232061546Y-78392201D01*
X232224594Y-78283255D01*
X232363255Y-78144594D01*
X232472201Y-77981546D01*
X232508387Y-77894184D01*
X232552227Y-77839781D01*
X232618521Y-77817716D01*
X232686221Y-77834995D01*
X232733832Y-77886132D01*
X232746940Y-77940231D01*
X232766486Y-79664143D01*
X232747563Y-79731401D01*
X232695281Y-79777752D01*
X232626240Y-79788479D01*
X232562359Y-79760177D01*
X232527933Y-79713002D01*
X232472202Y-79578456D01*
X232470594Y-79576050D01*
X232363255Y-79415406D01*
X232363252Y-79415402D01*
X232224597Y-79276747D01*
X232224593Y-79276744D01*
X232061543Y-79167797D01*
X231880377Y-79092756D01*
X231880369Y-79092754D01*
X231688052Y-79054500D01*
X231688048Y-79054500D01*
X231491952Y-79054500D01*
X231491947Y-79054500D01*
X231299630Y-79092754D01*
X231299622Y-79092756D01*
X231118456Y-79167797D01*
X230955406Y-79276744D01*
X230955402Y-79276747D01*
X230816747Y-79415402D01*
X230816744Y-79415406D01*
X230707797Y-79578456D01*
X230632756Y-79759622D01*
X230632754Y-79759630D01*
X230594500Y-79951947D01*
X230594500Y-80148052D01*
X230632754Y-80340369D01*
X230632756Y-80340377D01*
X230707797Y-80521543D01*
X230816744Y-80684593D01*
X230816747Y-80684597D01*
X230955402Y-80823252D01*
X230955406Y-80823255D01*
X231118454Y-80932201D01*
X231299623Y-81007244D01*
X231491947Y-81045499D01*
X231491951Y-81045500D01*
X231491952Y-81045500D01*
X231688049Y-81045500D01*
X231688050Y-81045499D01*
X231880377Y-81007244D01*
X232061546Y-80932201D01*
X232224594Y-80823255D01*
X232363255Y-80684594D01*
X232472201Y-80521546D01*
X232536418Y-80366510D01*
X232580259Y-80312108D01*
X232646553Y-80290043D01*
X232714252Y-80307322D01*
X232761863Y-80358459D01*
X232774971Y-80412558D01*
X232796271Y-82291209D01*
X232777348Y-82358468D01*
X232725066Y-82404818D01*
X232656025Y-82415545D01*
X232592144Y-82387243D01*
X232553706Y-82328896D01*
X232550661Y-82316804D01*
X232547244Y-82299623D01*
X232472201Y-82118454D01*
X232363255Y-81955406D01*
X232363252Y-81955402D01*
X232224597Y-81816747D01*
X232224593Y-81816744D01*
X232061543Y-81707797D01*
X231880377Y-81632756D01*
X231880369Y-81632754D01*
X231688052Y-81594500D01*
X231688048Y-81594500D01*
X231491952Y-81594500D01*
X231491947Y-81594500D01*
X231299630Y-81632754D01*
X231299622Y-81632756D01*
X231118456Y-81707797D01*
X230955406Y-81816744D01*
X230955402Y-81816747D01*
X230816747Y-81955402D01*
X230816744Y-81955406D01*
X230707797Y-82118456D01*
X230632756Y-82299622D01*
X230632754Y-82299630D01*
X230594500Y-82491947D01*
X230594500Y-82688052D01*
X230632754Y-82880369D01*
X230632756Y-82880377D01*
X230707797Y-83061543D01*
X230816744Y-83224593D01*
X230816747Y-83224597D01*
X230955402Y-83363252D01*
X230955406Y-83363255D01*
X231118454Y-83472201D01*
X231299623Y-83547244D01*
X231491947Y-83585499D01*
X231491951Y-83585500D01*
X231491952Y-83585500D01*
X231688049Y-83585500D01*
X231688050Y-83585499D01*
X231880377Y-83547244D01*
X232061546Y-83472201D01*
X232224594Y-83363255D01*
X232363255Y-83224594D01*
X232472201Y-83061546D01*
X232547244Y-82880377D01*
X232557042Y-82831117D01*
X232589426Y-82769209D01*
X232650141Y-82734634D01*
X232719911Y-82738373D01*
X232776583Y-82779239D01*
X232802165Y-82844257D01*
X232802651Y-82853904D01*
X232826810Y-84984741D01*
X232807887Y-85052000D01*
X232755605Y-85098350D01*
X232686564Y-85109077D01*
X232622683Y-85080775D01*
X232584245Y-85022428D01*
X232581201Y-85010338D01*
X232547245Y-84839630D01*
X232547244Y-84839623D01*
X232472201Y-84658454D01*
X232363255Y-84495406D01*
X232363252Y-84495402D01*
X232224597Y-84356747D01*
X232224593Y-84356744D01*
X232061543Y-84247797D01*
X231880377Y-84172756D01*
X231880369Y-84172754D01*
X231688052Y-84134500D01*
X231688048Y-84134500D01*
X231491952Y-84134500D01*
X231491947Y-84134500D01*
X231299630Y-84172754D01*
X231299622Y-84172756D01*
X231118456Y-84247797D01*
X230955406Y-84356744D01*
X230955402Y-84356747D01*
X230816747Y-84495402D01*
X230816744Y-84495406D01*
X230707797Y-84658456D01*
X230632756Y-84839622D01*
X230632754Y-84839630D01*
X230594500Y-85031947D01*
X230594500Y-85228052D01*
X230632754Y-85420369D01*
X230632756Y-85420377D01*
X230707797Y-85601543D01*
X230816744Y-85764593D01*
X230816747Y-85764597D01*
X230955402Y-85903252D01*
X230955406Y-85903255D01*
X231118454Y-86012201D01*
X231299623Y-86087244D01*
X231491947Y-86125499D01*
X231491951Y-86125500D01*
X231491952Y-86125500D01*
X231688049Y-86125500D01*
X231688050Y-86125499D01*
X231880377Y-86087244D01*
X232061546Y-86012201D01*
X232224594Y-85903255D01*
X232363255Y-85764594D01*
X232472201Y-85601546D01*
X232547244Y-85420377D01*
X232584287Y-85234144D01*
X232616671Y-85172235D01*
X232677387Y-85137661D01*
X232747156Y-85141400D01*
X232803828Y-85182266D01*
X232829410Y-85247284D01*
X232829896Y-85256931D01*
X232919660Y-93174094D01*
X232900737Y-93241353D01*
X232848455Y-93287703D01*
X232795668Y-93299500D01*
X231830247Y-93299500D01*
X231771770Y-93311131D01*
X231771769Y-93311132D01*
X231705447Y-93355447D01*
X231661132Y-93421769D01*
X231661131Y-93421770D01*
X231649500Y-93480247D01*
X231649500Y-95219752D01*
X231661131Y-95278229D01*
X231661132Y-95278230D01*
X231705447Y-95344552D01*
X231771769Y-95388867D01*
X231771770Y-95388868D01*
X231830247Y-95400499D01*
X231830250Y-95400500D01*
X232822301Y-95400500D01*
X232889340Y-95420185D01*
X232935095Y-95472989D01*
X232946293Y-95523094D01*
X232948478Y-95715845D01*
X232929555Y-95783104D01*
X232877273Y-95829454D01*
X232809539Y-95839977D01*
X232809528Y-95840097D01*
X232809065Y-95840051D01*
X232808231Y-95840181D01*
X232805059Y-95839656D01*
X232803466Y-95839500D01*
X232803465Y-95839500D01*
X232596535Y-95839500D01*
X232596530Y-95839500D01*
X232393587Y-95879868D01*
X232393579Y-95879870D01*
X232202403Y-95959058D01*
X232030342Y-96074024D01*
X231884024Y-96220342D01*
X231769058Y-96392403D01*
X231689870Y-96583579D01*
X231689868Y-96583587D01*
X231649500Y-96786530D01*
X231649500Y-96993469D01*
X231689868Y-97196412D01*
X231689870Y-97196420D01*
X231769058Y-97387596D01*
X231884024Y-97559657D01*
X232030342Y-97705975D01*
X232202405Y-97820943D01*
X232305043Y-97863456D01*
X232367108Y-97889164D01*
X232421511Y-97933005D01*
X232443576Y-97999299D01*
X232426297Y-98066998D01*
X232375160Y-98114609D01*
X232357974Y-98121656D01*
X232181781Y-98178905D01*
X231992439Y-98275380D01*
X231938282Y-98314727D01*
X231938282Y-98314728D01*
X232570591Y-98947037D01*
X232507007Y-98964075D01*
X232392993Y-99029901D01*
X232299901Y-99122993D01*
X232234075Y-99237007D01*
X232217037Y-99300591D01*
X231584728Y-98668282D01*
X231584727Y-98668282D01*
X231545380Y-98722439D01*
X231448904Y-98911782D01*
X231383242Y-99113869D01*
X231383242Y-99113872D01*
X231350000Y-99323753D01*
X231350000Y-99536246D01*
X231383242Y-99746127D01*
X231383242Y-99746130D01*
X231448904Y-99948217D01*
X231545375Y-100137550D01*
X231584728Y-100191716D01*
X232217037Y-99559408D01*
X232234075Y-99622993D01*
X232299901Y-99737007D01*
X232392993Y-99830099D01*
X232507007Y-99895925D01*
X232570589Y-99912962D01*
X231938282Y-100545269D01*
X231938282Y-100545270D01*
X231992449Y-100584624D01*
X232181782Y-100681095D01*
X232357973Y-100738343D01*
X232415648Y-100777780D01*
X232442847Y-100842139D01*
X232430932Y-100910985D01*
X232383688Y-100962461D01*
X232367108Y-100970835D01*
X232202403Y-101039057D01*
X232030342Y-101154024D01*
X231884024Y-101300342D01*
X231769058Y-101472403D01*
X231689870Y-101663579D01*
X231689868Y-101663587D01*
X231649500Y-101866530D01*
X231649500Y-102073469D01*
X231689868Y-102276412D01*
X231689870Y-102276420D01*
X231769058Y-102467596D01*
X231884024Y-102639657D01*
X232030342Y-102785975D01*
X232030345Y-102785977D01*
X232202402Y-102900941D01*
X232393580Y-102980130D01*
X232596530Y-103020499D01*
X232596534Y-103020500D01*
X232596535Y-103020500D01*
X232803466Y-103020500D01*
X232803466Y-103020499D01*
X232884294Y-103004422D01*
X232953885Y-103010649D01*
X233009062Y-103053512D01*
X233032307Y-103119401D01*
X233032477Y-103124633D01*
X233041541Y-103924094D01*
X233022618Y-103991353D01*
X232970336Y-104037703D01*
X232917549Y-104049500D01*
X232827525Y-104049500D01*
X232698993Y-104083940D01*
X232687511Y-104087017D01*
X232561988Y-104159488D01*
X232561982Y-104159493D01*
X232459493Y-104261982D01*
X232459488Y-104261988D01*
X232387017Y-104387511D01*
X232387016Y-104387515D01*
X232349500Y-104527525D01*
X232349500Y-104672475D01*
X232387016Y-104812485D01*
X232387017Y-104812488D01*
X232459488Y-104938011D01*
X232459490Y-104938013D01*
X232459491Y-104938015D01*
X232561985Y-105040509D01*
X232561986Y-105040510D01*
X232561988Y-105040511D01*
X232687511Y-105112982D01*
X232687512Y-105112982D01*
X232687515Y-105112984D01*
X232827525Y-105150500D01*
X232827528Y-105150500D01*
X232932844Y-105150500D01*
X232999883Y-105170185D01*
X233045638Y-105222989D01*
X233056836Y-105273094D01*
X233198545Y-117771710D01*
X233179622Y-117838969D01*
X233127340Y-117885319D01*
X233071736Y-117897084D01*
X230999897Y-117849997D01*
X223267318Y-117702241D01*
X223200667Y-117681280D01*
X223155929Y-117627611D01*
X223145768Y-117582739D01*
X222746869Y-106527525D01*
X228849500Y-106527525D01*
X228849500Y-106672475D01*
X228887016Y-106812485D01*
X228887017Y-106812488D01*
X228959488Y-106938011D01*
X228959490Y-106938013D01*
X228959491Y-106938015D01*
X229061985Y-107040509D01*
X229061986Y-107040510D01*
X229061988Y-107040511D01*
X229187511Y-107112982D01*
X229187512Y-107112982D01*
X229187515Y-107112984D01*
X229327525Y-107150500D01*
X229327528Y-107150500D01*
X229472472Y-107150500D01*
X229472475Y-107150500D01*
X229612485Y-107112984D01*
X229738015Y-107040509D01*
X229840509Y-106938015D01*
X229912984Y-106812485D01*
X229950500Y-106672475D01*
X229950500Y-106527525D01*
X229912984Y-106387515D01*
X229840509Y-106261985D01*
X229738015Y-106159491D01*
X229738013Y-106159490D01*
X229738011Y-106159488D01*
X229612488Y-106087017D01*
X229612489Y-106087017D01*
X229601006Y-106083940D01*
X229472475Y-106049500D01*
X229327525Y-106049500D01*
X229198993Y-106083940D01*
X229187511Y-106087017D01*
X229061988Y-106159488D01*
X229061982Y-106159493D01*
X228959493Y-106261982D01*
X228959488Y-106261988D01*
X228887017Y-106387511D01*
X228887016Y-106387515D01*
X228849500Y-106527525D01*
X222746869Y-106527525D01*
X222530674Y-100535825D01*
X222548823Y-100497875D01*
X222553405Y-100493040D01*
X223287425Y-99759019D01*
X223373249Y-99887463D01*
X223512537Y-100026751D01*
X223640978Y-100112573D01*
X222923633Y-100829917D01*
X222923633Y-100829918D01*
X223036475Y-100916505D01*
X223036483Y-100916511D01*
X223263517Y-101047590D01*
X223263528Y-101047595D01*
X223505744Y-101147924D01*
X223758979Y-101215777D01*
X223758990Y-101215779D01*
X224018905Y-101249999D01*
X224018920Y-101250000D01*
X224281080Y-101250000D01*
X224281094Y-101249999D01*
X224541009Y-101215779D01*
X224541020Y-101215777D01*
X224794255Y-101147924D01*
X225036471Y-101047595D01*
X225036482Y-101047590D01*
X225263516Y-100916511D01*
X225263534Y-100916499D01*
X225376365Y-100829919D01*
X225376365Y-100829917D01*
X224659020Y-100112573D01*
X224787463Y-100026751D01*
X224926751Y-99887463D01*
X225012573Y-99759021D01*
X225729917Y-100476365D01*
X225729919Y-100476365D01*
X225816499Y-100363534D01*
X225816511Y-100363516D01*
X225947590Y-100136482D01*
X225947595Y-100136471D01*
X226047924Y-99894255D01*
X226115777Y-99641020D01*
X226115779Y-99641009D01*
X226149999Y-99381094D01*
X226150000Y-99381080D01*
X226150000Y-99118919D01*
X226149999Y-99118905D01*
X226115779Y-98858990D01*
X226115777Y-98858979D01*
X226047924Y-98605744D01*
X225947595Y-98363528D01*
X225947590Y-98363517D01*
X225816511Y-98136483D01*
X225816505Y-98136475D01*
X225729918Y-98023633D01*
X225729917Y-98023633D01*
X225012572Y-98740977D01*
X224926751Y-98612537D01*
X224787463Y-98473249D01*
X224659019Y-98387425D01*
X225376365Y-97670080D01*
X225263524Y-97583494D01*
X225263516Y-97583488D01*
X225036482Y-97452409D01*
X225036471Y-97452404D01*
X224794255Y-97352075D01*
X224541020Y-97284222D01*
X224541009Y-97284220D01*
X224281094Y-97250000D01*
X224018905Y-97250000D01*
X223758990Y-97284220D01*
X223758979Y-97284222D01*
X223505744Y-97352075D01*
X223263528Y-97452404D01*
X223263517Y-97452409D01*
X223036471Y-97583496D01*
X222923633Y-97670079D01*
X222923633Y-97670080D01*
X223640979Y-98387426D01*
X223512537Y-98473249D01*
X223373249Y-98612537D01*
X223287426Y-98740979D01*
X222570079Y-98023632D01*
X222567756Y-98023785D01*
X222557139Y-98021409D01*
X222546438Y-98023344D01*
X222523647Y-98013913D01*
X222499573Y-98008526D01*
X222491927Y-98000788D01*
X222481877Y-97996630D01*
X222467801Y-97976373D01*
X222450463Y-97958827D01*
X222447166Y-97946676D01*
X222442008Y-97939253D01*
X222435730Y-97904530D01*
X222062905Y-87571947D01*
X228054500Y-87571947D01*
X228054500Y-87768052D01*
X228092754Y-87960369D01*
X228092756Y-87960377D01*
X228167797Y-88141543D01*
X228276744Y-88304593D01*
X228276747Y-88304597D01*
X228415402Y-88443252D01*
X228415406Y-88443255D01*
X228578454Y-88552201D01*
X228759623Y-88627244D01*
X228951947Y-88665499D01*
X228951951Y-88665500D01*
X228951952Y-88665500D01*
X229148049Y-88665500D01*
X229148050Y-88665499D01*
X229340377Y-88627244D01*
X229521546Y-88552201D01*
X229684594Y-88443255D01*
X229823255Y-88304594D01*
X229932201Y-88141546D01*
X230007244Y-87960377D01*
X230045500Y-87768048D01*
X230045500Y-87571952D01*
X230007244Y-87379623D01*
X229932201Y-87198454D01*
X229823255Y-87035406D01*
X229823252Y-87035402D01*
X229684597Y-86896747D01*
X229684593Y-86896744D01*
X229622489Y-86855247D01*
X230594500Y-86855247D01*
X230594500Y-88484752D01*
X230606131Y-88543229D01*
X230606132Y-88543230D01*
X230650447Y-88609552D01*
X230716769Y-88653867D01*
X230716770Y-88653868D01*
X230775247Y-88665499D01*
X230775250Y-88665500D01*
X230775252Y-88665500D01*
X232404750Y-88665500D01*
X232404751Y-88665499D01*
X232419568Y-88662552D01*
X232463229Y-88653868D01*
X232463229Y-88653867D01*
X232463231Y-88653867D01*
X232529552Y-88609552D01*
X232573867Y-88543231D01*
X232573867Y-88543229D01*
X232573868Y-88543229D01*
X232585499Y-88484752D01*
X232585500Y-88484750D01*
X232585500Y-86855249D01*
X232585499Y-86855247D01*
X232573868Y-86796770D01*
X232573867Y-86796769D01*
X232529552Y-86730447D01*
X232463230Y-86686132D01*
X232463229Y-86686131D01*
X232404752Y-86674500D01*
X232404748Y-86674500D01*
X230775252Y-86674500D01*
X230775247Y-86674500D01*
X230716770Y-86686131D01*
X230716769Y-86686132D01*
X230650447Y-86730447D01*
X230606132Y-86796769D01*
X230606131Y-86796770D01*
X230594500Y-86855247D01*
X229622489Y-86855247D01*
X229521543Y-86787797D01*
X229340377Y-86712756D01*
X229340369Y-86712754D01*
X229148052Y-86674500D01*
X229148048Y-86674500D01*
X228951952Y-86674500D01*
X228951947Y-86674500D01*
X228759630Y-86712754D01*
X228759622Y-86712756D01*
X228578456Y-86787797D01*
X228415406Y-86896744D01*
X228415402Y-86896747D01*
X228276747Y-87035402D01*
X228276744Y-87035406D01*
X228167797Y-87198456D01*
X228092756Y-87379622D01*
X228092754Y-87379630D01*
X228054500Y-87571947D01*
X222062905Y-87571947D01*
X221971255Y-85031947D01*
X228054500Y-85031947D01*
X228054500Y-85228052D01*
X228092754Y-85420369D01*
X228092756Y-85420377D01*
X228167797Y-85601543D01*
X228276744Y-85764593D01*
X228276747Y-85764597D01*
X228415402Y-85903252D01*
X228415406Y-85903255D01*
X228578454Y-86012201D01*
X228759623Y-86087244D01*
X228951947Y-86125499D01*
X228951951Y-86125500D01*
X228951952Y-86125500D01*
X229148049Y-86125500D01*
X229148050Y-86125499D01*
X229340377Y-86087244D01*
X229521546Y-86012201D01*
X229684594Y-85903255D01*
X229823255Y-85764594D01*
X229932201Y-85601546D01*
X230007244Y-85420377D01*
X230045500Y-85228048D01*
X230045500Y-85031952D01*
X230007244Y-84839623D01*
X229932201Y-84658454D01*
X229823255Y-84495406D01*
X229823252Y-84495402D01*
X229684597Y-84356747D01*
X229684593Y-84356744D01*
X229521543Y-84247797D01*
X229340377Y-84172756D01*
X229340369Y-84172754D01*
X229148052Y-84134500D01*
X229148048Y-84134500D01*
X228951952Y-84134500D01*
X228951947Y-84134500D01*
X228759630Y-84172754D01*
X228759622Y-84172756D01*
X228578456Y-84247797D01*
X228415406Y-84356744D01*
X228415402Y-84356747D01*
X228276747Y-84495402D01*
X228276744Y-84495406D01*
X228167797Y-84658456D01*
X228092756Y-84839622D01*
X228092754Y-84839630D01*
X228054500Y-85031947D01*
X221971255Y-85031947D01*
X221879606Y-82491947D01*
X228054500Y-82491947D01*
X228054500Y-82688052D01*
X228092754Y-82880369D01*
X228092756Y-82880377D01*
X228167797Y-83061543D01*
X228276744Y-83224593D01*
X228276747Y-83224597D01*
X228415402Y-83363252D01*
X228415406Y-83363255D01*
X228578454Y-83472201D01*
X228759623Y-83547244D01*
X228951947Y-83585499D01*
X228951951Y-83585500D01*
X228951952Y-83585500D01*
X229148049Y-83585500D01*
X229148050Y-83585499D01*
X229340377Y-83547244D01*
X229521546Y-83472201D01*
X229684594Y-83363255D01*
X229823255Y-83224594D01*
X229932201Y-83061546D01*
X230007244Y-82880377D01*
X230045500Y-82688048D01*
X230045500Y-82491952D01*
X230007244Y-82299623D01*
X229932201Y-82118454D01*
X229823255Y-81955406D01*
X229823252Y-81955402D01*
X229684597Y-81816747D01*
X229684593Y-81816744D01*
X229521543Y-81707797D01*
X229340377Y-81632756D01*
X229340369Y-81632754D01*
X229148052Y-81594500D01*
X229148048Y-81594500D01*
X228951952Y-81594500D01*
X228951947Y-81594500D01*
X228759630Y-81632754D01*
X228759622Y-81632756D01*
X228578456Y-81707797D01*
X228415406Y-81816744D01*
X228415402Y-81816747D01*
X228276747Y-81955402D01*
X228276744Y-81955406D01*
X228167797Y-82118456D01*
X228092756Y-82299622D01*
X228092754Y-82299630D01*
X228054500Y-82491947D01*
X221879606Y-82491947D01*
X221798134Y-80234020D01*
X221815388Y-80166319D01*
X221866508Y-80118689D01*
X221935263Y-80106259D01*
X221954143Y-80109777D01*
X222076050Y-80142442D01*
X222076052Y-80142442D01*
X222207832Y-80142442D01*
X222207834Y-80142442D01*
X222335128Y-80108334D01*
X222449256Y-80042442D01*
X222542442Y-79949256D01*
X222608334Y-79835128D01*
X222642442Y-79707834D01*
X222642442Y-79576050D01*
X222608334Y-79448756D01*
X222608332Y-79448752D01*
X222583880Y-79406400D01*
X222583879Y-79406399D01*
X222552775Y-79352525D01*
X224949500Y-79352525D01*
X224949500Y-79497475D01*
X224970555Y-79576052D01*
X224987017Y-79637488D01*
X225059488Y-79763011D01*
X225059490Y-79763013D01*
X225059491Y-79763015D01*
X225161985Y-79865509D01*
X225161986Y-79865510D01*
X225161988Y-79865511D01*
X225287511Y-79937982D01*
X225287512Y-79937982D01*
X225287515Y-79937984D01*
X225427525Y-79975500D01*
X225427528Y-79975500D01*
X225572472Y-79975500D01*
X225572475Y-79975500D01*
X225660375Y-79951947D01*
X228054500Y-79951947D01*
X228054500Y-80148052D01*
X228092754Y-80340369D01*
X228092756Y-80340377D01*
X228167797Y-80521543D01*
X228276744Y-80684593D01*
X228276747Y-80684597D01*
X228415402Y-80823252D01*
X228415406Y-80823255D01*
X228578454Y-80932201D01*
X228759623Y-81007244D01*
X228951947Y-81045499D01*
X228951951Y-81045500D01*
X228951952Y-81045500D01*
X229148049Y-81045500D01*
X229148050Y-81045499D01*
X229340377Y-81007244D01*
X229521546Y-80932201D01*
X229684594Y-80823255D01*
X229823255Y-80684594D01*
X229932201Y-80521546D01*
X230007244Y-80340377D01*
X230045500Y-80148048D01*
X230045500Y-79951952D01*
X230007244Y-79759623D01*
X229932201Y-79578454D01*
X229823255Y-79415406D01*
X229823252Y-79415402D01*
X229684597Y-79276747D01*
X229684593Y-79276744D01*
X229521543Y-79167797D01*
X229340377Y-79092756D01*
X229340369Y-79092754D01*
X229148052Y-79054500D01*
X229148048Y-79054500D01*
X228951952Y-79054500D01*
X228951947Y-79054500D01*
X228759630Y-79092754D01*
X228759622Y-79092756D01*
X228578456Y-79167797D01*
X228415406Y-79276744D01*
X228415402Y-79276747D01*
X228276747Y-79415402D01*
X228276744Y-79415406D01*
X228167797Y-79578456D01*
X228092756Y-79759622D01*
X228092754Y-79759630D01*
X228054500Y-79951947D01*
X225660375Y-79951947D01*
X225712485Y-79937984D01*
X225838015Y-79865509D01*
X225940509Y-79763015D01*
X226012984Y-79637485D01*
X226050500Y-79497475D01*
X226050500Y-79352525D01*
X226012984Y-79212515D01*
X226003309Y-79195758D01*
X225940511Y-79086988D01*
X225940506Y-79086982D01*
X225838017Y-78984493D01*
X225838011Y-78984488D01*
X225712488Y-78912017D01*
X225712489Y-78912017D01*
X225701006Y-78908940D01*
X225572475Y-78874500D01*
X225427525Y-78874500D01*
X225298993Y-78908940D01*
X225287511Y-78912017D01*
X225161988Y-78984488D01*
X225161982Y-78984493D01*
X225059493Y-79086982D01*
X225059488Y-79086988D01*
X224987017Y-79212511D01*
X224987016Y-79212515D01*
X224949500Y-79352525D01*
X222552775Y-79352525D01*
X222542442Y-79334628D01*
X222449256Y-79241442D01*
X222392192Y-79208496D01*
X222335129Y-79175550D01*
X222271481Y-79158496D01*
X222207834Y-79141442D01*
X222076050Y-79141442D01*
X221948756Y-79175550D01*
X221948755Y-79175550D01*
X221948753Y-79175551D01*
X221948748Y-79175552D01*
X221942275Y-79179290D01*
X221874374Y-79195758D01*
X221808348Y-79172902D01*
X221765161Y-79117978D01*
X221756364Y-79076374D01*
X221750000Y-78900000D01*
X221676761Y-78900000D01*
X221609722Y-78880315D01*
X221570676Y-78840202D01*
X221550832Y-78807413D01*
X221502268Y-78757192D01*
X221502265Y-78757190D01*
X221502261Y-78757185D01*
X221483714Y-78740217D01*
X221483713Y-78740216D01*
X221483712Y-78740215D01*
X221401579Y-78699995D01*
X221401576Y-78699994D01*
X221333572Y-78684002D01*
X221333561Y-78684000D01*
X221275297Y-78678850D01*
X220981351Y-78694926D01*
X220974705Y-78695396D01*
X220966801Y-78696084D01*
X220966796Y-78696085D01*
X220903741Y-78711901D01*
X220903730Y-78711905D01*
X220839528Y-78739398D01*
X220839516Y-78739403D01*
X220839509Y-78739407D01*
X220817474Y-78750482D01*
X220817047Y-78750698D01*
X220809957Y-78757322D01*
X220747529Y-78788700D01*
X220678048Y-78781346D01*
X220663311Y-78774094D01*
X220593189Y-78733609D01*
X220593186Y-78733608D01*
X220465892Y-78699500D01*
X220334108Y-78699500D01*
X220206814Y-78733608D01*
X220206813Y-78733608D01*
X220206811Y-78733609D01*
X220206810Y-78733609D01*
X220092682Y-78799501D01*
X220088576Y-78802652D01*
X220023404Y-78827839D01*
X219958567Y-78815633D01*
X219953453Y-78813129D01*
X219891105Y-78782598D01*
X219891103Y-78782597D01*
X219891104Y-78782597D01*
X219823106Y-78766607D01*
X219823101Y-78766606D01*
X219823096Y-78766605D01*
X219823087Y-78766604D01*
X219823086Y-78766604D01*
X219764829Y-78761454D01*
X217234823Y-78899815D01*
X217228052Y-78900000D01*
X215525231Y-78900000D01*
X215458192Y-78880315D01*
X215412437Y-78827511D01*
X215401237Y-78774775D01*
X215404602Y-78434108D01*
X222249500Y-78434108D01*
X222249500Y-78565891D01*
X222283608Y-78693187D01*
X222310294Y-78739407D01*
X222349500Y-78807314D01*
X222442686Y-78900500D01*
X222556814Y-78966392D01*
X222684108Y-79000500D01*
X222684110Y-79000500D01*
X222815890Y-79000500D01*
X222815892Y-79000500D01*
X222943186Y-78966392D01*
X223057314Y-78900500D01*
X223150500Y-78807314D01*
X223216392Y-78693186D01*
X223250500Y-78565892D01*
X223250500Y-78434108D01*
X223216392Y-78306814D01*
X223150500Y-78192686D01*
X223057314Y-78099500D01*
X223000250Y-78066554D01*
X222943187Y-78033608D01*
X222879539Y-78016554D01*
X222815892Y-77999500D01*
X222684108Y-77999500D01*
X222556812Y-78033608D01*
X222442686Y-78099500D01*
X222442683Y-78099502D01*
X222349502Y-78192683D01*
X222349500Y-78192686D01*
X222283608Y-78306812D01*
X222249500Y-78434108D01*
X215404602Y-78434108D01*
X215404694Y-78424756D01*
X215409934Y-77894185D01*
X215412009Y-77684108D01*
X220349500Y-77684108D01*
X220349500Y-77815891D01*
X220383608Y-77943187D01*
X220405752Y-77981541D01*
X220449500Y-78057314D01*
X220542686Y-78150500D01*
X220656814Y-78216392D01*
X220784108Y-78250500D01*
X220784110Y-78250500D01*
X220915890Y-78250500D01*
X220915892Y-78250500D01*
X221043186Y-78216392D01*
X221157314Y-78150500D01*
X221250500Y-78057314D01*
X221316392Y-77943186D01*
X221350500Y-77815892D01*
X221350500Y-77684108D01*
X221316392Y-77556814D01*
X221250500Y-77442686D01*
X221157314Y-77349500D01*
X221100250Y-77316554D01*
X221043187Y-77283608D01*
X220979539Y-77266554D01*
X220915892Y-77249500D01*
X220784108Y-77249500D01*
X220656812Y-77283608D01*
X220542686Y-77349500D01*
X220542683Y-77349502D01*
X220449502Y-77442683D01*
X220449500Y-77442686D01*
X220383608Y-77556812D01*
X220349500Y-77684108D01*
X215412009Y-77684108D01*
X215418000Y-77077525D01*
X224949500Y-77077525D01*
X224949500Y-77222475D01*
X224983537Y-77349500D01*
X224987017Y-77362488D01*
X225059488Y-77488011D01*
X225059490Y-77488013D01*
X225059491Y-77488015D01*
X225161985Y-77590509D01*
X225161986Y-77590510D01*
X225161988Y-77590511D01*
X225287511Y-77662982D01*
X225287512Y-77662982D01*
X225287515Y-77662984D01*
X225427525Y-77700500D01*
X225427528Y-77700500D01*
X225572472Y-77700500D01*
X225572475Y-77700500D01*
X225712485Y-77662984D01*
X225838015Y-77590509D01*
X225940509Y-77488015D01*
X225984427Y-77411947D01*
X228054500Y-77411947D01*
X228054500Y-77608052D01*
X228092754Y-77800369D01*
X228092756Y-77800377D01*
X228167797Y-77981543D01*
X228276744Y-78144593D01*
X228276747Y-78144597D01*
X228415402Y-78283252D01*
X228415406Y-78283255D01*
X228578454Y-78392201D01*
X228759623Y-78467244D01*
X228951947Y-78505499D01*
X228951951Y-78505500D01*
X228951952Y-78505500D01*
X229148049Y-78505500D01*
X229148050Y-78505499D01*
X229340377Y-78467244D01*
X229521546Y-78392201D01*
X229684594Y-78283255D01*
X229823255Y-78144594D01*
X229932201Y-77981546D01*
X230007244Y-77800377D01*
X230045500Y-77608048D01*
X230045500Y-77411952D01*
X230007244Y-77219623D01*
X229932201Y-77038454D01*
X229823255Y-76875406D01*
X229823252Y-76875402D01*
X229684597Y-76736747D01*
X229684593Y-76736744D01*
X229521543Y-76627797D01*
X229340377Y-76552756D01*
X229340369Y-76552754D01*
X229148052Y-76514500D01*
X229148048Y-76514500D01*
X228951952Y-76514500D01*
X228951947Y-76514500D01*
X228759630Y-76552754D01*
X228759622Y-76552756D01*
X228578456Y-76627797D01*
X228415406Y-76736744D01*
X228415402Y-76736747D01*
X228276747Y-76875402D01*
X228276744Y-76875406D01*
X228167797Y-77038456D01*
X228092756Y-77219622D01*
X228092754Y-77219630D01*
X228054500Y-77411947D01*
X225984427Y-77411947D01*
X226012984Y-77362485D01*
X226050500Y-77222475D01*
X226050500Y-77077525D01*
X226012984Y-76937515D01*
X225977125Y-76875406D01*
X225940511Y-76811988D01*
X225940506Y-76811982D01*
X225838017Y-76709493D01*
X225838011Y-76709488D01*
X225712488Y-76637017D01*
X225712489Y-76637017D01*
X225678087Y-76627799D01*
X225572475Y-76599500D01*
X225427525Y-76599500D01*
X225321913Y-76627799D01*
X225287511Y-76637017D01*
X225161988Y-76709488D01*
X225161982Y-76709493D01*
X225059493Y-76811982D01*
X225059488Y-76811988D01*
X224987017Y-76937511D01*
X224987016Y-76937515D01*
X224949500Y-77077525D01*
X215418000Y-77077525D01*
X215429786Y-75884108D01*
X219799500Y-75884108D01*
X219799500Y-76015891D01*
X219833608Y-76143187D01*
X219866554Y-76200250D01*
X219899500Y-76257314D01*
X219992686Y-76350500D01*
X220106814Y-76416392D01*
X220234108Y-76450500D01*
X220234110Y-76450500D01*
X220365890Y-76450500D01*
X220365892Y-76450500D01*
X220493186Y-76416392D01*
X220607314Y-76350500D01*
X220700500Y-76257314D01*
X220766392Y-76143186D01*
X220800500Y-76015892D01*
X220800500Y-75884108D01*
X220766392Y-75756814D01*
X220700500Y-75642686D01*
X220607314Y-75549500D01*
X220550250Y-75516554D01*
X220493187Y-75483608D01*
X220429539Y-75466554D01*
X220365892Y-75449500D01*
X220234108Y-75449500D01*
X220106812Y-75483608D01*
X219992686Y-75549500D01*
X219992683Y-75549502D01*
X219899502Y-75642683D01*
X219899500Y-75642686D01*
X219833608Y-75756812D01*
X219799500Y-75884108D01*
X215429786Y-75884108D01*
X215432547Y-75604593D01*
X215439784Y-74871947D01*
X228054500Y-74871947D01*
X228054500Y-75068052D01*
X228092754Y-75260369D01*
X228092756Y-75260377D01*
X228167797Y-75441543D01*
X228276744Y-75604593D01*
X228276747Y-75604597D01*
X228415402Y-75743252D01*
X228415406Y-75743255D01*
X228578454Y-75852201D01*
X228759623Y-75927244D01*
X228951947Y-75965499D01*
X228951951Y-75965500D01*
X228951952Y-75965500D01*
X229148049Y-75965500D01*
X229148050Y-75965499D01*
X229340377Y-75927244D01*
X229521546Y-75852201D01*
X229684594Y-75743255D01*
X229823255Y-75604594D01*
X229932201Y-75441546D01*
X230007244Y-75260377D01*
X230045500Y-75068048D01*
X230045500Y-74871952D01*
X230007244Y-74679623D01*
X229948522Y-74537855D01*
X229932202Y-74498456D01*
X229823255Y-74335406D01*
X229823252Y-74335402D01*
X229684597Y-74196747D01*
X229684593Y-74196744D01*
X229521543Y-74087797D01*
X229340377Y-74012756D01*
X229340369Y-74012754D01*
X229148052Y-73974500D01*
X229148048Y-73974500D01*
X228951952Y-73974500D01*
X228951947Y-73974500D01*
X228759630Y-74012754D01*
X228759622Y-74012756D01*
X228578456Y-74087797D01*
X228415406Y-74196744D01*
X228415402Y-74196747D01*
X228276747Y-74335402D01*
X228276744Y-74335406D01*
X228167797Y-74498456D01*
X228092756Y-74679622D01*
X228092754Y-74679630D01*
X228054500Y-74871947D01*
X215439784Y-74871947D01*
X215439856Y-74864635D01*
X215460964Y-72727525D01*
X230999500Y-72727525D01*
X230999500Y-72872475D01*
X231037016Y-73012485D01*
X231037017Y-73012488D01*
X231109488Y-73138011D01*
X231109490Y-73138013D01*
X231109491Y-73138015D01*
X231211985Y-73240509D01*
X231211986Y-73240510D01*
X231211988Y-73240511D01*
X231337511Y-73312982D01*
X231337512Y-73312982D01*
X231337515Y-73312984D01*
X231477525Y-73350500D01*
X231477528Y-73350500D01*
X231622472Y-73350500D01*
X231622475Y-73350500D01*
X231762485Y-73312984D01*
X231888015Y-73240509D01*
X231990509Y-73138015D01*
X232062984Y-73012485D01*
X232100500Y-72872475D01*
X232100500Y-72727525D01*
X232062984Y-72587515D01*
X231990509Y-72461985D01*
X231888015Y-72359491D01*
X231888013Y-72359490D01*
X231888011Y-72359488D01*
X231762488Y-72287017D01*
X231762489Y-72287017D01*
X231751006Y-72283940D01*
X231622475Y-72249500D01*
X231477525Y-72249500D01*
X231348993Y-72283940D01*
X231337511Y-72287017D01*
X231211988Y-72359488D01*
X231211982Y-72359493D01*
X231109493Y-72461982D01*
X231109488Y-72461988D01*
X231037017Y-72587511D01*
X231037016Y-72587515D01*
X230999500Y-72727525D01*
X215460964Y-72727525D01*
X215461056Y-72718173D01*
X215600000Y-58649999D01*
X137368980Y-57351974D01*
X137302276Y-57331180D01*
X137257404Y-57277624D01*
X137247074Y-57231042D01*
X137219536Y-56111127D01*
X137237567Y-56043624D01*
X137289230Y-55996585D01*
X137311399Y-55988306D01*
X137393186Y-55966392D01*
X137507314Y-55900500D01*
X137600500Y-55807314D01*
X137666392Y-55693186D01*
X137700500Y-55565892D01*
X137700500Y-55434108D01*
X137666392Y-55306814D01*
X137638489Y-55258484D01*
X137600503Y-55192690D01*
X137600497Y-55192683D01*
X137539316Y-55131502D01*
X228099500Y-55131502D01*
X228099500Y-55367697D01*
X228136446Y-55600968D01*
X228209433Y-55825596D01*
X228281173Y-55966392D01*
X228316657Y-56036033D01*
X228455483Y-56227110D01*
X228622490Y-56394117D01*
X228813567Y-56532943D01*
X228912991Y-56583602D01*
X229024003Y-56640166D01*
X229024005Y-56640166D01*
X229024008Y-56640168D01*
X229144412Y-56679289D01*
X229248631Y-56713153D01*
X229481903Y-56750100D01*
X229481908Y-56750100D01*
X229718097Y-56750100D01*
X229951368Y-56713153D01*
X230175992Y-56640168D01*
X230386433Y-56532943D01*
X230577510Y-56394117D01*
X230744517Y-56227110D01*
X230883343Y-56036033D01*
X230990568Y-55825592D01*
X231063553Y-55600968D01*
X231100500Y-55367697D01*
X231100500Y-55131502D01*
X231063553Y-54898231D01*
X230990566Y-54673603D01*
X230934002Y-54562591D01*
X230883343Y-54463167D01*
X230744517Y-54272090D01*
X230577510Y-54105083D01*
X230386433Y-53966257D01*
X230175996Y-53859033D01*
X229951368Y-53786046D01*
X229718097Y-53749100D01*
X229718092Y-53749100D01*
X229481908Y-53749100D01*
X229481903Y-53749100D01*
X229248631Y-53786046D01*
X229024003Y-53859033D01*
X228813566Y-53966257D01*
X228704550Y-54045462D01*
X228622490Y-54105083D01*
X228622488Y-54105085D01*
X228622487Y-54105085D01*
X228455485Y-54272087D01*
X228455485Y-54272088D01*
X228455483Y-54272090D01*
X228395862Y-54354150D01*
X228316657Y-54463166D01*
X228209433Y-54673603D01*
X228136446Y-54898231D01*
X228099500Y-55131502D01*
X137539316Y-55131502D01*
X137507316Y-55099502D01*
X137507314Y-55099500D01*
X137393186Y-55033608D01*
X137281300Y-55003628D01*
X137221641Y-54967264D01*
X137191112Y-54904417D01*
X137189432Y-54886902D01*
X137166793Y-53966257D01*
X137103140Y-51377713D01*
X137121171Y-51310212D01*
X137172834Y-51263173D01*
X137227749Y-51250669D01*
X232328040Y-51749360D01*
G37*
%TD.AperFunction*%
%TD*%
M02*
