%TF.GenerationSoftware,KiCad,Pcbnew,9.0.6*%
%TF.CreationDate,2026-08-22T06:09:00+01:00*%
%TF.ProjectId,myProject,6d795072-6f6a-4656-9374-2e6b69636164,rev?*%
%TF.SameCoordinates,Original*%
%TF.FileFunction,Paste,Top*%
%TF.FilePolarity,Positive*%
%FSLAX46Y46*%
G04 Gerber Fmt 4.6, Leading zero omitted, Abs format (unit mm)*
G04 Created by KiCad (PCBNEW 9.0.6) date 2026-08-22 06:09:00*
%MOMM*%
%LPD*%
G01*
G04 APERTURE LIST*
G04 Aperture macros list*
%AMRoundRect*
0 Rectangle with rounded corners*
0 $1 Rounding radius*
0 $2 $3 $4 $5 $6 $7 $8 $9 X,Y pos of 4 corners*
0 Add a 4 corners polygon primitive as box body*
4,1,4,$2,$3,$4,$5,$6,$7,$8,$9,$2,$3,0*
0 Add four circle primitives for the rounded corners*
1,1,$1+$1,$2,$3*
1,1,$1+$1,$4,$5*
1,1,$1+$1,$6,$7*
1,1,$1+$1,$8,$9*
0 Add four rect primitives between the rounded corners*
20,1,$1+$1,$2,$3,$4,$5,0*
20,1,$1+$1,$4,$5,$6,$7,0*
20,1,$1+$1,$6,$7,$8,$9,0*
20,1,$1+$1,$8,$9,$2,$3,0*%
G04 Aperture macros list end*
%ADD10RoundRect,0.250000X0.450000X-0.262500X0.450000X0.262500X-0.450000X0.262500X-0.450000X-0.262500X0*%
%ADD11RoundRect,0.250000X0.475000X-0.250000X0.475000X0.250000X-0.475000X0.250000X-0.475000X-0.250000X0*%
%ADD12RoundRect,0.250000X-0.450000X0.262500X-0.450000X-0.262500X0.450000X-0.262500X0.450000X0.262500X0*%
%ADD13RoundRect,0.250000X0.250000X0.475000X-0.250000X0.475000X-0.250000X-0.475000X0.250000X-0.475000X0*%
%ADD14RoundRect,0.250000X-0.250000X-0.475000X0.250000X-0.475000X0.250000X0.475000X-0.250000X0.475000X0*%
%ADD15RoundRect,0.250000X0.262500X0.450000X-0.262500X0.450000X-0.262500X-0.450000X0.262500X-0.450000X0*%
%ADD16RoundRect,0.250000X-0.262500X-0.450000X0.262500X-0.450000X0.262500X0.450000X-0.262500X0.450000X0*%
%ADD17R,1.200000X0.600000*%
%ADD18RoundRect,0.250000X-0.475000X0.250000X-0.475000X-0.250000X0.475000X-0.250000X0.475000X0.250000X0*%
%ADD19RoundRect,0.075000X0.700000X0.225000X-0.700000X0.225000X-0.700000X-0.225000X0.700000X-0.225000X0*%
%ADD20R,0.580000X1.730000*%
%ADD21R,1.933000X3.030000*%
%ADD22R,0.760000X1.500000*%
%ADD23RoundRect,0.218750X-0.218750X-0.256250X0.218750X-0.256250X0.218750X0.256250X-0.218750X0.256250X0*%
%ADD24R,1.400000X0.450000*%
%ADD25RoundRect,0.082500X0.932500X0.247500X-0.932500X0.247500X-0.932500X-0.247500X0.932500X-0.247500X0*%
%ADD26RoundRect,0.150000X-0.875000X-0.150000X0.875000X-0.150000X0.875000X0.150000X-0.875000X0.150000X0*%
%ADD27R,1.500000X4.600000*%
%ADD28RoundRect,0.250000X-0.550000X1.500000X-0.550000X-1.500000X0.550000X-1.500000X0.550000X1.500000X0*%
%ADD29R,0.280000X0.850000*%
%ADD30R,0.850000X0.280000*%
%ADD31R,2.050000X2.050000*%
%ADD32RoundRect,0.250000X-1.400000X-1.000000X1.400000X-1.000000X1.400000X1.000000X-1.400000X1.000000X0*%
%ADD33R,0.650000X1.528000*%
%ADD34R,1.150000X0.600000*%
%ADD35R,1.525000X0.650000*%
%ADD36RoundRect,0.075000X-0.700000X-0.225000X0.700000X-0.225000X0.700000X0.225000X-0.700000X0.225000X0*%
%ADD37R,1.200000X1.400000*%
%ADD38R,4.100000X4.100000*%
%ADD39R,2.280000X2.120000*%
G04 APERTURE END LIST*
D10*
%TO.C,R3*%
X153900000Y-73312500D03*
X153900000Y-71487500D03*
%TD*%
D11*
%TO.C,C12*%
X200885000Y-80675000D03*
X200885000Y-78775000D03*
%TD*%
D12*
%TO.C,R14*%
X193420000Y-66737500D03*
X193420000Y-68562500D03*
%TD*%
D13*
%TO.C,C16*%
X174550000Y-78850000D03*
X172650000Y-78850000D03*
%TD*%
D12*
%TO.C,R8*%
X157300000Y-84795000D03*
X157300000Y-86620000D03*
%TD*%
D11*
%TO.C,C35*%
X210850000Y-111450000D03*
X210850000Y-109550000D03*
%TD*%
D14*
%TO.C,C26*%
X134100000Y-59595000D03*
X136000000Y-59595000D03*
%TD*%
D11*
%TO.C,C8*%
X198670000Y-68700000D03*
X198670000Y-66800000D03*
%TD*%
D14*
%TO.C,C27*%
X137650000Y-61450000D03*
X139550000Y-61450000D03*
%TD*%
D15*
%TO.C,R25*%
X116412500Y-68245000D03*
X114587500Y-68245000D03*
%TD*%
D11*
%TO.C,C30*%
X188200000Y-112805000D03*
X188200000Y-110905000D03*
%TD*%
D10*
%TO.C,R5*%
X158900000Y-81270000D03*
X158900000Y-79445000D03*
%TD*%
D16*
%TO.C,R15*%
X202785000Y-84075000D03*
X204610000Y-84075000D03*
%TD*%
%TO.C,R23*%
X113537500Y-74487500D03*
X115362500Y-74487500D03*
%TD*%
D11*
%TO.C,C20*%
X118250000Y-56650000D03*
X118250000Y-54750000D03*
%TD*%
D14*
%TO.C,C13*%
X176155000Y-96761000D03*
X178055000Y-96761000D03*
%TD*%
%TO.C,C32*%
X216546500Y-75963000D03*
X218446500Y-75963000D03*
%TD*%
%TO.C,C39*%
X225700000Y-106550000D03*
X227600000Y-106550000D03*
%TD*%
D17*
%TO.C,IC5*%
X212000000Y-75163000D03*
X212000000Y-76113000D03*
X212000000Y-77063000D03*
X214500000Y-77063000D03*
X214500000Y-76113000D03*
X214500000Y-75163000D03*
%TD*%
D13*
%TO.C,C19*%
X176500000Y-85700000D03*
X174600000Y-85700000D03*
%TD*%
D14*
%TO.C,C1*%
X156150000Y-76057500D03*
X158050000Y-76057500D03*
%TD*%
D10*
%TO.C,R12*%
X201100000Y-68712500D03*
X201100000Y-66887500D03*
%TD*%
D15*
%TO.C,R28*%
X176512500Y-83300000D03*
X174687500Y-83300000D03*
%TD*%
D18*
%TO.C,C4*%
X162450000Y-82850000D03*
X162450000Y-84750000D03*
%TD*%
D16*
%TO.C,R4*%
X148937500Y-76057500D03*
X150762500Y-76057500D03*
%TD*%
D10*
%TO.C,R11*%
X196185000Y-80687500D03*
X196185000Y-78862500D03*
%TD*%
D18*
%TO.C,C5*%
X163100000Y-70007500D03*
X163100000Y-71907500D03*
%TD*%
D19*
%TO.C,U2*%
X182000000Y-77870000D03*
X182000000Y-76600000D03*
X182000000Y-75330000D03*
X182000000Y-74060000D03*
X176600000Y-74060000D03*
X176600000Y-75330000D03*
X176600000Y-76600000D03*
X176600000Y-77870000D03*
%TD*%
D13*
%TO.C,C36*%
X218700000Y-108000000D03*
X216800000Y-108000000D03*
%TD*%
D18*
%TO.C,C23*%
X114822500Y-59705000D03*
X114822500Y-61605000D03*
%TD*%
D16*
%TO.C,R18*%
X202822500Y-81925000D03*
X204647500Y-81925000D03*
%TD*%
D20*
%TO.C,IC7*%
X218500000Y-111350000D03*
D21*
X217000000Y-113500000D03*
D22*
X217000000Y-111235000D03*
D20*
X215500000Y-111350000D03*
%TD*%
D18*
%TO.C,C18*%
X118700000Y-63595000D03*
X118700000Y-65495000D03*
%TD*%
D16*
%TO.C,R31*%
X203637500Y-108750000D03*
X205462500Y-108750000D03*
%TD*%
D23*
%TO.C,D4*%
X174412500Y-112150000D03*
X175987500Y-112150000D03*
%TD*%
D12*
%TO.C,R13*%
X191585000Y-82812500D03*
X191585000Y-84637500D03*
%TD*%
D24*
%TO.C,IC2*%
X196050000Y-70600000D03*
X196050000Y-71250000D03*
X196050000Y-71900000D03*
X196050000Y-72550000D03*
X200450000Y-72550000D03*
X200450000Y-71900000D03*
X200450000Y-71250000D03*
X200450000Y-70600000D03*
%TD*%
D16*
%TO.C,R24*%
X115600000Y-71687500D03*
X117425000Y-71687500D03*
%TD*%
D12*
%TO.C,R32*%
X172162500Y-110542500D03*
X172162500Y-112367500D03*
%TD*%
D16*
%TO.C,R20*%
X202757500Y-70700000D03*
X204582500Y-70700000D03*
%TD*%
D15*
%TO.C,R7*%
X150762500Y-73707500D03*
X148937500Y-73707500D03*
%TD*%
D11*
%TO.C,C38*%
X168350000Y-110050000D03*
X168350000Y-108150000D03*
%TD*%
D14*
%TO.C,C15*%
X178600000Y-85650000D03*
X180500000Y-85650000D03*
%TD*%
D25*
%TO.C,U4*%
X185294000Y-111660000D03*
X185294000Y-110390000D03*
X185294000Y-109120000D03*
X185294000Y-107850000D03*
X179706000Y-107850000D03*
X179706000Y-109120000D03*
X179706000Y-110390000D03*
X179706000Y-111660000D03*
%TD*%
D16*
%TO.C,R1*%
X147787500Y-83900000D03*
X149612500Y-83900000D03*
%TD*%
D26*
%TO.C,U3*%
X121800000Y-54310000D03*
X121800000Y-55580000D03*
X121800000Y-56850000D03*
X121800000Y-58120000D03*
X121800000Y-59390000D03*
X121800000Y-60660000D03*
X121800000Y-61930000D03*
X121800000Y-63200000D03*
X131100000Y-63200000D03*
X131100000Y-61930000D03*
X131100000Y-60660000D03*
X131100000Y-59390000D03*
X131100000Y-58120000D03*
X131100000Y-56850000D03*
X131100000Y-55580000D03*
X131100000Y-54310000D03*
%TD*%
D18*
%TO.C,C7*%
X198585000Y-78775000D03*
X198585000Y-80675000D03*
%TD*%
D12*
%TO.C,R6*%
X164750000Y-81137500D03*
X164750000Y-82962500D03*
%TD*%
D16*
%TO.C,R21*%
X106900000Y-77437500D03*
X108725000Y-77437500D03*
%TD*%
%TO.C,R22*%
X111187500Y-77237500D03*
X113012500Y-77237500D03*
%TD*%
%TO.C,R19*%
X202707500Y-75050000D03*
X204532500Y-75050000D03*
%TD*%
%TO.C,R16*%
X202757500Y-72800000D03*
X204582500Y-72800000D03*
%TD*%
D10*
%TO.C,R9*%
X149200000Y-70970000D03*
X149200000Y-69145000D03*
%TD*%
D27*
%TO.C,F2*%
X148150000Y-119955000D03*
X153050000Y-119955000D03*
%TD*%
D10*
%TO.C,R27*%
X114800000Y-65707500D03*
X114800000Y-63882500D03*
%TD*%
D12*
%TO.C,R29*%
X139250000Y-53687500D03*
X139250000Y-55512500D03*
%TD*%
D14*
%TO.C,C24*%
X134200000Y-57345000D03*
X136100000Y-57345000D03*
%TD*%
D18*
%TO.C,C28*%
X131750000Y-95750000D03*
X131750000Y-97650000D03*
%TD*%
D28*
%TO.C,C33*%
X206950000Y-115200000D03*
X206950000Y-120600000D03*
%TD*%
D12*
%TO.C,R10*%
X159550000Y-84895000D03*
X159550000Y-86720000D03*
%TD*%
D29*
%TO.C,IC6*%
X213925000Y-83075000D03*
D30*
X214900000Y-82350000D03*
X214900000Y-81850000D03*
X214900000Y-81350000D03*
X214900000Y-80850000D03*
X214900000Y-80350000D03*
D29*
X213925000Y-79625000D03*
X212425000Y-79625000D03*
D30*
X211450000Y-80350000D03*
X211450000Y-80850000D03*
X211450000Y-81350000D03*
X211450000Y-81850000D03*
X211450000Y-82350000D03*
D29*
X212425000Y-83075000D03*
D31*
X213175000Y-81350000D03*
%TD*%
D32*
%TO.C,D1*%
X183900000Y-115305000D03*
X183900000Y-122105000D03*
%TD*%
D33*
%TO.C,IC3*%
X174445000Y-94261000D03*
X175715000Y-94261000D03*
X176985000Y-94261000D03*
X178255000Y-94261000D03*
X178255000Y-88839000D03*
X176985000Y-88839000D03*
X175715000Y-88839000D03*
X174445000Y-88839000D03*
%TD*%
D18*
%TO.C,C10*%
X193570000Y-70550000D03*
X193570000Y-72450000D03*
%TD*%
%TO.C,C21*%
X117672500Y-59600000D03*
X117672500Y-61500000D03*
%TD*%
D34*
%TO.C,IC8*%
X223050000Y-108650000D03*
X223050000Y-109600000D03*
X223050000Y-110550000D03*
X225650000Y-110550000D03*
X225650000Y-108650000D03*
%TD*%
D35*
%TO.C,IC4*%
X123676000Y-93340000D03*
X123676000Y-94610000D03*
X123676000Y-95880000D03*
X123676000Y-97150000D03*
X129100000Y-97150000D03*
X129100000Y-95880000D03*
X129100000Y-94610000D03*
X129100000Y-93340000D03*
%TD*%
D13*
%TO.C,C37*%
X218600000Y-105650000D03*
X216700000Y-105650000D03*
%TD*%
D18*
%TO.C,C9*%
X193885000Y-82725000D03*
X193885000Y-84625000D03*
%TD*%
D15*
%TO.C,R26*%
X180450000Y-83272000D03*
X178625000Y-83272000D03*
%TD*%
D11*
%TO.C,C22*%
X115650000Y-56750000D03*
X115650000Y-54850000D03*
%TD*%
D36*
%TO.C,U1*%
X150700000Y-78152500D03*
X150700000Y-79422500D03*
X150700000Y-80692500D03*
X150700000Y-81962500D03*
X156100000Y-81962500D03*
X156100000Y-80692500D03*
X156100000Y-79422500D03*
X156100000Y-78152500D03*
%TD*%
D37*
%TO.C,D2*%
X156500000Y-115055000D03*
X153400000Y-115055000D03*
%TD*%
D38*
%TO.C,L1*%
X197250000Y-110650000D03*
X197250000Y-120150000D03*
%TD*%
D39*
%TO.C,D3*%
X164275000Y-110155000D03*
X159945000Y-110155000D03*
%TD*%
D14*
%TO.C,C29*%
X131150000Y-92550000D03*
X133050000Y-92550000D03*
%TD*%
D18*
%TO.C,C3*%
X160400000Y-70207500D03*
X160400000Y-72107500D03*
%TD*%
D11*
%TO.C,C25*%
X133650000Y-53895000D03*
X133650000Y-51995000D03*
%TD*%
D14*
%TO.C,C2*%
X156100000Y-73857500D03*
X158000000Y-73857500D03*
%TD*%
D12*
%TO.C,R2*%
X148050000Y-78987500D03*
X148050000Y-80812500D03*
%TD*%
D11*
%TO.C,C34*%
X208050000Y-111450000D03*
X208050000Y-109550000D03*
%TD*%
D14*
%TO.C,C31*%
X212375000Y-85050000D03*
X214275000Y-85050000D03*
%TD*%
D13*
%TO.C,C11*%
X195200000Y-74550000D03*
X193300000Y-74550000D03*
%TD*%
D18*
%TO.C,C6*%
X167100000Y-83400000D03*
X167100000Y-85300000D03*
%TD*%
%TO.C,C14*%
X180455000Y-88739000D03*
X180455000Y-90639000D03*
%TD*%
D13*
%TO.C,C17*%
X174650000Y-81100000D03*
X172750000Y-81100000D03*
%TD*%
D16*
%TO.C,R17*%
X202822500Y-86325000D03*
X204647500Y-86325000D03*
%TD*%
%TO.C,R30*%
X203737500Y-111200000D03*
X205562500Y-111200000D03*
%TD*%
D24*
%TO.C,IC1*%
X196200000Y-82625000D03*
X196200000Y-83275000D03*
X196200000Y-83925000D03*
X196200000Y-84575000D03*
X200600000Y-84575000D03*
X200600000Y-83925000D03*
X200600000Y-83275000D03*
X200600000Y-82625000D03*
%TD*%
M02*
