M48
; DRILL file {KiCad 9.0.6} date 2026-08-22T06:08:57+0100
; FORMAT={-:-/ absolute / metric / decimal}
; #@! TF.CreationDate,2026-08-22T06:08:57+01:00
; #@! TF.GenerationSoftware,Kicad,Pcbnew,9.0.6
; #@! TF.FileFunction,Plated,1,4,PTH
FMAT,2
METRIC
; #@! TA.AperFunction,Plated,PTH,ViaDrill
T1C0.300
; #@! TA.AperFunction,Plated,PTH,ViaDrill
T2C0.350
; #@! TA.AperFunction,Plated,PTH,ViaDrill
T3C0.400
; #@! TA.AperFunction,Plated,PTH,ViaDrill
T4C0.500
; #@! TA.AperFunction,Plated,PTH,ComponentDrill
T5C1.000
; #@! TA.AperFunction,Plated,PTH,ComponentDrill
T6C1.060
; #@! TA.AperFunction,Plated,PTH,ComponentDrill
T7C1.300
; #@! TA.AperFunction,Plated,PTH,ComponentDrill
T8C1.400
; #@! TA.AperFunction,Plated,PTH,ComponentDrill
T9C1.650
; #@! TA.AperFunction,Plated,PTH,ComponentDrill
T10C2.000
%
G90
G05
T1
X120.05Y-66.8
X131.35Y-64.2
X131.8Y-98.65
X133.85Y-55.45
X134.75Y-92.6
X135.1Y-51.95
X137.2Y-55.5
X152.2Y-80.8
X153.65Y-80.2
X157.65Y-80.1
X157.65Y-83.3
X177.2Y-112.55
X177.25Y-87.85
X177.5Y-86.575
X177.65Y-109.15
X181.905Y-85.639
X203.5Y-107.2
X205.9Y-76.25
X206.05Y-85.15
X207.7Y-73.2
X207.7Y-76.8
X210.65Y-76.1
X215.75Y-85.05
X216.534Y-85.207
X218.0Y-83.15
X220.3Y-75.95
X220.4Y-79.2
X220.85Y-77.75
X221.65Y-109.6
X222.142Y-79.642
X222.75Y-78.5
T2
X113.2Y-62.1
X115.4Y-53.45
X119.85Y-56.695
X120.0Y-54.0
X131.15Y-90.95
X132.8Y-55.1
X137.65Y-63.0
X139.85Y-63.05
X141.1Y-53.65
X149.05Y-82.2
X156.05Y-72.45
X159.5Y-76.05
X173.1Y-83.35
X176.9Y-79.15
X179.305Y-96.739
X181.05Y-72.72
X182.355Y-90.639
X191.7Y-72.7
X193.9Y-85.85
X198.65Y-65.5
X200.9Y-77.4
X212.35Y-86.55
X215.55Y-104.25
X216.65Y-74.4
X217.55Y-103.85
X218.7Y-102.8
X221.75Y-107.0
X224.1Y-105.0
X225.35Y-104.6
X225.5Y-77.15
X225.5Y-79.425
X229.4Y-106.6
X231.55Y-72.8
X232.9Y-104.6
T3
X119.5Y-60.55
X119.6Y-62.75
X137.9Y-120.35
X201.1Y-105.6
X205.5Y-105.6
T4
X99.95Y-61.85
X100.8Y-81.25
X101.65Y-65.2
X104.15Y-81.95
X164.3Y-106.6
X183.95Y-124.85
X206.95Y-123.65
X210.8Y-108.0
T5
X91.4Y-72.65
X94.6Y-65.15
X232.7Y-94.35
X232.7Y-96.89
X232.7Y-99.43
X232.7Y-101.97
T6
X229.05Y-74.97
X229.05Y-77.51
X229.05Y-80.05
X229.05Y-82.59
X229.05Y-85.13
X229.05Y-87.67
X231.59Y-74.97
X231.59Y-77.51
X231.59Y-80.05
X231.59Y-82.59
X231.59Y-85.13
X231.59Y-87.67
T7
X80.35Y-67.2
X80.35Y-79.7
T8
X65.55Y-66.64
X65.55Y-71.72
X65.99Y-94.123
X65.99Y-99.203
T9
X164.3Y-116.95
X168.9Y-116.95
T10
X139.65Y-85.85
X151.55Y-109.5
X187.8Y-61.4
X191.25Y-95.0
X208.1Y-98.6
X224.15Y-99.25
T5
G00X136.85Y-111.787
M15
G01X138.85Y-111.787
M16
G05
G00X136.85Y-117.987
M15
G01X138.85Y-117.987
M16
G05
G00X142.55Y-115.787
M15
G01X142.55Y-113.787
M16
G05
M30
