%TF.GenerationSoftware,KiCad,Pcbnew,9.0.6*%
%TF.CreationDate,2026-08-22T06:08:57+01:00*%
%TF.ProjectId,myProject,6d795072-6f6a-4656-9374-2e6b69636164,rev?*%
%TF.SameCoordinates,Original*%
%TF.FileFunction,Drillmap*%
%TF.FilePolarity,Positive*%
%FSLAX45Y45*%
G04 Gerber Fmt 4.5, Leading zero omitted, Abs format (unit mm)*
G04 Created by KiCad (PCBNEW 9.0.6) date 2026-08-22 06:08:57*
%MOMM*%
%LPD*%
G01*
G04 APERTURE LIST*
%ADD10C,0.050000*%
%ADD11C,0.200000*%
%ADD12C,0.180000*%
%ADD13C,0.250000*%
G04 APERTURE END LIST*
D10*
X5929151Y-5527038D02*
X5971783Y-12094381D01*
X6470628Y-12591134D02*
G75*
G02*
X5971785Y-12094381I1142J499994D01*
G01*
X22960035Y-5024965D02*
G75*
G02*
X23459995Y-5524965I-36J-499996D01*
G01*
X5929151Y-5527038D02*
G75*
G02*
X6429176Y-5023790I499989J3248D01*
G01*
X23460000Y-12128855D02*
G75*
G02*
X22958856Y-12628859I-500010J5D01*
G01*
X22960035Y-5024965D02*
X6429176Y-5023792D01*
X6470628Y-12591134D02*
X22958856Y-12628853D01*
X23460000Y-12128855D02*
X23460000Y-5524965D01*
D11*
D12*
X6895000Y-6394000D02*
X7075000Y-6574000D01*
X7075000Y-6394000D02*
X6895000Y-6574000D01*
X6895000Y-7255000D02*
X7075000Y-7435000D01*
X7075000Y-7255000D02*
X6895000Y-7435000D01*
X6939000Y-9142250D02*
X7119000Y-9322250D01*
X7119000Y-9142250D02*
X6939000Y-9322250D01*
X6939000Y-10003250D02*
X7119000Y-10183250D01*
X7119000Y-10003250D02*
X6939000Y-10183250D01*
D13*
X6554140Y-5523790D02*
G75*
G02*
X6304140Y-5523790I-125000J0D01*
G01*
X6304140Y-5523790D02*
G75*
G02*
X6554140Y-5523790I125000J0D01*
G01*
X6596770Y-12091140D02*
G75*
G02*
X6346770Y-12091140I-125000J0D01*
G01*
X6346770Y-12091140D02*
G75*
G02*
X6596770Y-12091140I125000J0D01*
G01*
X23085000Y-5524960D02*
G75*
G02*
X22835000Y-5524960I-125000J0D01*
G01*
X22835000Y-5524960D02*
G75*
G02*
X23085000Y-5524960I125000J0D01*
G01*
X23085000Y-12128850D02*
G75*
G02*
X22835000Y-12128850I-125000J0D01*
G01*
X22835000Y-12128850D02*
G75*
G02*
X23085000Y-12128850I125000J0D01*
G01*
D11*
X6187417Y-12942844D02*
X6187417Y-12742844D01*
X6187417Y-12742844D02*
X6235036Y-12742844D01*
X6235036Y-12742844D02*
X6263608Y-12752368D01*
X6263608Y-12752368D02*
X6282655Y-12771415D01*
X6282655Y-12771415D02*
X6292179Y-12790463D01*
X6292179Y-12790463D02*
X6301703Y-12828558D01*
X6301703Y-12828558D02*
X6301703Y-12857129D01*
X6301703Y-12857129D02*
X6292179Y-12895225D01*
X6292179Y-12895225D02*
X6282655Y-12914272D01*
X6282655Y-12914272D02*
X6263608Y-12933320D01*
X6263608Y-12933320D02*
X6235036Y-12942844D01*
X6235036Y-12942844D02*
X6187417Y-12942844D01*
X6387417Y-12942844D02*
X6387417Y-12809510D01*
X6387417Y-12847606D02*
X6396941Y-12828558D01*
X6396941Y-12828558D02*
X6406465Y-12819034D01*
X6406465Y-12819034D02*
X6425512Y-12809510D01*
X6425512Y-12809510D02*
X6444560Y-12809510D01*
X6511227Y-12942844D02*
X6511227Y-12809510D01*
X6511227Y-12742844D02*
X6501703Y-12752368D01*
X6501703Y-12752368D02*
X6511227Y-12761891D01*
X6511227Y-12761891D02*
X6520750Y-12752368D01*
X6520750Y-12752368D02*
X6511227Y-12742844D01*
X6511227Y-12742844D02*
X6511227Y-12761891D01*
X6635036Y-12942844D02*
X6615988Y-12933320D01*
X6615988Y-12933320D02*
X6606465Y-12914272D01*
X6606465Y-12914272D02*
X6606465Y-12742844D01*
X6739798Y-12942844D02*
X6720750Y-12933320D01*
X6720750Y-12933320D02*
X6711227Y-12914272D01*
X6711227Y-12914272D02*
X6711227Y-12742844D01*
X6968369Y-12942844D02*
X6968369Y-12742844D01*
X6968369Y-12742844D02*
X7035036Y-12885701D01*
X7035036Y-12885701D02*
X7101703Y-12742844D01*
X7101703Y-12742844D02*
X7101703Y-12942844D01*
X7282655Y-12942844D02*
X7282655Y-12838082D01*
X7282655Y-12838082D02*
X7273131Y-12819034D01*
X7273131Y-12819034D02*
X7254084Y-12809510D01*
X7254084Y-12809510D02*
X7215988Y-12809510D01*
X7215988Y-12809510D02*
X7196941Y-12819034D01*
X7282655Y-12933320D02*
X7263608Y-12942844D01*
X7263608Y-12942844D02*
X7215988Y-12942844D01*
X7215988Y-12942844D02*
X7196941Y-12933320D01*
X7196941Y-12933320D02*
X7187417Y-12914272D01*
X7187417Y-12914272D02*
X7187417Y-12895225D01*
X7187417Y-12895225D02*
X7196941Y-12876177D01*
X7196941Y-12876177D02*
X7215988Y-12866653D01*
X7215988Y-12866653D02*
X7263608Y-12866653D01*
X7263608Y-12866653D02*
X7282655Y-12857129D01*
X7377893Y-12809510D02*
X7377893Y-13009510D01*
X7377893Y-12819034D02*
X7396941Y-12809510D01*
X7396941Y-12809510D02*
X7435036Y-12809510D01*
X7435036Y-12809510D02*
X7454084Y-12819034D01*
X7454084Y-12819034D02*
X7463608Y-12828558D01*
X7463608Y-12828558D02*
X7473131Y-12847606D01*
X7473131Y-12847606D02*
X7473131Y-12904748D01*
X7473131Y-12904748D02*
X7463608Y-12923796D01*
X7463608Y-12923796D02*
X7454084Y-12933320D01*
X7454084Y-12933320D02*
X7435036Y-12942844D01*
X7435036Y-12942844D02*
X7396941Y-12942844D01*
X7396941Y-12942844D02*
X7377893Y-12933320D01*
X7558846Y-12923796D02*
X7568369Y-12933320D01*
X7568369Y-12933320D02*
X7558846Y-12942844D01*
X7558846Y-12942844D02*
X7549322Y-12933320D01*
X7549322Y-12933320D02*
X7558846Y-12923796D01*
X7558846Y-12923796D02*
X7558846Y-12942844D01*
X7558846Y-12819034D02*
X7568369Y-12828558D01*
X7568369Y-12828558D02*
X7558846Y-12838082D01*
X7558846Y-12838082D02*
X7549322Y-12828558D01*
X7549322Y-12828558D02*
X7558846Y-12819034D01*
X7558846Y-12819034D02*
X7558846Y-12838082D01*
D12*
X5746640Y-13181360D02*
X5926640Y-13361360D01*
X5926640Y-13181360D02*
X5746640Y-13361360D01*
D11*
X6292179Y-13362844D02*
X6177893Y-13362844D01*
X6235036Y-13362844D02*
X6235036Y-13162844D01*
X6235036Y-13162844D02*
X6215988Y-13191415D01*
X6215988Y-13191415D02*
X6196941Y-13210463D01*
X6196941Y-13210463D02*
X6177893Y-13219987D01*
X6377893Y-13343796D02*
X6387417Y-13353320D01*
X6387417Y-13353320D02*
X6377893Y-13362844D01*
X6377893Y-13362844D02*
X6368369Y-13353320D01*
X6368369Y-13353320D02*
X6377893Y-13343796D01*
X6377893Y-13343796D02*
X6377893Y-13362844D01*
X6501703Y-13248558D02*
X6482655Y-13239034D01*
X6482655Y-13239034D02*
X6473131Y-13229510D01*
X6473131Y-13229510D02*
X6463608Y-13210463D01*
X6463608Y-13210463D02*
X6463608Y-13200939D01*
X6463608Y-13200939D02*
X6473131Y-13181891D01*
X6473131Y-13181891D02*
X6482655Y-13172368D01*
X6482655Y-13172368D02*
X6501703Y-13162844D01*
X6501703Y-13162844D02*
X6539798Y-13162844D01*
X6539798Y-13162844D02*
X6558846Y-13172368D01*
X6558846Y-13172368D02*
X6568369Y-13181891D01*
X6568369Y-13181891D02*
X6577893Y-13200939D01*
X6577893Y-13200939D02*
X6577893Y-13210463D01*
X6577893Y-13210463D02*
X6568369Y-13229510D01*
X6568369Y-13229510D02*
X6558846Y-13239034D01*
X6558846Y-13239034D02*
X6539798Y-13248558D01*
X6539798Y-13248558D02*
X6501703Y-13248558D01*
X6501703Y-13248558D02*
X6482655Y-13258082D01*
X6482655Y-13258082D02*
X6473131Y-13267606D01*
X6473131Y-13267606D02*
X6463608Y-13286653D01*
X6463608Y-13286653D02*
X6463608Y-13324748D01*
X6463608Y-13324748D02*
X6473131Y-13343796D01*
X6473131Y-13343796D02*
X6482655Y-13353320D01*
X6482655Y-13353320D02*
X6501703Y-13362844D01*
X6501703Y-13362844D02*
X6539798Y-13362844D01*
X6539798Y-13362844D02*
X6558846Y-13353320D01*
X6558846Y-13353320D02*
X6568369Y-13343796D01*
X6568369Y-13343796D02*
X6577893Y-13324748D01*
X6577893Y-13324748D02*
X6577893Y-13286653D01*
X6577893Y-13286653D02*
X6568369Y-13267606D01*
X6568369Y-13267606D02*
X6558846Y-13258082D01*
X6558846Y-13258082D02*
X6539798Y-13248558D01*
X6701703Y-13162844D02*
X6720750Y-13162844D01*
X6720750Y-13162844D02*
X6739798Y-13172368D01*
X6739798Y-13172368D02*
X6749322Y-13181891D01*
X6749322Y-13181891D02*
X6758846Y-13200939D01*
X6758846Y-13200939D02*
X6768369Y-13239034D01*
X6768369Y-13239034D02*
X6768369Y-13286653D01*
X6768369Y-13286653D02*
X6758846Y-13324748D01*
X6758846Y-13324748D02*
X6749322Y-13343796D01*
X6749322Y-13343796D02*
X6739798Y-13353320D01*
X6739798Y-13353320D02*
X6720750Y-13362844D01*
X6720750Y-13362844D02*
X6701703Y-13362844D01*
X6701703Y-13362844D02*
X6682655Y-13353320D01*
X6682655Y-13353320D02*
X6673131Y-13343796D01*
X6673131Y-13343796D02*
X6663608Y-13324748D01*
X6663608Y-13324748D02*
X6654084Y-13286653D01*
X6654084Y-13286653D02*
X6654084Y-13239034D01*
X6654084Y-13239034D02*
X6663608Y-13200939D01*
X6663608Y-13200939D02*
X6673131Y-13181891D01*
X6673131Y-13181891D02*
X6682655Y-13172368D01*
X6682655Y-13172368D02*
X6701703Y-13162844D01*
X6892179Y-13162844D02*
X6911227Y-13162844D01*
X6911227Y-13162844D02*
X6930274Y-13172368D01*
X6930274Y-13172368D02*
X6939798Y-13181891D01*
X6939798Y-13181891D02*
X6949322Y-13200939D01*
X6949322Y-13200939D02*
X6958846Y-13239034D01*
X6958846Y-13239034D02*
X6958846Y-13286653D01*
X6958846Y-13286653D02*
X6949322Y-13324748D01*
X6949322Y-13324748D02*
X6939798Y-13343796D01*
X6939798Y-13343796D02*
X6930274Y-13353320D01*
X6930274Y-13353320D02*
X6911227Y-13362844D01*
X6911227Y-13362844D02*
X6892179Y-13362844D01*
X6892179Y-13362844D02*
X6873131Y-13353320D01*
X6873131Y-13353320D02*
X6863608Y-13343796D01*
X6863608Y-13343796D02*
X6854084Y-13324748D01*
X6854084Y-13324748D02*
X6844560Y-13286653D01*
X6844560Y-13286653D02*
X6844560Y-13239034D01*
X6844560Y-13239034D02*
X6854084Y-13200939D01*
X6854084Y-13200939D02*
X6863608Y-13181891D01*
X6863608Y-13181891D02*
X6873131Y-13172368D01*
X6873131Y-13172368D02*
X6892179Y-13162844D01*
X7044560Y-13362844D02*
X7044560Y-13229510D01*
X7044560Y-13248558D02*
X7054084Y-13239034D01*
X7054084Y-13239034D02*
X7073131Y-13229510D01*
X7073131Y-13229510D02*
X7101703Y-13229510D01*
X7101703Y-13229510D02*
X7120750Y-13239034D01*
X7120750Y-13239034D02*
X7130274Y-13258082D01*
X7130274Y-13258082D02*
X7130274Y-13362844D01*
X7130274Y-13258082D02*
X7139798Y-13239034D01*
X7139798Y-13239034D02*
X7158846Y-13229510D01*
X7158846Y-13229510D02*
X7187417Y-13229510D01*
X7187417Y-13229510D02*
X7206465Y-13239034D01*
X7206465Y-13239034D02*
X7215989Y-13258082D01*
X7215989Y-13258082D02*
X7215989Y-13362844D01*
X7311227Y-13362844D02*
X7311227Y-13229510D01*
X7311227Y-13248558D02*
X7320750Y-13239034D01*
X7320750Y-13239034D02*
X7339798Y-13229510D01*
X7339798Y-13229510D02*
X7368370Y-13229510D01*
X7368370Y-13229510D02*
X7387417Y-13239034D01*
X7387417Y-13239034D02*
X7396941Y-13258082D01*
X7396941Y-13258082D02*
X7396941Y-13362844D01*
X7396941Y-13258082D02*
X7406465Y-13239034D01*
X7406465Y-13239034D02*
X7425512Y-13229510D01*
X7425512Y-13229510D02*
X7454084Y-13229510D01*
X7454084Y-13229510D02*
X7473131Y-13239034D01*
X7473131Y-13239034D02*
X7482655Y-13258082D01*
X7482655Y-13258082D02*
X7482655Y-13362844D01*
X7873131Y-13153320D02*
X7701703Y-13410463D01*
X8130274Y-13162844D02*
X8149322Y-13162844D01*
X8149322Y-13162844D02*
X8168370Y-13172368D01*
X8168370Y-13172368D02*
X8177893Y-13181891D01*
X8177893Y-13181891D02*
X8187417Y-13200939D01*
X8187417Y-13200939D02*
X8196941Y-13239034D01*
X8196941Y-13239034D02*
X8196941Y-13286653D01*
X8196941Y-13286653D02*
X8187417Y-13324748D01*
X8187417Y-13324748D02*
X8177893Y-13343796D01*
X8177893Y-13343796D02*
X8168370Y-13353320D01*
X8168370Y-13353320D02*
X8149322Y-13362844D01*
X8149322Y-13362844D02*
X8130274Y-13362844D01*
X8130274Y-13362844D02*
X8111227Y-13353320D01*
X8111227Y-13353320D02*
X8101703Y-13343796D01*
X8101703Y-13343796D02*
X8092179Y-13324748D01*
X8092179Y-13324748D02*
X8082655Y-13286653D01*
X8082655Y-13286653D02*
X8082655Y-13239034D01*
X8082655Y-13239034D02*
X8092179Y-13200939D01*
X8092179Y-13200939D02*
X8101703Y-13181891D01*
X8101703Y-13181891D02*
X8111227Y-13172368D01*
X8111227Y-13172368D02*
X8130274Y-13162844D01*
X8282655Y-13343796D02*
X8292179Y-13353320D01*
X8292179Y-13353320D02*
X8282655Y-13362844D01*
X8282655Y-13362844D02*
X8273132Y-13353320D01*
X8273132Y-13353320D02*
X8282655Y-13343796D01*
X8282655Y-13343796D02*
X8282655Y-13362844D01*
X8415989Y-13162844D02*
X8435036Y-13162844D01*
X8435036Y-13162844D02*
X8454084Y-13172368D01*
X8454084Y-13172368D02*
X8463608Y-13181891D01*
X8463608Y-13181891D02*
X8473132Y-13200939D01*
X8473132Y-13200939D02*
X8482655Y-13239034D01*
X8482655Y-13239034D02*
X8482655Y-13286653D01*
X8482655Y-13286653D02*
X8473132Y-13324748D01*
X8473132Y-13324748D02*
X8463608Y-13343796D01*
X8463608Y-13343796D02*
X8454084Y-13353320D01*
X8454084Y-13353320D02*
X8435036Y-13362844D01*
X8435036Y-13362844D02*
X8415989Y-13362844D01*
X8415989Y-13362844D02*
X8396941Y-13353320D01*
X8396941Y-13353320D02*
X8387417Y-13343796D01*
X8387417Y-13343796D02*
X8377893Y-13324748D01*
X8377893Y-13324748D02*
X8368370Y-13286653D01*
X8368370Y-13286653D02*
X8368370Y-13239034D01*
X8368370Y-13239034D02*
X8377893Y-13200939D01*
X8377893Y-13200939D02*
X8387417Y-13181891D01*
X8387417Y-13181891D02*
X8396941Y-13172368D01*
X8396941Y-13172368D02*
X8415989Y-13162844D01*
X8549322Y-13162844D02*
X8682655Y-13162844D01*
X8682655Y-13162844D02*
X8596941Y-13362844D01*
X8796941Y-13162844D02*
X8815989Y-13162844D01*
X8815989Y-13162844D02*
X8835036Y-13172368D01*
X8835036Y-13172368D02*
X8844560Y-13181891D01*
X8844560Y-13181891D02*
X8854084Y-13200939D01*
X8854084Y-13200939D02*
X8863608Y-13239034D01*
X8863608Y-13239034D02*
X8863608Y-13286653D01*
X8863608Y-13286653D02*
X8854084Y-13324748D01*
X8854084Y-13324748D02*
X8844560Y-13343796D01*
X8844560Y-13343796D02*
X8835036Y-13353320D01*
X8835036Y-13353320D02*
X8815989Y-13362844D01*
X8815989Y-13362844D02*
X8796941Y-13362844D01*
X8796941Y-13362844D02*
X8777894Y-13353320D01*
X8777894Y-13353320D02*
X8768370Y-13343796D01*
X8768370Y-13343796D02*
X8758846Y-13324748D01*
X8758846Y-13324748D02*
X8749322Y-13286653D01*
X8749322Y-13286653D02*
X8749322Y-13239034D01*
X8749322Y-13239034D02*
X8758846Y-13200939D01*
X8758846Y-13200939D02*
X8768370Y-13181891D01*
X8768370Y-13181891D02*
X8777894Y-13172368D01*
X8777894Y-13172368D02*
X8796941Y-13162844D01*
X8958846Y-13362844D02*
X8996941Y-13362844D01*
X8996941Y-13362844D02*
X9015989Y-13353320D01*
X9015989Y-13353320D02*
X9025513Y-13343796D01*
X9025513Y-13343796D02*
X9044560Y-13315225D01*
X9044560Y-13315225D02*
X9054084Y-13277129D01*
X9054084Y-13277129D02*
X9054084Y-13200939D01*
X9054084Y-13200939D02*
X9044560Y-13181891D01*
X9044560Y-13181891D02*
X9035036Y-13172368D01*
X9035036Y-13172368D02*
X9015989Y-13162844D01*
X9015989Y-13162844D02*
X8977894Y-13162844D01*
X8977894Y-13162844D02*
X8958846Y-13172368D01*
X8958846Y-13172368D02*
X8949322Y-13181891D01*
X8949322Y-13181891D02*
X8939798Y-13200939D01*
X8939798Y-13200939D02*
X8939798Y-13248558D01*
X8939798Y-13248558D02*
X8949322Y-13267606D01*
X8949322Y-13267606D02*
X8958846Y-13277129D01*
X8958846Y-13277129D02*
X8977894Y-13286653D01*
X8977894Y-13286653D02*
X9015989Y-13286653D01*
X9015989Y-13286653D02*
X9035036Y-13277129D01*
X9035036Y-13277129D02*
X9044560Y-13267606D01*
X9044560Y-13267606D02*
X9054084Y-13248558D01*
X9130275Y-13162844D02*
X9130275Y-13200939D01*
X9206465Y-13162844D02*
X9206465Y-13200939D01*
X9501703Y-13439034D02*
X9492179Y-13429510D01*
X9492179Y-13429510D02*
X9473132Y-13400939D01*
X9473132Y-13400939D02*
X9463608Y-13381891D01*
X9463608Y-13381891D02*
X9454084Y-13353320D01*
X9454084Y-13353320D02*
X9444560Y-13305701D01*
X9444560Y-13305701D02*
X9444560Y-13267606D01*
X9444560Y-13267606D02*
X9454084Y-13219987D01*
X9454084Y-13219987D02*
X9463608Y-13191415D01*
X9463608Y-13191415D02*
X9473132Y-13172368D01*
X9473132Y-13172368D02*
X9492179Y-13143796D01*
X9492179Y-13143796D02*
X9501703Y-13134272D01*
X9663608Y-13229510D02*
X9663608Y-13362844D01*
X9615989Y-13153320D02*
X9568370Y-13296177D01*
X9568370Y-13296177D02*
X9692179Y-13296177D01*
X9920751Y-13362844D02*
X9920751Y-13162844D01*
X10006465Y-13362844D02*
X10006465Y-13258082D01*
X10006465Y-13258082D02*
X9996941Y-13239034D01*
X9996941Y-13239034D02*
X9977894Y-13229510D01*
X9977894Y-13229510D02*
X9949322Y-13229510D01*
X9949322Y-13229510D02*
X9930275Y-13239034D01*
X9930275Y-13239034D02*
X9920751Y-13248558D01*
X10130275Y-13362844D02*
X10111227Y-13353320D01*
X10111227Y-13353320D02*
X10101703Y-13343796D01*
X10101703Y-13343796D02*
X10092179Y-13324748D01*
X10092179Y-13324748D02*
X10092179Y-13267606D01*
X10092179Y-13267606D02*
X10101703Y-13248558D01*
X10101703Y-13248558D02*
X10111227Y-13239034D01*
X10111227Y-13239034D02*
X10130275Y-13229510D01*
X10130275Y-13229510D02*
X10158846Y-13229510D01*
X10158846Y-13229510D02*
X10177894Y-13239034D01*
X10177894Y-13239034D02*
X10187418Y-13248558D01*
X10187418Y-13248558D02*
X10196941Y-13267606D01*
X10196941Y-13267606D02*
X10196941Y-13324748D01*
X10196941Y-13324748D02*
X10187418Y-13343796D01*
X10187418Y-13343796D02*
X10177894Y-13353320D01*
X10177894Y-13353320D02*
X10158846Y-13362844D01*
X10158846Y-13362844D02*
X10130275Y-13362844D01*
X10311227Y-13362844D02*
X10292179Y-13353320D01*
X10292179Y-13353320D02*
X10282656Y-13334272D01*
X10282656Y-13334272D02*
X10282656Y-13162844D01*
X10463608Y-13353320D02*
X10444560Y-13362844D01*
X10444560Y-13362844D02*
X10406465Y-13362844D01*
X10406465Y-13362844D02*
X10387418Y-13353320D01*
X10387418Y-13353320D02*
X10377894Y-13334272D01*
X10377894Y-13334272D02*
X10377894Y-13258082D01*
X10377894Y-13258082D02*
X10387418Y-13239034D01*
X10387418Y-13239034D02*
X10406465Y-13229510D01*
X10406465Y-13229510D02*
X10444560Y-13229510D01*
X10444560Y-13229510D02*
X10463608Y-13239034D01*
X10463608Y-13239034D02*
X10473132Y-13258082D01*
X10473132Y-13258082D02*
X10473132Y-13277129D01*
X10473132Y-13277129D02*
X10377894Y-13296177D01*
X10549322Y-13353320D02*
X10568370Y-13362844D01*
X10568370Y-13362844D02*
X10606465Y-13362844D01*
X10606465Y-13362844D02*
X10625513Y-13353320D01*
X10625513Y-13353320D02*
X10635037Y-13334272D01*
X10635037Y-13334272D02*
X10635037Y-13324748D01*
X10635037Y-13324748D02*
X10625513Y-13305701D01*
X10625513Y-13305701D02*
X10606465Y-13296177D01*
X10606465Y-13296177D02*
X10577894Y-13296177D01*
X10577894Y-13296177D02*
X10558846Y-13286653D01*
X10558846Y-13286653D02*
X10549322Y-13267606D01*
X10549322Y-13267606D02*
X10549322Y-13258082D01*
X10549322Y-13258082D02*
X10558846Y-13239034D01*
X10558846Y-13239034D02*
X10577894Y-13229510D01*
X10577894Y-13229510D02*
X10606465Y-13229510D01*
X10606465Y-13229510D02*
X10625513Y-13239034D01*
X10701703Y-13439034D02*
X10711227Y-13429510D01*
X10711227Y-13429510D02*
X10730275Y-13400939D01*
X10730275Y-13400939D02*
X10739799Y-13381891D01*
X10739799Y-13381891D02*
X10749322Y-13353320D01*
X10749322Y-13353320D02*
X10758846Y-13305701D01*
X10758846Y-13305701D02*
X10758846Y-13267606D01*
X10758846Y-13267606D02*
X10749322Y-13219987D01*
X10749322Y-13219987D02*
X10739799Y-13191415D01*
X10739799Y-13191415D02*
X10730275Y-13172368D01*
X10730275Y-13172368D02*
X10711227Y-13143796D01*
X10711227Y-13143796D02*
X10701703Y-13134272D01*
X11063608Y-13439034D02*
X11054084Y-13429510D01*
X11054084Y-13429510D02*
X11035037Y-13400939D01*
X11035037Y-13400939D02*
X11025513Y-13381891D01*
X11025513Y-13381891D02*
X11015989Y-13353320D01*
X11015989Y-13353320D02*
X11006465Y-13305701D01*
X11006465Y-13305701D02*
X11006465Y-13267606D01*
X11006465Y-13267606D02*
X11015989Y-13219987D01*
X11015989Y-13219987D02*
X11025513Y-13191415D01*
X11025513Y-13191415D02*
X11035037Y-13172368D01*
X11035037Y-13172368D02*
X11054084Y-13143796D01*
X11054084Y-13143796D02*
X11063608Y-13134272D01*
X11139799Y-13229510D02*
X11139799Y-13362844D01*
X11139799Y-13248558D02*
X11149322Y-13239034D01*
X11149322Y-13239034D02*
X11168370Y-13229510D01*
X11168370Y-13229510D02*
X11196941Y-13229510D01*
X11196941Y-13229510D02*
X11215989Y-13239034D01*
X11215989Y-13239034D02*
X11225513Y-13258082D01*
X11225513Y-13258082D02*
X11225513Y-13362844D01*
X11349322Y-13362844D02*
X11330275Y-13353320D01*
X11330275Y-13353320D02*
X11320751Y-13343796D01*
X11320751Y-13343796D02*
X11311227Y-13324748D01*
X11311227Y-13324748D02*
X11311227Y-13267606D01*
X11311227Y-13267606D02*
X11320751Y-13248558D01*
X11320751Y-13248558D02*
X11330275Y-13239034D01*
X11330275Y-13239034D02*
X11349322Y-13229510D01*
X11349322Y-13229510D02*
X11377894Y-13229510D01*
X11377894Y-13229510D02*
X11396941Y-13239034D01*
X11396941Y-13239034D02*
X11406465Y-13248558D01*
X11406465Y-13248558D02*
X11415989Y-13267606D01*
X11415989Y-13267606D02*
X11415989Y-13324748D01*
X11415989Y-13324748D02*
X11406465Y-13343796D01*
X11406465Y-13343796D02*
X11396941Y-13353320D01*
X11396941Y-13353320D02*
X11377894Y-13362844D01*
X11377894Y-13362844D02*
X11349322Y-13362844D01*
X11473132Y-13229510D02*
X11549322Y-13229510D01*
X11501703Y-13162844D02*
X11501703Y-13334272D01*
X11501703Y-13334272D02*
X11511227Y-13353320D01*
X11511227Y-13353320D02*
X11530275Y-13362844D01*
X11530275Y-13362844D02*
X11549322Y-13362844D01*
X11768370Y-13229510D02*
X11768370Y-13429510D01*
X11768370Y-13239034D02*
X11787418Y-13229510D01*
X11787418Y-13229510D02*
X11825513Y-13229510D01*
X11825513Y-13229510D02*
X11844560Y-13239034D01*
X11844560Y-13239034D02*
X11854084Y-13248558D01*
X11854084Y-13248558D02*
X11863608Y-13267606D01*
X11863608Y-13267606D02*
X11863608Y-13324748D01*
X11863608Y-13324748D02*
X11854084Y-13343796D01*
X11854084Y-13343796D02*
X11844560Y-13353320D01*
X11844560Y-13353320D02*
X11825513Y-13362844D01*
X11825513Y-13362844D02*
X11787418Y-13362844D01*
X11787418Y-13362844D02*
X11768370Y-13353320D01*
X11977894Y-13362844D02*
X11958846Y-13353320D01*
X11958846Y-13353320D02*
X11949322Y-13334272D01*
X11949322Y-13334272D02*
X11949322Y-13162844D01*
X12139799Y-13362844D02*
X12139799Y-13258082D01*
X12139799Y-13258082D02*
X12130275Y-13239034D01*
X12130275Y-13239034D02*
X12111227Y-13229510D01*
X12111227Y-13229510D02*
X12073132Y-13229510D01*
X12073132Y-13229510D02*
X12054084Y-13239034D01*
X12139799Y-13353320D02*
X12120751Y-13362844D01*
X12120751Y-13362844D02*
X12073132Y-13362844D01*
X12073132Y-13362844D02*
X12054084Y-13353320D01*
X12054084Y-13353320D02*
X12044560Y-13334272D01*
X12044560Y-13334272D02*
X12044560Y-13315225D01*
X12044560Y-13315225D02*
X12054084Y-13296177D01*
X12054084Y-13296177D02*
X12073132Y-13286653D01*
X12073132Y-13286653D02*
X12120751Y-13286653D01*
X12120751Y-13286653D02*
X12139799Y-13277129D01*
X12206465Y-13229510D02*
X12282656Y-13229510D01*
X12235037Y-13162844D02*
X12235037Y-13334272D01*
X12235037Y-13334272D02*
X12244560Y-13353320D01*
X12244560Y-13353320D02*
X12263608Y-13362844D01*
X12263608Y-13362844D02*
X12282656Y-13362844D01*
X12425513Y-13353320D02*
X12406465Y-13362844D01*
X12406465Y-13362844D02*
X12368370Y-13362844D01*
X12368370Y-13362844D02*
X12349322Y-13353320D01*
X12349322Y-13353320D02*
X12339799Y-13334272D01*
X12339799Y-13334272D02*
X12339799Y-13258082D01*
X12339799Y-13258082D02*
X12349322Y-13239034D01*
X12349322Y-13239034D02*
X12368370Y-13229510D01*
X12368370Y-13229510D02*
X12406465Y-13229510D01*
X12406465Y-13229510D02*
X12425513Y-13239034D01*
X12425513Y-13239034D02*
X12435037Y-13258082D01*
X12435037Y-13258082D02*
X12435037Y-13277129D01*
X12435037Y-13277129D02*
X12339799Y-13296177D01*
X12606465Y-13362844D02*
X12606465Y-13162844D01*
X12606465Y-13353320D02*
X12587418Y-13362844D01*
X12587418Y-13362844D02*
X12549322Y-13362844D01*
X12549322Y-13362844D02*
X12530275Y-13353320D01*
X12530275Y-13353320D02*
X12520751Y-13343796D01*
X12520751Y-13343796D02*
X12511227Y-13324748D01*
X12511227Y-13324748D02*
X12511227Y-13267606D01*
X12511227Y-13267606D02*
X12520751Y-13248558D01*
X12520751Y-13248558D02*
X12530275Y-13239034D01*
X12530275Y-13239034D02*
X12549322Y-13229510D01*
X12549322Y-13229510D02*
X12587418Y-13229510D01*
X12587418Y-13229510D02*
X12606465Y-13239034D01*
X12682656Y-13439034D02*
X12692180Y-13429510D01*
X12692180Y-13429510D02*
X12711227Y-13400939D01*
X12711227Y-13400939D02*
X12720751Y-13381891D01*
X12720751Y-13381891D02*
X12730275Y-13353320D01*
X12730275Y-13353320D02*
X12739799Y-13305701D01*
X12739799Y-13305701D02*
X12739799Y-13267606D01*
X12739799Y-13267606D02*
X12730275Y-13219987D01*
X12730275Y-13219987D02*
X12720751Y-13191415D01*
X12720751Y-13191415D02*
X12711227Y-13172368D01*
X12711227Y-13172368D02*
X12692180Y-13143796D01*
X12692180Y-13143796D02*
X12682656Y-13134272D01*
X5926640Y-13571360D02*
G75*
G02*
X5726640Y-13571360I-100000J0D01*
G01*
X5726640Y-13571360D02*
G75*
G02*
X5926640Y-13571360I100000J0D01*
G01*
X6177893Y-13481891D02*
X6187417Y-13472368D01*
X6187417Y-13472368D02*
X6206465Y-13462844D01*
X6206465Y-13462844D02*
X6254084Y-13462844D01*
X6254084Y-13462844D02*
X6273131Y-13472368D01*
X6273131Y-13472368D02*
X6282655Y-13481891D01*
X6282655Y-13481891D02*
X6292179Y-13500939D01*
X6292179Y-13500939D02*
X6292179Y-13519987D01*
X6292179Y-13519987D02*
X6282655Y-13548558D01*
X6282655Y-13548558D02*
X6168369Y-13662844D01*
X6168369Y-13662844D02*
X6292179Y-13662844D01*
X6377893Y-13643796D02*
X6387417Y-13653320D01*
X6387417Y-13653320D02*
X6377893Y-13662844D01*
X6377893Y-13662844D02*
X6368369Y-13653320D01*
X6368369Y-13653320D02*
X6377893Y-13643796D01*
X6377893Y-13643796D02*
X6377893Y-13662844D01*
X6568369Y-13462844D02*
X6473131Y-13462844D01*
X6473131Y-13462844D02*
X6463608Y-13558082D01*
X6463608Y-13558082D02*
X6473131Y-13548558D01*
X6473131Y-13548558D02*
X6492179Y-13539034D01*
X6492179Y-13539034D02*
X6539798Y-13539034D01*
X6539798Y-13539034D02*
X6558846Y-13548558D01*
X6558846Y-13548558D02*
X6568369Y-13558082D01*
X6568369Y-13558082D02*
X6577893Y-13577129D01*
X6577893Y-13577129D02*
X6577893Y-13624748D01*
X6577893Y-13624748D02*
X6568369Y-13643796D01*
X6568369Y-13643796D02*
X6558846Y-13653320D01*
X6558846Y-13653320D02*
X6539798Y-13662844D01*
X6539798Y-13662844D02*
X6492179Y-13662844D01*
X6492179Y-13662844D02*
X6473131Y-13653320D01*
X6473131Y-13653320D02*
X6463608Y-13643796D01*
X6701703Y-13462844D02*
X6720750Y-13462844D01*
X6720750Y-13462844D02*
X6739798Y-13472368D01*
X6739798Y-13472368D02*
X6749322Y-13481891D01*
X6749322Y-13481891D02*
X6758846Y-13500939D01*
X6758846Y-13500939D02*
X6768369Y-13539034D01*
X6768369Y-13539034D02*
X6768369Y-13586653D01*
X6768369Y-13586653D02*
X6758846Y-13624748D01*
X6758846Y-13624748D02*
X6749322Y-13643796D01*
X6749322Y-13643796D02*
X6739798Y-13653320D01*
X6739798Y-13653320D02*
X6720750Y-13662844D01*
X6720750Y-13662844D02*
X6701703Y-13662844D01*
X6701703Y-13662844D02*
X6682655Y-13653320D01*
X6682655Y-13653320D02*
X6673131Y-13643796D01*
X6673131Y-13643796D02*
X6663608Y-13624748D01*
X6663608Y-13624748D02*
X6654084Y-13586653D01*
X6654084Y-13586653D02*
X6654084Y-13539034D01*
X6654084Y-13539034D02*
X6663608Y-13500939D01*
X6663608Y-13500939D02*
X6673131Y-13481891D01*
X6673131Y-13481891D02*
X6682655Y-13472368D01*
X6682655Y-13472368D02*
X6701703Y-13462844D01*
X6892179Y-13462844D02*
X6911227Y-13462844D01*
X6911227Y-13462844D02*
X6930274Y-13472368D01*
X6930274Y-13472368D02*
X6939798Y-13481891D01*
X6939798Y-13481891D02*
X6949322Y-13500939D01*
X6949322Y-13500939D02*
X6958846Y-13539034D01*
X6958846Y-13539034D02*
X6958846Y-13586653D01*
X6958846Y-13586653D02*
X6949322Y-13624748D01*
X6949322Y-13624748D02*
X6939798Y-13643796D01*
X6939798Y-13643796D02*
X6930274Y-13653320D01*
X6930274Y-13653320D02*
X6911227Y-13662844D01*
X6911227Y-13662844D02*
X6892179Y-13662844D01*
X6892179Y-13662844D02*
X6873131Y-13653320D01*
X6873131Y-13653320D02*
X6863608Y-13643796D01*
X6863608Y-13643796D02*
X6854084Y-13624748D01*
X6854084Y-13624748D02*
X6844560Y-13586653D01*
X6844560Y-13586653D02*
X6844560Y-13539034D01*
X6844560Y-13539034D02*
X6854084Y-13500939D01*
X6854084Y-13500939D02*
X6863608Y-13481891D01*
X6863608Y-13481891D02*
X6873131Y-13472368D01*
X6873131Y-13472368D02*
X6892179Y-13462844D01*
X7044560Y-13662844D02*
X7044560Y-13529510D01*
X7044560Y-13548558D02*
X7054084Y-13539034D01*
X7054084Y-13539034D02*
X7073131Y-13529510D01*
X7073131Y-13529510D02*
X7101703Y-13529510D01*
X7101703Y-13529510D02*
X7120750Y-13539034D01*
X7120750Y-13539034D02*
X7130274Y-13558082D01*
X7130274Y-13558082D02*
X7130274Y-13662844D01*
X7130274Y-13558082D02*
X7139798Y-13539034D01*
X7139798Y-13539034D02*
X7158846Y-13529510D01*
X7158846Y-13529510D02*
X7187417Y-13529510D01*
X7187417Y-13529510D02*
X7206465Y-13539034D01*
X7206465Y-13539034D02*
X7215989Y-13558082D01*
X7215989Y-13558082D02*
X7215989Y-13662844D01*
X7311227Y-13662844D02*
X7311227Y-13529510D01*
X7311227Y-13548558D02*
X7320750Y-13539034D01*
X7320750Y-13539034D02*
X7339798Y-13529510D01*
X7339798Y-13529510D02*
X7368370Y-13529510D01*
X7368370Y-13529510D02*
X7387417Y-13539034D01*
X7387417Y-13539034D02*
X7396941Y-13558082D01*
X7396941Y-13558082D02*
X7396941Y-13662844D01*
X7396941Y-13558082D02*
X7406465Y-13539034D01*
X7406465Y-13539034D02*
X7425512Y-13529510D01*
X7425512Y-13529510D02*
X7454084Y-13529510D01*
X7454084Y-13529510D02*
X7473131Y-13539034D01*
X7473131Y-13539034D02*
X7482655Y-13558082D01*
X7482655Y-13558082D02*
X7482655Y-13662844D01*
X7873131Y-13453320D02*
X7701703Y-13710463D01*
X8130274Y-13462844D02*
X8149322Y-13462844D01*
X8149322Y-13462844D02*
X8168370Y-13472368D01*
X8168370Y-13472368D02*
X8177893Y-13481891D01*
X8177893Y-13481891D02*
X8187417Y-13500939D01*
X8187417Y-13500939D02*
X8196941Y-13539034D01*
X8196941Y-13539034D02*
X8196941Y-13586653D01*
X8196941Y-13586653D02*
X8187417Y-13624748D01*
X8187417Y-13624748D02*
X8177893Y-13643796D01*
X8177893Y-13643796D02*
X8168370Y-13653320D01*
X8168370Y-13653320D02*
X8149322Y-13662844D01*
X8149322Y-13662844D02*
X8130274Y-13662844D01*
X8130274Y-13662844D02*
X8111227Y-13653320D01*
X8111227Y-13653320D02*
X8101703Y-13643796D01*
X8101703Y-13643796D02*
X8092179Y-13624748D01*
X8092179Y-13624748D02*
X8082655Y-13586653D01*
X8082655Y-13586653D02*
X8082655Y-13539034D01*
X8082655Y-13539034D02*
X8092179Y-13500939D01*
X8092179Y-13500939D02*
X8101703Y-13481891D01*
X8101703Y-13481891D02*
X8111227Y-13472368D01*
X8111227Y-13472368D02*
X8130274Y-13462844D01*
X8282655Y-13643796D02*
X8292179Y-13653320D01*
X8292179Y-13653320D02*
X8282655Y-13662844D01*
X8282655Y-13662844D02*
X8273132Y-13653320D01*
X8273132Y-13653320D02*
X8282655Y-13643796D01*
X8282655Y-13643796D02*
X8282655Y-13662844D01*
X8415989Y-13462844D02*
X8435036Y-13462844D01*
X8435036Y-13462844D02*
X8454084Y-13472368D01*
X8454084Y-13472368D02*
X8463608Y-13481891D01*
X8463608Y-13481891D02*
X8473132Y-13500939D01*
X8473132Y-13500939D02*
X8482655Y-13539034D01*
X8482655Y-13539034D02*
X8482655Y-13586653D01*
X8482655Y-13586653D02*
X8473132Y-13624748D01*
X8473132Y-13624748D02*
X8463608Y-13643796D01*
X8463608Y-13643796D02*
X8454084Y-13653320D01*
X8454084Y-13653320D02*
X8435036Y-13662844D01*
X8435036Y-13662844D02*
X8415989Y-13662844D01*
X8415989Y-13662844D02*
X8396941Y-13653320D01*
X8396941Y-13653320D02*
X8387417Y-13643796D01*
X8387417Y-13643796D02*
X8377893Y-13624748D01*
X8377893Y-13624748D02*
X8368370Y-13586653D01*
X8368370Y-13586653D02*
X8368370Y-13539034D01*
X8368370Y-13539034D02*
X8377893Y-13500939D01*
X8377893Y-13500939D02*
X8387417Y-13481891D01*
X8387417Y-13481891D02*
X8396941Y-13472368D01*
X8396941Y-13472368D02*
X8415989Y-13462844D01*
X8577894Y-13662844D02*
X8615989Y-13662844D01*
X8615989Y-13662844D02*
X8635036Y-13653320D01*
X8635036Y-13653320D02*
X8644560Y-13643796D01*
X8644560Y-13643796D02*
X8663608Y-13615225D01*
X8663608Y-13615225D02*
X8673132Y-13577129D01*
X8673132Y-13577129D02*
X8673132Y-13500939D01*
X8673132Y-13500939D02*
X8663608Y-13481891D01*
X8663608Y-13481891D02*
X8654084Y-13472368D01*
X8654084Y-13472368D02*
X8635036Y-13462844D01*
X8635036Y-13462844D02*
X8596941Y-13462844D01*
X8596941Y-13462844D02*
X8577894Y-13472368D01*
X8577894Y-13472368D02*
X8568370Y-13481891D01*
X8568370Y-13481891D02*
X8558846Y-13500939D01*
X8558846Y-13500939D02*
X8558846Y-13548558D01*
X8558846Y-13548558D02*
X8568370Y-13567606D01*
X8568370Y-13567606D02*
X8577894Y-13577129D01*
X8577894Y-13577129D02*
X8596941Y-13586653D01*
X8596941Y-13586653D02*
X8635036Y-13586653D01*
X8635036Y-13586653D02*
X8654084Y-13577129D01*
X8654084Y-13577129D02*
X8663608Y-13567606D01*
X8663608Y-13567606D02*
X8673132Y-13548558D01*
X8787417Y-13548558D02*
X8768370Y-13539034D01*
X8768370Y-13539034D02*
X8758846Y-13529510D01*
X8758846Y-13529510D02*
X8749322Y-13510463D01*
X8749322Y-13510463D02*
X8749322Y-13500939D01*
X8749322Y-13500939D02*
X8758846Y-13481891D01*
X8758846Y-13481891D02*
X8768370Y-13472368D01*
X8768370Y-13472368D02*
X8787417Y-13462844D01*
X8787417Y-13462844D02*
X8825513Y-13462844D01*
X8825513Y-13462844D02*
X8844560Y-13472368D01*
X8844560Y-13472368D02*
X8854084Y-13481891D01*
X8854084Y-13481891D02*
X8863608Y-13500939D01*
X8863608Y-13500939D02*
X8863608Y-13510463D01*
X8863608Y-13510463D02*
X8854084Y-13529510D01*
X8854084Y-13529510D02*
X8844560Y-13539034D01*
X8844560Y-13539034D02*
X8825513Y-13548558D01*
X8825513Y-13548558D02*
X8787417Y-13548558D01*
X8787417Y-13548558D02*
X8768370Y-13558082D01*
X8768370Y-13558082D02*
X8758846Y-13567606D01*
X8758846Y-13567606D02*
X8749322Y-13586653D01*
X8749322Y-13586653D02*
X8749322Y-13624748D01*
X8749322Y-13624748D02*
X8758846Y-13643796D01*
X8758846Y-13643796D02*
X8768370Y-13653320D01*
X8768370Y-13653320D02*
X8787417Y-13662844D01*
X8787417Y-13662844D02*
X8825513Y-13662844D01*
X8825513Y-13662844D02*
X8844560Y-13653320D01*
X8844560Y-13653320D02*
X8854084Y-13643796D01*
X8854084Y-13643796D02*
X8863608Y-13624748D01*
X8863608Y-13624748D02*
X8863608Y-13586653D01*
X8863608Y-13586653D02*
X8854084Y-13567606D01*
X8854084Y-13567606D02*
X8844560Y-13558082D01*
X8844560Y-13558082D02*
X8825513Y-13548558D01*
X9035036Y-13529510D02*
X9035036Y-13662844D01*
X8987417Y-13453320D02*
X8939798Y-13596177D01*
X8939798Y-13596177D02*
X9063608Y-13596177D01*
X9130275Y-13462844D02*
X9130275Y-13500939D01*
X9206465Y-13462844D02*
X9206465Y-13500939D01*
X9501703Y-13739034D02*
X9492179Y-13729510D01*
X9492179Y-13729510D02*
X9473132Y-13700939D01*
X9473132Y-13700939D02*
X9463608Y-13681891D01*
X9463608Y-13681891D02*
X9454084Y-13653320D01*
X9454084Y-13653320D02*
X9444560Y-13605701D01*
X9444560Y-13605701D02*
X9444560Y-13567606D01*
X9444560Y-13567606D02*
X9454084Y-13519987D01*
X9454084Y-13519987D02*
X9463608Y-13491415D01*
X9463608Y-13491415D02*
X9473132Y-13472368D01*
X9473132Y-13472368D02*
X9492179Y-13443796D01*
X9492179Y-13443796D02*
X9501703Y-13434272D01*
X9663608Y-13529510D02*
X9663608Y-13662844D01*
X9615989Y-13453320D02*
X9568370Y-13596177D01*
X9568370Y-13596177D02*
X9692179Y-13596177D01*
X9920751Y-13662844D02*
X9920751Y-13462844D01*
X10006465Y-13662844D02*
X10006465Y-13558082D01*
X10006465Y-13558082D02*
X9996941Y-13539034D01*
X9996941Y-13539034D02*
X9977894Y-13529510D01*
X9977894Y-13529510D02*
X9949322Y-13529510D01*
X9949322Y-13529510D02*
X9930275Y-13539034D01*
X9930275Y-13539034D02*
X9920751Y-13548558D01*
X10130275Y-13662844D02*
X10111227Y-13653320D01*
X10111227Y-13653320D02*
X10101703Y-13643796D01*
X10101703Y-13643796D02*
X10092179Y-13624748D01*
X10092179Y-13624748D02*
X10092179Y-13567606D01*
X10092179Y-13567606D02*
X10101703Y-13548558D01*
X10101703Y-13548558D02*
X10111227Y-13539034D01*
X10111227Y-13539034D02*
X10130275Y-13529510D01*
X10130275Y-13529510D02*
X10158846Y-13529510D01*
X10158846Y-13529510D02*
X10177894Y-13539034D01*
X10177894Y-13539034D02*
X10187418Y-13548558D01*
X10187418Y-13548558D02*
X10196941Y-13567606D01*
X10196941Y-13567606D02*
X10196941Y-13624748D01*
X10196941Y-13624748D02*
X10187418Y-13643796D01*
X10187418Y-13643796D02*
X10177894Y-13653320D01*
X10177894Y-13653320D02*
X10158846Y-13662844D01*
X10158846Y-13662844D02*
X10130275Y-13662844D01*
X10311227Y-13662844D02*
X10292179Y-13653320D01*
X10292179Y-13653320D02*
X10282656Y-13634272D01*
X10282656Y-13634272D02*
X10282656Y-13462844D01*
X10463608Y-13653320D02*
X10444560Y-13662844D01*
X10444560Y-13662844D02*
X10406465Y-13662844D01*
X10406465Y-13662844D02*
X10387418Y-13653320D01*
X10387418Y-13653320D02*
X10377894Y-13634272D01*
X10377894Y-13634272D02*
X10377894Y-13558082D01*
X10377894Y-13558082D02*
X10387418Y-13539034D01*
X10387418Y-13539034D02*
X10406465Y-13529510D01*
X10406465Y-13529510D02*
X10444560Y-13529510D01*
X10444560Y-13529510D02*
X10463608Y-13539034D01*
X10463608Y-13539034D02*
X10473132Y-13558082D01*
X10473132Y-13558082D02*
X10473132Y-13577129D01*
X10473132Y-13577129D02*
X10377894Y-13596177D01*
X10549322Y-13653320D02*
X10568370Y-13662844D01*
X10568370Y-13662844D02*
X10606465Y-13662844D01*
X10606465Y-13662844D02*
X10625513Y-13653320D01*
X10625513Y-13653320D02*
X10635037Y-13634272D01*
X10635037Y-13634272D02*
X10635037Y-13624748D01*
X10635037Y-13624748D02*
X10625513Y-13605701D01*
X10625513Y-13605701D02*
X10606465Y-13596177D01*
X10606465Y-13596177D02*
X10577894Y-13596177D01*
X10577894Y-13596177D02*
X10558846Y-13586653D01*
X10558846Y-13586653D02*
X10549322Y-13567606D01*
X10549322Y-13567606D02*
X10549322Y-13558082D01*
X10549322Y-13558082D02*
X10558846Y-13539034D01*
X10558846Y-13539034D02*
X10577894Y-13529510D01*
X10577894Y-13529510D02*
X10606465Y-13529510D01*
X10606465Y-13529510D02*
X10625513Y-13539034D01*
X10701703Y-13739034D02*
X10711227Y-13729510D01*
X10711227Y-13729510D02*
X10730275Y-13700939D01*
X10730275Y-13700939D02*
X10739799Y-13681891D01*
X10739799Y-13681891D02*
X10749322Y-13653320D01*
X10749322Y-13653320D02*
X10758846Y-13605701D01*
X10758846Y-13605701D02*
X10758846Y-13567606D01*
X10758846Y-13567606D02*
X10749322Y-13519987D01*
X10749322Y-13519987D02*
X10739799Y-13491415D01*
X10739799Y-13491415D02*
X10730275Y-13472368D01*
X10730275Y-13472368D02*
X10711227Y-13443796D01*
X10711227Y-13443796D02*
X10701703Y-13434272D01*
X11063608Y-13739034D02*
X11054084Y-13729510D01*
X11054084Y-13729510D02*
X11035037Y-13700939D01*
X11035037Y-13700939D02*
X11025513Y-13681891D01*
X11025513Y-13681891D02*
X11015989Y-13653320D01*
X11015989Y-13653320D02*
X11006465Y-13605701D01*
X11006465Y-13605701D02*
X11006465Y-13567606D01*
X11006465Y-13567606D02*
X11015989Y-13519987D01*
X11015989Y-13519987D02*
X11025513Y-13491415D01*
X11025513Y-13491415D02*
X11035037Y-13472368D01*
X11035037Y-13472368D02*
X11054084Y-13443796D01*
X11054084Y-13443796D02*
X11063608Y-13434272D01*
X11139799Y-13529510D02*
X11139799Y-13662844D01*
X11139799Y-13548558D02*
X11149322Y-13539034D01*
X11149322Y-13539034D02*
X11168370Y-13529510D01*
X11168370Y-13529510D02*
X11196941Y-13529510D01*
X11196941Y-13529510D02*
X11215989Y-13539034D01*
X11215989Y-13539034D02*
X11225513Y-13558082D01*
X11225513Y-13558082D02*
X11225513Y-13662844D01*
X11349322Y-13662844D02*
X11330275Y-13653320D01*
X11330275Y-13653320D02*
X11320751Y-13643796D01*
X11320751Y-13643796D02*
X11311227Y-13624748D01*
X11311227Y-13624748D02*
X11311227Y-13567606D01*
X11311227Y-13567606D02*
X11320751Y-13548558D01*
X11320751Y-13548558D02*
X11330275Y-13539034D01*
X11330275Y-13539034D02*
X11349322Y-13529510D01*
X11349322Y-13529510D02*
X11377894Y-13529510D01*
X11377894Y-13529510D02*
X11396941Y-13539034D01*
X11396941Y-13539034D02*
X11406465Y-13548558D01*
X11406465Y-13548558D02*
X11415989Y-13567606D01*
X11415989Y-13567606D02*
X11415989Y-13624748D01*
X11415989Y-13624748D02*
X11406465Y-13643796D01*
X11406465Y-13643796D02*
X11396941Y-13653320D01*
X11396941Y-13653320D02*
X11377894Y-13662844D01*
X11377894Y-13662844D02*
X11349322Y-13662844D01*
X11473132Y-13529510D02*
X11549322Y-13529510D01*
X11501703Y-13462844D02*
X11501703Y-13634272D01*
X11501703Y-13634272D02*
X11511227Y-13653320D01*
X11511227Y-13653320D02*
X11530275Y-13662844D01*
X11530275Y-13662844D02*
X11549322Y-13662844D01*
X11768370Y-13529510D02*
X11768370Y-13729510D01*
X11768370Y-13539034D02*
X11787418Y-13529510D01*
X11787418Y-13529510D02*
X11825513Y-13529510D01*
X11825513Y-13529510D02*
X11844560Y-13539034D01*
X11844560Y-13539034D02*
X11854084Y-13548558D01*
X11854084Y-13548558D02*
X11863608Y-13567606D01*
X11863608Y-13567606D02*
X11863608Y-13624748D01*
X11863608Y-13624748D02*
X11854084Y-13643796D01*
X11854084Y-13643796D02*
X11844560Y-13653320D01*
X11844560Y-13653320D02*
X11825513Y-13662844D01*
X11825513Y-13662844D02*
X11787418Y-13662844D01*
X11787418Y-13662844D02*
X11768370Y-13653320D01*
X11977894Y-13662844D02*
X11958846Y-13653320D01*
X11958846Y-13653320D02*
X11949322Y-13634272D01*
X11949322Y-13634272D02*
X11949322Y-13462844D01*
X12139799Y-13662844D02*
X12139799Y-13558082D01*
X12139799Y-13558082D02*
X12130275Y-13539034D01*
X12130275Y-13539034D02*
X12111227Y-13529510D01*
X12111227Y-13529510D02*
X12073132Y-13529510D01*
X12073132Y-13529510D02*
X12054084Y-13539034D01*
X12139799Y-13653320D02*
X12120751Y-13662844D01*
X12120751Y-13662844D02*
X12073132Y-13662844D01*
X12073132Y-13662844D02*
X12054084Y-13653320D01*
X12054084Y-13653320D02*
X12044560Y-13634272D01*
X12044560Y-13634272D02*
X12044560Y-13615225D01*
X12044560Y-13615225D02*
X12054084Y-13596177D01*
X12054084Y-13596177D02*
X12073132Y-13586653D01*
X12073132Y-13586653D02*
X12120751Y-13586653D01*
X12120751Y-13586653D02*
X12139799Y-13577129D01*
X12206465Y-13529510D02*
X12282656Y-13529510D01*
X12235037Y-13462844D02*
X12235037Y-13634272D01*
X12235037Y-13634272D02*
X12244560Y-13653320D01*
X12244560Y-13653320D02*
X12263608Y-13662844D01*
X12263608Y-13662844D02*
X12282656Y-13662844D01*
X12425513Y-13653320D02*
X12406465Y-13662844D01*
X12406465Y-13662844D02*
X12368370Y-13662844D01*
X12368370Y-13662844D02*
X12349322Y-13653320D01*
X12349322Y-13653320D02*
X12339799Y-13634272D01*
X12339799Y-13634272D02*
X12339799Y-13558082D01*
X12339799Y-13558082D02*
X12349322Y-13539034D01*
X12349322Y-13539034D02*
X12368370Y-13529510D01*
X12368370Y-13529510D02*
X12406465Y-13529510D01*
X12406465Y-13529510D02*
X12425513Y-13539034D01*
X12425513Y-13539034D02*
X12435037Y-13558082D01*
X12435037Y-13558082D02*
X12435037Y-13577129D01*
X12435037Y-13577129D02*
X12339799Y-13596177D01*
X12606465Y-13662844D02*
X12606465Y-13462844D01*
X12606465Y-13653320D02*
X12587418Y-13662844D01*
X12587418Y-13662844D02*
X12549322Y-13662844D01*
X12549322Y-13662844D02*
X12530275Y-13653320D01*
X12530275Y-13653320D02*
X12520751Y-13643796D01*
X12520751Y-13643796D02*
X12511227Y-13624748D01*
X12511227Y-13624748D02*
X12511227Y-13567606D01*
X12511227Y-13567606D02*
X12520751Y-13548558D01*
X12520751Y-13548558D02*
X12530275Y-13539034D01*
X12530275Y-13539034D02*
X12549322Y-13529510D01*
X12549322Y-13529510D02*
X12587418Y-13529510D01*
X12587418Y-13529510D02*
X12606465Y-13539034D01*
X12682656Y-13739034D02*
X12692180Y-13729510D01*
X12692180Y-13729510D02*
X12711227Y-13700939D01*
X12711227Y-13700939D02*
X12720751Y-13681891D01*
X12720751Y-13681891D02*
X12730275Y-13653320D01*
X12730275Y-13653320D02*
X12739799Y-13605701D01*
X12739799Y-13605701D02*
X12739799Y-13567606D01*
X12739799Y-13567606D02*
X12730275Y-13519987D01*
X12730275Y-13519987D02*
X12720751Y-13491415D01*
X12720751Y-13491415D02*
X12711227Y-13472368D01*
X12711227Y-13472368D02*
X12692180Y-13443796D01*
X12692180Y-13443796D02*
X12682656Y-13434272D01*
M02*
