%TF.GenerationSoftware,KiCad,Pcbnew,9.0.6*%
%TF.CreationDate,2026-08-22T06:08:59+01:00*%
%TF.ProjectId,myProject,6d795072-6f6a-4656-9374-2e6b69636164,rev?*%
%TF.SameCoordinates,Original*%
%TF.FileFunction,Copper,L1,Top*%
%TF.FilePolarity,Positive*%
%FSLAX46Y46*%
G04 Gerber Fmt 4.6, Leading zero omitted, Abs format (unit mm)*
G04 Created by KiCad (PCBNEW 9.0.6) date 2026-08-22 06:08:59*
%MOMM*%
%LPD*%
G01*
G04 APERTURE LIST*
G04 Aperture macros list*
%AMRoundRect*
0 Rectangle with rounded corners*
0 $1 Rounding radius*
0 $2 $3 $4 $5 $6 $7 $8 $9 X,Y pos of 4 corners*
0 Add a 4 corners polygon primitive as box body*
4,1,4,$2,$3,$4,$5,$6,$7,$8,$9,$2,$3,0*
0 Add four circle primitives for the rounded corners*
1,1,$1+$1,$2,$3*
1,1,$1+$1,$4,$5*
1,1,$1+$1,$6,$7*
1,1,$1+$1,$8,$9*
0 Add four rect primitives between the rounded corners*
20,1,$1+$1,$2,$3,$4,$5,0*
20,1,$1+$1,$4,$5,$6,$7,0*
20,1,$1+$1,$6,$7,$8,$9,0*
20,1,$1+$1,$8,$9,$2,$3,0*%
G04 Aperture macros list end*
%TA.AperFunction,SMDPad,CuDef*%
%ADD10RoundRect,0.250000X0.450000X-0.262500X0.450000X0.262500X-0.450000X0.262500X-0.450000X-0.262500X0*%
%TD*%
%TA.AperFunction,SMDPad,CuDef*%
%ADD11RoundRect,0.250000X0.475000X-0.250000X0.475000X0.250000X-0.475000X0.250000X-0.475000X-0.250000X0*%
%TD*%
%TA.AperFunction,SMDPad,CuDef*%
%ADD12RoundRect,0.250000X-0.450000X0.262500X-0.450000X-0.262500X0.450000X-0.262500X0.450000X0.262500X0*%
%TD*%
%TA.AperFunction,ComponentPad*%
%ADD13C,1.950000*%
%TD*%
%TA.AperFunction,SMDPad,CuDef*%
%ADD14RoundRect,0.250000X0.250000X0.475000X-0.250000X0.475000X-0.250000X-0.475000X0.250000X-0.475000X0*%
%TD*%
%TA.AperFunction,SMDPad,CuDef*%
%ADD15RoundRect,0.250000X-0.250000X-0.475000X0.250000X-0.475000X0.250000X0.475000X-0.250000X0.475000X0*%
%TD*%
%TA.AperFunction,SMDPad,CuDef*%
%ADD16C,1.500000*%
%TD*%
%TA.AperFunction,SMDPad,CuDef*%
%ADD17RoundRect,0.250000X0.262500X0.450000X-0.262500X0.450000X-0.262500X-0.450000X0.262500X-0.450000X0*%
%TD*%
%TA.AperFunction,SMDPad,CuDef*%
%ADD18RoundRect,0.250000X-0.262500X-0.450000X0.262500X-0.450000X0.262500X0.450000X-0.262500X0.450000X0*%
%TD*%
%TA.AperFunction,ComponentPad*%
%ADD19R,1.500000X1.500000*%
%TD*%
%TA.AperFunction,ComponentPad*%
%ADD20C,1.500000*%
%TD*%
%TA.AperFunction,ComponentPad*%
%ADD21R,1.590000X1.590000*%
%TD*%
%TA.AperFunction,ComponentPad*%
%ADD22C,1.590000*%
%TD*%
%TA.AperFunction,SMDPad,CuDef*%
%ADD23R,1.200000X0.600000*%
%TD*%
%TA.AperFunction,ComponentPad*%
%ADD24RoundRect,0.450000X1.450000X-0.450000X1.450000X0.450000X-1.450000X0.450000X-1.450000X-0.450000X0*%
%TD*%
%TA.AperFunction,ComponentPad*%
%ADD25RoundRect,0.450000X0.450000X1.450000X-0.450000X1.450000X-0.450000X-1.450000X0.450000X-1.450000X0*%
%TD*%
%TA.AperFunction,SMDPad,CuDef*%
%ADD26RoundRect,0.250000X-0.475000X0.250000X-0.475000X-0.250000X0.475000X-0.250000X0.475000X0.250000X0*%
%TD*%
%TA.AperFunction,SMDPad,CuDef*%
%ADD27RoundRect,0.075000X0.700000X0.225000X-0.700000X0.225000X-0.700000X-0.225000X0.700000X-0.225000X0*%
%TD*%
%TA.AperFunction,SMDPad,CuDef*%
%ADD28R,0.580000X1.730000*%
%TD*%
%TA.AperFunction,SMDPad,CuDef*%
%ADD29R,1.933000X3.030000*%
%TD*%
%TA.AperFunction,SMDPad,CuDef*%
%ADD30R,0.760000X1.500000*%
%TD*%
%TA.AperFunction,ComponentPad*%
%ADD31R,2.100000X2.100000*%
%TD*%
%TA.AperFunction,ComponentPad*%
%ADD32C,2.100000*%
%TD*%
%TA.AperFunction,ComponentPad*%
%ADD33C,3.000000*%
%TD*%
%TA.AperFunction,SMDPad,CuDef*%
%ADD34RoundRect,0.218750X-0.218750X-0.256250X0.218750X-0.256250X0.218750X0.256250X-0.218750X0.256250X0*%
%TD*%
%TA.AperFunction,SMDPad,CuDef*%
%ADD35R,1.400000X0.450000*%
%TD*%
%TA.AperFunction,SMDPad,CuDef*%
%ADD36RoundRect,0.082500X0.932500X0.247500X-0.932500X0.247500X-0.932500X-0.247500X0.932500X-0.247500X0*%
%TD*%
%TA.AperFunction,ComponentPad*%
%ADD37R,1.700000X1.700000*%
%TD*%
%TA.AperFunction,ComponentPad*%
%ADD38C,1.700000*%
%TD*%
%TA.AperFunction,SMDPad,CuDef*%
%ADD39RoundRect,0.150000X-0.875000X-0.150000X0.875000X-0.150000X0.875000X0.150000X-0.875000X0.150000X0*%
%TD*%
%TA.AperFunction,ComponentPad*%
%ADD40R,2.475000X2.475000*%
%TD*%
%TA.AperFunction,ComponentPad*%
%ADD41C,2.475000*%
%TD*%
%TA.AperFunction,SMDPad,CuDef*%
%ADD42R,1.500000X4.600000*%
%TD*%
%TA.AperFunction,SMDPad,CuDef*%
%ADD43RoundRect,0.250000X-0.550000X1.500000X-0.550000X-1.500000X0.550000X-1.500000X0.550000X1.500000X0*%
%TD*%
%TA.AperFunction,SMDPad,CuDef*%
%ADD44R,0.280000X0.850000*%
%TD*%
%TA.AperFunction,SMDPad,CuDef*%
%ADD45R,0.850000X0.280000*%
%TD*%
%TA.AperFunction,SMDPad,CuDef*%
%ADD46R,2.050000X2.050000*%
%TD*%
%TA.AperFunction,SMDPad,CuDef*%
%ADD47RoundRect,0.250000X-1.400000X-1.000000X1.400000X-1.000000X1.400000X1.000000X-1.400000X1.000000X0*%
%TD*%
%TA.AperFunction,SMDPad,CuDef*%
%ADD48R,0.650000X1.528000*%
%TD*%
%TA.AperFunction,SMDPad,CuDef*%
%ADD49R,1.150000X0.600000*%
%TD*%
%TA.AperFunction,SMDPad,CuDef*%
%ADD50R,1.525000X0.650000*%
%TD*%
%TA.AperFunction,SMDPad,CuDef*%
%ADD51RoundRect,0.075000X-0.700000X-0.225000X0.700000X-0.225000X0.700000X0.225000X-0.700000X0.225000X0*%
%TD*%
%TA.AperFunction,SMDPad,CuDef*%
%ADD52R,1.200000X1.400000*%
%TD*%
%TA.AperFunction,SMDPad,CuDef*%
%ADD53R,4.100000X4.100000*%
%TD*%
%TA.AperFunction,SMDPad,CuDef*%
%ADD54R,2.280000X2.120000*%
%TD*%
%TA.AperFunction,ViaPad*%
%ADD55C,0.600000*%
%TD*%
%TA.AperFunction,ViaPad*%
%ADD56C,0.700000*%
%TD*%
%TA.AperFunction,ViaPad*%
%ADD57C,0.800000*%
%TD*%
%TA.AperFunction,ViaPad*%
%ADD58C,1.000000*%
%TD*%
%TA.AperFunction,Conductor*%
%ADD59C,0.250000*%
%TD*%
%TA.AperFunction,Conductor*%
%ADD60C,0.800000*%
%TD*%
%TA.AperFunction,Conductor*%
%ADD61C,1.000000*%
%TD*%
%TA.AperFunction,Conductor*%
%ADD62C,0.500000*%
%TD*%
%TA.AperFunction,Conductor*%
%ADD63C,0.400000*%
%TD*%
%TA.AperFunction,Conductor*%
%ADD64C,1.500000*%
%TD*%
%TA.AperFunction,Conductor*%
%ADD65C,0.200000*%
%TD*%
G04 APERTURE END LIST*
D10*
%TO.P,R3,1*%
%TO.N,Net-(U1-+INA)*%
X153900000Y-73312500D03*
%TO.P,R3,2*%
%TO.N,/Vcon_N*%
X153900000Y-71487500D03*
%TD*%
D11*
%TO.P,C12,1*%
%TO.N,/Vref_5v*%
X200885000Y-80675000D03*
%TO.P,C12,2*%
%TO.N,GND*%
X200885000Y-78775000D03*
%TD*%
D12*
%TO.P,R14,1*%
%TO.N,/Vcon_P*%
X193420000Y-66737500D03*
%TO.P,R14,2*%
%TO.N,Net-(IC2-+IN)*%
X193420000Y-68562500D03*
%TD*%
D13*
%TO.P,F1,1*%
%TO.N,/AC_L*%
X80350000Y-67200000D03*
%TO.P,F1,2*%
%TO.N,/AC_Path/FUSED_AC_L*%
X80350000Y-79700000D03*
%TD*%
D14*
%TO.P,C16,1*%
%TO.N,+5V*%
X174550000Y-78850000D03*
%TO.P,C16,2*%
%TO.N,GND*%
X172650000Y-78850000D03*
%TD*%
D12*
%TO.P,R8,1*%
%TO.N,Net-(U1-OUTB)*%
X157300000Y-84795000D03*
%TO.P,R8,2*%
%TO.N,Net-(C4-Pad2)*%
X157300000Y-86620000D03*
%TD*%
D11*
%TO.P,C35,1*%
%TO.N,/+6V*%
X210850000Y-111450000D03*
%TO.P,C35,2*%
%TO.N,GND*%
X210850000Y-109550000D03*
%TD*%
D15*
%TO.P,C26,1*%
%TO.N,+5V*%
X134100000Y-59595000D03*
%TO.P,C26,2*%
%TO.N,GND*%
X136000000Y-59595000D03*
%TD*%
D11*
%TO.P,C8,1*%
%TO.N,Net-(C8-Pad1)*%
X198670000Y-68700000D03*
%TO.P,C8,2*%
%TO.N,GND*%
X198670000Y-66800000D03*
%TD*%
D16*
%TO.P,AMC_VoutP,1,1*%
%TO.N,/AMC_VoutP*%
X144800000Y-71800000D03*
%TD*%
%TO.P,Vcon_P,1,1*%
%TO.N,/Vcon_P*%
X175600000Y-66850000D03*
%TD*%
D15*
%TO.P,C27,1*%
%TO.N,+5V*%
X137650000Y-61450000D03*
%TO.P,C27,2*%
%TO.N,GND*%
X139550000Y-61450000D03*
%TD*%
D17*
%TO.P,R25,1*%
%TO.N,/AC_N*%
X116412500Y-68245000D03*
%TO.P,R25,2*%
%TO.N,Net-(R24-Pad2)*%
X114587500Y-68245000D03*
%TD*%
D11*
%TO.P,C30,1*%
%TO.N,Net-(D1-K)*%
X188200000Y-112805000D03*
%TO.P,C30,2*%
%TO.N,Net-(U4-BOOT)*%
X188200000Y-110905000D03*
%TD*%
D10*
%TO.P,R5,1*%
%TO.N,Net-(U1--INB)*%
X158900000Y-81270000D03*
%TO.P,R5,2*%
%TO.N,Net-(U1-OUTB)*%
X158900000Y-79445000D03*
%TD*%
D18*
%TO.P,R15,1*%
%TO.N,Net-(IC1-DOUT)*%
X202785000Y-84075000D03*
%TO.P,R15,2*%
%TO.N,/DOUT_B*%
X204610000Y-84075000D03*
%TD*%
D19*
%TO.P,RV1,1*%
%TO.N,/AC_N*%
X94600000Y-65150000D03*
D20*
%TO.P,RV1,2*%
%TO.N,/AC_Path/FUSED_AC_L*%
X91400000Y-72650000D03*
%TD*%
D18*
%TO.P,R23,1*%
%TO.N,Net-(R22-Pad2)*%
X113537500Y-74487500D03*
%TO.P,R23,2*%
%TO.N,Net-(R23-Pad2)*%
X115362500Y-74487500D03*
%TD*%
D11*
%TO.P,C20,1*%
%TO.N,Net-(U3-DCDC_OUT)*%
X118250000Y-56650000D03*
%TO.P,C20,2*%
%TO.N,/AC_N*%
X118250000Y-54750000D03*
%TD*%
D15*
%TO.P,C13,1*%
%TO.N,/+6V*%
X176155000Y-96761000D03*
%TO.P,C13,2*%
%TO.N,GND*%
X178055000Y-96761000D03*
%TD*%
%TO.P,C32,1*%
%TO.N,+3.3V*%
X216546500Y-75963000D03*
%TO.P,C32,2*%
%TO.N,GND*%
X218446500Y-75963000D03*
%TD*%
%TO.P,C39,1*%
%TO.N,+3.3V*%
X225700000Y-106550000D03*
%TO.P,C39,2*%
%TO.N,GND*%
X227600000Y-106550000D03*
%TD*%
D21*
%TO.P,J4,A1,A1*%
%TO.N,/FPGA_CS*%
X231590000Y-87670000D03*
D22*
%TO.P,J4,A2,A2*%
%TO.N,GND*%
X231590000Y-85130000D03*
%TO.P,J4,A3,A3*%
X231590000Y-82590000D03*
%TO.P,J4,A4,A4*%
%TO.N,/SDO_B*%
X231590000Y-80050000D03*
%TO.P,J4,A5,A5*%
%TO.N,unconnected-(J4-PadA5)*%
X231590000Y-77510000D03*
%TO.P,J4,A6,A6*%
%TO.N,GND*%
X231590000Y-74970000D03*
%TO.P,J4,B1,B1*%
%TO.N,/FPGA_SCLK*%
X229050000Y-87670000D03*
%TO.P,J4,B2,B2*%
%TO.N,/SDO_A*%
X229050000Y-85130000D03*
%TO.P,J4,B3,B3*%
%TO.N,GND*%
X229050000Y-82590000D03*
%TO.P,J4,B4,B4*%
%TO.N,/DIAG*%
X229050000Y-80050000D03*
%TO.P,J4,B5,B5*%
%TO.N,unconnected-(J4-PadB5)*%
X229050000Y-77510000D03*
%TO.P,J4,B6,B6*%
%TO.N,unconnected-(J4-PadB6)*%
X229050000Y-74970000D03*
%TD*%
D23*
%TO.P,IC5,1,1A*%
%TO.N,/DOUT_A*%
X212000000Y-75163000D03*
%TO.P,IC5,2,GND*%
%TO.N,GND*%
X212000000Y-76113000D03*
%TO.P,IC5,3,2A*%
%TO.N,/DOUT_B*%
X212000000Y-77063000D03*
%TO.P,IC5,4,2Y*%
%TO.N,/SDO_B*%
X214500000Y-77063000D03*
%TO.P,IC5,5,VCC*%
%TO.N,+3.3V*%
X214500000Y-76113000D03*
%TO.P,IC5,6,1Y*%
%TO.N,/SDO_A*%
X214500000Y-75163000D03*
%TD*%
D16*
%TO.P,Icon_P,1,1*%
%TO.N,/Icon_P*%
X171650000Y-87300000D03*
%TD*%
D14*
%TO.P,C19,1*%
%TO.N,/Vref_2v5*%
X176500000Y-85700000D03*
%TO.P,C19,2*%
%TO.N,GND*%
X174600000Y-85700000D03*
%TD*%
D15*
%TO.P,C1,1*%
%TO.N,+5V*%
X156150000Y-76057500D03*
%TO.P,C1,2*%
%TO.N,GND*%
X158050000Y-76057500D03*
%TD*%
D10*
%TO.P,R12,1*%
%TO.N,/Vref_5v*%
X201100000Y-68712500D03*
%TO.P,R12,2*%
%TO.N,Net-(C8-Pad1)*%
X201100000Y-66887500D03*
%TD*%
D24*
%TO.P,J5,1*%
%TO.N,/+9V_IN*%
X137850000Y-111787500D03*
%TO.P,J5,2*%
%TO.N,GND*%
X137850000Y-117987500D03*
D25*
%TO.P,J5,3*%
%TO.N,unconnected-(J5-Pad3)*%
X142550000Y-114787500D03*
%TD*%
D17*
%TO.P,R28,1*%
%TO.N,/Vref_2v5*%
X176512500Y-83300000D03*
%TO.P,R28,2*%
%TO.N,GND*%
X174687500Y-83300000D03*
%TD*%
D26*
%TO.P,C4,1*%
%TO.N,/Icon_N*%
X162450000Y-82850000D03*
%TO.P,C4,2*%
%TO.N,Net-(C4-Pad2)*%
X162450000Y-84750000D03*
%TD*%
D18*
%TO.P,R4,1*%
%TO.N,Net-(U1--INA)*%
X148937500Y-76057500D03*
%TO.P,R4,2*%
%TO.N,Net-(U1-OUTA)*%
X150762500Y-76057500D03*
%TD*%
D10*
%TO.P,R11,1*%
%TO.N,/Vref_5v*%
X196185000Y-80687500D03*
%TO.P,R11,2*%
%TO.N,Net-(C7-Pad1)*%
X196185000Y-78862500D03*
%TD*%
D26*
%TO.P,C5,1*%
%TO.N,/Vcon_P*%
X163100000Y-70007500D03*
%TO.P,C5,2*%
%TO.N,/Vcon_N*%
X163100000Y-71907500D03*
%TD*%
D27*
%TO.P,U2,1,OUTA*%
%TO.N,/Vcon_N*%
X182000000Y-77870000D03*
%TO.P,U2,2,-INA*%
X182000000Y-76600000D03*
%TO.P,U2,3,+INA*%
%TO.N,/Vref_2v5*%
X182000000Y-75330000D03*
%TO.P,U2,4,V-*%
%TO.N,GND*%
X182000000Y-74060000D03*
%TO.P,U2,5,+INB*%
%TO.N,/Vref_2v5*%
X176600000Y-74060000D03*
%TO.P,U2,6,-INB*%
%TO.N,/Icon_N*%
X176600000Y-75330000D03*
%TO.P,U2,7,OUTB*%
X176600000Y-76600000D03*
%TO.P,U2,8,V+*%
%TO.N,+5V*%
X176600000Y-77870000D03*
%TD*%
D14*
%TO.P,C36,1*%
%TO.N,+5V*%
X218700000Y-108000000D03*
%TO.P,C36,2*%
%TO.N,GND*%
X216800000Y-108000000D03*
%TD*%
D26*
%TO.P,C23,1*%
%TO.N,Net-(U3-HLDO_OUT)*%
X114822500Y-59705000D03*
%TO.P,C23,2*%
%TO.N,/AC_N*%
X114822500Y-61605000D03*
%TD*%
D18*
%TO.P,R18,1*%
%TO.N,Net-(IC1-DCLOCK)*%
X202822500Y-81925000D03*
%TO.P,R18,2*%
%TO.N,/SCLK*%
X204647500Y-81925000D03*
%TD*%
D16*
%TO.P,Vref_5v,1,1*%
%TO.N,/Vref_5v*%
X188300000Y-79800000D03*
%TD*%
D28*
%TO.P,IC7,1,VOUT*%
%TO.N,+5V*%
X218500000Y-111350000D03*
D29*
%TO.P,IC7,2,GND_1*%
%TO.N,GND*%
X217000000Y-113500000D03*
D30*
X217000000Y-111235000D03*
D28*
%TO.P,IC7,3,VIN*%
%TO.N,/+6V*%
X215500000Y-111350000D03*
%TD*%
D26*
%TO.P,C18,1*%
%TO.N,/AC_Path/V_DIV*%
X118700000Y-63595000D03*
%TO.P,C18,2*%
%TO.N,/AC_N*%
X118700000Y-65495000D03*
%TD*%
D31*
%TO.P,J2,1,1*%
%TO.N,/AC_L*%
X65550000Y-66640000D03*
D32*
%TO.P,J2,2,2*%
%TO.N,/AC_N*%
X65550000Y-71720000D03*
%TD*%
D18*
%TO.P,R31,1*%
%TO.N,GND*%
X203637500Y-108750000D03*
%TO.P,R31,2*%
%TO.N,/+6V*%
X205462500Y-108750000D03*
%TD*%
D33*
%TO.P,5v,1,1*%
%TO.N,+5V*%
X208100000Y-98600000D03*
%TD*%
%TO.P,3v3,1,1*%
%TO.N,+3.3V*%
X224150000Y-99250000D03*
%TD*%
D34*
%TO.P,D4,1,A*%
%TO.N,Net-(D4-A)*%
X174412500Y-112150000D03*
%TO.P,D4,2,C*%
%TO.N,GND*%
X175987500Y-112150000D03*
%TD*%
D16*
%TO.P,ACS_Viout,1,1*%
%TO.N,/ACS_Viout*%
X143650000Y-94700000D03*
%TD*%
D33*
%TO.P,9v,1,1*%
%TO.N,/+9V_IN*%
X151550000Y-109500000D03*
%TD*%
D12*
%TO.P,R13,1*%
%TO.N,/Icon_P*%
X191585000Y-82812500D03*
%TO.P,R13,2*%
%TO.N,Net-(IC1-+IN)*%
X191585000Y-84637500D03*
%TD*%
D35*
%TO.P,IC2,1,VREF*%
%TO.N,/Vref_5v*%
X196050000Y-70600000D03*
%TO.P,IC2,2,+IN*%
%TO.N,Net-(IC2-+IN)*%
X196050000Y-71250000D03*
%TO.P,IC2,3,-IN*%
%TO.N,GND*%
X196050000Y-71900000D03*
%TO.P,IC2,4,GND*%
X196050000Y-72550000D03*
%TO.P,IC2,5,~{CS}/SHDN*%
%TO.N,Net-(IC2-~{CS}{slash}SHDN)*%
X200450000Y-72550000D03*
%TO.P,IC2,6,DOUT*%
%TO.N,Net-(IC2-DOUT)*%
X200450000Y-71900000D03*
%TO.P,IC2,7,DCLOCK*%
%TO.N,Net-(IC2-DCLOCK)*%
X200450000Y-71250000D03*
%TO.P,IC2,8,+VCC*%
%TO.N,/Vref_5v*%
X200450000Y-70600000D03*
%TD*%
D18*
%TO.P,R24,1*%
%TO.N,Net-(R23-Pad2)*%
X115600000Y-71687500D03*
%TO.P,R24,2*%
%TO.N,Net-(R24-Pad2)*%
X117425000Y-71687500D03*
%TD*%
D33*
%TO.P,GND,1,1*%
%TO.N,GND*%
X139650000Y-85850000D03*
%TD*%
D12*
%TO.P,R32,1*%
%TO.N,/Buck_Vin*%
X172162500Y-110542500D03*
%TO.P,R32,2*%
%TO.N,Net-(D4-A)*%
X172162500Y-112367500D03*
%TD*%
D18*
%TO.P,R20,1*%
%TO.N,Net-(IC2-DCLOCK)*%
X202757500Y-70700000D03*
%TO.P,R20,2*%
%TO.N,/SCLK*%
X204582500Y-70700000D03*
%TD*%
D17*
%TO.P,R7,1*%
%TO.N,Net-(U1-OUTA)*%
X150762500Y-73707500D03*
%TO.P,R7,2*%
%TO.N,Net-(C3-Pad1)*%
X148937500Y-73707500D03*
%TD*%
D11*
%TO.P,C38,1*%
%TO.N,/Buck_Vin*%
X168350000Y-110050000D03*
%TO.P,C38,2*%
%TO.N,GND*%
X168350000Y-108150000D03*
%TD*%
D15*
%TO.P,C15,1*%
%TO.N,/Vref_5v*%
X178600000Y-85650000D03*
%TO.P,C15,2*%
%TO.N,GND*%
X180500000Y-85650000D03*
%TD*%
D36*
%TO.P,U4,1,BOOT*%
%TO.N,Net-(U4-BOOT)*%
X185294000Y-111660000D03*
%TO.P,U4,2*%
%TO.N,N/C*%
X185294000Y-110390000D03*
%TO.P,U4,3*%
X185294000Y-109120000D03*
%TO.P,U4,4,VSENSE*%
%TO.N,Net-(U4-VSENSE)*%
X185294000Y-107850000D03*
%TO.P,U4,5,ENA*%
%TO.N,unconnected-(U4-ENA-Pad5)*%
X179706000Y-107850000D03*
%TO.P,U4,6,GND*%
%TO.N,GND*%
X179706000Y-109120000D03*
%TO.P,U4,7,VIN*%
%TO.N,/Buck_Vin*%
X179706000Y-110390000D03*
%TO.P,U4,8,PH*%
%TO.N,Net-(D1-K)*%
X179706000Y-111660000D03*
%TD*%
D18*
%TO.P,R1,1*%
%TO.N,/AMC_VoutN*%
X147787500Y-83900000D03*
%TO.P,R1,2*%
%TO.N,Net-(U1--INA)*%
X149612500Y-83900000D03*
%TD*%
D37*
%TO.P,J1,1,Pin_1*%
%TO.N,/Buck_Vin*%
X232700000Y-94350000D03*
D38*
%TO.P,J1,2,Pin_2*%
%TO.N,+5V*%
X232700000Y-96890000D03*
%TO.P,J1,3,Pin_3*%
%TO.N,+3.3V*%
X232700000Y-99430000D03*
%TO.P,J1,4,Pin_4*%
%TO.N,GND*%
X232700000Y-101970000D03*
%TD*%
D39*
%TO.P,U3,1,DCDC_OUT*%
%TO.N,Net-(U3-DCDC_OUT)*%
X121800000Y-54310000D03*
%TO.P,U3,2,DCDC_HGND*%
%TO.N,/AC_N*%
X121800000Y-55580000D03*
%TO.P,U3,3,HLDO_IN*%
%TO.N,Net-(U3-DCDC_OUT)*%
X121800000Y-56850000D03*
%TO.P,U3,4,NC*%
%TO.N,unconnected-(U3-NC-Pad4)*%
X121800000Y-58120000D03*
%TO.P,U3,5,HLDO_OUT*%
%TO.N,Net-(U3-HLDO_OUT)*%
X121800000Y-59390000D03*
%TO.P,U3,6,INP*%
%TO.N,/AC_Path/V_DIV*%
X121800000Y-60660000D03*
%TO.P,U3,7,INN*%
%TO.N,/AC_N*%
X121800000Y-61930000D03*
%TO.P,U3,8,HGND*%
X121800000Y-63200000D03*
%TO.P,U3,9,GND*%
%TO.N,GND*%
X131100000Y-63200000D03*
%TO.P,U3,10,OUTN*%
%TO.N,/AMC_VoutN*%
X131100000Y-61930000D03*
%TO.P,U3,11,OUTP*%
%TO.N,/AMC_VoutP*%
X131100000Y-60660000D03*
%TO.P,U3,12,VDD*%
%TO.N,+5V*%
X131100000Y-59390000D03*
%TO.P,U3,13,LDO_OUT*%
%TO.N,Net-(U3-LDO_OUT)*%
X131100000Y-58120000D03*
%TO.P,U3,14,DIAG*%
%TO.N,/DIAG*%
X131100000Y-56850000D03*
%TO.P,U3,15,DCDC_GND*%
%TO.N,GND*%
X131100000Y-55580000D03*
%TO.P,U3,16,DCDC_IN*%
%TO.N,Net-(U3-DCDC_IN)*%
X131100000Y-54310000D03*
%TD*%
D26*
%TO.P,C7,1*%
%TO.N,Net-(C7-Pad1)*%
X198585000Y-78775000D03*
%TO.P,C7,2*%
%TO.N,GND*%
X198585000Y-80675000D03*
%TD*%
D16*
%TO.P,Icon_N,1,1*%
%TO.N,/Icon_N*%
X170500000Y-79550000D03*
%TD*%
D12*
%TO.P,R6,1*%
%TO.N,Net-(U1--INB)*%
X164750000Y-81137500D03*
%TO.P,R6,2*%
%TO.N,/Icon_N*%
X164750000Y-82962500D03*
%TD*%
D40*
%TO.P,S1,1,1*%
%TO.N,Net-(D2-K)*%
X164300000Y-116950000D03*
D41*
%TO.P,S1,2,2*%
%TO.N,/Buck_Vin*%
X168900000Y-116950000D03*
%TD*%
D18*
%TO.P,R21,1*%
%TO.N,/AC_Path/FUSED_AC_L*%
X106900000Y-77437500D03*
%TO.P,R21,2*%
%TO.N,Net-(R21-Pad2)*%
X108725000Y-77437500D03*
%TD*%
%TO.P,R22,1*%
%TO.N,Net-(R21-Pad2)*%
X111187500Y-77237500D03*
%TO.P,R22,2*%
%TO.N,Net-(R22-Pad2)*%
X113012500Y-77237500D03*
%TD*%
%TO.P,R19,1*%
%TO.N,Net-(IC2-~{CS}{slash}SHDN)*%
X202707500Y-75050000D03*
%TO.P,R19,2*%
%TO.N,/CS*%
X204532500Y-75050000D03*
%TD*%
D31*
%TO.P,J3,1,1*%
%TO.N,/LOAD_L*%
X65990000Y-94122500D03*
D32*
%TO.P,J3,2,2*%
%TO.N,/AC_N*%
X65990000Y-99202500D03*
%TD*%
D18*
%TO.P,R16,1*%
%TO.N,Net-(IC2-DOUT)*%
X202757500Y-72800000D03*
%TO.P,R16,2*%
%TO.N,/DOUT_A*%
X204582500Y-72800000D03*
%TD*%
D10*
%TO.P,R9,1*%
%TO.N,Net-(C3-Pad1)*%
X149200000Y-70970000D03*
%TO.P,R9,2*%
%TO.N,/Vcon_P*%
X149200000Y-69145000D03*
%TD*%
D42*
%TO.P,F2,1,1*%
%TO.N,/+9V_IN*%
X148150000Y-119955000D03*
%TO.P,F2,2,2*%
%TO.N,Net-(D2-A)*%
X153050000Y-119955000D03*
%TD*%
D10*
%TO.P,R27,1*%
%TO.N,Net-(R24-Pad2)*%
X114800000Y-65707500D03*
%TO.P,R27,2*%
%TO.N,/AC_Path/V_DIV*%
X114800000Y-63882500D03*
%TD*%
D33*
%TO.P,GND,1,1*%
%TO.N,GND*%
X191250000Y-95000000D03*
%TD*%
D12*
%TO.P,R29,1*%
%TO.N,+3.3V*%
X139250000Y-53687500D03*
%TO.P,R29,2*%
%TO.N,/DIAG*%
X139250000Y-55512500D03*
%TD*%
D15*
%TO.P,C24,1*%
%TO.N,Net-(U3-LDO_OUT)*%
X134200000Y-57345000D03*
%TO.P,C24,2*%
%TO.N,Net-(U3-DCDC_IN)*%
X136100000Y-57345000D03*
%TD*%
D26*
%TO.P,C28,1*%
%TO.N,Net-(IC4-FILTER)*%
X131750000Y-95750000D03*
%TO.P,C28,2*%
%TO.N,GND*%
X131750000Y-97650000D03*
%TD*%
D16*
%TO.P,Vcon_N,1,1*%
%TO.N,/Vcon_N*%
X173850000Y-71950000D03*
%TD*%
D43*
%TO.P,C33,1*%
%TO.N,/+6V*%
X206950000Y-115200000D03*
%TO.P,C33,2*%
%TO.N,GND*%
X206950000Y-120600000D03*
%TD*%
D12*
%TO.P,R10,1*%
%TO.N,Net-(C4-Pad2)*%
X159550000Y-84895000D03*
%TO.P,R10,2*%
%TO.N,/Icon_P*%
X159550000Y-86720000D03*
%TD*%
D44*
%TO.P,IC6,1,1~{OE}*%
%TO.N,GND*%
X213925000Y-83075000D03*
D45*
%TO.P,IC6,2,1A*%
%TO.N,/FPGA_CS*%
X214900000Y-82350000D03*
%TO.P,IC6,3,1Y*%
%TO.N,/CS*%
X214900000Y-81850000D03*
%TO.P,IC6,4,2~{OE}*%
%TO.N,GND*%
X214900000Y-81350000D03*
%TO.P,IC6,5,2A*%
%TO.N,/FPGA_SCLK*%
X214900000Y-80850000D03*
%TO.P,IC6,6,2Y*%
%TO.N,/SCLK*%
X214900000Y-80350000D03*
D44*
%TO.P,IC6,7,GND*%
%TO.N,GND*%
X213925000Y-79625000D03*
%TO.P,IC6,8,3Y*%
%TO.N,unconnected-(IC6-3Y-Pad8)*%
X212425000Y-79625000D03*
D45*
%TO.P,IC6,9,3A*%
%TO.N,GND*%
X211450000Y-80350000D03*
%TO.P,IC6,10,3~{OE}*%
%TO.N,+5V*%
X211450000Y-80850000D03*
%TO.P,IC6,11,4Y*%
%TO.N,unconnected-(IC6-4Y-Pad11)*%
X211450000Y-81350000D03*
%TO.P,IC6,12,4A*%
%TO.N,GND*%
X211450000Y-81850000D03*
%TO.P,IC6,13,4~{OE}*%
%TO.N,+5V*%
X211450000Y-82350000D03*
D44*
%TO.P,IC6,14,VCC*%
X212425000Y-83075000D03*
D46*
%TO.P,IC6,15,THERMAL_PAD*%
%TO.N,GND*%
X213175000Y-81350000D03*
%TD*%
D16*
%TO.P,AMC_VoutN,1,1*%
%TO.N,/AMC_VoutN*%
X142350000Y-74400000D03*
%TD*%
D47*
%TO.P,D1,1,K*%
%TO.N,Net-(D1-K)*%
X183900000Y-115305000D03*
%TO.P,D1,2,A*%
%TO.N,GND*%
X183900000Y-122105000D03*
%TD*%
D48*
%TO.P,IC3,1,DNC_1*%
%TO.N,unconnected-(IC3-DNC_1-Pad1)*%
X174445000Y-94261000D03*
%TO.P,IC3,2,VIN*%
%TO.N,/AC_Path/+6V*%
X175715000Y-94261000D03*
%TO.P,IC3,3,TEMP*%
%TO.N,unconnected-(IC3-TEMP-Pad3)*%
X176985000Y-94261000D03*
%TO.P,IC3,4,GND*%
%TO.N,GND*%
X178255000Y-94261000D03*
%TO.P,IC3,5,TRIM/NR*%
%TO.N,Net-(IC3-TRIM{slash}NR)*%
X178255000Y-88839000D03*
%TO.P,IC3,6,VOUT*%
%TO.N,/Vref_5v*%
X176985000Y-88839000D03*
%TO.P,IC3,7,NC*%
%TO.N,unconnected-(IC3-NC-Pad7)*%
X175715000Y-88839000D03*
%TO.P,IC3,8,DNC_2*%
%TO.N,unconnected-(IC3-DNC_2-Pad8)*%
X174445000Y-88839000D03*
%TD*%
D26*
%TO.P,C10,1*%
%TO.N,Net-(IC2-+IN)*%
X193570000Y-70550000D03*
%TO.P,C10,2*%
%TO.N,GND*%
X193570000Y-72450000D03*
%TD*%
%TO.P,C21,1*%
%TO.N,Net-(U3-HLDO_OUT)*%
X117672500Y-59600000D03*
%TO.P,C21,2*%
%TO.N,/AC_N*%
X117672500Y-61500000D03*
%TD*%
D49*
%TO.P,IC8,1,VIN*%
%TO.N,+5V*%
X223050000Y-108650000D03*
%TO.P,IC8,2,GND*%
%TO.N,GND*%
X223050000Y-109600000D03*
%TO.P,IC8,3,EN*%
%TO.N,+5V*%
X223050000Y-110550000D03*
%TO.P,IC8,4,NC*%
%TO.N,unconnected-(IC8-NC-Pad4)*%
X225650000Y-110550000D03*
%TO.P,IC8,5,VOUT*%
%TO.N,+3.3V*%
X225650000Y-108650000D03*
%TD*%
D50*
%TO.P,IC4,1,IP+_1*%
%TO.N,/AC_Path/FUSED_AC_L*%
X123676000Y-93340000D03*
%TO.P,IC4,2,IP+_2*%
X123676000Y-94610000D03*
%TO.P,IC4,3,IP-_1*%
%TO.N,/LOAD_L*%
X123676000Y-95880000D03*
%TO.P,IC4,4,IP-_2*%
X123676000Y-97150000D03*
%TO.P,IC4,5,GND*%
%TO.N,GND*%
X129100000Y-97150000D03*
%TO.P,IC4,6,FILTER*%
%TO.N,Net-(IC4-FILTER)*%
X129100000Y-95880000D03*
%TO.P,IC4,7,VIOUT*%
%TO.N,/ACS_Viout*%
X129100000Y-94610000D03*
%TO.P,IC4,8,VCC*%
%TO.N,+5V*%
X129100000Y-93340000D03*
%TD*%
D14*
%TO.P,C37,1*%
%TO.N,+5V*%
X218600000Y-105650000D03*
%TO.P,C37,2*%
%TO.N,GND*%
X216700000Y-105650000D03*
%TD*%
D26*
%TO.P,C9,1*%
%TO.N,Net-(IC1-+IN)*%
X193885000Y-82725000D03*
%TO.P,C9,2*%
%TO.N,GND*%
X193885000Y-84625000D03*
%TD*%
D16*
%TO.P,Vref_2v5,1,1*%
%TO.N,/Vref_2v5*%
X178650000Y-80500000D03*
%TD*%
D17*
%TO.P,R26,1*%
%TO.N,/Vref_5v*%
X180450000Y-83272000D03*
%TO.P,R26,2*%
%TO.N,/Vref_2v5*%
X178625000Y-83272000D03*
%TD*%
D11*
%TO.P,C22,1*%
%TO.N,Net-(U3-DCDC_OUT)*%
X115650000Y-56750000D03*
%TO.P,C22,2*%
%TO.N,/AC_N*%
X115650000Y-54850000D03*
%TD*%
D51*
%TO.P,U1,1,OUTA*%
%TO.N,Net-(U1-OUTA)*%
X150700000Y-78152500D03*
%TO.P,U1,2,-INA*%
%TO.N,Net-(U1--INA)*%
X150700000Y-79422500D03*
%TO.P,U1,3,+INA*%
%TO.N,Net-(U1-+INA)*%
X150700000Y-80692500D03*
%TO.P,U1,4,V-*%
%TO.N,GND*%
X150700000Y-81962500D03*
%TO.P,U1,5,+INB*%
%TO.N,/ACS_Viout*%
X156100000Y-81962500D03*
%TO.P,U1,6,-INB*%
%TO.N,Net-(U1--INB)*%
X156100000Y-80692500D03*
%TO.P,U1,7,OUTB*%
%TO.N,Net-(U1-OUTB)*%
X156100000Y-79422500D03*
%TO.P,U1,8,V+*%
%TO.N,+5V*%
X156100000Y-78152500D03*
%TD*%
D52*
%TO.P,D2,1,K*%
%TO.N,Net-(D2-K)*%
X156500000Y-115055000D03*
%TO.P,D2,2,A*%
%TO.N,Net-(D2-A)*%
X153400000Y-115055000D03*
%TD*%
D53*
%TO.P,L1,1,1*%
%TO.N,Net-(U4-VSENSE)*%
X197250000Y-110650000D03*
%TO.P,L1,2,2*%
%TO.N,Net-(U4-BOOT)*%
X197250000Y-120150000D03*
%TD*%
D54*
%TO.P,D3,A*%
%TO.N,GND*%
X164275000Y-110155000D03*
%TO.P,D3,C*%
%TO.N,Net-(D2-K)*%
X159945000Y-110155000D03*
%TD*%
D15*
%TO.P,C29,1*%
%TO.N,+5V*%
X131150000Y-92550000D03*
%TO.P,C29,2*%
%TO.N,GND*%
X133050000Y-92550000D03*
%TD*%
D26*
%TO.P,C3,1*%
%TO.N,Net-(C3-Pad1)*%
X160400000Y-70207500D03*
%TO.P,C3,2*%
%TO.N,/Vcon_N*%
X160400000Y-72107500D03*
%TD*%
D11*
%TO.P,C25,1*%
%TO.N,Net-(U3-DCDC_IN)*%
X133650000Y-53895000D03*
%TO.P,C25,2*%
%TO.N,GND*%
X133650000Y-51995000D03*
%TD*%
D15*
%TO.P,C2,1*%
%TO.N,+5V*%
X156100000Y-73857500D03*
%TO.P,C2,2*%
%TO.N,GND*%
X158000000Y-73857500D03*
%TD*%
D12*
%TO.P,R2,1*%
%TO.N,/AMC_VoutP*%
X148050000Y-78987500D03*
%TO.P,R2,2*%
%TO.N,Net-(U1-+INA)*%
X148050000Y-80812500D03*
%TD*%
D33*
%TO.P,GND,1,1*%
%TO.N,GND*%
X187800000Y-61400000D03*
%TD*%
D11*
%TO.P,C34,1*%
%TO.N,/+6V*%
X208050000Y-111450000D03*
%TO.P,C34,2*%
%TO.N,GND*%
X208050000Y-109550000D03*
%TD*%
D15*
%TO.P,C31,1*%
%TO.N,+5V*%
X212375000Y-85050000D03*
%TO.P,C31,2*%
%TO.N,GND*%
X214275000Y-85050000D03*
%TD*%
D14*
%TO.P,C11,1*%
%TO.N,/Vref_5v*%
X195200000Y-74550000D03*
%TO.P,C11,2*%
%TO.N,GND*%
X193300000Y-74550000D03*
%TD*%
D26*
%TO.P,C6,1*%
%TO.N,/Icon_N*%
X167100000Y-83400000D03*
%TO.P,C6,2*%
%TO.N,/Icon_P*%
X167100000Y-85300000D03*
%TD*%
%TO.P,C14,1*%
%TO.N,Net-(IC3-TRIM{slash}NR)*%
X180455000Y-88739000D03*
%TO.P,C14,2*%
%TO.N,GND*%
X180455000Y-90639000D03*
%TD*%
D14*
%TO.P,C17,1*%
%TO.N,+5V*%
X174650000Y-81100000D03*
%TO.P,C17,2*%
%TO.N,GND*%
X172750000Y-81100000D03*
%TD*%
D18*
%TO.P,R17,1*%
%TO.N,Net-(IC1-~{CS}{slash}SHDN)*%
X202822500Y-86325000D03*
%TO.P,R17,2*%
%TO.N,/CS*%
X204647500Y-86325000D03*
%TD*%
%TO.P,R30,1*%
%TO.N,Net-(U4-VSENSE)*%
X203737500Y-111200000D03*
%TO.P,R30,2*%
%TO.N,/+6V*%
X205562500Y-111200000D03*
%TD*%
D35*
%TO.P,IC1,1,VREF*%
%TO.N,/Vref_5v*%
X196200000Y-82625000D03*
%TO.P,IC1,2,+IN*%
%TO.N,Net-(IC1-+IN)*%
X196200000Y-83275000D03*
%TO.P,IC1,3,-IN*%
%TO.N,GND*%
X196200000Y-83925000D03*
%TO.P,IC1,4,GND*%
X196200000Y-84575000D03*
%TO.P,IC1,5,~{CS}/SHDN*%
%TO.N,Net-(IC1-~{CS}{slash}SHDN)*%
X200600000Y-84575000D03*
%TO.P,IC1,6,DOUT*%
%TO.N,Net-(IC1-DOUT)*%
X200600000Y-83925000D03*
%TO.P,IC1,7,DCLOCK*%
%TO.N,Net-(IC1-DCLOCK)*%
X200600000Y-83275000D03*
%TO.P,IC1,8,+VCC*%
%TO.N,/Vref_5v*%
X200600000Y-82625000D03*
%TD*%
D55*
%TO.N,GND*%
X134750000Y-92600000D03*
D56*
X149050000Y-82200000D03*
X198650000Y-65500000D03*
X132800000Y-55100000D03*
X173100000Y-83350000D03*
D57*
X137900000Y-120350000D03*
D58*
X210800000Y-108000000D03*
D55*
X203500000Y-107200000D03*
D58*
X183950000Y-124850000D03*
D56*
X229400000Y-106600000D03*
D55*
X131800000Y-98650000D03*
D56*
X232900000Y-104600000D03*
X193900000Y-85850000D03*
D55*
X181905000Y-85639000D03*
D56*
X215550000Y-104250000D03*
X231550000Y-72800000D03*
X159500000Y-76050000D03*
D55*
X220300000Y-75950000D03*
X177200000Y-112550000D03*
D56*
X200900000Y-77400000D03*
X139850000Y-63050000D03*
D55*
X210650000Y-76100000D03*
D58*
X164300000Y-106600000D03*
D56*
X181050000Y-72720000D03*
D55*
X131350000Y-64200000D03*
D58*
X206950000Y-123650000D03*
D56*
X182355000Y-90639000D03*
D55*
X221650000Y-109600000D03*
D56*
X191700000Y-72700000D03*
D55*
X215750000Y-85050000D03*
D56*
X179305000Y-96739000D03*
D55*
X135100000Y-51950000D03*
X177650000Y-109150000D03*
D57*
%TO.N,/Buck_Vin*%
X205500000Y-105600000D03*
X201100000Y-105600000D03*
D56*
%TO.N,+5V*%
X176900000Y-79150000D03*
X217550000Y-103850000D03*
X156050000Y-72450000D03*
X221750000Y-107000000D03*
X212350000Y-86550000D03*
X137650000Y-63000000D03*
X218700000Y-102800000D03*
X131150000Y-90950000D03*
%TO.N,+3.3V*%
X224100000Y-105000000D03*
X225350000Y-104600000D03*
X216650000Y-74400000D03*
X141100000Y-53650000D03*
%TO.N,Net-(U3-DCDC_OUT)*%
X119850000Y-56695000D03*
X120000000Y-54000000D03*
D55*
%TO.N,/AC_N*%
X120050000Y-66800000D03*
D56*
X115400000Y-53450000D03*
D58*
X100800000Y-81250000D03*
X101650000Y-65200000D03*
X99950000Y-61850000D03*
X104150000Y-81950000D03*
D56*
X113200000Y-62100000D03*
D57*
%TO.N,/AC_Path/V_DIV*%
X119500000Y-60550000D03*
X119600000Y-62750000D03*
D55*
%TO.N,/SDO_A*%
X220400000Y-79200000D03*
X222141942Y-79641942D03*
%TO.N,/CS*%
X216534467Y-85206893D03*
X205900000Y-76250000D03*
X218000000Y-83150000D03*
X206050000Y-85150000D03*
%TO.N,/SDO_B*%
X222750000Y-78500000D03*
X220850000Y-77750000D03*
%TO.N,/SCLK*%
X207700000Y-73200000D03*
X207700000Y-76800000D03*
D56*
%TO.N,/DIAG*%
X225500000Y-79425000D03*
D55*
X133850000Y-55450000D03*
D56*
X225500000Y-77150000D03*
D55*
X137200000Y-55500000D03*
%TO.N,Net-(U1-OUTB)*%
X157650000Y-83300000D03*
X157650000Y-80100000D03*
%TO.N,Net-(U1-+INA)*%
X152200000Y-80800000D03*
X153650000Y-80200000D03*
%TO.N,/Vref_5v*%
X177250000Y-87850000D03*
X177500000Y-86575000D03*
%TD*%
D59*
%TO.N,GND*%
X174687500Y-85612500D02*
X174600000Y-85700000D01*
X174687500Y-83300000D02*
X173150000Y-83300000D01*
X196050000Y-71900000D02*
X196050000Y-72550000D01*
D60*
X168350000Y-108150000D02*
X166280000Y-108150000D01*
D59*
X200485000Y-78775000D02*
X200885000Y-78775000D01*
X139850000Y-63050000D02*
X139150000Y-62350000D01*
X129100000Y-97150000D02*
X129450000Y-97500000D01*
X213925000Y-84700000D02*
X214275000Y-85050000D01*
X135055000Y-51995000D02*
X135100000Y-51950000D01*
X182000000Y-74060000D02*
X182000000Y-73670000D01*
X198670000Y-66800000D02*
X198670000Y-65520000D01*
D60*
X166280000Y-108150000D02*
X164275000Y-110155000D01*
D61*
X137850000Y-117987500D02*
X137850000Y-120300000D01*
D59*
X198585000Y-80675000D02*
X200485000Y-78775000D01*
X181894000Y-85650000D02*
X181905000Y-85639000D01*
D61*
X164275000Y-106625000D02*
X164300000Y-106600000D01*
D59*
X213925000Y-83075000D02*
X213925000Y-84700000D01*
X232711000Y-81469000D02*
X231590000Y-82590000D01*
X212675000Y-81850000D02*
X213175000Y-81350000D01*
X178055000Y-94461000D02*
X178255000Y-94261000D01*
X133650000Y-51995000D02*
X135055000Y-51995000D01*
X172750000Y-81100000D02*
X172750000Y-83000000D01*
X149287500Y-81962500D02*
X149050000Y-82200000D01*
X193670000Y-72550000D02*
X193570000Y-72450000D01*
X178055000Y-96761000D02*
X178055000Y-94461000D01*
X158000000Y-73857500D02*
X158000000Y-76007500D01*
X200885000Y-78775000D02*
X200885000Y-77415000D01*
X213925000Y-80600000D02*
X213175000Y-81350000D01*
D62*
X216700000Y-105400000D02*
X216700000Y-105650000D01*
D61*
X137850000Y-120300000D02*
X137900000Y-120350000D01*
D63*
X176800000Y-112150000D02*
X175987500Y-112150000D01*
D59*
X231590000Y-74970000D02*
X231590000Y-72840000D01*
X150700000Y-81962500D02*
X149287500Y-81962500D01*
X229050000Y-82590000D02*
X231590000Y-82590000D01*
X132320000Y-55580000D02*
X131100000Y-55580000D01*
X129450000Y-97500000D02*
X131666000Y-97500000D01*
D61*
X164275000Y-110155000D02*
X164275000Y-106625000D01*
D60*
X203500000Y-107200000D02*
X203500000Y-108612500D01*
D59*
X200885000Y-77415000D02*
X200900000Y-77400000D01*
X231590000Y-72840000D02*
X231550000Y-72800000D01*
D63*
X177200000Y-112550000D02*
X176800000Y-112150000D01*
D59*
X174687500Y-83300000D02*
X174687500Y-85612500D01*
D62*
X216800000Y-108000000D02*
X216800000Y-111035000D01*
D59*
X232711000Y-76091000D02*
X232711000Y-81469000D01*
D62*
X227600000Y-106550000D02*
X229350000Y-106550000D01*
D59*
X172650000Y-78850000D02*
X172650000Y-81000000D01*
X131826000Y-98624000D02*
X131800000Y-98650000D01*
D62*
X216800000Y-111035000D02*
X217000000Y-111235000D01*
D59*
X180500000Y-85650000D02*
X181894000Y-85650000D01*
X193300000Y-74550000D02*
X193300000Y-72720000D01*
X179283000Y-96761000D02*
X179305000Y-96739000D01*
X131666000Y-97500000D02*
X131826000Y-97340000D01*
X158000000Y-76007500D02*
X158050000Y-76057500D01*
X137695000Y-59595000D02*
X139550000Y-61450000D01*
D63*
X179706000Y-109120000D02*
X177680000Y-109120000D01*
D59*
X212125000Y-80350000D02*
X213125000Y-81350000D01*
X213125000Y-81350000D02*
X213175000Y-81350000D01*
X158050000Y-76057500D02*
X159492500Y-76057500D01*
D60*
X183900000Y-124800000D02*
X183950000Y-124850000D01*
D59*
X172750000Y-83000000D02*
X173100000Y-83350000D01*
D60*
X206950000Y-120600000D02*
X206950000Y-123650000D01*
X203500000Y-108612500D02*
X203637500Y-108750000D01*
X210850000Y-109550000D02*
X210850000Y-108050000D01*
D62*
X215550000Y-104250000D02*
X216700000Y-105400000D01*
D59*
X231590000Y-74970000D02*
X232711000Y-76091000D01*
X131826000Y-97340000D02*
X131826000Y-98624000D01*
D62*
X232800000Y-102030000D02*
X232800000Y-104500000D01*
D60*
X208050000Y-109550000D02*
X210850000Y-109550000D01*
D59*
X132800000Y-55100000D02*
X132320000Y-55580000D01*
X213925000Y-83075000D02*
X213925000Y-82100000D01*
X172650000Y-81000000D02*
X172750000Y-81100000D01*
X214900000Y-81350000D02*
X213175000Y-81350000D01*
X193300000Y-72720000D02*
X193570000Y-72450000D01*
D60*
X183900000Y-122105000D02*
X183900000Y-124800000D01*
D59*
X133050000Y-92550000D02*
X134700000Y-92550000D01*
X131100000Y-63200000D02*
X131100000Y-63950000D01*
X210663000Y-76113000D02*
X210650000Y-76100000D01*
X159492500Y-76057500D02*
X159500000Y-76050000D01*
X196050000Y-72550000D02*
X193670000Y-72550000D01*
X212000000Y-76113000D02*
X210663000Y-76113000D01*
X218446500Y-75963000D02*
X220287000Y-75963000D01*
X131100000Y-63950000D02*
X131350000Y-64200000D01*
X139150000Y-62350000D02*
X139150000Y-61800000D01*
D62*
X216700000Y-107900000D02*
X216800000Y-108000000D01*
D59*
X193320000Y-72700000D02*
X193570000Y-72450000D01*
X231590000Y-82590000D02*
X231590000Y-85130000D01*
D62*
X216700000Y-105650000D02*
X216700000Y-107900000D01*
D59*
X196200000Y-84575000D02*
X193935000Y-84575000D01*
X198670000Y-65520000D02*
X198650000Y-65500000D01*
X211450000Y-81850000D02*
X212675000Y-81850000D01*
X193885000Y-85835000D02*
X193900000Y-85850000D01*
X196200000Y-83925000D02*
X196200000Y-84575000D01*
X213925000Y-79625000D02*
X213925000Y-80600000D01*
X136000000Y-59595000D02*
X137695000Y-59595000D01*
X178055000Y-96761000D02*
X179283000Y-96761000D01*
D62*
X232800000Y-104500000D02*
X232900000Y-104600000D01*
D59*
X191700000Y-72700000D02*
X193320000Y-72700000D01*
X213925000Y-82100000D02*
X213175000Y-81350000D01*
D63*
X177680000Y-109120000D02*
X177650000Y-109150000D01*
D59*
X211450000Y-80350000D02*
X212125000Y-80350000D01*
D62*
X223050000Y-109600000D02*
X221650000Y-109600000D01*
D59*
X180455000Y-90639000D02*
X182355000Y-90639000D01*
X173150000Y-83300000D02*
X173100000Y-83350000D01*
X220287000Y-75963000D02*
X220300000Y-75950000D01*
X214275000Y-85050000D02*
X215750000Y-85050000D01*
D60*
X210850000Y-108050000D02*
X210800000Y-108000000D01*
D62*
X229350000Y-106550000D02*
X229400000Y-106600000D01*
D59*
X193935000Y-84575000D02*
X193885000Y-84625000D01*
X182000000Y-73670000D02*
X181050000Y-72720000D01*
X134700000Y-92550000D02*
X134750000Y-92600000D01*
X193885000Y-84625000D02*
X193885000Y-85835000D01*
D61*
%TO.N,/Buck_Vin*%
X168450000Y-110150000D02*
X168350000Y-110050000D01*
D60*
X172162500Y-107887500D02*
X172162500Y-110542500D01*
X199250000Y-105650000D02*
X174400000Y-105650000D01*
D61*
X168350000Y-110050000D02*
X168842500Y-110542500D01*
D60*
X218400000Y-94350000D02*
X232700000Y-94350000D01*
D61*
X172162500Y-110542500D02*
X179553500Y-110542500D01*
D60*
X174400000Y-105650000D02*
X172162500Y-107887500D01*
D61*
X168900000Y-116950000D02*
X168450000Y-116500000D01*
X168450000Y-116500000D02*
X168450000Y-110150000D01*
X168842500Y-110542500D02*
X172162500Y-110542500D01*
D60*
X207150000Y-105600000D02*
X218400000Y-94350000D01*
X201100000Y-105600000D02*
X199300000Y-105600000D01*
X205500000Y-105600000D02*
X207150000Y-105600000D01*
%TO.N,+5V*%
X217550000Y-103850000D02*
X218600000Y-104900000D01*
D59*
X133895000Y-59390000D02*
X134100000Y-59595000D01*
X137650000Y-63000000D02*
X137250000Y-62600000D01*
X210550000Y-82167000D02*
X210733000Y-82350000D01*
D62*
X223050000Y-108650000D02*
X219350000Y-108650000D01*
X218700000Y-111150000D02*
X218500000Y-111350000D01*
D59*
X210550000Y-81033000D02*
X210550000Y-82167000D01*
D62*
X232700000Y-96890000D02*
X226090000Y-103500000D01*
D59*
X175300000Y-78100000D02*
X176370000Y-78100000D01*
D60*
X218600000Y-104900000D02*
X218600000Y-105650000D01*
D59*
X131150000Y-92550000D02*
X129890000Y-92550000D01*
D62*
X220750000Y-103500000D02*
X218600000Y-105650000D01*
X218700000Y-108000000D02*
X218700000Y-111150000D01*
X226090000Y-103500000D02*
X220750000Y-103500000D01*
D59*
X156150000Y-76057500D02*
X156150000Y-78102500D01*
X176450000Y-77720000D02*
X176600000Y-77870000D01*
X210733000Y-80850000D02*
X210550000Y-81033000D01*
X211450000Y-80850000D02*
X210733000Y-80850000D01*
X129890000Y-92550000D02*
X129100000Y-93340000D01*
X156150000Y-78102500D02*
X156100000Y-78152500D01*
X211450000Y-82350000D02*
X212175000Y-83075000D01*
X212425000Y-83075000D02*
X212425000Y-85000000D01*
D60*
X218700000Y-102800000D02*
X218700000Y-105400000D01*
D59*
X212175000Y-83075000D02*
X212425000Y-83075000D01*
D62*
X223050000Y-108300000D02*
X221750000Y-107000000D01*
D59*
X156100000Y-76007500D02*
X156150000Y-76057500D01*
X212425000Y-85000000D02*
X212375000Y-85050000D01*
D60*
X218700000Y-105400000D02*
X218600000Y-105500000D01*
X218700000Y-105750000D02*
X218600000Y-105650000D01*
D59*
X212375000Y-86525000D02*
X212350000Y-86550000D01*
D62*
X223050000Y-110550000D02*
X219300000Y-110550000D01*
D59*
X174550000Y-81000000D02*
X174650000Y-81100000D01*
X131100000Y-59390000D02*
X133895000Y-59390000D01*
D60*
X218600000Y-107900000D02*
X218700000Y-108000000D01*
D59*
X176900000Y-79150000D02*
X176600000Y-78850000D01*
X176370000Y-78100000D02*
X176600000Y-77870000D01*
X131150000Y-92550000D02*
X131150000Y-90950000D01*
X212375000Y-85050000D02*
X212375000Y-86525000D01*
D60*
X218600000Y-105650000D02*
X218600000Y-107900000D01*
D62*
X219300000Y-110550000D02*
X218500000Y-111350000D01*
X219350000Y-108650000D02*
X218700000Y-108000000D01*
D59*
X136305000Y-61800000D02*
X134100000Y-59595000D01*
X137250000Y-61800000D02*
X136305000Y-61800000D01*
X176600000Y-78850000D02*
X176600000Y-77870000D01*
X156100000Y-72500000D02*
X156050000Y-72450000D01*
D62*
X223050000Y-108650000D02*
X223050000Y-108300000D01*
D59*
X174550000Y-78850000D02*
X174550000Y-81000000D01*
X137250000Y-62600000D02*
X137250000Y-61800000D01*
X210733000Y-82350000D02*
X211450000Y-82350000D01*
X156100000Y-73857500D02*
X156100000Y-72500000D01*
X174550000Y-78850000D02*
X175300000Y-78100000D01*
X156100000Y-73857500D02*
X156100000Y-76007500D01*
D60*
X218600000Y-105500000D02*
X218600000Y-105650000D01*
D59*
%TO.N,+3.3V*%
X214650000Y-75963000D02*
X214500000Y-76113000D01*
X216546500Y-75963000D02*
X216546500Y-74503500D01*
D63*
X232700000Y-99430000D02*
X225700000Y-106430000D01*
D62*
X225700000Y-105700000D02*
X225700000Y-106550000D01*
D63*
X139250000Y-53687500D02*
X141062500Y-53687500D01*
D62*
X225350000Y-105350000D02*
X225700000Y-105700000D01*
X225700000Y-108600000D02*
X225650000Y-108650000D01*
X225700000Y-106550000D02*
X225700000Y-108600000D01*
D63*
X225700000Y-106430000D02*
X225700000Y-106550000D01*
D59*
X216546500Y-75963000D02*
X214650000Y-75963000D01*
D62*
X225350000Y-104600000D02*
X225350000Y-105350000D01*
X225700000Y-106550000D02*
X225650000Y-106550000D01*
D59*
X216546500Y-74503500D02*
X216650000Y-74400000D01*
D62*
X225650000Y-106550000D02*
X224100000Y-105000000D01*
D63*
X141062500Y-53687500D02*
X141100000Y-53650000D01*
D60*
%TO.N,Net-(U4-BOOT)*%
X188355000Y-110905000D02*
X197250000Y-119800000D01*
X185294000Y-111660000D02*
X187445000Y-111660000D01*
X188200000Y-110905000D02*
X188355000Y-110905000D01*
X187445000Y-111660000D02*
X188200000Y-110905000D01*
X197250000Y-119230000D02*
X197250000Y-120150000D01*
X197250000Y-119800000D02*
X197250000Y-120150000D01*
D59*
%TO.N,/Vcon_P*%
X162237500Y-69145000D02*
X163100000Y-70007500D01*
X166457500Y-66650000D02*
X193332500Y-66650000D01*
X163100000Y-70007500D02*
X166457500Y-66650000D01*
X149200000Y-69145000D02*
X162237500Y-69145000D01*
X193332500Y-66650000D02*
X193420000Y-66737500D01*
%TO.N,/Vcon_N*%
X162900000Y-72107500D02*
X163100000Y-71907500D01*
X182000000Y-76600000D02*
X182000000Y-77870000D01*
X183600000Y-76220000D02*
X183220000Y-76600000D01*
X160400000Y-72107500D02*
X162900000Y-72107500D01*
X159780000Y-71487500D02*
X160400000Y-72107500D01*
X153900000Y-71487500D02*
X159780000Y-71487500D01*
X183600000Y-73320000D02*
X183600000Y-76220000D01*
X183220000Y-76600000D02*
X182000000Y-76600000D01*
X182187500Y-71907500D02*
X183600000Y-73320000D01*
X163100000Y-71907500D02*
X182187500Y-71907500D01*
%TO.N,/Icon_N*%
X165137500Y-82962500D02*
X165575000Y-83400000D01*
X167100000Y-83400000D02*
X167100000Y-82853486D01*
X162450000Y-82850000D02*
X164637500Y-82850000D01*
X164750000Y-82962500D02*
X165137500Y-82962500D01*
X176600000Y-75330000D02*
X176600000Y-76600000D01*
X165575000Y-83400000D02*
X167100000Y-83400000D01*
X173493486Y-76460000D02*
X176650000Y-76460000D01*
X164637500Y-82850000D02*
X164750000Y-82962500D01*
X167100000Y-82853486D02*
X173493486Y-76460000D01*
%TO.N,/Icon_P*%
X165680000Y-86720000D02*
X167100000Y-85300000D01*
X170050000Y-87200000D02*
X186350000Y-87200000D01*
X190737500Y-82812500D02*
X191585000Y-82812500D01*
X186350000Y-87200000D02*
X190737500Y-82812500D01*
X159550000Y-86720000D02*
X165680000Y-86720000D01*
X168150000Y-85300000D02*
X170050000Y-87200000D01*
X167100000Y-85300000D02*
X168150000Y-85300000D01*
%TO.N,Net-(U3-DCDC_IN)*%
X136100000Y-56345000D02*
X133650000Y-53895000D01*
X131515000Y-53895000D02*
X131100000Y-54310000D01*
X133650000Y-53895000D02*
X131515000Y-53895000D01*
X136100000Y-57345000D02*
X136100000Y-56345000D01*
%TO.N,Net-(U3-LDO_OUT)*%
X134200000Y-57345000D02*
X133425000Y-58120000D01*
X133425000Y-58120000D02*
X131100000Y-58120000D01*
D63*
%TO.N,Net-(U3-DCDC_OUT)*%
X120054215Y-54150000D02*
X121640000Y-54150000D01*
X120000000Y-54000000D02*
X120000000Y-54095785D01*
X119850000Y-56695000D02*
X120197535Y-56695000D01*
X120197535Y-56695000D02*
X121645000Y-56695000D01*
X115650000Y-56750000D02*
X118150000Y-56750000D01*
X119000000Y-56695000D02*
X120197535Y-56695000D01*
X121645000Y-56695000D02*
X121800000Y-56850000D01*
X120000000Y-54095785D02*
X120054215Y-54150000D01*
X118150000Y-56750000D02*
X118250000Y-56650000D01*
X121640000Y-54150000D02*
X121800000Y-54310000D01*
%TO.N,/AC_N*%
X118700000Y-65957500D02*
X116412500Y-68245000D01*
D64*
X62400000Y-86050000D02*
X62400000Y-74870000D01*
D63*
X117822500Y-61650000D02*
X117672500Y-61500000D01*
X121800000Y-61930000D02*
X121531000Y-61661000D01*
D64*
X101600000Y-65150000D02*
X101650000Y-65200000D01*
D63*
X121531000Y-61661000D02*
X120568348Y-61661000D01*
D64*
X99600000Y-65150000D02*
X101600000Y-65150000D01*
X102650000Y-83450000D02*
X104150000Y-81950000D01*
D63*
X121800000Y-63200000D02*
X121800000Y-61930000D01*
D64*
X99600000Y-65150000D02*
X99600000Y-62200000D01*
D63*
X113200000Y-62100000D02*
X113695000Y-61605000D01*
D64*
X100800000Y-81600000D02*
X100800000Y-81250000D01*
X99600000Y-62200000D02*
X99950000Y-61850000D01*
D63*
X115400000Y-54600000D02*
X115650000Y-54850000D01*
D62*
X118895000Y-54750000D02*
X118250000Y-54750000D01*
D63*
X115400000Y-53450000D02*
X115400000Y-54600000D01*
D64*
X94600000Y-65150000D02*
X99600000Y-65150000D01*
D63*
X120568348Y-61661000D02*
X120557348Y-61650000D01*
X118745000Y-65495000D02*
X120050000Y-66800000D01*
X118700000Y-65495000D02*
X118745000Y-65495000D01*
X120070001Y-55580000D02*
X121800000Y-55580000D01*
X118250000Y-54750000D02*
X115750000Y-54750000D01*
X120557348Y-61650000D02*
X117822500Y-61650000D01*
D64*
X62400000Y-95612500D02*
X62400000Y-86050000D01*
D63*
X117672500Y-61500000D02*
X114927500Y-61500000D01*
X114927500Y-61500000D02*
X114822500Y-61605000D01*
D64*
X100050000Y-86050000D02*
X102650000Y-83450000D01*
X62400000Y-86050000D02*
X100050000Y-86050000D01*
X65990000Y-99202500D02*
X62400000Y-95612500D01*
D63*
X115750000Y-54750000D02*
X115650000Y-54850000D01*
X119240001Y-54750000D02*
X118250000Y-54750000D01*
X118700000Y-65495000D02*
X118700000Y-65957500D01*
X119240001Y-54750000D02*
X120070001Y-55580000D01*
D64*
X62400000Y-74870000D02*
X65550000Y-71720000D01*
X102650000Y-83450000D02*
X100800000Y-81600000D01*
D63*
X113695000Y-61605000D02*
X114822500Y-61605000D01*
%TO.N,Net-(U3-HLDO_OUT)*%
X114822500Y-59705000D02*
X117567500Y-59705000D01*
X121800000Y-59390000D02*
X117882500Y-59390000D01*
X117567500Y-59705000D02*
X117672500Y-59600000D01*
X117882500Y-59390000D02*
X117672500Y-59600000D01*
X117672500Y-59600000D02*
X117977500Y-59295000D01*
%TO.N,/AC_Path/V_DIV*%
X118755000Y-63595000D02*
X119600000Y-62750000D01*
X121690000Y-60550000D02*
X121800000Y-60660000D01*
X119500000Y-60550000D02*
X121690000Y-60550000D01*
X114800000Y-63882500D02*
X118412500Y-63882500D01*
X118700000Y-63595000D02*
X118755000Y-63595000D01*
X118412500Y-63882500D02*
X118700000Y-63595000D01*
D61*
%TO.N,Net-(D2-K)*%
X159945000Y-112595000D02*
X164300000Y-116950000D01*
X162405000Y-115055000D02*
X164300000Y-116950000D01*
X156500000Y-115055000D02*
X162405000Y-115055000D01*
X159945000Y-110155000D02*
X159945000Y-112595000D01*
%TO.N,Net-(D2-A)*%
X153050000Y-115405000D02*
X153400000Y-115055000D01*
X153050000Y-119955000D02*
X153050000Y-115405000D01*
%TO.N,/+9V_IN*%
X147700000Y-119505000D02*
X148150000Y-119955000D01*
X148150000Y-111400000D02*
X149650000Y-111400000D01*
X137850000Y-111787500D02*
X139087500Y-110550000D01*
X148150000Y-111400000D02*
X148150000Y-119955000D01*
X147300000Y-110550000D02*
X148150000Y-111400000D01*
X139087500Y-110550000D02*
X147300000Y-110550000D01*
X149650000Y-111400000D02*
X151550000Y-109500000D01*
D64*
%TO.N,/AC_Path/FUSED_AC_L*%
X96937500Y-77437500D02*
X106900000Y-77437500D01*
X92150000Y-72650000D02*
X96937500Y-77437500D01*
X121785338Y-93340000D02*
X123676000Y-93340000D01*
X123749000Y-94185000D02*
X123676000Y-94185000D01*
X123749000Y-93413000D02*
X123749000Y-94185000D01*
X91400000Y-72650000D02*
X92150000Y-72650000D01*
X123676000Y-93340000D02*
X123749000Y-93413000D01*
X106900000Y-78454662D02*
X121785338Y-93340000D01*
X84350000Y-79700000D02*
X91400000Y-72650000D01*
X80350000Y-79700000D02*
X84350000Y-79700000D01*
X106900000Y-77437500D02*
X106900000Y-78454662D01*
%TO.N,/AC_L*%
X65550000Y-66640000D02*
X66110000Y-67200000D01*
X66110000Y-67200000D02*
X80350000Y-67200000D01*
%TO.N,/LOAD_L*%
X65990000Y-94122500D02*
X69017500Y-97150000D01*
X123676000Y-97150000D02*
X123676000Y-96186000D01*
X69017500Y-97150000D02*
X123676000Y-97150000D01*
D59*
%TO.N,/ACS_Viout*%
X129100000Y-94610000D02*
X143890000Y-94610000D01*
X156100000Y-82400000D02*
X156100000Y-81962500D01*
X143890000Y-94610000D02*
X156100000Y-82400000D01*
%TO.N,Net-(C3-Pad1)*%
X148937500Y-73707500D02*
X148937500Y-71232500D01*
X148937500Y-71232500D02*
X149200000Y-70970000D01*
X160400000Y-70207500D02*
X149962500Y-70207500D01*
X149962500Y-70207500D02*
X149200000Y-70970000D01*
%TO.N,/SDO_A*%
X213650000Y-75163000D02*
X214500000Y-75163000D01*
X220400000Y-79200000D02*
X219900000Y-78700000D01*
X214585000Y-78700000D02*
X213574000Y-77689000D01*
X213574000Y-77689000D02*
X213574000Y-75239000D01*
X222141942Y-79641942D02*
X227630000Y-85130000D01*
X227630000Y-85130000D02*
X229050000Y-85130000D01*
X213574000Y-75239000D02*
X213650000Y-75163000D01*
X219900000Y-78700000D02*
X214585000Y-78700000D01*
%TO.N,/CS*%
X216432062Y-85309298D02*
X216534467Y-85206893D01*
X206000000Y-75500000D02*
X205550000Y-75050000D01*
X206050000Y-85950000D02*
X205675000Y-86325000D01*
X206576000Y-87226000D02*
X214459298Y-87226000D01*
X216376000Y-85309298D02*
X216432062Y-85309298D01*
X205675000Y-86325000D02*
X206576000Y-87226000D01*
X216700000Y-81850000D02*
X214900000Y-81850000D01*
X214459298Y-87226000D02*
X216376000Y-85309298D01*
X206000000Y-76050000D02*
X206000000Y-75500000D01*
X205675000Y-86325000D02*
X204647500Y-86325000D01*
X206050000Y-85150000D02*
X206050000Y-85950000D01*
X205900000Y-76250000D02*
X205900000Y-76150000D01*
X205900000Y-76150000D02*
X206000000Y-76050000D01*
X218000000Y-83150000D02*
X216700000Y-81850000D01*
X205550000Y-75050000D02*
X204532500Y-75050000D01*
%TO.N,/SDO_B*%
X223000000Y-78750000D02*
X230290000Y-78750000D01*
X222750000Y-78500000D02*
X223000000Y-78750000D01*
X214500000Y-77063000D02*
X214837000Y-77400000D01*
X214837000Y-77400000D02*
X220500000Y-77400000D01*
X230290000Y-78750000D02*
X231590000Y-80050000D01*
X220500000Y-77400000D02*
X220850000Y-77750000D01*
%TO.N,/SCLK*%
X221500000Y-73750000D02*
X221500000Y-79400000D01*
X207700000Y-73200000D02*
X207700000Y-71850000D01*
X207800000Y-80700000D02*
X207800000Y-76900000D01*
X206550000Y-70700000D02*
X204582500Y-70700000D01*
X207700000Y-71850000D02*
X207450000Y-71600000D01*
X220550000Y-80350000D02*
X214900000Y-80350000D01*
X221500000Y-79400000D02*
X220550000Y-80350000D01*
X204647500Y-81925000D02*
X206575000Y-81925000D01*
X207450000Y-71600000D02*
X219350000Y-71600000D01*
X219350000Y-71600000D02*
X221500000Y-73750000D01*
X207800000Y-76900000D02*
X207700000Y-76800000D01*
X207450000Y-71600000D02*
X206550000Y-70700000D01*
X206575000Y-81925000D02*
X207800000Y-80700000D01*
%TO.N,/DIAG*%
X226125000Y-80050000D02*
X229050000Y-80050000D01*
X131100000Y-56850000D02*
X132450000Y-56850000D01*
X139237500Y-55500000D02*
X139250000Y-55512500D01*
X132450000Y-56850000D02*
X133850000Y-55450000D01*
X225500000Y-79425000D02*
X226125000Y-80050000D01*
X225500000Y-77150000D02*
X225500000Y-67700000D01*
X225500000Y-67700000D02*
X213295000Y-55495000D01*
X213295000Y-55495000D02*
X139862500Y-55495000D01*
X137200000Y-55500000D02*
X139237500Y-55500000D01*
%TO.N,Net-(U1--INB)*%
X164617500Y-81270000D02*
X164750000Y-81137500D01*
X157920000Y-81270000D02*
X157342500Y-80692500D01*
X158900000Y-81270000D02*
X164617500Y-81270000D01*
X158900000Y-81270000D02*
X157920000Y-81270000D01*
X157342500Y-80692500D02*
X156100000Y-80692500D01*
%TO.N,Net-(U1-OUTA)*%
X150762500Y-73707500D02*
X150762500Y-76057500D01*
X150762500Y-76057500D02*
X150762500Y-78090000D01*
X150762500Y-78090000D02*
X150700000Y-78152500D01*
%TO.N,Net-(U1-OUTB)*%
X157650000Y-83300000D02*
X157650000Y-84445000D01*
X158305000Y-79445000D02*
X157650000Y-80100000D01*
X158900000Y-79445000D02*
X156122500Y-79445000D01*
X156122500Y-79445000D02*
X156100000Y-79422500D01*
X158900000Y-79445000D02*
X158305000Y-79445000D01*
X157650000Y-84445000D02*
X157300000Y-84795000D01*
D60*
%TO.N,Net-(U4-VSENSE)*%
X194450000Y-107850000D02*
X197250000Y-110650000D01*
X197250000Y-110650000D02*
X203187500Y-110650000D01*
X185294000Y-107850000D02*
X194450000Y-107850000D01*
X203687500Y-111250000D02*
X203737500Y-111200000D01*
X203187500Y-110650000D02*
X203737500Y-111200000D01*
X197250000Y-110650000D02*
X197850000Y-111250000D01*
D59*
%TO.N,/AMC_VoutP*%
X131910000Y-60660000D02*
X133400000Y-62150000D01*
X147750000Y-74600000D02*
X147750000Y-78687500D01*
X135300000Y-62150000D02*
X147750000Y-74600000D01*
X147750000Y-78687500D02*
X148050000Y-78987500D01*
X131100000Y-60660000D02*
X131910000Y-60660000D01*
X133400000Y-62150000D02*
X135300000Y-62150000D01*
%TO.N,Net-(U1-+INA)*%
X153900000Y-73312500D02*
X153900000Y-79950000D01*
X153900000Y-79950000D02*
X153650000Y-80200000D01*
X150580000Y-80812500D02*
X150700000Y-80692500D01*
X152200000Y-80800000D02*
X150807500Y-80800000D01*
X148050000Y-80812500D02*
X150580000Y-80812500D01*
X150807500Y-80800000D02*
X150700000Y-80692500D01*
%TO.N,Net-(U1--INA)*%
X149450000Y-78396678D02*
X149450000Y-79200000D01*
X152222500Y-79422500D02*
X150700000Y-79422500D01*
X150700000Y-83900000D02*
X152850000Y-81750000D01*
X149672500Y-79422500D02*
X150700000Y-79422500D01*
X152850000Y-81750000D02*
X152850000Y-80050000D01*
X148937500Y-77884178D02*
X149450000Y-78396678D01*
X149612500Y-83900000D02*
X150700000Y-83900000D01*
X149450000Y-79200000D02*
X149672500Y-79422500D01*
X152850000Y-80050000D02*
X152222500Y-79422500D01*
X148937500Y-76057500D02*
X148937500Y-77884178D01*
%TO.N,/AMC_VoutN*%
X133017649Y-62822650D02*
X133017649Y-64917649D01*
X146600000Y-82712500D02*
X147787500Y-83900000D01*
X133017649Y-64917649D02*
X146600000Y-78500000D01*
X131100000Y-61930000D02*
X132124999Y-61930000D01*
X132124999Y-61930000D02*
X133017649Y-62822650D01*
X146600000Y-78500000D02*
X146600000Y-82712500D01*
%TO.N,Net-(C4-Pad2)*%
X159550000Y-84895000D02*
X162305000Y-84895000D01*
X162305000Y-84895000D02*
X162450000Y-84750000D01*
X157300000Y-86620000D02*
X157825000Y-86620000D01*
X157825000Y-86620000D02*
X159550000Y-84895000D01*
%TO.N,Net-(C7-Pad1)*%
X198585000Y-78775000D02*
X196272500Y-78775000D01*
X196272500Y-78775000D02*
X196185000Y-78862500D01*
D65*
%TO.N,Net-(C8-Pad1)*%
X200482500Y-66887500D02*
X198670000Y-68700000D01*
X201100000Y-66887500D02*
X200482500Y-66887500D01*
D59*
%TO.N,Net-(IC1-+IN)*%
X193885000Y-82725000D02*
X194435000Y-83275000D01*
X191585000Y-84637500D02*
X191972500Y-84637500D01*
X191972500Y-84637500D02*
X193885000Y-82725000D01*
X194435000Y-83275000D02*
X196200000Y-83275000D01*
D65*
%TO.N,Net-(IC2-+IN)*%
X193420000Y-68562500D02*
X193420000Y-70400000D01*
X193570000Y-70550000D02*
X194270000Y-71250000D01*
X194270000Y-71250000D02*
X196050000Y-71250000D01*
X193420000Y-70400000D02*
X193570000Y-70550000D01*
D59*
%TO.N,Net-(IC3-TRIM{slash}NR)*%
X180455000Y-88739000D02*
X178355000Y-88739000D01*
X178355000Y-88739000D02*
X178255000Y-88839000D01*
%TO.N,/Vref_5v*%
X180450000Y-83272000D02*
X184928000Y-83272000D01*
X193200000Y-78100000D02*
X193200000Y-79400000D01*
X200450000Y-70600000D02*
X200800000Y-70250000D01*
X196050000Y-70600000D02*
X196800000Y-70600000D01*
X196200000Y-82625000D02*
X200600000Y-82625000D01*
X193200000Y-79400000D02*
X194487500Y-80687500D01*
X195200000Y-75850000D02*
X195200000Y-74550000D01*
X194487500Y-80687500D02*
X196185000Y-80687500D01*
X190100000Y-78100000D02*
X193200000Y-78100000D01*
X196185000Y-82610000D02*
X196200000Y-82625000D01*
X177500000Y-86575000D02*
X177675000Y-86575000D01*
X197076000Y-73101000D02*
X197076000Y-70876000D01*
X193200000Y-77000000D02*
X193950000Y-76250000D01*
X196185000Y-80687500D02*
X196185000Y-82610000D01*
X200800000Y-69012500D02*
X201100000Y-68712500D01*
X184928000Y-83272000D02*
X190100000Y-78100000D01*
X177050000Y-87850000D02*
X176985000Y-87915000D01*
X196070000Y-70580000D02*
X196050000Y-70600000D01*
X180450000Y-83800000D02*
X180450000Y-83272000D01*
X177675000Y-86575000D02*
X178600000Y-85650000D01*
X177250000Y-87850000D02*
X177050000Y-87850000D01*
X193950000Y-76250000D02*
X194800000Y-76250000D01*
X194800000Y-76250000D02*
X195200000Y-75850000D01*
X193200000Y-78100000D02*
X193200000Y-77000000D01*
X196800000Y-70600000D02*
X200450000Y-70600000D01*
X197076000Y-70876000D02*
X196800000Y-70600000D01*
X178600000Y-85650000D02*
X180450000Y-83800000D01*
X200885000Y-80675000D02*
X200885000Y-82340000D01*
X195200000Y-74550000D02*
X195627000Y-74550000D01*
X200885000Y-82340000D02*
X200600000Y-82625000D01*
X176985000Y-87915000D02*
X176985000Y-88839000D01*
X200800000Y-70250000D02*
X200800000Y-69012500D01*
X195627000Y-74550000D02*
X197076000Y-73101000D01*
%TO.N,/Vref_2v5*%
X178575000Y-75260001D02*
X178625000Y-75310001D01*
X178575000Y-75260001D02*
X177374999Y-74060000D01*
X176500000Y-85700000D02*
X176500000Y-83312500D01*
X177374999Y-74060000D02*
X176600000Y-74060000D01*
X178625000Y-83272000D02*
X178625000Y-83575000D01*
X178625000Y-83272000D02*
X178625000Y-75310001D01*
X178625000Y-83575000D02*
X176500000Y-85700000D01*
X178644999Y-75330000D02*
X182000000Y-75330000D01*
X176500000Y-83312500D02*
X176512500Y-83300000D01*
X178625000Y-75310001D02*
X178644999Y-75330000D01*
%TO.N,Net-(IC4-FILTER)*%
X129100000Y-95880000D02*
X131386000Y-95880000D01*
X131386000Y-95880000D02*
X131826000Y-95440000D01*
D60*
%TO.N,Net-(D1-K)*%
X188200000Y-112805000D02*
X186400000Y-112805000D01*
X186400000Y-112805000D02*
X183900000Y-115305000D01*
X183900000Y-115305000D02*
X183351000Y-115305000D01*
X183351000Y-115305000D02*
X179706000Y-111660000D01*
D59*
%TO.N,Net-(IC1-DCLOCK)*%
X201472500Y-83275000D02*
X200600000Y-83275000D01*
X202822500Y-81925000D02*
X201472500Y-83275000D01*
%TO.N,Net-(IC1-~{CS}{slash}SHDN)*%
X201072500Y-84575000D02*
X200600000Y-84575000D01*
X202822500Y-86325000D02*
X201072500Y-84575000D01*
%TO.N,Net-(IC1-DOUT)*%
X202635000Y-83925000D02*
X200600000Y-83925000D01*
X202785000Y-84075000D02*
X202635000Y-83925000D01*
%TO.N,Net-(IC2-DCLOCK)*%
X202757500Y-70700000D02*
X202207500Y-71250000D01*
X202207500Y-71250000D02*
X200450000Y-71250000D01*
%TO.N,Net-(IC2-DOUT)*%
X200450000Y-71900000D02*
X201857500Y-71900000D01*
X201857500Y-71900000D02*
X202757500Y-72800000D01*
%TO.N,Net-(IC2-~{CS}{slash}SHDN)*%
X201650000Y-73992500D02*
X201650000Y-73050000D01*
X201650000Y-73050000D02*
X201150000Y-72550000D01*
X201150000Y-72550000D02*
X200450000Y-72550000D01*
X202707500Y-75050000D02*
X201650000Y-73992500D01*
%TO.N,/DOUT_B*%
X207425000Y-84075000D02*
X208700000Y-82800000D01*
X208700000Y-78200000D02*
X209837000Y-77063000D01*
X209837000Y-77063000D02*
X212000000Y-77063000D01*
X208700000Y-82800000D02*
X208700000Y-78200000D01*
X204610000Y-84075000D02*
X207425000Y-84075000D01*
%TO.N,/DOUT_A*%
X204582500Y-72800000D02*
X205850000Y-72800000D01*
X205850000Y-72800000D02*
X207350000Y-74300000D01*
X207350000Y-75050000D02*
X207463000Y-75163000D01*
X207350000Y-74300000D02*
X207350000Y-75050000D01*
X207463000Y-75163000D02*
X212000000Y-75163000D01*
X211763000Y-75400000D02*
X212000000Y-75163000D01*
%TO.N,/FPGA_CS*%
X222500000Y-89450000D02*
X230750000Y-89450000D01*
X215400000Y-82350000D02*
X222500000Y-89450000D01*
X214900000Y-82350000D02*
X215400000Y-82350000D01*
X231590000Y-88610000D02*
X231590000Y-87670000D01*
X230750000Y-89450000D02*
X231590000Y-88610000D01*
D63*
%TO.N,Net-(R21-Pad2)*%
X111187500Y-77237500D02*
X108925000Y-77237500D01*
X108925000Y-77237500D02*
X108725000Y-77437500D01*
%TO.N,Net-(R22-Pad2)*%
X113537500Y-76712500D02*
X113012500Y-77237500D01*
X113537500Y-74487500D02*
X113537500Y-76712500D01*
%TO.N,Net-(R23-Pad2)*%
X115600000Y-71687500D02*
X115600000Y-74250000D01*
X115600000Y-74250000D02*
X115362500Y-74487500D01*
%TO.N,Net-(R24-Pad2)*%
X114587500Y-68945000D02*
X115492500Y-69850000D01*
X117425000Y-70425000D02*
X117425000Y-71687500D01*
X114587500Y-68437500D02*
X114212500Y-68812500D01*
X115492500Y-69850000D02*
X116900000Y-69850000D01*
X116900000Y-69850000D02*
X116900000Y-69900000D01*
X114587500Y-68245000D02*
X114587500Y-68945000D01*
X116900000Y-69900000D02*
X117425000Y-70425000D01*
X114587500Y-68245000D02*
X114587500Y-68437500D01*
X114800000Y-68032500D02*
X114587500Y-68245000D01*
X114800000Y-65707500D02*
X114800000Y-68032500D01*
%TO.N,Net-(D4-A)*%
X172380000Y-112150000D02*
X174412500Y-112150000D01*
X172162500Y-112367500D02*
X172380000Y-112150000D01*
D59*
%TO.N,/FPGA_SCLK*%
X214900000Y-80850000D02*
X222230000Y-80850000D01*
X222230000Y-80850000D02*
X229050000Y-87670000D01*
D62*
%TO.N,/+6V*%
X205462500Y-108750000D02*
X205462500Y-111100000D01*
D60*
X206950000Y-113750000D02*
X208050000Y-112650000D01*
X206950000Y-115200000D02*
X206950000Y-113750000D01*
D62*
X201226720Y-103450000D02*
X205462500Y-107685780D01*
X215400000Y-111450000D02*
X215500000Y-111350000D01*
X182844000Y-103450000D02*
X201226720Y-103450000D01*
D59*
X176155000Y-96755000D02*
X175715000Y-96315000D01*
D62*
X205562500Y-111200000D02*
X207800000Y-111200000D01*
D59*
X176155000Y-96761000D02*
X176155000Y-96755000D01*
D62*
X207800000Y-111200000D02*
X208050000Y-111450000D01*
X208050000Y-111450000D02*
X210850000Y-111450000D01*
X210850000Y-111450000D02*
X215400000Y-111450000D01*
X205462500Y-107685780D02*
X205462500Y-108750000D01*
X176155000Y-96761000D02*
X182844000Y-103450000D01*
D60*
X205562500Y-111200000D02*
X205600000Y-111200000D01*
D62*
X205462500Y-111100000D02*
X205562500Y-111200000D01*
D60*
X208050000Y-112650000D02*
X208050000Y-111450000D01*
%TD*%
M02*
