ISO-10303-21;
HEADER;
FILE_DESCRIPTION(('CAx-IF Rec.Pracs.---Model Styling and Organization---1.5---2016-08-15','CAx-IF Rec.Pracs.---Geometric and Assembly Validation Properties---4.4---2016-08-17','CAx-IF Rec.Pracs.---User Defined Attributes---1.5---2016-08-15','CAx-IF Rec.Pracs.---External References---2.1---2005-01-19'),'2;1');
FILE_NAME('371036.step','2026-08-08T20:55:13',('Unspecified'),('Unspecified'),'CAD Exchanger 3.10.2 (cadexchanger.com)','Unspecified','');
FILE_SCHEMA(('AUTOMOTIVE_DESIGN { 1 0 10303 214 1 1 1 1 }'));
ENDSEC;
DATA;
#1=APPLICATION_CONTEXT('core data for automotive mechanical design processes');
#2=APPLICATION_PROTOCOL_DEFINITION('international standard','automotive_design',2000,#1);
#3=PRODUCT_CONTEXT('',#1,'mechanical');
#4=PRODUCT('0215001.MXP','0215001.MXP',$,(#3));
#5=PRODUCT_DEFINITION_FORMATION('',$,#4);
#6=PRODUCT_DEFINITION_CONTEXT('part definition',#1,'design');
#7=PRODUCT_DEFINITION('design',$,#5,#6);
#8=PRODUCT_DEFINITION_SHAPE('',$,#7);
#9=MANIFOLD_SOLID_BREP('Fillet2',#10);
#10=CLOSED_SHELL('NONE',(#11,#67,#123,#157,#169,#199,#229,#239));
#11=ADVANCED_FACE('NONE',(#12),#50,.T.);
#12=FACE_BOUND('NONE',#13,.T.);
#13=EDGE_LOOP('',(#14,#25,#34,#43));
#14=ORIENTED_EDGE('',*,*,#15,.T.);
#15=EDGE_CURVE('NONE',#16,#18,#20,.F.);
#16=VERTEX_POINT('NONE',#17);
#17=CARTESIAN_POINT('',(9.8,2.602085214E-15,3.245314018E-16));
#18=VERTEX_POINT('NONE',#19);
#19=CARTESIAN_POINT('',(9.8,5.3,0.0));
#20=CIRCLE('',#21,2.65);
#21=AXIS2_PLACEMENT_3D('',#22,#23,#24);
#22=CARTESIAN_POINT('',(9.8,2.65,0.0));
#23=DIRECTION('',(-1.0,-9.244806817E-17,0.0));
#24=DIRECTION('',(-9.244806817E-17,1.0,0.0));
#25=ORIENTED_EDGE('',*,*,#26,.T.);
#26=EDGE_CURVE('NONE',#18,#27,#29,.T.);
#27=VERTEX_POINT('NONE',#28);
#28=CARTESIAN_POINT('',(10.0,5.1,3.04937053E-16));
#29=CIRCLE('',#30,0.2);
#30=AXIS2_PLACEMENT_3D('',#31,#32,#33);
#31=CARTESIAN_POINT('',(9.8,5.1,3.000384658E-16));
#32=DIRECTION('',(-1.132162308E-32,1.224646799E-16,-1.0));
#33=DIRECTION('',(-3.038581679E-63,1.0,1.224646799E-16));
#34=ORIENTED_EDGE('',*,*,#35,.T.);
#35=EDGE_CURVE('NONE',#27,#36,#38,.T.);
#36=VERTEX_POINT('NONE',#37);
#37=CARTESIAN_POINT('',(10.0,0.2,0.0));
#38=(BOUNDED_CURVE()B_SPLINE_CURVE(3,(#39,#40,#41,#42),.UNSPECIFIED.,.F.,.U.)B_SPLINE_CURVE_WITH_KNOTS((4,4),(0.0,1.0),.PIECEWISE_BEZIER_KNOTS.)CURVE()GEOMETRIC_REPRESENTATION_ITEM()RATIONAL_B_SPLINE_CURVE((1.0,0.333333333,0.333333333,1.0))REPRESENTATION_ITEM(''));
#39=CARTESIAN_POINT('',(10.0,5.1,3.04937053E-16));
#40=CARTESIAN_POINT('',(10.0,5.1,-4.9));
#41=CARTESIAN_POINT('',(10.0,0.2,-4.9));
#42=CARTESIAN_POINT('',(10.0,0.2,0.0));
#43=ORIENTED_EDGE('',*,*,#44,.T.);
#44=EDGE_CURVE('NONE',#36,#16,#45,.F.);
#45=CIRCLE('',#46,0.2);
#46=AXIS2_PLACEMENT_3D('',#47,#48,#49);
#47=CARTESIAN_POINT('',(9.8,0.2,0.0));
#48=DIRECTION('',(0.0,0.0,1.0));
#49=DIRECTION('',(0.0,-1.0,0.0));
#50=(BOUNDED_SURFACE()B_SPLINE_SURFACE(3,3,((#51,#52,#53,#54),(#55,#56,#57,#58),(#59,#60,#61,#62),(#63,#64,#65,#66)),.UNSPECIFIED.,.F.,.F.,.U.)B_SPLINE_SURFACE_WITH_KNOTS((4,4),(4,4),(0.0,1.0),(0.0,1.0),.PIECEWISE_BEZIER_KNOTS.)GEOMETRIC_REPRESENTATION_ITEM()RATIONAL_B_SPLINE_SURFACE(((1.0,0.333333333,0.333333333,1.0),(0.804737854,0.268245951,0.268245951,0.804737854),(0.804737854,0.268245951,0.268245951,0.804737854),(1.0,0.333333333,0.333333333,1.0)))REPRESENTATION_ITEM('')SURFACE());
#51=CARTESIAN_POINT('',(9.8,5.3,3.245314018E-16));
#52=CARTESIAN_POINT('',(9.8,5.3,-5.3));
#53=CARTESIAN_POINT('',(9.8,3.900210821E-15,-5.3));
#54=CARTESIAN_POINT('',(9.8,2.602085214E-15,-6.490628035E-16));
#55=CARTESIAN_POINT('',(9.917157288,5.3,3.245314018E-16));
#56=CARTESIAN_POINT('',(9.917157288,5.3,-5.3));
#57=CARTESIAN_POINT('',(9.917157288,3.900210821E-15,-5.3));
#58=CARTESIAN_POINT('',(9.917157288,2.602085214E-15,-6.490628035E-16));
#59=CARTESIAN_POINT('',(10.0,5.217157288,3.143860955E-16));
#60=CARTESIAN_POINT('',(10.0,5.217157288,-5.134314575));
#61=CARTESIAN_POINT('',(10.0,0.082842712,-5.134314575));
#62=CARTESIAN_POINT('',(10.0,0.082842712,-6.28772191E-16));
#63=CARTESIAN_POINT('',(10.0,5.1,3.000384658E-16));
#64=CARTESIAN_POINT('',(10.0,5.1,-4.9));
#65=CARTESIAN_POINT('',(10.0,0.2,-4.9));
#66=CARTESIAN_POINT('',(10.0,0.2,-6.000769316E-16));
#67=ADVANCED_FACE('NONE',(#68),#106,.T.);
#68=FACE_BOUND('NONE',#69,.T.);
#69=EDGE_LOOP('',(#70,#81,#90,#99));
#70=ORIENTED_EDGE('',*,*,#71,.T.);
#71=EDGE_CURVE('NONE',#72,#74,#76,.F.);
#72=VERTEX_POINT('NONE',#73);
#73=CARTESIAN_POINT('',(5.1,5.3,0.0));
#74=VERTEX_POINT('NONE',#75);
#75=CARTESIAN_POINT('',(5.1,2.168404345E-15,3.245314018E-16));
#76=CIRCLE('',#77,2.65);
#77=AXIS2_PLACEMENT_3D('',#78,#79,#80);
#78=CARTESIAN_POINT('',(5.1,2.65,0.0));
#79=DIRECTION('',(1.0,9.244806817E-17,0.0));
#80=DIRECTION('',(-9.244806817E-17,1.0,0.0));
#81=ORIENTED_EDGE('',*,*,#82,.T.);
#82=EDGE_CURVE('NONE',#74,#83,#85,.T.);
#83=VERTEX_POINT('NONE',#84);
#84=CARTESIAN_POINT('',(4.9,0.2,3.04937053E-16));
#85=CIRCLE('',#86,0.2);
#86=AXIS2_PLACEMENT_3D('',#87,#88,#89);
#87=CARTESIAN_POINT('',(5.1,0.2,3.000384658E-16));
#88=DIRECTION('',(1.132162308E-32,-1.224646799E-16,-1.0));
#89=DIRECTION('',(6.077163357E-64,-1.0,1.224646799E-16));
#90=ORIENTED_EDGE('',*,*,#91,.T.);
#91=EDGE_CURVE('NONE',#83,#92,#94,.T.);
#92=VERTEX_POINT('NONE',#93);
#93=CARTESIAN_POINT('',(4.9,5.1,0.0));
#94=(BOUNDED_CURVE()B_SPLINE_CURVE(3,(#95,#96,#97,#98),.UNSPECIFIED.,.F.,.U.)B_SPLINE_CURVE_WITH_KNOTS((4,4),(0.0,1.0),.PIECEWISE_BEZIER_KNOTS.)CURVE()GEOMETRIC_REPRESENTATION_ITEM()RATIONAL_B_SPLINE_CURVE((1.0,0.333333333,0.333333333,1.0))REPRESENTATION_ITEM(''));
#95=CARTESIAN_POINT('',(4.9,0.2,3.04937053E-16));
#96=CARTESIAN_POINT('',(4.9,0.2,-4.9));
#97=CARTESIAN_POINT('',(4.9,5.1,-4.9));
#98=CARTESIAN_POINT('',(4.9,5.1,0.0));
#99=ORIENTED_EDGE('',*,*,#100,.T.);
#100=EDGE_CURVE('NONE',#92,#72,#101,.F.);
#101=CIRCLE('',#102,0.2);
#102=AXIS2_PLACEMENT_3D('',#103,#104,#105);
#103=CARTESIAN_POINT('',(5.1,5.1,0.0));
#104=DIRECTION('',(0.0,0.0,1.0));
#105=DIRECTION('',(0.0,1.0,0.0));
#106=(BOUNDED_SURFACE()B_SPLINE_SURFACE(3,3,((#107,#108,#109,#110),(#111,#112,#113,#114),(#115,#116,#117,#118),(#119,#120,#121,#122)),.UNSPECIFIED.,.F.,.F.,.U.)B_SPLINE_SURFACE_WITH_KNOTS((4,4),(4,4),(0.0,1.0),(0.0,1.0),.PIECEWISE_BEZIER_KNOTS.)GEOMETRIC_REPRESENTATION_ITEM()RATIONAL_B_SPLINE_SURFACE(((1.0,0.333333333,0.333333333,1.0),(0.804737854,0.268245951,0.268245951,0.804737854),(0.804737854,0.268245951,0.268245951,0.804737854),(1.0,0.333333333,0.333333333,1.0)))REPRESENTATION_ITEM('')SURFACE());
#107=CARTESIAN_POINT('',(5.1,2.276824562E-15,3.245314018E-16));
#108=CARTESIAN_POINT('',(5.1,1.627761759E-15,-5.3));
#109=CARTESIAN_POINT('',(5.1,5.3,-5.3));
#110=CARTESIAN_POINT('',(5.1,5.3,-6.490628035E-16));
#111=CARTESIAN_POINT('',(4.982842712,2.276824562E-15,3.245314018E-16));
#112=CARTESIAN_POINT('',(4.982842712,1.627761759E-15,-5.3));
#113=CARTESIAN_POINT('',(4.982842712,5.3,-5.3));
#114=CARTESIAN_POINT('',(4.982842712,5.3,-6.490628035E-16));
#115=CARTESIAN_POINT('',(4.9,0.082842712,3.143860955E-16));
#116=CARTESIAN_POINT('',(4.9,0.082842712,-5.134314575));
#117=CARTESIAN_POINT('',(4.9,5.217157288,-5.134314575));
#118=CARTESIAN_POINT('',(4.9,5.217157288,-6.28772191E-16));
#119=CARTESIAN_POINT('',(4.9,0.2,3.000384658E-16));
#120=CARTESIAN_POINT('',(4.9,0.2,-4.9));
#121=CARTESIAN_POINT('',(4.9,5.1,-4.9));
#122=CARTESIAN_POINT('',(4.9,5.1,-6.000769316E-16));
#123=ADVANCED_FACE('NONE',(#124),#152,.T.);
#124=FACE_BOUND('NONE',#125,.T.);
#125=EDGE_LOOP('',(#126,#133,#139,#146));
#126=ORIENTED_EDGE('',*,*,#127,.T.);
#127=EDGE_CURVE('NONE',#72,#74,#128,.T.);
#128=CIRCLE('',#129,2.65);
#129=AXIS2_PLACEMENT_3D('',#130,#131,#132);
#130=CARTESIAN_POINT('',(5.1,2.65,0.0));
#131=DIRECTION('',(1.0,9.244806817E-17,0.0));
#132=DIRECTION('',(-9.244806817E-17,1.0,0.0));
#133=ORIENTED_EDGE('',*,*,#134,.T.);
#134=EDGE_CURVE('NONE',#74,#16,#135,.T.);
#135=LINE('',#136,#137);
#136=CARTESIAN_POINT('',(1.139497987E-15,1.734723476E-15,3.245314018E-16));
#137=VECTOR('',#138,1.0);
#138=DIRECTION('',(1.0,9.244806817E-17,0.0));
#139=ORIENTED_EDGE('',*,*,#140,.T.);
#140=EDGE_CURVE('NONE',#16,#18,#141,.T.);
#141=CIRCLE('',#142,2.65);
#142=AXIS2_PLACEMENT_3D('',#143,#144,#145);
#143=CARTESIAN_POINT('',(9.8,2.65,0.0));
#144=DIRECTION('',(-1.0,-9.244806817E-17,0.0));
#145=DIRECTION('',(-9.244806817E-17,1.0,0.0));
#146=ORIENTED_EDGE('',*,*,#147,.T.);
#147=EDGE_CURVE('NONE',#18,#72,#148,.F.);
#148=LINE('',#149,#150);
#149=CARTESIAN_POINT('',(6.495232259E-16,5.3,0.0));
#150=VECTOR('',#151,1.0);
#151=DIRECTION('',(1.0,9.244806817E-17,0.0));
#152=CYLINDRICAL_SURFACE('',#153,2.65);
#153=AXIS2_PLACEMENT_3D('',#154,#155,#156);
#154=CARTESIAN_POINT('',(8.945106065E-16,2.65,0.0));
#155=DIRECTION('',(1.0,9.244806817E-17,0.0));
#156=DIRECTION('',(-9.244806817E-17,1.0,0.0));
#157=ADVANCED_FACE('NONE',(#158),#164,.T.);
#158=FACE_BOUND('NONE',#159,.T.);
#159=EDGE_LOOP('',(#160,#161,#162,#163));
#160=ORIENTED_EDGE('',*,*,#134,.F.);
#161=ORIENTED_EDGE('',*,*,#71,.F.);
#162=ORIENTED_EDGE('',*,*,#147,.F.);
#163=ORIENTED_EDGE('',*,*,#15,.F.);
#164=CYLINDRICAL_SURFACE('',#165,2.65);
#165=AXIS2_PLACEMENT_3D('',#166,#167,#168);
#166=CARTESIAN_POINT('',(8.945106065E-16,2.65,0.0));
#167=DIRECTION('',(1.0,9.244806817E-17,0.0));
#168=DIRECTION('',(-9.244806817E-17,1.0,0.0));
#169=ADVANCED_FACE('NONE',(#170),#182,.T.);
#170=FACE_BOUND('NONE',#171,.T.);
#171=EDGE_LOOP('',(#172,#173,#174,#175));
#172=ORIENTED_EDGE('',*,*,#26,.F.);
#173=ORIENTED_EDGE('',*,*,#140,.F.);
#174=ORIENTED_EDGE('',*,*,#44,.F.);
#175=ORIENTED_EDGE('',*,*,#176,.T.);
#176=EDGE_CURVE('NONE',#36,#27,#177,.T.);
#177=(BOUNDED_CURVE()B_SPLINE_CURVE(3,(#178,#179,#180,#181),.UNSPECIFIED.,.F.,.U.)B_SPLINE_CURVE_WITH_KNOTS((4,4),(0.0,1.0),.PIECEWISE_BEZIER_KNOTS.)CURVE()GEOMETRIC_REPRESENTATION_ITEM()RATIONAL_B_SPLINE_CURVE((1.0,0.333333333,0.333333333,1.0))REPRESENTATION_ITEM(''));
#178=CARTESIAN_POINT('',(10.0,0.2,0.0));
#179=CARTESIAN_POINT('',(10.0,0.2,4.9));
#180=CARTESIAN_POINT('',(10.0,5.1,4.9));
#181=CARTESIAN_POINT('',(10.0,5.1,3.04937053E-16));
#182=(BOUNDED_SURFACE()B_SPLINE_SURFACE(3,3,((#183,#184,#185,#186),(#187,#188,#189,#190),(#191,#192,#193,#194),(#195,#196,#197,#198)),.UNSPECIFIED.,.F.,.F.,.U.)B_SPLINE_SURFACE_WITH_KNOTS((4,4),(4,4),(0.0,1.0),(0.0,1.0),.PIECEWISE_BEZIER_KNOTS.)GEOMETRIC_REPRESENTATION_ITEM()RATIONAL_B_SPLINE_SURFACE(((1.0,0.333333333,0.333333333,1.0),(0.804737854,0.268245951,0.268245951,0.804737854),(0.804737854,0.268245951,0.268245951,0.804737854),(1.0,0.333333333,0.333333333,1.0)))REPRESENTATION_ITEM('')SURFACE());
#183=CARTESIAN_POINT('',(9.8,2.683400377E-15,0.0));
#184=CARTESIAN_POINT('',(9.8,2.683400377E-15,5.3));
#185=CARTESIAN_POINT('',(9.8,5.3,5.3));
#186=CARTESIAN_POINT('',(9.8,5.3,3.245314018E-16));
#187=CARTESIAN_POINT('',(9.917157288,2.683400377E-15,0.0));
#188=CARTESIAN_POINT('',(9.917157288,2.683400377E-15,5.3));
#189=CARTESIAN_POINT('',(9.917157288,5.3,5.3));
#190=CARTESIAN_POINT('',(9.917157288,5.3,3.245314018E-16));
#191=CARTESIAN_POINT('',(10.0,0.082842712,0.0));
#192=CARTESIAN_POINT('',(10.0,0.082842712,5.134314575));
#193=CARTESIAN_POINT('',(10.0,5.217157288,5.134314575));
#194=CARTESIAN_POINT('',(10.0,5.217157288,3.143860955E-16));
#195=CARTESIAN_POINT('',(10.0,0.2,0.0));
#196=CARTESIAN_POINT('',(10.0,0.2,4.9));
#197=CARTESIAN_POINT('',(10.0,5.1,4.9));
#198=CARTESIAN_POINT('',(10.0,5.1,3.000384658E-16));
#199=ADVANCED_FACE('NONE',(#200),#212,.T.);
#200=FACE_BOUND('NONE',#201,.T.);
#201=EDGE_LOOP('',(#202,#203,#204,#205));
#202=ORIENTED_EDGE('',*,*,#82,.F.);
#203=ORIENTED_EDGE('',*,*,#127,.F.);
#204=ORIENTED_EDGE('',*,*,#100,.F.);
#205=ORIENTED_EDGE('',*,*,#206,.T.);
#206=EDGE_CURVE('NONE',#92,#83,#207,.T.);
#207=(BOUNDED_CURVE()B_SPLINE_CURVE(3,(#208,#209,#210,#211),.UNSPECIFIED.,.F.,.U.)B_SPLINE_CURVE_WITH_KNOTS((4,4),(0.0,1.0),.PIECEWISE_BEZIER_KNOTS.)CURVE()GEOMETRIC_REPRESENTATION_ITEM()RATIONAL_B_SPLINE_CURVE((1.0,0.333333333,0.333333333,1.0))REPRESENTATION_ITEM(''));
#208=CARTESIAN_POINT('',(4.9,5.1,0.0));
#209=CARTESIAN_POINT('',(4.9,5.1,4.9));
#210=CARTESIAN_POINT('',(4.9,0.2,4.9));
#211=CARTESIAN_POINT('',(4.9,0.2,3.04937053E-16));
#212=(BOUNDED_SURFACE()B_SPLINE_SURFACE(3,3,((#213,#214,#215,#216),(#217,#218,#219,#220),(#221,#222,#223,#224),(#225,#226,#227,#228)),.UNSPECIFIED.,.F.,.F.,.U.)B_SPLINE_SURFACE_WITH_KNOTS((4,4),(4,4),(0.0,1.0),(0.0,1.0),.PIECEWISE_BEZIER_KNOTS.)GEOMETRIC_REPRESENTATION_ITEM()RATIONAL_B_SPLINE_SURFACE(((1.0,0.333333333,0.333333333,1.0),(0.804737854,0.268245951,0.268245951,0.804737854),(0.804737854,0.268245951,0.268245951,0.804737854),(1.0,0.333333333,0.333333333,1.0)))REPRESENTATION_ITEM('')SURFACE());
#213=CARTESIAN_POINT('',(5.1,5.3,0.0));
#214=CARTESIAN_POINT('',(5.1,5.3,5.3));
#215=CARTESIAN_POINT('',(5.1,3.251148018E-15,5.3));
#216=CARTESIAN_POINT('',(5.1,2.602085214E-15,3.245314018E-16));
#217=CARTESIAN_POINT('',(4.982842712,5.3,0.0));
#218=CARTESIAN_POINT('',(4.982842712,5.3,5.3));
#219=CARTESIAN_POINT('',(4.982842712,4.118509756E-15,5.3));
#220=CARTESIAN_POINT('',(4.982842712,3.469446952E-15,3.245314018E-16));
#221=CARTESIAN_POINT('',(4.9,5.217157288,0.0));
#222=CARTESIAN_POINT('',(4.9,5.217157288,5.134314575));
#223=CARTESIAN_POINT('',(4.9,0.082842712,5.134314575));
#224=CARTESIAN_POINT('',(4.9,0.082842712,3.143860955E-16));
#225=CARTESIAN_POINT('',(4.9,5.1,0.0));
#226=CARTESIAN_POINT('',(4.9,5.1,4.9));
#227=CARTESIAN_POINT('',(4.9,0.2,4.9));
#228=CARTESIAN_POINT('',(4.9,0.2,3.000384658E-16));
#229=ADVANCED_FACE('NONE',(#230),#234,.F.);
#230=FACE_BOUND('NONE',#231,.T.);
#231=EDGE_LOOP('',(#232,#233));
#232=ORIENTED_EDGE('',*,*,#176,.F.);
#233=ORIENTED_EDGE('',*,*,#35,.F.);
#234=PLANE('',#235);
#235=AXIS2_PLACEMENT_3D('',#236,#237,#238);
#236=CARTESIAN_POINT('',(10.0,4.227852857E-15,0.0));
#237=DIRECTION('',(-1.0,-9.244806817E-17,0.0));
#238=DIRECTION('',(9.244806817E-17,-1.0,0.0));
#239=ADVANCED_FACE('NONE',(#240),#244,.F.);
#240=FACE_BOUND('NONE',#241,.T.);
#241=EDGE_LOOP('',(#242,#243));
#242=ORIENTED_EDGE('',*,*,#206,.F.);
#243=ORIENTED_EDGE('',*,*,#91,.F.);
#244=PLANE('',#245);
#245=AXIS2_PLACEMENT_3D('',#246,#247,#248);
#246=CARTESIAN_POINT('',(4.9,1.200153863E-15,0.0));
#247=DIRECTION('',(1.0,9.244806817E-17,0.0));
#248=DIRECTION('',(-9.244806817E-17,1.0,0.0));
#249=MANIFOLD_SOLID_BREP('Fillet1',#250);
#250=CLOSED_SHELL('NONE',(#251,#307,#363,#397,#409,#439,#469,#479));
#251=ADVANCED_FACE('NONE',(#252),#290,.T.);
#252=FACE_BOUND('NONE',#253,.T.);
#253=EDGE_LOOP('',(#254,#265,#274,#283));
#254=ORIENTED_EDGE('',*,*,#255,.T.);
#255=EDGE_CURVE('NONE',#256,#258,#260,.F.);
#256=VERTEX_POINT('NONE',#257);
#257=CARTESIAN_POINT('',(-5.1,4.33680869E-16,3.245314018E-16));
#258=VERTEX_POINT('NONE',#259);
#259=CARTESIAN_POINT('',(-5.1,5.3,0.0));
#260=CIRCLE('',#261,2.65);
#261=AXIS2_PLACEMENT_3D('',#262,#263,#264);
#262=CARTESIAN_POINT('',(-5.1,2.65,0.0));
#263=DIRECTION('',(-1.0,-9.244806817E-17,0.0));
#264=DIRECTION('',(-9.244806817E-17,1.0,0.0));
#265=ORIENTED_EDGE('',*,*,#266,.T.);
#266=EDGE_CURVE('NONE',#258,#267,#269,.T.);
#267=VERTEX_POINT('NONE',#268);
#268=CARTESIAN_POINT('',(-4.9,5.1,3.04937053E-16));
#269=CIRCLE('',#270,0.2);
#270=AXIS2_PLACEMENT_3D('',#271,#272,#273);
#271=CARTESIAN_POINT('',(-5.1,5.1,3.000384658E-16));
#272=DIRECTION('',(-1.132162308E-32,1.224646799E-16,-1.0));
#273=DIRECTION('',(-3.038581679E-63,1.0,1.224646799E-16));
#274=ORIENTED_EDGE('',*,*,#275,.T.);
#275=EDGE_CURVE('NONE',#267,#276,#278,.T.);
#276=VERTEX_POINT('NONE',#277);
#277=CARTESIAN_POINT('',(-4.9,0.2,0.0));
#278=(BOUNDED_CURVE()B_SPLINE_CURVE(3,(#279,#280,#281,#282),.UNSPECIFIED.,.F.,.U.)B_SPLINE_CURVE_WITH_KNOTS((4,4),(0.0,1.0),.PIECEWISE_BEZIER_KNOTS.)CURVE()GEOMETRIC_REPRESENTATION_ITEM()RATIONAL_B_SPLINE_CURVE((1.0,0.333333333,0.333333333,1.0))REPRESENTATION_ITEM(''));
#279=CARTESIAN_POINT('',(-4.9,5.1,3.04937053E-16));
#280=CARTESIAN_POINT('',(-4.9,5.1,-4.9));
#281=CARTESIAN_POINT('',(-4.9,0.2,-4.9));
#282=CARTESIAN_POINT('',(-4.9,0.2,0.0));
#283=ORIENTED_EDGE('',*,*,#284,.T.);
#284=EDGE_CURVE('NONE',#276,#256,#285,.F.);
#285=CIRCLE('',#286,0.2);
#286=AXIS2_PLACEMENT_3D('',#287,#288,#289);
#287=CARTESIAN_POINT('',(-5.1,0.2,0.0));
#288=DIRECTION('',(0.0,0.0,1.0));
#289=DIRECTION('',(0.0,-1.0,0.0));
#290=(BOUNDED_SURFACE()B_SPLINE_SURFACE(3,3,((#291,#292,#293,#294),(#295,#296,#297,#298),(#299,#300,#301,#302),(#303,#304,#305,#306)),.UNSPECIFIED.,.F.,.F.,.U.)B_SPLINE_SURFACE_WITH_KNOTS((4,4),(4,4),(0.0,1.0),(0.0,1.0),.PIECEWISE_BEZIER_KNOTS.)GEOMETRIC_REPRESENTATION_ITEM()RATIONAL_B_SPLINE_SURFACE(((1.0,0.333333333,0.333333333,1.0),(0.804737854,0.268245951,0.268245951,0.804737854),(0.804737854,0.268245951,0.268245951,0.804737854),(1.0,0.333333333,0.333333333,1.0)))REPRESENTATION_ITEM('')SURFACE());
#291=CARTESIAN_POINT('',(-5.1,5.3,3.245314018E-16));
#292=CARTESIAN_POINT('',(-5.1,5.3,-5.3));
#293=CARTESIAN_POINT('',(-5.1,2.165487345E-15,-5.3));
#294=CARTESIAN_POINT('',(-5.1,8.67361738E-16,-6.490628035E-16));
#295=CARTESIAN_POINT('',(-4.982842712,5.3,3.245314018E-16));
#296=CARTESIAN_POINT('',(-4.982842712,5.3,-5.3));
#297=CARTESIAN_POINT('',(-4.982842712,1.298125607E-15,-5.3));
#298=CARTESIAN_POINT('',(-4.982842712,0.0,-6.490628035E-16));
#299=CARTESIAN_POINT('',(-4.9,5.217157288,3.143860955E-16));
#300=CARTESIAN_POINT('',(-4.9,5.217157288,-5.134314575));
#301=CARTESIAN_POINT('',(-4.9,0.082842712,-5.134314575));
#302=CARTESIAN_POINT('',(-4.9,0.082842712,-6.28772191E-16));
#303=CARTESIAN_POINT('',(-4.9,5.1,3.000384658E-16));
#304=CARTESIAN_POINT('',(-4.9,5.1,-4.9));
#305=CARTESIAN_POINT('',(-4.9,0.2,-4.9));
#306=CARTESIAN_POINT('',(-4.9,0.2,-6.000769316E-16));
#307=ADVANCED_FACE('NONE',(#308),#346,.T.);
#308=FACE_BOUND('NONE',#309,.T.);
#309=EDGE_LOOP('',(#310,#321,#330,#339));
#310=ORIENTED_EDGE('',*,*,#311,.T.);
#311=EDGE_CURVE('NONE',#312,#314,#316,.F.);
#312=VERTEX_POINT('NONE',#313);
#313=CARTESIAN_POINT('',(-9.8,5.3,0.0));
#314=VERTEX_POINT('NONE',#315);
#315=CARTESIAN_POINT('',(-9.8,0.0,3.245314018E-16));
#316=CIRCLE('',#317,2.65);
#317=AXIS2_PLACEMENT_3D('',#318,#319,#320);
#318=CARTESIAN_POINT('',(-9.8,2.65,0.0));
#319=DIRECTION('',(1.0,9.244806817E-17,0.0));
#320=DIRECTION('',(-9.244806817E-17,1.0,0.0));
#321=ORIENTED_EDGE('',*,*,#322,.T.);
#322=EDGE_CURVE('NONE',#314,#323,#325,.T.);
#323=VERTEX_POINT('NONE',#324);
#324=CARTESIAN_POINT('',(-10.0,0.2,3.04937053E-16));
#325=CIRCLE('',#326,0.2);
#326=AXIS2_PLACEMENT_3D('',#327,#328,#329);
#327=CARTESIAN_POINT('',(-9.8,0.2,3.000384658E-16));
#328=DIRECTION('',(1.132162308E-32,-1.224646799E-16,-1.0));
#329=DIRECTION('',(6.077163357E-64,-1.0,1.224646799E-16));
#330=ORIENTED_EDGE('',*,*,#331,.T.);
#331=EDGE_CURVE('NONE',#323,#332,#334,.T.);
#332=VERTEX_POINT('NONE',#333);
#333=CARTESIAN_POINT('',(-10.0,5.1,0.0));
#334=(BOUNDED_CURVE()B_SPLINE_CURVE(3,(#335,#336,#337,#338),.UNSPECIFIED.,.F.,.U.)B_SPLINE_CURVE_WITH_KNOTS((4,4),(0.0,1.0),.PIECEWISE_BEZIER_KNOTS.)CURVE()GEOMETRIC_REPRESENTATION_ITEM()RATIONAL_B_SPLINE_CURVE((1.0,0.333333333,0.333333333,1.0))REPRESENTATION_ITEM(''));
#335=CARTESIAN_POINT('',(-10.0,0.2,3.04937053E-16));
#336=CARTESIAN_POINT('',(-10.0,0.2,-4.9));
#337=CARTESIAN_POINT('',(-10.0,5.1,-4.9));
#338=CARTESIAN_POINT('',(-10.0,5.1,0.0));
#339=ORIENTED_EDGE('',*,*,#340,.T.);
#340=EDGE_CURVE('NONE',#332,#312,#341,.F.);
#341=CIRCLE('',#342,0.2);
#342=AXIS2_PLACEMENT_3D('',#343,#344,#345);
#343=CARTESIAN_POINT('',(-9.8,5.1,0.0));
#344=DIRECTION('',(0.0,0.0,1.0));
#345=DIRECTION('',(0.0,1.0,0.0));
#346=(BOUNDED_SURFACE()B_SPLINE_SURFACE(3,3,((#347,#348,#349,#350),(#351,#352,#353,#354),(#355,#356,#357,#358),(#359,#360,#361,#362)),.UNSPECIFIED.,.F.,.F.,.U.)B_SPLINE_SURFACE_WITH_KNOTS((4,4),(4,4),(0.0,1.0),(0.0,1.0),.PIECEWISE_BEZIER_KNOTS.)GEOMETRIC_REPRESENTATION_ITEM()RATIONAL_B_SPLINE_SURFACE(((1.0,0.333333333,0.333333333,1.0),(0.804737854,0.268245951,0.268245951,0.804737854),(0.804737854,0.268245951,0.268245951,0.804737854),(1.0,0.333333333,0.333333333,1.0)))REPRESENTATION_ITEM('')SURFACE());
#347=CARTESIAN_POINT('',(-9.8,5.421010862E-16,3.245314018E-16));
#348=CARTESIAN_POINT('',(-9.8,-1.069617173E-16,-5.3));
#349=CARTESIAN_POINT('',(-9.8,5.3,-5.3));
#350=CARTESIAN_POINT('',(-9.8,5.3,-6.490628035E-16));
#351=CARTESIAN_POINT('',(-9.917157288,1.558278572E-15,3.245314018E-16));
#352=CARTESIAN_POINT('',(-9.917157288,9.09215768E-16,-5.3));
#353=CARTESIAN_POINT('',(-9.917157288,5.3,-5.3));
#354=CARTESIAN_POINT('',(-9.917157288,5.3,-6.490628035E-16));
#355=CARTESIAN_POINT('',(-10.0,0.082842712,3.143860955E-16));
#356=CARTESIAN_POINT('',(-10.0,0.082842712,-5.134314575));
#357=CARTESIAN_POINT('',(-10.0,5.217157288,-5.134314575));
#358=CARTESIAN_POINT('',(-10.0,5.217157288,-6.28772191E-16));
#359=CARTESIAN_POINT('',(-10.0,0.2,3.000384658E-16));
#360=CARTESIAN_POINT('',(-10.0,0.2,-4.9));
#361=CARTESIAN_POINT('',(-10.0,5.1,-4.9));
#362=CARTESIAN_POINT('',(-10.0,5.1,-6.000769316E-16));
#363=ADVANCED_FACE('NONE',(#364),#392,.T.);
#364=FACE_BOUND('NONE',#365,.T.);
#365=EDGE_LOOP('',(#366,#373,#379,#386));
#366=ORIENTED_EDGE('',*,*,#367,.T.);
#367=EDGE_CURVE('NONE',#312,#314,#368,.T.);
#368=CIRCLE('',#369,2.65);
#369=AXIS2_PLACEMENT_3D('',#370,#371,#372);
#370=CARTESIAN_POINT('',(-9.8,2.65,0.0));
#371=DIRECTION('',(1.0,9.244806817E-17,0.0));
#372=DIRECTION('',(-9.244806817E-17,1.0,0.0));
#373=ORIENTED_EDGE('',*,*,#374,.T.);
#374=EDGE_CURVE('NONE',#314,#256,#375,.T.);
#375=LINE('',#376,#377);
#376=CARTESIAN_POINT('',(1.139497987E-15,8.67361738E-16,3.245314018E-16));
#377=VECTOR('',#378,1.0);
#378=DIRECTION('',(1.0,9.244806817E-17,0.0));
#379=ORIENTED_EDGE('',*,*,#380,.T.);
#380=EDGE_CURVE('NONE',#256,#258,#381,.T.);
#381=CIRCLE('',#382,2.65);
#382=AXIS2_PLACEMENT_3D('',#383,#384,#385);
#383=CARTESIAN_POINT('',(-5.1,2.65,0.0));
#384=DIRECTION('',(-1.0,-9.244806817E-17,0.0));
#385=DIRECTION('',(-9.244806817E-17,1.0,0.0));
#386=ORIENTED_EDGE('',*,*,#387,.T.);
#387=EDGE_CURVE('NONE',#258,#312,#388,.F.);
#388=LINE('',#389,#390);
#389=CARTESIAN_POINT('',(6.495232259E-16,5.3,0.0));
#390=VECTOR('',#391,1.0);
#391=DIRECTION('',(1.0,9.244806817E-17,0.0));
#392=CYLINDRICAL_SURFACE('',#393,2.65);
#393=AXIS2_PLACEMENT_3D('',#394,#395,#396);
#394=CARTESIAN_POINT('',(8.945106065E-16,2.65,0.0));
#395=DIRECTION('',(1.0,9.244806817E-17,0.0));
#396=DIRECTION('',(-9.244806817E-17,1.0,0.0));
#397=ADVANCED_FACE('NONE',(#398),#404,.T.);
#398=FACE_BOUND('NONE',#399,.T.);
#399=EDGE_LOOP('',(#400,#401,#402,#403));
#400=ORIENTED_EDGE('',*,*,#374,.F.);
#401=ORIENTED_EDGE('',*,*,#311,.F.);
#402=ORIENTED_EDGE('',*,*,#387,.F.);
#403=ORIENTED_EDGE('',*,*,#255,.F.);
#404=CYLINDRICAL_SURFACE('',#405,2.65);
#405=AXIS2_PLACEMENT_3D('',#406,#407,#408);
#406=CARTESIAN_POINT('',(8.945106065E-16,2.65,0.0));
#407=DIRECTION('',(1.0,9.244806817E-17,0.0));
#408=DIRECTION('',(-9.244806817E-17,1.0,0.0));
#409=ADVANCED_FACE('NONE',(#410),#422,.T.);
#410=FACE_BOUND('NONE',#411,.T.);
#411=EDGE_LOOP('',(#412,#413,#414,#415));
#412=ORIENTED_EDGE('',*,*,#266,.F.);
#413=ORIENTED_EDGE('',*,*,#380,.F.);
#414=ORIENTED_EDGE('',*,*,#284,.F.);
#415=ORIENTED_EDGE('',*,*,#416,.T.);
#416=EDGE_CURVE('NONE',#276,#267,#417,.T.);
#417=(BOUNDED_CURVE()B_SPLINE_CURVE(3,(#418,#419,#420,#421),.UNSPECIFIED.,.F.,.U.)B_SPLINE_CURVE_WITH_KNOTS((4,4),(0.0,1.0),.PIECEWISE_BEZIER_KNOTS.)CURVE()GEOMETRIC_REPRESENTATION_ITEM()RATIONAL_B_SPLINE_CURVE((1.0,0.333333333,0.333333333,1.0))REPRESENTATION_ITEM(''));
#418=CARTESIAN_POINT('',(-4.9,0.2,0.0));
#419=CARTESIAN_POINT('',(-4.9,0.2,4.9));
#420=CARTESIAN_POINT('',(-4.9,5.1,4.9));
#421=CARTESIAN_POINT('',(-4.9,5.1,3.04937053E-16));
#422=(BOUNDED_SURFACE()B_SPLINE_SURFACE(3,3,((#423,#424,#425,#426),(#427,#428,#429,#430),(#431,#432,#433,#434),(#435,#436,#437,#438)),.UNSPECIFIED.,.F.,.F.,.U.)B_SPLINE_SURFACE_WITH_KNOTS((4,4),(4,4),(0.0,1.0),(0.0,1.0),.PIECEWISE_BEZIER_KNOTS.)GEOMETRIC_REPRESENTATION_ITEM()RATIONAL_B_SPLINE_SURFACE(((1.0,0.333333333,0.333333333,1.0),(0.804737854,0.268245951,0.268245951,0.804737854),(0.804737854,0.268245951,0.268245951,0.804737854),(1.0,0.333333333,0.333333333,1.0)))REPRESENTATION_ITEM('')SURFACE());
#423=CARTESIAN_POINT('',(-5.1,5.149960319E-16,0.0));
#424=CARTESIAN_POINT('',(-5.1,5.149960319E-16,5.3));
#425=CARTESIAN_POINT('',(-5.1,5.3,5.3));
#426=CARTESIAN_POINT('',(-5.1,5.3,3.245314018E-16));
#427=CARTESIAN_POINT('',(-4.982842712,-5.286840523E-18,0.0));
#428=CARTESIAN_POINT('',(-4.982842712,-5.286840523E-18,5.3));
#429=CARTESIAN_POINT('',(-4.982842712,5.3,5.3));
#430=CARTESIAN_POINT('',(-4.982842712,5.3,3.245314018E-16));
#431=CARTESIAN_POINT('',(-4.9,0.082842712,0.0));
#432=CARTESIAN_POINT('',(-4.9,0.082842712,5.134314575));
#433=CARTESIAN_POINT('',(-4.9,5.217157288,5.134314575));
#434=CARTESIAN_POINT('',(-4.9,5.217157288,3.143860955E-16));
#435=CARTESIAN_POINT('',(-4.9,0.2,0.0));
#436=CARTESIAN_POINT('',(-4.9,0.2,4.9));
#437=CARTESIAN_POINT('',(-4.9,5.1,4.9));
#438=CARTESIAN_POINT('',(-4.9,5.1,3.000384658E-16));
#439=ADVANCED_FACE('NONE',(#440),#452,.T.);
#440=FACE_BOUND('NONE',#441,.T.);
#441=EDGE_LOOP('',(#442,#443,#444,#445));
#442=ORIENTED_EDGE('',*,*,#322,.F.);
#443=ORIENTED_EDGE('',*,*,#367,.F.);
#444=ORIENTED_EDGE('',*,*,#340,.F.);
#445=ORIENTED_EDGE('',*,*,#446,.T.);
#446=EDGE_CURVE('NONE',#332,#323,#447,.T.);
#447=(BOUNDED_CURVE()B_SPLINE_CURVE(3,(#448,#449,#450,#451),.UNSPECIFIED.,.F.,.U.)B_SPLINE_CURVE_WITH_KNOTS((4,4),(0.0,1.0),.PIECEWISE_BEZIER_KNOTS.)CURVE()GEOMETRIC_REPRESENTATION_ITEM()RATIONAL_B_SPLINE_CURVE((1.0,0.333333333,0.333333333,1.0))REPRESENTATION_ITEM(''));
#448=CARTESIAN_POINT('',(-10.0,5.1,0.0));
#449=CARTESIAN_POINT('',(-10.0,5.1,4.9));
#450=CARTESIAN_POINT('',(-10.0,0.2,4.9));
#451=CARTESIAN_POINT('',(-10.0,0.2,3.04937053E-16));
#452=(BOUNDED_SURFACE()B_SPLINE_SURFACE(3,3,((#453,#454,#455,#456),(#457,#458,#459,#460),(#461,#462,#463,#464),(#465,#466,#467,#468)),.UNSPECIFIED.,.F.,.F.,.U.)B_SPLINE_SURFACE_WITH_KNOTS((4,4),(4,4),(0.0,1.0),(0.0,1.0),.PIECEWISE_BEZIER_KNOTS.)GEOMETRIC_REPRESENTATION_ITEM()RATIONAL_B_SPLINE_SURFACE(((1.0,0.333333333,0.333333333,1.0),(0.804737854,0.268245951,0.268245951,0.804737854),(0.804737854,0.268245951,0.268245951,0.804737854),(1.0,0.333333333,0.333333333,1.0)))REPRESENTATION_ITEM('')SURFACE());
#453=CARTESIAN_POINT('',(-9.8,5.3,0.0));
#454=CARTESIAN_POINT('',(-9.8,5.3,5.3));
#455=CARTESIAN_POINT('',(-9.8,1.516424542E-15,5.3));
#456=CARTESIAN_POINT('',(-9.8,8.67361738E-16,3.245314018E-16));
#457=CARTESIAN_POINT('',(-9.917157288,5.3,0.0));
#458=CARTESIAN_POINT('',(-9.917157288,5.3,5.3));
#459=CARTESIAN_POINT('',(-9.917157288,1.516424542E-15,5.3));
#460=CARTESIAN_POINT('',(-9.917157288,8.67361738E-16,3.245314018E-16));
#461=CARTESIAN_POINT('',(-10.0,5.217157288,0.0));
#462=CARTESIAN_POINT('',(-10.0,5.217157288,5.134314575));
#463=CARTESIAN_POINT('',(-10.0,0.082842712,5.134314575));
#464=CARTESIAN_POINT('',(-10.0,0.082842712,3.143860955E-16));
#465=CARTESIAN_POINT('',(-10.0,5.1,0.0));
#466=CARTESIAN_POINT('',(-10.0,5.1,4.9));
#467=CARTESIAN_POINT('',(-10.0,0.2,4.9));
#468=CARTESIAN_POINT('',(-10.0,0.2,3.000384658E-16));
#469=ADVANCED_FACE('NONE',(#470),#474,.F.);
#470=FACE_BOUND('NONE',#471,.T.);
#471=EDGE_LOOP('',(#472,#473));
#472=ORIENTED_EDGE('',*,*,#416,.F.);
#473=ORIENTED_EDGE('',*,*,#275,.F.);
#474=PLANE('',#475);
#475=AXIS2_PLACEMENT_3D('',#476,#477,#478);
#476=CARTESIAN_POINT('',(-4.9,1.132430503E-32,0.0));
#477=DIRECTION('',(-1.0,-9.244806817E-17,0.0));
#478=DIRECTION('',(9.244806817E-17,-1.0,0.0));
#479=ADVANCED_FACE('NONE',(#480),#484,.F.);
#480=FACE_BOUND('NONE',#481,.T.);
#481=EDGE_LOOP('',(#482,#483));
#482=ORIENTED_EDGE('',*,*,#446,.F.);
#483=ORIENTED_EDGE('',*,*,#331,.F.);
#484=PLANE('',#485);
#485=AXIS2_PLACEMENT_3D('',#486,#487,#488);
#486=CARTESIAN_POINT('',(-10.0,1.716961392E-31,0.0));
#487=DIRECTION('',(1.0,9.244806817E-17,0.0));
#488=DIRECTION('',(-9.244806817E-17,1.0,0.0));
#489=MANIFOLD_SOLID_BREP('Boss-Extrude1',#490);
#490=CLOSED_SHELL('NONE',(#491,#533,#557,#567));
#491=ADVANCED_FACE('NONE',(#492),#528,.T.);
#492=FACE_BOUND('NONE',#493,.T.);
#493=EDGE_LOOP('',(#494,#505,#513,#522));
#494=ORIENTED_EDGE('',*,*,#495,.T.);
#495=EDGE_CURVE('NONE',#496,#498,#500,.T.);
#496=VERTEX_POINT('NONE',#497);
#497=CARTESIAN_POINT('',(4.9,0.2,0.0));
#498=VERTEX_POINT('NONE',#499);
#499=CARTESIAN_POINT('',(4.9,5.1,3.000384658E-16));
#500=CIRCLE('',#501,2.45);
#501=AXIS2_PLACEMENT_3D('',#502,#503,#504);
#502=CARTESIAN_POINT('',(4.9,2.65,0.0));
#503=DIRECTION('',(-1.0,-1.232640909E-16,0.0));
#504=DIRECTION('',(1.232640909E-16,-1.0,0.0));
#505=ORIENTED_EDGE('',*,*,#506,.T.);
#506=EDGE_CURVE('NONE',#498,#507,#509,.T.);
#507=VERTEX_POINT('NONE',#508);
#508=CARTESIAN_POINT('',(-4.9,5.1,3.000384658E-16));
#509=LINE('',#510,#511);
#510=CARTESIAN_POINT('',(10.002,5.1,3.000384658E-16));
#511=VECTOR('',#512,1.0);
#512=DIRECTION('',(-1.0,-1.232640909E-16,0.0));
#513=ORIENTED_EDGE('',*,*,#514,.T.);
#514=EDGE_CURVE('NONE',#507,#515,#517,.T.);
#515=VERTEX_POINT('NONE',#516);
#516=CARTESIAN_POINT('',(-4.9,0.2,0.0));
#517=CIRCLE('',#518,2.45);
#518=AXIS2_PLACEMENT_3D('',#519,#520,#521);
#519=CARTESIAN_POINT('',(-4.9,2.65,0.0));
#520=DIRECTION('',(1.0,1.232640909E-16,0.0));
#521=DIRECTION('',(1.232640909E-16,-1.0,0.0));
#522=ORIENTED_EDGE('',*,*,#523,.T.);
#523=EDGE_CURVE('NONE',#515,#496,#524,.F.);
#524=LINE('',#525,#526);
#525=CARTESIAN_POINT('',(10.002,0.2,0.0));
#526=VECTOR('',#527,1.0);
#527=DIRECTION('',(-1.0,-1.232640909E-16,0.0));
#528=CYLINDRICAL_SURFACE('',#529,2.45);
#529=AXIS2_PLACEMENT_3D('',#530,#531,#532);
#530=CARTESIAN_POINT('',(10.002,2.65,0.0));
#531=DIRECTION('',(-1.0,-1.232640909E-16,0.0));
#532=DIRECTION('',(1.232640909E-16,-1.0,0.0));
#533=ADVANCED_FACE('NONE',(#534),#552,.T.);
#534=FACE_BOUND('NONE',#535,.T.);
#535=EDGE_LOOP('',(#536,#537,#544,#545));
#536=ORIENTED_EDGE('',*,*,#506,.F.);
#537=ORIENTED_EDGE('',*,*,#538,.T.);
#538=EDGE_CURVE('NONE',#498,#496,#539,.T.);
#539=CIRCLE('',#540,2.45);
#540=AXIS2_PLACEMENT_3D('',#541,#542,#543);
#541=CARTESIAN_POINT('',(4.9,2.65,0.0));
#542=DIRECTION('',(-1.0,-1.232640909E-16,0.0));
#543=DIRECTION('',(1.232640909E-16,-1.0,0.0));
#544=ORIENTED_EDGE('',*,*,#523,.F.);
#545=ORIENTED_EDGE('',*,*,#546,.T.);
#546=EDGE_CURVE('NONE',#515,#507,#547,.T.);
#547=CIRCLE('',#548,2.45);
#548=AXIS2_PLACEMENT_3D('',#549,#550,#551);
#549=CARTESIAN_POINT('',(-4.9,2.65,0.0));
#550=DIRECTION('',(1.0,1.232640909E-16,0.0));
#551=DIRECTION('',(1.232640909E-16,-1.0,0.0));
#552=CYLINDRICAL_SURFACE('',#553,2.45);
#553=AXIS2_PLACEMENT_3D('',#554,#555,#556);
#554=CARTESIAN_POINT('',(10.002,2.65,0.0));
#555=DIRECTION('',(-1.0,-1.232640909E-16,0.0));
#556=DIRECTION('',(1.232640909E-16,-1.0,0.0));
#557=ADVANCED_FACE('NONE',(#558),#562,.F.);
#558=FACE_BOUND('NONE',#559,.T.);
#559=EDGE_LOOP('',(#560,#561));
#560=ORIENTED_EDGE('',*,*,#546,.F.);
#561=ORIENTED_EDGE('',*,*,#514,.F.);
#562=PLANE('',#563);
#563=AXIS2_PLACEMENT_3D('',#564,#565,#566);
#564=CARTESIAN_POINT('',(-4.9,2.65,0.0));
#565=DIRECTION('',(1.0,1.232640909E-16,0.0));
#566=DIRECTION('',(-1.232640909E-16,1.0,0.0));
#567=ADVANCED_FACE('NONE',(#568),#572,.T.);
#568=FACE_BOUND('NONE',#569,.T.);
#569=EDGE_LOOP('',(#570,#571));
#570=ORIENTED_EDGE('',*,*,#495,.F.);
#571=ORIENTED_EDGE('',*,*,#538,.F.);
#572=PLANE('',#573);
#573=AXIS2_PLACEMENT_3D('',#574,#575,#576);
#574=CARTESIAN_POINT('',(4.9,1.200153863E-15,0.0));
#575=DIRECTION('',(1.0,9.244806817E-17,0.0));
#576=DIRECTION('',(-9.244806817E-17,1.0,0.0));
#577=AXIS2_PLACEMENT_3D('',#578,#579,#580);
#578=CARTESIAN_POINT('',(0.0,0.0,0.0));
#579=DIRECTION('',(0.0,0.0,1.0));
#580=DIRECTION('',(1.0,0.0,0.0));
#581=(GEOMETRIC_REPRESENTATION_CONTEXT(3)GLOBAL_UNCERTAINTY_ASSIGNED_CONTEXT((#585))GLOBAL_UNIT_ASSIGNED_CONTEXT((#582,#583,#584))REPRESENTATION_CONTEXT('',''));
#582=(LENGTH_UNIT()NAMED_UNIT(*)SI_UNIT(.MILLI.,.METRE.));
#583=(NAMED_UNIT(*)PLANE_ANGLE_UNIT()SI_UNIT($,.RADIAN.));
#584=(NAMED_UNIT(*)SI_UNIT($,.STERADIAN.)SOLID_ANGLE_UNIT());
#585=UNCERTAINTY_MEASURE_WITH_UNIT(LENGTH_MEASURE(1.0E-07),#582,'','maximum tolerance');
#586=ADVANCED_BREP_SHAPE_REPRESENTATION('',(#9,#249,#489,#577),#581);
#587=SHAPE_DEFINITION_REPRESENTATION(#8,#586);
#588=PRODUCT_RELATED_PRODUCT_CATEGORY('part',$,(#4));
#589=STYLED_ITEM('',(#590),#9);
#590=PRESENTATION_STYLE_ASSIGNMENT((#591));
#591=SURFACE_STYLE_USAGE(.BOTH.,#592);
#592=SURFACE_SIDE_STYLE('',(#593));
#593=SURFACE_STYLE_FILL_AREA(#594);
#594=FILL_AREA_STYLE('',(#596));
#595=COLOUR_RGB('',0.792156875,0.819607854,0.933333337);
#596=FILL_AREA_STYLE_COLOUR('',#595);
#597=STYLED_ITEM('',(#598),#249);
#598=PRESENTATION_STYLE_ASSIGNMENT((#599));
#599=SURFACE_STYLE_USAGE(.BOTH.,#600);
#600=SURFACE_SIDE_STYLE('',(#601));
#601=SURFACE_STYLE_FILL_AREA(#602);
#602=FILL_AREA_STYLE('',(#604));
#603=COLOUR_RGB('',0.792156875,0.819607854,0.933333337);
#604=FILL_AREA_STYLE_COLOUR('',#603);
#605=STYLED_ITEM('',(#606),#489);
#606=PRESENTATION_STYLE_ASSIGNMENT((#607));
#607=SURFACE_STYLE_USAGE(.BOTH.,#608);
#608=SURFACE_SIDE_STYLE('',(#609));
#609=SURFACE_STYLE_FILL_AREA(#610);
#610=FILL_AREA_STYLE('',(#612));
#611=DRAUGHTING_PRE_DEFINED_COLOUR('white');
#612=FILL_AREA_STYLE_COLOUR('',#611);
#613=MECHANICAL_DESIGN_GEOMETRIC_PRESENTATION_REPRESENTATION('',(#589,#597,#605),#581);
ENDSEC;
END-ISO-10303-21;
