ISO-10303-21;
HEADER;
FILE_DESCRIPTION(('CAx-IF Rec.Pracs.---Model Styling and Organization---1.5---2016-08-15','CAx-IF Rec.Pracs.---Geometric and Assembly Validation Properties---4.4---2016-08-17','CAx-IF Rec.Pracs.---User Defined Attributes---1.5---2016-08-15','CAx-IF Rec.Pracs.---External References---2.1---2005-01-19'),'2;1');
FILE_NAME('870345.step','2026-08-20T02:41:52',('Unspecified'),('Unspecified'),'CAD Exchanger 3.10.2 (cadexchanger.com)','Unspecified','');
FILE_SCHEMA(('AUTOMOTIVE_DESIGN { 1 0 10303 214 1 1 1 1 }'));
ENDSEC;
DATA;
#1=APPLICATION_CONTEXT('core data for automotive mechanical design processes');
#2=APPLICATION_PROTOCOL_DEFINITION('international standard','automotive_design',2000,#1);
#3=PRODUCT_CONTEXT('',#1,'mechanical');
#4=PRODUCT('MUA08A_ASM','MUA08A_ASM',$,(#3));
#5=PRODUCT_DEFINITION_FORMATION('',$,#4);
#6=PRODUCT_DEFINITION_CONTEXT('part definition',#1,'design');
#7=PRODUCT_DEFINITION('design',$,#5,#6);
#8=PRODUCT_DEFINITION_SHAPE('',$,#7);
#9=AXIS2_PLACEMENT_3D('',#10,#11,#12);
#10=CARTESIAN_POINT('',(0.0,0.0,0.0));
#11=DIRECTION('',(0.0,0.0,1.0));
#12=DIRECTION('',(1.0,0.0,0.0));
#13=AXIS2_PLACEMENT_3D('',#14,#15,#16);
#14=CARTESIAN_POINT('',(0.0,0.0,0.6897));
#15=DIRECTION('',(-1.0,0.0,0.0));
#16=DIRECTION('',(0.0,-1.0,0.0));
#17=AXIS2_PLACEMENT_3D('',#18,#19,#20);
#18=CARTESIAN_POINT('',(-1.9177,-0.97536,0.254));
#19=DIRECTION('',(-1.0,0.0,0.0));
#20=DIRECTION('',(0.0,-1.0,0.0));
#21=AXIS2_PLACEMENT_3D('',#22,#23,#24);
#22=CARTESIAN_POINT('',(-1.9177,-0.32512,0.254));
#23=DIRECTION('',(-1.0,0.0,0.0));
#24=DIRECTION('',(0.0,-1.0,0.0));
#25=AXIS2_PLACEMENT_3D('',#26,#27,#28);
#26=CARTESIAN_POINT('',(-1.9177,0.32512,0.254));
#27=DIRECTION('',(-1.0,0.0,0.0));
#28=DIRECTION('',(0.0,-1.0,0.0));
#29=AXIS2_PLACEMENT_3D('',#30,#31,#32);
#30=CARTESIAN_POINT('',(-1.9177,0.97536,0.254));
#31=DIRECTION('',(-1.0,0.0,0.0));
#32=DIRECTION('',(0.0,-1.0,0.0));
#33=AXIS2_PLACEMENT_3D('',#34,#35,#36);
#34=CARTESIAN_POINT('',(1.9177,-0.97536,0.254));
#35=DIRECTION('',(1.0,0.0,0.0));
#36=DIRECTION('',(0.0,1.0,0.0));
#37=AXIS2_PLACEMENT_3D('',#38,#39,#40);
#38=CARTESIAN_POINT('',(1.9177,-0.32512,0.254));
#39=DIRECTION('',(1.0,0.0,0.0));
#40=DIRECTION('',(0.0,1.0,0.0));
#41=AXIS2_PLACEMENT_3D('',#42,#43,#44);
#42=CARTESIAN_POINT('',(1.9177,0.32512,0.254));
#43=DIRECTION('',(1.0,0.0,0.0));
#44=DIRECTION('',(0.0,1.0,0.0));
#45=AXIS2_PLACEMENT_3D('',#46,#47,#48);
#46=CARTESIAN_POINT('',(1.9177,0.97536,0.254));
#47=DIRECTION('',(1.0,0.0,0.0));
#48=DIRECTION('',(0.0,1.0,0.0));
#49=(GEOMETRIC_REPRESENTATION_CONTEXT(3)GLOBAL_UNIT_ASSIGNED_CONTEXT((#50,#51,#52))REPRESENTATION_CONTEXT('',''));
#50=(LENGTH_UNIT()NAMED_UNIT(*)SI_UNIT(.MILLI.,.METRE.));
#51=(NAMED_UNIT(*)PLANE_ANGLE_UNIT()SI_UNIT($,.RADIAN.));
#52=(NAMED_UNIT(*)SI_UNIT($,.STERADIAN.)SOLID_ANGLE_UNIT());
#53=SHAPE_REPRESENTATION('',(#9,#13,#17,#21,#25,#29,#33,#37,#41,#45),#49);
#54=SHAPE_DEFINITION_REPRESENTATION(#8,#53);
#55=PRODUCT_RELATED_PRODUCT_CATEGORY('assembly',$,(#4));
#56=PROPERTY_DEFINITION('geometric validation property',$,#8);
#57=MEASURE_REPRESENTATION_ITEM('surface area measure',AREA_MEASURE(37.555796546),#59);
#58=DERIVED_UNIT_ELEMENT(#51,2.0);
#59=DERIVED_UNIT((#58));
#60=REPRESENTATION('surface area',(#57),#49);
#61=PROPERTY_DEFINITION_REPRESENTATION(#56,#60);
#62=PROPERTY_DEFINITION('geometric validation property',$,#8);
#63=MEASURE_REPRESENTATION_ITEM('volume measure',VOLUME_MEASURE(9.024026895),#65);
#64=DERIVED_UNIT_ELEMENT(#51,3.0);
#65=DERIVED_UNIT((#64));
#66=REPRESENTATION('volume',(#63),#49);
#67=PROPERTY_DEFINITION_REPRESENTATION(#62,#66);
#68=PROPERTY_DEFINITION('geometric validation property',$,#8);
#69=CARTESIAN_POINT('centre point',(0.001242259,-0.001424684,0.585579759));
#70=REPRESENTATION('centroid',(#69),#49);
#71=PROPERTY_DEFINITION_REPRESENTATION(#68,#70);
#72=MANIFOLD_SOLID_BREP('',#73);
#73=CLOSED_SHELL('',(#74,#107,#164,#216,#260,#288,#299,#334,#351,#388,#430,#461,#532,#563,#604,#622,#639,#657,#682,#712,#761,#792,#863,#894,#919,#937,#954,#966,#1009,#1042,#1067,#1101,#1136,#1169,#1194,#1220,#1238,#1263,#1288,#1319,#1343,#1360,#1372,#1395,#1407,#1425));
#74=ADVANCED_FACE('',(#75),#102,.T.);
#75=FACE_BOUND('',#76,.T.);
#76=EDGE_LOOP('',(#77,#88,#96));
#77=ORIENTED_EDGE('',*,*,#78,.T.);
#78=EDGE_CURVE('',#79,#81,#83,.T.);
#79=VERTEX_POINT('',#80);
#80=CARTESIAN_POINT('',(-1.057748624,0.4103,1.308545471));
#81=VERTEX_POINT('',#82);
#82=CARTESIAN_POINT('',(-1.308545471,0.4103,1.057748624));
#83=CIRCLE('',#84,0.3556);
#84=AXIS2_PLACEMENT_3D('',#85,#86,#87);
#85=CARTESIAN_POINT('',(-0.9652,0.4103,0.9652));
#86=DIRECTION('',(0.0,-1.0,0.0));
#87=DIRECTION('',(-0.260260473,0.0,0.965538444));
#88=ORIENTED_EDGE('',*,*,#89,.T.);
#89=EDGE_CURVE('',#81,#90,#92,.T.);
#90=VERTEX_POINT('',#91);
#91=CARTESIAN_POINT('',(-1.308545471,0.4103,1.308545471));
#92=LINE('',#93,#94);
#93=CARTESIAN_POINT('',(-1.308545471,0.4103,1.057748624));
#94=VECTOR('',#95,1.0);
#95=DIRECTION('',(0.0,0.0,1.0));
#96=ORIENTED_EDGE('',*,*,#97,.T.);
#97=EDGE_CURVE('',#90,#79,#98,.T.);
#98=LINE('',#99,#100);
#99=CARTESIAN_POINT('',(-1.308545471,0.4103,1.308545471));
#100=VECTOR('',#101,1.0);
#101=DIRECTION('',(1.0,0.0,0.0));
#102=PLANE('',#103);
#103=AXIS2_PLACEMENT_3D('',#104,#105,#106);
#104=CARTESIAN_POINT('',(0.0,0.4103,0.0));
#105=DIRECTION('',(0.0,1.0,0.0));
#106=DIRECTION('',(1.0,0.0,0.0));
#107=ADVANCED_FACE('',(#108),#159,.T.);
#108=FACE_BOUND('',#109,.T.);
#109=EDGE_LOOP('',(#110,#120,#128,#136,#145,#153));
#110=ORIENTED_EDGE('',*,*,#111,.T.);
#111=EDGE_CURVE('',#112,#114,#116,.T.);
#112=VERTEX_POINT('',#113);
#113=CARTESIAN_POINT('',(1.308545471,0.4103,1.308545471));
#114=VERTEX_POINT('',#115);
#115=CARTESIAN_POINT('',(1.308545471,0.4103,-1.308545471));
#116=LINE('',#117,#118);
#117=CARTESIAN_POINT('',(1.308545471,0.4103,1.308545471));
#118=VECTOR('',#119,1.0);
#119=DIRECTION('',(0.0,0.0,-1.0));
#120=ORIENTED_EDGE('',*,*,#121,.T.);
#121=EDGE_CURVE('',#114,#122,#124,.T.);
#122=VERTEX_POINT('',#123);
#123=CARTESIAN_POINT('',(-1.308545471,0.4103,-1.308545471));
#124=LINE('',#125,#126);
#125=CARTESIAN_POINT('',(1.308545471,0.4103,-1.308545471));
#126=VECTOR('',#127,1.0);
#127=DIRECTION('',(-1.0,0.0,0.0));
#128=ORIENTED_EDGE('',*,*,#129,.T.);
#129=EDGE_CURVE('',#122,#130,#132,.T.);
#130=VERTEX_POINT('',#131);
#131=CARTESIAN_POINT('',(-1.308545471,0.4103,0.872651376));
#132=LINE('',#133,#134);
#133=CARTESIAN_POINT('',(-1.308545471,0.4103,-1.308545471));
#134=VECTOR('',#135,1.0);
#135=DIRECTION('',(0.0,0.0,1.0));
#136=ORIENTED_EDGE('',*,*,#137,.T.);
#137=EDGE_CURVE('',#130,#138,#140,.T.);
#138=VERTEX_POINT('',#139);
#139=CARTESIAN_POINT('',(-0.9652,0.4103,0.6096));
#140=CIRCLE('',#141,0.3556);
#141=AXIS2_PLACEMENT_3D('',#142,#143,#144);
#142=CARTESIAN_POINT('',(-0.9652,0.4103,0.9652));
#143=DIRECTION('',(0.0,-1.0,0.0));
#144=DIRECTION('',(-0.965538444,0.0,-0.260260473));
#145=ORIENTED_EDGE('',*,*,#146,.T.);
#146=EDGE_CURVE('',#138,#147,#149,.F.);
#147=VERTEX_POINT('',#148);
#148=CARTESIAN_POINT('',(-0.9652,0.4103,1.308545471));
#149=LINE('',#150,#151);
#150=CARTESIAN_POINT('',(-0.9652,0.4103,1.308545471));
#151=VECTOR('',#152,1.0);
#152=DIRECTION('',(0.0,0.0,-1.0));
#153=ORIENTED_EDGE('',*,*,#154,.T.);
#154=EDGE_CURVE('',#147,#112,#155,.T.);
#155=LINE('',#156,#157);
#156=CARTESIAN_POINT('',(-0.9652,0.4103,1.308545471));
#157=VECTOR('',#158,1.0);
#158=DIRECTION('',(1.0,0.0,0.0));
#159=PLANE('',#160);
#160=AXIS2_PLACEMENT_3D('',#161,#162,#163);
#161=CARTESIAN_POINT('',(0.0,0.4103,0.0));
#162=DIRECTION('',(0.0,1.0,0.0));
#163=DIRECTION('',(1.0,0.0,0.0));
#164=ADVANCED_FACE('',(#165),#211,.T.);
#165=FACE_BOUND('',#166,.T.);
#166=EDGE_LOOP('',(#167,#176,#184,#191,#192,#201,#210));
#167=ORIENTED_EDGE('',*,*,#168,.T.);
#168=EDGE_CURVE('',#90,#169,#171,.T.);
#169=VERTEX_POINT('',#170);
#170=CARTESIAN_POINT('',(-1.308545471,0.309704785,1.432770216));
#171=CIRCLE('',#172,0.127);
#172=AXIS2_PLACEMENT_3D('',#173,#174,#175);
#173=CARTESIAN_POINT('',(-1.308545471,0.2833,1.308545471));
#174=DIRECTION('',(1.0,0.0,0.0));
#175=DIRECTION('',(0.0,1.0,0.0));
#176=ORIENTED_EDGE('',*,*,#177,.T.);
#177=EDGE_CURVE('',#169,#178,#180,.T.);
#178=VERTEX_POINT('',#179);
#179=CARTESIAN_POINT('',(1.308545471,0.309704785,1.432770216));
#180=LINE('',#181,#182);
#181=CARTESIAN_POINT('',(-1.308545471,0.309704785,1.432770216));
#182=VECTOR('',#183,1.0);
#183=DIRECTION('',(1.0,0.0,0.0));
#184=ORIENTED_EDGE('',*,*,#185,.T.);
#185=EDGE_CURVE('',#178,#112,#186,.T.);
#186=CIRCLE('',#187,0.127);
#187=AXIS2_PLACEMENT_3D('',#188,#189,#190);
#188=CARTESIAN_POINT('',(1.308545471,0.2833,1.308545471));
#189=DIRECTION('',(-1.0,0.0,0.0));
#190=DIRECTION('',(0.0,0.207911691,0.978147601));
#191=ORIENTED_EDGE('',*,*,#154,.F.);
#192=ORIENTED_EDGE('',*,*,#193,.T.);
#193=EDGE_CURVE('',#147,#194,#196,.T.);
#194=VERTEX_POINT('',#195);
#195=CARTESIAN_POINT('',(-0.9652,0.409707383,1.3208));
#196=CIRCLE('',#197,0.127);
#197=AXIS2_PLACEMENT_3D('',#198,#199,#200);
#198=CARTESIAN_POINT('',(-0.9652,0.2833,1.308545471));
#199=DIRECTION('',(1.0,0.0,0.0));
#200=DIRECTION('',(0.0,1.0,0.0));
#201=ORIENTED_EDGE('',*,*,#202,.T.);
#202=EDGE_CURVE('',#194,#79,#203,.T.);
#203=B_SPLINE_CURVE_WITH_KNOTS('',3,(#204,#205,#206,#207,#208,#209),.UNSPECIFIED.,.F.,.U.,(4,1,1,4),(0.0,0.333333333,0.666666667,1.0),.UNSPECIFIED.);
#204=CARTESIAN_POINT('',(-0.9652,0.409707383,1.3208));
#205=CARTESIAN_POINT('',(-0.97579748,0.409707383,1.3208));
#206=CARTESIAN_POINT('',(-0.996784439,0.409804012,1.319857952));
#207=CARTESIAN_POINT('',(-1.027793207,0.410135812,1.31570651));
#208=CARTESIAN_POINT('',(-1.047846793,0.4103,1.311214505));
#209=CARTESIAN_POINT('',(-1.057748624,0.4103,1.308545471));
#210=ORIENTED_EDGE('',*,*,#97,.F.);
#211=CYLINDRICAL_SURFACE('',#212,0.127);
#212=AXIS2_PLACEMENT_3D('',#213,#214,#215);
#213=CARTESIAN_POINT('',(-1.308545471,0.2833,1.308545471));
#214=DIRECTION('',(1.0,0.0,0.0));
#215=DIRECTION('',(0.0,1.0,0.0));
#216=ADVANCED_FACE('',(#217),#255,.F.);
#217=FACE_BOUND('',#218,.T.);
#218=EDGE_LOOP('',(#219,#230,#236,#237,#247,#248,#249));
#219=ORIENTED_EDGE('',*,*,#220,.T.);
#220=EDGE_CURVE('',#221,#223,#225,.T.);
#221=VERTEX_POINT('',#222);
#222=CARTESIAN_POINT('',(-0.9652,0.36966,1.3208));
#223=VERTEX_POINT('',#224);
#224=CARTESIAN_POINT('',(-0.9652,0.36966,0.6096));
#225=CIRCLE('',#226,0.3556);
#226=AXIS2_PLACEMENT_3D('',#227,#228,#229);
#227=CARTESIAN_POINT('',(-0.9652,0.36966,0.9652));
#228=DIRECTION('',(0.0,-1.0,0.0));
#229=DIRECTION('',(0.0,0.0,1.0));
#230=ORIENTED_EDGE('',*,*,#231,.T.);
#231=EDGE_CURVE('',#223,#138,#232,.F.);
#232=LINE('',#233,#234);
#233=CARTESIAN_POINT('',(-0.9652,0.4103,0.6096));
#234=VECTOR('',#235,1.0);
#235=DIRECTION('',(0.0,-1.0,0.0));
#236=ORIENTED_EDGE('',*,*,#137,.F.);
#237=ORIENTED_EDGE('',*,*,#238,.T.);
#238=EDGE_CURVE('',#130,#81,#239,.F.);
#239=B_SPLINE_CURVE_WITH_KNOTS('',3,(#240,#241,#242,#243,#244,#245,#246),.UNSPECIFIED.,.F.,.U.,(4,1,1,1,4),(0.0,0.25,0.5,0.75,1.0),.QUASI_UNIFORM_KNOTS.);
#240=CARTESIAN_POINT('',(-1.308545471,0.4103,1.057748624));
#241=CARTESIAN_POINT('',(-1.312616618,0.4103,1.042645105));
#242=CARTESIAN_POINT('',(-1.318718242,0.409933646,1.012162467));
#243=CARTESIAN_POINT('',(-1.321841681,0.409594186,0.965169736));
#244=CARTESIAN_POINT('',(-1.318715029,0.409933908,0.918229039));
#245=CARTESIAN_POINT('',(-1.312615662,0.4103,0.88775135));
#246=CARTESIAN_POINT('',(-1.308545471,0.4103,0.872651376));
#247=ORIENTED_EDGE('',*,*,#78,.F.);
#248=ORIENTED_EDGE('',*,*,#202,.F.);
#249=ORIENTED_EDGE('',*,*,#250,.T.);
#250=EDGE_CURVE('',#194,#221,#251,.T.);
#251=LINE('',#252,#253);
#252=CARTESIAN_POINT('',(-0.9652,0.409707383,1.3208));
#253=VECTOR('',#254,1.0);
#254=DIRECTION('',(0.0,-1.0,0.0));
#255=CYLINDRICAL_SURFACE('',#256,0.3556);
#256=AXIS2_PLACEMENT_3D('',#257,#258,#259);
#257=CARTESIAN_POINT('',(-0.9652,0.41411,0.9652));
#258=DIRECTION('',(0.0,-1.0,0.0));
#259=DIRECTION('',(0.0,0.0,1.0));
#260=ADVANCED_FACE('',(#261),#283,.F.);
#261=FACE_BOUND('',#262,.T.);
#262=EDGE_LOOP('',(#263,#264,#265,#266,#275,#282));
#263=ORIENTED_EDGE('',*,*,#193,.F.);
#264=ORIENTED_EDGE('',*,*,#146,.F.);
#265=ORIENTED_EDGE('',*,*,#231,.F.);
#266=ORIENTED_EDGE('',*,*,#267,.T.);
#267=EDGE_CURVE('',#223,#268,#270,.T.);
#268=VERTEX_POINT('',#269);
#269=CARTESIAN_POINT('',(-0.9652,0.3341,0.9652));
#270=CIRCLE('',#271,1.79578);
#271=AXIS2_PLACEMENT_3D('',#272,#273,#274);
#272=CARTESIAN_POINT('',(-0.9652,2.12988,0.9652));
#273=DIRECTION('',(-1.0,0.0,0.0));
#274=DIRECTION('',(0.0,-0.98019802,-0.198019802));
#275=ORIENTED_EDGE('',*,*,#276,.T.);
#276=EDGE_CURVE('',#268,#221,#277,.F.);
#277=CIRCLE('',#278,1.79578);
#278=AXIS2_PLACEMENT_3D('',#279,#280,#281);
#279=CARTESIAN_POINT('',(-0.9652,2.12988,0.9652));
#280=DIRECTION('',(1.0,0.0,0.0));
#281=DIRECTION('',(0.0,-0.98019802,0.198019802));
#282=ORIENTED_EDGE('',*,*,#250,.F.);
#283=PLANE('',#284);
#284=AXIS2_PLACEMENT_3D('',#285,#286,#287);
#285=CARTESIAN_POINT('',(-0.9652,0.41411,0.9652));
#286=DIRECTION('',(1.0,0.0,0.0));
#287=DIRECTION('',(0.0,0.0,1.0));
#288=ADVANCED_FACE('',(#289),#294,.F.);
#289=FACE_BOUND('',#290,.T.);
#290=EDGE_LOOP('',(#291,#292,#293));
#291=ORIENTED_EDGE('',*,*,#267,.F.);
#292=ORIENTED_EDGE('',*,*,#220,.F.);
#293=ORIENTED_EDGE('',*,*,#276,.F.);
#294=SPHERICAL_SURFACE('',#295,1.79578);
#295=AXIS2_PLACEMENT_3D('',#296,#297,#298);
#296=CARTESIAN_POINT('',(-0.9652,2.12988,0.9652));
#297=DIRECTION('',(0.0,-1.0,0.0));
#298=DIRECTION('',(0.0,0.0,1.0));
#299=ADVANCED_FACE('',(#300),#329,.T.);
#300=FACE_BOUND('',#301,.T.);
#301=EDGE_LOOP('',(#302,#303,#312,#320,#327,#328));
#302=ORIENTED_EDGE('',*,*,#129,.F.);
#303=ORIENTED_EDGE('',*,*,#304,.T.);
#304=EDGE_CURVE('',#122,#305,#307,.T.);
#305=VERTEX_POINT('',#306);
#306=CARTESIAN_POINT('',(-1.432770216,0.309704785,-1.308545471));
#307=CIRCLE('',#308,0.127);
#308=AXIS2_PLACEMENT_3D('',#309,#310,#311);
#309=CARTESIAN_POINT('',(-1.308545471,0.2833,-1.308545471));
#310=DIRECTION('',(0.0,0.0,1.0));
#311=DIRECTION('',(0.0,1.0,0.0));
#312=ORIENTED_EDGE('',*,*,#313,.T.);
#313=EDGE_CURVE('',#305,#314,#316,.T.);
#314=VERTEX_POINT('',#315);
#315=CARTESIAN_POINT('',(-1.432770216,0.309704785,1.308545471));
#316=LINE('',#317,#318);
#317=CARTESIAN_POINT('',(-1.432770216,0.309704785,-1.308545471));
#318=VECTOR('',#319,1.0);
#319=DIRECTION('',(0.0,0.0,1.0));
#320=ORIENTED_EDGE('',*,*,#321,.T.);
#321=EDGE_CURVE('',#314,#90,#322,.T.);
#322=CIRCLE('',#323,0.127);
#323=AXIS2_PLACEMENT_3D('',#324,#325,#326);
#324=CARTESIAN_POINT('',(-1.308545471,0.2833,1.308545471));
#325=DIRECTION('',(0.0,0.0,-1.0));
#326=DIRECTION('',(-0.978147601,0.207911691,0.0));
#327=ORIENTED_EDGE('',*,*,#89,.F.);
#328=ORIENTED_EDGE('',*,*,#238,.F.);
#329=CYLINDRICAL_SURFACE('',#330,0.127);
#330=AXIS2_PLACEMENT_3D('',#331,#332,#333);
#331=CARTESIAN_POINT('',(-1.308545471,0.2833,-1.411388043));
#332=DIRECTION('',(0.0,0.0,1.0));
#333=DIRECTION('',(0.0,1.0,0.0));
#334=ADVANCED_FACE('',(#335),#346,.T.);
#335=FACE_BOUND('',#336,.T.);
#336=EDGE_LOOP('',(#337,#338,#339));
#337=ORIENTED_EDGE('',*,*,#168,.F.);
#338=ORIENTED_EDGE('',*,*,#321,.F.);
#339=ORIENTED_EDGE('',*,*,#340,.T.);
#340=EDGE_CURVE('',#314,#169,#341,.F.);
#341=CIRCLE('',#342,0.127);
#342=AXIS2_PLACEMENT_3D('',#343,#344,#345);
#343=CARTESIAN_POINT('',(-1.308545471,0.2833,1.308545471));
#344=DIRECTION('',(-0.203558595,-0.957667895,0.203558595));
#345=DIRECTION('',(-5.113964807E-15,0.207911691,0.978147601));
#346=SPHERICAL_SURFACE('',#347,0.127);
#347=AXIS2_PLACEMENT_3D('',#348,#349,#350);
#348=CARTESIAN_POINT('',(-1.308545471,0.2833,1.308545471));
#349=DIRECTION('',(0.0,-0.629320391,0.777145961));
#350=DIRECTION('',(0.0,0.777145961,0.629320391));
#351=ADVANCED_FACE('',(#352),#383,.T.);
#352=FACE_BOUND('',#353,.T.);
#353=EDGE_LOOP('',(#354,#355,#363,#377));
#354=ORIENTED_EDGE('',*,*,#340,.F.);
#355=ORIENTED_EDGE('',*,*,#356,.T.);
#356=EDGE_CURVE('',#314,#357,#359,.F.);
#357=VERTEX_POINT('',#358);
#358=CARTESIAN_POINT('',(-1.498570319,1.396396122E-04,1.374345573));
#359=LINE('',#360,#361);
#360=CARTESIAN_POINT('',(-1.498570319,1.396396122E-04,1.374345573));
#361=VECTOR('',#362,1.0);
#362=DIRECTION('',(0.203558595,0.957667895,-0.203558595));
#363=ORIENTED_EDGE('',*,*,#364,.T.);
#364=EDGE_CURVE('',#357,#365,#367,.F.);
#365=VERTEX_POINT('',#366);
#366=CARTESIAN_POINT('',(-1.374345573,1.396396122E-04,1.498570319));
#367=B_SPLINE_CURVE_WITH_KNOTS('',3,(#368,#369,#370,#371,#372,#373,#374,#375,#376),.UNSPECIFIED.,.F.,.U.,(4,1,1,1,1,1,4),(0.0,0.166666667,0.333333333,0.5,0.666666667,0.833333333,1.0),.UNSPECIFIED.);
#368=CARTESIAN_POINT('',(-1.374345573,1.396396122E-04,1.498570319));
#369=CARTESIAN_POINT('',(-1.385180903,0.001241936,1.498336018));
#370=CARTESIAN_POINT('',(-1.406740266,0.003144442,1.495073469));
#371=CARTESIAN_POINT('',(-1.436601738,0.004920996,1.482297517));
#372=CARTESIAN_POINT('',(-1.462379028,0.005530195,1.462379028));
#373=CARTESIAN_POINT('',(-1.482297517,0.004920996,1.436601738));
#374=CARTESIAN_POINT('',(-1.495073469,0.003144442,1.406740266));
#375=CARTESIAN_POINT('',(-1.498336018,0.001241936,1.385180903));
#376=CARTESIAN_POINT('',(-1.498570319,1.396396122E-04,1.374345573));
#377=ORIENTED_EDGE('',*,*,#378,.T.);
#378=EDGE_CURVE('',#365,#169,#379,.T.);
#379=LINE('',#380,#381);
#380=CARTESIAN_POINT('',(-1.374345573,1.396396122E-04,1.498570319));
#381=VECTOR('',#382,1.0);
#382=DIRECTION('',(0.203558595,0.957667895,-0.203558595));
#383=CYLINDRICAL_SURFACE('',#384,0.127);
#384=AXIS2_PLACEMENT_3D('',#385,#386,#387);
#385=CARTESIAN_POINT('',(-1.374375255,-0.026404785,1.374375255));
#386=DIRECTION('',(-0.203558595,-0.957667895,0.203558595));
#387=DIRECTION('',(-5.107025913E-15,0.207911691,0.978147601));
#388=ADVANCED_FACE('',(#389),#425,.T.);
#389=FACE_BOUND('',#390,.T.);
#390=EDGE_LOOP('',(#391,#402,#408,#409,#410,#419));
#391=ORIENTED_EDGE('',*,*,#392,.T.);
#392=EDGE_CURVE('',#393,#395,#397,.F.);
#393=VERTEX_POINT('',#394);
#394=CARTESIAN_POINT('',(1.3716,0.0,1.4986));
#395=VERTEX_POINT('',#396);
#396=CARTESIAN_POINT('',(1.374345573,1.396396122E-04,1.498570319));
#397=B_SPLINE_CURVE_WITH_KNOTS('',3,(#398,#399,#400,#401),.UNSPECIFIED.,.F.,.U.,(4,4),(0.0,1.0),.PIECEWISE_BEZIER_KNOTS.);
#398=CARTESIAN_POINT('',(1.374345573,1.396396122E-04,1.498570319));
#399=CARTESIAN_POINT('',(1.373432838,4.678543594E-05,1.498590055));
#400=CARTESIAN_POINT('',(1.372517659,0.0,1.4986));
#401=CARTESIAN_POINT('',(1.3716,0.0,1.4986));
#402=ORIENTED_EDGE('',*,*,#403,.T.);
#403=EDGE_CURVE('',#395,#178,#404,.T.);
#404=LINE('',#405,#406);
#405=CARTESIAN_POINT('',(1.374345573,1.396396122E-04,1.498570319));
#406=VECTOR('',#407,1.0);
#407=DIRECTION('',(-0.203558595,0.957667895,-0.203558595));
#408=ORIENTED_EDGE('',*,*,#177,.F.);
#409=ORIENTED_EDGE('',*,*,#378,.F.);
#410=ORIENTED_EDGE('',*,*,#411,.T.);
#411=EDGE_CURVE('',#365,#412,#414,.F.);
#412=VERTEX_POINT('',#413);
#413=CARTESIAN_POINT('',(-1.3716,0.0,1.4986));
#414=B_SPLINE_CURVE_WITH_KNOTS('',3,(#415,#416,#417,#418),.UNSPECIFIED.,.F.,.U.,(4,4),(0.0,1.0),.PIECEWISE_BEZIER_KNOTS.);
#415=CARTESIAN_POINT('',(-1.3716,0.0,1.4986));
#416=CARTESIAN_POINT('',(-1.372517659,0.0,1.4986));
#417=CARTESIAN_POINT('',(-1.373432838,4.678543594E-05,1.498590055));
#418=CARTESIAN_POINT('',(-1.374345573,1.396396122E-04,1.498570319));
#419=ORIENTED_EDGE('',*,*,#420,.T.);
#420=EDGE_CURVE('',#412,#393,#421,.T.);
#421=LINE('',#422,#423);
#422=CARTESIAN_POINT('',(-1.3716,0.0,1.4986));
#423=VECTOR('',#424,1.0);
#424=DIRECTION('',(1.0,0.0,0.0));
#425=PLANE('',#426);
#426=AXIS2_PLACEMENT_3D('',#427,#428,#429);
#427=CARTESIAN_POINT('',(-1.4986,0.0,1.4986));
#428=DIRECTION('',(0.0,0.207911691,0.978147601));
#429=DIRECTION('',(1.0,0.0,0.0));
#430=ADVANCED_FACE('',(#431),#456,.T.);
#431=FACE_BOUND('',#432,.T.);
#432=EDGE_LOOP('',(#433,#441,#449,#455));
#433=ORIENTED_EDGE('',*,*,#434,.T.);
#434=EDGE_CURVE('',#412,#435,#437,.T.);
#435=VERTEX_POINT('',#436);
#436=CARTESIAN_POINT('',(-1.3716,-0.1778,1.4986));
#437=LINE('',#438,#439);
#438=CARTESIAN_POINT('',(-1.3716,0.0,1.4986));
#439=VECTOR('',#440,1.0);
#440=DIRECTION('',(0.0,-1.0,0.0));
#441=ORIENTED_EDGE('',*,*,#442,.T.);
#442=EDGE_CURVE('',#435,#443,#445,.F.);
#443=VERTEX_POINT('',#444);
#444=CARTESIAN_POINT('',(1.3716,-0.1778,1.4986));
#445=LINE('',#446,#447);
#446=CARTESIAN_POINT('',(1.3716,-0.1778,1.4986));
#447=VECTOR('',#448,1.0);
#448=DIRECTION('',(-1.0,0.0,0.0));
#449=ORIENTED_EDGE('',*,*,#450,.T.);
#450=EDGE_CURVE('',#443,#393,#451,.F.);
#451=LINE('',#452,#453);
#452=CARTESIAN_POINT('',(1.3716,0.0,1.4986));
#453=VECTOR('',#454,1.0);
#454=DIRECTION('',(0.0,-1.0,0.0));
#455=ORIENTED_EDGE('',*,*,#420,.F.);
#456=PLANE('',#457);
#457=AXIS2_PLACEMENT_3D('',#458,#459,#460);
#458=CARTESIAN_POINT('',(-1.4986,0.0,1.4986));
#459=DIRECTION('',(0.0,0.0,1.0));
#460=DIRECTION('',(1.0,0.0,0.0));
#461=ADVANCED_FACE('',(#462),#527,.T.);
#462=FACE_BOUND('',#463,.T.);
#463=EDGE_LOOP('',(#464,#475,#487,#488,#489,#498,#512,#521));
#464=ORIENTED_EDGE('',*,*,#465,.T.);
#465=EDGE_CURVE('',#466,#468,#470,.T.);
#466=VERTEX_POINT('',#467);
#467=CARTESIAN_POINT('',(1.4986,0.0,1.3716));
#468=VERTEX_POINT('',#469);
#469=CARTESIAN_POINT('',(1.498570319,1.396396122E-04,1.374345573));
#470=B_SPLINE_CURVE_WITH_KNOTS('',3,(#471,#472,#473,#474),.UNSPECIFIED.,.F.,.U.,(4,4),(0.0,1.0),.PIECEWISE_BEZIER_KNOTS.);
#471=CARTESIAN_POINT('',(1.4986,0.0,1.3716));
#472=CARTESIAN_POINT('',(1.4986,0.0,1.372517659));
#473=CARTESIAN_POINT('',(1.498590055,4.678543594E-05,1.373432838));
#474=CARTESIAN_POINT('',(1.498570319,1.396396122E-04,1.374345573));
#475=ORIENTED_EDGE('',*,*,#476,.T.);
#476=EDGE_CURVE('',#468,#395,#477,.T.);
#477=B_SPLINE_CURVE_WITH_KNOTS('',3,(#478,#479,#480,#481,#482,#483,#484,#485,#486),.UNSPECIFIED.,.F.,.U.,(4,1,1,1,1,1,4),(0.0,0.166666667,0.333333333,0.5,0.666666667,0.833333333,1.0),.UNSPECIFIED.);
#478=CARTESIAN_POINT('',(1.498570319,1.396396122E-04,1.374345573));
#479=CARTESIAN_POINT('',(1.498336018,0.001241936,1.385180903));
#480=CARTESIAN_POINT('',(1.495073469,0.003144442,1.406740266));
#481=CARTESIAN_POINT('',(1.482297517,0.004920996,1.436601738));
#482=CARTESIAN_POINT('',(1.462379028,0.005530195,1.462379028));
#483=CARTESIAN_POINT('',(1.436601738,0.004920996,1.482297517));
#484=CARTESIAN_POINT('',(1.406740266,0.003144442,1.495073469));
#485=CARTESIAN_POINT('',(1.385180903,0.001241936,1.498336018));
#486=CARTESIAN_POINT('',(1.374345573,1.396396122E-04,1.498570319));
#487=ORIENTED_EDGE('',*,*,#392,.F.);
#488=ORIENTED_EDGE('',*,*,#450,.F.);
#489=ORIENTED_EDGE('',*,*,#490,.T.);
#490=EDGE_CURVE('',#443,#491,#493,.T.);
#491=VERTEX_POINT('',#492);
#492=CARTESIAN_POINT('',(1.374345573,-0.17793964,1.498570319));
#493=B_SPLINE_CURVE_WITH_KNOTS('',3,(#494,#495,#496,#497),.UNSPECIFIED.,.F.,.U.,(4,4),(0.0,1.0),.PIECEWISE_BEZIER_KNOTS.);
#494=CARTESIAN_POINT('',(1.3716,-0.1778,1.4986));
#495=CARTESIAN_POINT('',(1.372517659,-0.1778,1.4986));
#496=CARTESIAN_POINT('',(1.373432838,-0.177846785,1.498590055));
#497=CARTESIAN_POINT('',(1.374345573,-0.17793964,1.498570319));
#498=ORIENTED_EDGE('',*,*,#499,.T.);
#499=EDGE_CURVE('',#491,#500,#502,.T.);
#500=VERTEX_POINT('',#501);
#501=CARTESIAN_POINT('',(1.498570319,-0.17793964,1.374345573));
#502=B_SPLINE_CURVE_WITH_KNOTS('',3,(#503,#504,#505,#506,#507,#508,#509,#510,#511),.UNSPECIFIED.,.F.,.U.,(4,1,1,1,1,1,4),(0.0,0.166666667,0.333333333,0.5,0.666666667,0.833333333,1.0),.UNSPECIFIED.);
#503=CARTESIAN_POINT('',(1.374345573,-0.17793964,1.498570319));
#504=CARTESIAN_POINT('',(1.385180903,-0.179041936,1.498336018));
#505=CARTESIAN_POINT('',(1.406740266,-0.180944442,1.495073469));
#506=CARTESIAN_POINT('',(1.436601738,-0.182720996,1.482297517));
#507=CARTESIAN_POINT('',(1.462379028,-0.183330195,1.462379028));
#508=CARTESIAN_POINT('',(1.482297517,-0.182720996,1.436601738));
#509=CARTESIAN_POINT('',(1.495073469,-0.180944442,1.406740266));
#510=CARTESIAN_POINT('',(1.498336018,-0.179041936,1.385180903));
#511=CARTESIAN_POINT('',(1.498570319,-0.17793964,1.374345573));
#512=ORIENTED_EDGE('',*,*,#513,.T.);
#513=EDGE_CURVE('',#500,#514,#516,.T.);
#514=VERTEX_POINT('',#515);
#515=CARTESIAN_POINT('',(1.4986,-0.1778,1.3716));
#516=B_SPLINE_CURVE_WITH_KNOTS('',3,(#517,#518,#519,#520),.UNSPECIFIED.,.F.,.U.,(4,4),(0.0,1.0),.PIECEWISE_BEZIER_KNOTS.);
#517=CARTESIAN_POINT('',(1.498570319,-0.17793964,1.374345573));
#518=CARTESIAN_POINT('',(1.498590055,-0.177846785,1.373432838));
#519=CARTESIAN_POINT('',(1.4986,-0.1778,1.372517659));
#520=CARTESIAN_POINT('',(1.4986,-0.1778,1.3716));
#521=ORIENTED_EDGE('',*,*,#522,.T.);
#522=EDGE_CURVE('',#514,#466,#523,.F.);
#523=LINE('',#524,#525);
#524=CARTESIAN_POINT('',(1.4986,0.0,1.3716));
#525=VECTOR('',#526,1.0);
#526=DIRECTION('',(0.0,-1.0,0.0));
#527=CYLINDRICAL_SURFACE('',#528,0.127);
#528=AXIS2_PLACEMENT_3D('',#529,#530,#531);
#529=CARTESIAN_POINT('',(1.3716,0.0,1.3716));
#530=DIRECTION('',(0.0,-1.0,0.0));
#531=DIRECTION('',(1.0,0.0,0.0));
#532=ADVANCED_FACE('',(#533),#558,.T.);
#533=FACE_BOUND('',#534,.T.);
#534=EDGE_LOOP('',(#535,#536,#544,#552));
#535=ORIENTED_EDGE('',*,*,#522,.F.);
#536=ORIENTED_EDGE('',*,*,#537,.T.);
#537=EDGE_CURVE('',#514,#538,#540,.T.);
#538=VERTEX_POINT('',#539);
#539=CARTESIAN_POINT('',(1.4986,-0.1778,-1.3716));
#540=LINE('',#541,#542);
#541=CARTESIAN_POINT('',(1.4986,-0.1778,1.3716));
#542=VECTOR('',#543,1.0);
#543=DIRECTION('',(0.0,0.0,-1.0));
#544=ORIENTED_EDGE('',*,*,#545,.T.);
#545=EDGE_CURVE('',#538,#546,#548,.F.);
#546=VERTEX_POINT('',#547);
#547=CARTESIAN_POINT('',(1.4986,0.0,-1.3716));
#548=LINE('',#549,#550);
#549=CARTESIAN_POINT('',(1.4986,0.0,-1.3716));
#550=VECTOR('',#551,1.0);
#551=DIRECTION('',(0.0,-1.0,0.0));
#552=ORIENTED_EDGE('',*,*,#553,.T.);
#553=EDGE_CURVE('',#546,#466,#554,.F.);
#554=LINE('',#555,#556);
#555=CARTESIAN_POINT('',(1.4986,0.0,1.3716));
#556=VECTOR('',#557,1.0);
#557=DIRECTION('',(0.0,0.0,-1.0));
#558=PLANE('',#559);
#559=AXIS2_PLACEMENT_3D('',#560,#561,#562);
#560=CARTESIAN_POINT('',(1.4986,0.0,1.4986));
#561=DIRECTION('',(1.0,0.0,0.0));
#562=DIRECTION('',(0.0,0.0,-1.0));
#563=ADVANCED_FACE('',(#564),#599,.T.);
#564=FACE_BOUND('',#565,.T.);
#565=EDGE_LOOP('',(#566,#575,#583,#591,#597,#598));
#566=ORIENTED_EDGE('',*,*,#567,.T.);
#567=EDGE_CURVE('',#546,#568,#570,.F.);
#568=VERTEX_POINT('',#569);
#569=CARTESIAN_POINT('',(1.498570319,1.396396122E-04,-1.374345573));
#570=B_SPLINE_CURVE_WITH_KNOTS('',3,(#571,#572,#573,#574),.UNSPECIFIED.,.F.,.U.,(4,4),(0.0,1.0),.PIECEWISE_BEZIER_KNOTS.);
#571=CARTESIAN_POINT('',(1.498570319,1.396396122E-04,-1.374345573));
#572=CARTESIAN_POINT('',(1.498590055,4.678543594E-05,-1.373432838));
#573=CARTESIAN_POINT('',(1.4986,0.0,-1.372517659));
#574=CARTESIAN_POINT('',(1.4986,0.0,-1.3716));
#575=ORIENTED_EDGE('',*,*,#576,.T.);
#576=EDGE_CURVE('',#568,#577,#579,.T.);
#577=VERTEX_POINT('',#578);
#578=CARTESIAN_POINT('',(1.432770216,0.309704785,-1.308545471));
#579=LINE('',#580,#581);
#580=CARTESIAN_POINT('',(1.498570319,1.396396122E-04,-1.374345573));
#581=VECTOR('',#582,1.0);
#582=DIRECTION('',(-0.203558595,0.957667895,0.203558595));
#583=ORIENTED_EDGE('',*,*,#584,.T.);
#584=EDGE_CURVE('',#577,#585,#587,.F.);
#585=VERTEX_POINT('',#586);
#586=CARTESIAN_POINT('',(1.432770216,0.309704785,1.308545471));
#587=LINE('',#588,#589);
#588=CARTESIAN_POINT('',(1.432770216,0.309704785,1.308545471));
#589=VECTOR('',#590,1.0);
#590=DIRECTION('',(0.0,0.0,-1.0));
#591=ORIENTED_EDGE('',*,*,#592,.T.);
#592=EDGE_CURVE('',#585,#468,#593,.F.);
#593=LINE('',#594,#595);
#594=CARTESIAN_POINT('',(1.498570319,1.396396122E-04,1.374345573));
#595=VECTOR('',#596,1.0);
#596=DIRECTION('',(-0.203558595,0.957667895,-0.203558595));
#597=ORIENTED_EDGE('',*,*,#465,.F.);
#598=ORIENTED_EDGE('',*,*,#553,.F.);
#599=PLANE('',#600);
#600=AXIS2_PLACEMENT_3D('',#601,#602,#603);
#601=CARTESIAN_POINT('',(1.4986,0.0,1.4986));
#602=DIRECTION('',(0.978147601,0.207911691,0.0));
#603=DIRECTION('',(0.0,0.0,-1.0));
#604=ADVANCED_FACE('',(#605),#617,.T.);
#605=FACE_BOUND('',#606,.T.);
#606=EDGE_LOOP('',(#607,#614,#615,#616));
#607=ORIENTED_EDGE('',*,*,#608,.T.);
#608=EDGE_CURVE('',#585,#178,#609,.T.);
#609=CIRCLE('',#610,0.127);
#610=AXIS2_PLACEMENT_3D('',#611,#612,#613);
#611=CARTESIAN_POINT('',(1.308545471,0.2833,1.308545471));
#612=DIRECTION('',(0.203558595,-0.957667895,0.203558595));
#613=DIRECTION('',(0.978147601,0.207911691,5.113964807E-15));
#614=ORIENTED_EDGE('',*,*,#403,.F.);
#615=ORIENTED_EDGE('',*,*,#476,.F.);
#616=ORIENTED_EDGE('',*,*,#592,.F.);
#617=CYLINDRICAL_SURFACE('',#618,0.127);
#618=AXIS2_PLACEMENT_3D('',#619,#620,#621);
#619=CARTESIAN_POINT('',(1.374375255,-0.026404785,1.374375255));
#620=DIRECTION('',(0.203558595,-0.957667895,0.203558595));
#621=DIRECTION('',(0.978147601,0.207911691,5.107025913E-15));
#622=ADVANCED_FACE('',(#623),#634,.T.);
#623=FACE_BOUND('',#624,.T.);
#624=EDGE_LOOP('',(#625,#626,#627));
#625=ORIENTED_EDGE('',*,*,#185,.F.);
#626=ORIENTED_EDGE('',*,*,#608,.F.);
#627=ORIENTED_EDGE('',*,*,#628,.T.);
#628=EDGE_CURVE('',#585,#112,#629,.F.);
#629=CIRCLE('',#630,0.127);
#630=AXIS2_PLACEMENT_3D('',#631,#632,#633);
#631=CARTESIAN_POINT('',(1.308545471,0.2833,1.308545471));
#632=DIRECTION('',(0.0,0.0,-1.0));
#633=DIRECTION('',(0.0,1.0,0.0));
#634=SPHERICAL_SURFACE('',#635,0.127);
#635=AXIS2_PLACEMENT_3D('',#636,#637,#638);
#636=CARTESIAN_POINT('',(1.308545471,0.2833,1.308545471));
#637=DIRECTION('',(0.0,0.629320391,-0.777145961));
#638=DIRECTION('',(0.0,0.777145961,0.629320391));
#639=ADVANCED_FACE('',(#640),#652,.T.);
#640=FACE_BOUND('',#641,.T.);
#641=EDGE_LOOP('',(#642,#643,#644,#651));
#642=ORIENTED_EDGE('',*,*,#628,.F.);
#643=ORIENTED_EDGE('',*,*,#584,.F.);
#644=ORIENTED_EDGE('',*,*,#645,.T.);
#645=EDGE_CURVE('',#577,#114,#646,.T.);
#646=CIRCLE('',#647,0.127);
#647=AXIS2_PLACEMENT_3D('',#648,#649,#650);
#648=CARTESIAN_POINT('',(1.308545471,0.2833,-1.308545471));
#649=DIRECTION('',(0.0,0.0,1.0));
#650=DIRECTION('',(0.978147601,0.207911691,0.0));
#651=ORIENTED_EDGE('',*,*,#111,.F.);
#652=CYLINDRICAL_SURFACE('',#653,0.127);
#653=AXIS2_PLACEMENT_3D('',#654,#655,#656);
#654=CARTESIAN_POINT('',(1.308545471,0.2833,1.411388043));
#655=DIRECTION('',(0.0,0.0,-1.0));
#656=DIRECTION('',(0.0,1.0,0.0));
#657=ADVANCED_FACE('',(#658),#677,.T.);
#658=FACE_BOUND('',#659,.T.);
#659=EDGE_LOOP('',(#660,#669,#670));
#660=ORIENTED_EDGE('',*,*,#661,.T.);
#661=EDGE_CURVE('',#662,#114,#664,.F.);
#662=VERTEX_POINT('',#663);
#663=CARTESIAN_POINT('',(1.308545471,0.309704785,-1.432770216));
#664=CIRCLE('',#665,0.127);
#665=AXIS2_PLACEMENT_3D('',#666,#667,#668);
#666=CARTESIAN_POINT('',(1.308545471,0.2833,-1.308545471));
#667=DIRECTION('',(-1.0,0.0,0.0));
#668=DIRECTION('',(0.0,1.0,0.0));
#669=ORIENTED_EDGE('',*,*,#645,.F.);
#670=ORIENTED_EDGE('',*,*,#671,.T.);
#671=EDGE_CURVE('',#577,#662,#672,.F.);
#672=CIRCLE('',#673,0.127);
#673=AXIS2_PLACEMENT_3D('',#674,#675,#676);
#674=CARTESIAN_POINT('',(1.308545471,0.2833,-1.308545471));
#675=DIRECTION('',(0.203558595,-0.957667895,-0.203558595));
#676=DIRECTION('',(5.113964807E-15,0.207911691,-0.978147601));
#677=SPHERICAL_SURFACE('',#678,0.127);
#678=AXIS2_PLACEMENT_3D('',#679,#680,#681);
#679=CARTESIAN_POINT('',(1.308545471,0.2833,-1.308545471));
#680=DIRECTION('',(0.0,-0.629320391,-0.777145961));
#681=DIRECTION('',(0.0,0.777145961,-0.629320391));
#682=ADVANCED_FACE('',(#683),#707,.T.);
#683=FACE_BOUND('',#684,.T.);
#684=EDGE_LOOP('',(#685,#686,#687,#701));
#685=ORIENTED_EDGE('',*,*,#671,.F.);
#686=ORIENTED_EDGE('',*,*,#576,.F.);
#687=ORIENTED_EDGE('',*,*,#688,.T.);
#688=EDGE_CURVE('',#568,#689,#691,.F.);
#689=VERTEX_POINT('',#690);
#690=CARTESIAN_POINT('',(1.374345573,1.396396122E-04,-1.498570319));
#691=B_SPLINE_CURVE_WITH_KNOTS('',3,(#692,#693,#694,#695,#696,#697,#698,#699,#700),.UNSPECIFIED.,.F.,.U.,(4,1,1,1,1,1,4),(0.0,0.166666667,0.333333333,0.5,0.666666667,0.833333333,1.0),.UNSPECIFIED.);
#692=CARTESIAN_POINT('',(1.374345573,1.396396122E-04,-1.498570319));
#693=CARTESIAN_POINT('',(1.385180903,0.001241936,-1.498336018));
#694=CARTESIAN_POINT('',(1.406740266,0.003144442,-1.495073469));
#695=CARTESIAN_POINT('',(1.436601738,0.004920996,-1.482297517));
#696=CARTESIAN_POINT('',(1.462379028,0.005530195,-1.462379028));
#697=CARTESIAN_POINT('',(1.482297517,0.004920996,-1.436601738));
#698=CARTESIAN_POINT('',(1.495073469,0.003144442,-1.406740266));
#699=CARTESIAN_POINT('',(1.498336018,0.001241936,-1.385180903));
#700=CARTESIAN_POINT('',(1.498570319,1.396396122E-04,-1.374345573));
#701=ORIENTED_EDGE('',*,*,#702,.T.);
#702=EDGE_CURVE('',#689,#662,#703,.T.);
#703=LINE('',#704,#705);
#704=CARTESIAN_POINT('',(1.374345573,1.396396122E-04,-1.498570319));
#705=VECTOR('',#706,1.0);
#706=DIRECTION('',(-0.203558595,0.957667895,0.203558595));
#707=CYLINDRICAL_SURFACE('',#708,0.127);
#708=AXIS2_PLACEMENT_3D('',#709,#710,#711);
#709=CARTESIAN_POINT('',(1.374375255,-0.026404785,-1.374375255));
#710=DIRECTION('',(0.203558595,-0.957667895,-0.203558595));
#711=DIRECTION('',(5.107025913E-15,0.207911691,-0.978147601));
#712=ADVANCED_FACE('',(#713),#756,.T.);
#713=FACE_BOUND('',#714,.T.);
#714=EDGE_LOOP('',(#715,#726,#734,#740,#741,#750));
#715=ORIENTED_EDGE('',*,*,#716,.T.);
#716=EDGE_CURVE('',#717,#719,#721,.F.);
#717=VERTEX_POINT('',#718);
#718=CARTESIAN_POINT('',(-1.3716,0.0,-1.4986));
#719=VERTEX_POINT('',#720);
#720=CARTESIAN_POINT('',(-1.374345573,1.396396122E-04,-1.498570319));
#721=B_SPLINE_CURVE_WITH_KNOTS('',3,(#722,#723,#724,#725),.UNSPECIFIED.,.F.,.U.,(4,4),(0.0,1.0),.PIECEWISE_BEZIER_KNOTS.);
#722=CARTESIAN_POINT('',(-1.374345573,1.396396122E-04,-1.498570319));
#723=CARTESIAN_POINT('',(-1.373432838,4.678543594E-05,-1.498590055));
#724=CARTESIAN_POINT('',(-1.372517659,0.0,-1.4986));
#725=CARTESIAN_POINT('',(-1.3716,0.0,-1.4986));
#726=ORIENTED_EDGE('',*,*,#727,.T.);
#727=EDGE_CURVE('',#719,#728,#730,.T.);
#728=VERTEX_POINT('',#729);
#729=CARTESIAN_POINT('',(-1.308545471,0.309704785,-1.432770216));
#730=LINE('',#731,#732);
#731=CARTESIAN_POINT('',(-1.374345573,1.396396122E-04,-1.498570319));
#732=VECTOR('',#733,1.0);
#733=DIRECTION('',(0.203558595,0.957667895,0.203558595));
#734=ORIENTED_EDGE('',*,*,#735,.T.);
#735=EDGE_CURVE('',#728,#662,#736,.F.);
#736=LINE('',#737,#738);
#737=CARTESIAN_POINT('',(1.308545471,0.309704785,-1.432770216));
#738=VECTOR('',#739,1.0);
#739=DIRECTION('',(-1.0,0.0,0.0));
#740=ORIENTED_EDGE('',*,*,#702,.F.);
#741=ORIENTED_EDGE('',*,*,#742,.T.);
#742=EDGE_CURVE('',#689,#743,#745,.F.);
#743=VERTEX_POINT('',#744);
#744=CARTESIAN_POINT('',(1.3716,0.0,-1.4986));
#745=B_SPLINE_CURVE_WITH_KNOTS('',3,(#746,#747,#748,#749),.UNSPECIFIED.,.F.,.U.,(4,4),(0.0,1.0),.PIECEWISE_BEZIER_KNOTS.);
#746=CARTESIAN_POINT('',(1.3716,0.0,-1.4986));
#747=CARTESIAN_POINT('',(1.372517659,0.0,-1.4986));
#748=CARTESIAN_POINT('',(1.373432838,4.678543594E-05,-1.498590055));
#749=CARTESIAN_POINT('',(1.374345573,1.396396122E-04,-1.498570319));
#750=ORIENTED_EDGE('',*,*,#751,.T.);
#751=EDGE_CURVE('',#743,#717,#752,.F.);
#752=LINE('',#753,#754);
#753=CARTESIAN_POINT('',(-1.3716,0.0,-1.4986));
#754=VECTOR('',#755,1.0);
#755=DIRECTION('',(1.0,0.0,0.0));
#756=PLANE('',#757);
#757=AXIS2_PLACEMENT_3D('',#758,#759,#760);
#758=CARTESIAN_POINT('',(1.4986,0.0,-1.4986));
#759=DIRECTION('',(0.0,0.207911691,-0.978147601));
#760=DIRECTION('',(-1.0,0.0,0.0));
#761=ADVANCED_FACE('',(#762),#787,.T.);
#762=FACE_BOUND('',#763,.T.);
#763=EDGE_LOOP('',(#764,#772,#780,#786));
#764=ORIENTED_EDGE('',*,*,#765,.T.);
#765=EDGE_CURVE('',#743,#766,#768,.T.);
#766=VERTEX_POINT('',#767);
#767=CARTESIAN_POINT('',(1.3716,-0.1778,-1.4986));
#768=LINE('',#769,#770);
#769=CARTESIAN_POINT('',(1.3716,0.0,-1.4986));
#770=VECTOR('',#771,1.0);
#771=DIRECTION('',(0.0,-1.0,0.0));
#772=ORIENTED_EDGE('',*,*,#773,.T.);
#773=EDGE_CURVE('',#766,#774,#776,.T.);
#774=VERTEX_POINT('',#775);
#775=CARTESIAN_POINT('',(-1.3716,-0.1778,-1.4986));
#776=LINE('',#777,#778);
#777=CARTESIAN_POINT('',(1.3716,-0.1778,-1.4986));
#778=VECTOR('',#779,1.0);
#779=DIRECTION('',(-1.0,0.0,0.0));
#780=ORIENTED_EDGE('',*,*,#781,.T.);
#781=EDGE_CURVE('',#774,#717,#782,.F.);
#782=LINE('',#783,#784);
#783=CARTESIAN_POINT('',(-1.3716,0.0,-1.4986));
#784=VECTOR('',#785,1.0);
#785=DIRECTION('',(0.0,-1.0,0.0));
#786=ORIENTED_EDGE('',*,*,#751,.F.);
#787=PLANE('',#788);
#788=AXIS2_PLACEMENT_3D('',#789,#790,#791);
#789=CARTESIAN_POINT('',(1.4986,0.0,-1.4986));
#790=DIRECTION('',(0.0,0.0,-1.0));
#791=DIRECTION('',(-1.0,0.0,0.0));
#792=ADVANCED_FACE('',(#793),#858,.T.);
#793=FACE_BOUND('',#794,.T.);
#794=EDGE_LOOP('',(#795,#806,#818,#819,#820,#829,#843,#852));
#795=ORIENTED_EDGE('',*,*,#796,.T.);
#796=EDGE_CURVE('',#797,#799,#801,.T.);
#797=VERTEX_POINT('',#798);
#798=CARTESIAN_POINT('',(-1.4986,0.0,-1.3716));
#799=VERTEX_POINT('',#800);
#800=CARTESIAN_POINT('',(-1.498570319,1.396396122E-04,-1.374345573));
#801=B_SPLINE_CURVE_WITH_KNOTS('',3,(#802,#803,#804,#805),.UNSPECIFIED.,.F.,.U.,(4,4),(0.0,1.0),.PIECEWISE_BEZIER_KNOTS.);
#802=CARTESIAN_POINT('',(-1.4986,0.0,-1.3716));
#803=CARTESIAN_POINT('',(-1.4986,0.0,-1.372517659));
#804=CARTESIAN_POINT('',(-1.498590055,4.678543594E-05,-1.373432838));
#805=CARTESIAN_POINT('',(-1.498570319,1.396396122E-04,-1.374345573));
#806=ORIENTED_EDGE('',*,*,#807,.T.);
#807=EDGE_CURVE('',#799,#719,#808,.T.);
#808=B_SPLINE_CURVE_WITH_KNOTS('',3,(#809,#810,#811,#812,#813,#814,#815,#816,#817),.UNSPECIFIED.,.F.,.U.,(4,1,1,1,1,1,4),(0.0,0.166666667,0.333333333,0.5,0.666666667,0.833333333,1.0),.UNSPECIFIED.);
#809=CARTESIAN_POINT('',(-1.498570319,1.396396122E-04,-1.374345573));
#810=CARTESIAN_POINT('',(-1.498336018,0.001241936,-1.385180903));
#811=CARTESIAN_POINT('',(-1.495073469,0.003144442,-1.406740266));
#812=CARTESIAN_POINT('',(-1.482297517,0.004920996,-1.436601738));
#813=CARTESIAN_POINT('',(-1.462379028,0.005530195,-1.462379028));
#814=CARTESIAN_POINT('',(-1.436601738,0.004920996,-1.482297517));
#815=CARTESIAN_POINT('',(-1.406740266,0.003144442,-1.495073469));
#816=CARTESIAN_POINT('',(-1.385180903,0.001241936,-1.498336018));
#817=CARTESIAN_POINT('',(-1.374345573,1.396396122E-04,-1.498570319));
#818=ORIENTED_EDGE('',*,*,#716,.F.);
#819=ORIENTED_EDGE('',*,*,#781,.F.);
#820=ORIENTED_EDGE('',*,*,#821,.T.);
#821=EDGE_CURVE('',#774,#822,#824,.T.);
#822=VERTEX_POINT('',#823);
#823=CARTESIAN_POINT('',(-1.374345573,-0.17793964,-1.498570319));
#824=B_SPLINE_CURVE_WITH_KNOTS('',3,(#825,#826,#827,#828),.UNSPECIFIED.,.F.,.U.,(4,4),(0.0,1.0),.PIECEWISE_BEZIER_KNOTS.);
#825=CARTESIAN_POINT('',(-1.3716,-0.1778,-1.4986));
#826=CARTESIAN_POINT('',(-1.372517659,-0.1778,-1.4986));
#827=CARTESIAN_POINT('',(-1.373432838,-0.177846785,-1.498590055));
#828=CARTESIAN_POINT('',(-1.374345573,-0.17793964,-1.498570319));
#829=ORIENTED_EDGE('',*,*,#830,.T.);
#830=EDGE_CURVE('',#822,#831,#833,.F.);
#831=VERTEX_POINT('',#832);
#832=CARTESIAN_POINT('',(-1.498570319,-0.17793964,-1.374345573));
#833=B_SPLINE_CURVE_WITH_KNOTS('',3,(#834,#835,#836,#837,#838,#839,#840,#841,#842),.UNSPECIFIED.,.F.,.U.,(4,1,1,1,1,1,4),(0.0,0.166666667,0.333333333,0.5,0.666666667,0.833333333,1.0),.UNSPECIFIED.);
#834=CARTESIAN_POINT('',(-1.498570319,-0.17793964,-1.374345573));
#835=CARTESIAN_POINT('',(-1.498336018,-0.179041936,-1.385180903));
#836=CARTESIAN_POINT('',(-1.495073469,-0.180944442,-1.406740266));
#837=CARTESIAN_POINT('',(-1.482297517,-0.182720996,-1.436601738));
#838=CARTESIAN_POINT('',(-1.462379028,-0.183330195,-1.462379028));
#839=CARTESIAN_POINT('',(-1.436601738,-0.182720996,-1.482297517));
#840=CARTESIAN_POINT('',(-1.406740266,-0.180944442,-1.495073469));
#841=CARTESIAN_POINT('',(-1.385180903,-0.179041936,-1.498336018));
#842=CARTESIAN_POINT('',(-1.374345573,-0.17793964,-1.498570319));
#843=ORIENTED_EDGE('',*,*,#844,.T.);
#844=EDGE_CURVE('',#831,#845,#847,.F.);
#845=VERTEX_POINT('',#846);
#846=CARTESIAN_POINT('',(-1.4986,-0.1778,-1.3716));
#847=B_SPLINE_CURVE_WITH_KNOTS('',3,(#848,#849,#850,#851),.UNSPECIFIED.,.F.,.U.,(4,4),(0.0,1.0),.PIECEWISE_BEZIER_KNOTS.);
#848=CARTESIAN_POINT('',(-1.4986,-0.1778,-1.3716));
#849=CARTESIAN_POINT('',(-1.4986,-0.1778,-1.372517659));
#850=CARTESIAN_POINT('',(-1.498590055,-0.177846785,-1.373432838));
#851=CARTESIAN_POINT('',(-1.498570319,-0.17793964,-1.374345573));
#852=ORIENTED_EDGE('',*,*,#853,.T.);
#853=EDGE_CURVE('',#845,#797,#854,.F.);
#854=LINE('',#855,#856);
#855=CARTESIAN_POINT('',(-1.4986,0.0,-1.3716));
#856=VECTOR('',#857,1.0);
#857=DIRECTION('',(0.0,-1.0,0.0));
#858=CYLINDRICAL_SURFACE('',#859,0.127);
#859=AXIS2_PLACEMENT_3D('',#860,#861,#862);
#860=CARTESIAN_POINT('',(-1.3716,0.0,-1.3716));
#861=DIRECTION('',(0.0,-1.0,0.0));
#862=DIRECTION('',(-1.0,0.0,0.0));
#863=ADVANCED_FACE('',(#864),#889,.T.);
#864=FACE_BOUND('',#865,.T.);
#865=EDGE_LOOP('',(#866,#867,#875,#883));
#866=ORIENTED_EDGE('',*,*,#853,.F.);
#867=ORIENTED_EDGE('',*,*,#868,.T.);
#868=EDGE_CURVE('',#845,#869,#871,.F.);
#869=VERTEX_POINT('',#870);
#870=CARTESIAN_POINT('',(-1.4986,-0.1778,1.3716));
#871=LINE('',#872,#873);
#872=CARTESIAN_POINT('',(-1.4986,-0.1778,1.3716));
#873=VECTOR('',#874,1.0);
#874=DIRECTION('',(0.0,0.0,-1.0));
#875=ORIENTED_EDGE('',*,*,#876,.T.);
#876=EDGE_CURVE('',#869,#877,#879,.F.);
#877=VERTEX_POINT('',#878);
#878=CARTESIAN_POINT('',(-1.4986,0.0,1.3716));
#879=LINE('',#880,#881);
#880=CARTESIAN_POINT('',(-1.4986,0.0,1.3716));
#881=VECTOR('',#882,1.0);
#882=DIRECTION('',(0.0,-1.0,0.0));
#883=ORIENTED_EDGE('',*,*,#884,.T.);
#884=EDGE_CURVE('',#877,#797,#885,.T.);
#885=LINE('',#886,#887);
#886=CARTESIAN_POINT('',(-1.4986,0.0,1.3716));
#887=VECTOR('',#888,1.0);
#888=DIRECTION('',(0.0,0.0,-1.0));
#889=PLANE('',#890);
#890=AXIS2_PLACEMENT_3D('',#891,#892,#893);
#891=CARTESIAN_POINT('',(-1.4986,0.0,-1.4986));
#892=DIRECTION('',(-1.0,0.0,0.0));
#893=DIRECTION('',(0.0,0.0,1.0));
#894=ADVANCED_FACE('',(#895),#914,.T.);
#895=FACE_BOUND('',#896,.T.);
#896=EDGE_LOOP('',(#897,#904,#905,#906,#912,#913));
#897=ORIENTED_EDGE('',*,*,#898,.T.);
#898=EDGE_CURVE('',#877,#357,#899,.F.);
#899=B_SPLINE_CURVE_WITH_KNOTS('',3,(#900,#901,#902,#903),.UNSPECIFIED.,.F.,.U.,(4,4),(0.0,1.0),.PIECEWISE_BEZIER_KNOTS.);
#900=CARTESIAN_POINT('',(-1.498570319,1.396396122E-04,1.374345573));
#901=CARTESIAN_POINT('',(-1.498590055,4.678543594E-05,1.373432838));
#902=CARTESIAN_POINT('',(-1.4986,0.0,1.372517659));
#903=CARTESIAN_POINT('',(-1.4986,0.0,1.3716));
#904=ORIENTED_EDGE('',*,*,#356,.F.);
#905=ORIENTED_EDGE('',*,*,#313,.F.);
#906=ORIENTED_EDGE('',*,*,#907,.T.);
#907=EDGE_CURVE('',#305,#799,#908,.F.);
#908=LINE('',#909,#910);
#909=CARTESIAN_POINT('',(-1.498570319,1.396396122E-04,-1.374345573));
#910=VECTOR('',#911,1.0);
#911=DIRECTION('',(0.203558595,0.957667895,0.203558595));
#912=ORIENTED_EDGE('',*,*,#796,.F.);
#913=ORIENTED_EDGE('',*,*,#884,.F.);
#914=PLANE('',#915);
#915=AXIS2_PLACEMENT_3D('',#916,#917,#918);
#916=CARTESIAN_POINT('',(-1.4986,0.0,-1.4986));
#917=DIRECTION('',(-0.978147601,0.207911691,0.0));
#918=DIRECTION('',(0.0,0.0,1.0));
#919=ADVANCED_FACE('',(#920),#932,.T.);
#920=FACE_BOUND('',#921,.T.);
#921=EDGE_LOOP('',(#922,#929,#930,#931));
#922=ORIENTED_EDGE('',*,*,#923,.T.);
#923=EDGE_CURVE('',#305,#728,#924,.T.);
#924=CIRCLE('',#925,0.127);
#925=AXIS2_PLACEMENT_3D('',#926,#927,#928);
#926=CARTESIAN_POINT('',(-1.308545471,0.2833,-1.308545471));
#927=DIRECTION('',(-0.203558595,-0.957667895,-0.203558595));
#928=DIRECTION('',(-0.978147601,0.207911691,-5.113964807E-15));
#929=ORIENTED_EDGE('',*,*,#727,.F.);
#930=ORIENTED_EDGE('',*,*,#807,.F.);
#931=ORIENTED_EDGE('',*,*,#907,.F.);
#932=CYLINDRICAL_SURFACE('',#933,0.127);
#933=AXIS2_PLACEMENT_3D('',#934,#935,#936);
#934=CARTESIAN_POINT('',(-1.374375255,-0.026404785,-1.374375255));
#935=DIRECTION('',(-0.203558595,-0.957667895,-0.203558595));
#936=DIRECTION('',(-0.978147601,0.207911691,-5.107025913E-15));
#937=ADVANCED_FACE('',(#938),#949,.T.);
#938=FACE_BOUND('',#939,.T.);
#939=EDGE_LOOP('',(#940,#947,#948));
#940=ORIENTED_EDGE('',*,*,#941,.T.);
#941=EDGE_CURVE('',#122,#728,#942,.F.);
#942=CIRCLE('',#943,0.127);
#943=AXIS2_PLACEMENT_3D('',#944,#945,#946);
#944=CARTESIAN_POINT('',(-1.308545471,0.2833,-1.308545471));
#945=DIRECTION('',(1.0,0.0,0.0));
#946=DIRECTION('',(0.0,0.207911691,-0.978147601));
#947=ORIENTED_EDGE('',*,*,#923,.F.);
#948=ORIENTED_EDGE('',*,*,#304,.F.);
#949=SPHERICAL_SURFACE('',#950,0.127);
#950=AXIS2_PLACEMENT_3D('',#951,#952,#953);
#951=CARTESIAN_POINT('',(-1.308545471,0.2833,-1.308545471));
#952=DIRECTION('',(0.0,0.629320391,0.777145961));
#953=DIRECTION('',(0.0,0.777145961,-0.629320391));
#954=ADVANCED_FACE('',(#955),#961,.T.);
#955=FACE_BOUND('',#956,.T.);
#956=EDGE_LOOP('',(#957,#958,#959,#960));
#957=ORIENTED_EDGE('',*,*,#661,.F.);
#958=ORIENTED_EDGE('',*,*,#735,.F.);
#959=ORIENTED_EDGE('',*,*,#941,.F.);
#960=ORIENTED_EDGE('',*,*,#121,.F.);
#961=CYLINDRICAL_SURFACE('',#962,0.127);
#962=AXIS2_PLACEMENT_3D('',#963,#964,#965);
#963=CARTESIAN_POINT('',(1.308545471,0.2833,-1.308545471));
#964=DIRECTION('',(-1.0,0.0,0.0));
#965=DIRECTION('',(0.0,1.0,0.0));
#966=ADVANCED_FACE('',(#967),#1004,.T.);
#967=FACE_BOUND('',#968,.T.);
#968=EDGE_LOOP('',(#969,#970,#971,#972,#973,#982,#996,#1003));
#969=ORIENTED_EDGE('',*,*,#411,.F.);
#970=ORIENTED_EDGE('',*,*,#364,.F.);
#971=ORIENTED_EDGE('',*,*,#898,.F.);
#972=ORIENTED_EDGE('',*,*,#876,.F.);
#973=ORIENTED_EDGE('',*,*,#974,.T.);
#974=EDGE_CURVE('',#869,#975,#977,.F.);
#975=VERTEX_POINT('',#976);
#976=CARTESIAN_POINT('',(-1.498570319,-0.17793964,1.374345573));
#977=B_SPLINE_CURVE_WITH_KNOTS('',3,(#978,#979,#980,#981),.UNSPECIFIED.,.F.,.U.,(4,4),(0.0,1.0),.PIECEWISE_BEZIER_KNOTS.);
#978=CARTESIAN_POINT('',(-1.498570319,-0.17793964,1.374345573));
#979=CARTESIAN_POINT('',(-1.498590055,-0.177846785,1.373432838));
#980=CARTESIAN_POINT('',(-1.4986,-0.1778,1.372517659));
#981=CARTESIAN_POINT('',(-1.4986,-0.1778,1.3716));
#982=ORIENTED_EDGE('',*,*,#983,.T.);
#983=EDGE_CURVE('',#975,#984,#986,.F.);
#984=VERTEX_POINT('',#985);
#985=CARTESIAN_POINT('',(-1.374345573,-0.17793964,1.498570319));
#986=B_SPLINE_CURVE_WITH_KNOTS('',3,(#987,#988,#989,#990,#991,#992,#993,#994,#995),.UNSPECIFIED.,.F.,.U.,(4,1,1,1,1,1,4),(0.0,0.166666667,0.333333333,0.5,0.666666667,0.833333333,1.0),.UNSPECIFIED.);
#987=CARTESIAN_POINT('',(-1.374345573,-0.17793964,1.498570319));
#988=CARTESIAN_POINT('',(-1.385180903,-0.179041936,1.498336018));
#989=CARTESIAN_POINT('',(-1.406740266,-0.180944442,1.495073469));
#990=CARTESIAN_POINT('',(-1.436601738,-0.182720996,1.482297517));
#991=CARTESIAN_POINT('',(-1.462379028,-0.183330195,1.462379028));
#992=CARTESIAN_POINT('',(-1.482297517,-0.182720996,1.436601738));
#993=CARTESIAN_POINT('',(-1.495073469,-0.180944442,1.406740266));
#994=CARTESIAN_POINT('',(-1.498336018,-0.179041936,1.385180903));
#995=CARTESIAN_POINT('',(-1.498570319,-0.17793964,1.374345573));
#996=ORIENTED_EDGE('',*,*,#997,.T.);
#997=EDGE_CURVE('',#984,#435,#998,.F.);
#998=B_SPLINE_CURVE_WITH_KNOTS('',3,(#999,#1000,#1001,#1002),.UNSPECIFIED.,.F.,.U.,(4,4),(0.0,1.0),.PIECEWISE_BEZIER_KNOTS.);
#999=CARTESIAN_POINT('',(-1.3716,-0.1778,1.4986));
#1000=CARTESIAN_POINT('',(-1.372517659,-0.1778,1.4986));
#1001=CARTESIAN_POINT('',(-1.373432838,-0.177846785,1.498590055));
#1002=CARTESIAN_POINT('',(-1.374345573,-0.17793964,1.498570319));
#1003=ORIENTED_EDGE('',*,*,#434,.F.);
#1004=CYLINDRICAL_SURFACE('',#1005,0.127);
#1005=AXIS2_PLACEMENT_3D('',#1006,#1007,#1008);
#1006=CARTESIAN_POINT('',(-1.3716,0.0,1.3716));
#1007=DIRECTION('',(0.0,-1.0,0.0));
#1008=DIRECTION('',(0.0,0.0,1.0));
#1009=ADVANCED_FACE('',(#1010),#1037,.T.);
#1010=FACE_BOUND('',#1011,.T.);
#1011=EDGE_LOOP('',(#1012,#1013,#1021,#1029,#1035,#1036));
#1012=ORIENTED_EDGE('',*,*,#997,.F.);
#1013=ORIENTED_EDGE('',*,*,#1014,.T.);
#1014=EDGE_CURVE('',#984,#1015,#1017,.T.);
#1015=VERTEX_POINT('',#1016);
#1016=CARTESIAN_POINT('',(-1.308545471,-0.487504785,1.432770216));
#1017=LINE('',#1018,#1019);
#1018=CARTESIAN_POINT('',(-1.374345573,-0.17793964,1.498570319));
#1019=VECTOR('',#1020,1.0);
#1020=DIRECTION('',(0.203558595,-0.957667895,-0.203558595));
#1021=ORIENTED_EDGE('',*,*,#1022,.T.);
#1022=EDGE_CURVE('',#1015,#1023,#1025,.F.);
#1023=VERTEX_POINT('',#1024);
#1024=CARTESIAN_POINT('',(1.308545471,-0.487504785,1.432770216));
#1025=LINE('',#1026,#1027);
#1026=CARTESIAN_POINT('',(1.308545471,-0.487504785,1.432770216));
#1027=VECTOR('',#1028,1.0);
#1028=DIRECTION('',(-1.0,0.0,0.0));
#1029=ORIENTED_EDGE('',*,*,#1030,.T.);
#1030=EDGE_CURVE('',#1023,#491,#1031,.F.);
#1031=LINE('',#1032,#1033);
#1032=CARTESIAN_POINT('',(1.374345573,-0.17793964,1.498570319));
#1033=VECTOR('',#1034,1.0);
#1034=DIRECTION('',(-0.203558595,-0.957667895,-0.203558595));
#1035=ORIENTED_EDGE('',*,*,#490,.F.);
#1036=ORIENTED_EDGE('',*,*,#442,.F.);
#1037=PLANE('',#1038);
#1038=AXIS2_PLACEMENT_3D('',#1039,#1040,#1041);
#1039=CARTESIAN_POINT('',(1.4986,-0.1778,1.4986));
#1040=DIRECTION('',(0.0,-0.207911691,0.978147601));
#1041=DIRECTION('',(-1.0,0.0,0.0));
#1042=ADVANCED_FACE('',(#1043),#1062,.T.);
#1043=FACE_BOUND('',#1044,.T.);
#1044=EDGE_LOOP('',(#1045,#1054,#1060,#1061));
#1045=ORIENTED_EDGE('',*,*,#1046,.T.);
#1046=EDGE_CURVE('',#1023,#1047,#1049,.T.);
#1047=VERTEX_POINT('',#1048);
#1048=CARTESIAN_POINT('',(1.432770216,-0.487504785,1.308545471));
#1049=CIRCLE('',#1050,0.127);
#1050=AXIS2_PLACEMENT_3D('',#1051,#1052,#1053);
#1051=CARTESIAN_POINT('',(1.308545471,-0.4611,1.308545471));
#1052=DIRECTION('',(0.203558595,0.957667895,0.203558595));
#1053=DIRECTION('',(5.113964807E-15,-0.207911691,0.978147601));
#1054=ORIENTED_EDGE('',*,*,#1055,.T.);
#1055=EDGE_CURVE('',#1047,#500,#1056,.F.);
#1056=LINE('',#1057,#1058);
#1057=CARTESIAN_POINT('',(1.498570319,-0.17793964,1.374345573));
#1058=VECTOR('',#1059,1.0);
#1059=DIRECTION('',(-0.203558595,-0.957667895,-0.203558595));
#1060=ORIENTED_EDGE('',*,*,#499,.F.);
#1061=ORIENTED_EDGE('',*,*,#1030,.F.);
#1062=CYLINDRICAL_SURFACE('',#1063,0.127);
#1063=AXIS2_PLACEMENT_3D('',#1064,#1065,#1066);
#1064=CARTESIAN_POINT('',(1.374375255,-0.151395215,1.374375255));
#1065=DIRECTION('',(0.203558595,0.957667895,0.203558595));
#1066=DIRECTION('',(5.107025913E-15,-0.207911691,0.978147601));
#1067=ADVANCED_FACE('',(#1068),#1096,.T.);
#1068=FACE_BOUND('',#1069,.T.);
#1069=EDGE_LOOP('',(#1070,#1071,#1072,#1080,#1088,#1095));
#1070=ORIENTED_EDGE('',*,*,#513,.F.);
#1071=ORIENTED_EDGE('',*,*,#1055,.F.);
#1072=ORIENTED_EDGE('',*,*,#1073,.T.);
#1073=EDGE_CURVE('',#1047,#1074,#1076,.F.);
#1074=VERTEX_POINT('',#1075);
#1075=CARTESIAN_POINT('',(1.432770216,-0.487504785,-1.308545471));
#1076=LINE('',#1077,#1078);
#1077=CARTESIAN_POINT('',(1.432770216,-0.487504785,-1.308545471));
#1078=VECTOR('',#1079,1.0);
#1079=DIRECTION('',(0.0,0.0,1.0));
#1080=ORIENTED_EDGE('',*,*,#1081,.T.);
#1081=EDGE_CURVE('',#1074,#1082,#1084,.F.);
#1082=VERTEX_POINT('',#1083);
#1083=CARTESIAN_POINT('',(1.498570319,-0.17793964,-1.374345573));
#1084=LINE('',#1085,#1086);
#1085=CARTESIAN_POINT('',(1.498570319,-0.17793964,-1.374345573));
#1086=VECTOR('',#1087,1.0);
#1087=DIRECTION('',(-0.203558595,-0.957667895,0.203558595));
#1088=ORIENTED_EDGE('',*,*,#1089,.T.);
#1089=EDGE_CURVE('',#1082,#538,#1090,.T.);
#1090=B_SPLINE_CURVE_WITH_KNOTS('',3,(#1091,#1092,#1093,#1094),.UNSPECIFIED.,.F.,.U.,(4,4),(0.0,1.0),.PIECEWISE_BEZIER_KNOTS.);
#1091=CARTESIAN_POINT('',(1.498570319,-0.17793964,-1.374345573));
#1092=CARTESIAN_POINT('',(1.498590055,-0.177846785,-1.373432838));
#1093=CARTESIAN_POINT('',(1.4986,-0.1778,-1.372517659));
#1094=CARTESIAN_POINT('',(1.4986,-0.1778,-1.3716));
#1095=ORIENTED_EDGE('',*,*,#537,.F.);
#1096=PLANE('',#1097);
#1097=AXIS2_PLACEMENT_3D('',#1098,#1099,#1100);
#1098=CARTESIAN_POINT('',(1.4986,-0.1778,-1.4986));
#1099=DIRECTION('',(0.978147601,-0.207911691,0.0));
#1100=DIRECTION('',(0.0,0.0,1.0));
#1101=ADVANCED_FACE('',(#1102),#1131,.T.);
#1102=FACE_BOUND('',#1103,.T.);
#1103=EDGE_LOOP('',(#1104,#1105,#1106,#1107,#1108,#1109,#1123,#1130));
#1104=ORIENTED_EDGE('',*,*,#742,.F.);
#1105=ORIENTED_EDGE('',*,*,#688,.F.);
#1106=ORIENTED_EDGE('',*,*,#567,.F.);
#1107=ORIENTED_EDGE('',*,*,#545,.F.);
#1108=ORIENTED_EDGE('',*,*,#1089,.F.);
#1109=ORIENTED_EDGE('',*,*,#1110,.T.);
#1110=EDGE_CURVE('',#1082,#1111,#1113,.F.);
#1111=VERTEX_POINT('',#1112);
#1112=CARTESIAN_POINT('',(1.374345573,-0.17793964,-1.498570319));
#1113=B_SPLINE_CURVE_WITH_KNOTS('',3,(#1114,#1115,#1116,#1117,#1118,#1119,#1120,#1121,#1122),.UNSPECIFIED.,.F.,.U.,(4,1,1,1,1,1,4),(0.0,0.166666667,0.333333333,0.5,0.666666667,0.833333333,1.0),.UNSPECIFIED.);
#1114=CARTESIAN_POINT('',(1.374345573,-0.17793964,-1.498570319));
#1115=CARTESIAN_POINT('',(1.385180903,-0.179041936,-1.498336018));
#1116=CARTESIAN_POINT('',(1.406740266,-0.180944442,-1.495073469));
#1117=CARTESIAN_POINT('',(1.436601738,-0.182720996,-1.482297517));
#1118=CARTESIAN_POINT('',(1.462379028,-0.183330195,-1.462379028));
#1119=CARTESIAN_POINT('',(1.482297517,-0.182720996,-1.436601738));
#1120=CARTESIAN_POINT('',(1.495073469,-0.180944442,-1.406740266));
#1121=CARTESIAN_POINT('',(1.498336018,-0.179041936,-1.385180903));
#1122=CARTESIAN_POINT('',(1.498570319,-0.17793964,-1.374345573));
#1123=ORIENTED_EDGE('',*,*,#1124,.T.);
#1124=EDGE_CURVE('',#1111,#766,#1125,.F.);
#1125=B_SPLINE_CURVE_WITH_KNOTS('',3,(#1126,#1127,#1128,#1129),.UNSPECIFIED.,.F.,.U.,(4,4),(0.0,1.0),.PIECEWISE_BEZIER_KNOTS.);
#1126=CARTESIAN_POINT('',(1.3716,-0.1778,-1.4986));
#1127=CARTESIAN_POINT('',(1.372517659,-0.1778,-1.4986));
#1128=CARTESIAN_POINT('',(1.373432838,-0.177846785,-1.498590055));
#1129=CARTESIAN_POINT('',(1.374345573,-0.17793964,-1.498570319));
#1130=ORIENTED_EDGE('',*,*,#765,.F.);
#1131=CYLINDRICAL_SURFACE('',#1132,0.127);
#1132=AXIS2_PLACEMENT_3D('',#1133,#1134,#1135);
#1133=CARTESIAN_POINT('',(1.3716,0.0,-1.3716));
#1134=DIRECTION('',(0.0,-1.0,0.0));
#1135=DIRECTION('',(0.0,0.0,-1.0));
#1136=ADVANCED_FACE('',(#1137),#1164,.T.);
#1137=FACE_BOUND('',#1138,.T.);
#1138=EDGE_LOOP('',(#1139,#1140,#1148,#1156,#1162,#1163));
#1139=ORIENTED_EDGE('',*,*,#1124,.F.);
#1140=ORIENTED_EDGE('',*,*,#1141,.T.);
#1141=EDGE_CURVE('',#1111,#1142,#1144,.T.);
#1142=VERTEX_POINT('',#1143);
#1143=CARTESIAN_POINT('',(1.308545471,-0.487504785,-1.432770216));
#1144=LINE('',#1145,#1146);
#1145=CARTESIAN_POINT('',(1.374345573,-0.17793964,-1.498570319));
#1146=VECTOR('',#1147,1.0);
#1147=DIRECTION('',(-0.203558595,-0.957667895,0.203558595));
#1148=ORIENTED_EDGE('',*,*,#1149,.T.);
#1149=EDGE_CURVE('',#1142,#1150,#1152,.F.);
#1150=VERTEX_POINT('',#1151);
#1151=CARTESIAN_POINT('',(-1.308545471,-0.487504785,-1.432770216));
#1152=LINE('',#1153,#1154);
#1153=CARTESIAN_POINT('',(-1.308545471,-0.487504785,-1.432770216));
#1154=VECTOR('',#1155,1.0);
#1155=DIRECTION('',(1.0,0.0,0.0));
#1156=ORIENTED_EDGE('',*,*,#1157,.T.);
#1157=EDGE_CURVE('',#1150,#822,#1158,.F.);
#1158=LINE('',#1159,#1160);
#1159=CARTESIAN_POINT('',(-1.374345573,-0.17793964,-1.498570319));
#1160=VECTOR('',#1161,1.0);
#1161=DIRECTION('',(0.203558595,-0.957667895,0.203558595));
#1162=ORIENTED_EDGE('',*,*,#821,.F.);
#1163=ORIENTED_EDGE('',*,*,#773,.F.);
#1164=PLANE('',#1165);
#1165=AXIS2_PLACEMENT_3D('',#1166,#1167,#1168);
#1166=CARTESIAN_POINT('',(-1.4986,-0.1778,-1.4986));
#1167=DIRECTION('',(0.0,-0.207911691,-0.978147601));
#1168=DIRECTION('',(1.0,0.0,0.0));
#1169=ADVANCED_FACE('',(#1170),#1189,.T.);
#1170=FACE_BOUND('',#1171,.T.);
#1171=EDGE_LOOP('',(#1172,#1181,#1187,#1188));
#1172=ORIENTED_EDGE('',*,*,#1173,.T.);
#1173=EDGE_CURVE('',#1150,#1174,#1176,.T.);
#1174=VERTEX_POINT('',#1175);
#1175=CARTESIAN_POINT('',(-1.432770216,-0.487504785,-1.308545471));
#1176=CIRCLE('',#1177,0.127);
#1177=AXIS2_PLACEMENT_3D('',#1178,#1179,#1180);
#1178=CARTESIAN_POINT('',(-1.308545471,-0.4611,-1.308545471));
#1179=DIRECTION('',(-0.203558595,0.957667895,-0.203558595));
#1180=DIRECTION('',(-5.113964807E-15,-0.207911691,-0.978147601));
#1181=ORIENTED_EDGE('',*,*,#1182,.T.);
#1182=EDGE_CURVE('',#1174,#831,#1183,.F.);
#1183=LINE('',#1184,#1185);
#1184=CARTESIAN_POINT('',(-1.498570319,-0.17793964,-1.374345573));
#1185=VECTOR('',#1186,1.0);
#1186=DIRECTION('',(0.203558595,-0.957667895,0.203558595));
#1187=ORIENTED_EDGE('',*,*,#830,.F.);
#1188=ORIENTED_EDGE('',*,*,#1157,.F.);
#1189=CYLINDRICAL_SURFACE('',#1190,0.127);
#1190=AXIS2_PLACEMENT_3D('',#1191,#1192,#1193);
#1191=CARTESIAN_POINT('',(-1.374375255,-0.151395215,-1.374375255));
#1192=DIRECTION('',(-0.203558595,0.957667895,-0.203558595));
#1193=DIRECTION('',(-5.107025913E-15,-0.207911691,-0.978147601));
#1194=ADVANCED_FACE('',(#1195),#1215,.T.);
#1195=FACE_BOUND('',#1196,.T.);
#1196=EDGE_LOOP('',(#1197,#1198,#1199,#1207,#1213,#1214));
#1197=ORIENTED_EDGE('',*,*,#844,.F.);
#1198=ORIENTED_EDGE('',*,*,#1182,.F.);
#1199=ORIENTED_EDGE('',*,*,#1200,.T.);
#1200=EDGE_CURVE('',#1174,#1201,#1203,.F.);
#1201=VERTEX_POINT('',#1202);
#1202=CARTESIAN_POINT('',(-1.432770216,-0.487504785,1.308545471));
#1203=LINE('',#1204,#1205);
#1204=CARTESIAN_POINT('',(-1.432770216,-0.487504785,1.308545471));
#1205=VECTOR('',#1206,1.0);
#1206=DIRECTION('',(0.0,0.0,-1.0));
#1207=ORIENTED_EDGE('',*,*,#1208,.T.);
#1208=EDGE_CURVE('',#1201,#975,#1209,.F.);
#1209=LINE('',#1210,#1211);
#1210=CARTESIAN_POINT('',(-1.498570319,-0.17793964,1.374345573));
#1211=VECTOR('',#1212,1.0);
#1212=DIRECTION('',(0.203558595,-0.957667895,-0.203558595));
#1213=ORIENTED_EDGE('',*,*,#974,.F.);
#1214=ORIENTED_EDGE('',*,*,#868,.F.);
#1215=PLANE('',#1216);
#1216=AXIS2_PLACEMENT_3D('',#1217,#1218,#1219);
#1217=CARTESIAN_POINT('',(-1.4986,-0.1778,1.4986));
#1218=DIRECTION('',(-0.978147601,-0.207911691,0.0));
#1219=DIRECTION('',(0.0,0.0,-1.0));
#1220=ADVANCED_FACE('',(#1221),#1233,.T.);
#1221=FACE_BOUND('',#1222,.T.);
#1222=EDGE_LOOP('',(#1223,#1230,#1231,#1232));
#1223=ORIENTED_EDGE('',*,*,#1224,.T.);
#1224=EDGE_CURVE('',#1201,#1015,#1225,.T.);
#1225=CIRCLE('',#1226,0.127);
#1226=AXIS2_PLACEMENT_3D('',#1227,#1228,#1229);
#1227=CARTESIAN_POINT('',(-1.308545471,-0.4611,1.308545471));
#1228=DIRECTION('',(-0.203558595,0.957667895,0.203558595));
#1229=DIRECTION('',(-0.978147601,-0.207911691,5.113964807E-15));
#1230=ORIENTED_EDGE('',*,*,#1014,.F.);
#1231=ORIENTED_EDGE('',*,*,#983,.F.);
#1232=ORIENTED_EDGE('',*,*,#1208,.F.);
#1233=CYLINDRICAL_SURFACE('',#1234,0.127);
#1234=AXIS2_PLACEMENT_3D('',#1235,#1236,#1237);
#1235=CARTESIAN_POINT('',(-1.374375255,-0.151395215,1.374375255));
#1236=DIRECTION('',(-0.203558595,0.957667895,0.203558595));
#1237=DIRECTION('',(-0.978147601,-0.207911691,5.107025913E-15));
#1238=ADVANCED_FACE('',(#1239),#1258,.T.);
#1239=FACE_BOUND('',#1240,.T.);
#1240=EDGE_LOOP('',(#1241,#1250,#1251));
#1241=ORIENTED_EDGE('',*,*,#1242,.T.);
#1242=EDGE_CURVE('',#1243,#1015,#1245,.F.);
#1243=VERTEX_POINT('',#1244);
#1244=CARTESIAN_POINT('',(-1.308545471,-0.5881,1.308545471));
#1245=CIRCLE('',#1246,0.127);
#1246=AXIS2_PLACEMENT_3D('',#1247,#1248,#1249);
#1247=CARTESIAN_POINT('',(-1.308545471,-0.4611,1.308545471));
#1248=DIRECTION('',(1.0,0.0,0.0));
#1249=DIRECTION('',(0.0,-0.207911691,0.978147601));
#1250=ORIENTED_EDGE('',*,*,#1224,.F.);
#1251=ORIENTED_EDGE('',*,*,#1252,.T.);
#1252=EDGE_CURVE('',#1201,#1243,#1253,.F.);
#1253=CIRCLE('',#1254,0.127);
#1254=AXIS2_PLACEMENT_3D('',#1255,#1256,#1257);
#1255=CARTESIAN_POINT('',(-1.308545471,-0.4611,1.308545471));
#1256=DIRECTION('',(0.0,0.0,-1.0));
#1257=DIRECTION('',(0.0,-1.0,0.0));
#1258=SPHERICAL_SURFACE('',#1259,0.127);
#1259=AXIS2_PLACEMENT_3D('',#1260,#1261,#1262);
#1260=CARTESIAN_POINT('',(-1.308545471,-0.4611,1.308545471));
#1261=DIRECTION('',(0.0,-0.629320391,-0.777145961));
#1262=DIRECTION('',(0.0,-0.777145961,0.629320391));
#1263=ADVANCED_FACE('',(#1264),#1283,.T.);
#1264=FACE_BOUND('',#1265,.T.);
#1265=EDGE_LOOP('',(#1266,#1267,#1268,#1277));
#1266=ORIENTED_EDGE('',*,*,#1252,.F.);
#1267=ORIENTED_EDGE('',*,*,#1200,.F.);
#1268=ORIENTED_EDGE('',*,*,#1269,.T.);
#1269=EDGE_CURVE('',#1174,#1270,#1272,.T.);
#1270=VERTEX_POINT('',#1271);
#1271=CARTESIAN_POINT('',(-1.308545471,-0.5881,-1.308545471));
#1272=CIRCLE('',#1273,0.127);
#1273=AXIS2_PLACEMENT_3D('',#1274,#1275,#1276);
#1274=CARTESIAN_POINT('',(-1.308545471,-0.4611,-1.308545471));
#1275=DIRECTION('',(0.0,0.0,1.0));
#1276=DIRECTION('',(-0.978147601,-0.207911691,0.0));
#1277=ORIENTED_EDGE('',*,*,#1278,.T.);
#1278=EDGE_CURVE('',#1270,#1243,#1279,.F.);
#1279=LINE('',#1280,#1281);
#1280=CARTESIAN_POINT('',(-1.308545471,-0.5881,1.308545471));
#1281=VECTOR('',#1282,1.0);
#1282=DIRECTION('',(0.0,0.0,-1.0));
#1283=CYLINDRICAL_SURFACE('',#1284,0.127);
#1284=AXIS2_PLACEMENT_3D('',#1285,#1286,#1287);
#1285=CARTESIAN_POINT('',(-1.308545471,-0.4611,1.411388043));
#1286=DIRECTION('',(0.0,0.0,-1.0));
#1287=DIRECTION('',(0.0,-1.0,0.0));
#1288=ADVANCED_FACE('',(#1289),#1314,.T.);
#1289=FACE_BOUND('',#1290,.T.);
#1290=EDGE_LOOP('',(#1291,#1299,#1300,#1308));
#1291=ORIENTED_EDGE('',*,*,#1292,.T.);
#1292=EDGE_CURVE('',#1293,#1243,#1295,.T.);
#1293=VERTEX_POINT('',#1294);
#1294=CARTESIAN_POINT('',(1.308545471,-0.5881,1.308545471));
#1295=LINE('',#1296,#1297);
#1296=CARTESIAN_POINT('',(1.308545471,-0.5881,1.308545471));
#1297=VECTOR('',#1298,1.0);
#1298=DIRECTION('',(-1.0,0.0,0.0));
#1299=ORIENTED_EDGE('',*,*,#1278,.F.);
#1300=ORIENTED_EDGE('',*,*,#1301,.T.);
#1301=EDGE_CURVE('',#1270,#1302,#1304,.T.);
#1302=VERTEX_POINT('',#1303);
#1303=CARTESIAN_POINT('',(1.308545471,-0.5881,-1.308545471));
#1304=LINE('',#1305,#1306);
#1305=CARTESIAN_POINT('',(-1.308545471,-0.5881,-1.308545471));
#1306=VECTOR('',#1307,1.0);
#1307=DIRECTION('',(1.0,0.0,0.0));
#1308=ORIENTED_EDGE('',*,*,#1309,.T.);
#1309=EDGE_CURVE('',#1302,#1293,#1310,.T.);
#1310=LINE('',#1311,#1312);
#1311=CARTESIAN_POINT('',(1.308545471,-0.5881,-1.308545471));
#1312=VECTOR('',#1313,1.0);
#1313=DIRECTION('',(0.0,0.0,1.0));
#1314=PLANE('',#1315);
#1315=AXIS2_PLACEMENT_3D('',#1316,#1317,#1318);
#1316=CARTESIAN_POINT('',(0.0,-0.5881,0.0));
#1317=DIRECTION('',(0.0,-1.0,0.0));
#1318=DIRECTION('',(-1.0,0.0,0.0));
#1319=ADVANCED_FACE('',(#1320),#1338,.T.);
#1320=FACE_BOUND('',#1321,.T.);
#1321=EDGE_LOOP('',(#1322,#1329,#1330,#1337));
#1322=ORIENTED_EDGE('',*,*,#1323,.T.);
#1323=EDGE_CURVE('',#1302,#1074,#1324,.T.);
#1324=CIRCLE('',#1325,0.127);
#1325=AXIS2_PLACEMENT_3D('',#1326,#1327,#1328);
#1326=CARTESIAN_POINT('',(1.308545471,-0.4611,-1.308545471));
#1327=DIRECTION('',(0.0,0.0,1.0));
#1328=DIRECTION('',(0.0,-1.0,0.0));
#1329=ORIENTED_EDGE('',*,*,#1073,.F.);
#1330=ORIENTED_EDGE('',*,*,#1331,.T.);
#1331=EDGE_CURVE('',#1047,#1293,#1332,.T.);
#1332=CIRCLE('',#1333,0.127);
#1333=AXIS2_PLACEMENT_3D('',#1334,#1335,#1336);
#1334=CARTESIAN_POINT('',(1.308545471,-0.4611,1.308545471));
#1335=DIRECTION('',(0.0,0.0,-1.0));
#1336=DIRECTION('',(0.978147601,-0.207911691,0.0));
#1337=ORIENTED_EDGE('',*,*,#1309,.F.);
#1338=CYLINDRICAL_SURFACE('',#1339,0.127);
#1339=AXIS2_PLACEMENT_3D('',#1340,#1341,#1342);
#1340=CARTESIAN_POINT('',(1.308545471,-0.4611,-1.411388043));
#1341=DIRECTION('',(0.0,0.0,1.0));
#1342=DIRECTION('',(0.0,-1.0,0.0));
#1343=ADVANCED_FACE('',(#1344),#1355,.T.);
#1344=FACE_BOUND('',#1345,.T.);
#1345=EDGE_LOOP('',(#1346,#1353,#1354));
#1346=ORIENTED_EDGE('',*,*,#1347,.T.);
#1347=EDGE_CURVE('',#1023,#1293,#1348,.F.);
#1348=CIRCLE('',#1349,0.127);
#1349=AXIS2_PLACEMENT_3D('',#1350,#1351,#1352);
#1350=CARTESIAN_POINT('',(1.308545471,-0.4611,1.308545471));
#1351=DIRECTION('',(-1.0,0.0,0.0));
#1352=DIRECTION('',(0.0,-1.0,0.0));
#1353=ORIENTED_EDGE('',*,*,#1331,.F.);
#1354=ORIENTED_EDGE('',*,*,#1046,.F.);
#1355=SPHERICAL_SURFACE('',#1356,0.127);
#1356=AXIS2_PLACEMENT_3D('',#1357,#1358,#1359);
#1357=CARTESIAN_POINT('',(1.308545471,-0.4611,1.308545471));
#1358=DIRECTION('',(0.0,0.629320391,0.777145961));
#1359=DIRECTION('',(0.0,-0.777145961,0.629320391));
#1360=ADVANCED_FACE('',(#1361),#1367,.T.);
#1361=FACE_BOUND('',#1362,.T.);
#1362=EDGE_LOOP('',(#1363,#1364,#1365,#1366));
#1363=ORIENTED_EDGE('',*,*,#1347,.F.);
#1364=ORIENTED_EDGE('',*,*,#1022,.F.);
#1365=ORIENTED_EDGE('',*,*,#1242,.F.);
#1366=ORIENTED_EDGE('',*,*,#1292,.F.);
#1367=CYLINDRICAL_SURFACE('',#1368,0.127);
#1368=AXIS2_PLACEMENT_3D('',#1369,#1370,#1371);
#1369=CARTESIAN_POINT('',(1.308545471,-0.4611,1.308545471));
#1370=DIRECTION('',(-1.0,0.0,0.0));
#1371=DIRECTION('',(0.0,-1.0,0.0));
#1372=ADVANCED_FACE('',(#1373),#1390,.T.);
#1373=FACE_BOUND('',#1374,.T.);
#1374=EDGE_LOOP('',(#1375,#1382,#1389));
#1375=ORIENTED_EDGE('',*,*,#1376,.T.);
#1376=EDGE_CURVE('',#1302,#1142,#1377,.F.);
#1377=CIRCLE('',#1378,0.127);
#1378=AXIS2_PLACEMENT_3D('',#1379,#1380,#1381);
#1379=CARTESIAN_POINT('',(1.308545471,-0.4611,-1.308545471));
#1380=DIRECTION('',(-1.0,0.0,0.0));
#1381=DIRECTION('',(0.0,-0.207911691,-0.978147601));
#1382=ORIENTED_EDGE('',*,*,#1383,.T.);
#1383=EDGE_CURVE('',#1142,#1074,#1384,.F.);
#1384=CIRCLE('',#1385,0.127);
#1385=AXIS2_PLACEMENT_3D('',#1386,#1387,#1388);
#1386=CARTESIAN_POINT('',(1.308545471,-0.4611,-1.308545471));
#1387=DIRECTION('',(0.203558595,0.957667895,-0.203558595));
#1388=DIRECTION('',(0.978147601,-0.207911691,-5.113964807E-15));
#1389=ORIENTED_EDGE('',*,*,#1323,.F.);
#1390=SPHERICAL_SURFACE('',#1391,0.127);
#1391=AXIS2_PLACEMENT_3D('',#1392,#1393,#1394);
#1392=CARTESIAN_POINT('',(1.308545471,-0.4611,-1.308545471));
#1393=DIRECTION('',(0.0,-0.629320391,0.777145961));
#1394=DIRECTION('',(0.0,-0.777145961,-0.629320391));
#1395=ADVANCED_FACE('',(#1396),#1402,.T.);
#1396=FACE_BOUND('',#1397,.T.);
#1397=EDGE_LOOP('',(#1398,#1399,#1400,#1401));
#1398=ORIENTED_EDGE('',*,*,#1383,.F.);
#1399=ORIENTED_EDGE('',*,*,#1141,.F.);
#1400=ORIENTED_EDGE('',*,*,#1110,.F.);
#1401=ORIENTED_EDGE('',*,*,#1081,.F.);
#1402=CYLINDRICAL_SURFACE('',#1403,0.127);
#1403=AXIS2_PLACEMENT_3D('',#1404,#1405,#1406);
#1404=CARTESIAN_POINT('',(1.374375255,-0.151395215,-1.374375255));
#1405=DIRECTION('',(0.203558595,0.957667895,-0.203558595));
#1406=DIRECTION('',(0.978147601,-0.207911691,-5.107025913E-15));
#1407=ADVANCED_FACE('',(#1408),#1420,.T.);
#1408=FACE_BOUND('',#1409,.T.);
#1409=EDGE_LOOP('',(#1410,#1417,#1418,#1419));
#1410=ORIENTED_EDGE('',*,*,#1411,.T.);
#1411=EDGE_CURVE('',#1270,#1150,#1412,.T.);
#1412=CIRCLE('',#1413,0.127);
#1413=AXIS2_PLACEMENT_3D('',#1414,#1415,#1416);
#1414=CARTESIAN_POINT('',(-1.308545471,-0.4611,-1.308545471));
#1415=DIRECTION('',(1.0,0.0,0.0));
#1416=DIRECTION('',(0.0,-1.0,0.0));
#1417=ORIENTED_EDGE('',*,*,#1149,.F.);
#1418=ORIENTED_EDGE('',*,*,#1376,.F.);
#1419=ORIENTED_EDGE('',*,*,#1301,.F.);
#1420=CYLINDRICAL_SURFACE('',#1421,0.127);
#1421=AXIS2_PLACEMENT_3D('',#1422,#1423,#1424);
#1422=CARTESIAN_POINT('',(-1.308545471,-0.4611,-1.308545471));
#1423=DIRECTION('',(1.0,0.0,0.0));
#1424=DIRECTION('',(0.0,-1.0,0.0));
#1425=ADVANCED_FACE('',(#1426),#1431,.T.);
#1426=FACE_BOUND('',#1427,.T.);
#1427=EDGE_LOOP('',(#1428,#1429,#1430));
#1428=ORIENTED_EDGE('',*,*,#1411,.F.);
#1429=ORIENTED_EDGE('',*,*,#1269,.F.);
#1430=ORIENTED_EDGE('',*,*,#1173,.F.);
#1431=SPHERICAL_SURFACE('',#1432,0.127);
#1432=AXIS2_PLACEMENT_3D('',#1433,#1434,#1435);
#1433=CARTESIAN_POINT('',(-1.308545471,-0.4611,-1.308545471));
#1434=DIRECTION('',(0.0,0.629320391,-0.777145961));
#1435=DIRECTION('',(0.0,-0.777145961,-0.629320391));
#1436=(GEOMETRIC_REPRESENTATION_CONTEXT(3)GLOBAL_UNCERTAINTY_ASSIGNED_CONTEXT((#1437))GLOBAL_UNIT_ASSIGNED_CONTEXT((#50,#51,#52))REPRESENTATION_CONTEXT('',''));
#1437=UNCERTAINTY_MEASURE_WITH_UNIT(LENGTH_MEASURE(2.795760727E-06),#50,'','maximum tolerance');
#1438=ADVANCED_BREP_SHAPE_REPRESENTATION('',(#72,#9),#1436);
#1439=(REPRESENTATION_RELATIONSHIP('',$,#1438,#53)REPRESENTATION_RELATIONSHIP_WITH_TRANSFORMATION(#1440)SHAPE_REPRESENTATION_RELATIONSHIP());
#1440=ITEM_DEFINED_TRANSFORMATION('',$,#9,#13);
#1441=PRODUCT('BODY_MUA08A','BODY_MUA08A',$,(#3));
#1442=PRODUCT_DEFINITION_FORMATION('',$,#1441);
#1443=PRODUCT_DEFINITION('design',$,#1442,#6);
#1444=NEXT_ASSEMBLY_USAGE_OCCURRENCE('instance_1','BODY_MUA08A','BODY_MUA08A',#7,#1443,$);
#1445=PRODUCT_DEFINITION_SHAPE('',$,#1444);
#1446=CONTEXT_DEPENDENT_SHAPE_REPRESENTATION(#1439,#1445);
#1447=PRODUCT_DEFINITION_SHAPE('',$,#1443);
#1448=SHAPE_DEFINITION_REPRESENTATION(#1447,#1438);
#1449=PRODUCT_RELATED_PRODUCT_CATEGORY('part',$,(#1441));
#1450=PROPERTY_DEFINITION('geometric validation property',$,#1447);
#1451=MEASURE_REPRESENTATION_ITEM('surface area measure',AREA_MEASURE(26.962190003),#59);
#1452=REPRESENTATION('surface area',(#1451),#1436);
#1453=PROPERTY_DEFINITION_REPRESENTATION(#1450,#1452);
#1454=PROPERTY_DEFINITION('geometric validation property',$,#1447);
#1455=MEASURE_REPRESENTATION_ITEM('volume measure',VOLUME_MEASURE(8.477942277),#65);
#1456=REPRESENTATION('volume',(#1455),#1436);
#1457=PROPERTY_DEFINITION_REPRESENTATION(#1454,#1456);
#1458=PROPERTY_DEFINITION('geometric validation property',$,#1447);
#1459=CARTESIAN_POINT('centre point',(0.001516451,-0.089542588,-0.001322276));
#1460=REPRESENTATION('centroid',(#1459),#1436);
#1461=PROPERTY_DEFINITION_REPRESENTATION(#1458,#1460);
#1462=STYLED_ITEM('',(#1463),#72);
#1463=PRESENTATION_STYLE_ASSIGNMENT((#1464));
#1464=SURFACE_STYLE_USAGE(.BOTH.,#1465);
#1465=SURFACE_SIDE_STYLE('',(#1466));
#1466=SURFACE_STYLE_FILL_AREA(#1467);
#1467=FILL_AREA_STYLE('',(#1469));
#1468=COLOUR_RGB('',0.098039001,0.098039001,0.098039001);
#1469=FILL_AREA_STYLE_COLOUR('',#1468);
#1470=MECHANICAL_DESIGN_GEOMETRIC_PRESENTATION_REPRESENTATION('',(#1462),#1436);
#1471=MANIFOLD_SOLID_BREP('',#1472);
#1472=CLOSED_SHELL('',(#1473,#1581,#1612,#1636,#1661,#1685,#1710,#1734,#1758,#1782,#1807,#1831,#1864,#1881));
#1473=ADVANCED_FACE('',(#1474),#1576,.F.);
#1474=FACE_BOUND('',#1475,.T.);
#1475=EDGE_LOOP('',(#1476,#1486,#1495,#1503,#1512,#1520,#1528,#1536,#1545,#1553,#1562,#1570));
#1476=ORIENTED_EDGE('',*,*,#1477,.T.);
#1477=EDGE_CURVE('',#1478,#1480,#1482,.F.);
#1478=VERTEX_POINT('',#1479);
#1479=CARTESIAN_POINT('',(-0.1524,-0.075955997,0.5334));
#1480=VERTEX_POINT('',#1481);
#1481=CARTESIAN_POINT('',(-0.1524,-0.063397434,0.293768344));
#1482=LINE('',#1483,#1484);
#1483=CARTESIAN_POINT('',(-0.1524,-0.063397434,0.293768344));
#1484=VECTOR('',#1485,1.0);
#1485=DIRECTION('',(0.0,-0.052335956,0.998629535));
#1486=ORIENTED_EDGE('',*,*,#1487,.T.);
#1487=EDGE_CURVE('',#1480,#1488,#1490,.T.);
#1488=VERTEX_POINT('',#1489);
#1489=CARTESIAN_POINT('',(-0.1524,0.052359738,0.173898284));
#1490=CIRCLE('',#1491,0.127);
#1491=AXIS2_PLACEMENT_3D('',#1492,#1493,#1494);
#1492=CARTESIAN_POINT('',(-0.1524,0.063428517,0.30041501));
#1493=DIRECTION('',(1.0,0.0,0.0));
#1494=DIRECTION('',(0.0,-0.998629535,-0.052335956));
#1495=ORIENTED_EDGE('',*,*,#1496,.T.);
#1496=EDGE_CURVE('',#1488,#1497,#1499,.T.);
#1497=VERTEX_POINT('',#1498);
#1498=CARTESIAN_POINT('',(-0.1524,0.15746507,0.164702759));
#1499=LINE('',#1500,#1501);
#1500=CARTESIAN_POINT('',(-0.1524,0.052359738,0.173898284));
#1501=VECTOR('',#1502,1.0);
#1502=DIRECTION('',(0.0,0.996194698,-0.087155743));
#1503=ORIENTED_EDGE('',*,*,#1504,.T.);
#1504=EDGE_CURVE('',#1497,#1505,#1507,.T.);
#1505=VERTEX_POINT('',#1506);
#1506=CARTESIAN_POINT('',(-0.1524,0.4357,-0.138937385));
#1507=CIRCLE('',#1508,0.3048);
#1508=AXIS2_PLACEMENT_3D('',#1509,#1510,#1511);
#1509=CARTESIAN_POINT('',(-0.1524,0.1309,-0.138937385));
#1510=DIRECTION('',(-1.0,0.0,0.0));
#1511=DIRECTION('',(0.0,0.087155743,0.996194698));
#1512=ORIENTED_EDGE('',*,*,#1513,.T.);
#1513=EDGE_CURVE('',#1505,#1514,#1516,.F.);
#1514=VERTEX_POINT('',#1515);
#1515=CARTESIAN_POINT('',(-0.1524,0.4357,-0.4191));
#1516=LINE('',#1517,#1518);
#1517=CARTESIAN_POINT('',(-0.1524,0.4357,-0.4191));
#1518=VECTOR('',#1519,1.0);
#1519=DIRECTION('',(0.0,0.0,1.0));
#1520=ORIENTED_EDGE('',*,*,#1521,.T.);
#1521=EDGE_CURVE('',#1514,#1522,#1524,.F.);
#1522=VERTEX_POINT('',#1523);
#1523=CARTESIAN_POINT('',(-0.1524,0.2579,-0.4191));
#1524=LINE('',#1525,#1526);
#1525=CARTESIAN_POINT('',(-0.1524,0.2579,-0.4191));
#1526=VECTOR('',#1527,1.0);
#1527=DIRECTION('',(0.0,1.0,0.0));
#1528=ORIENTED_EDGE('',*,*,#1529,.T.);
#1529=EDGE_CURVE('',#1522,#1530,#1532,.F.);
#1530=VERTEX_POINT('',#1531);
#1531=CARTESIAN_POINT('',(-0.1524,0.2579,-0.138937385));
#1532=LINE('',#1533,#1534);
#1533=CARTESIAN_POINT('',(-0.1524,0.2579,-0.138937385));
#1534=VECTOR('',#1535,1.0);
#1535=DIRECTION('',(0.0,0.0,-1.0));
#1536=ORIENTED_EDGE('',*,*,#1537,.T.);
#1537=EDGE_CURVE('',#1530,#1538,#1540,.T.);
#1538=VERTEX_POINT('',#1539);
#1539=CARTESIAN_POINT('',(-0.1524,0.141968779,-0.012420659));
#1540=CIRCLE('',#1541,0.127);
#1541=AXIS2_PLACEMENT_3D('',#1542,#1543,#1544);
#1542=CARTESIAN_POINT('',(-0.1524,0.1309,-0.138937385));
#1543=DIRECTION('',(1.0,0.0,0.0));
#1544=DIRECTION('',(0.0,1.0,0.0));
#1545=ORIENTED_EDGE('',*,*,#1546,.T.);
#1546=EDGE_CURVE('',#1538,#1547,#1549,.T.);
#1547=VERTEX_POINT('',#1548);
#1548=CARTESIAN_POINT('',(-0.1524,0.036863447,-0.003225134));
#1549=LINE('',#1550,#1551);
#1550=CARTESIAN_POINT('',(-0.1524,0.141968779,-0.012420659));
#1551=VECTOR('',#1552,1.0);
#1552=DIRECTION('',(0.0,-0.996194698,0.087155743));
#1553=ORIENTED_EDGE('',*,*,#1554,.T.);
#1554=EDGE_CURVE('',#1547,#1555,#1557,.T.);
#1555=VERTEX_POINT('',#1556);
#1556=CARTESIAN_POINT('',(-0.1524,-0.240953765,0.284463011));
#1557=CIRCLE('',#1558,0.3048);
#1558=AXIS2_PLACEMENT_3D('',#1559,#1560,#1561);
#1559=CARTESIAN_POINT('',(-0.1524,0.063428517,0.30041501));
#1560=DIRECTION('',(-1.0,0.0,0.0));
#1561=DIRECTION('',(0.0,-0.087155743,-0.996194698));
#1562=ORIENTED_EDGE('',*,*,#1563,.T.);
#1563=EDGE_CURVE('',#1555,#1564,#1566,.F.);
#1564=VERTEX_POINT('',#1565);
#1565=CARTESIAN_POINT('',(-0.1524,-0.254,0.5334));
#1566=LINE('',#1567,#1568);
#1567=CARTESIAN_POINT('',(-0.1524,-0.254,0.5334));
#1568=VECTOR('',#1569,1.0);
#1569=DIRECTION('',(0.0,0.052335956,-0.998629535));
#1570=ORIENTED_EDGE('',*,*,#1571,.T.);
#1571=EDGE_CURVE('',#1564,#1478,#1572,.T.);
#1572=LINE('',#1573,#1574);
#1573=CARTESIAN_POINT('',(-0.1524,-0.254,0.5334));
#1574=VECTOR('',#1575,1.0);
#1575=DIRECTION('',(0.0,1.0,0.0));
#1576=PLANE('',#1577);
#1577=AXIS2_PLACEMENT_3D('',#1578,#1579,#1580);
#1578=CARTESIAN_POINT('',(-0.1524,0.0,0.0));
#1579=DIRECTION('',(1.0,0.0,0.0));
#1580=DIRECTION('',(0.0,0.0,-1.0));
#1581=ADVANCED_FACE('',(#1582),#1607,.F.);
#1582=FACE_BOUND('',#1583,.T.);
#1583=EDGE_LOOP('',(#1584,#1592,#1600,#1606));
#1584=ORIENTED_EDGE('',*,*,#1585,.T.);
#1585=EDGE_CURVE('',#1564,#1586,#1588,.T.);
#1586=VERTEX_POINT('',#1587);
#1587=CARTESIAN_POINT('',(0.1524,-0.254,0.5334));
#1588=LINE('',#1589,#1590);
#1589=CARTESIAN_POINT('',(-0.1524,-0.254,0.5334));
#1590=VECTOR('',#1591,1.0);
#1591=DIRECTION('',(1.0,0.0,0.0));
#1592=ORIENTED_EDGE('',*,*,#1593,.T.);
#1593=EDGE_CURVE('',#1586,#1594,#1596,.T.);
#1594=VERTEX_POINT('',#1595);
#1595=CARTESIAN_POINT('',(0.1524,-0.075955997,0.5334));
#1596=LINE('',#1597,#1598);
#1597=CARTESIAN_POINT('',(0.1524,-0.254,0.5334));
#1598=VECTOR('',#1599,1.0);
#1599=DIRECTION('',(0.0,1.0,0.0));
#1600=ORIENTED_EDGE('',*,*,#1601,.T.);
#1601=EDGE_CURVE('',#1594,#1478,#1602,.F.);
#1602=LINE('',#1603,#1604);
#1603=CARTESIAN_POINT('',(-0.1524,-0.075955997,0.5334));
#1604=VECTOR('',#1605,1.0);
#1605=DIRECTION('',(1.0,0.0,0.0));
#1606=ORIENTED_EDGE('',*,*,#1571,.F.);
#1607=PLANE('',#1608);
#1608=AXIS2_PLACEMENT_3D('',#1609,#1610,#1611);
#1609=CARTESIAN_POINT('',(0.18288,-0.254,0.5334));
#1610=DIRECTION('',(0.0,0.0,-1.0));
#1611=DIRECTION('',(0.0,1.0,0.0));
#1612=ADVANCED_FACE('',(#1613),#1631,.T.);
#1613=FACE_BOUND('',#1614,.T.);
#1614=EDGE_LOOP('',(#1615,#1623,#1629,#1630));
#1615=ORIENTED_EDGE('',*,*,#1616,.T.);
#1616=EDGE_CURVE('',#1594,#1617,#1619,.F.);
#1617=VERTEX_POINT('',#1618);
#1618=CARTESIAN_POINT('',(0.1524,-0.063397434,0.293768344));
#1619=LINE('',#1620,#1621);
#1620=CARTESIAN_POINT('',(0.1524,-0.063397434,0.293768344));
#1621=VECTOR('',#1622,1.0);
#1622=DIRECTION('',(0.0,-0.052335956,0.998629535));
#1623=ORIENTED_EDGE('',*,*,#1624,.T.);
#1624=EDGE_CURVE('',#1617,#1480,#1625,.F.);
#1625=LINE('',#1626,#1627);
#1626=CARTESIAN_POINT('',(-0.1524,-0.063397434,0.293768344));
#1627=VECTOR('',#1628,1.0);
#1628=DIRECTION('',(1.0,0.0,0.0));
#1629=ORIENTED_EDGE('',*,*,#1477,.F.);
#1630=ORIENTED_EDGE('',*,*,#1601,.F.);
#1631=PLANE('',#1632);
#1632=AXIS2_PLACEMENT_3D('',#1633,#1634,#1635);
#1633=CARTESIAN_POINT('',(-0.1524,-0.057619575,0.183520227));
#1634=DIRECTION('',(0.0,0.998629535,0.052335956));
#1635=DIRECTION('',(0.0,-0.052335956,0.998629535));
#1636=ADVANCED_FACE('',(#1637),#1656,.F.);
#1637=FACE_BOUND('',#1638,.T.);
#1638=EDGE_LOOP('',(#1639,#1648,#1654,#1655));
#1639=ORIENTED_EDGE('',*,*,#1640,.T.);
#1640=EDGE_CURVE('',#1617,#1641,#1643,.T.);
#1641=VERTEX_POINT('',#1642);
#1642=CARTESIAN_POINT('',(0.1524,0.052359738,0.173898284));
#1643=CIRCLE('',#1644,0.127);
#1644=AXIS2_PLACEMENT_3D('',#1645,#1646,#1647);
#1645=CARTESIAN_POINT('',(0.1524,0.063428517,0.30041501));
#1646=DIRECTION('',(1.0,0.0,0.0));
#1647=DIRECTION('',(0.0,-0.998629535,-0.052335956));
#1648=ORIENTED_EDGE('',*,*,#1649,.T.);
#1649=EDGE_CURVE('',#1641,#1488,#1650,.F.);
#1650=LINE('',#1651,#1652);
#1651=CARTESIAN_POINT('',(-0.1524,0.052359738,0.173898284));
#1652=VECTOR('',#1653,1.0);
#1653=DIRECTION('',(1.0,0.0,0.0));
#1654=ORIENTED_EDGE('',*,*,#1487,.F.);
#1655=ORIENTED_EDGE('',*,*,#1624,.F.);
#1656=CYLINDRICAL_SURFACE('',#1657,0.127);
#1657=AXIS2_PLACEMENT_3D('',#1658,#1659,#1660);
#1658=CARTESIAN_POINT('',(-0.1524,0.063428517,0.30041501));
#1659=DIRECTION('',(1.0,0.0,0.0));
#1660=DIRECTION('',(0.0,-0.998629535,-0.052335956));
#1661=ADVANCED_FACE('',(#1662),#1680,.T.);
#1662=FACE_BOUND('',#1663,.T.);
#1663=EDGE_LOOP('',(#1664,#1665,#1673,#1679));
#1664=ORIENTED_EDGE('',*,*,#1649,.F.);
#1665=ORIENTED_EDGE('',*,*,#1666,.T.);
#1666=EDGE_CURVE('',#1641,#1667,#1669,.F.);
#1667=VERTEX_POINT('',#1668);
#1668=CARTESIAN_POINT('',(0.1524,0.15746507,0.164702759));
#1669=LINE('',#1670,#1671);
#1670=CARTESIAN_POINT('',(0.1524,0.15746507,0.164702759));
#1671=VECTOR('',#1672,1.0);
#1672=DIRECTION('',(0.0,-0.996194698,0.087155743));
#1673=ORIENTED_EDGE('',*,*,#1674,.T.);
#1674=EDGE_CURVE('',#1667,#1497,#1675,.F.);
#1675=LINE('',#1676,#1677);
#1676=CARTESIAN_POINT('',(-0.1524,0.15746507,0.164702759));
#1677=VECTOR('',#1678,1.0);
#1678=DIRECTION('',(1.0,0.0,0.0));
#1679=ORIENTED_EDGE('',*,*,#1496,.F.);
#1680=PLANE('',#1681);
#1681=AXIS2_PLACEMENT_3D('',#1682,#1683,#1684);
#1682=CARTESIAN_POINT('',(-0.1524,0.015496291,0.177123417));
#1683=DIRECTION('',(0.0,0.087155743,0.996194698));
#1684=DIRECTION('',(0.0,-0.996194698,0.087155743));
#1685=ADVANCED_FACE('',(#1686),#1705,.T.);
#1686=FACE_BOUND('',#1687,.T.);
#1687=EDGE_LOOP('',(#1688,#1697,#1703,#1704));
#1688=ORIENTED_EDGE('',*,*,#1689,.T.);
#1689=EDGE_CURVE('',#1667,#1690,#1692,.T.);
#1690=VERTEX_POINT('',#1691);
#1691=CARTESIAN_POINT('',(0.1524,0.4357,-0.138937385));
#1692=CIRCLE('',#1693,0.3048);
#1693=AXIS2_PLACEMENT_3D('',#1694,#1695,#1696);
#1694=CARTESIAN_POINT('',(0.1524,0.1309,-0.138937385));
#1695=DIRECTION('',(-1.0,0.0,0.0));
#1696=DIRECTION('',(0.0,0.087155743,0.996194698));
#1697=ORIENTED_EDGE('',*,*,#1698,.T.);
#1698=EDGE_CURVE('',#1690,#1505,#1699,.F.);
#1699=LINE('',#1700,#1701);
#1700=CARTESIAN_POINT('',(-0.1524,0.4357,-0.138937385));
#1701=VECTOR('',#1702,1.0);
#1702=DIRECTION('',(1.0,0.0,0.0));
#1703=ORIENTED_EDGE('',*,*,#1504,.F.);
#1704=ORIENTED_EDGE('',*,*,#1674,.F.);
#1705=CYLINDRICAL_SURFACE('',#1706,0.3048);
#1706=AXIS2_PLACEMENT_3D('',#1707,#1708,#1709);
#1707=CARTESIAN_POINT('',(-0.1524,0.1309,-0.138937385));
#1708=DIRECTION('',(-1.0,0.0,0.0));
#1709=DIRECTION('',(0.0,0.087155743,0.996194698));
#1710=ADVANCED_FACE('',(#1711),#1729,.T.);
#1711=FACE_BOUND('',#1712,.T.);
#1712=EDGE_LOOP('',(#1713,#1714,#1722,#1728));
#1713=ORIENTED_EDGE('',*,*,#1698,.F.);
#1714=ORIENTED_EDGE('',*,*,#1715,.T.);
#1715=EDGE_CURVE('',#1690,#1716,#1718,.F.);
#1716=VERTEX_POINT('',#1717);
#1717=CARTESIAN_POINT('',(0.1524,0.4357,-0.4191));
#1718=LINE('',#1719,#1720);
#1719=CARTESIAN_POINT('',(0.1524,0.4357,-0.4191));
#1720=VECTOR('',#1721,1.0);
#1721=DIRECTION('',(0.0,0.0,1.0));
#1722=ORIENTED_EDGE('',*,*,#1723,.T.);
#1723=EDGE_CURVE('',#1716,#1514,#1724,.F.);
#1724=LINE('',#1725,#1726);
#1725=CARTESIAN_POINT('',(-0.1524,0.4357,-0.4191));
#1726=VECTOR('',#1727,1.0);
#1727=DIRECTION('',(1.0,0.0,0.0));
#1728=ORIENTED_EDGE('',*,*,#1513,.F.);
#1729=PLANE('',#1730);
#1730=AXIS2_PLACEMENT_3D('',#1731,#1732,#1733);
#1731=CARTESIAN_POINT('',(-0.1524,0.4357,-0.4191));
#1732=DIRECTION('',(0.0,1.0,0.0));
#1733=DIRECTION('',(0.0,0.0,1.0));
#1734=ADVANCED_FACE('',(#1735),#1753,.T.);
#1735=FACE_BOUND('',#1736,.T.);
#1736=EDGE_LOOP('',(#1737,#1738,#1746,#1752));
#1737=ORIENTED_EDGE('',*,*,#1723,.F.);
#1738=ORIENTED_EDGE('',*,*,#1739,.T.);
#1739=EDGE_CURVE('',#1716,#1740,#1742,.F.);
#1740=VERTEX_POINT('',#1741);
#1741=CARTESIAN_POINT('',(0.1524,0.2579,-0.4191));
#1742=LINE('',#1743,#1744);
#1743=CARTESIAN_POINT('',(0.1524,0.2579,-0.4191));
#1744=VECTOR('',#1745,1.0);
#1745=DIRECTION('',(0.0,1.0,0.0));
#1746=ORIENTED_EDGE('',*,*,#1747,.T.);
#1747=EDGE_CURVE('',#1740,#1522,#1748,.F.);
#1748=LINE('',#1749,#1750);
#1749=CARTESIAN_POINT('',(-0.1524,0.2579,-0.4191));
#1750=VECTOR('',#1751,1.0);
#1751=DIRECTION('',(1.0,0.0,0.0));
#1752=ORIENTED_EDGE('',*,*,#1521,.F.);
#1753=PLANE('',#1754);
#1754=AXIS2_PLACEMENT_3D('',#1755,#1756,#1757);
#1755=CARTESIAN_POINT('',(-0.1524,0.2579,-0.4191));
#1756=DIRECTION('',(0.0,0.0,-1.0));
#1757=DIRECTION('',(0.0,1.0,0.0));
#1758=ADVANCED_FACE('',(#1759),#1777,.T.);
#1759=FACE_BOUND('',#1760,.T.);
#1760=EDGE_LOOP('',(#1761,#1762,#1770,#1776));
#1761=ORIENTED_EDGE('',*,*,#1747,.F.);
#1762=ORIENTED_EDGE('',*,*,#1763,.T.);
#1763=EDGE_CURVE('',#1740,#1764,#1766,.F.);
#1764=VERTEX_POINT('',#1765);
#1765=CARTESIAN_POINT('',(0.1524,0.2579,-0.138937385));
#1766=LINE('',#1767,#1768);
#1767=CARTESIAN_POINT('',(0.1524,0.2579,-0.138937385));
#1768=VECTOR('',#1769,1.0);
#1769=DIRECTION('',(0.0,0.0,-1.0));
#1770=ORIENTED_EDGE('',*,*,#1771,.T.);
#1771=EDGE_CURVE('',#1764,#1530,#1772,.F.);
#1772=LINE('',#1773,#1774);
#1773=CARTESIAN_POINT('',(-0.1524,0.2579,-0.138937385));
#1774=VECTOR('',#1775,1.0);
#1775=DIRECTION('',(1.0,0.0,0.0));
#1776=ORIENTED_EDGE('',*,*,#1529,.F.);
#1777=PLANE('',#1778);
#1778=AXIS2_PLACEMENT_3D('',#1779,#1780,#1781);
#1779=CARTESIAN_POINT('',(-0.1524,0.2579,-0.022563326));
#1780=DIRECTION('',(0.0,-1.0,0.0));
#1781=DIRECTION('',(0.0,0.0,-1.0));
#1782=ADVANCED_FACE('',(#1783),#1802,.F.);
#1783=FACE_BOUND('',#1784,.T.);
#1784=EDGE_LOOP('',(#1785,#1794,#1800,#1801));
#1785=ORIENTED_EDGE('',*,*,#1786,.T.);
#1786=EDGE_CURVE('',#1764,#1787,#1789,.T.);
#1787=VERTEX_POINT('',#1788);
#1788=CARTESIAN_POINT('',(0.1524,0.141968779,-0.012420659));
#1789=CIRCLE('',#1790,0.127);
#1790=AXIS2_PLACEMENT_3D('',#1791,#1792,#1793);
#1791=CARTESIAN_POINT('',(0.1524,0.1309,-0.138937385));
#1792=DIRECTION('',(1.0,0.0,0.0));
#1793=DIRECTION('',(0.0,1.0,0.0));
#1794=ORIENTED_EDGE('',*,*,#1795,.T.);
#1795=EDGE_CURVE('',#1787,#1538,#1796,.F.);
#1796=LINE('',#1797,#1798);
#1797=CARTESIAN_POINT('',(-0.1524,0.141968779,-0.012420659));
#1798=VECTOR('',#1799,1.0);
#1799=DIRECTION('',(1.0,0.0,0.0));
#1800=ORIENTED_EDGE('',*,*,#1537,.F.);
#1801=ORIENTED_EDGE('',*,*,#1771,.F.);
#1802=CYLINDRICAL_SURFACE('',#1803,0.127);
#1803=AXIS2_PLACEMENT_3D('',#1804,#1805,#1806);
#1804=CARTESIAN_POINT('',(-0.1524,0.1309,-0.138937385));
#1805=DIRECTION('',(1.0,0.0,0.0));
#1806=DIRECTION('',(0.0,1.0,0.0));
#1807=ADVANCED_FACE('',(#1808),#1826,.T.);
#1808=FACE_BOUND('',#1809,.T.);
#1809=EDGE_LOOP('',(#1810,#1818,#1819,#1820));
#1810=ORIENTED_EDGE('',*,*,#1811,.T.);
#1811=EDGE_CURVE('',#1812,#1547,#1814,.F.);
#1812=VERTEX_POINT('',#1813);
#1813=CARTESIAN_POINT('',(0.1524,0.036863447,-0.003225134));
#1814=LINE('',#1815,#1816);
#1815=CARTESIAN_POINT('',(-0.1524,0.036863447,-0.003225134));
#1816=VECTOR('',#1817,1.0);
#1817=DIRECTION('',(1.0,0.0,0.0));
#1818=ORIENTED_EDGE('',*,*,#1546,.F.);
#1819=ORIENTED_EDGE('',*,*,#1795,.F.);
#1820=ORIENTED_EDGE('',*,*,#1821,.T.);
#1821=EDGE_CURVE('',#1787,#1812,#1822,.F.);
#1822=LINE('',#1823,#1824);
#1823=CARTESIAN_POINT('',(0.1524,0.036863447,-0.003225134));
#1824=VECTOR('',#1825,1.0);
#1825=DIRECTION('',(0.0,0.996194698,-0.087155743));
#1826=PLANE('',#1827);
#1827=AXIS2_PLACEMENT_3D('',#1828,#1829,#1830);
#1828=CARTESIAN_POINT('',(-0.1524,-0.227086904,0.01986753));
#1829=DIRECTION('',(0.0,-0.087155743,-0.996194698));
#1830=DIRECTION('',(0.0,0.996194698,-0.087155743));
#1831=ADVANCED_FACE('',(#1832),#1859,.T.);
#1832=FACE_BOUND('',#1833,.T.);
#1833=EDGE_LOOP('',(#1834,#1842,#1849,#1850,#1851,#1852,#1853,#1854,#1855,#1856,#1857,#1858));
#1834=ORIENTED_EDGE('',*,*,#1835,.T.);
#1835=EDGE_CURVE('',#1586,#1836,#1838,.T.);
#1836=VERTEX_POINT('',#1837);
#1837=CARTESIAN_POINT('',(0.1524,-0.240953765,0.284463011));
#1838=LINE('',#1839,#1840);
#1839=CARTESIAN_POINT('',(0.1524,-0.254,0.5334));
#1840=VECTOR('',#1841,1.0);
#1841=DIRECTION('',(0.0,0.052335956,-0.998629535));
#1842=ORIENTED_EDGE('',*,*,#1843,.T.);
#1843=EDGE_CURVE('',#1836,#1812,#1844,.F.);
#1844=CIRCLE('',#1845,0.3048);
#1845=AXIS2_PLACEMENT_3D('',#1846,#1847,#1848);
#1846=CARTESIAN_POINT('',(0.1524,0.063428517,0.30041501));
#1847=DIRECTION('',(-1.0,0.0,0.0));
#1848=DIRECTION('',(0.0,-0.087155743,-0.996194698));
#1849=ORIENTED_EDGE('',*,*,#1821,.F.);
#1850=ORIENTED_EDGE('',*,*,#1786,.F.);
#1851=ORIENTED_EDGE('',*,*,#1763,.F.);
#1852=ORIENTED_EDGE('',*,*,#1739,.F.);
#1853=ORIENTED_EDGE('',*,*,#1715,.F.);
#1854=ORIENTED_EDGE('',*,*,#1689,.F.);
#1855=ORIENTED_EDGE('',*,*,#1666,.F.);
#1856=ORIENTED_EDGE('',*,*,#1640,.F.);
#1857=ORIENTED_EDGE('',*,*,#1616,.F.);
#1858=ORIENTED_EDGE('',*,*,#1593,.F.);
#1859=PLANE('',#1860);
#1860=AXIS2_PLACEMENT_3D('',#1861,#1862,#1863);
#1861=CARTESIAN_POINT('',(0.1524,0.0,0.0));
#1862=DIRECTION('',(1.0,0.0,0.0));
#1863=DIRECTION('',(0.0,0.0,-1.0));
#1864=ADVANCED_FACE('',(#1865),#1876,.T.);
#1865=FACE_BOUND('',#1866,.T.);
#1866=EDGE_LOOP('',(#1867,#1868,#1874,#1875));
#1867=ORIENTED_EDGE('',*,*,#1843,.F.);
#1868=ORIENTED_EDGE('',*,*,#1869,.T.);
#1869=EDGE_CURVE('',#1836,#1555,#1870,.F.);
#1870=LINE('',#1871,#1872);
#1871=CARTESIAN_POINT('',(-0.1524,-0.240953765,0.284463011));
#1872=VECTOR('',#1873,1.0);
#1873=DIRECTION('',(1.0,0.0,0.0));
#1874=ORIENTED_EDGE('',*,*,#1554,.F.);
#1875=ORIENTED_EDGE('',*,*,#1811,.F.);
#1876=CYLINDRICAL_SURFACE('',#1877,0.3048);
#1877=AXIS2_PLACEMENT_3D('',#1878,#1879,#1880);
#1878=CARTESIAN_POINT('',(-0.1524,0.063428517,0.30041501));
#1879=DIRECTION('',(-1.0,0.0,0.0));
#1880=DIRECTION('',(0.0,-0.087155743,-0.996194698));
#1881=ADVANCED_FACE('',(#1882),#1888,.T.);
#1882=FACE_BOUND('',#1883,.T.);
#1883=EDGE_LOOP('',(#1884,#1885,#1886,#1887));
#1884=ORIENTED_EDGE('',*,*,#1563,.F.);
#1885=ORIENTED_EDGE('',*,*,#1869,.F.);
#1886=ORIENTED_EDGE('',*,*,#1835,.F.);
#1887=ORIENTED_EDGE('',*,*,#1585,.F.);
#1888=PLANE('',#1889);
#1889=AXIS2_PLACEMENT_3D('',#1890,#1891,#1892);
#1890=CARTESIAN_POINT('',(-0.1524,-0.254,0.5334));
#1891=DIRECTION('',(0.0,-0.998629535,-0.052335956));
#1892=DIRECTION('',(0.0,0.052335956,-0.998629535));
#1893=(GEOMETRIC_REPRESENTATION_CONTEXT(3)GLOBAL_UNCERTAINTY_ASSIGNED_CONTEXT((#1894))GLOBAL_UNIT_ASSIGNED_CONTEXT((#50,#51,#52))REPRESENTATION_CONTEXT('',''));
#1894=UNCERTAINTY_MEASURE_WITH_UNIT(LENGTH_MEASURE(1.0E-07),#50,'','maximum tolerance');
#1895=ADVANCED_BREP_SHAPE_REPRESENTATION('',(#1471,#9),#1893);
#1896=(REPRESENTATION_RELATIONSHIP('',$,#1895,#53)REPRESENTATION_RELATIONSHIP_WITH_TRANSFORMATION(#1897)SHAPE_REPRESENTATION_RELATIONSHIP());
#1897=ITEM_DEFINED_TRANSFORMATION('',$,#9,#17);
#1898=PRODUCT('LEAD_MUA08A','LEAD_MUA08A',$,(#3));
#1899=PRODUCT_DEFINITION_FORMATION('',$,#1898);
#1900=PRODUCT_DEFINITION('design',$,#1899,#6);
#1901=NEXT_ASSEMBLY_USAGE_OCCURRENCE('instance_2','LEAD_MUA08A','LEAD_MUA08A',#7,#1900,$);
#1902=PRODUCT_DEFINITION_SHAPE('',$,#1901);
#1903=CONTEXT_DEPENDENT_SHAPE_REPRESENTATION(#1896,#1902);
#1904=PRODUCT_DEFINITION_SHAPE('',$,#1900);
#1905=SHAPE_DEFINITION_REPRESENTATION(#1904,#1895);
#1906=PRODUCT_RELATED_PRODUCT_CATEGORY('part',$,(#1898));
#1907=PROPERTY_DEFINITION('geometric validation property',$,#1904);
#1908=MEASURE_REPRESENTATION_ITEM('surface area measure',AREA_MEASURE(1.324200818),#59);
#1909=REPRESENTATION('surface area',(#1908),#1893);
#1910=PROPERTY_DEFINITION_REPRESENTATION(#1907,#1909);
#1911=PROPERTY_DEFINITION('geometric validation property',$,#1904);
#1912=MEASURE_REPRESENTATION_ITEM('volume measure',VOLUME_MEASURE(0.068260577),#65);
#1913=REPRESENTATION('volume',(#1912),#1893);
#1914=PROPERTY_DEFINITION_REPRESENTATION(#1911,#1913);
#1915=PROPERTY_DEFINITION('geometric validation property',$,#1904);
#1916=CARTESIAN_POINT('centre point',(0.0,0.105262273,0.062987846));
#1917=REPRESENTATION('centroid',(#1916),#1893);
#1918=PROPERTY_DEFINITION_REPRESENTATION(#1915,#1917);
#1919=STYLED_ITEM('',(#1920),#1471);
#1920=PRESENTATION_STYLE_ASSIGNMENT((#1921));
#1921=SURFACE_STYLE_USAGE(.BOTH.,#1922);
#1922=SURFACE_SIDE_STYLE('',(#1923));
#1923=SURFACE_STYLE_FILL_AREA(#1924);
#1924=FILL_AREA_STYLE('',(#1926));
#1925=COLOUR_RGB('',0.882353008,0.882353008,0.882353008);
#1926=FILL_AREA_STYLE_COLOUR('',#1925);
#1927=MECHANICAL_DESIGN_GEOMETRIC_PRESENTATION_REPRESENTATION('',(#1919),#1893);
#1928=(REPRESENTATION_RELATIONSHIP('',$,#1895,#53)REPRESENTATION_RELATIONSHIP_WITH_TRANSFORMATION(#1929)SHAPE_REPRESENTATION_RELATIONSHIP());
#1929=ITEM_DEFINED_TRANSFORMATION('',$,#9,#21);
#1930=NEXT_ASSEMBLY_USAGE_OCCURRENCE('instance_3','LEAD_MUA08A','LEAD_MUA08A',#7,#1900,$);
#1931=PRODUCT_DEFINITION_SHAPE('',$,#1930);
#1932=CONTEXT_DEPENDENT_SHAPE_REPRESENTATION(#1928,#1931);
#1933=(REPRESENTATION_RELATIONSHIP('',$,#1895,#53)REPRESENTATION_RELATIONSHIP_WITH_TRANSFORMATION(#1934)SHAPE_REPRESENTATION_RELATIONSHIP());
#1934=ITEM_DEFINED_TRANSFORMATION('',$,#9,#25);
#1935=NEXT_ASSEMBLY_USAGE_OCCURRENCE('instance_4','LEAD_MUA08A','LEAD_MUA08A',#7,#1900,$);
#1936=PRODUCT_DEFINITION_SHAPE('',$,#1935);
#1937=CONTEXT_DEPENDENT_SHAPE_REPRESENTATION(#1933,#1936);
#1938=(REPRESENTATION_RELATIONSHIP('',$,#1895,#53)REPRESENTATION_RELATIONSHIP_WITH_TRANSFORMATION(#1939)SHAPE_REPRESENTATION_RELATIONSHIP());
#1939=ITEM_DEFINED_TRANSFORMATION('',$,#9,#29);
#1940=NEXT_ASSEMBLY_USAGE_OCCURRENCE('instance_5','LEAD_MUA08A','LEAD_MUA08A',#7,#1900,$);
#1941=PRODUCT_DEFINITION_SHAPE('',$,#1940);
#1942=CONTEXT_DEPENDENT_SHAPE_REPRESENTATION(#1938,#1941);
#1943=(REPRESENTATION_RELATIONSHIP('',$,#1895,#53)REPRESENTATION_RELATIONSHIP_WITH_TRANSFORMATION(#1944)SHAPE_REPRESENTATION_RELATIONSHIP());
#1944=ITEM_DEFINED_TRANSFORMATION('',$,#9,#33);
#1945=NEXT_ASSEMBLY_USAGE_OCCURRENCE('instance_6','LEAD_MUA08A','LEAD_MUA08A',#7,#1900,$);
#1946=PRODUCT_DEFINITION_SHAPE('',$,#1945);
#1947=CONTEXT_DEPENDENT_SHAPE_REPRESENTATION(#1943,#1946);
#1948=(REPRESENTATION_RELATIONSHIP('',$,#1895,#53)REPRESENTATION_RELATIONSHIP_WITH_TRANSFORMATION(#1949)SHAPE_REPRESENTATION_RELATIONSHIP());
#1949=ITEM_DEFINED_TRANSFORMATION('',$,#9,#37);
#1950=NEXT_ASSEMBLY_USAGE_OCCURRENCE('instance_7','LEAD_MUA08A','LEAD_MUA08A',#7,#1900,$);
#1951=PRODUCT_DEFINITION_SHAPE('',$,#1950);
#1952=CONTEXT_DEPENDENT_SHAPE_REPRESENTATION(#1948,#1951);
#1953=(REPRESENTATION_RELATIONSHIP('',$,#1895,#53)REPRESENTATION_RELATIONSHIP_WITH_TRANSFORMATION(#1954)SHAPE_REPRESENTATION_RELATIONSHIP());
#1954=ITEM_DEFINED_TRANSFORMATION('',$,#9,#41);
#1955=NEXT_ASSEMBLY_USAGE_OCCURRENCE('instance_8','LEAD_MUA08A','LEAD_MUA08A',#7,#1900,$);
#1956=PRODUCT_DEFINITION_SHAPE('',$,#1955);
#1957=CONTEXT_DEPENDENT_SHAPE_REPRESENTATION(#1953,#1956);
#1958=(REPRESENTATION_RELATIONSHIP('',$,#1895,#53)REPRESENTATION_RELATIONSHIP_WITH_TRANSFORMATION(#1959)SHAPE_REPRESENTATION_RELATIONSHIP());
#1959=ITEM_DEFINED_TRANSFORMATION('',$,#9,#45);
#1960=NEXT_ASSEMBLY_USAGE_OCCURRENCE('instance_9','LEAD_MUA08A','LEAD_MUA08A',#7,#1900,$);
#1961=PRODUCT_DEFINITION_SHAPE('',$,#1960);
#1962=CONTEXT_DEPENDENT_SHAPE_REPRESENTATION(#1958,#1961);
ENDSEC;
END-ISO-10303-21;
