ISO-10303-21;
HEADER;
FILE_DESCRIPTION(('CAx-IF Rec.Pracs.---Model Styling and Organization---1.5---2016-08-15','CAx-IF Rec.Pracs.---Geometric and Assembly Validation Properties---4.4---2016-08-17','CAx-IF Rec.Pracs.---User Defined Attributes---1.5---2016-08-15','CAx-IF Rec.Pracs.---External References---2.1---2005-01-19'),'2;1');
FILE_NAME('572696.3.1.step','2026-08-18T16:59:00',('Unspecified'),('Unspecified'),'CAD Exchanger 3.10.2 (cadexchanger.com)','Unspecified','');
FILE_SCHEMA(('AUTOMOTIVE_DESIGN { 1 0 10303 214 1 1 1 1 }'));
ENDSEC;
DATA;
#1=APPLICATION_CONTEXT('core data for automotive mechanical design processes');
#2=APPLICATION_PROTOCOL_DEFINITION('international standard','automotive_design',2000,#1);
#3=PRODUCT_CONTEXT('',#1,'mechanical');
#4=PRODUCT('ASSEMBLY','ASSEMBLY',$,(#3));
#5=PRODUCT_DEFINITION_FORMATION('',$,#4);
#6=PRODUCT_DEFINITION_CONTEXT('part definition',#1,'design');
#7=PRODUCT_DEFINITION('design',$,#5,#6);
#8=PRODUCT_DEFINITION_SHAPE('',$,#7);
#9=AXIS2_PLACEMENT_3D('',#10,#11,#12);
#10=CARTESIAN_POINT('',(0.0,0.0,0.0));
#11=DIRECTION('',(0.0,0.0,1.0));
#12=DIRECTION('',(1.0,0.0,0.0));
#13=(GEOMETRIC_REPRESENTATION_CONTEXT(3)GLOBAL_UNIT_ASSIGNED_CONTEXT((#14,#15,#16))REPRESENTATION_CONTEXT('',''));
#14=(LENGTH_UNIT()NAMED_UNIT(*)SI_UNIT(.MILLI.,.METRE.));
#15=(NAMED_UNIT(*)PLANE_ANGLE_UNIT()SI_UNIT($,.RADIAN.));
#16=(NAMED_UNIT(*)SI_UNIT($,.STERADIAN.)SOLID_ANGLE_UNIT());
#17=SHAPE_REPRESENTATION('',(#9),#13);
#18=SHAPE_DEFINITION_REPRESENTATION(#8,#17);
#19=PRODUCT_RELATED_PRODUCT_CATEGORY('assembly',$,(#4));
#20=MANIFOLD_SOLID_BREP('',#21);
#21=CLOSED_SHELL('',(#22,#62,#93,#117,#141,#158,#189,#213,#237,#254,#285,#309,#333,#350,#381,#405,#429,#446,#477,#501,#525,#542,#573,#597,#621,#638,#669,#693,#717,#734,#765,#789,#813,#830,#861,#885,#909,#926,#957,#981,#1005,#1022));
#22=ADVANCED_FACE('',(#23),#57,.F.);
#23=FACE_BOUND('',#24,.T.);
#24=EDGE_LOOP('',(#25,#35,#43,#51));
#25=ORIENTED_EDGE('',*,*,#26,.T.);
#26=EDGE_CURVE('',#27,#29,#31,.T.);
#27=VERTEX_POINT('',#28);
#28=CARTESIAN_POINT('',(-1.27,-1.27,2.79));
#29=VERTEX_POINT('',#30);
#30=CARTESIAN_POINT('',(-1.27,1.27,2.79));
#31=LINE('',#32,#33);
#32=CARTESIAN_POINT('',(-1.27,-1.27,2.79));
#33=VECTOR('',#34,1.0);
#34=DIRECTION('',(0.0,1.0,0.0));
#35=ORIENTED_EDGE('',*,*,#36,.T.);
#36=EDGE_CURVE('',#29,#37,#39,.F.);
#37=VERTEX_POINT('',#38);
#38=CARTESIAN_POINT('',(-1.27,1.27,0.0));
#39=LINE('',#40,#41);
#40=CARTESIAN_POINT('',(-1.27,1.27,0.0));
#41=VECTOR('',#42,1.0);
#42=DIRECTION('',(0.0,0.0,1.0));
#43=ORIENTED_EDGE('',*,*,#44,.T.);
#44=EDGE_CURVE('',#37,#45,#47,.F.);
#45=VERTEX_POINT('',#46);
#46=CARTESIAN_POINT('',(-1.27,-1.27,0.0));
#47=LINE('',#48,#49);
#48=CARTESIAN_POINT('',(-1.27,-1.27,0.0));
#49=VECTOR('',#50,1.0);
#50=DIRECTION('',(0.0,1.0,0.0));
#51=ORIENTED_EDGE('',*,*,#52,.T.);
#52=EDGE_CURVE('',#45,#27,#53,.T.);
#53=LINE('',#54,#55);
#54=CARTESIAN_POINT('',(-1.27,-1.27,0.0));
#55=VECTOR('',#56,1.0);
#56=DIRECTION('',(0.0,0.0,1.0));
#57=PLANE('',#58);
#58=AXIS2_PLACEMENT_3D('',#59,#60,#61);
#59=CARTESIAN_POINT('',(-1.27,-1.27,0.0));
#60=DIRECTION('',(1.0,0.0,0.0));
#61=DIRECTION('',(0.0,0.0,1.0));
#62=ADVANCED_FACE('',(#63),#88,.F.);
#63=FACE_BOUND('',#64,.T.);
#64=EDGE_LOOP('',(#65,#75,#81,#82));
#65=ORIENTED_EDGE('',*,*,#66,.T.);
#66=EDGE_CURVE('',#67,#69,#71,.T.);
#67=VERTEX_POINT('',#68);
#68=CARTESIAN_POINT('',(1.045493597,-1.27,0.0));
#69=VERTEX_POINT('',#70);
#70=CARTESIAN_POINT('',(1.045493597,-1.27,2.79));
#71=LINE('',#72,#73);
#72=CARTESIAN_POINT('',(1.045493597,-1.27,0.0));
#73=VECTOR('',#74,1.0);
#74=DIRECTION('',(0.0,0.0,1.0));
#75=ORIENTED_EDGE('',*,*,#76,.T.);
#76=EDGE_CURVE('',#69,#27,#77,.F.);
#77=LINE('',#78,#79);
#78=CARTESIAN_POINT('',(-1.27,-1.27,2.79));
#79=VECTOR('',#80,1.0);
#80=DIRECTION('',(1.0,0.0,0.0));
#81=ORIENTED_EDGE('',*,*,#52,.F.);
#82=ORIENTED_EDGE('',*,*,#83,.T.);
#83=EDGE_CURVE('',#45,#67,#84,.T.);
#84=LINE('',#85,#86);
#85=CARTESIAN_POINT('',(-1.27,-1.27,0.0));
#86=VECTOR('',#87,1.0);
#87=DIRECTION('',(1.0,0.0,0.0));
#88=PLANE('',#89);
#89=AXIS2_PLACEMENT_3D('',#90,#91,#92);
#90=CARTESIAN_POINT('',(-1.27,-1.27,0.0));
#91=DIRECTION('',(0.0,1.0,0.0));
#92=DIRECTION('',(0.0,0.0,1.0));
#93=ADVANCED_FACE('',(#94),#112,.T.);
#94=FACE_BOUND('',#95,.T.);
#95=EDGE_LOOP('',(#96,#104,#105,#106));
#96=ORIENTED_EDGE('',*,*,#97,.T.);
#97=EDGE_CURVE('',#98,#29,#100,.F.);
#98=VERTEX_POINT('',#99);
#99=CARTESIAN_POINT('',(1.045493597,1.27,2.79));
#100=LINE('',#101,#102);
#101=CARTESIAN_POINT('',(-1.27,1.27,2.79));
#102=VECTOR('',#103,1.0);
#103=DIRECTION('',(1.0,0.0,0.0));
#104=ORIENTED_EDGE('',*,*,#26,.F.);
#105=ORIENTED_EDGE('',*,*,#76,.F.);
#106=ORIENTED_EDGE('',*,*,#107,.T.);
#107=EDGE_CURVE('',#69,#98,#108,.T.);
#108=LINE('',#109,#110);
#109=CARTESIAN_POINT('',(1.045493597,-1.27,2.79));
#110=VECTOR('',#111,1.0);
#111=DIRECTION('',(0.0,1.0,0.0));
#112=PLANE('',#113);
#113=AXIS2_PLACEMENT_3D('',#114,#115,#116);
#114=CARTESIAN_POINT('',(-1.27,-1.27,2.79));
#115=DIRECTION('',(0.0,0.0,1.0));
#116=DIRECTION('',(1.0,0.0,0.0));
#117=ADVANCED_FACE('',(#118),#136,.T.);
#118=FACE_BOUND('',#119,.T.);
#119=EDGE_LOOP('',(#120,#128,#129,#130));
#120=ORIENTED_EDGE('',*,*,#121,.T.);
#121=EDGE_CURVE('',#122,#37,#124,.F.);
#122=VERTEX_POINT('',#123);
#123=CARTESIAN_POINT('',(1.045493597,1.27,0.0));
#124=LINE('',#125,#126);
#125=CARTESIAN_POINT('',(-1.27,1.27,0.0));
#126=VECTOR('',#127,1.0);
#127=DIRECTION('',(1.0,0.0,0.0));
#128=ORIENTED_EDGE('',*,*,#36,.F.);
#129=ORIENTED_EDGE('',*,*,#97,.F.);
#130=ORIENTED_EDGE('',*,*,#131,.T.);
#131=EDGE_CURVE('',#98,#122,#132,.F.);
#132=LINE('',#133,#134);
#133=CARTESIAN_POINT('',(1.045493597,1.27,0.0));
#134=VECTOR('',#135,1.0);
#135=DIRECTION('',(0.0,0.0,1.0));
#136=PLANE('',#137);
#137=AXIS2_PLACEMENT_3D('',#138,#139,#140);
#138=CARTESIAN_POINT('',(-1.27,1.27,0.0));
#139=DIRECTION('',(0.0,1.0,0.0));
#140=DIRECTION('',(0.0,0.0,1.0));
#141=ADVANCED_FACE('',(#142),#153,.F.);
#142=FACE_BOUND('',#143,.T.);
#143=EDGE_LOOP('',(#144,#150,#151,#152));
#144=ORIENTED_EDGE('',*,*,#145,.T.);
#145=EDGE_CURVE('',#122,#67,#146,.F.);
#146=LINE('',#147,#148);
#147=CARTESIAN_POINT('',(1.045493597,-1.27,0.0));
#148=VECTOR('',#149,1.0);
#149=DIRECTION('',(0.0,1.0,0.0));
#150=ORIENTED_EDGE('',*,*,#83,.F.);
#151=ORIENTED_EDGE('',*,*,#44,.F.);
#152=ORIENTED_EDGE('',*,*,#121,.F.);
#153=PLANE('',#154);
#154=AXIS2_PLACEMENT_3D('',#155,#156,#157);
#155=CARTESIAN_POINT('',(-1.27,-1.27,0.0));
#156=DIRECTION('',(0.0,0.0,1.0));
#157=DIRECTION('',(1.0,0.0,0.0));
#158=ADVANCED_FACE('',(#159),#184,.F.);
#159=FACE_BOUND('',#160,.T.);
#160=EDGE_LOOP('',(#161,#171,#177,#178));
#161=ORIENTED_EDGE('',*,*,#162,.T.);
#162=EDGE_CURVE('',#163,#165,#167,.T.);
#163=VERTEX_POINT('',#164);
#164=CARTESIAN_POINT('',(1.27,-1.045493597,0.224506403));
#165=VERTEX_POINT('',#166);
#166=CARTESIAN_POINT('',(1.27,-1.045493597,2.565493597));
#167=LINE('',#168,#169);
#168=CARTESIAN_POINT('',(1.27,-1.045493597,0.0));
#169=VECTOR('',#170,1.0);
#170=DIRECTION('',(0.0,0.0,1.0));
#171=ORIENTED_EDGE('',*,*,#172,.T.);
#172=EDGE_CURVE('',#165,#69,#173,.F.);
#173=LINE('',#174,#175);
#174=CARTESIAN_POINT('',(1.510493597,-0.805,2.325));
#175=VECTOR('',#176,1.0);
#176=DIRECTION('',(0.577350269,0.577350269,-0.577350269));
#177=ORIENTED_EDGE('',*,*,#66,.F.);
#178=ORIENTED_EDGE('',*,*,#179,.T.);
#179=EDGE_CURVE('',#67,#163,#180,.F.);
#180=LINE('',#181,#182);
#181=CARTESIAN_POINT('',(1.045493597,-1.27,0.0));
#182=VECTOR('',#183,1.0);
#183=DIRECTION('',(-0.577350269,-0.577350269,-0.577350269));
#184=PLANE('',#185);
#185=AXIS2_PLACEMENT_3D('',#186,#187,#188);
#186=CARTESIAN_POINT('',(1.045493597,-1.27,0.0));
#187=DIRECTION('',(-0.707106781,0.707106781,0.0));
#188=DIRECTION('',(0.0,0.0,1.0));
#189=ADVANCED_FACE('',(#190),#208,.T.);
#190=FACE_BOUND('',#191,.T.);
#191=EDGE_LOOP('',(#192,#193,#194,#202));
#192=ORIENTED_EDGE('',*,*,#107,.F.);
#193=ORIENTED_EDGE('',*,*,#172,.F.);
#194=ORIENTED_EDGE('',*,*,#195,.T.);
#195=EDGE_CURVE('',#165,#196,#198,.T.);
#196=VERTEX_POINT('',#197);
#197=CARTESIAN_POINT('',(1.27,1.045493597,2.565493597));
#198=LINE('',#199,#200);
#199=CARTESIAN_POINT('',(1.27,-1.27,2.565493597));
#200=VECTOR('',#201,1.0);
#201=DIRECTION('',(0.0,1.0,0.0));
#202=ORIENTED_EDGE('',*,*,#203,.T.);
#203=EDGE_CURVE('',#196,#98,#204,.F.);
#204=LINE('',#205,#206);
#205=CARTESIAN_POINT('',(2.008662398,0.306831199,1.826831199));
#206=VECTOR('',#207,1.0);
#207=DIRECTION('',(0.577350269,-0.577350269,-0.577350269));
#208=PLANE('',#209);
#209=AXIS2_PLACEMENT_3D('',#210,#211,#212);
#210=CARTESIAN_POINT('',(1.045493597,-1.27,2.79));
#211=DIRECTION('',(0.707106781,0.0,0.707106781));
#212=DIRECTION('',(0.707106781,0.0,-0.707106781));
#213=ADVANCED_FACE('',(#214),#232,.T.);
#214=FACE_BOUND('',#215,.T.);
#215=EDGE_LOOP('',(#216,#224,#230,#231));
#216=ORIENTED_EDGE('',*,*,#217,.T.);
#217=EDGE_CURVE('',#196,#218,#220,.F.);
#218=VERTEX_POINT('',#219);
#219=CARTESIAN_POINT('',(1.27,1.045493597,0.224506403));
#220=LINE('',#221,#222);
#221=CARTESIAN_POINT('',(1.27,1.045493597,0.0));
#222=VECTOR('',#223,1.0);
#223=DIRECTION('',(0.0,0.0,1.0));
#224=ORIENTED_EDGE('',*,*,#225,.T.);
#225=EDGE_CURVE('',#218,#122,#226,.T.);
#226=LINE('',#227,#228);
#227=CARTESIAN_POINT('',(1.543662398,0.771831199,0.498168801));
#228=VECTOR('',#229,1.0);
#229=DIRECTION('',(-0.577350269,0.577350269,-0.577350269));
#230=ORIENTED_EDGE('',*,*,#131,.F.);
#231=ORIENTED_EDGE('',*,*,#203,.F.);
#232=PLANE('',#233);
#233=AXIS2_PLACEMENT_3D('',#234,#235,#236);
#234=CARTESIAN_POINT('',(1.27,1.045493597,0.0));
#235=DIRECTION('',(0.707106781,0.707106781,0.0));
#236=DIRECTION('',(0.0,0.0,1.0));
#237=ADVANCED_FACE('',(#238),#249,.T.);
#238=FACE_BOUND('',#239,.T.);
#239=EDGE_LOOP('',(#240,#241,#242,#243));
#240=ORIENTED_EDGE('',*,*,#179,.F.);
#241=ORIENTED_EDGE('',*,*,#145,.F.);
#242=ORIENTED_EDGE('',*,*,#225,.F.);
#243=ORIENTED_EDGE('',*,*,#244,.T.);
#244=EDGE_CURVE('',#218,#163,#245,.F.);
#245=LINE('',#246,#247);
#246=CARTESIAN_POINT('',(1.27,-1.27,0.224506403));
#247=VECTOR('',#248,1.0);
#248=DIRECTION('',(0.0,1.0,0.0));
#249=PLANE('',#250);
#250=AXIS2_PLACEMENT_3D('',#251,#252,#253);
#251=CARTESIAN_POINT('',(1.045493597,-1.27,0.0));
#252=DIRECTION('',(0.707106781,0.0,-0.707106781));
#253=DIRECTION('',(0.707106781,0.0,0.707106781));
#254=ADVANCED_FACE('',(#255),#280,.F.);
#255=FACE_BOUND('',#256,.T.);
#256=EDGE_LOOP('',(#257,#265,#266,#274));
#257=ORIENTED_EDGE('',*,*,#258,.T.);
#258=EDGE_CURVE('',#259,#165,#261,.T.);
#259=VERTEX_POINT('',#260);
#260=CARTESIAN_POINT('',(1.494506403,-1.27,2.79));
#261=LINE('',#262,#263);
#262=CARTESIAN_POINT('',(0.954670935,-0.730164532,2.250164532));
#263=VECTOR('',#264,1.0);
#264=DIRECTION('',(-0.577350269,0.577350269,-0.577350269));
#265=ORIENTED_EDGE('',*,*,#162,.F.);
#266=ORIENTED_EDGE('',*,*,#267,.T.);
#267=EDGE_CURVE('',#163,#268,#270,.T.);
#268=VERTEX_POINT('',#269);
#269=CARTESIAN_POINT('',(1.494506403,-1.27,-1.387778781E-17));
#270=LINE('',#271,#272);
#271=CARTESIAN_POINT('',(1.419670935,-1.195164532,0.074835468));
#272=VECTOR('',#273,1.0);
#273=DIRECTION('',(0.577350269,-0.577350269,-0.577350269));
#274=ORIENTED_EDGE('',*,*,#275,.T.);
#275=EDGE_CURVE('',#268,#259,#276,.T.);
#276=LINE('',#277,#278);
#277=CARTESIAN_POINT('',(1.494506403,-1.27,0.0));
#278=VECTOR('',#279,1.0);
#279=DIRECTION('',(0.0,0.0,1.0));
#280=PLANE('',#281);
#281=AXIS2_PLACEMENT_3D('',#282,#283,#284);
#282=CARTESIAN_POINT('',(1.494506403,-1.27,0.0));
#283=DIRECTION('',(0.707106781,0.707106781,0.0));
#284=DIRECTION('',(0.0,0.0,1.0));
#285=ADVANCED_FACE('',(#286),#304,.F.);
#286=FACE_BOUND('',#287,.T.);
#287=EDGE_LOOP('',(#288,#296,#297,#298));
#288=ORIENTED_EDGE('',*,*,#289,.T.);
#289=EDGE_CURVE('',#290,#196,#292,.T.);
#290=VERTEX_POINT('',#291);
#291=CARTESIAN_POINT('',(1.494506403,1.27,2.79));
#292=LINE('',#293,#294);
#293=CARTESIAN_POINT('',(0.456502134,0.231995731,1.751995731));
#294=VECTOR('',#295,1.0);
#295=DIRECTION('',(-0.577350269,-0.577350269,-0.577350269));
#296=ORIENTED_EDGE('',*,*,#195,.F.);
#297=ORIENTED_EDGE('',*,*,#258,.F.);
#298=ORIENTED_EDGE('',*,*,#299,.T.);
#299=EDGE_CURVE('',#259,#290,#300,.T.);
#300=LINE('',#301,#302);
#301=CARTESIAN_POINT('',(1.494506403,-1.27,2.79));
#302=VECTOR('',#303,1.0);
#303=DIRECTION('',(0.0,1.0,0.0));
#304=PLANE('',#305);
#305=AXIS2_PLACEMENT_3D('',#306,#307,#308);
#306=CARTESIAN_POINT('',(1.27,-1.27,2.565493597));
#307=DIRECTION('',(0.707106781,0.0,-0.707106781));
#308=DIRECTION('',(0.707106781,0.0,0.707106781));
#309=ADVANCED_FACE('',(#310),#328,.T.);
#310=FACE_BOUND('',#311,.T.);
#311=EDGE_LOOP('',(#312,#320,#326,#327));
#312=ORIENTED_EDGE('',*,*,#313,.T.);
#313=EDGE_CURVE('',#290,#314,#316,.F.);
#314=VERTEX_POINT('',#315);
#315=CARTESIAN_POINT('',(1.494506403,1.27,0.0));
#316=LINE('',#317,#318);
#317=CARTESIAN_POINT('',(1.494506403,1.27,0.0));
#318=VECTOR('',#319,1.0);
#319=DIRECTION('',(0.0,0.0,1.0));
#320=ORIENTED_EDGE('',*,*,#321,.T.);
#321=EDGE_CURVE('',#314,#218,#322,.F.);
#322=LINE('',#323,#324);
#323=CARTESIAN_POINT('',(0.921502134,0.696995731,0.573004269));
#324=VECTOR('',#325,1.0);
#325=DIRECTION('',(0.577350269,0.577350269,-0.577350269));
#326=ORIENTED_EDGE('',*,*,#217,.F.);
#327=ORIENTED_EDGE('',*,*,#289,.F.);
#328=PLANE('',#329);
#329=AXIS2_PLACEMENT_3D('',#330,#331,#332);
#330=CARTESIAN_POINT('',(1.27,1.045493597,0.0));
#331=DIRECTION('',(-0.707106781,0.707106781,0.0));
#332=DIRECTION('',(0.0,0.0,1.0));
#333=ADVANCED_FACE('',(#334),#345,.F.);
#334=FACE_BOUND('',#335,.T.);
#335=EDGE_LOOP('',(#336,#337,#343,#344));
#336=ORIENTED_EDGE('',*,*,#321,.F.);
#337=ORIENTED_EDGE('',*,*,#338,.T.);
#338=EDGE_CURVE('',#314,#268,#339,.F.);
#339=LINE('',#340,#341);
#340=CARTESIAN_POINT('',(1.494506403,-1.27,-2.775557562E-17));
#341=VECTOR('',#342,1.0);
#342=DIRECTION('',(0.0,1.0,0.0));
#343=ORIENTED_EDGE('',*,*,#267,.F.);
#344=ORIENTED_EDGE('',*,*,#244,.F.);
#345=PLANE('',#346);
#346=AXIS2_PLACEMENT_3D('',#347,#348,#349);
#347=CARTESIAN_POINT('',(1.27,-1.27,0.224506403));
#348=DIRECTION('',(0.707106781,0.0,0.707106781));
#349=DIRECTION('',(0.707106781,0.0,-0.707106781));
#350=ADVANCED_FACE('',(#351),#376,.F.);
#351=FACE_BOUND('',#352,.T.);
#352=EDGE_LOOP('',(#353,#363,#369,#370));
#353=ORIENTED_EDGE('',*,*,#354,.T.);
#354=EDGE_CURVE('',#355,#357,#359,.T.);
#355=VERTEX_POINT('',#356);
#356=CARTESIAN_POINT('',(3.585493597,-1.27,0.0));
#357=VERTEX_POINT('',#358);
#358=CARTESIAN_POINT('',(3.585493597,-1.27,2.79));
#359=LINE('',#360,#361);
#360=CARTESIAN_POINT('',(3.585493597,-1.27,0.0));
#361=VECTOR('',#362,1.0);
#362=DIRECTION('',(0.0,0.0,1.0));
#363=ORIENTED_EDGE('',*,*,#364,.T.);
#364=EDGE_CURVE('',#357,#259,#365,.F.);
#365=LINE('',#366,#367);
#366=CARTESIAN_POINT('',(-1.27,-1.27,2.79));
#367=VECTOR('',#368,1.0);
#368=DIRECTION('',(1.0,0.0,0.0));
#369=ORIENTED_EDGE('',*,*,#275,.F.);
#370=ORIENTED_EDGE('',*,*,#371,.T.);
#371=EDGE_CURVE('',#268,#355,#372,.T.);
#372=LINE('',#373,#374);
#373=CARTESIAN_POINT('',(-1.27,-1.27,0.0));
#374=VECTOR('',#375,1.0);
#375=DIRECTION('',(1.0,0.0,0.0));
#376=PLANE('',#377);
#377=AXIS2_PLACEMENT_3D('',#378,#379,#380);
#378=CARTESIAN_POINT('',(-1.27,-1.27,0.0));
#379=DIRECTION('',(0.0,1.0,0.0));
#380=DIRECTION('',(0.0,0.0,1.0));
#381=ADVANCED_FACE('',(#382),#400,.T.);
#382=FACE_BOUND('',#383,.T.);
#383=EDGE_LOOP('',(#384,#392,#393,#394));
#384=ORIENTED_EDGE('',*,*,#385,.T.);
#385=EDGE_CURVE('',#386,#290,#388,.F.);
#386=VERTEX_POINT('',#387);
#387=CARTESIAN_POINT('',(3.585493597,1.27,2.79));
#388=LINE('',#389,#390);
#389=CARTESIAN_POINT('',(-1.27,1.27,2.79));
#390=VECTOR('',#391,1.0);
#391=DIRECTION('',(1.0,0.0,0.0));
#392=ORIENTED_EDGE('',*,*,#299,.F.);
#393=ORIENTED_EDGE('',*,*,#364,.F.);
#394=ORIENTED_EDGE('',*,*,#395,.T.);
#395=EDGE_CURVE('',#357,#386,#396,.T.);
#396=LINE('',#397,#398);
#397=CARTESIAN_POINT('',(3.585493597,-1.27,2.79));
#398=VECTOR('',#399,1.0);
#399=DIRECTION('',(0.0,1.0,0.0));
#400=PLANE('',#401);
#401=AXIS2_PLACEMENT_3D('',#402,#403,#404);
#402=CARTESIAN_POINT('',(-1.27,-1.27,2.79));
#403=DIRECTION('',(0.0,0.0,1.0));
#404=DIRECTION('',(1.0,0.0,0.0));
#405=ADVANCED_FACE('',(#406),#424,.T.);
#406=FACE_BOUND('',#407,.T.);
#407=EDGE_LOOP('',(#408,#416,#417,#418));
#408=ORIENTED_EDGE('',*,*,#409,.T.);
#409=EDGE_CURVE('',#410,#314,#412,.F.);
#410=VERTEX_POINT('',#411);
#411=CARTESIAN_POINT('',(3.585493597,1.27,0.0));
#412=LINE('',#413,#414);
#413=CARTESIAN_POINT('',(-1.27,1.27,0.0));
#414=VECTOR('',#415,1.0);
#415=DIRECTION('',(1.0,0.0,0.0));
#416=ORIENTED_EDGE('',*,*,#313,.F.);
#417=ORIENTED_EDGE('',*,*,#385,.F.);
#418=ORIENTED_EDGE('',*,*,#419,.T.);
#419=EDGE_CURVE('',#386,#410,#420,.F.);
#420=LINE('',#421,#422);
#421=CARTESIAN_POINT('',(3.585493597,1.27,0.0));
#422=VECTOR('',#423,1.0);
#423=DIRECTION('',(0.0,0.0,1.0));
#424=PLANE('',#425);
#425=AXIS2_PLACEMENT_3D('',#426,#427,#428);
#426=CARTESIAN_POINT('',(-1.27,1.27,0.0));
#427=DIRECTION('',(0.0,1.0,0.0));
#428=DIRECTION('',(0.0,0.0,1.0));
#429=ADVANCED_FACE('',(#430),#441,.F.);
#430=FACE_BOUND('',#431,.T.);
#431=EDGE_LOOP('',(#432,#438,#439,#440));
#432=ORIENTED_EDGE('',*,*,#433,.T.);
#433=EDGE_CURVE('',#410,#355,#434,.F.);
#434=LINE('',#435,#436);
#435=CARTESIAN_POINT('',(3.585493597,-1.27,0.0));
#436=VECTOR('',#437,1.0);
#437=DIRECTION('',(0.0,1.0,0.0));
#438=ORIENTED_EDGE('',*,*,#371,.F.);
#439=ORIENTED_EDGE('',*,*,#338,.F.);
#440=ORIENTED_EDGE('',*,*,#409,.F.);
#441=PLANE('',#442);
#442=AXIS2_PLACEMENT_3D('',#443,#444,#445);
#443=CARTESIAN_POINT('',(-1.27,-1.27,0.0));
#444=DIRECTION('',(0.0,0.0,1.0));
#445=DIRECTION('',(1.0,0.0,0.0));
#446=ADVANCED_FACE('',(#447),#472,.F.);
#447=FACE_BOUND('',#448,.T.);
#448=EDGE_LOOP('',(#449,#459,#465,#466));
#449=ORIENTED_EDGE('',*,*,#450,.T.);
#450=EDGE_CURVE('',#451,#453,#455,.T.);
#451=VERTEX_POINT('',#452);
#452=CARTESIAN_POINT('',(3.81,-1.045493597,0.224506403));
#453=VERTEX_POINT('',#454);
#454=CARTESIAN_POINT('',(3.81,-1.045493597,2.565493597));
#455=LINE('',#456,#457);
#456=CARTESIAN_POINT('',(3.81,-1.045493597,0.0));
#457=VECTOR('',#458,1.0);
#458=DIRECTION('',(0.0,0.0,1.0));
#459=ORIENTED_EDGE('',*,*,#460,.T.);
#460=EDGE_CURVE('',#453,#357,#461,.F.);
#461=LINE('',#462,#463);
#462=CARTESIAN_POINT('',(4.050493597,-0.805,2.325));
#463=VECTOR('',#464,1.0);
#464=DIRECTION('',(0.577350269,0.577350269,-0.577350269));
#465=ORIENTED_EDGE('',*,*,#354,.F.);
#466=ORIENTED_EDGE('',*,*,#467,.T.);
#467=EDGE_CURVE('',#355,#451,#468,.F.);
#468=LINE('',#469,#470);
#469=CARTESIAN_POINT('',(3.585493597,-1.27,0.0));
#470=VECTOR('',#471,1.0);
#471=DIRECTION('',(-0.577350269,-0.577350269,-0.577350269));
#472=PLANE('',#473);
#473=AXIS2_PLACEMENT_3D('',#474,#475,#476);
#474=CARTESIAN_POINT('',(3.585493597,-1.27,0.0));
#475=DIRECTION('',(-0.707106781,0.707106781,0.0));
#476=DIRECTION('',(0.0,0.0,1.0));
#477=ADVANCED_FACE('',(#478),#496,.T.);
#478=FACE_BOUND('',#479,.T.);
#479=EDGE_LOOP('',(#480,#481,#482,#490));
#480=ORIENTED_EDGE('',*,*,#395,.F.);
#481=ORIENTED_EDGE('',*,*,#460,.F.);
#482=ORIENTED_EDGE('',*,*,#483,.T.);
#483=EDGE_CURVE('',#453,#484,#486,.T.);
#484=VERTEX_POINT('',#485);
#485=CARTESIAN_POINT('',(3.81,1.045493597,2.565493597));
#486=LINE('',#487,#488);
#487=CARTESIAN_POINT('',(3.81,-1.27,2.565493597));
#488=VECTOR('',#489,1.0);
#489=DIRECTION('',(0.0,1.0,0.0));
#490=ORIENTED_EDGE('',*,*,#491,.T.);
#491=EDGE_CURVE('',#484,#386,#492,.F.);
#492=LINE('',#493,#494);
#493=CARTESIAN_POINT('',(4.548662398,0.306831199,1.826831199));
#494=VECTOR('',#495,1.0);
#495=DIRECTION('',(0.577350269,-0.577350269,-0.577350269));
#496=PLANE('',#497);
#497=AXIS2_PLACEMENT_3D('',#498,#499,#500);
#498=CARTESIAN_POINT('',(3.585493597,-1.27,2.79));
#499=DIRECTION('',(0.707106781,0.0,0.707106781));
#500=DIRECTION('',(0.707106781,0.0,-0.707106781));
#501=ADVANCED_FACE('',(#502),#520,.T.);
#502=FACE_BOUND('',#503,.T.);
#503=EDGE_LOOP('',(#504,#512,#518,#519));
#504=ORIENTED_EDGE('',*,*,#505,.T.);
#505=EDGE_CURVE('',#484,#506,#508,.F.);
#506=VERTEX_POINT('',#507);
#507=CARTESIAN_POINT('',(3.81,1.045493597,0.224506403));
#508=LINE('',#509,#510);
#509=CARTESIAN_POINT('',(3.81,1.045493597,0.0));
#510=VECTOR('',#511,1.0);
#511=DIRECTION('',(0.0,0.0,1.0));
#512=ORIENTED_EDGE('',*,*,#513,.T.);
#513=EDGE_CURVE('',#506,#410,#514,.T.);
#514=LINE('',#515,#516);
#515=CARTESIAN_POINT('',(4.083662398,0.771831199,0.498168801));
#516=VECTOR('',#517,1.0);
#517=DIRECTION('',(-0.577350269,0.577350269,-0.577350269));
#518=ORIENTED_EDGE('',*,*,#419,.F.);
#519=ORIENTED_EDGE('',*,*,#491,.F.);
#520=PLANE('',#521);
#521=AXIS2_PLACEMENT_3D('',#522,#523,#524);
#522=CARTESIAN_POINT('',(3.81,1.045493597,0.0));
#523=DIRECTION('',(0.707106781,0.707106781,0.0));
#524=DIRECTION('',(0.0,0.0,1.0));
#525=ADVANCED_FACE('',(#526),#537,.T.);
#526=FACE_BOUND('',#527,.T.);
#527=EDGE_LOOP('',(#528,#529,#530,#531));
#528=ORIENTED_EDGE('',*,*,#467,.F.);
#529=ORIENTED_EDGE('',*,*,#433,.F.);
#530=ORIENTED_EDGE('',*,*,#513,.F.);
#531=ORIENTED_EDGE('',*,*,#532,.T.);
#532=EDGE_CURVE('',#506,#451,#533,.F.);
#533=LINE('',#534,#535);
#534=CARTESIAN_POINT('',(3.81,-1.27,0.224506403));
#535=VECTOR('',#536,1.0);
#536=DIRECTION('',(0.0,1.0,0.0));
#537=PLANE('',#538);
#538=AXIS2_PLACEMENT_3D('',#539,#540,#541);
#539=CARTESIAN_POINT('',(3.585493597,-1.27,0.0));
#540=DIRECTION('',(0.707106781,0.0,-0.707106781));
#541=DIRECTION('',(0.707106781,0.0,0.707106781));
#542=ADVANCED_FACE('',(#543),#568,.F.);
#543=FACE_BOUND('',#544,.T.);
#544=EDGE_LOOP('',(#545,#553,#554,#562));
#545=ORIENTED_EDGE('',*,*,#546,.T.);
#546=EDGE_CURVE('',#547,#453,#549,.T.);
#547=VERTEX_POINT('',#548);
#548=CARTESIAN_POINT('',(4.034506403,-1.27,2.79));
#549=LINE('',#550,#551);
#550=CARTESIAN_POINT('',(3.494670935,-0.730164532,2.250164532));
#551=VECTOR('',#552,1.0);
#552=DIRECTION('',(-0.577350269,0.577350269,-0.577350269));
#553=ORIENTED_EDGE('',*,*,#450,.F.);
#554=ORIENTED_EDGE('',*,*,#555,.T.);
#555=EDGE_CURVE('',#451,#556,#558,.T.);
#556=VERTEX_POINT('',#557);
#557=CARTESIAN_POINT('',(4.034506403,-1.27,-1.387778781E-17));
#558=LINE('',#559,#560);
#559=CARTESIAN_POINT('',(3.959670935,-1.195164532,0.074835468));
#560=VECTOR('',#561,1.0);
#561=DIRECTION('',(0.577350269,-0.577350269,-0.577350269));
#562=ORIENTED_EDGE('',*,*,#563,.T.);
#563=EDGE_CURVE('',#556,#547,#564,.T.);
#564=LINE('',#565,#566);
#565=CARTESIAN_POINT('',(4.034506403,-1.27,0.0));
#566=VECTOR('',#567,1.0);
#567=DIRECTION('',(0.0,0.0,1.0));
#568=PLANE('',#569);
#569=AXIS2_PLACEMENT_3D('',#570,#571,#572);
#570=CARTESIAN_POINT('',(4.034506403,-1.27,0.0));
#571=DIRECTION('',(0.707106781,0.707106781,0.0));
#572=DIRECTION('',(0.0,0.0,1.0));
#573=ADVANCED_FACE('',(#574),#592,.F.);
#574=FACE_BOUND('',#575,.T.);
#575=EDGE_LOOP('',(#576,#584,#585,#586));
#576=ORIENTED_EDGE('',*,*,#577,.T.);
#577=EDGE_CURVE('',#578,#484,#580,.T.);
#578=VERTEX_POINT('',#579);
#579=CARTESIAN_POINT('',(4.034506403,1.27,2.79));
#580=LINE('',#581,#582);
#581=CARTESIAN_POINT('',(2.996502134,0.231995731,1.751995731));
#582=VECTOR('',#583,1.0);
#583=DIRECTION('',(-0.577350269,-0.577350269,-0.577350269));
#584=ORIENTED_EDGE('',*,*,#483,.F.);
#585=ORIENTED_EDGE('',*,*,#546,.F.);
#586=ORIENTED_EDGE('',*,*,#587,.T.);
#587=EDGE_CURVE('',#547,#578,#588,.T.);
#588=LINE('',#589,#590);
#589=CARTESIAN_POINT('',(4.034506403,-1.27,2.79));
#590=VECTOR('',#591,1.0);
#591=DIRECTION('',(0.0,1.0,0.0));
#592=PLANE('',#593);
#593=AXIS2_PLACEMENT_3D('',#594,#595,#596);
#594=CARTESIAN_POINT('',(3.81,-1.27,2.565493597));
#595=DIRECTION('',(0.707106781,0.0,-0.707106781));
#596=DIRECTION('',(0.707106781,0.0,0.707106781));
#597=ADVANCED_FACE('',(#598),#616,.T.);
#598=FACE_BOUND('',#599,.T.);
#599=EDGE_LOOP('',(#600,#608,#614,#615));
#600=ORIENTED_EDGE('',*,*,#601,.T.);
#601=EDGE_CURVE('',#578,#602,#604,.F.);
#602=VERTEX_POINT('',#603);
#603=CARTESIAN_POINT('',(4.034506403,1.27,0.0));
#604=LINE('',#605,#606);
#605=CARTESIAN_POINT('',(4.034506403,1.27,0.0));
#606=VECTOR('',#607,1.0);
#607=DIRECTION('',(0.0,0.0,1.0));
#608=ORIENTED_EDGE('',*,*,#609,.T.);
#609=EDGE_CURVE('',#602,#506,#610,.F.);
#610=LINE('',#611,#612);
#611=CARTESIAN_POINT('',(3.461502134,0.696995731,0.573004269));
#612=VECTOR('',#613,1.0);
#613=DIRECTION('',(0.577350269,0.577350269,-0.577350269));
#614=ORIENTED_EDGE('',*,*,#505,.F.);
#615=ORIENTED_EDGE('',*,*,#577,.F.);
#616=PLANE('',#617);
#617=AXIS2_PLACEMENT_3D('',#618,#619,#620);
#618=CARTESIAN_POINT('',(3.81,1.045493597,0.0));
#619=DIRECTION('',(-0.707106781,0.707106781,0.0));
#620=DIRECTION('',(0.0,0.0,1.0));
#621=ADVANCED_FACE('',(#622),#633,.F.);
#622=FACE_BOUND('',#623,.T.);
#623=EDGE_LOOP('',(#624,#625,#631,#632));
#624=ORIENTED_EDGE('',*,*,#609,.F.);
#625=ORIENTED_EDGE('',*,*,#626,.T.);
#626=EDGE_CURVE('',#602,#556,#627,.F.);
#627=LINE('',#628,#629);
#628=CARTESIAN_POINT('',(4.034506403,-1.27,-2.775557562E-17));
#629=VECTOR('',#630,1.0);
#630=DIRECTION('',(0.0,1.0,0.0));
#631=ORIENTED_EDGE('',*,*,#555,.F.);
#632=ORIENTED_EDGE('',*,*,#532,.F.);
#633=PLANE('',#634);
#634=AXIS2_PLACEMENT_3D('',#635,#636,#637);
#635=CARTESIAN_POINT('',(3.81,-1.27,0.224506403));
#636=DIRECTION('',(0.707106781,0.0,0.707106781));
#637=DIRECTION('',(0.707106781,0.0,-0.707106781));
#638=ADVANCED_FACE('',(#639),#664,.F.);
#639=FACE_BOUND('',#640,.T.);
#640=EDGE_LOOP('',(#641,#651,#657,#658));
#641=ORIENTED_EDGE('',*,*,#642,.T.);
#642=EDGE_CURVE('',#643,#645,#647,.T.);
#643=VERTEX_POINT('',#644);
#644=CARTESIAN_POINT('',(6.125493597,-1.27,0.0));
#645=VERTEX_POINT('',#646);
#646=CARTESIAN_POINT('',(6.125493597,-1.27,2.79));
#647=LINE('',#648,#649);
#648=CARTESIAN_POINT('',(6.125493597,-1.27,0.0));
#649=VECTOR('',#650,1.0);
#650=DIRECTION('',(0.0,0.0,1.0));
#651=ORIENTED_EDGE('',*,*,#652,.T.);
#652=EDGE_CURVE('',#645,#547,#653,.F.);
#653=LINE('',#654,#655);
#654=CARTESIAN_POINT('',(-1.27,-1.27,2.79));
#655=VECTOR('',#656,1.0);
#656=DIRECTION('',(1.0,0.0,0.0));
#657=ORIENTED_EDGE('',*,*,#563,.F.);
#658=ORIENTED_EDGE('',*,*,#659,.T.);
#659=EDGE_CURVE('',#556,#643,#660,.T.);
#660=LINE('',#661,#662);
#661=CARTESIAN_POINT('',(-1.27,-1.27,0.0));
#662=VECTOR('',#663,1.0);
#663=DIRECTION('',(1.0,0.0,0.0));
#664=PLANE('',#665);
#665=AXIS2_PLACEMENT_3D('',#666,#667,#668);
#666=CARTESIAN_POINT('',(-1.27,-1.27,0.0));
#667=DIRECTION('',(0.0,1.0,0.0));
#668=DIRECTION('',(0.0,0.0,1.0));
#669=ADVANCED_FACE('',(#670),#688,.T.);
#670=FACE_BOUND('',#671,.T.);
#671=EDGE_LOOP('',(#672,#680,#681,#682));
#672=ORIENTED_EDGE('',*,*,#673,.T.);
#673=EDGE_CURVE('',#674,#578,#676,.F.);
#674=VERTEX_POINT('',#675);
#675=CARTESIAN_POINT('',(6.125493597,1.27,2.79));
#676=LINE('',#677,#678);
#677=CARTESIAN_POINT('',(-1.27,1.27,2.79));
#678=VECTOR('',#679,1.0);
#679=DIRECTION('',(1.0,0.0,0.0));
#680=ORIENTED_EDGE('',*,*,#587,.F.);
#681=ORIENTED_EDGE('',*,*,#652,.F.);
#682=ORIENTED_EDGE('',*,*,#683,.T.);
#683=EDGE_CURVE('',#645,#674,#684,.T.);
#684=LINE('',#685,#686);
#685=CARTESIAN_POINT('',(6.125493597,-1.27,2.79));
#686=VECTOR('',#687,1.0);
#687=DIRECTION('',(0.0,1.0,0.0));
#688=PLANE('',#689);
#689=AXIS2_PLACEMENT_3D('',#690,#691,#692);
#690=CARTESIAN_POINT('',(-1.27,-1.27,2.79));
#691=DIRECTION('',(0.0,0.0,1.0));
#692=DIRECTION('',(1.0,0.0,0.0));
#693=ADVANCED_FACE('',(#694),#712,.T.);
#694=FACE_BOUND('',#695,.T.);
#695=EDGE_LOOP('',(#696,#704,#705,#706));
#696=ORIENTED_EDGE('',*,*,#697,.T.);
#697=EDGE_CURVE('',#698,#602,#700,.F.);
#698=VERTEX_POINT('',#699);
#699=CARTESIAN_POINT('',(6.125493597,1.27,0.0));
#700=LINE('',#701,#702);
#701=CARTESIAN_POINT('',(-1.27,1.27,0.0));
#702=VECTOR('',#703,1.0);
#703=DIRECTION('',(1.0,0.0,0.0));
#704=ORIENTED_EDGE('',*,*,#601,.F.);
#705=ORIENTED_EDGE('',*,*,#673,.F.);
#706=ORIENTED_EDGE('',*,*,#707,.T.);
#707=EDGE_CURVE('',#674,#698,#708,.F.);
#708=LINE('',#709,#710);
#709=CARTESIAN_POINT('',(6.125493597,1.27,0.0));
#710=VECTOR('',#711,1.0);
#711=DIRECTION('',(0.0,0.0,1.0));
#712=PLANE('',#713);
#713=AXIS2_PLACEMENT_3D('',#714,#715,#716);
#714=CARTESIAN_POINT('',(-1.27,1.27,0.0));
#715=DIRECTION('',(0.0,1.0,0.0));
#716=DIRECTION('',(0.0,0.0,1.0));
#717=ADVANCED_FACE('',(#718),#729,.F.);
#718=FACE_BOUND('',#719,.T.);
#719=EDGE_LOOP('',(#720,#726,#727,#728));
#720=ORIENTED_EDGE('',*,*,#721,.T.);
#721=EDGE_CURVE('',#698,#643,#722,.F.);
#722=LINE('',#723,#724);
#723=CARTESIAN_POINT('',(6.125493597,-1.27,0.0));
#724=VECTOR('',#725,1.0);
#725=DIRECTION('',(0.0,1.0,0.0));
#726=ORIENTED_EDGE('',*,*,#659,.F.);
#727=ORIENTED_EDGE('',*,*,#626,.F.);
#728=ORIENTED_EDGE('',*,*,#697,.F.);
#729=PLANE('',#730);
#730=AXIS2_PLACEMENT_3D('',#731,#732,#733);
#731=CARTESIAN_POINT('',(-1.27,-1.27,0.0));
#732=DIRECTION('',(0.0,0.0,1.0));
#733=DIRECTION('',(1.0,0.0,0.0));
#734=ADVANCED_FACE('',(#735),#760,.F.);
#735=FACE_BOUND('',#736,.T.);
#736=EDGE_LOOP('',(#737,#747,#753,#754));
#737=ORIENTED_EDGE('',*,*,#738,.T.);
#738=EDGE_CURVE('',#739,#741,#743,.T.);
#739=VERTEX_POINT('',#740);
#740=CARTESIAN_POINT('',(6.35,-1.045493597,0.224506403));
#741=VERTEX_POINT('',#742);
#742=CARTESIAN_POINT('',(6.35,-1.045493597,2.565493597));
#743=LINE('',#744,#745);
#744=CARTESIAN_POINT('',(6.35,-1.045493597,0.0));
#745=VECTOR('',#746,1.0);
#746=DIRECTION('',(0.0,0.0,1.0));
#747=ORIENTED_EDGE('',*,*,#748,.T.);
#748=EDGE_CURVE('',#741,#645,#749,.F.);
#749=LINE('',#750,#751);
#750=CARTESIAN_POINT('',(6.590493597,-0.805,2.325));
#751=VECTOR('',#752,1.0);
#752=DIRECTION('',(0.577350269,0.577350269,-0.577350269));
#753=ORIENTED_EDGE('',*,*,#642,.F.);
#754=ORIENTED_EDGE('',*,*,#755,.T.);
#755=EDGE_CURVE('',#643,#739,#756,.F.);
#756=LINE('',#757,#758);
#757=CARTESIAN_POINT('',(6.125493597,-1.27,0.0));
#758=VECTOR('',#759,1.0);
#759=DIRECTION('',(-0.577350269,-0.577350269,-0.577350269));
#760=PLANE('',#761);
#761=AXIS2_PLACEMENT_3D('',#762,#763,#764);
#762=CARTESIAN_POINT('',(6.125493597,-1.27,0.0));
#763=DIRECTION('',(-0.707106781,0.707106781,0.0));
#764=DIRECTION('',(0.0,0.0,1.0));
#765=ADVANCED_FACE('',(#766),#784,.T.);
#766=FACE_BOUND('',#767,.T.);
#767=EDGE_LOOP('',(#768,#769,#770,#778));
#768=ORIENTED_EDGE('',*,*,#683,.F.);
#769=ORIENTED_EDGE('',*,*,#748,.F.);
#770=ORIENTED_EDGE('',*,*,#771,.T.);
#771=EDGE_CURVE('',#741,#772,#774,.T.);
#772=VERTEX_POINT('',#773);
#773=CARTESIAN_POINT('',(6.35,1.045493597,2.565493597));
#774=LINE('',#775,#776);
#775=CARTESIAN_POINT('',(6.35,-1.27,2.565493597));
#776=VECTOR('',#777,1.0);
#777=DIRECTION('',(0.0,1.0,0.0));
#778=ORIENTED_EDGE('',*,*,#779,.T.);
#779=EDGE_CURVE('',#772,#674,#780,.F.);
#780=LINE('',#781,#782);
#781=CARTESIAN_POINT('',(7.088662398,0.306831199,1.826831199));
#782=VECTOR('',#783,1.0);
#783=DIRECTION('',(0.577350269,-0.577350269,-0.577350269));
#784=PLANE('',#785);
#785=AXIS2_PLACEMENT_3D('',#786,#787,#788);
#786=CARTESIAN_POINT('',(6.125493597,-1.27,2.79));
#787=DIRECTION('',(0.707106781,0.0,0.707106781));
#788=DIRECTION('',(0.707106781,0.0,-0.707106781));
#789=ADVANCED_FACE('',(#790),#808,.T.);
#790=FACE_BOUND('',#791,.T.);
#791=EDGE_LOOP('',(#792,#800,#806,#807));
#792=ORIENTED_EDGE('',*,*,#793,.T.);
#793=EDGE_CURVE('',#772,#794,#796,.F.);
#794=VERTEX_POINT('',#795);
#795=CARTESIAN_POINT('',(6.35,1.045493597,0.224506403));
#796=LINE('',#797,#798);
#797=CARTESIAN_POINT('',(6.35,1.045493597,0.0));
#798=VECTOR('',#799,1.0);
#799=DIRECTION('',(0.0,0.0,1.0));
#800=ORIENTED_EDGE('',*,*,#801,.T.);
#801=EDGE_CURVE('',#794,#698,#802,.T.);
#802=LINE('',#803,#804);
#803=CARTESIAN_POINT('',(6.623662398,0.771831199,0.498168801));
#804=VECTOR('',#805,1.0);
#805=DIRECTION('',(-0.577350269,0.577350269,-0.577350269));
#806=ORIENTED_EDGE('',*,*,#707,.F.);
#807=ORIENTED_EDGE('',*,*,#779,.F.);
#808=PLANE('',#809);
#809=AXIS2_PLACEMENT_3D('',#810,#811,#812);
#810=CARTESIAN_POINT('',(6.35,1.045493597,0.0));
#811=DIRECTION('',(0.707106781,0.707106781,0.0));
#812=DIRECTION('',(0.0,0.0,1.0));
#813=ADVANCED_FACE('',(#814),#825,.T.);
#814=FACE_BOUND('',#815,.T.);
#815=EDGE_LOOP('',(#816,#817,#818,#819));
#816=ORIENTED_EDGE('',*,*,#755,.F.);
#817=ORIENTED_EDGE('',*,*,#721,.F.);
#818=ORIENTED_EDGE('',*,*,#801,.F.);
#819=ORIENTED_EDGE('',*,*,#820,.T.);
#820=EDGE_CURVE('',#794,#739,#821,.F.);
#821=LINE('',#822,#823);
#822=CARTESIAN_POINT('',(6.35,-1.27,0.224506403));
#823=VECTOR('',#824,1.0);
#824=DIRECTION('',(0.0,1.0,0.0));
#825=PLANE('',#826);
#826=AXIS2_PLACEMENT_3D('',#827,#828,#829);
#827=CARTESIAN_POINT('',(6.125493597,-1.27,0.0));
#828=DIRECTION('',(0.707106781,0.0,-0.707106781));
#829=DIRECTION('',(0.707106781,0.0,0.707106781));
#830=ADVANCED_FACE('',(#831),#856,.F.);
#831=FACE_BOUND('',#832,.T.);
#832=EDGE_LOOP('',(#833,#841,#842,#850));
#833=ORIENTED_EDGE('',*,*,#834,.T.);
#834=EDGE_CURVE('',#835,#741,#837,.T.);
#835=VERTEX_POINT('',#836);
#836=CARTESIAN_POINT('',(6.574506403,-1.27,2.79));
#837=LINE('',#838,#839);
#838=CARTESIAN_POINT('',(6.034670935,-0.730164532,2.250164532));
#839=VECTOR('',#840,1.0);
#840=DIRECTION('',(-0.577350269,0.577350269,-0.577350269));
#841=ORIENTED_EDGE('',*,*,#738,.F.);
#842=ORIENTED_EDGE('',*,*,#843,.T.);
#843=EDGE_CURVE('',#739,#844,#846,.T.);
#844=VERTEX_POINT('',#845);
#845=CARTESIAN_POINT('',(6.574506403,-1.27,-1.387778781E-17));
#846=LINE('',#847,#848);
#847=CARTESIAN_POINT('',(6.499670935,-1.195164532,0.074835468));
#848=VECTOR('',#849,1.0);
#849=DIRECTION('',(0.577350269,-0.577350269,-0.577350269));
#850=ORIENTED_EDGE('',*,*,#851,.T.);
#851=EDGE_CURVE('',#844,#835,#852,.T.);
#852=LINE('',#853,#854);
#853=CARTESIAN_POINT('',(6.574506403,-1.27,0.0));
#854=VECTOR('',#855,1.0);
#855=DIRECTION('',(0.0,0.0,1.0));
#856=PLANE('',#857);
#857=AXIS2_PLACEMENT_3D('',#858,#859,#860);
#858=CARTESIAN_POINT('',(6.574506403,-1.27,0.0));
#859=DIRECTION('',(0.707106781,0.707106781,0.0));
#860=DIRECTION('',(0.0,0.0,1.0));
#861=ADVANCED_FACE('',(#862),#880,.F.);
#862=FACE_BOUND('',#863,.T.);
#863=EDGE_LOOP('',(#864,#872,#873,#874));
#864=ORIENTED_EDGE('',*,*,#865,.T.);
#865=EDGE_CURVE('',#866,#772,#868,.T.);
#866=VERTEX_POINT('',#867);
#867=CARTESIAN_POINT('',(6.574506403,1.27,2.79));
#868=LINE('',#869,#870);
#869=CARTESIAN_POINT('',(5.536502134,0.231995731,1.751995731));
#870=VECTOR('',#871,1.0);
#871=DIRECTION('',(-0.577350269,-0.577350269,-0.577350269));
#872=ORIENTED_EDGE('',*,*,#771,.F.);
#873=ORIENTED_EDGE('',*,*,#834,.F.);
#874=ORIENTED_EDGE('',*,*,#875,.T.);
#875=EDGE_CURVE('',#835,#866,#876,.T.);
#876=LINE('',#877,#878);
#877=CARTESIAN_POINT('',(6.574506403,-1.27,2.79));
#878=VECTOR('',#879,1.0);
#879=DIRECTION('',(0.0,1.0,0.0));
#880=PLANE('',#881);
#881=AXIS2_PLACEMENT_3D('',#882,#883,#884);
#882=CARTESIAN_POINT('',(6.35,-1.27,2.565493597));
#883=DIRECTION('',(0.707106781,0.0,-0.707106781));
#884=DIRECTION('',(0.707106781,0.0,0.707106781));
#885=ADVANCED_FACE('',(#886),#904,.T.);
#886=FACE_BOUND('',#887,.T.);
#887=EDGE_LOOP('',(#888,#896,#902,#903));
#888=ORIENTED_EDGE('',*,*,#889,.T.);
#889=EDGE_CURVE('',#866,#890,#892,.F.);
#890=VERTEX_POINT('',#891);
#891=CARTESIAN_POINT('',(6.574506403,1.27,0.0));
#892=LINE('',#893,#894);
#893=CARTESIAN_POINT('',(6.574506403,1.27,0.0));
#894=VECTOR('',#895,1.0);
#895=DIRECTION('',(0.0,0.0,1.0));
#896=ORIENTED_EDGE('',*,*,#897,.T.);
#897=EDGE_CURVE('',#890,#794,#898,.F.);
#898=LINE('',#899,#900);
#899=CARTESIAN_POINT('',(6.001502134,0.696995731,0.573004269));
#900=VECTOR('',#901,1.0);
#901=DIRECTION('',(0.577350269,0.577350269,-0.577350269));
#902=ORIENTED_EDGE('',*,*,#793,.F.);
#903=ORIENTED_EDGE('',*,*,#865,.F.);
#904=PLANE('',#905);
#905=AXIS2_PLACEMENT_3D('',#906,#907,#908);
#906=CARTESIAN_POINT('',(6.35,1.045493597,0.0));
#907=DIRECTION('',(-0.707106781,0.707106781,0.0));
#908=DIRECTION('',(0.0,0.0,1.0));
#909=ADVANCED_FACE('',(#910),#921,.F.);
#910=FACE_BOUND('',#911,.T.);
#911=EDGE_LOOP('',(#912,#913,#919,#920));
#912=ORIENTED_EDGE('',*,*,#897,.F.);
#913=ORIENTED_EDGE('',*,*,#914,.T.);
#914=EDGE_CURVE('',#890,#844,#915,.F.);
#915=LINE('',#916,#917);
#916=CARTESIAN_POINT('',(6.574506403,-1.27,-2.775557562E-17));
#917=VECTOR('',#918,1.0);
#918=DIRECTION('',(0.0,1.0,0.0));
#919=ORIENTED_EDGE('',*,*,#843,.F.);
#920=ORIENTED_EDGE('',*,*,#820,.F.);
#921=PLANE('',#922);
#922=AXIS2_PLACEMENT_3D('',#923,#924,#925);
#923=CARTESIAN_POINT('',(6.35,-1.27,0.224506403));
#924=DIRECTION('',(0.707106781,0.0,0.707106781));
#925=DIRECTION('',(0.707106781,0.0,-0.707106781));
#926=ADVANCED_FACE('',(#927),#952,.F.);
#927=FACE_BOUND('',#928,.T.);
#928=EDGE_LOOP('',(#929,#939,#945,#946));
#929=ORIENTED_EDGE('',*,*,#930,.T.);
#930=EDGE_CURVE('',#931,#933,#935,.T.);
#931=VERTEX_POINT('',#932);
#932=CARTESIAN_POINT('',(8.89,-1.27,0.0));
#933=VERTEX_POINT('',#934);
#934=CARTESIAN_POINT('',(8.89,-1.27,2.79));
#935=LINE('',#936,#937);
#936=CARTESIAN_POINT('',(8.89,-1.27,0.0));
#937=VECTOR('',#938,1.0);
#938=DIRECTION('',(0.0,0.0,1.0));
#939=ORIENTED_EDGE('',*,*,#940,.T.);
#940=EDGE_CURVE('',#933,#835,#941,.F.);
#941=LINE('',#942,#943);
#942=CARTESIAN_POINT('',(-1.27,-1.27,2.79));
#943=VECTOR('',#944,1.0);
#944=DIRECTION('',(1.0,0.0,0.0));
#945=ORIENTED_EDGE('',*,*,#851,.F.);
#946=ORIENTED_EDGE('',*,*,#947,.T.);
#947=EDGE_CURVE('',#844,#931,#948,.T.);
#948=LINE('',#949,#950);
#949=CARTESIAN_POINT('',(-1.27,-1.27,0.0));
#950=VECTOR('',#951,1.0);
#951=DIRECTION('',(1.0,0.0,0.0));
#952=PLANE('',#953);
#953=AXIS2_PLACEMENT_3D('',#954,#955,#956);
#954=CARTESIAN_POINT('',(-1.27,-1.27,0.0));
#955=DIRECTION('',(0.0,1.0,0.0));
#956=DIRECTION('',(0.0,0.0,1.0));
#957=ADVANCED_FACE('',(#958),#976,.T.);
#958=FACE_BOUND('',#959,.T.);
#959=EDGE_LOOP('',(#960,#968,#969,#970));
#960=ORIENTED_EDGE('',*,*,#961,.T.);
#961=EDGE_CURVE('',#962,#866,#964,.F.);
#962=VERTEX_POINT('',#963);
#963=CARTESIAN_POINT('',(8.89,1.27,2.79));
#964=LINE('',#965,#966);
#965=CARTESIAN_POINT('',(-1.27,1.27,2.79));
#966=VECTOR('',#967,1.0);
#967=DIRECTION('',(1.0,0.0,0.0));
#968=ORIENTED_EDGE('',*,*,#875,.F.);
#969=ORIENTED_EDGE('',*,*,#940,.F.);
#970=ORIENTED_EDGE('',*,*,#971,.T.);
#971=EDGE_CURVE('',#933,#962,#972,.T.);
#972=LINE('',#973,#974);
#973=CARTESIAN_POINT('',(8.89,-1.27,2.79));
#974=VECTOR('',#975,1.0);
#975=DIRECTION('',(0.0,1.0,0.0));
#976=PLANE('',#977);
#977=AXIS2_PLACEMENT_3D('',#978,#979,#980);
#978=CARTESIAN_POINT('',(-1.27,-1.27,2.79));
#979=DIRECTION('',(0.0,0.0,1.0));
#980=DIRECTION('',(1.0,0.0,0.0));
#981=ADVANCED_FACE('',(#982),#1000,.T.);
#982=FACE_BOUND('',#983,.T.);
#983=EDGE_LOOP('',(#984,#992,#993,#994));
#984=ORIENTED_EDGE('',*,*,#985,.T.);
#985=EDGE_CURVE('',#986,#890,#988,.F.);
#986=VERTEX_POINT('',#987);
#987=CARTESIAN_POINT('',(8.89,1.27,0.0));
#988=LINE('',#989,#990);
#989=CARTESIAN_POINT('',(-1.27,1.27,0.0));
#990=VECTOR('',#991,1.0);
#991=DIRECTION('',(1.0,0.0,0.0));
#992=ORIENTED_EDGE('',*,*,#889,.F.);
#993=ORIENTED_EDGE('',*,*,#961,.F.);
#994=ORIENTED_EDGE('',*,*,#995,.T.);
#995=EDGE_CURVE('',#962,#986,#996,.F.);
#996=LINE('',#997,#998);
#997=CARTESIAN_POINT('',(8.89,1.27,0.0));
#998=VECTOR('',#999,1.0);
#999=DIRECTION('',(0.0,0.0,1.0));
#1000=PLANE('',#1001);
#1001=AXIS2_PLACEMENT_3D('',#1002,#1003,#1004);
#1002=CARTESIAN_POINT('',(-1.27,1.27,0.0));
#1003=DIRECTION('',(0.0,1.0,0.0));
#1004=DIRECTION('',(0.0,0.0,1.0));
#1005=ADVANCED_FACE('',(#1006),#1017,.F.);
#1006=FACE_BOUND('',#1007,.T.);
#1007=EDGE_LOOP('',(#1008,#1014,#1015,#1016));
#1008=ORIENTED_EDGE('',*,*,#1009,.T.);
#1009=EDGE_CURVE('',#986,#931,#1010,.F.);
#1010=LINE('',#1011,#1012);
#1011=CARTESIAN_POINT('',(8.89,-1.27,0.0));
#1012=VECTOR('',#1013,1.0);
#1013=DIRECTION('',(0.0,1.0,0.0));
#1014=ORIENTED_EDGE('',*,*,#947,.F.);
#1015=ORIENTED_EDGE('',*,*,#914,.F.);
#1016=ORIENTED_EDGE('',*,*,#985,.F.);
#1017=PLANE('',#1018);
#1018=AXIS2_PLACEMENT_3D('',#1019,#1020,#1021);
#1019=CARTESIAN_POINT('',(-1.27,-1.27,0.0));
#1020=DIRECTION('',(0.0,0.0,1.0));
#1021=DIRECTION('',(1.0,0.0,0.0));
#1022=ADVANCED_FACE('',(#1023),#1029,.T.);
#1023=FACE_BOUND('',#1024,.T.);
#1024=EDGE_LOOP('',(#1025,#1026,#1027,#1028));
#1025=ORIENTED_EDGE('',*,*,#930,.F.);
#1026=ORIENTED_EDGE('',*,*,#1009,.F.);
#1027=ORIENTED_EDGE('',*,*,#995,.F.);
#1028=ORIENTED_EDGE('',*,*,#971,.F.);
#1029=PLANE('',#1030);
#1030=AXIS2_PLACEMENT_3D('',#1031,#1032,#1033);
#1031=CARTESIAN_POINT('',(8.89,-1.27,0.0));
#1032=DIRECTION('',(1.0,0.0,0.0));
#1033=DIRECTION('',(0.0,0.0,1.0));
#1034=(GEOMETRIC_REPRESENTATION_CONTEXT(3)GLOBAL_UNCERTAINTY_ASSIGNED_CONTEXT((#1035))GLOBAL_UNIT_ASSIGNED_CONTEXT((#14,#15,#16))REPRESENTATION_CONTEXT('',''));
#1035=UNCERTAINTY_MEASURE_WITH_UNIT(LENGTH_MEASURE(1.0E-07),#14,'','maximum tolerance');
#1036=ADVANCED_BREP_SHAPE_REPRESENTATION('',(#20,#9),#1034);
#1037=(REPRESENTATION_RELATIONSHIP('',$,#1036,#17)REPRESENTATION_RELATIONSHIP_WITH_TRANSFORMATION(#1038)SHAPE_REPRESENTATION_RELATIONSHIP());
#1038=ITEM_DEFINED_TRANSFORMATION('',$,#9,#9);
#1039=PRODUCT('Body','Body',$,(#3));
#1040=PRODUCT_DEFINITION_FORMATION('',$,#1039);
#1041=PRODUCT_DEFINITION('design',$,#1040,#6);
#1042=NEXT_ASSEMBLY_USAGE_OCCURRENCE('instance_1','','',#7,#1041,$);
#1043=PRODUCT_DEFINITION_SHAPE('',$,#1042);
#1044=CONTEXT_DEPENDENT_SHAPE_REPRESENTATION(#1037,#1043);
#1045=PRODUCT_DEFINITION_SHAPE('',$,#1041);
#1046=SHAPE_DEFINITION_REPRESENTATION(#1045,#1036);
#1047=PRODUCT_RELATED_PRODUCT_CATEGORY('part',$,(#1039));
#1048=STYLED_ITEM('',(#1049),#20);
#1049=PRESENTATION_STYLE_ASSIGNMENT((#1050));
#1050=SURFACE_STYLE_USAGE(.BOTH.,#1051);
#1051=SURFACE_SIDE_STYLE('',(#1052));
#1052=SURFACE_STYLE_FILL_AREA(#1053);
#1053=FILL_AREA_STYLE('',(#1055));
#1054=COLOUR_RGB('',0.300000012,0.300000012,0.300000012);
#1055=FILL_AREA_STYLE_COLOUR('',#1054);
#1056=MECHANICAL_DESIGN_GEOMETRIC_PRESENTATION_REPRESENTATION('',(#1048),#1034);
#1057=MANIFOLD_SOLID_BREP('',#1058);
#1058=CLOSED_SHELL('',(#1059,#1099,#1130,#1161,#1192,#1223,#1245,#1269,#1293,#1317,#1334,#1358,#1375,#1387));
#1059=ADVANCED_FACE('',(#1060),#1094,.F.);
#1060=FACE_BOUND('',#1061,.T.);
#1061=EDGE_LOOP('',(#1062,#1072,#1080,#1088));
#1062=ORIENTED_EDGE('',*,*,#1063,.T.);
#1063=EDGE_CURVE('',#1064,#1066,#1068,.T.);
#1064=VERTEX_POINT('',#1065);
#1065=CARTESIAN_POINT('',(-0.32,-0.32,8.384));
#1066=VERTEX_POINT('',#1067);
#1067=CARTESIAN_POINT('',(-0.32,0.32,8.384));
#1068=LINE('',#1069,#1070);
#1069=CARTESIAN_POINT('',(-0.32,-0.32,8.384));
#1070=VECTOR('',#1071,1.0);
#1071=DIRECTION('',(0.0,1.0,0.0));
#1072=ORIENTED_EDGE('',*,*,#1073,.T.);
#1073=EDGE_CURVE('',#1066,#1074,#1076,.F.);
#1074=VERTEX_POINT('',#1075);
#1075=CARTESIAN_POINT('',(-0.32,0.32,-2.994));
#1076=LINE('',#1077,#1078);
#1077=CARTESIAN_POINT('',(-0.32,0.32,-3.25));
#1078=VECTOR('',#1079,1.0);
#1079=DIRECTION('',(0.0,0.0,1.0));
#1080=ORIENTED_EDGE('',*,*,#1081,.T.);
#1081=EDGE_CURVE('',#1074,#1082,#1084,.F.);
#1082=VERTEX_POINT('',#1083);
#1083=CARTESIAN_POINT('',(-0.32,-0.32,-2.994));
#1084=LINE('',#1085,#1086);
#1085=CARTESIAN_POINT('',(-0.32,-0.32,-2.994));
#1086=VECTOR('',#1087,1.0);
#1087=DIRECTION('',(0.0,1.0,0.0));
#1088=ORIENTED_EDGE('',*,*,#1089,.T.);
#1089=EDGE_CURVE('',#1082,#1064,#1090,.T.);
#1090=LINE('',#1091,#1092);
#1091=CARTESIAN_POINT('',(-0.32,-0.32,-3.25));
#1092=VECTOR('',#1093,1.0);
#1093=DIRECTION('',(0.0,0.0,1.0));
#1094=PLANE('',#1095);
#1095=AXIS2_PLACEMENT_3D('',#1096,#1097,#1098);
#1096=CARTESIAN_POINT('',(-0.32,-0.32,-3.25));
#1097=DIRECTION('',(1.0,0.0,0.0));
#1098=DIRECTION('',(0.0,0.0,1.0));
#1099=ADVANCED_FACE('',(#1100),#1125,.F.);
#1100=FACE_BOUND('',#1101,.T.);
#1101=EDGE_LOOP('',(#1102,#1110,#1111,#1119));
#1102=ORIENTED_EDGE('',*,*,#1103,.T.);
#1103=EDGE_CURVE('',#1104,#1064,#1106,.F.);
#1104=VERTEX_POINT('',#1105);
#1105=CARTESIAN_POINT('',(0.32,-0.32,8.384));
#1106=LINE('',#1107,#1108);
#1107=CARTESIAN_POINT('',(-0.32,-0.32,8.384));
#1108=VECTOR('',#1109,1.0);
#1109=DIRECTION('',(1.0,0.0,0.0));
#1110=ORIENTED_EDGE('',*,*,#1089,.F.);
#1111=ORIENTED_EDGE('',*,*,#1112,.T.);
#1112=EDGE_CURVE('',#1082,#1113,#1115,.T.);
#1113=VERTEX_POINT('',#1114);
#1114=CARTESIAN_POINT('',(0.32,-0.32,-2.994));
#1115=LINE('',#1116,#1117);
#1116=CARTESIAN_POINT('',(-0.32,-0.32,-2.994));
#1117=VECTOR('',#1118,1.0);
#1118=DIRECTION('',(1.0,0.0,0.0));
#1119=ORIENTED_EDGE('',*,*,#1120,.T.);
#1120=EDGE_CURVE('',#1113,#1104,#1121,.T.);
#1121=LINE('',#1122,#1123);
#1122=CARTESIAN_POINT('',(0.32,-0.32,-3.25));
#1123=VECTOR('',#1124,1.0);
#1124=DIRECTION('',(0.0,0.0,1.0));
#1125=PLANE('',#1126);
#1126=AXIS2_PLACEMENT_3D('',#1127,#1128,#1129);
#1127=CARTESIAN_POINT('',(-0.32,-0.32,-3.25));
#1128=DIRECTION('',(0.0,1.0,0.0));
#1129=DIRECTION('',(0.0,0.0,1.0));
#1130=ADVANCED_FACE('',(#1131),#1156,.T.);
#1131=FACE_BOUND('',#1132,.T.);
#1132=EDGE_LOOP('',(#1133,#1141,#1142,#1150));
#1133=ORIENTED_EDGE('',*,*,#1134,.T.);
#1134=EDGE_CURVE('',#1135,#1082,#1137,.F.);
#1135=VERTEX_POINT('',#1136);
#1136=CARTESIAN_POINT('',(-0.064,-0.064,-3.25));
#1137=LINE('',#1138,#1139);
#1138=CARTESIAN_POINT('',(-0.234666667,-0.234666667,-3.079333333));
#1139=VECTOR('',#1140,1.0);
#1140=DIRECTION('',(0.577350269,0.577350269,-0.577350269));
#1141=ORIENTED_EDGE('',*,*,#1081,.F.);
#1142=ORIENTED_EDGE('',*,*,#1143,.T.);
#1143=EDGE_CURVE('',#1074,#1144,#1146,.T.);
#1144=VERTEX_POINT('',#1145);
#1145=CARTESIAN_POINT('',(-0.064,0.064,-3.25));
#1146=LINE('',#1147,#1148);
#1147=CARTESIAN_POINT('',(-0.128,0.128,-3.186));
#1148=VECTOR('',#1149,1.0);
#1149=DIRECTION('',(0.577350269,-0.577350269,-0.577350269));
#1150=ORIENTED_EDGE('',*,*,#1151,.T.);
#1151=EDGE_CURVE('',#1144,#1135,#1152,.F.);
#1152=LINE('',#1153,#1154);
#1153=CARTESIAN_POINT('',(-0.064,-0.32,-3.25));
#1154=VECTOR('',#1155,1.0);
#1155=DIRECTION('',(0.0,1.0,0.0));
#1156=PLANE('',#1157);
#1157=AXIS2_PLACEMENT_3D('',#1158,#1159,#1160);
#1158=CARTESIAN_POINT('',(-0.192,-0.32,-3.122));
#1159=DIRECTION('',(-0.707106781,0.0,-0.707106781));
#1160=DIRECTION('',(0.0,1.0,0.0));
#1161=ADVANCED_FACE('',(#1162),#1187,.F.);
#1162=FACE_BOUND('',#1163,.T.);
#1163=EDGE_LOOP('',(#1164,#1174,#1180,#1181));
#1164=ORIENTED_EDGE('',*,*,#1165,.T.);
#1165=EDGE_CURVE('',#1166,#1168,#1170,.T.);
#1166=VERTEX_POINT('',#1167);
#1167=CARTESIAN_POINT('',(-0.064,-0.064,8.64));
#1168=VERTEX_POINT('',#1169);
#1169=CARTESIAN_POINT('',(-0.064,0.064,8.64));
#1170=LINE('',#1171,#1172);
#1171=CARTESIAN_POINT('',(-0.064,-0.32,8.64));
#1172=VECTOR('',#1173,1.0);
#1173=DIRECTION('',(0.0,1.0,0.0));
#1174=ORIENTED_EDGE('',*,*,#1175,.T.);
#1175=EDGE_CURVE('',#1168,#1066,#1176,.F.);
#1176=LINE('',#1177,#1178);
#1177=CARTESIAN_POINT('',(-0.128,0.128,8.576));
#1178=VECTOR('',#1179,1.0);
#1179=DIRECTION('',(0.577350269,-0.577350269,0.577350269));
#1180=ORIENTED_EDGE('',*,*,#1063,.F.);
#1181=ORIENTED_EDGE('',*,*,#1182,.T.);
#1182=EDGE_CURVE('',#1064,#1166,#1183,.T.);
#1183=LINE('',#1184,#1185);
#1184=CARTESIAN_POINT('',(-0.234666667,-0.234666667,8.469333333));
#1185=VECTOR('',#1186,1.0);
#1186=DIRECTION('',(0.577350269,0.577350269,0.577350269));
#1187=PLANE('',#1188);
#1188=AXIS2_PLACEMENT_3D('',#1189,#1190,#1191);
#1189=CARTESIAN_POINT('',(-0.192,-0.32,8.512));
#1190=DIRECTION('',(0.707106781,-3.471719944E-18,-0.707106781));
#1191=DIRECTION('',(2.454876715E-18,1.0,-2.454876715E-18));
#1192=ADVANCED_FACE('',(#1193),#1218,.T.);
#1193=FACE_BOUND('',#1194,.T.);
#1194=EDGE_LOOP('',(#1195,#1205,#1211,#1212));
#1195=ORIENTED_EDGE('',*,*,#1196,.T.);
#1196=EDGE_CURVE('',#1197,#1199,#1201,.F.);
#1197=VERTEX_POINT('',#1198);
#1198=CARTESIAN_POINT('',(0.32,0.32,8.384));
#1199=VERTEX_POINT('',#1200);
#1200=CARTESIAN_POINT('',(0.32,0.32,-2.994));
#1201=LINE('',#1202,#1203);
#1202=CARTESIAN_POINT('',(0.32,0.32,-3.25));
#1203=VECTOR('',#1204,1.0);
#1204=DIRECTION('',(0.0,0.0,1.0));
#1205=ORIENTED_EDGE('',*,*,#1206,.T.);
#1206=EDGE_CURVE('',#1199,#1074,#1207,.F.);
#1207=LINE('',#1208,#1209);
#1208=CARTESIAN_POINT('',(-0.32,0.32,-2.994));
#1209=VECTOR('',#1210,1.0);
#1210=DIRECTION('',(1.0,0.0,0.0));
#1211=ORIENTED_EDGE('',*,*,#1073,.F.);
#1212=ORIENTED_EDGE('',*,*,#1213,.T.);
#1213=EDGE_CURVE('',#1066,#1197,#1214,.T.);
#1214=LINE('',#1215,#1216);
#1215=CARTESIAN_POINT('',(-0.32,0.32,8.384));
#1216=VECTOR('',#1217,1.0);
#1217=DIRECTION('',(1.0,0.0,0.0));
#1218=PLANE('',#1219);
#1219=AXIS2_PLACEMENT_3D('',#1220,#1221,#1222);
#1220=CARTESIAN_POINT('',(-0.32,0.32,-3.25));
#1221=DIRECTION('',(0.0,1.0,0.0));
#1222=DIRECTION('',(0.0,0.0,1.0));
#1223=ADVANCED_FACE('',(#1224),#1240,.T.);
#1224=FACE_BOUND('',#1225,.T.);
#1225=EDGE_LOOP('',(#1226,#1227,#1233,#1234));
#1226=ORIENTED_EDGE('',*,*,#1120,.F.);
#1227=ORIENTED_EDGE('',*,*,#1228,.T.);
#1228=EDGE_CURVE('',#1113,#1199,#1229,.T.);
#1229=LINE('',#1230,#1231);
#1230=CARTESIAN_POINT('',(0.32,-0.32,-2.994));
#1231=VECTOR('',#1232,1.0);
#1232=DIRECTION('',(0.0,1.0,0.0));
#1233=ORIENTED_EDGE('',*,*,#1196,.F.);
#1234=ORIENTED_EDGE('',*,*,#1235,.T.);
#1235=EDGE_CURVE('',#1197,#1104,#1236,.F.);
#1236=LINE('',#1237,#1238);
#1237=CARTESIAN_POINT('',(0.32,-0.32,8.384));
#1238=VECTOR('',#1239,1.0);
#1239=DIRECTION('',(0.0,1.0,0.0));
#1240=PLANE('',#1241);
#1241=AXIS2_PLACEMENT_3D('',#1242,#1243,#1244);
#1242=CARTESIAN_POINT('',(0.32,-0.32,-3.25));
#1243=DIRECTION('',(1.0,0.0,0.0));
#1244=DIRECTION('',(0.0,0.0,1.0));
#1245=ADVANCED_FACE('',(#1246),#1264,.T.);
#1246=FACE_BOUND('',#1247,.T.);
#1247=EDGE_LOOP('',(#1248,#1256,#1262,#1263));
#1248=ORIENTED_EDGE('',*,*,#1249,.T.);
#1249=EDGE_CURVE('',#1135,#1250,#1252,.T.);
#1250=VERTEX_POINT('',#1251);
#1251=CARTESIAN_POINT('',(0.064,-0.064,-3.25));
#1252=LINE('',#1253,#1254);
#1253=CARTESIAN_POINT('',(-0.32,-0.064,-3.25));
#1254=VECTOR('',#1255,1.0);
#1255=DIRECTION('',(1.0,0.0,0.0));
#1256=ORIENTED_EDGE('',*,*,#1257,.T.);
#1257=EDGE_CURVE('',#1250,#1113,#1258,.F.);
#1258=LINE('',#1259,#1260);
#1259=CARTESIAN_POINT('',(0.128,-0.128,-3.186));
#1260=VECTOR('',#1261,1.0);
#1261=DIRECTION('',(-0.577350269,0.577350269,-0.577350269));
#1262=ORIENTED_EDGE('',*,*,#1112,.F.);
#1263=ORIENTED_EDGE('',*,*,#1134,.F.);
#1264=PLANE('',#1265);
#1265=AXIS2_PLACEMENT_3D('',#1266,#1267,#1268);
#1266=CARTESIAN_POINT('',(-0.32,-0.192,-3.122));
#1267=DIRECTION('',(0.0,-0.707106781,-0.707106781));
#1268=DIRECTION('',(-1.0,0.0,0.0));
#1269=ADVANCED_FACE('',(#1270),#1288,.F.);
#1270=FACE_BOUND('',#1271,.T.);
#1271=EDGE_LOOP('',(#1272,#1273,#1274,#1282));
#1272=ORIENTED_EDGE('',*,*,#1182,.F.);
#1273=ORIENTED_EDGE('',*,*,#1103,.F.);
#1274=ORIENTED_EDGE('',*,*,#1275,.T.);
#1275=EDGE_CURVE('',#1104,#1276,#1278,.T.);
#1276=VERTEX_POINT('',#1277);
#1277=CARTESIAN_POINT('',(0.064,-0.064,8.64));
#1278=LINE('',#1279,#1280);
#1279=CARTESIAN_POINT('',(0.128,-0.128,8.576));
#1280=VECTOR('',#1281,1.0);
#1281=DIRECTION('',(-0.577350269,0.577350269,0.577350269));
#1282=ORIENTED_EDGE('',*,*,#1283,.T.);
#1283=EDGE_CURVE('',#1276,#1166,#1284,.F.);
#1284=LINE('',#1285,#1286);
#1285=CARTESIAN_POINT('',(-0.32,-0.064,8.64));
#1286=VECTOR('',#1287,1.0);
#1287=DIRECTION('',(1.0,0.0,0.0));
#1288=PLANE('',#1289);
#1289=AXIS2_PLACEMENT_3D('',#1290,#1291,#1292);
#1290=CARTESIAN_POINT('',(-0.32,-0.192,8.512));
#1291=DIRECTION('',(3.471719944E-18,0.707106781,-0.707106781));
#1292=DIRECTION('',(-1.0,2.454876715E-18,-2.454876715E-18));
#1293=ADVANCED_FACE('',(#1294),#1312,.F.);
#1294=FACE_BOUND('',#1295,.T.);
#1295=EDGE_LOOP('',(#1296,#1297,#1305,#1311));
#1296=ORIENTED_EDGE('',*,*,#1151,.F.);
#1297=ORIENTED_EDGE('',*,*,#1298,.T.);
#1298=EDGE_CURVE('',#1144,#1299,#1301,.T.);
#1299=VERTEX_POINT('',#1300);
#1300=CARTESIAN_POINT('',(0.064,0.064,-3.25));
#1301=LINE('',#1302,#1303);
#1302=CARTESIAN_POINT('',(-0.32,0.064,-3.25));
#1303=VECTOR('',#1304,1.0);
#1304=DIRECTION('',(1.0,0.0,0.0));
#1305=ORIENTED_EDGE('',*,*,#1306,.T.);
#1306=EDGE_CURVE('',#1299,#1250,#1307,.F.);
#1307=LINE('',#1308,#1309);
#1308=CARTESIAN_POINT('',(0.064,-0.32,-3.25));
#1309=VECTOR('',#1310,1.0);
#1310=DIRECTION('',(0.0,1.0,0.0));
#1311=ORIENTED_EDGE('',*,*,#1249,.F.);
#1312=PLANE('',#1313);
#1313=AXIS2_PLACEMENT_3D('',#1314,#1315,#1316);
#1314=CARTESIAN_POINT('',(-0.32,-0.32,-3.25));
#1315=DIRECTION('',(0.0,0.0,1.0));
#1316=DIRECTION('',(1.0,0.0,0.0));
#1317=ADVANCED_FACE('',(#1318),#1329,.F.);
#1318=FACE_BOUND('',#1319,.T.);
#1319=EDGE_LOOP('',(#1320,#1321,#1322,#1328));
#1320=ORIENTED_EDGE('',*,*,#1143,.F.);
#1321=ORIENTED_EDGE('',*,*,#1206,.F.);
#1322=ORIENTED_EDGE('',*,*,#1323,.T.);
#1323=EDGE_CURVE('',#1199,#1299,#1324,.T.);
#1324=LINE('',#1325,#1326);
#1325=CARTESIAN_POINT('',(0.021333333,0.021333333,-3.292666667));
#1326=VECTOR('',#1327,1.0);
#1327=DIRECTION('',(-0.577350269,-0.577350269,-0.577350269));
#1328=ORIENTED_EDGE('',*,*,#1298,.F.);
#1329=PLANE('',#1330);
#1330=AXIS2_PLACEMENT_3D('',#1331,#1332,#1333);
#1331=CARTESIAN_POINT('',(-0.32,0.192,-3.122));
#1332=DIRECTION('',(0.0,-0.707106781,0.707106781));
#1333=DIRECTION('',(-1.0,0.0,0.0));
#1334=ADVANCED_FACE('',(#1335),#1353,.T.);
#1335=FACE_BOUND('',#1336,.T.);
#1336=EDGE_LOOP('',(#1337,#1338,#1346,#1352));
#1337=ORIENTED_EDGE('',*,*,#1283,.F.);
#1338=ORIENTED_EDGE('',*,*,#1339,.T.);
#1339=EDGE_CURVE('',#1276,#1340,#1342,.T.);
#1340=VERTEX_POINT('',#1341);
#1341=CARTESIAN_POINT('',(0.064,0.064,8.64));
#1342=LINE('',#1343,#1344);
#1343=CARTESIAN_POINT('',(0.064,-0.32,8.64));
#1344=VECTOR('',#1345,1.0);
#1345=DIRECTION('',(0.0,1.0,0.0));
#1346=ORIENTED_EDGE('',*,*,#1347,.T.);
#1347=EDGE_CURVE('',#1340,#1168,#1348,.F.);
#1348=LINE('',#1349,#1350);
#1349=CARTESIAN_POINT('',(-0.32,0.064,8.64));
#1350=VECTOR('',#1351,1.0);
#1351=DIRECTION('',(1.0,0.0,0.0));
#1352=ORIENTED_EDGE('',*,*,#1165,.F.);
#1353=PLANE('',#1354);
#1354=AXIS2_PLACEMENT_3D('',#1355,#1356,#1357);
#1355=CARTESIAN_POINT('',(-0.32,-0.32,8.64));
#1356=DIRECTION('',(0.0,0.0,1.0));
#1357=DIRECTION('',(1.0,0.0,0.0));
#1358=ADVANCED_FACE('',(#1359),#1370,.T.);
#1359=FACE_BOUND('',#1360,.T.);
#1360=EDGE_LOOP('',(#1361,#1362,#1368,#1369));
#1361=ORIENTED_EDGE('',*,*,#1347,.F.);
#1362=ORIENTED_EDGE('',*,*,#1363,.T.);
#1363=EDGE_CURVE('',#1340,#1197,#1364,.F.);
#1364=LINE('',#1365,#1366);
#1365=CARTESIAN_POINT('',(0.021333333,0.021333333,8.682666667));
#1366=VECTOR('',#1367,1.0);
#1367=DIRECTION('',(-0.577350269,-0.577350269,0.577350269));
#1368=ORIENTED_EDGE('',*,*,#1213,.F.);
#1369=ORIENTED_EDGE('',*,*,#1175,.F.);
#1370=PLANE('',#1371);
#1371=AXIS2_PLACEMENT_3D('',#1372,#1373,#1374);
#1372=CARTESIAN_POINT('',(-0.32,0.192,8.512));
#1373=DIRECTION('',(-3.471719944E-18,0.707106781,0.707106781));
#1374=DIRECTION('',(-1.0,-2.454876715E-18,-2.454876715E-18));
#1375=ADVANCED_FACE('',(#1376),#1382,.F.);
#1376=FACE_BOUND('',#1377,.T.);
#1377=EDGE_LOOP('',(#1378,#1379,#1380,#1381));
#1378=ORIENTED_EDGE('',*,*,#1306,.F.);
#1379=ORIENTED_EDGE('',*,*,#1323,.F.);
#1380=ORIENTED_EDGE('',*,*,#1228,.F.);
#1381=ORIENTED_EDGE('',*,*,#1257,.F.);
#1382=PLANE('',#1383);
#1383=AXIS2_PLACEMENT_3D('',#1384,#1385,#1386);
#1384=CARTESIAN_POINT('',(0.192,-0.32,-3.122));
#1385=DIRECTION('',(-0.707106781,0.0,0.707106781));
#1386=DIRECTION('',(0.0,1.0,0.0));
#1387=ADVANCED_FACE('',(#1388),#1394,.T.);
#1388=FACE_BOUND('',#1389,.T.);
#1389=EDGE_LOOP('',(#1390,#1391,#1392,#1393));
#1390=ORIENTED_EDGE('',*,*,#1275,.F.);
#1391=ORIENTED_EDGE('',*,*,#1235,.F.);
#1392=ORIENTED_EDGE('',*,*,#1363,.F.);
#1393=ORIENTED_EDGE('',*,*,#1339,.F.);
#1394=PLANE('',#1395);
#1395=AXIS2_PLACEMENT_3D('',#1396,#1397,#1398);
#1396=CARTESIAN_POINT('',(0.192,-0.32,8.512));
#1397=DIRECTION('',(0.707106781,3.471719944E-18,0.707106781));
#1398=DIRECTION('',(-2.454876715E-18,1.0,-2.454876715E-18));
#1399=MANIFOLD_SOLID_BREP('',#1400);
#1400=CLOSED_SHELL('',(#1401,#1441,#1472,#1503,#1534,#1565,#1587,#1611,#1635,#1659,#1676,#1700,#1717,#1729));
#1401=ADVANCED_FACE('',(#1402),#1436,.F.);
#1402=FACE_BOUND('',#1403,.T.);
#1403=EDGE_LOOP('',(#1404,#1414,#1422,#1430));
#1404=ORIENTED_EDGE('',*,*,#1405,.T.);
#1405=EDGE_CURVE('',#1406,#1408,#1410,.T.);
#1406=VERTEX_POINT('',#1407);
#1407=CARTESIAN_POINT('',(2.22,-0.32,8.384));
#1408=VERTEX_POINT('',#1409);
#1409=CARTESIAN_POINT('',(2.22,0.32,8.384));
#1410=LINE('',#1411,#1412);
#1411=CARTESIAN_POINT('',(2.22,-0.32,8.384));
#1412=VECTOR('',#1413,1.0);
#1413=DIRECTION('',(0.0,1.0,0.0));
#1414=ORIENTED_EDGE('',*,*,#1415,.T.);
#1415=EDGE_CURVE('',#1408,#1416,#1418,.F.);
#1416=VERTEX_POINT('',#1417);
#1417=CARTESIAN_POINT('',(2.22,0.32,-2.994));
#1418=LINE('',#1419,#1420);
#1419=CARTESIAN_POINT('',(2.22,0.32,-3.25));
#1420=VECTOR('',#1421,1.0);
#1421=DIRECTION('',(0.0,0.0,1.0));
#1422=ORIENTED_EDGE('',*,*,#1423,.T.);
#1423=EDGE_CURVE('',#1416,#1424,#1426,.F.);
#1424=VERTEX_POINT('',#1425);
#1425=CARTESIAN_POINT('',(2.22,-0.32,-2.994));
#1426=LINE('',#1427,#1428);
#1427=CARTESIAN_POINT('',(2.22,-0.32,-2.994));
#1428=VECTOR('',#1429,1.0);
#1429=DIRECTION('',(0.0,1.0,0.0));
#1430=ORIENTED_EDGE('',*,*,#1431,.T.);
#1431=EDGE_CURVE('',#1424,#1406,#1432,.T.);
#1432=LINE('',#1433,#1434);
#1433=CARTESIAN_POINT('',(2.22,-0.32,-3.25));
#1434=VECTOR('',#1435,1.0);
#1435=DIRECTION('',(0.0,0.0,1.0));
#1436=PLANE('',#1437);
#1437=AXIS2_PLACEMENT_3D('',#1438,#1439,#1440);
#1438=CARTESIAN_POINT('',(2.22,-0.32,-3.25));
#1439=DIRECTION('',(1.0,0.0,0.0));
#1440=DIRECTION('',(0.0,0.0,1.0));
#1441=ADVANCED_FACE('',(#1442),#1467,.F.);
#1442=FACE_BOUND('',#1443,.T.);
#1443=EDGE_LOOP('',(#1444,#1452,#1453,#1461));
#1444=ORIENTED_EDGE('',*,*,#1445,.T.);
#1445=EDGE_CURVE('',#1446,#1406,#1448,.F.);
#1446=VERTEX_POINT('',#1447);
#1447=CARTESIAN_POINT('',(2.86,-0.32,8.384));
#1448=LINE('',#1449,#1450);
#1449=CARTESIAN_POINT('',(2.22,-0.32,8.384));
#1450=VECTOR('',#1451,1.0);
#1451=DIRECTION('',(1.0,0.0,0.0));
#1452=ORIENTED_EDGE('',*,*,#1431,.F.);
#1453=ORIENTED_EDGE('',*,*,#1454,.T.);
#1454=EDGE_CURVE('',#1424,#1455,#1457,.T.);
#1455=VERTEX_POINT('',#1456);
#1456=CARTESIAN_POINT('',(2.86,-0.32,-2.994));
#1457=LINE('',#1458,#1459);
#1458=CARTESIAN_POINT('',(2.22,-0.32,-2.994));
#1459=VECTOR('',#1460,1.0);
#1460=DIRECTION('',(1.0,0.0,0.0));
#1461=ORIENTED_EDGE('',*,*,#1462,.T.);
#1462=EDGE_CURVE('',#1455,#1446,#1463,.T.);
#1463=LINE('',#1464,#1465);
#1464=CARTESIAN_POINT('',(2.86,-0.32,-3.25));
#1465=VECTOR('',#1466,1.0);
#1466=DIRECTION('',(0.0,0.0,1.0));
#1467=PLANE('',#1468);
#1468=AXIS2_PLACEMENT_3D('',#1469,#1470,#1471);
#1469=CARTESIAN_POINT('',(2.22,-0.32,-3.25));
#1470=DIRECTION('',(0.0,1.0,0.0));
#1471=DIRECTION('',(0.0,0.0,1.0));
#1472=ADVANCED_FACE('',(#1473),#1498,.T.);
#1473=FACE_BOUND('',#1474,.T.);
#1474=EDGE_LOOP('',(#1475,#1483,#1484,#1492));
#1475=ORIENTED_EDGE('',*,*,#1476,.T.);
#1476=EDGE_CURVE('',#1477,#1424,#1479,.F.);
#1477=VERTEX_POINT('',#1478);
#1478=CARTESIAN_POINT('',(2.476,-0.064,-3.25));
#1479=LINE('',#1480,#1481);
#1480=CARTESIAN_POINT('',(2.305333333,-0.234666667,-3.079333333));
#1481=VECTOR('',#1482,1.0);
#1482=DIRECTION('',(0.577350269,0.577350269,-0.577350269));
#1483=ORIENTED_EDGE('',*,*,#1423,.F.);
#1484=ORIENTED_EDGE('',*,*,#1485,.T.);
#1485=EDGE_CURVE('',#1416,#1486,#1488,.T.);
#1486=VERTEX_POINT('',#1487);
#1487=CARTESIAN_POINT('',(2.476,0.064,-3.25));
#1488=LINE('',#1489,#1490);
#1489=CARTESIAN_POINT('',(2.412,0.128,-3.186));
#1490=VECTOR('',#1491,1.0);
#1491=DIRECTION('',(0.577350269,-0.577350269,-0.577350269));
#1492=ORIENTED_EDGE('',*,*,#1493,.T.);
#1493=EDGE_CURVE('',#1486,#1477,#1494,.F.);
#1494=LINE('',#1495,#1496);
#1495=CARTESIAN_POINT('',(2.476,-0.32,-3.25));
#1496=VECTOR('',#1497,1.0);
#1497=DIRECTION('',(0.0,1.0,0.0));
#1498=PLANE('',#1499);
#1499=AXIS2_PLACEMENT_3D('',#1500,#1501,#1502);
#1500=CARTESIAN_POINT('',(2.348,-0.32,-3.122));
#1501=DIRECTION('',(-0.707106781,0.0,-0.707106781));
#1502=DIRECTION('',(0.0,1.0,0.0));
#1503=ADVANCED_FACE('',(#1504),#1529,.F.);
#1504=FACE_BOUND('',#1505,.T.);
#1505=EDGE_LOOP('',(#1506,#1516,#1522,#1523));
#1506=ORIENTED_EDGE('',*,*,#1507,.T.);
#1507=EDGE_CURVE('',#1508,#1510,#1512,.T.);
#1508=VERTEX_POINT('',#1509);
#1509=CARTESIAN_POINT('',(2.476,-0.064,8.64));
#1510=VERTEX_POINT('',#1511);
#1511=CARTESIAN_POINT('',(2.476,0.064,8.64));
#1512=LINE('',#1513,#1514);
#1513=CARTESIAN_POINT('',(2.476,-0.32,8.64));
#1514=VECTOR('',#1515,1.0);
#1515=DIRECTION('',(0.0,1.0,0.0));
#1516=ORIENTED_EDGE('',*,*,#1517,.T.);
#1517=EDGE_CURVE('',#1510,#1408,#1518,.F.);
#1518=LINE('',#1519,#1520);
#1519=CARTESIAN_POINT('',(2.412,0.128,8.576));
#1520=VECTOR('',#1521,1.0);
#1521=DIRECTION('',(0.577350269,-0.577350269,0.577350269));
#1522=ORIENTED_EDGE('',*,*,#1405,.F.);
#1523=ORIENTED_EDGE('',*,*,#1524,.T.);
#1524=EDGE_CURVE('',#1406,#1508,#1525,.T.);
#1525=LINE('',#1526,#1527);
#1526=CARTESIAN_POINT('',(2.305333333,-0.234666667,8.469333333));
#1527=VECTOR('',#1528,1.0);
#1528=DIRECTION('',(0.577350269,0.577350269,0.577350269));
#1529=PLANE('',#1530);
#1530=AXIS2_PLACEMENT_3D('',#1531,#1532,#1533);
#1531=CARTESIAN_POINT('',(2.348,-0.32,8.512));
#1532=DIRECTION('',(0.707106781,-3.471719944E-18,-0.707106781));
#1533=DIRECTION('',(2.454876715E-18,1.0,-2.454876715E-18));
#1534=ADVANCED_FACE('',(#1535),#1560,.T.);
#1535=FACE_BOUND('',#1536,.T.);
#1536=EDGE_LOOP('',(#1537,#1547,#1553,#1554));
#1537=ORIENTED_EDGE('',*,*,#1538,.T.);
#1538=EDGE_CURVE('',#1539,#1541,#1543,.F.);
#1539=VERTEX_POINT('',#1540);
#1540=CARTESIAN_POINT('',(2.86,0.32,8.384));
#1541=VERTEX_POINT('',#1542);
#1542=CARTESIAN_POINT('',(2.86,0.32,-2.994));
#1543=LINE('',#1544,#1545);
#1544=CARTESIAN_POINT('',(2.86,0.32,-3.25));
#1545=VECTOR('',#1546,1.0);
#1546=DIRECTION('',(0.0,0.0,1.0));
#1547=ORIENTED_EDGE('',*,*,#1548,.T.);
#1548=EDGE_CURVE('',#1541,#1416,#1549,.F.);
#1549=LINE('',#1550,#1551);
#1550=CARTESIAN_POINT('',(2.22,0.32,-2.994));
#1551=VECTOR('',#1552,1.0);
#1552=DIRECTION('',(1.0,0.0,0.0));
#1553=ORIENTED_EDGE('',*,*,#1415,.F.);
#1554=ORIENTED_EDGE('',*,*,#1555,.T.);
#1555=EDGE_CURVE('',#1408,#1539,#1556,.T.);
#1556=LINE('',#1557,#1558);
#1557=CARTESIAN_POINT('',(2.22,0.32,8.384));
#1558=VECTOR('',#1559,1.0);
#1559=DIRECTION('',(1.0,0.0,0.0));
#1560=PLANE('',#1561);
#1561=AXIS2_PLACEMENT_3D('',#1562,#1563,#1564);
#1562=CARTESIAN_POINT('',(2.22,0.32,-3.25));
#1563=DIRECTION('',(0.0,1.0,0.0));
#1564=DIRECTION('',(0.0,0.0,1.0));
#1565=ADVANCED_FACE('',(#1566),#1582,.T.);
#1566=FACE_BOUND('',#1567,.T.);
#1567=EDGE_LOOP('',(#1568,#1569,#1575,#1576));
#1568=ORIENTED_EDGE('',*,*,#1462,.F.);
#1569=ORIENTED_EDGE('',*,*,#1570,.T.);
#1570=EDGE_CURVE('',#1455,#1541,#1571,.T.);
#1571=LINE('',#1572,#1573);
#1572=CARTESIAN_POINT('',(2.86,-0.32,-2.994));
#1573=VECTOR('',#1574,1.0);
#1574=DIRECTION('',(0.0,1.0,0.0));
#1575=ORIENTED_EDGE('',*,*,#1538,.F.);
#1576=ORIENTED_EDGE('',*,*,#1577,.T.);
#1577=EDGE_CURVE('',#1539,#1446,#1578,.F.);
#1578=LINE('',#1579,#1580);
#1579=CARTESIAN_POINT('',(2.86,-0.32,8.384));
#1580=VECTOR('',#1581,1.0);
#1581=DIRECTION('',(0.0,1.0,0.0));
#1582=PLANE('',#1583);
#1583=AXIS2_PLACEMENT_3D('',#1584,#1585,#1586);
#1584=CARTESIAN_POINT('',(2.86,-0.32,-3.25));
#1585=DIRECTION('',(1.0,0.0,0.0));
#1586=DIRECTION('',(0.0,0.0,1.0));
#1587=ADVANCED_FACE('',(#1588),#1606,.T.);
#1588=FACE_BOUND('',#1589,.T.);
#1589=EDGE_LOOP('',(#1590,#1598,#1604,#1605));
#1590=ORIENTED_EDGE('',*,*,#1591,.T.);
#1591=EDGE_CURVE('',#1477,#1592,#1594,.T.);
#1592=VERTEX_POINT('',#1593);
#1593=CARTESIAN_POINT('',(2.604,-0.064,-3.25));
#1594=LINE('',#1595,#1596);
#1595=CARTESIAN_POINT('',(2.22,-0.064,-3.25));
#1596=VECTOR('',#1597,1.0);
#1597=DIRECTION('',(1.0,0.0,0.0));
#1598=ORIENTED_EDGE('',*,*,#1599,.T.);
#1599=EDGE_CURVE('',#1592,#1455,#1600,.F.);
#1600=LINE('',#1601,#1602);
#1601=CARTESIAN_POINT('',(2.668,-0.128,-3.186));
#1602=VECTOR('',#1603,1.0);
#1603=DIRECTION('',(-0.577350269,0.577350269,-0.577350269));
#1604=ORIENTED_EDGE('',*,*,#1454,.F.);
#1605=ORIENTED_EDGE('',*,*,#1476,.F.);
#1606=PLANE('',#1607);
#1607=AXIS2_PLACEMENT_3D('',#1608,#1609,#1610);
#1608=CARTESIAN_POINT('',(2.22,-0.192,-3.122));
#1609=DIRECTION('',(0.0,-0.707106781,-0.707106781));
#1610=DIRECTION('',(-1.0,0.0,0.0));
#1611=ADVANCED_FACE('',(#1612),#1630,.F.);
#1612=FACE_BOUND('',#1613,.T.);
#1613=EDGE_LOOP('',(#1614,#1615,#1616,#1624));
#1614=ORIENTED_EDGE('',*,*,#1524,.F.);
#1615=ORIENTED_EDGE('',*,*,#1445,.F.);
#1616=ORIENTED_EDGE('',*,*,#1617,.T.);
#1617=EDGE_CURVE('',#1446,#1618,#1620,.T.);
#1618=VERTEX_POINT('',#1619);
#1619=CARTESIAN_POINT('',(2.604,-0.064,8.64));
#1620=LINE('',#1621,#1622);
#1621=CARTESIAN_POINT('',(2.668,-0.128,8.576));
#1622=VECTOR('',#1623,1.0);
#1623=DIRECTION('',(-0.577350269,0.577350269,0.577350269));
#1624=ORIENTED_EDGE('',*,*,#1625,.T.);
#1625=EDGE_CURVE('',#1618,#1508,#1626,.F.);
#1626=LINE('',#1627,#1628);
#1627=CARTESIAN_POINT('',(2.22,-0.064,8.64));
#1628=VECTOR('',#1629,1.0);
#1629=DIRECTION('',(1.0,0.0,0.0));
#1630=PLANE('',#1631);
#1631=AXIS2_PLACEMENT_3D('',#1632,#1633,#1634);
#1632=CARTESIAN_POINT('',(2.22,-0.192,8.512));
#1633=DIRECTION('',(3.471719944E-18,0.707106781,-0.707106781));
#1634=DIRECTION('',(-1.0,2.454876715E-18,-2.454876715E-18));
#1635=ADVANCED_FACE('',(#1636),#1654,.F.);
#1636=FACE_BOUND('',#1637,.T.);
#1637=EDGE_LOOP('',(#1638,#1639,#1647,#1653));
#1638=ORIENTED_EDGE('',*,*,#1493,.F.);
#1639=ORIENTED_EDGE('',*,*,#1640,.T.);
#1640=EDGE_CURVE('',#1486,#1641,#1643,.T.);
#1641=VERTEX_POINT('',#1642);
#1642=CARTESIAN_POINT('',(2.604,0.064,-3.25));
#1643=LINE('',#1644,#1645);
#1644=CARTESIAN_POINT('',(2.22,0.064,-3.25));
#1645=VECTOR('',#1646,1.0);
#1646=DIRECTION('',(1.0,0.0,0.0));
#1647=ORIENTED_EDGE('',*,*,#1648,.T.);
#1648=EDGE_CURVE('',#1641,#1592,#1649,.F.);
#1649=LINE('',#1650,#1651);
#1650=CARTESIAN_POINT('',(2.604,-0.32,-3.25));
#1651=VECTOR('',#1652,1.0);
#1652=DIRECTION('',(0.0,1.0,0.0));
#1653=ORIENTED_EDGE('',*,*,#1591,.F.);
#1654=PLANE('',#1655);
#1655=AXIS2_PLACEMENT_3D('',#1656,#1657,#1658);
#1656=CARTESIAN_POINT('',(2.22,-0.32,-3.25));
#1657=DIRECTION('',(0.0,0.0,1.0));
#1658=DIRECTION('',(1.0,0.0,0.0));
#1659=ADVANCED_FACE('',(#1660),#1671,.F.);
#1660=FACE_BOUND('',#1661,.T.);
#1661=EDGE_LOOP('',(#1662,#1663,#1664,#1670));
#1662=ORIENTED_EDGE('',*,*,#1485,.F.);
#1663=ORIENTED_EDGE('',*,*,#1548,.F.);
#1664=ORIENTED_EDGE('',*,*,#1665,.T.);
#1665=EDGE_CURVE('',#1541,#1641,#1666,.T.);
#1666=LINE('',#1667,#1668);
#1667=CARTESIAN_POINT('',(2.561333333,0.021333333,-3.292666667));
#1668=VECTOR('',#1669,1.0);
#1669=DIRECTION('',(-0.577350269,-0.577350269,-0.577350269));
#1670=ORIENTED_EDGE('',*,*,#1640,.F.);
#1671=PLANE('',#1672);
#1672=AXIS2_PLACEMENT_3D('',#1673,#1674,#1675);
#1673=CARTESIAN_POINT('',(2.22,0.192,-3.122));
#1674=DIRECTION('',(0.0,-0.707106781,0.707106781));
#1675=DIRECTION('',(-1.0,0.0,0.0));
#1676=ADVANCED_FACE('',(#1677),#1695,.T.);
#1677=FACE_BOUND('',#1678,.T.);
#1678=EDGE_LOOP('',(#1679,#1680,#1688,#1694));
#1679=ORIENTED_EDGE('',*,*,#1625,.F.);
#1680=ORIENTED_EDGE('',*,*,#1681,.T.);
#1681=EDGE_CURVE('',#1618,#1682,#1684,.T.);
#1682=VERTEX_POINT('',#1683);
#1683=CARTESIAN_POINT('',(2.604,0.064,8.64));
#1684=LINE('',#1685,#1686);
#1685=CARTESIAN_POINT('',(2.604,-0.32,8.64));
#1686=VECTOR('',#1687,1.0);
#1687=DIRECTION('',(0.0,1.0,0.0));
#1688=ORIENTED_EDGE('',*,*,#1689,.T.);
#1689=EDGE_CURVE('',#1682,#1510,#1690,.F.);
#1690=LINE('',#1691,#1692);
#1691=CARTESIAN_POINT('',(2.22,0.064,8.64));
#1692=VECTOR('',#1693,1.0);
#1693=DIRECTION('',(1.0,0.0,0.0));
#1694=ORIENTED_EDGE('',*,*,#1507,.F.);
#1695=PLANE('',#1696);
#1696=AXIS2_PLACEMENT_3D('',#1697,#1698,#1699);
#1697=CARTESIAN_POINT('',(2.22,-0.32,8.64));
#1698=DIRECTION('',(0.0,0.0,1.0));
#1699=DIRECTION('',(1.0,0.0,0.0));
#1700=ADVANCED_FACE('',(#1701),#1712,.T.);
#1701=FACE_BOUND('',#1702,.T.);
#1702=EDGE_LOOP('',(#1703,#1704,#1710,#1711));
#1703=ORIENTED_EDGE('',*,*,#1689,.F.);
#1704=ORIENTED_EDGE('',*,*,#1705,.T.);
#1705=EDGE_CURVE('',#1682,#1539,#1706,.F.);
#1706=LINE('',#1707,#1708);
#1707=CARTESIAN_POINT('',(2.561333333,0.021333333,8.682666667));
#1708=VECTOR('',#1709,1.0);
#1709=DIRECTION('',(-0.577350269,-0.577350269,0.577350269));
#1710=ORIENTED_EDGE('',*,*,#1555,.F.);
#1711=ORIENTED_EDGE('',*,*,#1517,.F.);
#1712=PLANE('',#1713);
#1713=AXIS2_PLACEMENT_3D('',#1714,#1715,#1716);
#1714=CARTESIAN_POINT('',(2.22,0.192,8.512));
#1715=DIRECTION('',(-3.471719944E-18,0.707106781,0.707106781));
#1716=DIRECTION('',(-1.0,-2.454876715E-18,-2.454876715E-18));
#1717=ADVANCED_FACE('',(#1718),#1724,.F.);
#1718=FACE_BOUND('',#1719,.T.);
#1719=EDGE_LOOP('',(#1720,#1721,#1722,#1723));
#1720=ORIENTED_EDGE('',*,*,#1648,.F.);
#1721=ORIENTED_EDGE('',*,*,#1665,.F.);
#1722=ORIENTED_EDGE('',*,*,#1570,.F.);
#1723=ORIENTED_EDGE('',*,*,#1599,.F.);
#1724=PLANE('',#1725);
#1725=AXIS2_PLACEMENT_3D('',#1726,#1727,#1728);
#1726=CARTESIAN_POINT('',(2.732,-0.32,-3.122));
#1727=DIRECTION('',(-0.707106781,0.0,0.707106781));
#1728=DIRECTION('',(0.0,1.0,0.0));
#1729=ADVANCED_FACE('',(#1730),#1736,.T.);
#1730=FACE_BOUND('',#1731,.T.);
#1731=EDGE_LOOP('',(#1732,#1733,#1734,#1735));
#1732=ORIENTED_EDGE('',*,*,#1617,.F.);
#1733=ORIENTED_EDGE('',*,*,#1577,.F.);
#1734=ORIENTED_EDGE('',*,*,#1705,.F.);
#1735=ORIENTED_EDGE('',*,*,#1681,.F.);
#1736=PLANE('',#1737);
#1737=AXIS2_PLACEMENT_3D('',#1738,#1739,#1740);
#1738=CARTESIAN_POINT('',(2.732,-0.32,8.512));
#1739=DIRECTION('',(0.707106781,3.471719944E-18,0.707106781));
#1740=DIRECTION('',(-2.454876715E-18,1.0,-2.454876715E-18));
#1741=MANIFOLD_SOLID_BREP('',#1742);
#1742=CLOSED_SHELL('',(#1743,#1783,#1814,#1845,#1876,#1907,#1929,#1953,#1977,#2001,#2018,#2042,#2059,#2071));
#1743=ADVANCED_FACE('',(#1744),#1778,.F.);
#1744=FACE_BOUND('',#1745,.T.);
#1745=EDGE_LOOP('',(#1746,#1756,#1764,#1772));
#1746=ORIENTED_EDGE('',*,*,#1747,.T.);
#1747=EDGE_CURVE('',#1748,#1750,#1752,.T.);
#1748=VERTEX_POINT('',#1749);
#1749=CARTESIAN_POINT('',(4.76,-0.32,8.384));
#1750=VERTEX_POINT('',#1751);
#1751=CARTESIAN_POINT('',(4.76,0.32,8.384));
#1752=LINE('',#1753,#1754);
#1753=CARTESIAN_POINT('',(4.76,-0.32,8.384));
#1754=VECTOR('',#1755,1.0);
#1755=DIRECTION('',(0.0,1.0,0.0));
#1756=ORIENTED_EDGE('',*,*,#1757,.T.);
#1757=EDGE_CURVE('',#1750,#1758,#1760,.F.);
#1758=VERTEX_POINT('',#1759);
#1759=CARTESIAN_POINT('',(4.76,0.32,-2.994));
#1760=LINE('',#1761,#1762);
#1761=CARTESIAN_POINT('',(4.76,0.32,-3.25));
#1762=VECTOR('',#1763,1.0);
#1763=DIRECTION('',(0.0,0.0,1.0));
#1764=ORIENTED_EDGE('',*,*,#1765,.T.);
#1765=EDGE_CURVE('',#1758,#1766,#1768,.F.);
#1766=VERTEX_POINT('',#1767);
#1767=CARTESIAN_POINT('',(4.76,-0.32,-2.994));
#1768=LINE('',#1769,#1770);
#1769=CARTESIAN_POINT('',(4.76,-0.32,-2.994));
#1770=VECTOR('',#1771,1.0);
#1771=DIRECTION('',(0.0,1.0,0.0));
#1772=ORIENTED_EDGE('',*,*,#1773,.T.);
#1773=EDGE_CURVE('',#1766,#1748,#1774,.T.);
#1774=LINE('',#1775,#1776);
#1775=CARTESIAN_POINT('',(4.76,-0.32,-3.25));
#1776=VECTOR('',#1777,1.0);
#1777=DIRECTION('',(0.0,0.0,1.0));
#1778=PLANE('',#1779);
#1779=AXIS2_PLACEMENT_3D('',#1780,#1781,#1782);
#1780=CARTESIAN_POINT('',(4.76,-0.32,-3.25));
#1781=DIRECTION('',(1.0,0.0,0.0));
#1782=DIRECTION('',(0.0,0.0,1.0));
#1783=ADVANCED_FACE('',(#1784),#1809,.F.);
#1784=FACE_BOUND('',#1785,.T.);
#1785=EDGE_LOOP('',(#1786,#1794,#1795,#1803));
#1786=ORIENTED_EDGE('',*,*,#1787,.T.);
#1787=EDGE_CURVE('',#1788,#1748,#1790,.F.);
#1788=VERTEX_POINT('',#1789);
#1789=CARTESIAN_POINT('',(5.4,-0.32,8.384));
#1790=LINE('',#1791,#1792);
#1791=CARTESIAN_POINT('',(4.76,-0.32,8.384));
#1792=VECTOR('',#1793,1.0);
#1793=DIRECTION('',(1.0,0.0,0.0));
#1794=ORIENTED_EDGE('',*,*,#1773,.F.);
#1795=ORIENTED_EDGE('',*,*,#1796,.T.);
#1796=EDGE_CURVE('',#1766,#1797,#1799,.T.);
#1797=VERTEX_POINT('',#1798);
#1798=CARTESIAN_POINT('',(5.4,-0.32,-2.994));
#1799=LINE('',#1800,#1801);
#1800=CARTESIAN_POINT('',(4.76,-0.32,-2.994));
#1801=VECTOR('',#1802,1.0);
#1802=DIRECTION('',(1.0,0.0,0.0));
#1803=ORIENTED_EDGE('',*,*,#1804,.T.);
#1804=EDGE_CURVE('',#1797,#1788,#1805,.T.);
#1805=LINE('',#1806,#1807);
#1806=CARTESIAN_POINT('',(5.4,-0.32,-3.25));
#1807=VECTOR('',#1808,1.0);
#1808=DIRECTION('',(0.0,0.0,1.0));
#1809=PLANE('',#1810);
#1810=AXIS2_PLACEMENT_3D('',#1811,#1812,#1813);
#1811=CARTESIAN_POINT('',(4.76,-0.32,-3.25));
#1812=DIRECTION('',(0.0,1.0,0.0));
#1813=DIRECTION('',(0.0,0.0,1.0));
#1814=ADVANCED_FACE('',(#1815),#1840,.T.);
#1815=FACE_BOUND('',#1816,.T.);
#1816=EDGE_LOOP('',(#1817,#1825,#1826,#1834));
#1817=ORIENTED_EDGE('',*,*,#1818,.T.);
#1818=EDGE_CURVE('',#1819,#1766,#1821,.F.);
#1819=VERTEX_POINT('',#1820);
#1820=CARTESIAN_POINT('',(5.016,-0.064,-3.25));
#1821=LINE('',#1822,#1823);
#1822=CARTESIAN_POINT('',(4.845333333,-0.234666667,-3.079333333));
#1823=VECTOR('',#1824,1.0);
#1824=DIRECTION('',(0.577350269,0.577350269,-0.577350269));
#1825=ORIENTED_EDGE('',*,*,#1765,.F.);
#1826=ORIENTED_EDGE('',*,*,#1827,.T.);
#1827=EDGE_CURVE('',#1758,#1828,#1830,.T.);
#1828=VERTEX_POINT('',#1829);
#1829=CARTESIAN_POINT('',(5.016,0.064,-3.25));
#1830=LINE('',#1831,#1832);
#1831=CARTESIAN_POINT('',(4.952,0.128,-3.186));
#1832=VECTOR('',#1833,1.0);
#1833=DIRECTION('',(0.577350269,-0.577350269,-0.577350269));
#1834=ORIENTED_EDGE('',*,*,#1835,.T.);
#1835=EDGE_CURVE('',#1828,#1819,#1836,.F.);
#1836=LINE('',#1837,#1838);
#1837=CARTESIAN_POINT('',(5.016,-0.32,-3.25));
#1838=VECTOR('',#1839,1.0);
#1839=DIRECTION('',(0.0,1.0,0.0));
#1840=PLANE('',#1841);
#1841=AXIS2_PLACEMENT_3D('',#1842,#1843,#1844);
#1842=CARTESIAN_POINT('',(4.888,-0.32,-3.122));
#1843=DIRECTION('',(-0.707106781,0.0,-0.707106781));
#1844=DIRECTION('',(0.0,1.0,0.0));
#1845=ADVANCED_FACE('',(#1846),#1871,.F.);
#1846=FACE_BOUND('',#1847,.T.);
#1847=EDGE_LOOP('',(#1848,#1858,#1864,#1865));
#1848=ORIENTED_EDGE('',*,*,#1849,.T.);
#1849=EDGE_CURVE('',#1850,#1852,#1854,.T.);
#1850=VERTEX_POINT('',#1851);
#1851=CARTESIAN_POINT('',(5.016,-0.064,8.64));
#1852=VERTEX_POINT('',#1853);
#1853=CARTESIAN_POINT('',(5.016,0.064,8.64));
#1854=LINE('',#1855,#1856);
#1855=CARTESIAN_POINT('',(5.016,-0.32,8.64));
#1856=VECTOR('',#1857,1.0);
#1857=DIRECTION('',(0.0,1.0,0.0));
#1858=ORIENTED_EDGE('',*,*,#1859,.T.);
#1859=EDGE_CURVE('',#1852,#1750,#1860,.F.);
#1860=LINE('',#1861,#1862);
#1861=CARTESIAN_POINT('',(4.952,0.128,8.576));
#1862=VECTOR('',#1863,1.0);
#1863=DIRECTION('',(0.577350269,-0.577350269,0.577350269));
#1864=ORIENTED_EDGE('',*,*,#1747,.F.);
#1865=ORIENTED_EDGE('',*,*,#1866,.T.);
#1866=EDGE_CURVE('',#1748,#1850,#1867,.T.);
#1867=LINE('',#1868,#1869);
#1868=CARTESIAN_POINT('',(4.845333333,-0.234666667,8.469333333));
#1869=VECTOR('',#1870,1.0);
#1870=DIRECTION('',(0.577350269,0.577350269,0.577350269));
#1871=PLANE('',#1872);
#1872=AXIS2_PLACEMENT_3D('',#1873,#1874,#1875);
#1873=CARTESIAN_POINT('',(4.888,-0.32,8.512));
#1874=DIRECTION('',(0.707106781,-3.471719944E-18,-0.707106781));
#1875=DIRECTION('',(2.454876715E-18,1.0,-2.454876715E-18));
#1876=ADVANCED_FACE('',(#1877),#1902,.T.);
#1877=FACE_BOUND('',#1878,.T.);
#1878=EDGE_LOOP('',(#1879,#1889,#1895,#1896));
#1879=ORIENTED_EDGE('',*,*,#1880,.T.);
#1880=EDGE_CURVE('',#1881,#1883,#1885,.F.);
#1881=VERTEX_POINT('',#1882);
#1882=CARTESIAN_POINT('',(5.4,0.32,8.384));
#1883=VERTEX_POINT('',#1884);
#1884=CARTESIAN_POINT('',(5.4,0.32,-2.994));
#1885=LINE('',#1886,#1887);
#1886=CARTESIAN_POINT('',(5.4,0.32,-3.25));
#1887=VECTOR('',#1888,1.0);
#1888=DIRECTION('',(0.0,0.0,1.0));
#1889=ORIENTED_EDGE('',*,*,#1890,.T.);
#1890=EDGE_CURVE('',#1883,#1758,#1891,.F.);
#1891=LINE('',#1892,#1893);
#1892=CARTESIAN_POINT('',(4.76,0.32,-2.994));
#1893=VECTOR('',#1894,1.0);
#1894=DIRECTION('',(1.0,0.0,0.0));
#1895=ORIENTED_EDGE('',*,*,#1757,.F.);
#1896=ORIENTED_EDGE('',*,*,#1897,.T.);
#1897=EDGE_CURVE('',#1750,#1881,#1898,.T.);
#1898=LINE('',#1899,#1900);
#1899=CARTESIAN_POINT('',(4.76,0.32,8.384));
#1900=VECTOR('',#1901,1.0);
#1901=DIRECTION('',(1.0,0.0,0.0));
#1902=PLANE('',#1903);
#1903=AXIS2_PLACEMENT_3D('',#1904,#1905,#1906);
#1904=CARTESIAN_POINT('',(4.76,0.32,-3.25));
#1905=DIRECTION('',(0.0,1.0,0.0));
#1906=DIRECTION('',(0.0,0.0,1.0));
#1907=ADVANCED_FACE('',(#1908),#1924,.T.);
#1908=FACE_BOUND('',#1909,.T.);
#1909=EDGE_LOOP('',(#1910,#1911,#1917,#1918));
#1910=ORIENTED_EDGE('',*,*,#1804,.F.);
#1911=ORIENTED_EDGE('',*,*,#1912,.T.);
#1912=EDGE_CURVE('',#1797,#1883,#1913,.T.);
#1913=LINE('',#1914,#1915);
#1914=CARTESIAN_POINT('',(5.4,-0.32,-2.994));
#1915=VECTOR('',#1916,1.0);
#1916=DIRECTION('',(0.0,1.0,0.0));
#1917=ORIENTED_EDGE('',*,*,#1880,.F.);
#1918=ORIENTED_EDGE('',*,*,#1919,.T.);
#1919=EDGE_CURVE('',#1881,#1788,#1920,.F.);
#1920=LINE('',#1921,#1922);
#1921=CARTESIAN_POINT('',(5.4,-0.32,8.384));
#1922=VECTOR('',#1923,1.0);
#1923=DIRECTION('',(0.0,1.0,0.0));
#1924=PLANE('',#1925);
#1925=AXIS2_PLACEMENT_3D('',#1926,#1927,#1928);
#1926=CARTESIAN_POINT('',(5.4,-0.32,-3.25));
#1927=DIRECTION('',(1.0,0.0,0.0));
#1928=DIRECTION('',(0.0,0.0,1.0));
#1929=ADVANCED_FACE('',(#1930),#1948,.T.);
#1930=FACE_BOUND('',#1931,.T.);
#1931=EDGE_LOOP('',(#1932,#1940,#1946,#1947));
#1932=ORIENTED_EDGE('',*,*,#1933,.T.);
#1933=EDGE_CURVE('',#1819,#1934,#1936,.T.);
#1934=VERTEX_POINT('',#1935);
#1935=CARTESIAN_POINT('',(5.144,-0.064,-3.25));
#1936=LINE('',#1937,#1938);
#1937=CARTESIAN_POINT('',(4.76,-0.064,-3.25));
#1938=VECTOR('',#1939,1.0);
#1939=DIRECTION('',(1.0,0.0,0.0));
#1940=ORIENTED_EDGE('',*,*,#1941,.T.);
#1941=EDGE_CURVE('',#1934,#1797,#1942,.F.);
#1942=LINE('',#1943,#1944);
#1943=CARTESIAN_POINT('',(5.208,-0.128,-3.186));
#1944=VECTOR('',#1945,1.0);
#1945=DIRECTION('',(-0.577350269,0.577350269,-0.577350269));
#1946=ORIENTED_EDGE('',*,*,#1796,.F.);
#1947=ORIENTED_EDGE('',*,*,#1818,.F.);
#1948=PLANE('',#1949);
#1949=AXIS2_PLACEMENT_3D('',#1950,#1951,#1952);
#1950=CARTESIAN_POINT('',(4.76,-0.192,-3.122));
#1951=DIRECTION('',(0.0,-0.707106781,-0.707106781));
#1952=DIRECTION('',(-1.0,0.0,0.0));
#1953=ADVANCED_FACE('',(#1954),#1972,.F.);
#1954=FACE_BOUND('',#1955,.T.);
#1955=EDGE_LOOP('',(#1956,#1957,#1958,#1966));
#1956=ORIENTED_EDGE('',*,*,#1866,.F.);
#1957=ORIENTED_EDGE('',*,*,#1787,.F.);
#1958=ORIENTED_EDGE('',*,*,#1959,.T.);
#1959=EDGE_CURVE('',#1788,#1960,#1962,.T.);
#1960=VERTEX_POINT('',#1961);
#1961=CARTESIAN_POINT('',(5.144,-0.064,8.64));
#1962=LINE('',#1963,#1964);
#1963=CARTESIAN_POINT('',(5.208,-0.128,8.576));
#1964=VECTOR('',#1965,1.0);
#1965=DIRECTION('',(-0.577350269,0.577350269,0.577350269));
#1966=ORIENTED_EDGE('',*,*,#1967,.T.);
#1967=EDGE_CURVE('',#1960,#1850,#1968,.F.);
#1968=LINE('',#1969,#1970);
#1969=CARTESIAN_POINT('',(4.76,-0.064,8.64));
#1970=VECTOR('',#1971,1.0);
#1971=DIRECTION('',(1.0,0.0,0.0));
#1972=PLANE('',#1973);
#1973=AXIS2_PLACEMENT_3D('',#1974,#1975,#1976);
#1974=CARTESIAN_POINT('',(4.76,-0.192,8.512));
#1975=DIRECTION('',(3.471719944E-18,0.707106781,-0.707106781));
#1976=DIRECTION('',(-1.0,2.454876715E-18,-2.454876715E-18));
#1977=ADVANCED_FACE('',(#1978),#1996,.F.);
#1978=FACE_BOUND('',#1979,.T.);
#1979=EDGE_LOOP('',(#1980,#1981,#1989,#1995));
#1980=ORIENTED_EDGE('',*,*,#1835,.F.);
#1981=ORIENTED_EDGE('',*,*,#1982,.T.);
#1982=EDGE_CURVE('',#1828,#1983,#1985,.T.);
#1983=VERTEX_POINT('',#1984);
#1984=CARTESIAN_POINT('',(5.144,0.064,-3.25));
#1985=LINE('',#1986,#1987);
#1986=CARTESIAN_POINT('',(4.76,0.064,-3.25));
#1987=VECTOR('',#1988,1.0);
#1988=DIRECTION('',(1.0,0.0,0.0));
#1989=ORIENTED_EDGE('',*,*,#1990,.T.);
#1990=EDGE_CURVE('',#1983,#1934,#1991,.F.);
#1991=LINE('',#1992,#1993);
#1992=CARTESIAN_POINT('',(5.144,-0.32,-3.25));
#1993=VECTOR('',#1994,1.0);
#1994=DIRECTION('',(0.0,1.0,0.0));
#1995=ORIENTED_EDGE('',*,*,#1933,.F.);
#1996=PLANE('',#1997);
#1997=AXIS2_PLACEMENT_3D('',#1998,#1999,#2000);
#1998=CARTESIAN_POINT('',(4.76,-0.32,-3.25));
#1999=DIRECTION('',(0.0,0.0,1.0));
#2000=DIRECTION('',(1.0,0.0,0.0));
#2001=ADVANCED_FACE('',(#2002),#2013,.F.);
#2002=FACE_BOUND('',#2003,.T.);
#2003=EDGE_LOOP('',(#2004,#2005,#2006,#2012));
#2004=ORIENTED_EDGE('',*,*,#1827,.F.);
#2005=ORIENTED_EDGE('',*,*,#1890,.F.);
#2006=ORIENTED_EDGE('',*,*,#2007,.T.);
#2007=EDGE_CURVE('',#1883,#1983,#2008,.T.);
#2008=LINE('',#2009,#2010);
#2009=CARTESIAN_POINT('',(5.101333333,0.021333333,-3.292666667));
#2010=VECTOR('',#2011,1.0);
#2011=DIRECTION('',(-0.577350269,-0.577350269,-0.577350269));
#2012=ORIENTED_EDGE('',*,*,#1982,.F.);
#2013=PLANE('',#2014);
#2014=AXIS2_PLACEMENT_3D('',#2015,#2016,#2017);
#2015=CARTESIAN_POINT('',(4.76,0.192,-3.122));
#2016=DIRECTION('',(0.0,-0.707106781,0.707106781));
#2017=DIRECTION('',(-1.0,0.0,0.0));
#2018=ADVANCED_FACE('',(#2019),#2037,.T.);
#2019=FACE_BOUND('',#2020,.T.);
#2020=EDGE_LOOP('',(#2021,#2022,#2030,#2036));
#2021=ORIENTED_EDGE('',*,*,#1967,.F.);
#2022=ORIENTED_EDGE('',*,*,#2023,.T.);
#2023=EDGE_CURVE('',#1960,#2024,#2026,.T.);
#2024=VERTEX_POINT('',#2025);
#2025=CARTESIAN_POINT('',(5.144,0.064,8.64));
#2026=LINE('',#2027,#2028);
#2027=CARTESIAN_POINT('',(5.144,-0.32,8.64));
#2028=VECTOR('',#2029,1.0);
#2029=DIRECTION('',(0.0,1.0,0.0));
#2030=ORIENTED_EDGE('',*,*,#2031,.T.);
#2031=EDGE_CURVE('',#2024,#1852,#2032,.F.);
#2032=LINE('',#2033,#2034);
#2033=CARTESIAN_POINT('',(4.76,0.064,8.64));
#2034=VECTOR('',#2035,1.0);
#2035=DIRECTION('',(1.0,0.0,0.0));
#2036=ORIENTED_EDGE('',*,*,#1849,.F.);
#2037=PLANE('',#2038);
#2038=AXIS2_PLACEMENT_3D('',#2039,#2040,#2041);
#2039=CARTESIAN_POINT('',(4.76,-0.32,8.64));
#2040=DIRECTION('',(0.0,0.0,1.0));
#2041=DIRECTION('',(1.0,0.0,0.0));
#2042=ADVANCED_FACE('',(#2043),#2054,.T.);
#2043=FACE_BOUND('',#2044,.T.);
#2044=EDGE_LOOP('',(#2045,#2046,#2052,#2053));
#2045=ORIENTED_EDGE('',*,*,#2031,.F.);
#2046=ORIENTED_EDGE('',*,*,#2047,.T.);
#2047=EDGE_CURVE('',#2024,#1881,#2048,.F.);
#2048=LINE('',#2049,#2050);
#2049=CARTESIAN_POINT('',(5.101333333,0.021333333,8.682666667));
#2050=VECTOR('',#2051,1.0);
#2051=DIRECTION('',(-0.577350269,-0.577350269,0.577350269));
#2052=ORIENTED_EDGE('',*,*,#1897,.F.);
#2053=ORIENTED_EDGE('',*,*,#1859,.F.);
#2054=PLANE('',#2055);
#2055=AXIS2_PLACEMENT_3D('',#2056,#2057,#2058);
#2056=CARTESIAN_POINT('',(4.76,0.192,8.512));
#2057=DIRECTION('',(-3.471719944E-18,0.707106781,0.707106781));
#2058=DIRECTION('',(-1.0,-2.454876715E-18,-2.454876715E-18));
#2059=ADVANCED_FACE('',(#2060),#2066,.F.);
#2060=FACE_BOUND('',#2061,.T.);
#2061=EDGE_LOOP('',(#2062,#2063,#2064,#2065));
#2062=ORIENTED_EDGE('',*,*,#1990,.F.);
#2063=ORIENTED_EDGE('',*,*,#2007,.F.);
#2064=ORIENTED_EDGE('',*,*,#1912,.F.);
#2065=ORIENTED_EDGE('',*,*,#1941,.F.);
#2066=PLANE('',#2067);
#2067=AXIS2_PLACEMENT_3D('',#2068,#2069,#2070);
#2068=CARTESIAN_POINT('',(5.272,-0.32,-3.122));
#2069=DIRECTION('',(-0.707106781,0.0,0.707106781));
#2070=DIRECTION('',(0.0,1.0,0.0));
#2071=ADVANCED_FACE('',(#2072),#2078,.T.);
#2072=FACE_BOUND('',#2073,.T.);
#2073=EDGE_LOOP('',(#2074,#2075,#2076,#2077));
#2074=ORIENTED_EDGE('',*,*,#1959,.F.);
#2075=ORIENTED_EDGE('',*,*,#1919,.F.);
#2076=ORIENTED_EDGE('',*,*,#2047,.F.);
#2077=ORIENTED_EDGE('',*,*,#2023,.F.);
#2078=PLANE('',#2079);
#2079=AXIS2_PLACEMENT_3D('',#2080,#2081,#2082);
#2080=CARTESIAN_POINT('',(5.272,-0.32,8.512));
#2081=DIRECTION('',(0.707106781,3.471719944E-18,0.707106781));
#2082=DIRECTION('',(-2.454876715E-18,1.0,-2.454876715E-18));
#2083=MANIFOLD_SOLID_BREP('',#2084);
#2084=CLOSED_SHELL('',(#2085,#2125,#2156,#2187,#2218,#2249,#2271,#2295,#2319,#2343,#2360,#2384,#2401,#2413));
#2085=ADVANCED_FACE('',(#2086),#2120,.F.);
#2086=FACE_BOUND('',#2087,.T.);
#2087=EDGE_LOOP('',(#2088,#2098,#2106,#2114));
#2088=ORIENTED_EDGE('',*,*,#2089,.T.);
#2089=EDGE_CURVE('',#2090,#2092,#2094,.T.);
#2090=VERTEX_POINT('',#2091);
#2091=CARTESIAN_POINT('',(7.3,-0.32,8.384));
#2092=VERTEX_POINT('',#2093);
#2093=CARTESIAN_POINT('',(7.3,0.32,8.384));
#2094=LINE('',#2095,#2096);
#2095=CARTESIAN_POINT('',(7.3,-0.32,8.384));
#2096=VECTOR('',#2097,1.0);
#2097=DIRECTION('',(0.0,1.0,0.0));
#2098=ORIENTED_EDGE('',*,*,#2099,.T.);
#2099=EDGE_CURVE('',#2092,#2100,#2102,.F.);
#2100=VERTEX_POINT('',#2101);
#2101=CARTESIAN_POINT('',(7.3,0.32,-2.994));
#2102=LINE('',#2103,#2104);
#2103=CARTESIAN_POINT('',(7.3,0.32,-3.25));
#2104=VECTOR('',#2105,1.0);
#2105=DIRECTION('',(0.0,0.0,1.0));
#2106=ORIENTED_EDGE('',*,*,#2107,.T.);
#2107=EDGE_CURVE('',#2100,#2108,#2110,.F.);
#2108=VERTEX_POINT('',#2109);
#2109=CARTESIAN_POINT('',(7.3,-0.32,-2.994));
#2110=LINE('',#2111,#2112);
#2111=CARTESIAN_POINT('',(7.3,-0.32,-2.994));
#2112=VECTOR('',#2113,1.0);
#2113=DIRECTION('',(0.0,1.0,0.0));
#2114=ORIENTED_EDGE('',*,*,#2115,.T.);
#2115=EDGE_CURVE('',#2108,#2090,#2116,.T.);
#2116=LINE('',#2117,#2118);
#2117=CARTESIAN_POINT('',(7.3,-0.32,-3.25));
#2118=VECTOR('',#2119,1.0);
#2119=DIRECTION('',(0.0,0.0,1.0));
#2120=PLANE('',#2121);
#2121=AXIS2_PLACEMENT_3D('',#2122,#2123,#2124);
#2122=CARTESIAN_POINT('',(7.3,-0.32,-3.25));
#2123=DIRECTION('',(1.0,0.0,0.0));
#2124=DIRECTION('',(0.0,0.0,1.0));
#2125=ADVANCED_FACE('',(#2126),#2151,.F.);
#2126=FACE_BOUND('',#2127,.T.);
#2127=EDGE_LOOP('',(#2128,#2136,#2137,#2145));
#2128=ORIENTED_EDGE('',*,*,#2129,.T.);
#2129=EDGE_CURVE('',#2130,#2090,#2132,.F.);
#2130=VERTEX_POINT('',#2131);
#2131=CARTESIAN_POINT('',(7.94,-0.32,8.384));
#2132=LINE('',#2133,#2134);
#2133=CARTESIAN_POINT('',(7.3,-0.32,8.384));
#2134=VECTOR('',#2135,1.0);
#2135=DIRECTION('',(1.0,0.0,0.0));
#2136=ORIENTED_EDGE('',*,*,#2115,.F.);
#2137=ORIENTED_EDGE('',*,*,#2138,.T.);
#2138=EDGE_CURVE('',#2108,#2139,#2141,.T.);
#2139=VERTEX_POINT('',#2140);
#2140=CARTESIAN_POINT('',(7.94,-0.32,-2.994));
#2141=LINE('',#2142,#2143);
#2142=CARTESIAN_POINT('',(7.3,-0.32,-2.994));
#2143=VECTOR('',#2144,1.0);
#2144=DIRECTION('',(1.0,0.0,0.0));
#2145=ORIENTED_EDGE('',*,*,#2146,.T.);
#2146=EDGE_CURVE('',#2139,#2130,#2147,.T.);
#2147=LINE('',#2148,#2149);
#2148=CARTESIAN_POINT('',(7.94,-0.32,-3.25));
#2149=VECTOR('',#2150,1.0);
#2150=DIRECTION('',(0.0,0.0,1.0));
#2151=PLANE('',#2152);
#2152=AXIS2_PLACEMENT_3D('',#2153,#2154,#2155);
#2153=CARTESIAN_POINT('',(7.3,-0.32,-3.25));
#2154=DIRECTION('',(0.0,1.0,0.0));
#2155=DIRECTION('',(0.0,0.0,1.0));
#2156=ADVANCED_FACE('',(#2157),#2182,.T.);
#2157=FACE_BOUND('',#2158,.T.);
#2158=EDGE_LOOP('',(#2159,#2167,#2168,#2176));
#2159=ORIENTED_EDGE('',*,*,#2160,.T.);
#2160=EDGE_CURVE('',#2161,#2108,#2163,.F.);
#2161=VERTEX_POINT('',#2162);
#2162=CARTESIAN_POINT('',(7.556,-0.064,-3.25));
#2163=LINE('',#2164,#2165);
#2164=CARTESIAN_POINT('',(7.385333333,-0.234666667,-3.079333333));
#2165=VECTOR('',#2166,1.0);
#2166=DIRECTION('',(0.577350269,0.577350269,-0.577350269));
#2167=ORIENTED_EDGE('',*,*,#2107,.F.);
#2168=ORIENTED_EDGE('',*,*,#2169,.T.);
#2169=EDGE_CURVE('',#2100,#2170,#2172,.T.);
#2170=VERTEX_POINT('',#2171);
#2171=CARTESIAN_POINT('',(7.556,0.064,-3.25));
#2172=LINE('',#2173,#2174);
#2173=CARTESIAN_POINT('',(7.492,0.128,-3.186));
#2174=VECTOR('',#2175,1.0);
#2175=DIRECTION('',(0.577350269,-0.577350269,-0.577350269));
#2176=ORIENTED_EDGE('',*,*,#2177,.T.);
#2177=EDGE_CURVE('',#2170,#2161,#2178,.F.);
#2178=LINE('',#2179,#2180);
#2179=CARTESIAN_POINT('',(7.556,-0.32,-3.25));
#2180=VECTOR('',#2181,1.0);
#2181=DIRECTION('',(0.0,1.0,0.0));
#2182=PLANE('',#2183);
#2183=AXIS2_PLACEMENT_3D('',#2184,#2185,#2186);
#2184=CARTESIAN_POINT('',(7.428,-0.32,-3.122));
#2185=DIRECTION('',(-0.707106781,0.0,-0.707106781));
#2186=DIRECTION('',(0.0,1.0,0.0));
#2187=ADVANCED_FACE('',(#2188),#2213,.F.);
#2188=FACE_BOUND('',#2189,.T.);
#2189=EDGE_LOOP('',(#2190,#2200,#2206,#2207));
#2190=ORIENTED_EDGE('',*,*,#2191,.T.);
#2191=EDGE_CURVE('',#2192,#2194,#2196,.T.);
#2192=VERTEX_POINT('',#2193);
#2193=CARTESIAN_POINT('',(7.556,-0.064,8.64));
#2194=VERTEX_POINT('',#2195);
#2195=CARTESIAN_POINT('',(7.556,0.064,8.64));
#2196=LINE('',#2197,#2198);
#2197=CARTESIAN_POINT('',(7.556,-0.32,8.64));
#2198=VECTOR('',#2199,1.0);
#2199=DIRECTION('',(0.0,1.0,0.0));
#2200=ORIENTED_EDGE('',*,*,#2201,.T.);
#2201=EDGE_CURVE('',#2194,#2092,#2202,.F.);
#2202=LINE('',#2203,#2204);
#2203=CARTESIAN_POINT('',(7.492,0.128,8.576));
#2204=VECTOR('',#2205,1.0);
#2205=DIRECTION('',(0.577350269,-0.577350269,0.577350269));
#2206=ORIENTED_EDGE('',*,*,#2089,.F.);
#2207=ORIENTED_EDGE('',*,*,#2208,.T.);
#2208=EDGE_CURVE('',#2090,#2192,#2209,.T.);
#2209=LINE('',#2210,#2211);
#2210=CARTESIAN_POINT('',(7.385333333,-0.234666667,8.469333333));
#2211=VECTOR('',#2212,1.0);
#2212=DIRECTION('',(0.577350269,0.577350269,0.577350269));
#2213=PLANE('',#2214);
#2214=AXIS2_PLACEMENT_3D('',#2215,#2216,#2217);
#2215=CARTESIAN_POINT('',(7.428,-0.32,8.512));
#2216=DIRECTION('',(0.707106781,-3.471719944E-18,-0.707106781));
#2217=DIRECTION('',(2.454876715E-18,1.0,-2.454876715E-18));
#2218=ADVANCED_FACE('',(#2219),#2244,.T.);
#2219=FACE_BOUND('',#2220,.T.);
#2220=EDGE_LOOP('',(#2221,#2231,#2237,#2238));
#2221=ORIENTED_EDGE('',*,*,#2222,.T.);
#2222=EDGE_CURVE('',#2223,#2225,#2227,.F.);
#2223=VERTEX_POINT('',#2224);
#2224=CARTESIAN_POINT('',(7.94,0.32,8.384));
#2225=VERTEX_POINT('',#2226);
#2226=CARTESIAN_POINT('',(7.94,0.32,-2.994));
#2227=LINE('',#2228,#2229);
#2228=CARTESIAN_POINT('',(7.94,0.32,-3.25));
#2229=VECTOR('',#2230,1.0);
#2230=DIRECTION('',(0.0,0.0,1.0));
#2231=ORIENTED_EDGE('',*,*,#2232,.T.);
#2232=EDGE_CURVE('',#2225,#2100,#2233,.F.);
#2233=LINE('',#2234,#2235);
#2234=CARTESIAN_POINT('',(7.3,0.32,-2.994));
#2235=VECTOR('',#2236,1.0);
#2236=DIRECTION('',(1.0,0.0,0.0));
#2237=ORIENTED_EDGE('',*,*,#2099,.F.);
#2238=ORIENTED_EDGE('',*,*,#2239,.T.);
#2239=EDGE_CURVE('',#2092,#2223,#2240,.T.);
#2240=LINE('',#2241,#2242);
#2241=CARTESIAN_POINT('',(7.3,0.32,8.384));
#2242=VECTOR('',#2243,1.0);
#2243=DIRECTION('',(1.0,0.0,0.0));
#2244=PLANE('',#2245);
#2245=AXIS2_PLACEMENT_3D('',#2246,#2247,#2248);
#2246=CARTESIAN_POINT('',(7.3,0.32,-3.25));
#2247=DIRECTION('',(0.0,1.0,0.0));
#2248=DIRECTION('',(0.0,0.0,1.0));
#2249=ADVANCED_FACE('',(#2250),#2266,.T.);
#2250=FACE_BOUND('',#2251,.T.);
#2251=EDGE_LOOP('',(#2252,#2253,#2259,#2260));
#2252=ORIENTED_EDGE('',*,*,#2146,.F.);
#2253=ORIENTED_EDGE('',*,*,#2254,.T.);
#2254=EDGE_CURVE('',#2139,#2225,#2255,.T.);
#2255=LINE('',#2256,#2257);
#2256=CARTESIAN_POINT('',(7.94,-0.32,-2.994));
#2257=VECTOR('',#2258,1.0);
#2258=DIRECTION('',(0.0,1.0,0.0));
#2259=ORIENTED_EDGE('',*,*,#2222,.F.);
#2260=ORIENTED_EDGE('',*,*,#2261,.T.);
#2261=EDGE_CURVE('',#2223,#2130,#2262,.F.);
#2262=LINE('',#2263,#2264);
#2263=CARTESIAN_POINT('',(7.94,-0.32,8.384));
#2264=VECTOR('',#2265,1.0);
#2265=DIRECTION('',(0.0,1.0,0.0));
#2266=PLANE('',#2267);
#2267=AXIS2_PLACEMENT_3D('',#2268,#2269,#2270);
#2268=CARTESIAN_POINT('',(7.94,-0.32,-3.25));
#2269=DIRECTION('',(1.0,0.0,0.0));
#2270=DIRECTION('',(0.0,0.0,1.0));
#2271=ADVANCED_FACE('',(#2272),#2290,.T.);
#2272=FACE_BOUND('',#2273,.T.);
#2273=EDGE_LOOP('',(#2274,#2282,#2288,#2289));
#2274=ORIENTED_EDGE('',*,*,#2275,.T.);
#2275=EDGE_CURVE('',#2161,#2276,#2278,.T.);
#2276=VERTEX_POINT('',#2277);
#2277=CARTESIAN_POINT('',(7.684,-0.064,-3.25));
#2278=LINE('',#2279,#2280);
#2279=CARTESIAN_POINT('',(7.3,-0.064,-3.25));
#2280=VECTOR('',#2281,1.0);
#2281=DIRECTION('',(1.0,0.0,0.0));
#2282=ORIENTED_EDGE('',*,*,#2283,.T.);
#2283=EDGE_CURVE('',#2276,#2139,#2284,.F.);
#2284=LINE('',#2285,#2286);
#2285=CARTESIAN_POINT('',(7.748,-0.128,-3.186));
#2286=VECTOR('',#2287,1.0);
#2287=DIRECTION('',(-0.577350269,0.577350269,-0.577350269));
#2288=ORIENTED_EDGE('',*,*,#2138,.F.);
#2289=ORIENTED_EDGE('',*,*,#2160,.F.);
#2290=PLANE('',#2291);
#2291=AXIS2_PLACEMENT_3D('',#2292,#2293,#2294);
#2292=CARTESIAN_POINT('',(7.3,-0.192,-3.122));
#2293=DIRECTION('',(0.0,-0.707106781,-0.707106781));
#2294=DIRECTION('',(-1.0,0.0,0.0));
#2295=ADVANCED_FACE('',(#2296),#2314,.F.);
#2296=FACE_BOUND('',#2297,.T.);
#2297=EDGE_LOOP('',(#2298,#2299,#2300,#2308));
#2298=ORIENTED_EDGE('',*,*,#2208,.F.);
#2299=ORIENTED_EDGE('',*,*,#2129,.F.);
#2300=ORIENTED_EDGE('',*,*,#2301,.T.);
#2301=EDGE_CURVE('',#2130,#2302,#2304,.T.);
#2302=VERTEX_POINT('',#2303);
#2303=CARTESIAN_POINT('',(7.684,-0.064,8.64));
#2304=LINE('',#2305,#2306);
#2305=CARTESIAN_POINT('',(7.748,-0.128,8.576));
#2306=VECTOR('',#2307,1.0);
#2307=DIRECTION('',(-0.577350269,0.577350269,0.577350269));
#2308=ORIENTED_EDGE('',*,*,#2309,.T.);
#2309=EDGE_CURVE('',#2302,#2192,#2310,.F.);
#2310=LINE('',#2311,#2312);
#2311=CARTESIAN_POINT('',(7.3,-0.064,8.64));
#2312=VECTOR('',#2313,1.0);
#2313=DIRECTION('',(1.0,0.0,0.0));
#2314=PLANE('',#2315);
#2315=AXIS2_PLACEMENT_3D('',#2316,#2317,#2318);
#2316=CARTESIAN_POINT('',(7.3,-0.192,8.512));
#2317=DIRECTION('',(3.471719944E-18,0.707106781,-0.707106781));
#2318=DIRECTION('',(-1.0,2.454876715E-18,-2.454876715E-18));
#2319=ADVANCED_FACE('',(#2320),#2338,.F.);
#2320=FACE_BOUND('',#2321,.T.);
#2321=EDGE_LOOP('',(#2322,#2323,#2331,#2337));
#2322=ORIENTED_EDGE('',*,*,#2177,.F.);
#2323=ORIENTED_EDGE('',*,*,#2324,.T.);
#2324=EDGE_CURVE('',#2170,#2325,#2327,.T.);
#2325=VERTEX_POINT('',#2326);
#2326=CARTESIAN_POINT('',(7.684,0.064,-3.25));
#2327=LINE('',#2328,#2329);
#2328=CARTESIAN_POINT('',(7.3,0.064,-3.25));
#2329=VECTOR('',#2330,1.0);
#2330=DIRECTION('',(1.0,0.0,0.0));
#2331=ORIENTED_EDGE('',*,*,#2332,.T.);
#2332=EDGE_CURVE('',#2325,#2276,#2333,.F.);
#2333=LINE('',#2334,#2335);
#2334=CARTESIAN_POINT('',(7.684,-0.32,-3.25));
#2335=VECTOR('',#2336,1.0);
#2336=DIRECTION('',(0.0,1.0,0.0));
#2337=ORIENTED_EDGE('',*,*,#2275,.F.);
#2338=PLANE('',#2339);
#2339=AXIS2_PLACEMENT_3D('',#2340,#2341,#2342);
#2340=CARTESIAN_POINT('',(7.3,-0.32,-3.25));
#2341=DIRECTION('',(0.0,0.0,1.0));
#2342=DIRECTION('',(1.0,0.0,0.0));
#2343=ADVANCED_FACE('',(#2344),#2355,.F.);
#2344=FACE_BOUND('',#2345,.T.);
#2345=EDGE_LOOP('',(#2346,#2347,#2348,#2354));
#2346=ORIENTED_EDGE('',*,*,#2169,.F.);
#2347=ORIENTED_EDGE('',*,*,#2232,.F.);
#2348=ORIENTED_EDGE('',*,*,#2349,.T.);
#2349=EDGE_CURVE('',#2225,#2325,#2350,.T.);
#2350=LINE('',#2351,#2352);
#2351=CARTESIAN_POINT('',(7.641333333,0.021333333,-3.292666667));
#2352=VECTOR('',#2353,1.0);
#2353=DIRECTION('',(-0.577350269,-0.577350269,-0.577350269));
#2354=ORIENTED_EDGE('',*,*,#2324,.F.);
#2355=PLANE('',#2356);
#2356=AXIS2_PLACEMENT_3D('',#2357,#2358,#2359);
#2357=CARTESIAN_POINT('',(7.3,0.192,-3.122));
#2358=DIRECTION('',(0.0,-0.707106781,0.707106781));
#2359=DIRECTION('',(-1.0,0.0,0.0));
#2360=ADVANCED_FACE('',(#2361),#2379,.T.);
#2361=FACE_BOUND('',#2362,.T.);
#2362=EDGE_LOOP('',(#2363,#2364,#2372,#2378));
#2363=ORIENTED_EDGE('',*,*,#2309,.F.);
#2364=ORIENTED_EDGE('',*,*,#2365,.T.);
#2365=EDGE_CURVE('',#2302,#2366,#2368,.T.);
#2366=VERTEX_POINT('',#2367);
#2367=CARTESIAN_POINT('',(7.684,0.064,8.64));
#2368=LINE('',#2369,#2370);
#2369=CARTESIAN_POINT('',(7.684,-0.32,8.64));
#2370=VECTOR('',#2371,1.0);
#2371=DIRECTION('',(0.0,1.0,0.0));
#2372=ORIENTED_EDGE('',*,*,#2373,.T.);
#2373=EDGE_CURVE('',#2366,#2194,#2374,.F.);
#2374=LINE('',#2375,#2376);
#2375=CARTESIAN_POINT('',(7.3,0.064,8.64));
#2376=VECTOR('',#2377,1.0);
#2377=DIRECTION('',(1.0,0.0,0.0));
#2378=ORIENTED_EDGE('',*,*,#2191,.F.);
#2379=PLANE('',#2380);
#2380=AXIS2_PLACEMENT_3D('',#2381,#2382,#2383);
#2381=CARTESIAN_POINT('',(7.3,-0.32,8.64));
#2382=DIRECTION('',(0.0,0.0,1.0));
#2383=DIRECTION('',(1.0,0.0,0.0));
#2384=ADVANCED_FACE('',(#2385),#2396,.T.);
#2385=FACE_BOUND('',#2386,.T.);
#2386=EDGE_LOOP('',(#2387,#2388,#2394,#2395));
#2387=ORIENTED_EDGE('',*,*,#2373,.F.);
#2388=ORIENTED_EDGE('',*,*,#2389,.T.);
#2389=EDGE_CURVE('',#2366,#2223,#2390,.F.);
#2390=LINE('',#2391,#2392);
#2391=CARTESIAN_POINT('',(7.641333333,0.021333333,8.682666667));
#2392=VECTOR('',#2393,1.0);
#2393=DIRECTION('',(-0.577350269,-0.577350269,0.577350269));
#2394=ORIENTED_EDGE('',*,*,#2239,.F.);
#2395=ORIENTED_EDGE('',*,*,#2201,.F.);
#2396=PLANE('',#2397);
#2397=AXIS2_PLACEMENT_3D('',#2398,#2399,#2400);
#2398=CARTESIAN_POINT('',(7.3,0.192,8.512));
#2399=DIRECTION('',(-3.471719944E-18,0.707106781,0.707106781));
#2400=DIRECTION('',(-1.0,-2.454876715E-18,-2.454876715E-18));
#2401=ADVANCED_FACE('',(#2402),#2408,.F.);
#2402=FACE_BOUND('',#2403,.T.);
#2403=EDGE_LOOP('',(#2404,#2405,#2406,#2407));
#2404=ORIENTED_EDGE('',*,*,#2332,.F.);
#2405=ORIENTED_EDGE('',*,*,#2349,.F.);
#2406=ORIENTED_EDGE('',*,*,#2254,.F.);
#2407=ORIENTED_EDGE('',*,*,#2283,.F.);
#2408=PLANE('',#2409);
#2409=AXIS2_PLACEMENT_3D('',#2410,#2411,#2412);
#2410=CARTESIAN_POINT('',(7.812,-0.32,-3.122));
#2411=DIRECTION('',(-0.707106781,0.0,0.707106781));
#2412=DIRECTION('',(0.0,1.0,0.0));
#2413=ADVANCED_FACE('',(#2414),#2420,.T.);
#2414=FACE_BOUND('',#2415,.T.);
#2415=EDGE_LOOP('',(#2416,#2417,#2418,#2419));
#2416=ORIENTED_EDGE('',*,*,#2301,.F.);
#2417=ORIENTED_EDGE('',*,*,#2261,.F.);
#2418=ORIENTED_EDGE('',*,*,#2389,.F.);
#2419=ORIENTED_EDGE('',*,*,#2365,.F.);
#2420=PLANE('',#2421);
#2421=AXIS2_PLACEMENT_3D('',#2422,#2423,#2424);
#2422=CARTESIAN_POINT('',(7.812,-0.32,8.512));
#2423=DIRECTION('',(0.707106781,3.471719944E-18,0.707106781));
#2424=DIRECTION('',(-2.454876715E-18,1.0,-2.454876715E-18));
#2425=(GEOMETRIC_REPRESENTATION_CONTEXT(3)GLOBAL_UNCERTAINTY_ASSIGNED_CONTEXT((#2426))GLOBAL_UNIT_ASSIGNED_CONTEXT((#14,#15,#16))REPRESENTATION_CONTEXT('',''));
#2426=UNCERTAINTY_MEASURE_WITH_UNIT(LENGTH_MEASURE(1.0E-07),#14,'','maximum tolerance');
#2427=ADVANCED_BREP_SHAPE_REPRESENTATION('',(#1057,#1399,#1741,#2083,#9),#2425);
#2428=(REPRESENTATION_RELATIONSHIP('',$,#2427,#17)REPRESENTATION_RELATIONSHIP_WITH_TRANSFORMATION(#2429)SHAPE_REPRESENTATION_RELATIONSHIP());
#2429=ITEM_DEFINED_TRANSFORMATION('',$,#9,#9);
#2430=PRODUCT('LeadsArray','LeadsArray',$,(#3));
#2431=PRODUCT_DEFINITION_FORMATION('',$,#2430);
#2432=PRODUCT_DEFINITION('design',$,#2431,#6);
#2433=NEXT_ASSEMBLY_USAGE_OCCURRENCE('instance_2','','',#7,#2432,$);
#2434=PRODUCT_DEFINITION_SHAPE('',$,#2433);
#2435=CONTEXT_DEPENDENT_SHAPE_REPRESENTATION(#2428,#2434);
#2436=PRODUCT_DEFINITION_SHAPE('',$,#2432);
#2437=SHAPE_DEFINITION_REPRESENTATION(#2436,#2427);
#2438=PRODUCT_RELATED_PRODUCT_CATEGORY('part',$,(#2430));
#2439=STYLED_ITEM('',(#2440),#1057);
#2440=PRESENTATION_STYLE_ASSIGNMENT((#2441));
#2441=SURFACE_STYLE_USAGE(.BOTH.,#2442);
#2442=SURFACE_SIDE_STYLE('',(#2443));
#2443=SURFACE_STYLE_FILL_AREA(#2444);
#2444=FILL_AREA_STYLE('',(#2446));
#2445=COLOUR_RGB('',0.734000027,0.773000002,0.796999991);
#2446=FILL_AREA_STYLE_COLOUR('',#2445);
#2447=STYLED_ITEM('',(#2448),#1399);
#2448=PRESENTATION_STYLE_ASSIGNMENT((#2449));
#2449=SURFACE_STYLE_USAGE(.BOTH.,#2450);
#2450=SURFACE_SIDE_STYLE('',(#2451));
#2451=SURFACE_STYLE_FILL_AREA(#2452);
#2452=FILL_AREA_STYLE('',(#2454));
#2453=COLOUR_RGB('',0.734000027,0.773000002,0.796999991);
#2454=FILL_AREA_STYLE_COLOUR('',#2453);
#2455=STYLED_ITEM('',(#2456),#1741);
#2456=PRESENTATION_STYLE_ASSIGNMENT((#2457));
#2457=SURFACE_STYLE_USAGE(.BOTH.,#2458);
#2458=SURFACE_SIDE_STYLE('',(#2459));
#2459=SURFACE_STYLE_FILL_AREA(#2460);
#2460=FILL_AREA_STYLE('',(#2462));
#2461=COLOUR_RGB('',0.734000027,0.773000002,0.796999991);
#2462=FILL_AREA_STYLE_COLOUR('',#2461);
#2463=STYLED_ITEM('',(#2464),#2083);
#2464=PRESENTATION_STYLE_ASSIGNMENT((#2465));
#2465=SURFACE_STYLE_USAGE(.BOTH.,#2466);
#2466=SURFACE_SIDE_STYLE('',(#2467));
#2467=SURFACE_STYLE_FILL_AREA(#2468);
#2468=FILL_AREA_STYLE('',(#2470));
#2469=COLOUR_RGB('',0.734000027,0.773000002,0.796999991);
#2470=FILL_AREA_STYLE_COLOUR('',#2469);
#2471=MECHANICAL_DESIGN_GEOMETRIC_PRESENTATION_REPRESENTATION('',(#2439,#2447,#2455,#2463),#2425);
ENDSEC;
END-ISO-10303-21;
