ISO-10303-21;
HEADER;
FILE_DESCRIPTION(('CAx-IF Rec.Pracs.---Model Styling and Organization---1.5---2016-08-15','CAx-IF Rec.Pracs.---Geometric and Assembly Validation Properties---4.4---2016-08-17','CAx-IF Rec.Pracs.---User Defined Attributes---1.5---2016-08-15','CAx-IF Rec.Pracs.---External References---2.1---2005-01-19'),'2;1');
FILE_NAME('861402.step','2026-08-11T15:38:05',('Unspecified'),('Unspecified'),'CAD Exchanger 3.10.2 (cadexchanger.com)','Unspecified','');
FILE_SCHEMA(('AUTOMOTIVE_DESIGN { 1 0 10303 214 1 1 1 1 }'));
ENDSEC;
DATA;
#1=APPLICATION_CONTEXT('core data for automotive mechanical design processes');
#2=APPLICATION_PROTOCOL_DEFINITION('international standard','automotive_design',2000,#1);
#3=PRODUCT_CONTEXT('',#1,'mechanical');
#4=PRODUCT('SMD100F-2018-2','SMD100F-2018-2',$,(#3));
#5=PRODUCT_DEFINITION_FORMATION('',$,#4);
#6=PRODUCT_DEFINITION_CONTEXT('part definition',#1,'design');
#7=PRODUCT_DEFINITION('design',$,#5,#6);
#8=PRODUCT_DEFINITION_SHAPE('',$,#7);
#9=MANIFOLD_SOLID_BREP('Cut-Extrude1[1]',#10);
#10=CLOSED_SHELL('NONE',(#11,#83,#155,#177,#233,#289,#311,#328,#345,#357,#369,#386,#398,#415));
#11=ADVANCED_FACE('NONE',(#12),#78,.T.);
#12=FACE_BOUND('NONE',#13,.T.);
#13=EDGE_LOOP('',(#14,#24,#32,#40,#48,#56,#64,#72));
#14=ORIENTED_EDGE('',*,*,#15,.T.);
#15=EDGE_CURVE('NONE',#16,#18,#20,.T.);
#16=VERTEX_POINT('NONE',#17);
#17=CARTESIAN_POINT('',(-2.18,-0.76,2.0));
#18=VERTEX_POINT('NONE',#19);
#19=CARTESIAN_POINT('',(-2.18,-0.76,-2.0));
#20=LINE('',#21,#22);
#21=CARTESIAN_POINT('',(-2.18,-0.76,2.465));
#22=VECTOR('',#23,1.0);
#23=DIRECTION('',(0.0,0.0,-1.0));
#24=ORIENTED_EDGE('',*,*,#25,.T.);
#25=EDGE_CURVE('NONE',#18,#26,#28,.T.);
#26=VERTEX_POINT('NONE',#27);
#27=CARTESIAN_POINT('',(-2.18,-0.26,-2.0));
#28=LINE('',#29,#30);
#29=CARTESIAN_POINT('',(-2.18,-3.87277016E-15,-2.0));
#30=VECTOR('',#31,1.0);
#31=DIRECTION('',(0.0,1.0,-8.67361738E-16));
#32=ORIENTED_EDGE('',*,*,#33,.T.);
#33=EDGE_CURVE('NONE',#26,#34,#36,.T.);
#34=VERTEX_POINT('NONE',#35);
#35=CARTESIAN_POINT('',(-2.18,-0.26,-2.465));
#36=LINE('',#37,#38);
#37=CARTESIAN_POINT('',(-2.18,-0.26,2.465));
#38=VECTOR('',#39,1.0);
#39=DIRECTION('',(0.0,0.0,-1.0));
#40=ORIENTED_EDGE('',*,*,#41,.T.);
#41=EDGE_CURVE('NONE',#34,#42,#44,.F.);
#42=VERTEX_POINT('NONE',#43);
#43=CARTESIAN_POINT('',(-2.18,0.25,-2.465));
#44=LINE('',#45,#46);
#45=CARTESIAN_POINT('',(-2.18,0.0,-2.465));
#46=VECTOR('',#47,1.0);
#47=DIRECTION('',(0.0,-1.0,0.0));
#48=ORIENTED_EDGE('',*,*,#49,.T.);
#49=EDGE_CURVE('NONE',#42,#50,#52,.T.);
#50=VERTEX_POINT('NONE',#51);
#51=CARTESIAN_POINT('',(-2.18,0.25,2.465));
#52=LINE('',#53,#54);
#53=CARTESIAN_POINT('',(-2.18,0.25,2.465));
#54=VECTOR('',#55,1.0);
#55=DIRECTION('',(0.0,0.0,1.0));
#56=ORIENTED_EDGE('',*,*,#57,.T.);
#57=EDGE_CURVE('NONE',#50,#58,#60,.T.);
#58=VERTEX_POINT('NONE',#59);
#59=CARTESIAN_POINT('',(-2.18,-0.26,2.465));
#60=LINE('',#61,#62);
#61=CARTESIAN_POINT('',(-2.18,0.0,2.465));
#62=VECTOR('',#63,1.0);
#63=DIRECTION('',(0.0,-1.0,0.0));
#64=ORIENTED_EDGE('',*,*,#65,.T.);
#65=EDGE_CURVE('NONE',#58,#66,#68,.T.);
#66=VERTEX_POINT('NONE',#67);
#67=CARTESIAN_POINT('',(-2.18,-0.26,2.0));
#68=LINE('',#69,#70);
#69=CARTESIAN_POINT('',(-2.18,-0.26,2.465));
#70=VECTOR('',#71,1.0);
#71=DIRECTION('',(0.0,0.0,-1.0));
#72=ORIENTED_EDGE('',*,*,#73,.T.);
#73=EDGE_CURVE('NONE',#66,#16,#74,.F.);
#74=LINE('',#75,#76);
#75=CARTESIAN_POINT('',(-2.18,0.0,2.0));
#76=VECTOR('',#77,1.0);
#77=DIRECTION('',(0.0,1.0,0.0));
#78=PLANE('',#79);
#79=AXIS2_PLACEMENT_3D('',#80,#81,#82);
#80=CARTESIAN_POINT('',(-2.18,0.0,2.465));
#81=DIRECTION('',(1.0,0.0,0.0));
#82=DIRECTION('',(0.0,0.0,-1.0));
#83=ADVANCED_FACE('NONE',(#84),#150,.F.);
#84=FACE_BOUND('NONE',#85,.T.);
#85=EDGE_LOOP('',(#86,#96,#104,#112,#120,#128,#136,#144));
#86=ORIENTED_EDGE('',*,*,#87,.T.);
#87=EDGE_CURVE('NONE',#88,#90,#92,.T.);
#88=VERTEX_POINT('NONE',#89);
#89=CARTESIAN_POINT('',(-2.54,-0.26,-2.0));
#90=VERTEX_POINT('NONE',#91);
#91=CARTESIAN_POINT('',(-2.54,-0.76,-2.0));
#92=LINE('',#93,#94);
#93=CARTESIAN_POINT('',(-2.54,-1.734723476E-15,-2.0));
#94=VECTOR('',#95,1.0);
#95=DIRECTION('',(0.0,-1.0,8.67361738E-16));
#96=ORIENTED_EDGE('',*,*,#97,.T.);
#97=EDGE_CURVE('NONE',#90,#98,#100,.F.);
#98=VERTEX_POINT('NONE',#99);
#99=CARTESIAN_POINT('',(-2.54,-0.76,2.0));
#100=LINE('',#101,#102);
#101=CARTESIAN_POINT('',(-2.54,-0.76,2.465));
#102=VECTOR('',#103,1.0);
#103=DIRECTION('',(0.0,0.0,-1.0));
#104=ORIENTED_EDGE('',*,*,#105,.T.);
#105=EDGE_CURVE('NONE',#98,#106,#108,.F.);
#106=VERTEX_POINT('NONE',#107);
#107=CARTESIAN_POINT('',(-2.54,-0.26,2.0));
#108=LINE('',#109,#110);
#109=CARTESIAN_POINT('',(-2.54,0.0,2.0));
#110=VECTOR('',#111,1.0);
#111=DIRECTION('',(0.0,-1.0,0.0));
#112=ORIENTED_EDGE('',*,*,#113,.T.);
#113=EDGE_CURVE('NONE',#106,#114,#116,.T.);
#114=VERTEX_POINT('NONE',#115);
#115=CARTESIAN_POINT('',(-2.54,-0.26,2.465));
#116=LINE('',#117,#118);
#117=CARTESIAN_POINT('',(-2.54,-0.26,0.0));
#118=VECTOR('',#119,1.0);
#119=DIRECTION('',(0.0,0.0,1.0));
#120=ORIENTED_EDGE('',*,*,#121,.T.);
#121=EDGE_CURVE('NONE',#114,#122,#124,.F.);
#122=VERTEX_POINT('NONE',#123);
#123=CARTESIAN_POINT('',(-2.54,0.46,2.465));
#124=LINE('',#125,#126);
#125=CARTESIAN_POINT('',(-2.54,0.0,2.465));
#126=VECTOR('',#127,1.0);
#127=DIRECTION('',(0.0,-1.0,0.0));
#128=ORIENTED_EDGE('',*,*,#129,.T.);
#129=EDGE_CURVE('NONE',#122,#130,#132,.T.);
#130=VERTEX_POINT('NONE',#131);
#131=CARTESIAN_POINT('',(-2.54,0.46,-2.465));
#132=LINE('',#133,#134);
#133=CARTESIAN_POINT('',(-2.54,0.46,-2.465));
#134=VECTOR('',#135,1.0);
#135=DIRECTION('',(0.0,0.0,-1.0));
#136=ORIENTED_EDGE('',*,*,#137,.T.);
#137=EDGE_CURVE('NONE',#130,#138,#140,.T.);
#138=VERTEX_POINT('NONE',#139);
#139=CARTESIAN_POINT('',(-2.54,-0.26,-2.465));
#140=LINE('',#141,#142);
#141=CARTESIAN_POINT('',(-2.54,0.0,-2.465));
#142=VECTOR('',#143,1.0);
#143=DIRECTION('',(0.0,-1.0,0.0));
#144=ORIENTED_EDGE('',*,*,#145,.T.);
#145=EDGE_CURVE('NONE',#138,#88,#146,.T.);
#146=LINE('',#147,#148);
#147=CARTESIAN_POINT('',(-2.54,-0.26,0.0));
#148=VECTOR('',#149,1.0);
#149=DIRECTION('',(0.0,0.0,1.0));
#150=PLANE('',#151);
#151=AXIS2_PLACEMENT_3D('',#152,#153,#154);
#152=CARTESIAN_POINT('',(-2.54,0.0,2.465));
#153=DIRECTION('',(1.0,0.0,0.0));
#154=DIRECTION('',(0.0,0.0,-1.0));
#155=ADVANCED_FACE('NONE',(#156),#172,.F.);
#156=FACE_BOUND('NONE',#157,.T.);
#157=EDGE_LOOP('',(#158,#164,#165,#171));
#158=ORIENTED_EDGE('',*,*,#159,.T.);
#159=EDGE_CURVE('NONE',#90,#18,#160,.F.);
#160=LINE('',#161,#162);
#161=CARTESIAN_POINT('',(2.54,-0.76,-2.0));
#162=VECTOR('',#163,1.0);
#163=DIRECTION('',(-1.0,0.0,0.0));
#164=ORIENTED_EDGE('',*,*,#15,.F.);
#165=ORIENTED_EDGE('',*,*,#166,.T.);
#166=EDGE_CURVE('NONE',#16,#98,#167,.T.);
#167=LINE('',#168,#169);
#168=CARTESIAN_POINT('',(2.54,-0.76,2.0));
#169=VECTOR('',#170,1.0);
#170=DIRECTION('',(-1.0,0.0,0.0));
#171=ORIENTED_EDGE('',*,*,#97,.F.);
#172=PLANE('',#173);
#173=AXIS2_PLACEMENT_3D('',#174,#175,#176);
#174=CARTESIAN_POINT('',(0.0,-0.76,2.465));
#175=DIRECTION('',(0.0,1.0,0.0));
#176=DIRECTION('',(0.0,0.0,1.0));
#177=ADVANCED_FACE('NONE',(#178),#228,.T.);
#178=FACE_BOUND('NONE',#179,.T.);
#179=EDGE_LOOP('',(#180,#181,#187,#188,#197,#205,#213,#221));
#180=ORIENTED_EDGE('',*,*,#121,.F.);
#181=ORIENTED_EDGE('',*,*,#182,.T.);
#182=EDGE_CURVE('NONE',#114,#58,#183,.T.);
#183=LINE('',#184,#185);
#184=CARTESIAN_POINT('',(0.0,-0.26,2.465));
#185=VECTOR('',#186,1.0);
#186=DIRECTION('',(1.0,0.0,0.0));
#187=ORIENTED_EDGE('',*,*,#57,.F.);
#188=ORIENTED_EDGE('',*,*,#189,.T.);
#189=EDGE_CURVE('NONE',#50,#190,#192,.T.);
#190=VERTEX_POINT('NONE',#191);
#191=CARTESIAN_POINT('',(-2.03,0.4,2.465));
#192=CIRCLE('',#193,0.15);
#193=AXIS2_PLACEMENT_3D('',#194,#195,#196);
#194=CARTESIAN_POINT('',(-2.03,0.25,2.465));
#195=DIRECTION('',(0.0,0.0,-1.0));
#196=DIRECTION('',(1.0,0.0,0.0));
#197=ORIENTED_EDGE('',*,*,#198,.T.);
#198=EDGE_CURVE('NONE',#190,#199,#201,.T.);
#199=VERTEX_POINT('NONE',#200);
#200=CARTESIAN_POINT('',(2.54,0.4,2.465));
#201=LINE('',#202,#203);
#202=CARTESIAN_POINT('',(0.0,0.4,2.465));
#203=VECTOR('',#204,1.0);
#204=DIRECTION('',(1.0,0.0,0.0));
#205=ORIENTED_EDGE('',*,*,#206,.T.);
#206=EDGE_CURVE('NONE',#199,#207,#209,.F.);
#207=VERTEX_POINT('NONE',#208);
#208=CARTESIAN_POINT('',(2.54,0.76,2.465));
#209=LINE('',#210,#211);
#210=CARTESIAN_POINT('',(2.54,7.247035574E-16,2.465));
#211=VECTOR('',#212,1.0);
#212=DIRECTION('',(2.853163612E-16,-1.0,0.0));
#213=ORIENTED_EDGE('',*,*,#214,.T.);
#214=EDGE_CURVE('NONE',#207,#215,#217,.F.);
#215=VERTEX_POINT('NONE',#216);
#216=CARTESIAN_POINT('',(-2.24,0.76,2.465));
#217=LINE('',#218,#219);
#218=CARTESIAN_POINT('',(-3.244069492E-17,0.76,2.465));
#219=VECTOR('',#220,1.0);
#220=DIRECTION('',(1.0,4.26851249E-17,0.0));
#221=ORIENTED_EDGE('',*,*,#222,.T.);
#222=EDGE_CURVE('NONE',#215,#122,#223,.T.);
#223=CIRCLE('',#224,0.3);
#224=AXIS2_PLACEMENT_3D('',#225,#226,#227);
#225=CARTESIAN_POINT('',(-2.24,0.46,2.465));
#226=DIRECTION('',(0.0,0.0,1.0));
#227=DIRECTION('',(1.0,0.0,0.0));
#228=PLANE('',#229);
#229=AXIS2_PLACEMENT_3D('',#230,#231,#232);
#230=CARTESIAN_POINT('',(0.0,0.0,2.465));
#231=DIRECTION('',(0.0,0.0,1.0));
#232=DIRECTION('',(1.0,0.0,0.0));
#233=ADVANCED_FACE('NONE',(#234),#284,.F.);
#234=FACE_BOUND('NONE',#235,.T.);
#235=EDGE_LOOP('',(#236,#242,#243,#252,#260,#268,#276,#283));
#236=ORIENTED_EDGE('',*,*,#237,.T.);
#237=EDGE_CURVE('NONE',#34,#138,#238,.F.);
#238=LINE('',#239,#240);
#239=CARTESIAN_POINT('',(0.0,-0.26,-2.465));
#240=VECTOR('',#241,1.0);
#241=DIRECTION('',(1.0,0.0,0.0));
#242=ORIENTED_EDGE('',*,*,#137,.F.);
#243=ORIENTED_EDGE('',*,*,#244,.T.);
#244=EDGE_CURVE('NONE',#130,#245,#247,.T.);
#245=VERTEX_POINT('NONE',#246);
#246=CARTESIAN_POINT('',(-2.24,0.76,-2.465));
#247=CIRCLE('',#248,0.3);
#248=AXIS2_PLACEMENT_3D('',#249,#250,#251);
#249=CARTESIAN_POINT('',(-2.24,0.46,-2.465));
#250=DIRECTION('',(0.0,0.0,-1.0));
#251=DIRECTION('',(1.0,0.0,0.0));
#252=ORIENTED_EDGE('',*,*,#253,.T.);
#253=EDGE_CURVE('NONE',#245,#254,#256,.T.);
#254=VERTEX_POINT('NONE',#255);
#255=CARTESIAN_POINT('',(2.54,0.76,-2.465));
#256=LINE('',#257,#258);
#257=CARTESIAN_POINT('',(-3.244069492E-17,0.76,-2.465));
#258=VECTOR('',#259,1.0);
#259=DIRECTION('',(1.0,4.26851249E-17,0.0));
#260=ORIENTED_EDGE('',*,*,#261,.T.);
#261=EDGE_CURVE('NONE',#254,#262,#264,.T.);
#262=VERTEX_POINT('NONE',#263);
#263=CARTESIAN_POINT('',(2.54,0.4,-2.465));
#264=LINE('',#265,#266);
#265=CARTESIAN_POINT('',(2.54,7.247035574E-16,-2.465));
#266=VECTOR('',#267,1.0);
#267=DIRECTION('',(2.853163612E-16,-1.0,0.0));
#268=ORIENTED_EDGE('',*,*,#269,.T.);
#269=EDGE_CURVE('NONE',#262,#270,#272,.F.);
#270=VERTEX_POINT('NONE',#271);
#271=CARTESIAN_POINT('',(-2.03,0.4,-2.465));
#272=LINE('',#273,#274);
#273=CARTESIAN_POINT('',(0.0,0.4,-2.465));
#274=VECTOR('',#275,1.0);
#275=DIRECTION('',(1.0,0.0,0.0));
#276=ORIENTED_EDGE('',*,*,#277,.T.);
#277=EDGE_CURVE('NONE',#270,#42,#278,.T.);
#278=CIRCLE('',#279,0.15);
#279=AXIS2_PLACEMENT_3D('',#280,#281,#282);
#280=CARTESIAN_POINT('',(-2.03,0.25,-2.465));
#281=DIRECTION('',(0.0,0.0,1.0));
#282=DIRECTION('',(1.0,0.0,0.0));
#283=ORIENTED_EDGE('',*,*,#41,.F.);
#284=PLANE('',#285);
#285=AXIS2_PLACEMENT_3D('',#286,#287,#288);
#286=CARTESIAN_POINT('',(0.0,0.0,-2.465));
#287=DIRECTION('',(0.0,0.0,1.0));
#288=DIRECTION('',(1.0,0.0,0.0));
#289=ADVANCED_FACE('NONE',(#290),#306,.F.);
#290=FACE_BOUND('NONE',#291,.T.);
#291=EDGE_LOOP('',(#292,#293,#299,#300));
#292=ORIENTED_EDGE('',*,*,#198,.F.);
#293=ORIENTED_EDGE('',*,*,#294,.T.);
#294=EDGE_CURVE('NONE',#190,#270,#295,.T.);
#295=LINE('',#296,#297);
#296=CARTESIAN_POINT('',(-2.03,0.4,2.465));
#297=VECTOR('',#298,1.0);
#298=DIRECTION('',(0.0,0.0,-1.0));
#299=ORIENTED_EDGE('',*,*,#269,.F.);
#300=ORIENTED_EDGE('',*,*,#301,.T.);
#301=EDGE_CURVE('NONE',#262,#199,#302,.F.);
#302=LINE('',#303,#304);
#303=CARTESIAN_POINT('',(2.54,0.4,2.465));
#304=VECTOR('',#305,1.0);
#305=DIRECTION('',(0.0,0.0,-1.0));
#306=PLANE('',#307);
#307=AXIS2_PLACEMENT_3D('',#308,#309,#310);
#308=CARTESIAN_POINT('',(0.0,0.4,2.465));
#309=DIRECTION('',(0.0,1.0,0.0));
#310=DIRECTION('',(0.0,0.0,1.0));
#311=ADVANCED_FACE('NONE',(#312),#323,.T.);
#312=FACE_BOUND('NONE',#313,.T.);
#313=EDGE_LOOP('',(#314,#315,#321,#322));
#314=ORIENTED_EDGE('',*,*,#261,.F.);
#315=ORIENTED_EDGE('',*,*,#316,.T.);
#316=EDGE_CURVE('NONE',#254,#207,#317,.F.);
#317=LINE('',#318,#319);
#318=CARTESIAN_POINT('',(2.54,0.76,2.465));
#319=VECTOR('',#320,1.0);
#320=DIRECTION('',(0.0,0.0,-1.0));
#321=ORIENTED_EDGE('',*,*,#206,.F.);
#322=ORIENTED_EDGE('',*,*,#301,.F.);
#323=PLANE('',#324);
#324=AXIS2_PLACEMENT_3D('',#325,#326,#327);
#325=CARTESIAN_POINT('',(2.54,7.247035574E-16,2.465));
#326=DIRECTION('',(1.0,2.853163612E-16,0.0));
#327=DIRECTION('',(-2.853163612E-16,1.0,0.0));
#328=ADVANCED_FACE('NONE',(#329),#340,.T.);
#329=FACE_BOUND('NONE',#330,.T.);
#330=EDGE_LOOP('',(#331,#332,#338,#339));
#331=ORIENTED_EDGE('',*,*,#253,.F.);
#332=ORIENTED_EDGE('',*,*,#333,.T.);
#333=EDGE_CURVE('NONE',#245,#215,#334,.T.);
#334=LINE('',#335,#336);
#335=CARTESIAN_POINT('',(-2.24,0.76,2.465));
#336=VECTOR('',#337,1.0);
#337=DIRECTION('',(0.0,0.0,1.0));
#338=ORIENTED_EDGE('',*,*,#214,.F.);
#339=ORIENTED_EDGE('',*,*,#316,.F.);
#340=PLANE('',#341);
#341=AXIS2_PLACEMENT_3D('',#342,#343,#344);
#342=CARTESIAN_POINT('',(-3.244069492E-17,0.76,2.465));
#343=DIRECTION('',(-4.26851249E-17,1.0,0.0));
#344=DIRECTION('',(-1.0,-4.26851249E-17,0.0));
#345=ADVANCED_FACE('NONE',(#346),#352,.F.);
#346=FACE_BOUND('NONE',#347,.T.);
#347=EDGE_LOOP('',(#348,#349,#350,#351));
#348=ORIENTED_EDGE('',*,*,#189,.F.);
#349=ORIENTED_EDGE('',*,*,#49,.F.);
#350=ORIENTED_EDGE('',*,*,#277,.F.);
#351=ORIENTED_EDGE('',*,*,#294,.F.);
#352=CYLINDRICAL_SURFACE('',#353,0.15);
#353=AXIS2_PLACEMENT_3D('',#354,#355,#356);
#354=CARTESIAN_POINT('',(-2.03,0.25,2.465));
#355=DIRECTION('',(0.0,0.0,-1.0));
#356=DIRECTION('',(-1.0,0.0,0.0));
#357=ADVANCED_FACE('NONE',(#358),#364,.T.);
#358=FACE_BOUND('NONE',#359,.T.);
#359=EDGE_LOOP('',(#360,#361,#362,#363));
#360=ORIENTED_EDGE('',*,*,#222,.F.);
#361=ORIENTED_EDGE('',*,*,#333,.F.);
#362=ORIENTED_EDGE('',*,*,#244,.F.);
#363=ORIENTED_EDGE('',*,*,#129,.F.);
#364=CYLINDRICAL_SURFACE('',#365,0.3);
#365=AXIS2_PLACEMENT_3D('',#366,#367,#368);
#366=CARTESIAN_POINT('',(-2.24,0.46,2.465));
#367=DIRECTION('',(0.0,0.0,1.0));
#368=DIRECTION('',(1.0,0.0,0.0));
#369=ADVANCED_FACE('NONE',(#370),#381,.T.);
#370=FACE_BOUND('NONE',#371,.T.);
#371=EDGE_LOOP('',(#372,#373,#374,#380));
#372=ORIENTED_EDGE('',*,*,#159,.F.);
#373=ORIENTED_EDGE('',*,*,#87,.F.);
#374=ORIENTED_EDGE('',*,*,#375,.T.);
#375=EDGE_CURVE('NONE',#88,#26,#376,.F.);
#376=LINE('',#377,#378);
#377=CARTESIAN_POINT('',(2.54,-0.26,-2.0));
#378=VECTOR('',#379,1.0);
#379=DIRECTION('',(-1.0,0.0,0.0));
#380=ORIENTED_EDGE('',*,*,#25,.F.);
#381=PLANE('',#382);
#382=AXIS2_PLACEMENT_3D('',#383,#384,#385);
#383=CARTESIAN_POINT('',(2.54,-1.734723476E-15,-2.0));
#384=DIRECTION('',(0.0,-8.67361738E-16,-1.0));
#385=DIRECTION('',(0.0,1.0,-8.67361738E-16));
#386=ADVANCED_FACE('NONE',(#387),#393,.T.);
#387=FACE_BOUND('NONE',#388,.T.);
#388=EDGE_LOOP('',(#389,#390,#391,#392));
#389=ORIENTED_EDGE('',*,*,#375,.F.);
#390=ORIENTED_EDGE('',*,*,#145,.F.);
#391=ORIENTED_EDGE('',*,*,#237,.F.);
#392=ORIENTED_EDGE('',*,*,#33,.F.);
#393=PLANE('',#394);
#394=AXIS2_PLACEMENT_3D('',#395,#396,#397);
#395=CARTESIAN_POINT('',(2.54,-0.26,0.0));
#396=DIRECTION('',(0.0,-1.0,0.0));
#397=DIRECTION('',(0.0,0.0,-1.0));
#398=ADVANCED_FACE('NONE',(#399),#410,.T.);
#399=FACE_BOUND('NONE',#400,.T.);
#400=EDGE_LOOP('',(#401,#402,#403,#409));
#401=ORIENTED_EDGE('',*,*,#182,.F.);
#402=ORIENTED_EDGE('',*,*,#113,.F.);
#403=ORIENTED_EDGE('',*,*,#404,.T.);
#404=EDGE_CURVE('NONE',#106,#66,#405,.F.);
#405=LINE('',#406,#407);
#406=CARTESIAN_POINT('',(2.54,-0.26,2.0));
#407=VECTOR('',#408,1.0);
#408=DIRECTION('',(-1.0,0.0,0.0));
#409=ORIENTED_EDGE('',*,*,#65,.F.);
#410=PLANE('',#411);
#411=AXIS2_PLACEMENT_3D('',#412,#413,#414);
#412=CARTESIAN_POINT('',(2.54,-0.26,0.0));
#413=DIRECTION('',(0.0,-1.0,0.0));
#414=DIRECTION('',(0.0,0.0,-1.0));
#415=ADVANCED_FACE('NONE',(#416),#422,.F.);
#416=FACE_BOUND('NONE',#417,.T.);
#417=EDGE_LOOP('',(#418,#419,#420,#421));
#418=ORIENTED_EDGE('',*,*,#73,.F.);
#419=ORIENTED_EDGE('',*,*,#404,.F.);
#420=ORIENTED_EDGE('',*,*,#105,.F.);
#421=ORIENTED_EDGE('',*,*,#166,.F.);
#422=PLANE('',#423);
#423=AXIS2_PLACEMENT_3D('',#424,#425,#426);
#424=CARTESIAN_POINT('',(2.54,0.0,2.0));
#425=DIRECTION('',(0.0,0.0,-1.0));
#426=DIRECTION('',(-1.0,0.0,0.0));
#427=MANIFOLD_SOLID_BREP('Cut-Extrude1[2]',#428);
#428=CLOSED_SHELL('NONE',(#429,#501,#532,#595,#651,#707,#729,#746,#763,#775,#787,#804,#816,#833));
#429=ADVANCED_FACE('NONE',(#430),#496,.F.);
#430=FACE_BOUND('NONE',#431,.T.);
#431=EDGE_LOOP('',(#432,#442,#450,#458,#466,#474,#482,#490));
#432=ORIENTED_EDGE('',*,*,#433,.T.);
#433=EDGE_CURVE('NONE',#434,#436,#438,.F.);
#434=VERTEX_POINT('NONE',#435);
#435=CARTESIAN_POINT('',(2.18,-0.26,-2.0));
#436=VERTEX_POINT('NONE',#437);
#437=CARTESIAN_POINT('',(2.18,-0.76,-2.0));
#438=LINE('',#439,#440);
#439=CARTESIAN_POINT('',(2.18,-3.87277016E-15,-2.0));
#440=VECTOR('',#441,1.0);
#441=DIRECTION('',(0.0,1.0,-8.67361738E-16));
#442=ORIENTED_EDGE('',*,*,#443,.T.);
#443=EDGE_CURVE('NONE',#436,#444,#446,.F.);
#444=VERTEX_POINT('NONE',#445);
#445=CARTESIAN_POINT('',(2.18,-0.76,2.0));
#446=LINE('',#447,#448);
#447=CARTESIAN_POINT('',(2.18,-0.76,2.465));
#448=VECTOR('',#449,1.0);
#449=DIRECTION('',(0.0,0.0,-1.0));
#450=ORIENTED_EDGE('',*,*,#451,.T.);
#451=EDGE_CURVE('NONE',#444,#452,#454,.T.);
#452=VERTEX_POINT('NONE',#453);
#453=CARTESIAN_POINT('',(2.18,-0.26,2.0));
#454=LINE('',#455,#456);
#455=CARTESIAN_POINT('',(2.18,0.0,2.0));
#456=VECTOR('',#457,1.0);
#457=DIRECTION('',(0.0,1.0,0.0));
#458=ORIENTED_EDGE('',*,*,#459,.T.);
#459=EDGE_CURVE('NONE',#452,#460,#462,.F.);
#460=VERTEX_POINT('NONE',#461);
#461=CARTESIAN_POINT('',(2.18,-0.26,2.465));
#462=LINE('',#463,#464);
#463=CARTESIAN_POINT('',(2.18,-0.26,2.465));
#464=VECTOR('',#465,1.0);
#465=DIRECTION('',(0.0,0.0,-1.0));
#466=ORIENTED_EDGE('',*,*,#467,.T.);
#467=EDGE_CURVE('NONE',#460,#468,#470,.F.);
#468=VERTEX_POINT('NONE',#469);
#469=CARTESIAN_POINT('',(2.18,-0.11,2.465));
#470=LINE('',#471,#472);
#471=CARTESIAN_POINT('',(2.18,0.0,2.465));
#472=VECTOR('',#473,1.0);
#473=DIRECTION('',(0.0,-1.0,0.0));
#474=ORIENTED_EDGE('',*,*,#475,.T.);
#475=EDGE_CURVE('NONE',#468,#476,#478,.T.);
#476=VERTEX_POINT('NONE',#477);
#477=CARTESIAN_POINT('',(2.18,-0.11,-2.465));
#478=LINE('',#479,#480);
#479=CARTESIAN_POINT('',(2.18,-0.11,-2.465));
#480=VECTOR('',#481,1.0);
#481=DIRECTION('',(0.0,0.0,-1.0));
#482=ORIENTED_EDGE('',*,*,#483,.T.);
#483=EDGE_CURVE('NONE',#476,#484,#486,.T.);
#484=VERTEX_POINT('NONE',#485);
#485=CARTESIAN_POINT('',(2.18,-0.26,-2.465));
#486=LINE('',#487,#488);
#487=CARTESIAN_POINT('',(2.18,0.0,-2.465));
#488=VECTOR('',#489,1.0);
#489=DIRECTION('',(0.0,-1.0,0.0));
#490=ORIENTED_EDGE('',*,*,#491,.T.);
#491=EDGE_CURVE('NONE',#484,#434,#492,.F.);
#492=LINE('',#493,#494);
#493=CARTESIAN_POINT('',(2.18,-0.26,2.465));
#494=VECTOR('',#495,1.0);
#495=DIRECTION('',(0.0,0.0,-1.0));
#496=PLANE('',#497);
#497=AXIS2_PLACEMENT_3D('',#498,#499,#500);
#498=CARTESIAN_POINT('',(2.18,0.0,2.465));
#499=DIRECTION('',(1.0,0.0,0.0));
#500=DIRECTION('',(0.0,0.0,-1.0));
#501=ADVANCED_FACE('NONE',(#502),#527,.F.);
#502=FACE_BOUND('NONE',#503,.T.);
#503=EDGE_LOOP('',(#504,#512,#520,#526));
#504=ORIENTED_EDGE('',*,*,#505,.T.);
#505=EDGE_CURVE('NONE',#436,#506,#508,.F.);
#506=VERTEX_POINT('NONE',#507);
#507=CARTESIAN_POINT('',(2.54,-0.76,-2.0));
#508=LINE('',#509,#510);
#509=CARTESIAN_POINT('',(2.54,-0.76,-2.0));
#510=VECTOR('',#511,1.0);
#511=DIRECTION('',(-1.0,0.0,0.0));
#512=ORIENTED_EDGE('',*,*,#513,.T.);
#513=EDGE_CURVE('NONE',#506,#514,#516,.F.);
#514=VERTEX_POINT('NONE',#515);
#515=CARTESIAN_POINT('',(2.54,-0.76,2.0));
#516=LINE('',#517,#518);
#517=CARTESIAN_POINT('',(2.54,-0.76,2.465));
#518=VECTOR('',#519,1.0);
#519=DIRECTION('',(0.0,0.0,-1.0));
#520=ORIENTED_EDGE('',*,*,#521,.T.);
#521=EDGE_CURVE('NONE',#514,#444,#522,.T.);
#522=LINE('',#523,#524);
#523=CARTESIAN_POINT('',(2.54,-0.76,2.0));
#524=VECTOR('',#525,1.0);
#525=DIRECTION('',(-1.0,0.0,0.0));
#526=ORIENTED_EDGE('',*,*,#443,.F.);
#527=PLANE('',#528);
#528=AXIS2_PLACEMENT_3D('',#529,#530,#531);
#529=CARTESIAN_POINT('',(0.0,-0.76,2.465));
#530=DIRECTION('',(0.0,1.0,0.0));
#531=DIRECTION('',(0.0,0.0,1.0));
#532=ADVANCED_FACE('NONE',(#533),#590,.T.);
#533=FACE_BOUND('NONE',#534,.T.);
#534=EDGE_LOOP('',(#535,#536,#544,#552,#560,#568,#576,#584));
#535=ORIENTED_EDGE('',*,*,#513,.F.);
#536=ORIENTED_EDGE('',*,*,#537,.T.);
#537=EDGE_CURVE('NONE',#506,#538,#540,.F.);
#538=VERTEX_POINT('NONE',#539);
#539=CARTESIAN_POINT('',(2.54,-0.26,-2.0));
#540=LINE('',#541,#542);
#541=CARTESIAN_POINT('',(2.54,-1.734723476E-15,-2.0));
#542=VECTOR('',#543,1.0);
#543=DIRECTION('',(0.0,-1.0,8.67361738E-16));
#544=ORIENTED_EDGE('',*,*,#545,.T.);
#545=EDGE_CURVE('NONE',#538,#546,#548,.F.);
#546=VERTEX_POINT('NONE',#547);
#547=CARTESIAN_POINT('',(2.54,-0.26,-2.465));
#548=LINE('',#549,#550);
#549=CARTESIAN_POINT('',(2.54,-0.26,0.0));
#550=VECTOR('',#551,1.0);
#551=DIRECTION('',(0.0,0.0,1.0));
#552=ORIENTED_EDGE('',*,*,#553,.T.);
#553=EDGE_CURVE('NONE',#546,#554,#556,.F.);
#554=VERTEX_POINT('NONE',#555);
#555=CARTESIAN_POINT('',(2.54,0.1,-2.465));
#556=LINE('',#557,#558);
#557=CARTESIAN_POINT('',(2.54,7.247035574E-16,-2.465));
#558=VECTOR('',#559,1.0);
#559=DIRECTION('',(2.853163612E-16,-1.0,0.0));
#560=ORIENTED_EDGE('',*,*,#561,.T.);
#561=EDGE_CURVE('NONE',#554,#562,#564,.T.);
#562=VERTEX_POINT('NONE',#563);
#563=CARTESIAN_POINT('',(2.54,0.1,2.465));
#564=LINE('',#565,#566);
#565=CARTESIAN_POINT('',(2.54,0.1,2.465));
#566=VECTOR('',#567,1.0);
#567=DIRECTION('',(0.0,0.0,1.0));
#568=ORIENTED_EDGE('',*,*,#569,.T.);
#569=EDGE_CURVE('NONE',#562,#570,#572,.T.);
#570=VERTEX_POINT('NONE',#571);
#571=CARTESIAN_POINT('',(2.54,-0.26,2.465));
#572=LINE('',#573,#574);
#573=CARTESIAN_POINT('',(2.54,7.247035574E-16,2.465));
#574=VECTOR('',#575,1.0);
#575=DIRECTION('',(2.853163612E-16,-1.0,0.0));
#576=ORIENTED_EDGE('',*,*,#577,.T.);
#577=EDGE_CURVE('NONE',#570,#578,#580,.F.);
#578=VERTEX_POINT('NONE',#579);
#579=CARTESIAN_POINT('',(2.54,-0.26,2.0));
#580=LINE('',#581,#582);
#581=CARTESIAN_POINT('',(2.54,-0.26,0.0));
#582=VECTOR('',#583,1.0);
#583=DIRECTION('',(0.0,0.0,1.0));
#584=ORIENTED_EDGE('',*,*,#585,.T.);
#585=EDGE_CURVE('NONE',#578,#514,#586,.T.);
#586=LINE('',#587,#588);
#587=CARTESIAN_POINT('',(2.54,0.0,2.0));
#588=VECTOR('',#589,1.0);
#589=DIRECTION('',(0.0,-1.0,0.0));
#590=PLANE('',#591);
#591=AXIS2_PLACEMENT_3D('',#592,#593,#594);
#592=CARTESIAN_POINT('',(2.54,7.247035574E-16,2.465));
#593=DIRECTION('',(1.0,2.853163612E-16,0.0));
#594=DIRECTION('',(-2.853163612E-16,1.0,0.0));
#595=ADVANCED_FACE('NONE',(#596),#646,.T.);
#596=FACE_BOUND('NONE',#597,.T.);
#597=EDGE_LOOP('',(#598,#599,#605,#606,#615,#623,#631,#639));
#598=ORIENTED_EDGE('',*,*,#467,.F.);
#599=ORIENTED_EDGE('',*,*,#600,.T.);
#600=EDGE_CURVE('NONE',#460,#570,#601,.F.);
#601=LINE('',#602,#603);
#602=CARTESIAN_POINT('',(2.54,-0.26,2.465));
#603=VECTOR('',#604,1.0);
#604=DIRECTION('',(-1.0,0.0,0.0));
#605=ORIENTED_EDGE('',*,*,#569,.F.);
#606=ORIENTED_EDGE('',*,*,#607,.T.);
#607=EDGE_CURVE('NONE',#562,#608,#610,.T.);
#608=VERTEX_POINT('NONE',#609);
#609=CARTESIAN_POINT('',(2.24,0.4,2.465));
#610=CIRCLE('',#611,0.3);
#611=AXIS2_PLACEMENT_3D('',#612,#613,#614);
#612=CARTESIAN_POINT('',(2.24,0.1,2.465));
#613=DIRECTION('',(0.0,0.0,1.0));
#614=DIRECTION('',(1.0,0.0,0.0));
#615=ORIENTED_EDGE('',*,*,#616,.T.);
#616=EDGE_CURVE('NONE',#608,#617,#619,.F.);
#617=VERTEX_POINT('NONE',#618);
#618=CARTESIAN_POINT('',(-1.82,0.4,2.465));
#619=LINE('',#620,#621);
#620=CARTESIAN_POINT('',(0.0,0.4,2.465));
#621=VECTOR('',#622,1.0);
#622=DIRECTION('',(1.0,0.0,0.0));
#623=ORIENTED_EDGE('',*,*,#624,.T.);
#624=EDGE_CURVE('NONE',#617,#625,#627,.T.);
#625=VERTEX_POINT('NONE',#626);
#626=CARTESIAN_POINT('',(-1.82,0.04,2.465));
#627=LINE('',#628,#629);
#628=CARTESIAN_POINT('',(-1.82,0.0,2.465));
#629=VECTOR('',#630,1.0);
#630=DIRECTION('',(0.0,-1.0,0.0));
#631=ORIENTED_EDGE('',*,*,#632,.T.);
#632=EDGE_CURVE('NONE',#625,#633,#635,.T.);
#633=VERTEX_POINT('NONE',#634);
#634=CARTESIAN_POINT('',(2.03,0.04,2.465));
#635=LINE('',#636,#637);
#636=CARTESIAN_POINT('',(0.0,0.04,2.465));
#637=VECTOR('',#638,1.0);
#638=DIRECTION('',(1.0,0.0,0.0));
#639=ORIENTED_EDGE('',*,*,#640,.T.);
#640=EDGE_CURVE('NONE',#633,#468,#641,.T.);
#641=CIRCLE('',#642,0.15);
#642=AXIS2_PLACEMENT_3D('',#643,#644,#645);
#643=CARTESIAN_POINT('',(2.03,-0.11,2.465));
#644=DIRECTION('',(0.0,0.0,-1.0));
#645=DIRECTION('',(1.0,0.0,0.0));
#646=PLANE('',#647);
#647=AXIS2_PLACEMENT_3D('',#648,#649,#650);
#648=CARTESIAN_POINT('',(0.0,0.0,2.465));
#649=DIRECTION('',(0.0,0.0,1.0));
#650=DIRECTION('',(1.0,0.0,0.0));
#651=ADVANCED_FACE('NONE',(#652),#702,.F.);
#652=FACE_BOUND('NONE',#653,.T.);
#653=EDGE_LOOP('',(#654,#660,#661,#670,#678,#686,#694,#701));
#654=ORIENTED_EDGE('',*,*,#655,.T.);
#655=EDGE_CURVE('NONE',#546,#484,#656,.T.);
#656=LINE('',#657,#658);
#657=CARTESIAN_POINT('',(2.54,-0.26,-2.465));
#658=VECTOR('',#659,1.0);
#659=DIRECTION('',(-1.0,0.0,0.0));
#660=ORIENTED_EDGE('',*,*,#483,.F.);
#661=ORIENTED_EDGE('',*,*,#662,.T.);
#662=EDGE_CURVE('NONE',#476,#663,#665,.T.);
#663=VERTEX_POINT('NONE',#664);
#664=CARTESIAN_POINT('',(2.03,0.04,-2.465));
#665=CIRCLE('',#666,0.15);
#666=AXIS2_PLACEMENT_3D('',#667,#668,#669);
#667=CARTESIAN_POINT('',(2.03,-0.11,-2.465));
#668=DIRECTION('',(0.0,0.0,1.0));
#669=DIRECTION('',(1.0,0.0,0.0));
#670=ORIENTED_EDGE('',*,*,#671,.T.);
#671=EDGE_CURVE('NONE',#663,#672,#674,.F.);
#672=VERTEX_POINT('NONE',#673);
#673=CARTESIAN_POINT('',(-1.82,0.04,-2.465));
#674=LINE('',#675,#676);
#675=CARTESIAN_POINT('',(0.0,0.04,-2.465));
#676=VECTOR('',#677,1.0);
#677=DIRECTION('',(1.0,0.0,0.0));
#678=ORIENTED_EDGE('',*,*,#679,.T.);
#679=EDGE_CURVE('NONE',#672,#680,#682,.F.);
#680=VERTEX_POINT('NONE',#681);
#681=CARTESIAN_POINT('',(-1.82,0.4,-2.465));
#682=LINE('',#683,#684);
#683=CARTESIAN_POINT('',(-1.82,0.0,-2.465));
#684=VECTOR('',#685,1.0);
#685=DIRECTION('',(0.0,-1.0,0.0));
#686=ORIENTED_EDGE('',*,*,#687,.T.);
#687=EDGE_CURVE('NONE',#680,#688,#690,.T.);
#688=VERTEX_POINT('NONE',#689);
#689=CARTESIAN_POINT('',(2.24,0.4,-2.465));
#690=LINE('',#691,#692);
#691=CARTESIAN_POINT('',(0.0,0.4,-2.465));
#692=VECTOR('',#693,1.0);
#693=DIRECTION('',(1.0,0.0,0.0));
#694=ORIENTED_EDGE('',*,*,#695,.T.);
#695=EDGE_CURVE('NONE',#688,#554,#696,.T.);
#696=CIRCLE('',#697,0.3);
#697=AXIS2_PLACEMENT_3D('',#698,#699,#700);
#698=CARTESIAN_POINT('',(2.24,0.1,-2.465));
#699=DIRECTION('',(0.0,0.0,-1.0));
#700=DIRECTION('',(1.0,-9.035018104E-16,0.0));
#701=ORIENTED_EDGE('',*,*,#553,.F.);
#702=PLANE('',#703);
#703=AXIS2_PLACEMENT_3D('',#704,#705,#706);
#704=CARTESIAN_POINT('',(0.0,0.0,-2.465));
#705=DIRECTION('',(0.0,0.0,1.0));
#706=DIRECTION('',(1.0,0.0,0.0));
#707=ADVANCED_FACE('NONE',(#708),#724,.T.);
#708=FACE_BOUND('NONE',#709,.T.);
#709=EDGE_LOOP('',(#710,#711,#717,#718));
#710=ORIENTED_EDGE('',*,*,#616,.F.);
#711=ORIENTED_EDGE('',*,*,#712,.T.);
#712=EDGE_CURVE('NONE',#608,#688,#713,.T.);
#713=LINE('',#714,#715);
#714=CARTESIAN_POINT('',(2.24,0.4,2.465));
#715=VECTOR('',#716,1.0);
#716=DIRECTION('',(0.0,0.0,-1.0));
#717=ORIENTED_EDGE('',*,*,#687,.F.);
#718=ORIENTED_EDGE('',*,*,#719,.T.);
#719=EDGE_CURVE('NONE',#680,#617,#720,.F.);
#720=LINE('',#721,#722);
#721=CARTESIAN_POINT('',(-1.82,0.4,2.465));
#722=VECTOR('',#723,1.0);
#723=DIRECTION('',(0.0,0.0,-1.0));
#724=PLANE('',#725);
#725=AXIS2_PLACEMENT_3D('',#726,#727,#728);
#726=CARTESIAN_POINT('',(0.0,0.4,2.465));
#727=DIRECTION('',(0.0,1.0,0.0));
#728=DIRECTION('',(0.0,0.0,1.0));
#729=ADVANCED_FACE('NONE',(#730),#741,.F.);
#730=FACE_BOUND('NONE',#731,.T.);
#731=EDGE_LOOP('',(#732,#733,#739,#740));
#732=ORIENTED_EDGE('',*,*,#679,.F.);
#733=ORIENTED_EDGE('',*,*,#734,.T.);
#734=EDGE_CURVE('NONE',#672,#625,#735,.F.);
#735=LINE('',#736,#737);
#736=CARTESIAN_POINT('',(-1.82,0.04,2.465));
#737=VECTOR('',#738,1.0);
#738=DIRECTION('',(0.0,0.0,-1.0));
#739=ORIENTED_EDGE('',*,*,#624,.F.);
#740=ORIENTED_EDGE('',*,*,#719,.F.);
#741=PLANE('',#742);
#742=AXIS2_PLACEMENT_3D('',#743,#744,#745);
#743=CARTESIAN_POINT('',(-1.82,0.0,2.465));
#744=DIRECTION('',(1.0,0.0,0.0));
#745=DIRECTION('',(0.0,0.0,-1.0));
#746=ADVANCED_FACE('NONE',(#747),#758,.F.);
#747=FACE_BOUND('NONE',#748,.T.);
#748=EDGE_LOOP('',(#749,#750,#756,#757));
#749=ORIENTED_EDGE('',*,*,#671,.F.);
#750=ORIENTED_EDGE('',*,*,#751,.T.);
#751=EDGE_CURVE('NONE',#663,#633,#752,.T.);
#752=LINE('',#753,#754);
#753=CARTESIAN_POINT('',(2.03,0.04,2.465));
#754=VECTOR('',#755,1.0);
#755=DIRECTION('',(0.0,0.0,1.0));
#756=ORIENTED_EDGE('',*,*,#632,.F.);
#757=ORIENTED_EDGE('',*,*,#734,.F.);
#758=PLANE('',#759);
#759=AXIS2_PLACEMENT_3D('',#760,#761,#762);
#760=CARTESIAN_POINT('',(0.0,0.04,2.465));
#761=DIRECTION('',(0.0,1.0,0.0));
#762=DIRECTION('',(0.0,0.0,1.0));
#763=ADVANCED_FACE('NONE',(#764),#770,.T.);
#764=FACE_BOUND('NONE',#765,.T.);
#765=EDGE_LOOP('',(#766,#767,#768,#769));
#766=ORIENTED_EDGE('',*,*,#607,.F.);
#767=ORIENTED_EDGE('',*,*,#561,.F.);
#768=ORIENTED_EDGE('',*,*,#695,.F.);
#769=ORIENTED_EDGE('',*,*,#712,.F.);
#770=CYLINDRICAL_SURFACE('',#771,0.3);
#771=AXIS2_PLACEMENT_3D('',#772,#773,#774);
#772=CARTESIAN_POINT('',(2.24,0.1,2.465));
#773=DIRECTION('',(0.0,0.0,-1.0));
#774=DIRECTION('',(-1.0,0.0,0.0));
#775=ADVANCED_FACE('NONE',(#776),#782,.F.);
#776=FACE_BOUND('NONE',#777,.T.);
#777=EDGE_LOOP('',(#778,#779,#780,#781));
#778=ORIENTED_EDGE('',*,*,#640,.F.);
#779=ORIENTED_EDGE('',*,*,#751,.F.);
#780=ORIENTED_EDGE('',*,*,#662,.F.);
#781=ORIENTED_EDGE('',*,*,#475,.F.);
#782=CYLINDRICAL_SURFACE('',#783,0.15);
#783=AXIS2_PLACEMENT_3D('',#784,#785,#786);
#784=CARTESIAN_POINT('',(2.03,-0.11,2.465));
#785=DIRECTION('',(0.0,0.0,1.0));
#786=DIRECTION('',(1.0,0.0,0.0));
#787=ADVANCED_FACE('NONE',(#788),#799,.T.);
#788=FACE_BOUND('NONE',#789,.T.);
#789=EDGE_LOOP('',(#790,#791,#797,#798));
#790=ORIENTED_EDGE('',*,*,#433,.F.);
#791=ORIENTED_EDGE('',*,*,#792,.T.);
#792=EDGE_CURVE('NONE',#434,#538,#793,.F.);
#793=LINE('',#794,#795);
#794=CARTESIAN_POINT('',(2.54,-0.26,-2.0));
#795=VECTOR('',#796,1.0);
#796=DIRECTION('',(-1.0,0.0,0.0));
#797=ORIENTED_EDGE('',*,*,#537,.F.);
#798=ORIENTED_EDGE('',*,*,#505,.F.);
#799=PLANE('',#800);
#800=AXIS2_PLACEMENT_3D('',#801,#802,#803);
#801=CARTESIAN_POINT('',(2.54,-1.734723476E-15,-2.0));
#802=DIRECTION('',(0.0,-8.67361738E-16,-1.0));
#803=DIRECTION('',(0.0,1.0,-8.67361738E-16));
#804=ADVANCED_FACE('NONE',(#805),#811,.T.);
#805=FACE_BOUND('NONE',#806,.T.);
#806=EDGE_LOOP('',(#807,#808,#809,#810));
#807=ORIENTED_EDGE('',*,*,#491,.F.);
#808=ORIENTED_EDGE('',*,*,#655,.F.);
#809=ORIENTED_EDGE('',*,*,#545,.F.);
#810=ORIENTED_EDGE('',*,*,#792,.F.);
#811=PLANE('',#812);
#812=AXIS2_PLACEMENT_3D('',#813,#814,#815);
#813=CARTESIAN_POINT('',(2.54,-0.26,0.0));
#814=DIRECTION('',(0.0,-1.0,0.0));
#815=DIRECTION('',(0.0,0.0,-1.0));
#816=ADVANCED_FACE('NONE',(#817),#828,.F.);
#817=FACE_BOUND('NONE',#818,.T.);
#818=EDGE_LOOP('',(#819,#820,#821,#827));
#819=ORIENTED_EDGE('',*,*,#521,.F.);
#820=ORIENTED_EDGE('',*,*,#585,.F.);
#821=ORIENTED_EDGE('',*,*,#822,.T.);
#822=EDGE_CURVE('NONE',#578,#452,#823,.T.);
#823=LINE('',#824,#825);
#824=CARTESIAN_POINT('',(2.54,-0.26,2.0));
#825=VECTOR('',#826,1.0);
#826=DIRECTION('',(-1.0,0.0,0.0));
#827=ORIENTED_EDGE('',*,*,#451,.F.);
#828=PLANE('',#829);
#829=AXIS2_PLACEMENT_3D('',#830,#831,#832);
#830=CARTESIAN_POINT('',(2.54,0.0,2.0));
#831=DIRECTION('',(0.0,0.0,-1.0));
#832=DIRECTION('',(-1.0,0.0,0.0));
#833=ADVANCED_FACE('NONE',(#834),#840,.T.);
#834=FACE_BOUND('NONE',#835,.T.);
#835=EDGE_LOOP('',(#836,#837,#838,#839));
#836=ORIENTED_EDGE('',*,*,#459,.F.);
#837=ORIENTED_EDGE('',*,*,#822,.F.);
#838=ORIENTED_EDGE('',*,*,#577,.F.);
#839=ORIENTED_EDGE('',*,*,#600,.F.);
#840=PLANE('',#841);
#841=AXIS2_PLACEMENT_3D('',#842,#843,#844);
#842=CARTESIAN_POINT('',(2.54,-0.26,0.0));
#843=DIRECTION('',(0.0,-1.0,0.0));
#844=DIRECTION('',(0.0,0.0,-1.0));
#845=AXIS2_PLACEMENT_3D('',#846,#847,#848);
#846=CARTESIAN_POINT('',(0.0,0.0,0.0));
#847=DIRECTION('',(0.0,0.0,1.0));
#848=DIRECTION('',(1.0,0.0,0.0));
#849=(GEOMETRIC_REPRESENTATION_CONTEXT(3)GLOBAL_UNCERTAINTY_ASSIGNED_CONTEXT((#853))GLOBAL_UNIT_ASSIGNED_CONTEXT((#850,#851,#852))REPRESENTATION_CONTEXT('',''));
#850=(LENGTH_UNIT()NAMED_UNIT(*)SI_UNIT(.MILLI.,.METRE.));
#851=(NAMED_UNIT(*)PLANE_ANGLE_UNIT()SI_UNIT($,.RADIAN.));
#852=(NAMED_UNIT(*)SI_UNIT($,.STERADIAN.)SOLID_ANGLE_UNIT());
#853=UNCERTAINTY_MEASURE_WITH_UNIT(LENGTH_MEASURE(1.0E-07),#850,'','maximum tolerance');
#854=ADVANCED_BREP_SHAPE_REPRESENTATION('',(#9,#427,#845),#849);
#855=SHAPE_DEFINITION_REPRESENTATION(#8,#854);
#856=PRODUCT_RELATED_PRODUCT_CATEGORY('part',$,(#4));
#857=STYLED_ITEM('',(#858),#9);
#858=PRESENTATION_STYLE_ASSIGNMENT((#859));
#859=SURFACE_STYLE_USAGE(.BOTH.,#860);
#860=SURFACE_SIDE_STYLE('',(#861));
#861=SURFACE_STYLE_FILL_AREA(#862);
#862=FILL_AREA_STYLE('',(#864));
#863=COLOUR_RGB('',0.843137264,0.843137264,0.843137264);
#864=FILL_AREA_STYLE_COLOUR('',#863);
#865=STYLED_ITEM('',(#866),#427);
#866=PRESENTATION_STYLE_ASSIGNMENT((#867));
#867=SURFACE_STYLE_USAGE(.BOTH.,#868);
#868=SURFACE_SIDE_STYLE('',(#869));
#869=SURFACE_STYLE_FILL_AREA(#870);
#870=FILL_AREA_STYLE('',(#872));
#871=COLOUR_RGB('',0.843137264,0.843137264,0.843137264);
#872=FILL_AREA_STYLE_COLOUR('',#871);
#873=MECHANICAL_DESIGN_GEOMETRIC_PRESENTATION_REPRESENTATION('',(#857,#865),#849);
ENDSEC;
END-ISO-10303-21;
